<svg xmlns="http://www.w3.org/2000/svg" viewBox="0 0 128 128"><defs><style>.cls-1{fill:#edf0f4;}.cls-2{fill:#d4d8e1;}.cls-3{fill:#e2607f;}.cls-4{fill:#f6b756;}.cls-5{fill:#d7f1ff;}.cls-6{fill:#c3e1f5;}.cls-7{fill:#949aaf;}.cls-8{fill:#f3f4f5;}.cls-9{fill:#fbcc88;}.cls-10{fill:#dd4e6a;}.cls-11{fill:#464f6b;}.cls-12{fill:#3d465e;}.cls-13{fill:#8288a1;}</style></defs><title>Ambulance</title><g id="Ambulance"><path class="cls-1" d="M127,71V89c-22,0-10.33-1-43-1V40h16.6a6.15,6.15,0,0,1,5.57,3.59c8.5,18.69,7.68,16.88,8.58,18.87l8.06,2.69A6.11,6.11,0,0,1,127,71Z"/><path class="cls-2" d="M127,85v4c-22,0-10.33-1-43-1V84C116.21,84,104.69,85,127,85Z"/><path class="cls-1" d="M84,88V28H1V88Z"/><path class="cls-3" d="M84,71V69H1v2Z"/><path class="cls-2" d="M84,88V84H1v4Z"/><path class="cls-3" d="M100,40H92V36a4,4,0,0,1,8,0Z"/><rect class="cls-4" x="123" y="74" width="4" height="4"/><path class="cls-5" d="M114.12,61.55,110.29,64H92V42h13.12c.92,1,.46.29,9,19Z"/><path class="cls-6" d="M114.12,61.55,110.29,64H92V61h18.29l2.94-1.88C114.23,61.33,114.08,60.83,114.12,61.55Z"/><path class="cls-7" d="M99,73H94a1,1,0,0,1,0-2h5A1,1,0,0,1,99,73Z"/><rect class="cls-8" x="52" y="42" width="24" height="46"/><rect class="cls-1" x="52" y="84" width="24" height="4"/><rect class="cls-5" x="58" y="50" width="12" height="12"/><rect class="cls-6" x="58" y="58" width="12" height="4"/><polygon class="cls-3" points="40 46 32 46 32 38 23 38 23 46 15 46 15 55 23 55 23 63 32 63 32 55 40 55 40 46"/><rect class="cls-9" x="1" y="76" width="4" height="4"/><rect class="cls-10" x="23" y="59" width="9" height="4"/><rect class="cls-2" x="84" y="40" width="3" height="48"/><rect class="cls-10" x="92" y="37" width="8" height="3"/><circle class="cls-11" cx="109" cy="88" r="10"/><circle class="cls-7" cx="109" cy="88" r="4"/><circle class="cls-11" cx="31" cy="88" r="10"/><path class="cls-12" d="M109,98a10,10,0,0,1-9.88-11.48,10,10,0,0,0,19.76,0A10,10,0,0,1,109,98Z"/><path class="cls-12" d="M31,98a10,10,0,0,1-9.88-11.48,10,10,0,0,0,19.76,0A10,10,0,0,1,31,98Z"/><circle class="cls-7" cx="31" cy="88" r="4"/><path class="cls-13" d="M112.87,89a4,4,0,0,0-7.74,0,4,4,0,1,1,7.74,0Z"/><path class="cls-13" d="M34.87,89a4,4,0,0,0-7.74,0,4,4,0,1,1,7.74,0Z"/></g></svg>