<svg xmlns="http://www.w3.org/2000/svg" viewBox="0 0 128 128"><defs><style>.cls-1{fill:#464f6b;}.cls-2{fill:#3d465e;}.cls-3{fill:#5b8dc9;}.cls-4{fill:#949aaf;}.cls-5{fill:#8288a1;}</style></defs><title>Bike</title><g id="Bike"><path class="cls-1" d="M23,58A22,22,0,1,0,45,80,22,22,0,0,0,23,58Zm0,39A17,17,0,1,1,40,80,17,17,0,0,1,23,97Z"/><path class="cls-1" d="M105,58a22,22,0,1,0,22,22A22,22,0,0,0,105,58Zm0,39a17,17,0,1,1,17-17A17,17,0,0,1,105,97Z"/><path class="cls-2" d="M45,79A22,22,0,0,1,1,79,22,22,0,1,0,45,79Z"/><path class="cls-2" d="M127,79A22,22,0,0,1,83,79,22,22,0,1,0,127,79Z"/><path class="cls-3" d="M105,77.76,83.65,36,94.43,30.9c.72-.34.57-.7.57-4.9a1,1,0,0,0-2,0v3.37C81,35.06,81.68,34.65,81.45,35c-.39.66-.15.78,2.37,5.71L48.2,50.64l-5.45-15a1,1,0,0,0-1.88.68l5.6,15.4L23.56,77.84a1,1,0,0,0,.61,1.64A1,1,0,0,0,25,81H52a1,1,0,0,0,0-2H25.2L47.25,53.89l7.59,20.87a1,1,0,0,0,1.88-.68L48.88,52.53c38.86-10.8,35.59-9.87,35.86-10,1.46,2.87,1.21,2.08.84,2.53L61.12,74.79a1,1,0,0,0,1.54,1.28L86.85,46.68l16.35,32A1,1,0,0,0,105,77.76Z"/><path class="cls-4" d="M52.38,36H37.68a6,6,0,0,1-6-6,4,4,0,0,1,4-4c6.46,0,5.9-.05,10,2L53,29.47A3.3,3.3,0,0,1,52.38,36Z"/><path class="cls-5" d="M52.38,36H37.68c-4.33,0-6.87-4.42-5.76-7.34A6,6,0,0,0,37.68,33c14.84,0,16.46.62,17.63-1.8A3.3,3.3,0,0,1,52.38,36Z"/><circle class="cls-5" cx="105" cy="80" r="2"/><circle class="cls-5" cx="23" cy="80" r="2"/><circle class="cls-4" cx="58" cy="80" r="6"/><path class="cls-5" d="M58,86a6,6,0,0,1-5.8-7.5,6,6,0,0,0,11.61,0A6,6,0,0,1,58,86Z"/></g></svg>