<svg xmlns="http://www.w3.org/2000/svg" viewBox="0 0 128 128"><defs><style>.cls-1{fill:#7aa8d7;}.cls-2{fill:#5b8dc9;}.cls-3{fill:#d7dbe2;}.cls-4{fill:#c6ccda;}.cls-5{fill:#d7f1ff;}.cls-6{fill:#c3e1f5;}.cls-7{fill:#adb3c4;}.cls-8{fill:#464f6b;}.cls-9{fill:#3d465e;}.cls-10{fill:#949aaf;}.cls-11{fill:#8288a1;}.cls-12{fill:#e2607f;}.cls-13{fill:#dd4e6a;}</style></defs><title>Box Truck</title><g id="Box_Truck" data-name="Box Truck"><path class="cls-1" d="M127,67.82V90H86V44h25.25a6.12,6.12,0,0,1,5.23,3C125.67,62.22,127,63.35,127,67.82Z"/><rect class="cls-2" x="86" y="87" width="41" height="3"/><rect class="cls-3" x="1" y="28" width="85" height="48"/><rect class="cls-4" x="1" y="72" width="85" height="4"/><path class="cls-5" d="M126.53,64.47,125,66H115l-4-4H97V46h18.77c.63.7,10.24,16.58,10.24,17A12.83,12.83,0,0,1,126.53,64.47Z"/><path class="cls-6" d="M126.53,64.47,125,66H115l-4-4H97V60h14l4,4h10l1-1A12.83,12.83,0,0,1,126.53,64.47Z"/><path class="cls-7" d="M103,71H99a1,1,0,0,1,0-2h4A1,1,0,0,1,103,71Z"/><path class="cls-3" d="M86,90V76H1V90Z"/><path class="cls-4" d="M86,90V87H1v3Z"/><circle class="cls-8" cx="19" cy="90" r="10"/><circle class="cls-8" cx="101" cy="90" r="10"/><path class="cls-9" d="M19,100A10,10,0,0,1,9.12,88.52a10,10,0,0,0,19.76,0A10,10,0,0,1,19,100Z"/><path class="cls-9" d="M101,100a10,10,0,0,1-9.88-11.48,10,10,0,0,0,19.76,0A10,10,0,0,1,101,100Z"/><circle class="cls-10" cx="19" cy="90" r="4"/><circle class="cls-10" cx="101" cy="90" r="4"/><path class="cls-11" d="M22.87,91a4,4,0,0,0-7.74,0,4,4,0,1,1,7.74,0Z"/><path class="cls-11" d="M104.87,91a4,4,0,0,0-7.74,0,4,4,0,1,1,7.74,0Z"/><rect class="cls-12" x="123" y="76" width="4" height="6"/><rect class="cls-13" x="123" y="80" width="4" height="2"/></g></svg>