<svg xmlns="http://www.w3.org/2000/svg" viewBox="0 0 128 128"><defs><style>.cls-1{fill:#f3f4f5;}.cls-2{fill:#3d465e;}.cls-3{fill:#d7f1ff;}.cls-4{fill:#c3e1f5;}.cls-5{fill:#949aaf;}.cls-6{fill:#8288a1;}.cls-7{fill:#96c8ea;}.cls-8{fill:#7aa8d7;}.cls-9{fill:#d4d8e1;}.cls-10{fill:#c7cdd8;}</style></defs><title>Bullet Train</title><g id="Bullet_Train" data-name="Bullet Train"><path class="cls-1" d="M117,78H1V41H84.56c10.13,0,17.24,3.29,24.66,8.22,14.4,9.6,14.15,9.32,15.11,10.28A10.7,10.7,0,0,1,117,78Z"/><path class="cls-2" d="M126,89H2a1,1,0,0,1,0-2H126A1,1,0,0,1,126,89Z"/><path class="cls-3" d="M126.31,62H74V50h36.39C123.76,58.91,124.47,58.94,126.31,62Z"/><path class="cls-4" d="M126.31,62H74V59c53.45,0,49.58-.25,50.33.5A10.26,10.26,0,0,1,126.31,62Z"/><path class="cls-1" d="M94.48,63c-.87,0-.49.33-6.39-12.55a1,1,0,0,1,1.82-.84l5.48,12A1,1,0,0,1,94.48,63Z"/><rect class="cls-3" x="1" y="50" width="43" height="12"/><rect class="cls-4" x="1" y="59" width="43" height="3"/><path class="cls-1" d="M31,62V50a1,1,0,0,1,2,0V62A1,1,0,0,1,31,62Z"/><path class="cls-1" d="M19,62V50a1,1,0,0,1,2,0V62A1,1,0,0,1,19,62Z"/><path class="cls-1" d="M7,62V50a1,1,0,0,1,2,0V62A1,1,0,0,1,7,62Z"/><path class="cls-5" d="M16.19,78A6,6,0,1,1,5.81,78"/><path class="cls-5" d="M17.81,78a6,6,0,1,0,10.38,0"/><path class="cls-5" d="M89.19,78a6,6,0,1,1-10.38,0"/><path class="cls-5" d="M90.81,78a6,6,0,1,0,10.38,0"/><path class="cls-6" d="M11,87a6,6,0,0,1-5.81-7.51,6,6,0,0,0,11.62,0A6,6,0,0,1,11,87Z"/><path class="cls-6" d="M23,87a6,6,0,0,1-5.81-7.51,6,6,0,0,0,11.62,0A6,6,0,0,1,23,87Z"/><path class="cls-6" d="M84,87a6,6,0,0,1-5.81-7.51,6,6,0,0,0,11.62,0A6,6,0,0,1,84,87Z"/><path class="cls-6" d="M96,87a6,6,0,0,1-5.81-7.51,6,6,0,0,0,11.62,0A6,6,0,0,1,96,87Z"/><path class="cls-7" d="M127.37,70A10.65,10.65,0,0,1,117,78H1V70Z"/><path class="cls-8" d="M127.37,70A10.65,10.65,0,0,1,117,78H1V75H117a10.75,10.75,0,0,0,7.59-3.12C126.8,69.64,125.2,70,127.37,70Z"/><rect class="cls-9" x="52" y="50" width="14" height="28"/><rect class="cls-10" x="52" y="75" width="14" height="3"/></g></svg>