<svg xmlns="http://www.w3.org/2000/svg" viewBox="0 0 128 128"><defs><style>.cls-1{fill:#949aaf;}.cls-2{fill:#8288a1;}.cls-3{fill:#7aa8d7;}.cls-4{fill:#5b8dc9;}.cls-5{fill:#f3f4f5;}.cls-6{fill:#c7cdd8;}.cls-7{fill:#d7f1ff;}.cls-8{fill:#c3e1f5;}.cls-9{fill:#464f6b;}.cls-10{fill:#3d465e;}.cls-11{fill:#f6b756;}</style></defs><title>Bus Station</title><g id="Bus_Station" data-name="Bus Station"><rect class="cls-1" x="58" y="98.64" width="12" height="28.36"/><rect class="cls-2" x="58" y="124" width="12" height="3"/><circle class="cls-3" cx="64" cy="50" r="49"/><path class="cls-4" d="M64,99A49,49,0,0,1,15,48,49,49,0,0,0,113,48,49,49,0,0,1,64,99Z"/><circle class="cls-5" cx="63.5" cy="49.5" r="40.5"/><path class="cls-2" d="M89,42V38.06A3.07,3.07,0,0,0,85.94,35H82a1,1,0,0,1,0-2h3.94A5.07,5.07,0,0,1,91,38.06V42A1,1,0,0,1,89,42Z"/><path class="cls-2" d="M37,42V38.06A5.07,5.07,0,0,1,42.06,33H46a1,1,0,0,1,0,2H42.06A3.07,3.07,0,0,0,39,38.06V42A1,1,0,0,1,37,42Z"/><path class="cls-6" d="M63.5,90A40.49,40.49,0,0,1,23.05,47.5a40.5,40.5,0,0,0,80.9,0A40.49,40.49,0,0,1,63.5,90Z"/><path class="cls-3" d="M49.11,25H78.89A4.11,4.11,0,0,1,83,29.11V66a0,0,0,0,1,0,0H45a0,0,0,0,1,0,0V29.11A4.11,4.11,0,0,1,49.11,25Z"/><rect class="cls-7" x="45" y="34" width="38" height="18"/><rect class="cls-8" x="45" y="49" width="38" height="3"/><path class="cls-9" d="M48,66h8a0,0,0,0,1,0,0v6a2,2,0,0,1-2,2H50a2,2,0,0,1-2-2V66A0,0,0,0,1,48,66Z"/><path class="cls-9" d="M72,66h8a0,0,0,0,1,0,0v6a2,2,0,0,1-2,2H74a2,2,0,0,1-2-2V66A0,0,0,0,1,72,66Z"/><path class="cls-10" d="M56,70v2a2,2,0,0,1-2,2H50a2,2,0,0,1-2-2V70a2,2,0,0,0,2,2h4A2,2,0,0,0,56,70Z"/><path class="cls-10" d="M80,70v2a2,2,0,0,1-2,2H74a2,2,0,0,1-2-2V70a2,2,0,0,0,2,2h4A2,2,0,0,0,80,70Z"/><path class="cls-11" d="M53,61a2,2,0,1,1,2-2A2,2,0,0,1,53,61Zm0-2Z"/><path class="cls-11" d="M75,61a2,2,0,1,1,2-2A2,2,0,0,1,75,61Zm0-2Z"/><path class="cls-2" d="M68,61H60a1,1,0,0,1,0-2h8A1,1,0,0,1,68,61Z"/><rect class="cls-4" x="45" y="63" width="38" height="3"/><rect class="cls-3" x="81" y="34" width="2" height="18"/><rect class="cls-3" x="45" y="34" width="2" height="18"/></g></svg>