<svg xmlns="http://www.w3.org/2000/svg" viewBox="0 0 128 128"><defs><style>.cls-1{fill:#7aa8d7;}.cls-2{fill:#5b8dc9;}.cls-3{fill:#464f6b;}.cls-4{fill:#3d465e;}.cls-5{fill:#adb3c4;}.cls-6{fill:#949aaf;}.cls-7{fill:#d7f1ff;}.cls-8{fill:#c3e1f5;}.cls-9{fill:#fbcc88;}.cls-10{fill:#f6b756;}.cls-11{fill:#e2607f;}.cls-12{fill:#dd4e6a;}</style></defs><title>Bus</title><g id="Bus"><path class="cls-1" d="M127,84H7.1L1,82V43.1A6.1,6.1,0,0,1,7.1,37H116.51A4.06,4.06,0,0,1,120,39.06C128.35,54.29,127,63.06,127,84Z"/><polygon class="cls-2" points="127 81 127 84 7.1 84 1 81.96 1 78.96 7.1 81 127 81"/><circle class="cls-3" cx="31" cy="83" r="8"/><circle class="cls-3" cx="103" cy="83" r="8"/><path class="cls-4" d="M31,91a8,8,0,0,1-7.86-9.5,8,8,0,0,0,15.72,0A8,8,0,0,1,31,91Z"/><path class="cls-4" d="M103,91a8,8,0,0,1-7.86-9.5,8,8,0,0,0,15.72,0A8,8,0,0,1,103,91Z"/><circle class="cls-5" cx="31" cy="83" r="3"/><circle class="cls-5" cx="103" cy="83" r="3"/><path class="cls-6" d="M33.82,84a3,3,0,0,0-5.64,0,3,3,0,1,1,5.64,0Z"/><path class="cls-6" d="M105.82,84a3,3,0,0,0-5.64,0,3,3,0,1,1,5.64,0Z"/><path class="cls-7" d="M127,65.26V70h-8.89L111,62.89V39c9.65,0,9,0,9,.06A52.88,52.88,0,0,1,127,65.26Z"/><polygon class="cls-8" points="127 67 127 70 118.11 70 111 62.89 111 59.89 118.11 67 127 67"/><rect class="cls-7" x="9" y="39" width="93" height="19"/><rect class="cls-8" x="9" y="55" width="93" height="3"/><path class="cls-1" d="M24,58V38a1,1,0,0,1,2,0V58A1,1,0,0,1,24,58Z"/><path class="cls-1" d="M41,58V38a1,1,0,0,1,2,0V58A1,1,0,0,1,41,58Z"/><path class="cls-1" d="M57,58V38a1,1,0,0,1,2,0V58A1,1,0,0,1,57,58Z"/><path class="cls-1" d="M73,58V38a1,1,0,0,1,2,0V58A1,1,0,0,1,73,58Z"/><path class="cls-1" d="M87,58V38a1,1,0,0,1,2,0V58A1,1,0,0,1,87,58Z"/><rect class="cls-9" x="123" y="75" width="4" height="4"/><rect class="cls-10" x="123" y="77" width="4" height="2"/><rect class="cls-11" x="1" y="66" width="6" height="10"/><rect class="cls-12" x="1" y="73" width="6" height="3"/></g></svg>