<svg xmlns="http://www.w3.org/2000/svg" viewBox="0 0 128 128"><defs><style>.cls-1{fill:#c6ccda;}.cls-2{fill:#d7f1ff;}.cls-3{fill:#aae0e5;}.cls-4{fill:#7aa8d7;}.cls-5{fill:#5b8dc9;}.cls-6{fill:#949aaf;}.cls-7{fill:#8288a1;}.cls-8{fill:#464f6b;}.cls-9{fill:#3d465e;}</style></defs><title>Cable Car</title><g id="Cable_Car" data-name="Cable Car"><path class="cls-1" d="M63,20V9a1,1,0,0,1,2,0V20A1,1,0,0,1,63,20Z"/><path class="cls-2" d="M119,53.32C122.41,70,125,80,125,97c0,.1,5.21,0-121.94,0,0-17,2.56-27,6-43.68Z"/><rect class="cls-3" x="3" y="94" width="122" height="3"/><path class="cls-4" d="M11.72,46A12.85,12.85,0,0,1,24.26,36h79.48a12.86,12.86,0,0,1,12.54,10"/><path class="cls-5" d="M116.28,46H11.72a12.63,12.63,0,0,1,1.09-3H115.19A12.63,12.63,0,0,1,116.28,46Z"/><rect class="cls-2" x="46" y="54" width="36" height="73"/><rect class="cls-3" x="46" y="124" width="36" height="3"/><path class="cls-3" d="M20,97V54a1,1,0,0,1,2,0V97A1,1,0,0,1,20,97Z"/><path class="cls-3" d="M44,97V54a1,1,0,0,1,2,0V97A1,1,0,0,1,44,97Z"/><path class="cls-3" d="M82,97V54a1,1,0,0,1,2,0V97A1,1,0,0,1,82,97Z"/><path class="cls-3" d="M104,97V54a1,1,0,0,1,2,0V97A1,1,0,0,1,104,97Z"/><path class="cls-3" d="M45,85H21a1,1,0,0,1,0-2H45A1,1,0,0,1,45,85Z"/><path class="cls-3" d="M105,85H83a1,1,0,0,1,0-2h22A1,1,0,0,1,105,85Z"/><rect class="cls-6" x="1" y="97" width="45" height="10"/><rect class="cls-6" x="82" y="97" width="45" height="10"/><rect class="cls-7" x="1" y="104" width="45" height="3"/><rect class="cls-7" x="82" y="104" width="45" height="3"/><path class="cls-4" d="M124,107l-8,20H82V107Z"/><path class="cls-4" d="M46,107v20H12c-2.82-7.06-6.43-16.08-8-20Z"/><path class="cls-6" d="M81,36c-34.15,0-33-.1-33,0a8,8,0,0,1,8-8H73A8,8,0,0,1,81,36Z"/><path class="cls-7" d="M81,36H48a8.09,8.09,0,0,1,.58-3H80.42A8.09,8.09,0,0,1,81,36Z"/><path class="cls-6" d="M72,28c-16.82,0-16-.1-16,0a8,8,0,0,1,16,0Z"/><path class="cls-7" d="M72,28H56a8.09,8.09,0,0,1,.58-3H71.42A8.09,8.09,0,0,1,72,28Z"/><path class="cls-1" d="M60,6H1A1,1,0,0,1,1,4H60A1,1,0,0,1,60,6Z"/><path class="cls-1" d="M127,6H68a1,1,0,0,1,0-2h59A1,1,0,0,1,127,6Z"/><path class="cls-6" d="M119,54H9a4,4,0,0,1,0-8H119a4,4,0,0,1,0,8Z"/><path class="cls-7" d="M119,54H9a4,4,0,0,1-3.7-5.5A4,4,0,0,0,9,51H119a4,4,0,0,0,3.7-2.5A4,4,0,0,1,119,54Z"/><polygon class="cls-5" points="46 123 46 127 12 127 10.4 123 46 123"/><polygon class="cls-5" points="117.6 123 116 127 82 127 82 123 117.6 123"/><circle class="cls-8" cx="64" cy="5" r="4"/><path class="cls-9" d="M64,9a4,4,0,0,1-3.87-5,4,4,0,0,0,7.74,0A4,4,0,0,1,64,9Z"/></g></svg>