<svg xmlns="http://www.w3.org/2000/svg" viewBox="0 0 128 128"><defs><style>.cls-1{fill:#f3f4f5;}.cls-2{fill:#edf0f4;}.cls-3{fill:#d7f1ff;}.cls-4{fill:#c3e1f5;}.cls-5{fill:#e2607f;}.cls-6{fill:#dd4e6a;}.cls-7{fill:#fbcc88;}.cls-8{fill:#f6b756;}.cls-9{fill:#d4d8e1;}.cls-10{fill:#c7cdd8;}.cls-11{fill:#464f6b;}.cls-12{fill:#adb3c4;}</style></defs><title>Campervan</title><g id="Campervan"><path class="cls-1" d="M127,88H1V32H88.79a28.94,28.94,0,0,1,14.71,4c3,1.72,5.5,3.44,5.5,6.6a5.4,5.4,0,0,1-5.4,5.4H101l8,12,17.24,5.75C127.27,66.09,127,67,127,88Z"/><path class="cls-1" d="M127,88H78V48h23l8,12,17.24,5.75C127.27,66.09,127,67,127,88Z"/><rect class="cls-2" x="1" y="84" width="77" height="4"/><rect class="cls-2" x="78" y="84" width="49" height="4"/><path class="cls-3" d="M108.35,59.94,104.29,64H86V48h15C109.4,60.59,108.31,58.59,108.35,59.94Z"/><path class="cls-4" d="M108.35,59.94,104.29,64H86V61h18.29l3.23-3.23C108.52,59.28,108.31,58.73,108.35,59.94Z"/><path class="cls-2" d="M90,73H86a1,1,0,0,1,0-2h4A1,1,0,0,1,90,73Z"/><rect class="cls-3" x="19" y="48" width="20" height="18"/><rect class="cls-4" x="19" y="63" width="20" height="3"/><rect class="cls-5" x="1" y="66" width="8" height="10"/><rect class="cls-6" x="1" y="72" width="8" height="4"/><path class="cls-7" d="M123,72h4a0,0,0,0,1,0,0v6a0,0,0,0,1,0,0h-2a2,2,0,0,1-2-2V72A0,0,0,0,1,123,72Z"/><path class="cls-8" d="M127,76v2h-2a2,2,0,0,1-2-2V74a2,2,0,0,0,2,2Z"/><rect class="cls-9" x="50" y="48" width="20" height="40"/><rect class="cls-10" x="50" y="84" width="20" height="4"/><circle class="cls-11" cx="31" cy="86" r="10"/><circle class="cls-11" cx="111" cy="86" r="10"/><circle class="cls-10" cx="31" cy="86" r="5"/><circle class="cls-10" cx="111" cy="86" r="5"/><path class="cls-12" d="M35.9,87a5,5,0,0,0-9.8,0,5,5,0,1,1,9.8,0Z"/><path class="cls-12" d="M115.9,87a5,5,0,0,0-9.8,0,5,5,0,1,1,9.8,0Z"/><path class="cls-2" d="M103.6,48H78V45h25.6a5.4,5.4,0,0,0,5.18-3.89A5.4,5.4,0,0,1,103.6,48Z"/><rect class="cls-2" x="78" y="48" width="3" height="40"/></g></svg>