<svg xmlns="http://www.w3.org/2000/svg" viewBox="0 0 128 128"><defs><style>.cls-1{fill:#adb3c4;}.cls-2{fill:#949aaf;}.cls-3{fill:#464f6b;}.cls-4{fill:#3d465e;}.cls-5{fill:#d7f1ff;}.cls-6{fill:#c3e1f5;}.cls-7{fill:#e2607f;}.cls-8{fill:#fbcc88;}.cls-9{fill:#dd4e6a;}</style></defs><title>Coupe</title><g id="Coupe"><path class="cls-1" d="M127,77C-.85,77,22.33,77.69,1,74.94V58.86A6.09,6.09,0,0,1,6.48,52.8l14.84-1.51C39.05,41.31,38.88,41,41.74,41H69.31a8.1,8.1,0,0,1,5,1.74L90,55.09c.58.46-2.71-.05,30.76,3.94a6.1,6.1,0,0,1,5.2,4.59C127.26,68.83,127,65.91,127,77Z"/><path class="cls-2" d="M127,74v3C-.85,77,22.33,77.69,1,74.94v-3C22.35,74.69-.9,74,127,74Z"/><circle class="cls-3" cx="27" cy="77" r="10"/><circle class="cls-3" cx="103" cy="77" r="10"/><path class="cls-4" d="M27,87a10,10,0,0,1-9.88-11.48,10,10,0,0,0,19.76,0A10,10,0,0,1,27,87Z"/><path class="cls-4" d="M103,87a10,10,0,0,1-9.88-11.48,10,10,0,0,0,19.76,0A10,10,0,0,1,103,87Z"/><circle class="cls-2" cx="27" cy="77" r="4"/><circle class="cls-2" cx="103" cy="77" r="4"/><path class="cls-5" d="M90.42,56l-6.1,2H43.68L33.52,56l8.65-13h32.5C92.26,56.85,89.86,54.73,90.42,56Z"/><path class="cls-6" d="M90.42,56l-6.1,2H43.68L33.52,56l1.18-1.76,9,1.79H84.32l4.82-1.6C90.2,55.23,89.92,54.86,90.42,56Z"/><path class="cls-1" d="M44.74,58.66,48.8,42.4a1,1,0,0,1,1.94.49L46.68,59.15A1,1,0,0,1,44.74,58.66Z"/><path class="cls-2" d="M54,65H50a1,1,0,0,1,0-2h4A1,1,0,0,1,54,65Z"/><path class="cls-7" d="M1,62H7a2,2,0,0,1,2,2v3a0,0,0,0,1,0,0H1a0,0,0,0,1,0,0V62A0,0,0,0,1,1,62Z"/><path class="cls-8" d="M127,67.76c0,.34.59.24-4,.24a2,2,0,0,1-1.41-3.41c.79-.81,1.64-.59,4.48-.59Z"/><rect class="cls-9" x="1" y="65" width="8" height="2"/></g></svg>