<svg xmlns="http://www.w3.org/2000/svg" viewBox="0 0 128 128"><defs><style>.cls-1{fill:#949aaf;}.cls-2{fill:#8288a1;}.cls-3{fill:#464f6b;}.cls-4{fill:#3d465e;}.cls-5{fill:#d4d8e1;}.cls-6{fill:#c7cdd8;}.cls-7{fill:#e2607f;}.cls-8{fill:#dd4e6a;}.cls-9{fill:#d7f1ff;}.cls-10{fill:#c3e1f5;}.cls-11{fill:#f6b756;}</style></defs><title>Crossover</title><g id="Crossover"><path class="cls-1" d="M127,64.64V77.91L120.9,82H9.13L1,80V51.33l9.76-13.06A8.1,8.1,0,0,1,17.27,35H71a8.22,8.22,0,0,1,5.44,2.09C95.34,54.16,91.81,51,94.22,53.14c.39.36-1.69,0,25.67,3.43A8.13,8.13,0,0,1,127,64.64Z"/><polygon class="cls-2" points="127 73.91 127 77.91 120.9 82 9.13 82 1 79.96 1 75.96 9.13 78 120.9 78 127 73.91"/><circle class="cls-3" cx="21" cy="81" r="12"/><circle class="cls-3" cx="105" cy="81" r="12"/><path class="cls-4" d="M21,93A12,12,0,0,1,9.17,79a12,12,0,0,0,23.66,0A12,12,0,0,1,21,93Z"/><path class="cls-4" d="M105,93A12,12,0,0,1,93.17,79a12,12,0,0,0,23.66,0A12,12,0,0,1,105,93Z"/><circle class="cls-5" cx="21" cy="81" r="4"/><circle class="cls-5" cx="105" cy="81" r="4"/><path class="cls-6" d="M24.87,82a4,4,0,0,0-7.74,0,4,4,0,1,1,7.74,0Z"/><path class="cls-6" d="M108.87,82a4,4,0,0,0-7.74,0,4,4,0,1,1,7.74,0Z"/><rect class="cls-7" x="1" y="56" width="4" height="8"/><rect class="cls-8" x="1" y="61" width="4" height="3"/><path class="cls-9" d="M94.22,53.14,88.13,56h-61L17,51.94V37c62.26,0,59.24,0,59.43.09C95.34,54.16,91.81,51,94.22,53.14Z"/><polygon class="cls-10" points="88.13 56 27.16 56 17 51.94 17 48.94 27.16 53 88.13 53 92.46 51.56 94.22 53.14 88.13 56"/><path class="cls-1" d="M28,56V36a1,1,0,0,1,2,0V56A1,1,0,0,1,28,56Z"/><path class="cls-1" d="M51,56V36a1,1,0,0,1,2,0V56A1,1,0,0,1,51,56Z"/><path class="cls-2" d="M60,63H56a1,1,0,0,1,0-2h4A1,1,0,0,1,60,63Z"/><polygon class="cls-11" points="127 70 121 70 123 66 127 66 127 70"/></g></svg>