<svg xmlns="http://www.w3.org/2000/svg" viewBox="0 0 128 128"><defs><style>.cls-1{fill:#f3f4f5;}.cls-2{fill:#d4d8e1;}.cls-3{fill:#697084;}.cls-4{fill:#5d667f;}.cls-5{fill:#3d465e;}.cls-6{fill:#77cacb;}.cls-7{fill:#d7dbe2;}.cls-8{fill:#c6ccda;}</style></defs><title>Cruise</title><g id="Cruise"><path class="cls-1" d="M96.39,68,96,70H6.88c.92-3.9.1-.44,4.28-18H88.39Z"/><polygon class="cls-2" points="96.39 68 96 70 6.88 70 7.59 67 86.29 67 90.29 65 94.89 65 96.39 68"/><path class="cls-3" d="M127,68,105,94H11C11,84,1,76,1,76V70H87l4-2Z"/><path class="cls-4" d="M105,94H11C11,84,1,76,1,76a26.33,26.33,0,0,1,6,3.75C10,82.25,13,86,13,91h92C135.11,59.55,133.63,60.15,105,94Z"/><path class="cls-5" d="M112.62,85l-1.7,2H17a1,1,0,0,1,0-2Z"/><path class="cls-6" d="M92.89,61H47a1,1,0,0,1,0-2H91.89Z"/><path class="cls-6" d="M18,62V60a1,1,0,0,1,2,0v2A1,1,0,0,1,18,62Z"/><path class="cls-6" d="M26,62V60a1,1,0,0,1,2,0v2A1,1,0,0,1,26,62Z"/><path class="cls-6" d="M35,62V60a1,1,0,0,1,2,0v2A1,1,0,0,1,35,62Z"/><polygon class="cls-1" points="82.5 52.08 48 52 48 44 74.42 44 82.5 52.08"/><path class="cls-7" d="M64,44H54V34h4Z"/><rect class="cls-7" x="32" y="40" width="8" height="12"/><rect class="cls-7" x="15" y="40" width="8" height="12"/><rect class="cls-8" x="32" y="49" width="8" height="3"/><rect class="cls-8" x="15" y="49" width="8" height="3"/><polygon class="cls-2" points="82.42 52 48 52 48 49 79.42 49 82.42 52"/><polygon class="cls-8" points="64 44 54 44 54 42 62.8 42 64 44"/></g></svg>