<svg xmlns="http://www.w3.org/2000/svg" viewBox="0 0 128 128"><defs><style>.cls-1{fill:#7aa8d7;}.cls-2{fill:#5b8dc9;}.cls-3{fill:#ffe3d7;}.cls-4{fill:#f2c4b0;}.cls-5{fill:#9b756d;}.cls-6{fill:#8a6762;}.cls-7{fill:#e2607f;}.cls-8{fill:#3d465e;}.cls-9{fill:#464f6b;}</style></defs><title>Driver</title><g id="Driver"><path class="cls-1" d="M108.61,101.88A28.51,28.51,0,0,0,80.54,78H47.46a28.51,28.51,0,0,0-28.07,23.88c-4.19,25.34-3.46,20.9-4.16,25.12h97.54C112.08,122.84,112.76,127,108.61,101.88ZM64.77,85.39l-.77.78-.77-.78A1,1,0,0,1,64.77,85.39Z"/><path class="cls-2" d="M65,96.52a1,1,0,0,1-2,0c0-11.38-.1-10.76.23-11.16l.77.77.77-.77C65.09,85.75,65,85.05,65,96.52Z"/><path class="cls-3" d="M87,38h2a7,7,0,0,1,0,14H87Z"/><path class="cls-3" d="M41,52H39a7,7,0,0,1,0-14h2Z"/><path class="cls-4" d="M89,52H87V49c2.43,0,4.69.21,7-2a7,7,0,0,0,1.89-3.45A7,7,0,0,1,89,52Z"/><path class="cls-4" d="M41,49v3H39a7,7,0,0,1-6.84-8.5A7,7,0,0,0,39,49Z"/><path class="cls-3" d="M88,21V47.39c0,12-8.36,22.62-20,24.53A24.16,24.16,0,0,1,40,47.75V21"/><path class="cls-4" d="M88,44.39v3c0,12-8.36,22.62-20,24.53A24.16,24.16,0,0,1,40,47.75v-3a24.69,24.69,0,0,0,7,17.33C61.92,77.3,88,66.92,88,44.39Z"/><path class="cls-5" d="M88,21c1.94,2.43,2,4.52,2,8.67,0,2.8-2,8.33-2,8.33l-7-7.89H47L40,38s-2-5.53-2-8.33c0-4.15.06-6.24,2-8.67Z"/><path class="cls-6" d="M90,29.67c0,2.8-2,8.33-2,8.33l-7-7.89H47L40,38c-2.06-5.71-2.08-8.09-2-10.71a3.9,3.9,0,0,0,6.82,2.25L47,27.11H81l2.16,2.43A3.9,3.9,0,0,0,90,27.38,19.26,19.26,0,0,1,90,29.67Z"/><path class="cls-2" d="M64,86.13,50.38,93.91,47.74,78h8.13Z"/><path class="cls-3" d="M72,70.85v7.38l-8,8-8-8V70.85A23.88,23.88,0,0,0,72,70.85Z"/><path class="cls-4" d="M72,77.23v1l-8,8-8-8v-1A11.33,11.33,0,0,0,72,77.23Z"/><path class="cls-2" d="M80.26,78,77.62,93.91,64,86.13,72.13,78Z"/><path class="cls-7" d="M59,60.89a1,1,0,0,1,1.42-1.42,5.09,5.09,0,0,0,7.2,0A1,1,0,0,1,69,60.89,7.11,7.11,0,0,1,59,60.89Z"/><path class="cls-8" d="M51,44V42a1,1,0,0,1,2,0v2A1,1,0,0,1,51,44Z"/><path class="cls-8" d="M75,44V42a1,1,0,0,1,2,0v2A1,1,0,0,1,75,44Z"/><path class="cls-9" d="M71.35,33H56.65A17.55,17.55,0,0,1,40,21c0-.1-.77,0,48,0A17.55,17.55,0,0,1,71.35,33Z"/><path class="cls-8" d="M88,21A17.56,17.56,0,0,1,71.35,33H56.65A17.55,17.55,0,0,1,40,21h1.33a17.52,17.52,0,0,0,15.32,9h14.7a17.53,17.53,0,0,0,15.32-9Z"/><path class="cls-1" d="M88.39,21H39.61c-4-6.08-4.06-5.89-4.06-6.71v-4a2,2,0,0,1,1.37-1.91C60.38.53,59.39.68,61.31.68c5.55,0,6.35-.14,8.06.43L91.08,8.35a2,2,0,0,1,1.37,1.91v4C92.45,15.13,92.44,14.92,88.39,21Z"/><path class="cls-2" d="M92.45,11.29c0,4.64.74,2.5-4.06,9.71H39.61c-4.77-7.17-4.06-5.19-4.06-9.71,0,2,4.66,6.71,10.77,6.71H81.68C87.65,18,92.45,13.33,92.45,11.29Z"/><polygon class="cls-2" points="112.77 127 15.23 127 15.73 124 112.27 124 112.77 127"/><path class="cls-9" d="M64,96.52A30.48,30.48,0,0,0,33.52,127h61A30.48,30.48,0,0,0,64,96.52ZM68,105a22.32,22.32,0,0,1,18.13,19H71.43A8.13,8.13,0,0,0,68,120Zm-8.06,0c.1,0,.06-1.17.06,15A8.13,8.13,0,0,0,56.57,124H41.87A22.32,22.32,0,0,1,59.94,105Z"/><path class="cls-2" d="M59.94,105A22.32,22.32,0,0,0,41.87,124h.37A22.31,22.31,0,0,1,60,107C60,104.78,60,105,59.94,105Zm8.12,0c-.1,0-.06-.23-.06,2a22.32,22.32,0,0,1,17.76,17h.37A22.32,22.32,0,0,0,68.06,105Z"/></g></svg>