<svg xmlns="http://www.w3.org/2000/svg" viewBox="0 0 128 128"><defs><style>.cls-1{fill:#464f6b;}.cls-2{fill:#949aaf;}.cls-3{fill:#c6ccda;}.cls-4{fill:#3d465e;}.cls-5{fill:#8288a1;}.cls-6{fill:#7aa8d7;}.cls-7{fill:#5b8dc9;}</style></defs><title>Electric Scooter</title><g id="Electric_Scooter" data-name="Electric Scooter"><circle class="cls-1" cx="15" cy="114" r="12"/><circle class="cls-2" cx="15" cy="114" r="7"/><path class="cls-3" d="M15,116a2,2,0,1,1,2-2A2,2,0,0,1,15,116Zm0-2h0Zm0,0h0Zm0,0h0Zm0,0h0Zm0,0h0Zm0,0h0Zm0,0h0Zm0,0h0Z"/><path class="cls-4" d="M15,126A12,12,0,0,1,3.1,112.5a12,12,0,0,0,23.8,0A12,12,0,0,1,15,126Z"/><path class="cls-5" d="M21.84,115.5c-1.6-7.3-12.08-7.31-13.68,0a7,7,0,1,1,13.68,0Z"/><path class="cls-3" d="M27,115H15a1,1,0,0,1,0-2H27A1,1,0,0,1,27,115Z"/><path class="cls-1" d="M32.09,110C29,96.13,10.89,91.58,1.78,103a1,1,0,0,1-1.56-1.25C10.39,89,30.54,94.08,34,109.52A1,1,0,0,1,32.09,110Z"/><circle class="cls-1" cx="115" cy="114" r="12"/><path class="cls-4" d="M115,126a12,12,0,0,1-11.9-13.5,12,12,0,0,0,23.8,0A12,12,0,0,1,115,126Z"/><circle class="cls-2" cx="115" cy="114" r="7"/><path class="cls-5" d="M121.84,115.5c-1.6-7.3-12.08-7.31-13.68,0a7,7,0,1,1,13.68,0Z"/><path class="cls-3" d="M103.29,73.29,85.58,5H76a1,1,0,0,1,0-2H86.35a1,1,0,0,1,1,.75l17.91,69A1,1,0,0,1,103.29,73.29Z"/><polygon class="cls-6" points="90.38 110 84 118 27 118 27 110 90.38 110"/><polygon class="cls-7" points="90.38 110 84 118 27 118 27 115 84 115 87.99 110 90.38 110"/><path class="cls-3" d="M105.44,92.06,85.49,118H83.34c-.09-.59-1.38,1.29,20.51-27.16A1,1,0,0,1,105.44,92.06Z"/><path class="cls-3" d="M115.52,112.08,111,94.93a1,1,0,0,0-1.94.52l4.57,17.14a2,2,0,1,0,1.93-.51Z"/><polygon class="cls-6" points="113.93 94.24 106.03 96.17 100.3 74.08 108.2 72.14 113.93 94.24"/><path class="cls-7" d="M113.93,94.24,106,96.17,100.3,74.08l1-.24,3,11.43A7.22,7.22,0,0,0,113,90.48Z"/><path class="cls-2" d="M76,6H62a2,2,0,0,1,0-4H76Z"/><path class="cls-5" d="M76,4V6H62a2,2,0,0,1-1.73-3A2,2,0,0,0,62,4Z"/></g></svg>