<svg xmlns="http://www.w3.org/2000/svg" viewBox="0 0 128 128"><defs><style>.cls-1{fill:#e2607f;}.cls-2{fill:#d7f1ff;}.cls-3{fill:#c3e1f5;}.cls-4{fill:#949aaf;}.cls-5{fill:#8288a1;}.cls-6{fill:#dd4e6a;}.cls-7{fill:#464f6b;}.cls-8{fill:#d7dbe2;}.cls-9{fill:#3d465e;}.cls-10{fill:#c6ccda;}.cls-11{fill:#fbcc88;}.cls-12{fill:#f6b756;}</style></defs><title>Fire Truck</title><g id="Fire_Truck" data-name="Fire Truck"><path class="cls-1" d="M127,70.57V90H64V44h45.12a6.11,6.11,0,0,1,5.38,3.22C119.33,56.27,116.91,51.73,127,70.57Z"/><path class="cls-2" d="M122.41,62H72V44h37.12a6.1,6.1,0,0,1,5.25,3C114.47,47.13,114.32,46.91,122.41,62Z"/><polygon class="cls-3" points="122.41 62 72 62 72 59 120.8 59 122.41 62"/><path class="cls-1" d="M87,62V44a1,1,0,0,1,2,0V62A1,1,0,0,1,87,62Z"/><path class="cls-1" d="M104,62V44a1,1,0,0,1,2,0V62A1,1,0,0,1,104,62Z"/><path class="cls-1" d="M114.37,47H72V44h37.12A6.1,6.1,0,0,1,114.37,47Z"/><path class="cls-4" d="M90,90V78H1V90Z"/><path class="cls-5" d="M90,90V87H1v3Z"/><rect class="cls-6" x="90" y="87" width="37" height="3"/><circle class="cls-7" cx="101" cy="88" r="10"/><circle class="cls-8" cx="101" cy="88" r="4"/><circle class="cls-7" cx="44" cy="88" r="10"/><circle class="cls-8" cx="44" cy="88" r="4"/><circle class="cls-7" cx="19" cy="88" r="10"/><path class="cls-9" d="M101,98a10,10,0,0,1-9.88-11.48,10,10,0,0,0,19.76,0A10,10,0,0,1,101,98Z"/><path class="cls-9" d="M44,98a10,10,0,0,1-9.88-11.48,10,10,0,0,0,19.76,0A10,10,0,0,1,44,98Z"/><path class="cls-9" d="M19,98A10,10,0,0,1,9.12,86.52a10,10,0,0,0,19.76,0A10,10,0,0,1,19,98Z"/><circle class="cls-8" cx="19" cy="88" r="4"/><path class="cls-10" d="M104.87,89a4,4,0,0,0-7.74,0,4,4,0,1,1,7.74,0Z"/><path class="cls-10" d="M47.87,89a4,4,0,0,0-7.74,0,4,4,0,1,1,7.74,0Z"/><path class="cls-10" d="M22.87,89a4,4,0,0,0-7.74,0,4,4,0,1,1,7.74,0Z"/><polygon class="cls-11" points="107.61 44 96.61 44 98.61 38 105.61 38 107.61 44"/><rect class="cls-11" x="121" y="74" width="6" height="8"/><rect class="cls-12" x="121" y="79" width="6" height="3"/><path class="cls-4" d="M109,71h-4a1,1,0,0,1,0-2h4A1,1,0,0,1,109,71Z"/><path class="cls-4" d="M78,71H74a1,1,0,0,1,0-2h4A1,1,0,0,1,78,71Z"/><rect class="cls-8" x="1" y="54" width="63" height="24"/><rect class="cls-10" x="1" y="74" width="63" height="4"/><rect class="cls-1" x="1" y="44" width="30" height="10"/><rect class="cls-6" x="1" y="50" width="30" height="4"/><rect class="cls-1" x="1" y="54" width="36" height="24"/><rect class="cls-6" x="1" y="74" width="18" height="4"/><rect class="cls-6" x="19" y="74" width="18" height="4"/><rect class="cls-4" x="46" y="54" width="18" height="24"/><rect class="cls-5" x="46" y="74" width="18" height="4"/><rect class="cls-4" x="1" y="30" width="8" height="14"/><rect class="cls-4" x="86" y="30" width="8" height="14"/><rect class="cls-5" x="1" y="41" width="8" height="3"/><rect class="cls-5" x="86" y="41" width="8" height="3"/><path class="cls-7" d="M86,45H9a1,1,0,0,1-1-1V32a1,1,0,0,1,1-1H86a1,1,0,0,1,1,1V44A1,1,0,0,1,86,45ZM10,43H85V33H10Z"/><path class="cls-7" d="M9,44.68a1,1,0,0,1-.67-1.74L21.16,31.26a1,1,0,0,1,1.35,1.48C8.93,45.09,9.57,44.68,9,44.68Z"/><path class="cls-7" d="M34.67,44.68c-.56,0,.51.82-13.51-11.94a1,1,0,0,1,1.35-1.48L35.34,42.94A1,1,0,0,1,34.67,44.68Z"/><path class="cls-7" d="M34.67,44.68A1,1,0,0,1,34,42.94L46.83,31.26a1,1,0,0,1,1.34,1.48C34.6,45.09,35.23,44.68,34.67,44.68Z"/><path class="cls-7" d="M60.33,44.68c-.55,0,.52.82-13.5-11.94a1,1,0,0,1,1.34-1.48L61,42.94A1,1,0,0,1,60.33,44.68Z"/><path class="cls-7" d="M60.33,44.68a1,1,0,0,1-.67-1.74L72.49,31.26a1,1,0,0,1,1.35,1.48C60.27,45.09,60.9,44.68,60.33,44.68Z"/><path class="cls-7" d="M86,44.68c-.55,0,.51.82-13.51-11.94a1,1,0,0,1,1.35-1.48L86.67,42.94A1,1,0,0,1,86,44.68Z"/><polygon class="cls-12" points="107.61 44 96.61 44 97.61 41 106.61 41 107.61 44"/><rect class="cls-8" x="18" y="54" width="2" height="24"/></g></svg>