<svg xmlns="http://www.w3.org/2000/svg" viewBox="0 0 128 128"><defs><style>.cls-1{fill:#949aaf;}.cls-2{fill:#d4d8e1;}.cls-3{fill:#e2607f;}.cls-4{fill:#8cdd79;}.cls-5{fill:#d7f1ff;}.cls-6{fill:#c3e1f5;}.cls-7{fill:#8288a1;}.cls-8{fill:#c7cdd8;}.cls-9{fill:#dd4e6a;}.cls-10{fill:#7ece67;}</style></defs><title>Gateway</title><g id="Gateway"><rect class="cls-1" x="1" y="1" width="24" height="126"/><rect class="cls-2" x="1" y="11" width="24" height="12"/><circle class="cls-3" cx="13" cy="36" r="4"/><circle class="cls-4" cx="13" cy="52" r="4"/><rect class="cls-5" x="32" y="13" width="29" height="98" rx="4.06"/><path class="cls-6" d="M61,102.94v4A4.08,4.08,0,0,1,56.94,111H36.06A4.08,4.08,0,0,1,32,106.94v-4A4.08,4.08,0,0,0,36.06,107H56.94A4.08,4.08,0,0,0,61,102.94Z"/><rect class="cls-5" x="67" y="13" width="29" height="98" rx="4.06"/><path class="cls-6" d="M96,102.94v4A4.08,4.08,0,0,1,91.94,111H71.06A4.08,4.08,0,0,1,67,106.94v-4A4.08,4.08,0,0,0,71.06,107H91.94A4.08,4.08,0,0,0,96,102.94Z"/><path class="cls-2" d="M25,84H35a4,4,0,0,1,0,8H25Z"/><path class="cls-2" d="M25,32H35a4,4,0,0,1,0,8H25Z"/><rect class="cls-1" x="103" y="1" width="24" height="126" transform="translate(230 128) rotate(180)"/><rect class="cls-7" x="1" y="124" width="24" height="3"/><rect class="cls-7" x="103" y="124" width="24" height="3" transform="translate(230 251) rotate(180)"/><rect class="cls-2" x="103" y="11" width="24" height="12" transform="translate(230 34) rotate(180)"/><rect class="cls-8" x="1" y="20" width="24" height="3"/><rect class="cls-8" x="103" y="20" width="24" height="3" transform="translate(230 43) rotate(180)"/><circle class="cls-3" cx="115" cy="36" r="4"/><path class="cls-9" d="M13,40a4,4,0,0,1-3.87-5,4,4,0,0,0,7.74,0A4,4,0,0,1,13,40Z"/><path class="cls-9" d="M115,40a4,4,0,0,1-3.87-5,4,4,0,0,0,7.74,0A4,4,0,0,1,115,40Z"/><circle class="cls-4" cx="115" cy="52" r="4"/><path class="cls-10" d="M13,56a4,4,0,0,1-3.87-5,4,4,0,0,0,7.74,0A4,4,0,0,1,13,56Z"/><path class="cls-10" d="M115,56a4,4,0,0,1-3.87-5,4,4,0,0,0,7.74,0A4,4,0,0,1,115,56Z"/><path class="cls-2" d="M103,84H93a4,4,0,0,0,0,8h10Z"/><path class="cls-2" d="M103,32H93a4,4,0,0,0,0,8h10Z"/><path class="cls-8" d="M35,92H25V89c10.4,0,11.26.38,12.83-1.17a4.09,4.09,0,0,0,.87-1.33A4,4,0,0,1,35,92Z"/><path class="cls-8" d="M35,40H25V37c10.4,0,11.26.38,12.83-1.17a4.09,4.09,0,0,0,.87-1.33A4,4,0,0,1,35,40Z"/><path class="cls-8" d="M103,89v3H93a4,4,0,0,1-3.7-5.5,4.09,4.09,0,0,0,.87,1.33C91.75,89.39,92.5,89,103,89Z"/><path class="cls-8" d="M103,37v3H93a4,4,0,0,1-3.7-5.5,4.09,4.09,0,0,0,.87,1.33C91.75,37.39,92.5,37,103,37Z"/><path class="cls-9" d="M45.62,57.08c-.27.11.12-.24-5.33,5.21a1,1,0,0,0,1.42,1.42L45,60.41V74a1,1,0,0,0,2,0V60.41l3.29,3.3a1,1,0,0,0,1.42-1.42C46.34,56.92,46.45,56.73,45.62,57.08Z"/><path class="cls-9" d="M87.71,62.29c-5.46-5.46-5.06-5.1-5.33-5.21-.83-.35-.74-.13-6.09,5.21a1,1,0,0,0,1.42,1.42L81,60.41V74a1,1,0,0,0,2,0V60.41C86.6,64,86.45,64,87,64A1,1,0,0,0,87.71,62.29Z"/></g></svg>