<svg xmlns="http://www.w3.org/2000/svg" viewBox="0 0 128 128"><defs><style>.cls-1{fill:#464f6b;}.cls-2{fill:#8288a1;}.cls-3{fill:#949aaf;}.cls-4{fill:#edf0f4;}.cls-5{fill:#d4d8e1;}.cls-6{fill:#c6ccda;}.cls-7{fill:#3d465e;}.cls-8{fill:#d1a788;}.cls-9{fill:#cba07a;}.cls-10{fill:#fbcc88;}.cls-11{fill:#f6b756;}</style></defs><title>Golf Car</title><g id="Golf_Car" data-name="Golf Car"><path class="cls-1" d="M93,69c-.47,0,.66.75-14.24-10.42A1,1,0,0,1,80,57L93.6,67.18A1,1,0,0,1,93,69Z"/><path class="cls-2" d="M14,69V24a1,1,0,0,1,2,0V69A1,1,0,0,1,14,69Z"/><path class="cls-2" d="M104.65,62c-1.05,0,0,1.83-14.59-37.62a1,1,0,0,1,1.88-.7l13.64,37A1,1,0,0,1,104.65,62Z"/><path class="cls-2" d="M74.16,66a1,1,0,0,1-.81-1.58L83.51,50.23a1,1,0,0,1,1.63,1.16C74.12,66.81,74.89,66,74.16,66Z"/><path class="cls-3" d="M96.94,83.58,90.42,73.19,96.52,61H101V79Z"/><path class="cls-2" d="M101,76v3l-4.06,4.58L90.42,73.19l.84-1.67,2.43,3.87A4.58,4.58,0,0,0,101,76Z"/><path class="cls-4" d="M1,97V77H7V68H38.48L51.69,81H72V91H92l8-12V61h14.81L127,73.19V89.42l-1.57,2.15L103,100H33C4.76,96.47,11.67,97,1,97Z"/><path class="cls-5" d="M127,86.42v3l-1.57,2.15L103,100H33C4.76,96.47,11.67,97,1,97V94c10.07,0,3.2-.6,32,3h70l22.43-8.43Z"/><circle class="cls-1" cx="21" cy="98" r="12"/><circle class="cls-6" cx="21" cy="98" r="4"/><circle class="cls-1" cx="115" cy="98" r="12"/><path class="cls-7" d="M21,110A12,12,0,0,1,9.1,96.5a12,12,0,0,0,23.8,0A12,12,0,0,1,21,110Z"/><path class="cls-7" d="M115,110a12,12,0,0,1-11.9-13.5,12,12,0,0,0,23.8,0A12,12,0,0,1,115,110Z"/><circle class="cls-6" cx="115" cy="98" r="4"/><path class="cls-3" d="M24.87,99a4,4,0,0,0-7.74,0,4,4,0,1,1,7.74,0Z"/><path class="cls-3" d="M118.87,99a4,4,0,0,0-7.74,0,4,4,0,1,1,7.74,0Z"/><path class="cls-4" d="M103.85,24c-100.3,0-98-.1-98,0a8,8,0,0,1,8-8H90.91A14.45,14.45,0,0,1,103.85,24Z"/><path class="cls-5" d="M103.85,24h-98a8.09,8.09,0,0,1,.58-3h95.4A14.09,14.09,0,0,1,103.85,24Z"/><path class="cls-8" d="M52,81H69.65a4.13,4.13,0,0,0,4.19-3.62,4,4,0,0,0-4-4.38H49.74l-4.8-16.72a4,4,0,1,0-7.68,2.22l3.18,11.08Z"/><path class="cls-9" d="M69.65,81H52L40.44,69.58c-3.47-12.09-3.72-12-3.06-13.65l3.06,10.65L52,78H69.65a4.24,4.24,0,0,0,3.91-2.5A4,4,0,0,1,69.65,81Z"/><path class="cls-10" d="M127,82h-1.5a3.5,3.5,0,0,1,0-7H127Z"/><path class="cls-11" d="M127,80v2h-1.5a3.5,3.5,0,0,1-3.35-4.5A3.51,3.51,0,0,0,125.5,80Z"/></g></svg>