<svg xmlns="http://www.w3.org/2000/svg" viewBox="0 0 128 128"><defs><style>.cls-1{fill:#c6ccda;}.cls-2{fill:#949aaf;}.cls-3{fill:#8cdd79;}.cls-4{fill:#7ece67;}.cls-5{fill:#3d465e;}.cls-6{fill:#7aa8d7;}.cls-7{fill:#5b8dc9;}.cls-8{fill:#f3f4f5;}.cls-9{fill:#464f6b;}.cls-10{fill:#fbcc88;}.cls-11{fill:#f6b756;}.cls-12{fill:#d4d8e1;}</style></defs><title>GPS</title><g id="GPS"><rect class="cls-1" width="78" height="128" rx="8.26"/><path class="cls-2" d="M78,115.74v4A8.26,8.26,0,0,1,69.74,128H8.26A8.26,8.26,0,0,1,0,119.74v-4A8.26,8.26,0,0,0,8.26,124H69.74A8.26,8.26,0,0,0,78,115.74Z"/><path class="cls-3" d="M70,120H8V8H22.47a4.08,4.08,0,0,0,4.13,4H51.4a4.08,4.08,0,0,0,4.13-4H70Z"/><rect class="cls-4" x="8" y="116" width="62" height="4"/><circle class="cls-5" cx="30.97" cy="6.19" r="2.06"/><circle class="cls-5" cx="47.48" cy="6.19" r="2.06"/><circle class="cls-6" cx="94.97" cy="86.71" r="33.03"/><path class="cls-7" d="M95,119.74a33,33,0,0,1-33-34.2,33,33,0,0,0,65.82-2.63A33,33,0,0,1,95,119.74Z"/><path class="cls-8" d="M115.61,102.28C88.32,94.75,96.5,97.09,95,96.58l-20.65,5.7L95,64C96.37,66.82,88.56,52.12,115.61,102.28Z"/><path class="cls-9" d="M59,44.67,26.89,76.79,70,119.92c0,.12.86.08-11.6.08L21.05,82.63l-13,13V78.09L29.8,56.35,8.06,34.61V20l29,29L59,27.16l11,11V55.67Z"/><rect class="cls-10" x="30.59" y="21.3" width="13.14" height="13.14" transform="translate(30.59 -18.11) rotate(45)"/><rect class="cls-10" x="42.37" y="68.79" width="10.22" height="13.14" transform="translate(67.19 -11.51) rotate(45)"/><rect class="cls-10" x="17.48" y="99.45" width="14.6" height="11.68" transform="translate(81.71 13.32) rotate(45)"/><polygon class="cls-11" points="46.45 27.87 37.16 37.16 27.87 27.87 30.37 25.37 37.16 32.16 43.95 25.37 46.45 27.87"/><polygon class="cls-11" points="55.74 74.32 46.45 83.61 39.23 76.39 41.73 73.89 46.45 78.61 53.24 71.82 55.74 74.32"/><polygon class="cls-11" points="34.06 106.32 25.81 114.58 15.48 104.26 17.98 101.76 25.81 109.58 31.56 103.82 34.06 106.32"/><path class="cls-12" d="M95,64.06c0,34,.07,32.55,0,32.52l-20.65,5.7C96.28,61.57,95,64,95,64.06Z"/></g></svg>