<svg xmlns="http://www.w3.org/2000/svg" viewBox="0 0 128 128"><defs><style>.cls-1{fill:#7aa8d7;}.cls-2{fill:#5b8dc9;}.cls-3{fill:#464f6b;}.cls-4{fill:#3d465e;}.cls-5{fill:#949aaf;}.cls-6{fill:#8288a1;}.cls-7{fill:#f6b756;}.cls-8{fill:#d7f1ff;}.cls-9{fill:#c3e1f5;}.cls-10{fill:#d7dbe2;}.cls-11{fill:#dd4e6a;}</style></defs><title>Hatchback</title><g id="Hatchback"><path class="cls-1" d="M127,78l-2,2H7.1L1,78V57.23a10.24,10.24,0,0,1,2.52-6.74c5.15-6,10-13.49,20.93-13.49H70.07a12.11,12.11,0,0,1,6.67,2c.89.54,21.72,16.43,21.82,16.43l20.78,3.21a8.22,8.22,0,0,1,6.75,6.49C127.24,71.32,127,67.41,127,78Z"/><polygon class="cls-2" points="127 73.95 127 77.95 124.97 80 7.1 80 1 77.95 1 73.95 7.1 76 124.97 76 127 73.95"/><circle class="cls-3" cx="17" cy="80" r="10"/><circle class="cls-3" cx="105" cy="80" r="10"/><path class="cls-4" d="M17,90A10,10,0,0,1,7.12,78.52a10,10,0,0,0,19.76,0A10,10,0,0,1,17,90Z"/><path class="cls-4" d="M105,90a10,10,0,0,1-9.88-11.48,10,10,0,0,0,19.76,0A10,10,0,0,1,105,90Z"/><circle class="cls-5" cx="17" cy="80" r="4"/><circle class="cls-5" cx="105" cy="80" r="4"/><path class="cls-6" d="M20.87,81a4,4,0,0,0-7.74,0,4,4,0,1,1,7.74,0Z"/><path class="cls-6" d="M108.87,81a4,4,0,0,0-7.74,0,4,4,0,1,1,7.74,0Z"/><path class="cls-7" d="M126.94,70h-8a3.91,3.91,0,0,1,1.18-2.82c1.45-1.5,3-1.18,6-1.18Z"/><path class="cls-8" d="M15,47.71l-4.13,7.22A6.08,6.08,0,0,1,5.59,58H1a10.45,10.45,0,0,1,2.52-7.51C9,44.19,11.1,41,16.34,38.72A12.35,12.35,0,0,1,15,47.71Z"/><path class="cls-9" d="M10.88,54.93A6.08,6.08,0,0,1,5.59,58H1a11.43,11.43,0,0,1,.25-3H5.59a6.08,6.08,0,0,0,5.29-3.07c4.42-7.73,5.37-8.83,5.71-12.1C17.25,45.25,14.68,48.29,10.88,54.93Z"/><path class="cls-8" d="M98.56,55.43V56l-6.1,2c-72,0-66.85.32-67.65-.65a8.65,8.65,0,0,1-1.93-6.24c.14-1.73.29-1.76,4.43-12.11H76.74C77.63,39.54,98.46,55.43,98.56,55.43Z"/><path class="cls-9" d="M98.56,55.43V56l-6.1,2H25.39a8.65,8.65,0,0,1-2.52-6.89c.18-2.26-.29,1.08,2.52,3.89H92.45l3.84-1.28C99,55.75,98.46,55.43,98.56,55.43Z"/><path class="cls-1" d="M34.55,58.8l2-20.32a1,1,0,0,1,2,.2L36.54,59A1,1,0,0,1,34.55,58.8Z"/><path class="cls-1" d="M57,58V38a1,1,0,0,1,2,0V58A1,1,0,0,1,57,58Z"/><path class="cls-10" d="M66,67H62a1,1,0,0,1,0-2h4A1,1,0,0,1,66,67Z"/><rect class="cls-11" x="1" y="64" width="4" height="4"/></g></svg>