<svg xmlns="http://www.w3.org/2000/svg" viewBox="0 0 128 128"><defs><style>.cls-1{fill:#464f6b;}.cls-2{fill:#8288a1;}.cls-3{fill:#3d465e;}.cls-4{fill:#edf0f4;}.cls-5{fill:#d4d8e1;}.cls-6{fill:#949aaf;}.cls-7{fill:#d7dbe2;}.cls-8{fill:#d7f1ff;}.cls-9{fill:#c3e1f5;}</style></defs><title>Helicopter</title><g id="Helicopter"><path class="cls-1" d="M87,42V33a1,1,0,0,1,2,0v9A1,1,0,0,1,87,42Z"/><path class="cls-2" d="M89,95V85a1,1,0,0,1,2,0V95A1,1,0,0,1,89,95Z"/><path class="cls-2" d="M110,95V85a1,1,0,0,1,2,0V95A1,1,0,0,1,110,95Z"/><path class="cls-3" d="M119.42,96H74a1,1,0,0,1,0-2h45.42a6.34,6.34,0,0,0,5.69-3.51,1,1,0,0,1,1.78.89A8.29,8.29,0,0,1,119.42,96Z"/><path class="cls-4" d="M127,76.9a8.13,8.13,0,0,1-8.12,8.1H91.93A30.73,30.73,0,0,1,63.82,66L15.37,57l-4.32,9H5C7.32,51.25,7,54.44,7,50L1,36H7L19,50h81.29A26.75,26.75,0,0,1,127,76.9Z"/><path class="cls-5" d="M127,76.9a8.13,8.13,0,0,1-8.12,8.1H91.93A30.73,30.73,0,0,1,63.82,66L15.37,57l-4.32,9H5l.48-3h5.62l4.32-9,48.45,9a30.73,30.73,0,0,0,28.1,19h27a8.12,8.12,0,0,0,8-7C127,75.59,127,76.23,127,76.9Z"/><path class="cls-6" d="M100.32,50c-34.27,0-31.9-.1-32,0a27.32,27.32,0,0,1,19.32-8h4.68Z"/><path class="cls-2" d="M100.32,50h-32a26.76,26.76,0,0,1,3.57-3H97.32Z"/><path class="cls-7" d="M126,36H51a1,1,0,0,1,0-2h75A1,1,0,0,1,126,36Z"/><path class="cls-8" d="M126.52,74H93a18.36,18.36,0,0,1-15.7-8.88,4.7,4.7,0,0,1,4-7.12h38A25.8,25.8,0,0,1,126.52,74Z"/><path class="cls-9" d="M126.52,74H93a18.36,18.36,0,0,1-15.7-8.88,4.76,4.76,0,0,1-.41-3.92,4.7,4.7,0,0,0,.41.92A18.36,18.36,0,0,0,93,71h33.15A24.61,24.61,0,0,1,126.52,74Z"/><rect class="cls-8" x="93" y="58" width="16" height="27"/><rect class="cls-9" x="93" y="82" width="16" height="3"/><rect class="cls-9" x="91" y="58" width="2" height="16"/><rect class="cls-9" x="109" y="58" width="2" height="16"/></g></svg>