<svg xmlns="http://www.w3.org/2000/svg" viewBox="0 0 128 128"><defs><style>.cls-1{fill:#d1a788;}.cls-2{fill:#cba07a;}.cls-3{fill:#d7dbe2;}.cls-4{fill:#7aa8d7;}.cls-5{fill:#edf0f4;}.cls-6{fill:#8288a1;}.cls-7{fill:#e8c4a6;}</style></defs><title>Hot Air Balloon</title><g id="Hot_Air_Balloon" data-name="Hot Air Balloon"><rect class="cls-1" x="53" y="113" width="22" height="14"/><rect class="cls-2" x="53" y="124" width="22" height="3"/><path class="cls-3" d="M53,112.92,54.87,90.3a1,1,0,0,1,2,.17L55,113.08A1,1,0,0,1,53,112.92Z"/><path class="cls-3" d="M63,113V90a1,1,0,0,1,2,0v23A1,1,0,0,1,63,113Z"/><path class="cls-3" d="M73,113.08,71.13,90.47a1,1,0,0,1,2-.17L75,112.92A1,1,0,0,1,73,113.08Z"/><path class="cls-4" d="M72.21,90S103,59.67,103,35.4,84.53,1,64,1,25,11.12,25,35.4,55.79,90,55.79,90"/><path class="cls-5" d="M69.47,90S90,59.67,90,35.4,77.68,1,64,1,38,11.12,38,35.4,58.53,90,58.53,90"/><path class="cls-4" d="M66.11,90C78.45,42.57,75,1,64,1S49.42,42.06,61.9,90"/><path class="cls-6" d="M74,91H54a1,1,0,0,1,0-2H74A1,1,0,0,1,74,91Z"/><path class="cls-7" d="M76,114H52a1,1,0,0,1,0-2H76A1,1,0,0,1,76,114Z"/></g></svg>