<svg xmlns="http://www.w3.org/2000/svg" viewBox="0 0 128 128"><defs><style>.cls-1{fill:#6ab891;}.cls-2{fill:#4da67f;}.cls-3{fill:#464f6b;}.cls-4{fill:#949aaf;}.cls-5{fill:#d7f1ff;}.cls-6{fill:#c3e1f5;}.cls-7{fill:#9fe2bf;}.cls-8{fill:#3d465e;}.cls-9{fill:#fbcc88;}.cls-10{fill:#f6b756;}.cls-11{fill:#8288a1;}</style></defs><title>Jeep</title><g id="Jeep"><path class="cls-1" d="M127,82.29l-4.06,4.06L15,86c-7-2.4-4.72-2-10-2V74h6V56h6.11l3.26-20.85a6.1,6.1,0,0,1,6-5.15H75.63a4.08,4.08,0,0,1,3.65,2.22l7,19.74c0,.1-1.62-.13,34.22,3.58a6.06,6.06,0,0,1,5.33,4.78C127.38,67.9,127,63.52,127,82.29Z"/><path class="cls-2" d="M127,78.29v4l-4.06,4.06L15,86c-7-2.4-4.72-2-10-2V80c5.28,0,3-.4,10,2l107.94.35Z"/><circle class="cls-3" cx="31" cy="86" r="16"/><circle class="cls-4" cx="31" cy="86" r="7"/><polygon class="cls-5" points="86.29 51.96 76.19 56 54 56 54 33 79.56 33 86.29 51.96"/><polygon class="cls-6" points="86.29 51.96 76.19 56 54 56 54 52 76.19 52 85.05 48.46 86.29 51.96"/><path class="cls-5" d="M46,33V56H17.11c3.5-22.4,3.19-21.57,4-23Z"/><polygon class="cls-6" points="46 52 46 56 17.11 56 17.74 52 46 52"/><path class="cls-7" d="M60,67H56a1,1,0,0,1,0-2h4A1,1,0,0,1,60,67Z"/><rect class="cls-3" x="1" y="50" width="10" height="24" rx="1"/><path class="cls-8" d="M11,68v5a1,1,0,0,1-1,1H2a1,1,0,0,1-1-1V68a1,1,0,0,0,1,1h8A1,1,0,0,0,11,68Z"/><path class="cls-9" d="M127,72h-3.74c-3.71,0-5.66-4.31-3.08-6.82,1.48-1.52,3.06-1.18,6.42-1.18C127.13,66.67,127,64.9,127,72Z"/><path class="cls-10" d="M127,70v2h-3.74a4.11,4.11,0,0,1-4.12-5,4.29,4.29,0,0,0,4.12,3Z"/><circle class="cls-3" cx="107" cy="86" r="16"/><path class="cls-8" d="M31,102A16,16,0,0,1,15.13,84a16,16,0,0,0,31.75,0A16,16,0,0,1,31,102Z"/><path class="cls-8" d="M107,102A16,16,0,0,1,91.13,84a16,16,0,0,0,31.75,0A16,16,0,0,1,107,102Z"/><circle class="cls-4" cx="107" cy="86" r="7"/><path class="cls-11" d="M37.84,87.5c-1.6-7.3-12.08-7.31-13.68,0a7,7,0,1,1,13.68,0Z"/><path class="cls-11" d="M113.84,87.5c-1.6-7.3-12.08-7.31-13.68,0a7,7,0,1,1,13.68,0Z"/></g></svg>