<svg xmlns="http://www.w3.org/2000/svg" viewBox="0 0 128 128"><defs><style>.cls-1{fill:#697084;}.cls-2{fill:#575f7c;}.cls-3{fill:#464f6b;}.cls-4{fill:#949aaf;}.cls-5{fill:#8288a1;}.cls-6{fill:#3d465e;}.cls-7{fill:#adb3c4;}</style></defs><title>Locomotive</title><g id="Locomotive"><rect class="cls-1" x="1" y="70" width="28" height="14"/><rect class="cls-2" x="27" y="70" width="2" height="14"/><rect class="cls-2" x="1" y="80" width="28" height="4"/><path class="cls-1" d="M29,84H94V60H29Z"/><path class="cls-2" d="M29,84H94V80H29Z"/><circle class="cls-3" cx="25" cy="84" r="10"/><circle class="cls-4" cx="25" cy="84" r="6"/><circle class="cls-3" cx="48" cy="84" r="10"/><circle class="cls-4" cx="48" cy="84" r="6"/><circle class="cls-3" cx="70" cy="84" r="10"/><circle class="cls-4" cx="70" cy="84" r="6"/><path class="cls-5" d="M30.91,85c-1.1-6.64-10.72-6.63-11.82,0a6,6,0,1,1,11.82,0Z"/><path class="cls-5" d="M53.91,85c-1.1-6.64-10.72-6.63-11.82,0a6,6,0,1,1,11.82,0Z"/><path class="cls-5" d="M75.91,85c-1.1-6.64-10.72-6.63-11.82,0a6,6,0,1,1,11.82,0Z"/><circle class="cls-3" cx="91" cy="89" r="5"/><path class="cls-4" d="M91,91a2,2,0,1,1,2-2A2,2,0,0,1,91,91Zm0-2Z"/><circle class="cls-3" cx="104" cy="89" r="5"/><path class="cls-6" d="M25,94a10,10,0,0,1-9.88-11.48,10,10,0,0,0,19.76,0A10,10,0,0,1,25,94Z"/><path class="cls-6" d="M48,94a10,10,0,0,1-9.88-11.48,10,10,0,0,0,19.76,0A10,10,0,0,1,48,94Z"/><path class="cls-6" d="M70,94a10,10,0,0,1-9.88-11.48,10,10,0,0,0,19.76,0A10,10,0,0,1,70,94Z"/><path class="cls-6" d="M91,94a5,5,0,0,1-4.9-6,5,5,0,0,0,9.8,0A5,5,0,0,1,91,94Z"/><path class="cls-6" d="M104,94a5,5,0,0,1-4.9-6,5,5,0,0,0,9.8,0A5,5,0,0,1,104,94Z"/><path class="cls-4" d="M104,91a2,2,0,1,1,2-2A2,2,0,0,1,104,91Zm0-2Z"/><rect class="cls-4" x="5" y="42" width="24" height="28"/><rect class="cls-1" x="17" y="42" width="12" height="28"/><rect class="cls-4" x="19" y="45" width="8" height="11"/><rect class="cls-4" x="46" y="50" width="12" height="10"/><rect class="cls-5" x="46" y="57" width="12" height="3"/><path class="cls-7" d="M59,51H45a1,1,0,0,1,0-2H59A1,1,0,0,1,59,51Z"/><path class="cls-4" d="M70,50h4a2,2,0,0,1,2,2v8a0,0,0,0,1,0,0H68a0,0,0,0,1,0,0V52A2,2,0,0,1,70,50Z"/><path class="cls-4" d="M84,50h4a2,2,0,0,1,2,2v8a0,0,0,0,1,0,0H82a0,0,0,0,1,0,0V52A2,2,0,0,1,84,50Z"/><rect class="cls-2" x="94" y="76" width="21" height="8"/><rect class="cls-3" x="94" y="80" width="21" height="4"/><path class="cls-4" d="M94,60h13a4,4,0,0,1,4,4v8a4,4,0,0,1-4,4H94a0,0,0,0,1,0,0V60A0,0,0,0,1,94,60Z"/><path class="cls-5" d="M111,69v3a4,4,0,0,1-4,4H94V73h13A4,4,0,0,0,111,69Z"/><path class="cls-4" d="M127,92H113V84l2-.13Z"/><rect class="cls-4" x="97" y="42" width="8" height="18"/><rect class="cls-5" x="97" y="57" width="8" height="3"/><polygon class="cls-7" points="105 42 97 42 95 38 97 34 105 34 107 38 105 42"/><path class="cls-7" d="M94,71H40a1,1,0,0,1,0-2H94A1,1,0,0,1,94,71Z"/><rect class="cls-5" x="68" y="57" width="8" height="3"/><rect class="cls-5" x="82" y="57" width="8" height="3"/><rect class="cls-2" x="17" y="67" width="12" height="3"/><rect class="cls-5" x="5" y="67" width="12" height="3"/><rect class="cls-5" x="5" y="43" width="12" height="3"/><path class="cls-7" d="M33,43H2a1,1,0,0,1,0-2H33A1,1,0,0,1,33,43Z"/><polygon class="cls-5" points="127 92 113 92 113 89 122.58 89 127 92"/></g></svg>