<svg xmlns="http://www.w3.org/2000/svg" viewBox="0 0 128 128"><defs><style>.cls-1{fill:#e2607f;}.cls-2{fill:#dd4e6a;}.cls-3{fill:#464f6b;}.cls-4{fill:#3d465e;}.cls-5{fill:#adb3c4;}.cls-6{fill:#949aaf;}.cls-7{fill:#697084;}.cls-8{fill:#5d667f;}.cls-9{fill:#d7f1ff;}.cls-10{fill:#c3e1f5;}.cls-11{fill:#fbcc88;}.cls-12{fill:#f6b756;}</style></defs><title>London Bus</title><g id="London_Bus" data-name="London Bus"><path class="cls-1" d="M127,46.24V59h-4V73.44l4,4.12V92h-6c-21.36-1.33,1-1-120-1C1,41.11,1,43.1,1,43A12.18,12.18,0,0,1,13.19,31H119.68a6,6,0,0,1,4.5,2C125.93,34.91,125.67,36,127,46.24Z"/><path class="cls-2" d="M121,89h6v3c-8,0-2.81.2-22-1H1V88C121.8,88,99.66,87.67,121,89Z"/><circle class="cls-3" cx="31" cy="89" r="8"/><circle class="cls-3" cx="113" cy="89" r="8"/><path class="cls-4" d="M31,97a8,8,0,0,1-7.86-9.5,8,8,0,0,0,15.72,0A8,8,0,0,1,31,97Z"/><path class="cls-4" d="M113,97a8,8,0,0,1-7.86-9.5,8,8,0,0,0,15.72,0A8,8,0,0,1,113,97Z"/><circle class="cls-5" cx="31" cy="89" r="3"/><circle class="cls-5" cx="113" cy="89" r="3"/><path class="cls-6" d="M33.82,90a3,3,0,0,0-5.64,0,3,3,0,1,1,5.64,0Z"/><path class="cls-6" d="M115.82,90a3,3,0,0,0-5.64,0,3,3,0,1,1,5.64,0Z"/><rect class="cls-7" x="1" y="59" width="14" height="32"/><rect class="cls-8" x="1" y="88" width="14" height="3"/><rect class="cls-9" x="23" y="59" width="81" height="14"/><rect class="cls-10" x="23" y="70" width="81" height="3"/><path class="cls-1" d="M39,73V59a1,1,0,0,1,2,0V73A1,1,0,0,1,39,73Z"/><path class="cls-1" d="M55,73V59a1,1,0,0,1,2,0V73A1,1,0,0,1,55,73Z"/><path class="cls-1" d="M71,73V59a1,1,0,0,1,2,0V73A1,1,0,0,1,71,73Z"/><path class="cls-1" d="M87,73V59a1,1,0,0,1,2,0V73A1,1,0,0,1,87,73Z"/><rect class="cls-9" x="113" y="59" width="10" height="14"/><rect class="cls-10" x="113" y="70" width="10" height="3"/><path class="cls-9" d="M127,46.24V47H1C1,42.66.4,37,6.5,33H124.18C125.93,34.91,125.67,36,127,46.24Z"/><path class="cls-10" d="M127,47H1V43H126.58C127.07,46.77,127,46,127,47Z"/><path class="cls-1" d="M33,47V32A1,1,0,0,1,35,32V47A1,1,0,0,1,33,47Z"/><path class="cls-1" d="M51,47V32A1,1,0,0,1,53,32V47A1,1,0,0,1,51,47Z"/><path class="cls-1" d="M69,47V32A1,1,0,0,1,71,32V47A1,1,0,0,1,69,47Z"/><path class="cls-1" d="M87,47V32A1,1,0,0,1,89,32V47A1,1,0,0,1,87,47Z"/><path class="cls-1" d="M106,47V32A1,1,0,0,1,108,32V47A1,1,0,0,1,106,47Z"/><path class="cls-1" d="M16,47V32A1,1,0,0,1,18,32V47A1,1,0,0,1,16,47Z"/><path class="cls-11" d="M127,85h-1.5a2.5,2.5,0,0,1,0-5H127Z"/><path class="cls-12" d="M127,83v2h-1.5a2.5,2.5,0,0,1-2.29-3.5C124,83.23,125.62,83,127,83Z"/><rect class="cls-2" x="1" y="55" width="126" height="4"/></g></svg>