<svg xmlns="http://www.w3.org/2000/svg" viewBox="0 0 128 128"><defs><style>.cls-1{fill:#f3f4f5;}.cls-2{fill:#edf0f4;}.cls-3{fill:#464f6b;}.cls-4{fill:#3d465e;}.cls-5{fill:#adb3c4;}.cls-6{fill:#949aaf;}.cls-7{fill:#fbcc88;}.cls-8{fill:#f6b756;}.cls-9{fill:#d7f1ff;}.cls-10{fill:#c3e1f5;}.cls-11{fill:#e2607f;}.cls-12{fill:#dd4e6a;}.cls-13{fill:#8288a1;}.cls-14{fill:#c7cdd8;}</style></defs><title>Mail Truck</title><g id="Mail_Truck" data-name="Mail Truck"><path class="cls-1" d="M127,81.82V94H11.16L1,89.94c0-20.46-.37-7.69,1.87-59A4.07,4.07,0,0,1,6.93,27H75.8a10,10,0,0,1,8.6,4.87c2.78,4.63,18.2,29.63,18.21,29.65C114.35,66.84,124.51,69.37,127,81.82Z"/><polygon class="cls-2" points="127 91 127 94 11.16 94 1 89.94 1 86.94 11.16 91 127 91"/><circle class="cls-3" cx="21" cy="91" r="10"/><circle class="cls-3" cx="107" cy="91" r="10"/><path class="cls-4" d="M21,101a10,10,0,0,1-9.88-11.48,10,10,0,0,0,19.76,0A10,10,0,0,1,21,101Z"/><path class="cls-4" d="M107,101a10,10,0,0,1-9.88-11.48,10,10,0,0,0,19.76,0A10,10,0,0,1,107,101Z"/><circle class="cls-5" cx="21" cy="91" r="4"/><circle class="cls-5" cx="107" cy="91" r="4"/><path class="cls-6" d="M24.87,92a4,4,0,0,0-7.74,0,4,4,0,1,1,7.74,0Z"/><path class="cls-6" d="M110.87,92a4,4,0,0,0-7.74,0,4,4,0,1,1,7.74,0Z"/><path class="cls-7" d="M45.48,42c-.64,2.81-2.32,10.48-4,18h-24c.54-2.43,3.67-16.45,4-18Z"/><path class="cls-8" d="M45.48,42l-.24,1.06L32.07,52.62a1,1,0,0,1-1.3-.12l-9.45-9.76.16-.74H23.4l8.2,8.49L43.29,42Z"/><path class="cls-9" d="M102.45,61.25,92,66H68l-6-4V42.06A4.08,4.08,0,0,1,66.06,38H88C91,42.54,88.23,38.17,102.45,61.25Z"/><polygon class="cls-10" points="102.45 61.25 92 66 68 66 62 62 62 59 68 63 92 63 101.01 58.91 102.45 61.25"/><path class="cls-1" d="M92,67c-.91,0,.26,1.93-13.91-28.58a1,1,0,0,1,1.82-.84l13,28A1,1,0,0,1,92,67Z"/><rect class="cls-11" x="1" y="74" width="4" height="8"/><rect class="cls-12" x="1" y="79" width="4" height="3"/><path class="cls-13" d="M68,77H64a1,1,0,0,1,0-2h4A1,1,0,0,1,68,77Z"/><path class="cls-14" d="M58,69H9a1,1,0,0,1,0-2H58A1,1,0,0,1,58,69Z"/><path class="cls-7" d="M127,81.82c0,.25.59.18-4,.18-3.38,0-5-3.92-3.41-5.41.77-.79,1.36-.59,5.26-.59A20.29,20.29,0,0,1,127,81.82Z"/><path class="cls-8" d="M127,81.82c0,.25.59.18-4,.18-3,0-4.61-3.16-3.82-4.81A4,4,0,0,0,123,80h3.54A16.16,16.16,0,0,1,127,81.82Z"/><polygon class="cls-8" points="42.15 57 41.48 60 17.48 60 18.15 57 42.15 57"/></g></svg>