<svg xmlns="http://www.w3.org/2000/svg" viewBox="0 0 128 128"><defs><style>.cls-1{fill:#8cdd79;}.cls-2{fill:#7ece67;}.cls-3{fill:#7aa8d7;}.cls-4{fill:#5b8dc9;}.cls-5{fill:#f3f4f5;}.cls-6{fill:#d4d8e1;}</style></defs><title>Map</title><g id="Map"><path class="cls-1" d="M37.58,49.77c-.38,3.8-5.85,58.49-6,60.34L1,125c1.32-9.86-.06.51,8.13-61,27.94-14,27.8-13.81,27.8-13.91Z"/><path class="cls-1" d="M64,74.16V127L31.54,110.11c.56-5.51-.7,7.06,6-60.34l9.15,3.52Z"/><path class="cls-1" d="M127,125,96.46,110.11c-.77-7.61,1,10.46-6-60.34L118.87,64C127.22,126.68,125.8,116,127,125Z"/><path class="cls-1" d="M96.46,110.11,64,127V74.16L81.27,53.29l9.15-3.52C90.84,54,96.26,108.15,96.46,110.11Z"/><path class="cls-1" d="M64,74.16V127L31.54,110.11c.56-5.51-.7,7.06,6-60.34l9.15,3.52Z"/><path class="cls-1" d="M127,125,96.46,110.11c-.77-7.61,1,10.46-6-60.34L118.87,64C127.22,126.68,125.8,116,127,125Z"/><path class="cls-1" d="M96.46,110.11,64,127V74.16L81.27,53.29l9.15-3.52C90.84,54,96.26,108.15,96.46,110.11Z"/><path class="cls-2" d="M37.58,49.77c-.38,3.8-5.85,58.49-6,60.34L1,125l.88-6.57c31.43-14.67,29-13.52,29.6-13.82.24-2.51,5.45-54.39,5.45-54.49Z"/><path class="cls-2" d="M64,120.84V127L31.54,110.11l.59-5.85Z"/><path class="cls-2" d="M127,125,96.46,110.11c-.77-7.61,1,10.46-6-60.34l.65.32c0,.1,0-.41,5.39,53.86.09,1-3.28-.93,29.66,14.45Z"/><path class="cls-2" d="M96.46,110.11,64,127v-6.16l31.87-16.58Z"/><path class="cls-2" d="M37.58,49.77l-5.45,54.48-.59-.3c5.76-57.55,5.39-53.76,5.39-53.86Z"/><path class="cls-2" d="M96.46,104l-.59.3L90.42,49.77l.65.32C91.07,50.19,91,49.68,96.46,104Z"/><path class="cls-2" d="M97.51,110.62l-1.05-.51-1,.5c-.87-8.62.13,1.36-6-60.47,1.17-.44.8-.45,1.62,0h0C91.72,50.43,91,45.64,97.51,110.62Z"/><polygon class="cls-2" points="65 72.95 65 126.48 64 127 63 126.48 63 72.95 64 74.16 65 72.95"/><path class="cls-2" d="M38.55,50.14c-6.28,62.81-5.24,52.46-6,60.47l-1-.5-1.05.51c6.55-65,5.79-60.19,6.44-60.52h0C37.75,49.69,37.38,49.69,38.55,50.14Z"/><path class="cls-3" d="M90.42,27.42C90.42,49.77,64,74.16,64,74.16S37.58,49.77,37.58,27.42a26.42,26.42,0,0,1,52.84,0Z"/><path class="cls-4" d="M87.38,41.6C80.44,59,64,74.16,64,74.16S47.56,59,40.62,41.6A102.63,102.63,0,0,0,55,59.75a12.6,12.6,0,0,0,18,0A102.63,102.63,0,0,0,87.38,41.6Z"/><circle class="cls-5" cx="64" cy="27.42" r="12.19"/><path class="cls-6" d="M76,29.42a12.18,12.18,0,0,0-24,0,12.19,12.19,0,1,1,24,0Z"/></g></svg>