<svg xmlns="http://www.w3.org/2000/svg" viewBox="0 0 128 128"><defs><style>.cls-1{fill:#8288a1;}.cls-2{fill:#464f6b;}.cls-3{fill:#949aaf;}.cls-4{fill:#3d465e;}.cls-5{fill:#7aa8d7;}.cls-6{fill:#5b8dc9;}.cls-7{fill:#9b756d;}.cls-8{fill:#8a6762;}</style></defs><title>Motorcycle </title><g id="Motorcycle"><polygon class="cls-1" points="93 44 88 44 88 54 98 54 93 44"/><path class="cls-2" d="M40.68,70.37,36.62,56.15a1,1,0,0,1,1.92-.55l4.07,14.22A1,1,0,0,1,40.68,70.37Z"/><path class="cls-3" d="M89,50V63.77C78.14,77.63,80.18,75,77.84,78H50V56Z"/><polygon class="cls-1" points="89 60.77 89 63.77 77.84 78 50 78 50 75 77.84 75 89 60.77"/><path class="cls-2" d="M109,60a18,18,0,1,0,18,18A18,18,0,0,0,109,60Zm0,28a10,10,0,1,1,10-10A10,10,0,0,1,109,88Z"/><path class="cls-4" d="M126.94,76.5a18,18,0,0,1-35.88,0,18,18,0,1,0,35.88,0Z"/><path class="cls-2" d="M18,60A18,18,0,1,0,36,78,18,18,0,0,0,18,60Zm0,28A10,10,0,1,1,28,78,10,10,0,0,1,18,88Z"/><path class="cls-4" d="M35.94,76.5a18,18,0,0,1-35.88,0,18,18,0,1,0,35.88,0Z"/><path class="cls-3" d="M109,79c-1,0,.48,2.52-21.26-46H80a1,1,0,0,1,0-2h8.39c1,0-.62-2.81,21.52,46.59A1,1,0,0,1,109,79Z"/><path class="cls-3" d="M98,38h9a0,0,0,0,1,0,0V50a0,0,0,0,1,0,0H98a3,3,0,0,1-3-3V41A3,3,0,0,1,98,38Z"/><path class="cls-1" d="M107,47v3H98a3,3,0,0,1-3-3V44a3,3,0,0,0,3,3Z"/><path class="cls-5" d="M84.94,56H52V48c8.52-4.74,12.91-8,20.71-8H82.9A6.1,6.1,0,0,1,89,46.1v5.84A4.06,4.06,0,0,1,84.94,56Z"/><path class="cls-6" d="M89,48.94v3A4.06,4.06,0,0,1,84.94,56H52V53H84.94A4.06,4.06,0,0,0,89,48.94Z"/><path class="cls-7" d="M32,47a9.41,9.41,0,0,0-4.24-1H15.19a4,4,0,1,0,0,8c11,0,12.16-.32,14.81,1s2.8,1,22,1V48C35,48,34.65,48.32,32,47Z"/><path class="cls-8" d="M52,53v3H34.24c-3.94,0-4.54-2-8.48-2-11.13,0-11.84.39-13.4-1.17a4,4,0,0,1-.88-4.33A4,4,0,0,0,15.19,51c11,0,12.17-.32,14.81,1S32.8,53,52,53Z"/><path class="cls-1" d="M80,66.57c0,10,.37,8.21-2.16,11.43H59.7C57.52,75.55,58,73.24,58,66.57A6.31,6.31,0,0,1,64,60H74A6.31,6.31,0,0,1,80,66.57Z"/><path class="cls-3" d="M74,78H64a4.32,4.32,0,0,1-4-4.57V66.57A4.32,4.32,0,0,1,64,62H74a4.32,4.32,0,0,1,4,4.57v6.86A4.32,4.32,0,0,1,74,78Z"/><path class="cls-1" d="M78,70.43v3A4.32,4.32,0,0,1,74,78H64a4.32,4.32,0,0,1-4-4.57v-3A4.32,4.32,0,0,0,64,75H74A4.32,4.32,0,0,0,78,70.43Z"/><polygon class="cls-3" points="57.84 64 49.84 64 43.84 56 63.84 56 57.84 64"/><polygon class="cls-1" points="63.84 56 57.84 64 49.84 64 43.84 56 49.84 61 57.84 61 63.84 56"/><path class="cls-3" d="M50,70c-10.08,0-8.84,0-9.35.1L18,78H50Z"/><polygon class="cls-1" points="50 75 50 78 19 78 27.6 75 50 75"/><circle class="cls-2" cx="18" cy="78" r="2"/></g></svg>