<svg xmlns="http://www.w3.org/2000/svg" viewBox="0 0 128 128"><defs><style>.cls-1{fill:#d7dbe2;}.cls-2{fill:#7aa8d7;}.cls-3{fill:#5b8dc9;}.cls-4{fill:#fff;}.cls-5{fill:#fbcc88;}.cls-6{fill:#f6b756;}.cls-7{fill:#464f6b;}.cls-8{fill:#3d465e;}.cls-9{fill:#adb3c4;}.cls-10{fill:#949aaf;}.cls-11{fill:#d7f1ff;}.cls-12{fill:#c3e1f5;}.cls-13{fill:#8288a1;}</style></defs><title>Parking Car </title><g id="Parking_Car" data-name="Parking Car"><path class="cls-1" d="M16,103V34a1,1,0,0,1,2,0v69A1,1,0,0,1,16,103Z"/><rect class="cls-2" x="1" y="1" width="33" height="33" rx="2"/><path class="cls-3" d="M34,28v4a2,2,0,0,1-2,2H3a2,2,0,0,1-2-2V28a2,2,0,0,0,2,2H32A2,2,0,0,0,34,28Z"/><path class="cls-4" d="M19,8H13a1,1,0,0,0-1,1V25a1,1,0,0,0,2,0V18h5a3,3,0,0,0,3-3V11A3,3,0,0,0,19,8Zm1,7a1,1,0,0,1-1,1H14V10h5a1,1,0,0,1,1,1Z"/><path class="cls-2" d="M127,92.79v16.53a4.06,4.06,0,0,1-3.61,4c-19.68,2.2-4.81,1.65-76,1.65l-14.76-1.65a4.06,4.06,0,0,1-3.61-4V92.79a15,15,0,0,1,4-10.15l6.21-6.7A104.29,104.29,0,0,0,59.83,78c37.38,0,43.52.61,56.64-2,.51-.09-.42-.86,6.53,6.64A15,15,0,0,1,127,92.79Z"/><path class="cls-3" d="M127,105.32v4a4.06,4.06,0,0,1-3.61,4c-19.68,2.2-4.81,1.65-76,1.65l-14.76-1.65a4.06,4.06,0,0,1-3.61-4v-4a4.06,4.06,0,0,0,3.61,4c19.68,2.2,4.82,1.65,76,1.65l14.77-1.65A4.06,4.06,0,0,0,127,105.32Z"/><path class="cls-2" d="M117,76c-2.18,0-8.29,2-20.83,2-37.38,0-43.52.61-56.64-2-.37-.07-.28-.1-.38,0S38.29,77.49,48,57.08A12.31,12.31,0,0,1,59.15,50H96.68a12.3,12.3,0,0,1,11.16,7.08Z"/><path class="cls-2" d="M39.53,76c-.44,0-.42,0-.32-.06Z"/><path class="cls-2" d="M116.85,76c-.29,0-.63,0-.06-.06Z"/><circle class="cls-5" cx="46" cy="99" r="6"/><circle class="cls-5" cx="111" cy="99" r="6"/><path class="cls-6" d="M46,105a6,6,0,0,1-5.8-7.5,6,6,0,0,0,11.61,0A6,6,0,0,1,46,105Z"/><path class="cls-6" d="M111,105a6,6,0,0,1-5.8-7.5,6,6,0,0,0,11.61,0A6,6,0,0,1,111,105Z"/><path class="cls-7" d="M50,115v7.94A4.08,4.08,0,0,1,45.94,127H38.06A4.08,4.08,0,0,1,34,122.94v-9.43Z"/><path class="cls-7" d="M123,113.39v9.55a4.08,4.08,0,0,1-4.06,4.06h-7.88a4.08,4.08,0,0,1-4.06-4.06V115Z"/><path class="cls-8" d="M50,119.94v3A4.08,4.08,0,0,1,45.94,127H38.06A4.08,4.08,0,0,1,34,122.94v-3A4.08,4.08,0,0,0,38.06,124h7.88A4.08,4.08,0,0,0,50,119.94Z"/><path class="cls-8" d="M123,119.94v3a4.08,4.08,0,0,1-4.06,4.06h-7.88a4.08,4.08,0,0,1-4.06-4.06v-3a4.08,4.08,0,0,0,4.06,4.06h7.88A4.08,4.08,0,0,0,123,119.94Z"/><polygon class="cls-9" points="94.23 107 62.23 107 66.23 97 90.23 97 94.23 107"/><polygon class="cls-10" points="94.23 107 62.23 107 63.43 104 93.03 104 94.23 107"/><path class="cls-11" d="M117,76c-1.74,0-8.63,2-20.83,2-37.38,0-43.52.61-56.64-2H39l7.83-16.48A12.72,12.72,0,0,1,52.92,58c55.85,0,50.87-.52,56,1.41C109,59.43,108.56,58.57,117,76Z"/><path class="cls-12" d="M117,76c-1.74,0-8.63,2-20.83,2-37.38,0-43.52.61-56.64-2H39l1.35-2.85C53,75.57,58.78,75,96.17,75a103.18,103.18,0,0,0,19.45-1.84Z"/><path class="cls-2" d="M29,68h7.5A2.5,2.5,0,0,1,39,70.5v3A2.5,2.5,0,0,1,36.5,76h-5A2.5,2.5,0,0,1,29,73.5V68a0,0,0,0,1,0,0Z" transform="translate(68 144) rotate(180)"/><path class="cls-2" d="M119.5,68h5a2.5,2.5,0,0,1,2.5,2.5v3a2.5,2.5,0,0,1-2.5,2.5H117a0,0,0,0,1,0,0V70.5A2.5,2.5,0,0,1,119.5,68Z"/><path class="cls-3" d="M39,73v3H31.5A2.5,2.5,0,0,1,29,73.5v-3A2.5,2.5,0,0,0,31.5,73Z"/><path class="cls-3" d="M127,70.5v3a2.5,2.5,0,0,1-2.5,2.5H117V73h7.5A2.5,2.5,0,0,0,127,70.5Z"/><rect class="cls-10" x="13" y="103" width="8" height="24"/><rect class="cls-13" x="13" y="123" width="8" height="4"/></g></svg>