<svg xmlns="http://www.w3.org/2000/svg" viewBox="0 0 128 128"><defs><style>.cls-1{fill:#949aaf;}.cls-2{fill:#f3f4f5;}.cls-3{fill:#c7cdd8;}.cls-4{fill:#8288a1;}.cls-5{fill:#7aa8d7;}.cls-6{fill:#5b8dc9;}.cls-7{fill:#fff;}.cls-8{fill:#3d465e;}.cls-9{fill:#f6b756;}</style></defs><title>Parking Meter</title><g id="Parking_Meter" data-name="Parking Meter"><path class="cls-1" d="M86,51.38C103.65,32.38,90.22,1,64,1S24.36,32.39,42,51.38Z"/><path class="cls-2" d="M42,31a22,22,0,0,1,44,0Z"/><rect class="cls-3" x="42" y="28" width="44" height="3"/><path class="cls-4" d="M86,51.38H42a29.79,29.79,0,0,1-7.91-22.59A19.69,19.69,0,0,0,53.84,47H74.16A19.69,19.69,0,0,0,93.89,29,29.44,29.44,0,0,1,86,51.38Z"/><polygon class="cls-5" points="42 31 42 65.63 50.18 86 77.82 86 86 65.63 86 31 42 31"/><path class="cls-6" d="M77.82,86H50.18c-10.6-26.39-11.26-26.9,0-3H77.82C89.08,59.1,88.42,59.61,77.82,86Z"/><rect class="cls-1" x="60" y="94" width="8" height="33"/><rect class="cls-4" x="60" y="124" width="8" height="3"/><path class="cls-1" d="M54,86H74a0,0,0,0,1,0,0v4a4,4,0,0,1-4,4H58a4,4,0,0,1-4-4V86A0,0,0,0,1,54,86Z"/><path class="cls-4" d="M74,87v3a4,4,0,0,1-4,4H58a4,4,0,0,1-4-4V87a4,4,0,0,0,4,4H70A4,4,0,0,0,74,87Z"/><path class="cls-7" d="M64,59H60a1,1,0,0,0-1,1V76a1,1,0,0,0,2,0V69h3a5,5,0,0,0,0-10Zm0,8H61V61h3a3,3,0,0,1,0,6Z"/><path class="cls-8" d="M76,47H64a1,1,0,0,1,0-2H76A1,1,0,0,1,76,47Z"/><path class="cls-8" d="M53,50V44a1,1,0,0,1,2,0v6A1,1,0,0,1,53,50Z"/><path class="cls-9" d="M63,27V19a1,1,0,0,1,2,0v8A1,1,0,0,1,63,27Z"/><path class="cls-1" d="M60,31a4,4,0,0,1,8,0Z"/></g></svg>