<svg xmlns="http://www.w3.org/2000/svg" viewBox="0 0 128 128"><defs><style>.cls-1{fill:#7aa8d7;}.cls-2{fill:#5b8dc9;}.cls-3{fill:#464f6b;}.cls-4{fill:#3d465e;}.cls-5{fill:#d7dbe2;}.cls-6{fill:#c6ccda;}.cls-7{fill:#d7f1ff;}.cls-8{fill:#c3e1f5;}.cls-9{fill:#adb3c4;}.cls-10{fill:#e2607f;}.cls-11{fill:#dd4e6a;}.cls-12{fill:#f6b756;}</style></defs><title>Pickup</title><g id="Pickup"><path class="cls-1" d="M127,78C-3.81,78,17.8,78.72,1,76.19V55c56.44,0,50.78.21,50.87-.48l1.46-10.83a4.16,4.16,0,0,1,4-3.69H78.09A4.12,4.12,0,0,1,81,41.21L96.21,56.42l25.62,1.83a4.12,4.12,0,0,1,3.73,3.28C127.37,70.67,127,66.78,127,78Z"/><path class="cls-2" d="M127,75v3C-3.81,78,17.8,78.72,1,76.19v-3C17.83,75.73-3.76,75,127,75Z"/><circle class="cls-3" cx="23" cy="78" r="10"/><circle class="cls-3" cx="109" cy="78" r="10"/><circle class="cls-3" cx="23" cy="78" r="10"/><path class="cls-4" d="M23,88a10,10,0,0,1-9.88-11.48,10,10,0,0,0,19.76,0A10,10,0,0,1,23,88Z"/><path class="cls-4" d="M109,88a10,10,0,0,1-9.88-11.48,10,10,0,0,0,19.76,0A10,10,0,0,1,109,88Z"/><circle class="cls-3" cx="109" cy="78" r="10"/><circle class="cls-5" cx="23" cy="78" r="4"/><circle class="cls-5" cx="109" cy="78" r="4"/><path class="cls-6" d="M26.87,79a4,4,0,0,0-7.74,0,4,4,0,1,1,7.74,0Z"/><path class="cls-6" d="M112.87,79a4,4,0,0,0-7.74,0,4,4,0,1,1,7.74,0Z"/><path class="cls-2" d="M52,78H50V55h1.81l.06-.48C52.06,54.81,52,53.27,52,78Z"/><polygon class="cls-7" points="88.42 59 62 59 62 42 81.79 42 96.21 56.42 88.42 59"/><polygon class="cls-8" points="96.21 56.42 88.42 59 62 59 62 57 88.42 57 94.71 54.92 96.21 56.42"/><path class="cls-9" d="M68,68H64a1,1,0,0,1,0-2h4A1,1,0,0,1,68,68Z"/><rect class="cls-10" x="1" y="61" width="4" height="6"/><rect class="cls-11" x="1" y="64" width="4" height="3"/><path class="cls-12" d="M127,68.74c0,.37,1,.26-7,.26V64h6C126.23,64.86,126,63.86,127,68.74Z"/></g></svg>