<svg xmlns="http://www.w3.org/2000/svg" viewBox="0 0 128 128"><defs><style>.cls-1{fill:#949aaf;}.cls-2{fill:#f3f4f5;}.cls-3{fill:#d4d8e1;}.cls-4{fill:#7aa8d7;}.cls-5{fill:#5b8dc9;}.cls-6{fill:#d7f1ff;}.cls-7{fill:#adb3c4;}</style></defs><title>Plane</title><g id="Plane"><path class="cls-1" d="M73.94,79A4.08,4.08,0,0,1,78,83.06v1.88A4.08,4.08,0,0,1,73.94,89H68L54,85V82C74.69,78.55,71.24,79,73.94,79Z"/><path class="cls-2" d="M122.79,77.6a4.88,4.88,0,0,0,.31-9.6c-4.83-1.3-9.79-9-22.75-9H30.23L5.46,60.75a3.7,3.7,0,0,0-1,7.15L33.25,79C109.81,79,110,79.43,122.79,77.6Z"/><path class="cls-3" d="M127,73c-.32,7.18-6.82,6-93.75,6C1.94,67,3.56,67.85,2.66,66.54a3.65,3.65,0,0,1-.34-3.6,3.69,3.69,0,0,0,2.1,2L33.25,76c89.25,0,91.71.55,93.5-4.66A4.38,4.38,0,0,1,127,73Z"/><polygon class="cls-4" points="6.42 60.68 1 39 9.13 39 26.05 59.3 6.42 60.68"/><polygon class="cls-5" points="26.05 59.3 6.42 60.68 5.67 57.66 23.63 56.4 26.05 59.3"/><path class="cls-6" d="M91,69V67a1,1,0,0,1,2,0v2A1,1,0,0,1,91,69Z"/><path class="cls-6" d="M85,69V67a1,1,0,0,1,2,0v2A1,1,0,0,1,85,69Z"/><path class="cls-6" d="M79,69V67a1,1,0,0,1,2,0v2A1,1,0,0,1,79,69Z"/><path class="cls-6" d="M73,69V67a1,1,0,0,1,2,0v2A1,1,0,0,1,73,69Z"/><path class="cls-6" d="M67,69V67a1,1,0,0,1,2,0v2A1,1,0,0,1,67,69Z"/><path class="cls-6" d="M61,69V67a1,1,0,0,1,2,0v2A1,1,0,0,1,61,69Z"/><path class="cls-6" d="M55,69V67a1,1,0,0,1,2,0v2A1,1,0,0,1,55,69Z"/><path class="cls-6" d="M49,69V67a1,1,0,0,1,2,0v2A1,1,0,0,1,49,69Z"/><path class="cls-6" d="M43,69V67a1,1,0,0,1,2,0v2A1,1,0,0,1,43,69Z"/><polygon class="cls-6" points="116.43 64 105.79 64 109.79 68 123.1 68 116.43 64"/><path class="cls-7" d="M69,82H36a3,3,0,0,1,0-6H69a3,3,0,0,1,0,6Z"/></g></svg>