<svg xmlns="http://www.w3.org/2000/svg" viewBox="0 0 128 128"><defs><style>.cls-1{fill:#e2607f;}.cls-2{fill:#edf0f4;}.cls-3{fill:#949aaf;}.cls-4{fill:#8288a1;}.cls-5{fill:#464f6b;}.cls-6{fill:#3d465e;}.cls-7{fill:#d7f1ff;}.cls-8{fill:#c3e1f5;}.cls-9{fill:#dd4e6a;}.cls-10{fill:#d7dbe2;}.cls-11{fill:#c6ccda;}.cls-12{fill:#fbcc88;}.cls-13{fill:#f6b756;}.cls-14{fill:#adb3c4;}.cls-15{fill:#7aa8d7;}.cls-16{fill:#5b8dc9;}</style></defs><title>Police</title><g id="Police"><path class="cls-1" d="M72,49H52c4.61-9.22,2.71-8,13.49-8a4.06,4.06,0,0,1,3.63,2.25C70.75,46.55,70.08,45.22,72,49Z"/><path class="cls-2" d="M127,74.85V91C-1.82,91,20.42,91.41,1,90V69a4.07,4.07,0,0,1,3.56-4l12.7-1.6,14-12.3a8.14,8.14,0,0,1,5.38-2H75.12a8.14,8.14,0,0,1,5.42,2.07L97,65l26.74,5.87A4.06,4.06,0,0,1,127,74.85Z"/><path class="cls-3" d="M127,77V91C-1.82,91,20.42,91.41,1,90V77Z"/><path class="cls-4" d="M127,87v4C-1.82,91,20.42,91.41,1,90V86C21,87.45-1.26,87,127,87Z"/><circle class="cls-5" cx="25" cy="91" r="10"/><circle class="cls-5" cx="107" cy="91" r="10"/><path class="cls-6" d="M25,101a10,10,0,0,1-9.88-11.48,10,10,0,0,0,19.76,0A10,10,0,0,1,25,101Z"/><path class="cls-6" d="M107,101a10,10,0,0,1-9.88-11.48,10,10,0,0,0,19.76,0A10,10,0,0,1,107,101Z"/><path class="cls-7" d="M97,65H35.55l-4.07-4.06L39.41,51c42.89,0,41,0,41.13.07Z"/><path class="cls-8" d="M97,65H35.55l-4.07-4.06c5.75,1.5-4.28,1.06,62,1.06Z"/><path class="cls-2" d="M65,49V65a1,1,0,0,1-2,0V49Z"/><path class="cls-2" d="M47,49c0,.16.32-1-4.39,16.28a1,1,0,0,1-1.93-.53L45,49Z"/><rect class="cls-1" x="1" y="73" width="6" height="8"/><rect class="cls-9" x="1" y="78" width="6" height="3"/><circle class="cls-10" cx="25" cy="91" r="4"/><circle class="cls-10" cx="107" cy="91" r="4"/><path class="cls-11" d="M28.87,92a4,4,0,0,0-7.74,0,4,4,0,1,1,7.74,0Z"/><path class="cls-11" d="M110.87,92a4,4,0,0,0-7.74,0,4,4,0,1,1,7.74,0Z"/><path class="cls-12" d="M123,77h4a0,0,0,0,1,0,0v6a0,0,0,0,1,0,0h-4a2,2,0,0,1-2-2V79A2,2,0,0,1,123,77Z"/><path class="cls-13" d="M127,81v2h-4a2,2,0,0,1-2-2V79a2,2,0,0,0,2,2Z"/><path class="cls-12" d="M61,32V28a1,1,0,0,1,2,0v4A1,1,0,0,1,61,32Z"/><path class="cls-12" d="M72,37.63a1,1,0,0,1-.71-1.7l2.87-2.88a1,1,0,0,1,1.42,1.42C72.5,37.57,72.58,37.63,72,37.63Z"/><path class="cls-12" d="M51.91,37.63c-.55,0-.45,0-3.58-3.16a1,1,0,0,1,1.41-1.42l2.88,2.88A1,1,0,0,1,51.91,37.63Z"/><path class="cls-14" d="M72,74H68a1,1,0,0,1,0-2h4A1,1,0,0,1,72,74Z"/><path class="cls-15" d="M72,49H62V41h3.46a4.06,4.06,0,0,1,3.63,2.25C70.75,46.55,70.08,45.22,72,49Z"/><polygon class="cls-9" points="62 46 62 49 51.97 49 53.47 46 62 46"/><polygon class="cls-16" points="71.97 49 62 49 62 46 70.47 46 71.97 49"/></g></svg>