<svg xmlns="http://www.w3.org/2000/svg" viewBox="0 0 128 128"><defs><style>.cls-1{fill:#949aaf;}.cls-2{fill:#8288a1;}.cls-3{fill:#464f6b;}.cls-4{fill:#3d465e;}.cls-5{fill:#edf0f4;}</style></defs><title>Road</title><g id="Road"><polygon class="cls-1" points="1 127 29.45 1 98.55 1 127 127 1 127"/><polygon class="cls-2" points="127 127 1 127 1.9 123 126.1 123 127 127"/><path class="cls-3" d="M112.77,127H15.23c1.11-6.34,21.17-121.14,22-126h53.5C91.61,5.93,111.66,120.67,112.77,127Z"/><polygon class="cls-4" points="112.77 127 15.23 127 15.93 123 112.07 123 112.77 127"/><polygon class="cls-5" points="67.66 15.23 60.34 15.23 60.65 1 67.35 1 67.66 15.23"/><polygon class="cls-5" points="69.34 92.45 58.66 92.45 59.41 57.9 68.59 57.9 69.34 92.45"/><polygon class="cls-5" points="70.1 127 57.9 127 58.35 106.68 69.65 106.68 70.1 127"/><polygon class="cls-5" points="68.37 47.74 59.63 47.74 60.16 23.35 67.84 23.35 68.37 47.74"/></g></svg>