<svg xmlns="http://www.w3.org/2000/svg" viewBox="0 0 128 128"><defs><style>.cls-1{fill:#949aaf;}.cls-2{fill:#fbcc88;}.cls-3{fill:#f6b756;}.cls-4{fill:#3d465e;}.cls-5{fill:#e2607f;}.cls-6{fill:#dd4e6a;}.cls-7{fill:#7aa8d7;}.cls-8{fill:#f3f4f5;}.cls-9{fill:#5b8dc9;}.cls-10{fill:#d4d8e1;}</style></defs><title>Route</title><g id="Route"><path class="cls-1" d="M72,89H66a1,1,0,0,1,0-2h6a15,15,0,0,0,0-30H31a1,1,0,0,1,0-2H72a17,17,0,0,1,0,34Z"/><path class="cls-2" d="M25.33,50.26c10.1,2.61,7,11.71-4,11.71s-14.11-9.1-4-11.71"/><ellipse class="cls-2" cx="116.84" cy="120.9" rx="10.16" ry="6.1"/><ellipse class="cls-2" cx="56" cy="88" rx="10" ry="6"/><ellipse class="cls-2" cx="34" cy="121" rx="10" ry="6"/><path class="cls-3" d="M21.32,62C14.84,62,9.25,58,11.73,53.88c3.15,5.44,16,5.44,19.18,0C33.39,58,27.85,62,21.32,62Z"/><path class="cls-3" d="M116.84,127c-6.84,0-12-4.08-9.59-8.1,3.13,5.45,16,5.45,19.18,0C128.92,123.14,123.31,127,116.84,127Z"/><path class="cls-3" d="M66,88c0,3.31-4.48,6-10,6-6.06,0-12-3.67-9.43-8,3.12,5.31,15.72,5.33,18.86,0A3.91,3.91,0,0,1,66,88Z"/><path class="cls-3" d="M44,121c0,3.31-4.48,6-10,6-6.06,0-12-3.67-9.43-8,3.12,5.31,15.72,5.33,18.86,0A3.91,3.91,0,0,1,44,121Z"/><path class="cls-4" d="M115.84,118.87V80.26a1,1,0,0,1,2,0v38.61A1,1,0,0,1,115.84,118.87Z"/><rect class="cls-5" x="98.55" y="80.26" width="17.45" height="14.23"/><rect class="cls-6" x="98.55" y="91" width="17.45" height="3.48"/><path class="cls-1" d="M24,122c-6.51,0-12.14.59-17.88-5.12C-4.81,105.91,2.89,87,18.5,87H46a1,1,0,0,1,0,2H18.5c-13.83,0-20.65,16.75-11,26.46C12.83,120.74,18.48,120,24,120A1,1,0,0,1,24,122Z"/><path class="cls-1" d="M106.68,122H44a1,1,0,0,1,0-2h62.68A1,1,0,0,1,106.68,122Z"/><path class="cls-7" d="M41.65,21.32c0,16.26-20.33,32.52-20.33,32.52S1,37.58,1,21.32a20.33,20.33,0,0,1,40.65,0Z"/><circle class="cls-8" cx="21.32" cy="21.32" r="8.13"/><path class="cls-9" d="M21.32,53.84c-9.45-7.57-21.86-22.37-20.16-35C2.35,28.54,10.07,38,15.61,43.57a8,8,0,0,0,11.43,0c5.54-5.63,13.28-15,14.45-24.78C43.2,31.52,30.58,46.43,21.32,53.84Z"/><path class="cls-10" d="M29.31,22.82a8.13,8.13,0,0,0-16,0,8.13,8.13,0,1,1,16,0Z"/></g></svg>