<svg xmlns="http://www.w3.org/2000/svg" viewBox="0 0 128 128"><defs><style>.cls-1{fill:#e2607f;}.cls-2{fill:#dd4e6a;}.cls-3{fill:#edf0f4;}.cls-4{fill:#d4d8e1;}.cls-5{fill:#3d465e;}.cls-6{fill:#9b756d;}.cls-7{fill:#8a6762;}.cls-8{fill:#e8c4a6;}.cls-9{fill:#d1a788;}.cls-10{fill:#d7f1ff;}.cls-11{fill:#cba07a;}</style></defs><title>Sailboat</title><g id="Sailboat"><polygon class="cls-1" points="60 13.19 35.61 5.07 60 1 60 13.19"/><polygon class="cls-2" points="60 9 60 13.19 35.61 5.06 60 9"/><path class="cls-3" d="M60,8.81V84h54.87C103,49.5,85.69,24.39,60,8.81Z"/><path class="cls-3" d="M60,23V84H25.45A192.06,192.06,0,0,0,60,23Z"/><path class="cls-4" d="M114.87,84H60V80h53.45C113.93,81.32,114.4,82.65,114.87,84Z"/><path class="cls-4" d="M60,80v4H25.45c1.09-1.27,2.19-2.61,3.31-4Z"/><path class="cls-5" d="M115,85H25a1,1,0,0,1,0-2h90A1,1,0,0,1,115,85Z"/><path class="cls-5" d="M59,92V1a1,1,0,0,1,2,0V92A1,1,0,0,1,59,92Z"/><path class="cls-6" d="M99,106l-74,3V92H86Z"/><path class="cls-7" d="M69,92v15a1,1,0,0,1-2,0V92Z"/><polygon class="cls-7" points="99 106 25 109 25 105.02 94.88 101.58 99 106"/><path class="cls-8" d="M127,103c-6.1,12-30.48,24-44.71,24H11.16l-2-8H1c2-5,1.13-2.8,4.06-10Z"/><path class="cls-9" d="M127,103c-6.1,12-30.48,24-44.71,24H11.16l-2-8H1l1.62-4H9.13c1.22,4.8.76,3,2,8H82.29C94.88,123,118.2,113.47,127,103Z"/><circle class="cls-10" cx="34" cy="101" r="2"/><circle class="cls-10" cx="42" cy="101" r="2"/><circle class="cls-10" cx="50" cy="101" r="2"/><path class="cls-6" d="M25,94H21a1,1,0,0,1,0-2h4A1,1,0,0,1,25,94Z"/><path class="cls-11" d="M84,119H1l.81-2H84A1,1,0,0,1,84,119Z"/></g></svg>