<svg xmlns="http://www.w3.org/2000/svg" viewBox="0 0 128 128"><defs><style>.cls-1{fill:#fbcc88;}.cls-2{fill:#f6b756;}.cls-3{fill:#464f6b;}.cls-4{fill:#3d465e;}.cls-5{fill:#949aaf;}.cls-6{fill:#8288a1;}.cls-7{fill:#adb3c4;}.cls-8{fill:#d7f1ff;}.cls-9{fill:#edf0f4;}.cls-10{fill:#e2607f;}.cls-11{fill:#dd4e6a;}.cls-12{fill:#c3e1f5;}</style></defs><title>School Bus</title><g id="School_Bus" data-name="School Bus"><path class="cls-1" d="M127,84V69.33a6.09,6.09,0,0,0-4.91-6L107,60c-1.74-16.81-1.27-12-2-20.3a4.07,4.07,0,0,0-4-3.7H5.06A4.06,4.06,0,0,0,1,40.06V84Z"/><rect class="cls-2" x="1" y="81" width="126" height="3"/><circle class="cls-3" cx="19" cy="84" r="8"/><circle class="cls-3" cx="111" cy="84" r="8"/><path class="cls-4" d="M19,92a8,8,0,0,1-7.86-9.5,8,8,0,0,0,15.72,0A8,8,0,0,1,19,92Z"/><path class="cls-4" d="M111,92a8,8,0,0,1-7.86-9.5,8,8,0,0,0,15.72,0A8,8,0,0,1,111,92Z"/><circle class="cls-5" cx="19" cy="84" r="3"/><circle class="cls-5" cx="111" cy="84" r="3"/><path class="cls-6" d="M21.82,85a3,3,0,0,0-5.64,0,3,3,0,1,1,5.64,0Z"/><path class="cls-6" d="M113.82,85a3,3,0,0,0-5.64,0,3,3,0,1,1,5.64,0Z"/><rect class="cls-7" x="78" y="46" width="18" height="38"/><rect class="cls-5" x="78" y="80" width="18" height="4"/><path class="cls-8" d="M107,60h-7V46c6.17,0,5.55,0,5.56.12C106.91,59.13,106.6,56.09,107,60Z"/><rect class="cls-8" x="9" y="46" width="61" height="14"/><path class="cls-1" d="M20,60V46a1,1,0,0,1,2,0V60A1,1,0,0,1,20,60Z"/><path class="cls-1" d="M33,60V46a1,1,0,0,1,2,0V60A1,1,0,0,1,33,60Z"/><path class="cls-1" d="M45,60V46a1,1,0,0,1,2,0V60A1,1,0,0,1,45,60Z"/><path class="cls-1" d="M57,60V46a1,1,0,0,1,2,0V60A1,1,0,0,1,57,60Z"/><path class="cls-2" d="M70,69H15a1,1,0,0,1,0-2H70A1,1,0,0,1,70,69Z"/><path class="cls-9" d="M124,70h3a0,0,0,0,1,0,0v4a0,0,0,0,1,0,0h-3a1,1,0,0,1-1-1V71A1,1,0,0,1,124,70Z"/><rect class="cls-10" x="1" y="68" width="6" height="8"/><rect class="cls-11" x="1" y="73" width="6" height="3"/><polygon class="cls-12" points="107 60 100 60 100 57 106.69 57 107 60"/></g></svg>