<svg xmlns="http://www.w3.org/2000/svg" viewBox="0 0 128 128"><defs><style>.cls-1{fill:#e2607f;}.cls-2{fill:#dd4e6a;}.cls-3{fill:#7aa8d7;}.cls-4{fill:#5b8dc9;}.cls-5{fill:#464f6b;}.cls-6{fill:#9b756d;}.cls-7{fill:#8a6762;}.cls-8{fill:#697084;}.cls-9{fill:#8288a1;}.cls-10{fill:#3d465e;}.cls-11{fill:#949aaf;}</style></defs><title>Scooter</title><g id="Scooter"><polygon class="cls-1" points="8 73 1 73 1 67 5 63 16 63 8 73"/><polygon class="cls-2" points="10.4 70 8 73 1 73 1 70 10.4 70"/><path class="cls-3" d="M102.33,70.38,93.69,84.94A23,23,0,0,1,80.26,89H1A47.47,47.47,0,0,1,4.6,76.56,37.92,37.92,0,0,1,17,61V55H59S49,61,49,69s6.9,12,12,12H74.11s14.31,0,16.35-12.26C92,59.31,88.72,42.09,86.37,33h6.08C99.76,44,103.74,61,102.33,70.38Z"/><path class="cls-4" d="M43.72,89H1A47.47,47.47,0,0,1,4.6,76.56c4.38-6,12-11.91,24.85-11.91C42.93,64.65,46.75,76.11,43.72,89Z"/><path class="cls-3" d="M41.65,89H1S5.06,66.65,29.45,66.65C47.74,66.65,41.65,89,41.65,89Z"/><path class="cls-4" d="M102.61,66.52a27,27,0,0,1-.28,3.86L93.69,84.94A23,23,0,0,1,80.26,89H1a29.19,29.19,0,0,1,.51-3H80.26a23,23,0,0,0,13.43-4.06l8.64-14.56C102.64,65.21,102.61,63.18,102.61,66.52Z"/><circle class="cls-5" cx="111" cy="89" r="14"/><path class="cls-5" d="M8,88.65a14,14,0,0,0,28,.17Z"/><path class="cls-4" d="M102.53,68.55c-.19,2.4.69.32-8.84,16.39a19.6,19.6,0,0,1-3.21,1.86C91.74,76.89,96.62,71.05,102.53,68.55Z"/><path class="cls-3" d="M92.73,85c5.13,0,8.63.52,12.75-3a11.33,11.33,0,0,1,7.25-3h14a17.23,17.23,0,0,0-16-10C94.73,69,92.73,85,92.73,85Z"/><path class="cls-4" d="M126.73,79h-14a11.33,11.33,0,0,0-7.25,3c-4.11,3.52-7.68,3-12.75,3a18,18,0,0,1,.72-3h4.16c7.37,0,8.57-6,15.12-6H125A15,15,0,0,1,126.73,79Z"/><path class="cls-6" d="M59,55H17a4,4,0,0,1-4-4V47a4,4,0,0,1,4-4c15.16,0,18.59-.28,25,1a51.86,51.86,0,0,0,10.1,1H57a6,6,0,0,1,6,6A4,4,0,0,1,59,55Z"/><path class="cls-7" d="M59,55H17a4,4,0,0,1-4-4V48a4,4,0,0,0,4,4H59a4,4,0,0,0,3.76-2.66C63.74,52.59,61.56,55,59,55Z"/><path class="cls-3" d="M82,29v2a2,2,0,0,0,2,2H98V21H86a4,4,0,0,0-4,4"/><path class="cls-8" d="M77,29h8a2,2,0,0,0,0-4H77A2,2,0,0,0,77,29Z"/><path class="cls-9" d="M16,89a6,6,0,0,0,12,0"/><path class="cls-10" d="M36,88.82a14,14,0,0,1-28-.17h.31a14,14,0,0,0,27.35.17Z"/><path class="cls-10" d="M110.93,103.27A14,14,0,0,1,97.09,87.78a14,14,0,0,0,27.84,0A14,14,0,0,1,110.93,103.27Z"/><circle class="cls-11" cx="111" cy="89" r="6"/><path class="cls-9" d="M116.81,90.5a6,6,0,0,0-11.61,0,6,6,0,1,1,11.61,0Z"/><path class="cls-4" d="M94.22,36H87.1c-.44-1.88-.73-3-.73-3h6.08S93.17,34.08,94.22,36Z"/></g></svg>