<svg xmlns="http://www.w3.org/2000/svg" viewBox="0 0 128 128"><defs><style>.cls-1{fill:#7aa8d7;}.cls-2{fill:#5b8dc9;}.cls-3{fill:#464f6b;}.cls-4{fill:#3d465e;}.cls-5{fill:#d7f1ff;}.cls-6{fill:#c3e1f5;}.cls-7{fill:#e2607f;}.cls-8{fill:#dd4e6a;}.cls-9{fill:#edf0f4;}.cls-10{fill:#d4d8e1;}.cls-11{fill:#c7cdd8;}.cls-12{fill:#f6b756;}</style></defs><title>Sedan</title><g id="Sedan"><path class="cls-1" d="M127,64.9V79H15L1,76V59a4.07,4.07,0,0,1,3.56-4l12.7-1.6L31.21,41a8.1,8.1,0,0,1,5.38-2H75.11a8.11,8.11,0,0,1,5.43,2.08C98.28,57,96.4,55.4,96.78,55.47l27,5.45A4.06,4.06,0,0,1,127,64.9Z"/><polygon class="cls-2" points="127 76 127 79 15 79 1 75.95 1 72.95 15 76 127 76"/><circle class="cls-3" cx="25" cy="79" r="10"/><circle class="cls-3" cx="107" cy="79" r="10"/><path class="cls-4" d="M25,89a10,10,0,0,1-9.95-11A10,10,0,0,0,35,78,10,10,0,0,1,25,89Z"/><path class="cls-4" d="M107,89a10,10,0,0,1-10-11A10,10,0,0,0,117,78,10,10,0,0,1,107,89Z"/><path class="cls-5" d="M33.52,56l-2-4.06C39.64,40.85,39.18,41,40.54,41c40.8,0,39.82,0,39.92,0L96.52,55.42C92.92,56.25,100.81,56,33.52,56Z"/><path class="cls-6" d="M33.52,56l-2-4.06,1.19-1.62L34.52,54H94.94C97.82,56.59,104.23,56,33.52,56Z"/><rect class="cls-1" x="63" y="39" width="2" height="17"/><polygon class="cls-1" points="47.63 39 41.99 56 39.88 56 45.53 39 47.63 39"/><rect class="cls-7" x="1" y="62" width="6" height="8"/><rect class="cls-8" x="1" y="67" width="6" height="3"/><circle class="cls-9" cx="25" cy="79" r="5"/><circle class="cls-9" cx="107" cy="79" r="5"/><path class="cls-10" d="M107,74a5,5,0,0,1,4.9,6,5,5,0,0,0-9.8,0A5,5,0,0,1,107,74Z"/><path class="cls-10" d="M25,74a5,5,0,0,1,4.9,6,5,5,0,0,0-9.8,0A5,5,0,0,1,25,74Z"/><path class="cls-11" d="M72,65H68a1,1,0,0,1,0-2h4A1,1,0,0,1,72,65Z"/><path class="cls-12" d="M127,72h-1.5a2.5,2.5,0,0,1,0-5H127Z"/></g></svg>