<svg xmlns="http://www.w3.org/2000/svg" viewBox="0 0 128 128"><defs><style>.cls-1{fill:#464f6b;}.cls-2{fill:#949aaf;}.cls-3{fill:#7aa8d7;}.cls-4{fill:#5b8dc9;}.cls-5{fill:#8288a1;}.cls-6{fill:#3d465e;}.cls-7{fill:#d4d8e1;}.cls-8{fill:#c7cdd8;}</style></defs><title>Segway</title><g id="Segway"><path class="cls-1" d="M70.1,69.06a1,1,0,0,1-.94-1.35C95.07-1.37,93.41,2,94.48,2h8.13a1,1,0,0,1,0,2H95.18C69.55,72.38,71.18,69.06,70.1,69.06Z"/><path class="cls-2" d="M56.9,72.13v-2A5.1,5.1,0,0,0,51.81,65H35.55a5.11,5.11,0,0,0-5.1,5.1v2a1,1,0,0,1-2,0v-2a7.11,7.11,0,0,1,7.1-7.1H51.81a7.1,7.1,0,0,1,7.09,7.1v2A1,1,0,0,1,56.9,72.13Z"/><path class="cls-3" d="M66,72.13V85l-33.43.28-11.28-5V72.13Z"/><polygon class="cls-4" points="66.03 82 66.03 85 32.6 85.28 21.32 80.26 21.32 77.26 32.6 82.28 66.03 82"/><path class="cls-2" d="M74.16,68.06v34.55A24.33,24.33,0,0,0,66,84.42V68.06Z"/><circle class="cls-2" cx="104.65" cy="3.03" r="2.03"/><path class="cls-5" d="M74.16,90.16v12.45A24.33,24.33,0,0,0,66,84.42V80.55A27.36,27.36,0,0,1,74.16,90.16Z"/><path class="cls-4" d="M66,80.55V85l-33.43.28L29.68,84A27.45,27.45,0,0,1,66,80.55Z"/><path class="cls-1" d="M74.16,102.61A24.39,24.39,0,1,1,49.77,78.23,24.38,24.38,0,0,1,74.16,102.61Z"/><path class="cls-6" d="M49.77,127a24.37,24.37,0,0,1-24.33-25.89,24.38,24.38,0,0,0,48.67,0C75.18,114.53,64.22,127,49.77,127Z"/><circle class="cls-7" cx="49.77" cy="102.61" r="10.16"/><path class="cls-8" d="M59.83,104.11a10.17,10.17,0,0,0-20.11,0,10.17,10.17,0,1,1,20.11,0Z"/></g></svg>