<svg xmlns="http://www.w3.org/2000/svg" viewBox="0 0 128 128"><defs><style>.cls-1{fill:#7aa8d7;}.cls-2{fill:#5b8dc9;}.cls-3{fill:#464f6b;}.cls-4{fill:#3d465e;}.cls-5{fill:#949aaf;}.cls-6{fill:#8288a1;}.cls-7{fill:#d7f1ff;}.cls-8{fill:#c3e1f5;}.cls-9{fill:#d7dbe2;}.cls-10{fill:#e2607f;}.cls-11{fill:#dd4e6a;}.cls-12{fill:#fbcc88;}.cls-13{fill:#f6b756;}</style></defs><title>Sport Coupe</title><g id="Sport_Coupe" data-name="Sport Coupe"><path class="cls-1" d="M127,66.68v5.26L120.9,76c-105.45,0-83.31-.06-109.74.19L1,74.16V44H6.85l3.68,6c6.27,0,1.41.88,25-5.44,2.76-.74,2-.56,26.05-.56,3,0,4.79.72,8.94,2,32.78,10.08,19,6.62,49.94,12.71A8.14,8.14,0,0,1,127,66.68Z"/><path class="cls-2" d="M127,68.94v3L120.9,76c-105.45,0-83.31-.06-109.74.19L1,74.16v-3l10.16,2C37.65,72.94,16.48,73,120.9,73Z"/><circle class="cls-3" cx="21" cy="74" r="10"/><circle class="cls-3" cx="103" cy="74" r="10"/><path class="cls-4" d="M21,84a10,10,0,0,1-9.95-11A10,10,0,0,0,31,73,10,10,0,0,1,21,84Z"/><path class="cls-4" d="M103,84a10,10,0,0,1-10-11A10,10,0,0,0,113,73,10,10,0,0,1,103,84Z"/><circle class="cls-5" cx="21" cy="74" r="6"/><circle class="cls-5" cx="103" cy="74" r="6"/><path class="cls-6" d="M26.91,75c-1.1-6.64-10.72-6.63-11.82,0a6,6,0,1,1,11.82,0Z"/><path class="cls-6" d="M108.91,75c-1.1-6.64-10.72-6.63-11.82,0a6,6,0,1,1,11.82,0Z"/><polygon class="cls-7" points="96.46 53.98 84.32 56 39.61 56 33.52 53.97 40.35 46 70.5 46 96.46 53.98"/><path class="cls-8" d="M96.46,54,84.32,56H39.61l-6.09-2,2-2.33L39.61,53c51.46,0,42.48.37,50.52-1Z"/><path class="cls-9" d="M46,63H42a1,1,0,0,1,0-2h4A1,1,0,0,1,46,63Z"/><path class="cls-10" d="M1,58H7.5A1.5,1.5,0,0,1,9,59.5v3A1.5,1.5,0,0,1,7.5,64H1a0,0,0,0,1,0,0V58A0,0,0,0,1,1,58Z"/><path class="cls-11" d="M9,60.5v2A1.5,1.5,0,0,1,7.5,64H1V62H7.5A1.5,1.5,0,0,0,9,60.5Z"/><path class="cls-12" d="M127,68h-6l-2-4h7.54A10.4,10.4,0,0,1,127,68Z"/><path class="cls-13" d="M127,66v2h-6l-2-4h1a3.62,3.62,0,0,0,3.24,2C127.14,66,126.9,65.93,127,66Z"/></g></svg>