<svg xmlns="http://www.w3.org/2000/svg" viewBox="0 0 128 128"><defs><style>.cls-1{fill:#e2607f;}.cls-2{fill:#dd4e6a;}.cls-3{fill:#edf0f4;}.cls-4{fill:#d4d8e1;}.cls-5{fill:#949aaf;}.cls-6{fill:#8288a1;}</style></defs><title>Stop Sign</title><g id="Stop_Sign" data-name="Stop Sign"><polygon class="cls-1" points="83.05 1 44.95 1 18 27.95 18 66.05 44.95 93 83.05 93 110 66.05 110 27.95 83.05 1"/><polygon class="cls-2" points="110 62.05 110 66.05 83.05 93 44.95 93 18 66.05 18 62.05 44.95 89 83.05 89 110 62.05"/><polygon class="cls-3" points="48.26 85 26 62.74 26 31.26 48.26 9 79.74 9 102 31.26 102 62.74 79.74 85 48.26 85"/><polygon class="cls-4" points="102 59.74 102 62.74 79.74 85 48.26 85 26 62.74 26 59.74 48.26 82 79.74 82 102 59.74"/><path class="cls-2" d="M46,39H41.65a5,5,0,0,0,0,10,3,3,0,1,1,0,6H38a1,1,0,0,0,0,2h3.65a5,5,0,1,0,0-10,3,3,0,0,1,0-6H46A1,1,0,0,0,46,39Z"/><path class="cls-2" d="M60,39H52a1,1,0,0,0,0,2h3V56a1,1,0,0,0,2,0V41h3A1,1,0,0,0,60,39Z"/><path class="cls-2" d="M70,39a5,5,0,0,0-5,5v8a5,5,0,0,0,10,0V44A5,5,0,0,0,70,39Zm3,13a3,3,0,0,1-6,0V44a3,3,0,0,1,6,0Z"/><path class="cls-2" d="M86,39H82a1,1,0,0,0-1,1V56a1,1,0,0,0,2,0V49h3a5,5,0,0,0,0-10Zm0,8H83V41h3a3,3,0,0,1,0,6Z"/><rect class="cls-5" x="58" y="93" width="12" height="34"/><rect class="cls-6" x="58" y="123" width="12" height="4"/></g></svg>