<svg xmlns="http://www.w3.org/2000/svg" viewBox="0 0 128 128"><defs><style>.cls-1{fill:#f3f4f5;}.cls-2{fill:#6ab891;}.cls-3{fill:#4da67f;}.cls-4{fill:#d7f1ff;}.cls-5{fill:#c3e1f5;}.cls-6{fill:#949aaf;}.cls-7{fill:#8288a1;}.cls-8{fill:#3d465e;}</style></defs><title>Subway Train</title><g id="Subway_Train" data-name="Subway Train"><path class="cls-1" d="M127,82H85l-2-2H65l-2,2H1V36H111.11a8.13,8.13,0,0,1,7.66,5.39C127.58,66.28,127,61.47,127,82Z"/><path class="cls-2" d="M127,77v5H85l-2-2H65l-2,2H1V72H115.06A16.88,16.88,0,0,1,127,77Z"/><polygon class="cls-3" points="127 79 127 82 85 82 83 80 65 80 63 82 1 82 1 79 63 79 65 77 83 77 85 79 127 79"/><path class="cls-4" d="M126.28,64h-7.4c-1.48-5-4.52-15.07-6-20h6.86C124.46,57.27,125.51,59.68,126.28,64Z"/><rect class="cls-4" x="45" y="44" width="28" height="28"/><rect class="cls-5" x="45" y="69" width="28" height="3"/><rect class="cls-1" x="58" y="44" width="2" height="28"/><rect class="cls-4" x="1" y="44" width="20" height="28"/><rect class="cls-5" x="1" y="69" width="20" height="3"/><rect class="cls-1" x="6" y="44" width="2" height="28"/><rect class="cls-4" x="73" y="44" width="12" height="14"/><rect class="cls-4" x="85" y="44" width="12" height="14"/><rect class="cls-4" x="21" y="44" width="12" height="14"/><rect class="cls-4" x="33" y="44" width="12" height="14"/><rect class="cls-5" x="21" y="55" width="12" height="3"/><rect class="cls-5" x="33" y="55" width="12" height="3"/><path class="cls-4" d="M109,58H97V44h8C108.72,57,107.88,54.09,109,58Z"/><circle class="cls-6" cx="68" cy="86" r="6"/><circle class="cls-6" cx="80" cy="86" r="6"/><path class="cls-7" d="M68,92a6,6,0,0,1-5.8-7.5,6,6,0,0,0,11.61,0A6,6,0,0,1,68,92Z"/><path class="cls-7" d="M80,92a6,6,0,0,1-5.8-7.5,6,6,0,0,0,11.61,0A6,6,0,0,1,80,92Z"/><path class="cls-8" d="M126,94H2a1,1,0,0,1,0-2H126A1,1,0,0,1,126,94Z"/><path class="cls-5" d="M126.28,64h-7.4l-.9-3h7.64Q126,62.49,126.28,64Z"/><polygon class="cls-5" points="109 58 73 58 73 55 108.14 55 109 58"/><rect class="cls-1" x="96" y="44" width="2" height="14"/><rect class="cls-1" x="84" y="44" width="2" height="14"/><rect class="cls-1" x="72" y="44" width="2" height="28"/><rect class="cls-1" x="44" y="44" width="2" height="28"/><rect class="cls-1" x="20" y="44" width="2" height="28"/><rect class="cls-1" x="32" y="44" width="2" height="14"/></g></svg>