<svg xmlns="http://www.w3.org/2000/svg" viewBox="0 0 128 128"><defs><style>.cls-1{fill:#d4d8e1;}.cls-2{fill:#949aaf;}.cls-3{fill:#8288a1;}.cls-4{fill:#575f7c;}.cls-5{fill:#3d465e;}.cls-6{fill:#c7cdd8;}.cls-7{fill:#d7f1ff;}.cls-8{fill:#c3e1f5;}.cls-9{fill:#e2607f;}.cls-10{fill:#dd4e6a;}.cls-11{fill:#fbcc88;}.cls-12{fill:#f6b756;}</style></defs><title>SUV</title><g id="SUV"><path class="cls-1" d="M67,41V39.69A2.7,2.7,0,0,0,64.31,37H26.69A2.7,2.7,0,0,0,24,39.69V41a1,1,0,0,1-2,0V39.69A4.7,4.7,0,0,1,26.69,35H64.31A4.7,4.7,0,0,1,69,39.69V41A1,1,0,0,1,67,41Z"/><path class="cls-2" d="M127,65.92v9L122.94,79H11.16L1,77V56.42l13.87-14A8.15,8.15,0,0,1,20.65,40H73.12a8.13,8.13,0,0,1,5.38,2l13.6,12c.51.45-2.48-.07,28.06,4A7.91,7.91,0,0,1,127,65.92Z"/><polygon class="cls-3" points="127 70.89 127 74.89 122.94 79 11.16 79 1 76.95 1 72.95 11.16 75 122.94 75 127 70.89"/><circle class="cls-4" cx="23" cy="79" r="12"/><circle class="cls-4" cx="105" cy="79" r="12"/><path class="cls-5" d="M23,91A12,12,0,0,1,11.1,77.5a12,12,0,0,0,23.8,0A12,12,0,0,1,23,91Z"/><path class="cls-5" d="M105,91A12,12,0,0,1,93.1,77.5a12,12,0,0,0,23.8,0A12,12,0,0,1,105,91Z"/><circle class="cls-1" cx="23" cy="79" r="4"/><circle class="cls-1" cx="105" cy="79" r="4"/><path class="cls-6" d="M26.87,80a4,4,0,0,0-7.74,0,4,4,0,1,1,7.74,0Z"/><path class="cls-6" d="M108.87,80a4,4,0,0,0-7.74,0,4,4,0,1,1,7.74,0Z"/><path class="cls-7" d="M92.1,54.06,86.35,57H19.29l-2-4.06L23.64,42H78.45C78.52,42,87.78,50.25,92.1,54.06Z"/><polygon class="cls-8" points="86.35 57 19.29 57 17.26 52.94 18.07 51.55 19.29 54 86.35 54 90.48 52.63 92.1 54.06 86.35 57"/><path class="cls-2" d="M37,57V41a1,1,0,0,1,2,0V57A1,1,0,0,1,37,57Z"/><path class="cls-2" d="M59,57V41a1,1,0,0,1,2,0V57A1,1,0,0,1,59,57Z"/><path class="cls-1" d="M68,64H64a1,1,0,0,1,0-2h4A1,1,0,0,1,68,64Z"/><rect class="cls-9" x="1" y="59" width="6" height="10"/><rect class="cls-10" x="1" y="66" width="6" height="3"/><path class="cls-11" d="M127,70h-4c-3.44,0-4.09-5-1-5h5Z"/><path class="cls-12" d="M127,68v2h-4a2.91,2.91,0,0,1-2.78-3.9A3,3,0,0,0,123,68Z"/></g></svg>