<svg xmlns="http://www.w3.org/2000/svg" viewBox="0 0 128 128"><defs><style>.cls-1{fill:#fbcc88;}.cls-2{fill:#f6b756;}.cls-3{fill:#464f6b;}.cls-4{fill:#3d465e;}.cls-5{fill:#d7f1ff;}.cls-6{fill:#c3e1f5;}.cls-7{fill:#e2607f;}.cls-8{fill:#dd4e6a;}.cls-9{fill:#949aaf;}.cls-10{fill:#8288a1;}.cls-11{fill:#c7cdd8;}.cls-12{fill:#f3f4f5;}.cls-13{fill:#fff2e3;}.cls-14{fill:#edf0f4;}</style></defs><title>Taxi</title><g id="Taxi"><path class="cls-1" d="M127,66.85V84C-1.65,84,20.51,84.81,1,82V61a4.07,4.07,0,0,1,3.56-4l12.7-1.6,14-12.3a8.14,8.14,0,0,1,5.38-2c41.61,0,39.68-.3,41.9.74,1.55.69,1,.43,16.49,14.26,1.81,1.62,1.38,1.35,2,1.48l26.74,5.39A4.06,4.06,0,0,1,127,66.85Z"/><path class="cls-2" d="M127,80v4C-1.65,84,20.51,84.81,1,82V78C20.86,80.86-1.31,80,127,80Z"/><circle class="cls-3" cx="25" cy="84" r="10"/><circle class="cls-3" cx="107" cy="84" r="10"/><path class="cls-4" d="M25,94a10,10,0,0,1-9.88-11.48,10,10,0,0,0,19.76,0A10,10,0,0,1,25,94Z"/><path class="cls-4" d="M107,94a10,10,0,0,1-9.88-11.48,10,10,0,0,0,19.76,0A10,10,0,0,1,107,94Z"/><path class="cls-5" d="M96.52,57.38c-2.17.89,4.44.62-55.22.62a13.91,13.91,0,0,1-9.82-4.06L40,43H80.45C80.9,43.3,91.19,52.6,96.52,57.38Z"/><path class="cls-6" d="M41.3,58a13.91,13.91,0,0,1-9.82-4.06l.91-1.17A13.9,13.9,0,0,0,41.3,56H95C97.91,58.63,102.6,58,41.3,58Z"/><path class="cls-1" d="M63,58V42a1,1,0,0,1,2,0V58A1,1,0,0,1,63,58Z"/><path class="cls-1" d="M40.68,58l4.06-16.26a1,1,0,0,1,1.94.48L42.62,58.5A1,1,0,0,1,40.68,58Z"/><rect class="cls-7" x="1" y="66" width="6" height="8"/><rect class="cls-8" x="1" y="71" width="6" height="3"/><circle class="cls-9" cx="25" cy="84" r="5"/><circle class="cls-9" cx="107" cy="84" r="5"/><path class="cls-10" d="M29.78,85.5a5,5,0,0,0-9.56,0,5,5,0,1,1,9.56,0Z"/><path class="cls-10" d="M111.78,85.5a5,5,0,0,0-9.56,0,5,5,0,1,1,9.56,0Z"/><path class="cls-11" d="M72,67H68a1,1,0,0,1,0-2h4A1,1,0,0,1,72,67Z"/><path class="cls-12" d="M61.89,41h-10l2-7h6Z"/><path class="cls-13" d="M121,70h6a0,0,0,0,1,0,0v4a0,0,0,0,1,0,0h-4a2,2,0,0,1-2-2V70A0,0,0,0,1,121,70Z"/><polygon class="cls-14" points="61.89 41 51.89 41 52.75 38 61.03 38 61.89 41"/></g></svg>