<svg xmlns="http://www.w3.org/2000/svg" viewBox="0 0 128 128"><defs><style>.cls-1{fill:#7aa8d7;}.cls-2{fill:#d7f1ff;}.cls-3{fill:#c3e1f5;}.cls-4{fill:#3d465e;}.cls-5{fill:#fbcc88;}.cls-6{fill:#f6b756;}.cls-7{fill:#5b8dc9;}</style></defs><title>Ticket Machine</title><g id="Ticket_Machine" data-name="Ticket Machine"><path class="cls-1" d="M18,127V9.13A8.13,8.13,0,0,1,26.13,1h75.74A8.13,8.13,0,0,1,110,9.13V127Z"/><rect class="cls-2" x="29" y="13" width="70" height="45"/><rect class="cls-3" x="29" y="54" width="70" height="4"/><rect class="cls-4" x="36" y="76" width="8" height="8"/><rect class="cls-4" x="84" y="76" width="8" height="8"/><path class="cls-5" d="M84,76v37H70a6,6,0,1,0-12,0H44V76Z"/><path class="cls-6" d="M50,88a1,1,0,0,1-2,0A1,1,0,0,1,50,88Z"/><path class="cls-6" d="M56,88a1,1,0,0,1-2,0A1,1,0,0,1,56,88Z"/><path class="cls-6" d="M62,88a1,1,0,0,1-2,0A1,1,0,0,1,62,88Z"/><path class="cls-6" d="M68,88a1,1,0,0,1-2,0A1,1,0,0,1,68,88Z"/><path class="cls-6" d="M74,88a1,1,0,0,1-2,0A1,1,0,0,1,74,88Z"/><path class="cls-6" d="M80,88a1,1,0,0,1-2,0A1,1,0,0,1,80,88Z"/><rect class="cls-7" x="18" y="124" width="92" height="3"/><rect class="cls-6" x="44" y="76" width="40" height="3"/></g></svg>