<svg xmlns="http://www.w3.org/2000/svg" viewBox="0 0 128 128"><defs><style>.cls-1{fill:#edf0f4;}.cls-2{fill:#d4d8e1;}.cls-3{fill:#7aa8d7;}.cls-4{fill:#464f6b;}.cls-5{fill:#3d465e;}.cls-6{fill:#fbcc88;}.cls-7{fill:#f6b756;}.cls-8{fill:#8288a1;}.cls-9{fill:#d7dbe2;}.cls-10{fill:#d7f1ff;}.cls-11{fill:#c3e1f5;}</style></defs><title>Ticket Bus</title><g id="Ticket_Bus" data-name="Ticket Bus"><path class="cls-1" d="M118.87,64A8.18,8.18,0,0,0,127,72.22V101H1V72.22A8.22,8.22,0,0,0,1,55.78V27H127V55.78A8.18,8.18,0,0,0,118.87,64Z"/><rect class="cls-2" x="1" y="98" width="126" height="3"/><path class="cls-3" d="M27.11,38H55.89A4.11,4.11,0,0,1,60,42.11V79a0,0,0,0,1,0,0H23a0,0,0,0,1,0,0V42.11A4.11,4.11,0,0,1,27.11,38Z"/><path class="cls-4" d="M25,79h8a0,0,0,0,1,0,0v6a2,2,0,0,1-2,2H27a2,2,0,0,1-2-2V79A0,0,0,0,1,25,79Z"/><path class="cls-4" d="M50,79h8a0,0,0,0,1,0,0v6a2,2,0,0,1-2,2H52a2,2,0,0,1-2-2V79A0,0,0,0,1,50,79Z"/><path class="cls-5" d="M33,82v3a2,2,0,0,1-2,2H27a2,2,0,0,1-2-2V82a2,2,0,0,0,2,2h4A2,2,0,0,0,33,82Z"/><path class="cls-5" d="M58,82v3a2,2,0,0,1-2,2H52a2,2,0,0,1-2-2V82a2,2,0,0,0,2,2h4A2,2,0,0,0,58,82Z"/><circle class="cls-6" cx="29" cy="73" r="2"/><circle class="cls-6" cx="54" cy="73" r="2"/><path class="cls-7" d="M29,75a2,2,0,0,1-1.93-2.5,2,2,0,0,0,3.86,0A2,2,0,0,1,29,75Z"/><path class="cls-7" d="M54,75a2,2,0,0,1-1.93-2.5,2,2,0,0,0,3.86,0A2,2,0,0,1,54,75Z"/><path class="cls-8" d="M46,74H37a1,1,0,0,1,0-2h9A1,1,0,0,1,46,74Z"/><path class="cls-8" d="M67,55V51.06A3.07,3.07,0,0,0,63.94,48H60a1,1,0,0,1,0-2h3.94A5.07,5.07,0,0,1,69,51.06V55A1,1,0,0,1,67,55Z"/><path class="cls-8" d="M14,55V51.06A5.07,5.07,0,0,1,19.06,46H23a1,1,0,0,1,0,2H19.06A3.07,3.07,0,0,0,16,51.06V55A1,1,0,0,1,14,55Z"/><path class="cls-8" d="M79,31a1,1,0,0,1-2,0A1,1,0,0,1,79,31Z"/><path class="cls-8" d="M79,37a1,1,0,0,1-2,0A1,1,0,0,1,79,37Z"/><path class="cls-8" d="M79,43a1,1,0,0,1-2,0A1,1,0,0,1,79,43Z"/><path class="cls-8" d="M79,49a1,1,0,0,1-2,0A1,1,0,0,1,79,49Z"/><path class="cls-8" d="M79,55a1,1,0,0,1-2,0A1,1,0,0,1,79,55Z"/><path class="cls-8" d="M79,61a1,1,0,0,1-2,0A1,1,0,0,1,79,61Z"/><path class="cls-8" d="M79,67a1,1,0,0,1-2,0A1,1,0,0,1,79,67Z"/><path class="cls-8" d="M79,73a1,1,0,0,1-2,0A1,1,0,0,1,79,73Z"/><path class="cls-8" d="M79,79a1,1,0,0,1-2,0A1,1,0,0,1,79,79Z"/><path class="cls-8" d="M79,85a1,1,0,0,1-2,0A1,1,0,0,1,79,85Z"/><path class="cls-8" d="M79,91a1,1,0,0,1-2,0A1,1,0,0,1,79,91Z"/><path class="cls-8" d="M79,97a1,1,0,0,1-2,0A1,1,0,0,1,79,97Z"/><rect class="cls-9" x="89" y="37" width="28" height="12"/><path class="cls-9" d="M91,69V59a1,1,0,0,1,2,0V69A1,1,0,0,1,91,69Z"/><path class="cls-9" d="M100,69V59a1,1,0,0,1,2,0V69A1,1,0,0,1,100,69Z"/><path class="cls-9" d="M108,69V59a1,1,0,0,1,2,0V69A1,1,0,0,1,108,69Z"/><path class="cls-9" d="M117,82H88a1,1,0,0,1,0-2h29A1,1,0,0,1,117,82Z"/><path class="cls-9" d="M117,90H88a1,1,0,0,1,0-2h29A1,1,0,0,1,117,90Z"/><rect class="cls-10" x="25" y="47" width="33" height="19"/><rect class="cls-11" x="25" y="63" width="33" height="3"/></g></svg>