<svg xmlns="http://www.w3.org/2000/svg" viewBox="0 0 128 128"><defs><style>.cls-1{fill:#949aaf;}.cls-2{fill:#c6ccda;}.cls-3{fill:#adb3c4;}.cls-4{fill:#8288a1;}.cls-5{fill:#464f6b;}.cls-6{fill:#3d465e;}.cls-7{fill:#7aa8d7;}.cls-8{fill:#5b8dc9;}.cls-9{fill:#d7f1ff;}.cls-10{fill:#c3e1f5;}.cls-11{fill:#d7dbe2;}.cls-12{fill:#fbcc88;}.cls-13{fill:#f6b756;}.cls-14{fill:#dd4e6a;}</style></defs><title>tow truck</title><g id="tow_truck" data-name="tow truck"><path class="cls-1" d="M15,64a5.06,5.06,0,0,1-5.07-5.06,1,1,0,0,1,2,0,3.07,3.07,0,1,0,4.63-2.64A5.11,5.11,0,0,1,14,51.9V43a1,1,0,0,1,2,0v8.9a3.13,3.13,0,0,0,1.59,2.68A5.07,5.07,0,0,1,15,64Z"/><polygon class="cls-2" points="73.32 44.52 69.81 41 19 41 19 34.9 79.97 32.87 84.03 41 79.97 45.06 73.32 44.52"/><polygon class="cls-3" points="84.03 41 79.97 45.06 73.32 44.52 69.81 41 19 41 19 39 69.81 39 73.32 42.52 79.97 43.06 83.36 39.67 84.03 41"/><path class="cls-1" d="M1,87V73H88V87Z"/><path class="cls-4" d="M1,87V83H88v4Z"/><circle class="cls-5" cx="19" cy="87" r="10"/><circle class="cls-5" cx="44" cy="87" r="10"/><circle class="cls-5" cx="19" cy="87" r="10"/><circle class="cls-5" cx="44" cy="87" r="10"/><path class="cls-6" d="M19,97A10,10,0,0,1,9.12,85.52a10,10,0,0,0,19.76,0A10,10,0,0,1,19,97Z"/><path class="cls-6" d="M44,97a10,10,0,0,1-9.88-11.48,10,10,0,0,0,19.76,0A10,10,0,0,1,44,97Z"/><path class="cls-7" d="M127,65.5V87H88V43h27.92a4.11,4.11,0,0,1,3.85,2.7Z"/><rect class="cls-8" x="88" y="83" width="39" height="4"/><circle class="cls-3" cx="19" cy="87" r="4"/><circle class="cls-3" cx="44" cy="87" r="4"/><circle class="cls-5" cx="102" cy="87" r="10"/><circle class="cls-5" cx="102" cy="87" r="10"/><path class="cls-6" d="M102,97a10,10,0,0,1-9.88-11.48,10,10,0,0,0,19.76,0A10,10,0,0,1,102,97Z"/><circle class="cls-3" cx="102" cy="87" r="4"/><path class="cls-1" d="M22.87,88a4,4,0,0,0-7.74,0,4,4,0,1,1,7.74,0Z"/><path class="cls-1" d="M47.87,88a4,4,0,0,0-7.74,0,4,4,0,1,1,7.74,0Z"/><path class="cls-1" d="M105.87,88a4,4,0,0,0-7.74,0,4,4,0,1,1,7.74,0Z"/><rect class="cls-9" x="97" y="45" width="11" height="18"/><path class="cls-9" d="M127,65.5V69h-8l-6-6h-3V45h9.43C119.71,45.44,119.06,43.74,127,65.5Z"/><rect class="cls-10" x="97" y="60" width="11" height="3"/><polygon class="cls-10" points="127 66 127 69 119 69 113 63 110 63 110 60 113 60 119 66 127 66"/><path class="cls-11" d="M103,72H99a1,1,0,0,1,0-2h4A1,1,0,0,1,103,72Z"/><path class="cls-12" d="M125,75h2a0,0,0,0,1,0,0v7a0,0,0,0,1,0,0h-2a2,2,0,0,1-2-2V77A2,2,0,0,1,125,75Z"/><path class="cls-13" d="M127,80v2h-2a2,2,0,0,1-2-2V78a2,2,0,0,0,2,2Z"/><path class="cls-11" d="M80,73H70V66.9l3.58-23.67a3.23,3.23,0,0,1,6.42.48Z"/><rect class="cls-11" x="11" y="31" width="8" height="12" rx="2"/><path class="cls-2" d="M19,39v2a2,2,0,0,1-2,2H13a2,2,0,0,1-2-2V39a2,2,0,0,0,2,2h4A2,2,0,0,0,19,39Z"/><rect class="cls-14" x="1" y="77" width="4" height="4"/><rect class="cls-2" x="70" y="70" width="10" height="3"/></g></svg>