<svg xmlns="http://www.w3.org/2000/svg" viewBox="0 0 128 128"><defs><style>.cls-1{fill:#adb3c4;}.cls-2{fill:#949aaf;}.cls-3{fill:#e2607f;}.cls-4{fill:#dd4e6a;}.cls-5{fill:#fbcc88;}.cls-6{fill:#f6b756;}.cls-7{fill:#6ab891;}.cls-8{fill:#4da67f;}.cls-9{fill:#8288a1;}</style></defs><title>Traffic Light</title><g id="Traffic_Light" data-name="Traffic Light"><rect class="cls-1" x="40" y="1" width="48" height="126"/><rect class="cls-2" x="40" y="123" width="48" height="4"/><circle class="cls-3" cx="64" cy="23" r="14"/><path class="cls-4" d="M64,37A14,14,0,0,1,50.08,21.5a14,14,0,0,0,27.84,0A14,14,0,0,1,64,37Z"/><path class="cls-2" d="M88,7h16l-1.53,3.11A42.58,42.58,0,0,0,98,29.35,10.09,10.09,0,0,1,88,39.52Z"/><path class="cls-2" d="M40,7H24l1.53,3.11A42.58,42.58,0,0,1,30,29.35,10.09,10.09,0,0,0,40,39.52Z"/><circle class="cls-5" cx="64" cy="64" r="14"/><path class="cls-6" d="M64,78A14,14,0,0,1,50.08,62.5a14,14,0,0,0,27.84,0A14,14,0,0,1,64,78Z"/><path class="cls-2" d="M88,48h16l-1.53,3.11A42.58,42.58,0,0,0,98,70.35,10.09,10.09,0,0,1,88,80.52Z"/><path class="cls-2" d="M40,48H24l1.53,3.11A42.58,42.58,0,0,1,30,70.35,10.09,10.09,0,0,0,40,80.52Z"/><circle class="cls-7" cx="64" cy="105" r="14"/><path class="cls-8" d="M64,119a14,14,0,0,1-13.92-15.5,14,14,0,0,0,27.84,0A14,14,0,0,1,64,119Z"/><path class="cls-2" d="M88,88h16l-1.53,3.11A42.58,42.58,0,0,0,98,110.35a10.09,10.09,0,0,1-10,10.17Z"/><path class="cls-9" d="M98,28.76c0,.2,0,.39,0,.59A10.09,10.09,0,0,1,88,39.52v-4A10.6,10.6,0,0,0,98,28.76Z"/><path class="cls-9" d="M98,69.76c0,.2,0,.39,0,.59A10.09,10.09,0,0,1,88,80.52v-4A10.6,10.6,0,0,0,98,69.76Z"/><path class="cls-9" d="M98,109.76c0,.2,0,.39,0,.59a10.09,10.09,0,0,1-10,10.17v-4A10.6,10.6,0,0,0,98,109.76Z"/><path class="cls-2" d="M40,88H24l1.53,3.11A42.58,42.58,0,0,1,30,110.35a10.09,10.09,0,0,0,10,10.17Z"/><path class="cls-9" d="M40,35.52v4A10.09,10.09,0,0,1,30,29.35c0-.19,0-.37,0-.56A10.63,10.63,0,0,0,40,35.52Z"/><path class="cls-9" d="M40,76.52v4A10.09,10.09,0,0,1,30,70.35c0-.19,0-.37,0-.56A10.63,10.63,0,0,0,40,76.52Z"/><path class="cls-9" d="M40,116.52v4a10.09,10.09,0,0,1-10-10.17c0-.19,0-.37,0-.56A10.63,10.63,0,0,0,40,116.52Z"/></g></svg>