<svg xmlns="http://www.w3.org/2000/svg" viewBox="0 0 128 128"><defs><style>.cls-1{fill:#f8aa88;}.cls-2{fill:#f69163;}.cls-3{fill:#edf0f4;}.cls-4{fill:#d4d8e1;}</style></defs><title>Traffic Cone</title><g id="Traffic_Cone" data-name="Traffic Cone"><rect class="cls-1" x="23" y="111" width="82" height="8"/><rect class="cls-2" x="23" y="116" width="82" height="3"/><path class="cls-1" d="M98.63,111H29.37C35.1,87.13,52.2,16.15,55.85,1h16.3C77.35,22.56,93.68,90.39,98.63,111Z"/><polygon class="cls-2" points="98.63 111 29.37 111 30.09 108 97.91 108 98.63 111"/><rect class="cls-1" x="9" y="119" width="110" height="8"/><polygon class="cls-3" points="45.25 45 82.75 45 76.01 17 51.99 17 45.25 45"/><polygon class="cls-3" points="32.49 98 95.51 98 88.77 70 39.23 70 32.49 98"/><polygon class="cls-4" points="82.75 45 45.25 45 45.97 42 82.03 42 82.75 45"/><polygon class="cls-4" points="95.51 98 32.49 98 33.21 95 94.79 95 95.51 98"/><rect class="cls-2" x="9" y="124" width="110" height="3"/></g></svg>