<svg xmlns="http://www.w3.org/2000/svg" viewBox="0 0 128 128"><defs><style>.cls-1{fill:#464f6b;}.cls-2{fill:#3d465e;}.cls-3{fill:#6ab891;}.cls-4{fill:#4da67f;}.cls-5{fill:#d7f1ff;}.cls-6{fill:#aae0e5;}.cls-7{fill:#e2607f;}.cls-8{fill:#fbcc88;}.cls-9{fill:#f6b756;}.cls-10{fill:#dd4e6a;}.cls-11{fill:#7aa8d7;}.cls-12{fill:#5b8dc9;}.cls-13{fill:#c6ccda;}.cls-14{fill:#949aaf;}</style></defs><title>Traffic Jam</title><g id="Traffic_Jam" data-name="Traffic Jam"><path class="cls-1" d="M21.32,59.94v8.12a4.08,4.08,0,0,1-4.06,4.07H9.13a4.08,4.08,0,0,1-4.07-4.07V58.35"/><path class="cls-2" d="M21.32,65.06v3a4.08,4.08,0,0,1-4.06,4.07H9.13a4.08,4.08,0,0,1-4.07-4.07v-3a4.08,4.08,0,0,0,4.07,4.07h8.13A4.08,4.08,0,0,0,21.32,65.06Z"/><path class="cls-3" d="M90.28,54.41a4.07,4.07,0,0,1-3.62,4c-19.6,2.18-6,1.63-67.51,1.63L4.48,58.45a4.07,4.07,0,0,1-3.62-4C.86,38.21-.28,39.66,11,27.56a104.78,104.78,0,0,0,20.53,2c29.14,0,35.79.52,48.57-2C91.42,39.66,90.28,38.24,90.28,54.41Z"/><path class="cls-4" d="M90.28,50.41v4a4.07,4.07,0,0,1-3.62,4c-19.6,2.18-6,1.63-67.51,1.63L4.48,58.45a4.07,4.07,0,0,1-3.62-4v-4a4.07,4.07,0,0,0,3.62,4c19.61,2.18,6,1.63,67.51,1.63l14.67-1.63A4.07,4.07,0,0,0,90.28,50.41Z"/><path class="cls-3" d="M5.94,27.56H11V22.48a5.08,5.08,0,1,0-5.08,5.08Z"/><path class="cls-3" d="M85.2,27.56H80.12V22.48a5.08,5.08,0,1,1,5.08,5.08Z"/><path class="cls-4" d="M11,24.56v3H5.94A5.08,5.08,0,0,1,1.09,21a5,5,0,0,0,1.26,2.08C4.31,25,6.31,24.56,11,24.56Z"/><path class="cls-4" d="M85.2,27.56H80.12v-3c4.73,0,6.76.42,8.67-1.49A5,5,0,0,0,90.05,21,5.08,5.08,0,0,1,85.2,27.56Z"/><path class="cls-3" d="M80.12,27.56c-12.43,2.48-17.54,2-48.57,2a104.78,104.78,0,0,1-20.53-2L17.91,8.22A12.22,12.22,0,0,1,29,1.14H62.16A12.22,12.22,0,0,1,73.23,8.22C74.69,12.31,73.26,8.29,80.12,27.56Z"/><path class="cls-5" d="M80.12,27.56c-12.43,2.48-17.54,2-48.57,2a104.78,104.78,0,0,1-20.53-2l5.87-16.49a11.72,11.72,0,0,1,6.33-1.8h44.7A11.91,11.91,0,0,1,74.22,11C74.32,11.09,74.09,10.62,80.12,27.56Z"/><path class="cls-6" d="M80.12,27.56c-12.43,2.48-17.54,2-48.57,2a104.78,104.78,0,0,1-20.53-2l1.34-3.75c12,2.26,17.7,1.78,47.23,1.78a103.82,103.82,0,0,0,19.19-1.78Z"/><path class="cls-7" d="M127,81.7a4.08,4.08,0,0,1-3.62,4c-19.18,1.75-9.12,1.62-20.1,1.62L46.77,55.89l1-1c2,.41,4,.74,6,1,36.47,1.17,48.12,2,63.1-1C128.13,67,127,65.47,127,81.7Z"/><circle class="cls-8" cx="111.8" cy="74.16" r="5.08"/><path class="cls-9" d="M111.8,79.24A5.07,5.07,0,0,1,107,72.67a5.08,5.08,0,0,0,9.7,0A5.08,5.08,0,0,1,111.8,79.24Z"/><path class="cls-10" d="M127,77.7v4a4.08,4.08,0,0,1-3.62,4c-19.18,1.75-9.12,1.62-20.1,1.62l-7.18-4c15.88,0,9.76.32,26.84-1.58A4.1,4.1,0,0,0,127,77.7Z"/><path class="cls-10" d="M96.1,83.37c-.13,0,0,.07-.77-.43Z"/><path class="cls-1" d="M122.94,85.79V95.5a4.07,4.07,0,0,1-4.07,4.06c-8.28,0-8.87.21-10.16-.54-2.44-8.77-2-6.17-2-11.65Z"/><path class="cls-2" d="M122.94,92.5v3a4.08,4.08,0,0,1-4.07,4.06h-8.13a4.08,4.08,0,0,1-4.06-4.06v-3a4.08,4.08,0,0,0,4.06,4.06h8.13A4.08,4.08,0,0,0,122.94,92.5Z"/><path class="cls-11" d="M108.71,109.14a4.07,4.07,0,0,1-3.62,4c-19.61,2.18-6,1.63-67.51,1.63l-14.67-1.63a4.07,4.07,0,0,1-3.62-4c0-16.2-1.14-14.75,10.16-26.85a104.78,104.78,0,0,0,20.53,2c29.14,0,35.79.52,48.57-2C109.85,94.39,108.71,93,108.71,109.14Z"/><path class="cls-12" d="M108.71,105.14v4a4.07,4.07,0,0,1-3.62,4c-19.61,2.18-6,1.63-67.51,1.63l-14.67-1.63a4.07,4.07,0,0,1-3.62-4v-4a4.07,4.07,0,0,0,3.62,4c19.61,2.18,6,1.63,67.51,1.63l14.67-1.63A4.07,4.07,0,0,0,108.71,105.14Z"/><path class="cls-1" d="M39.61,114.81v8.13A4.08,4.08,0,0,1,35.55,127H27.42a4.08,4.08,0,0,1-4.07-4.06v-9.72Z"/><path class="cls-1" d="M104.65,113.22v9.72a4.08,4.08,0,0,1-4.07,4.06H92.45a4.08,4.08,0,0,1-4.06-4.06v-8.13Z"/><path class="cls-1" d="M39.61,114.81v8.13A4.08,4.08,0,0,1,35.55,127H27.42a4.08,4.08,0,0,1-4.07-4.06v-9.72Z"/><path class="cls-1" d="M104.65,113.22v9.72a4.08,4.08,0,0,1-4.07,4.06H92.45a4.08,4.08,0,0,1-4.06-4.06v-8.13Z"/><path class="cls-2" d="M39.61,119.94v3A4.08,4.08,0,0,1,35.55,127H27.42a4.08,4.08,0,0,1-4.07-4.06v-3A4.08,4.08,0,0,0,27.42,124h8.13A4.08,4.08,0,0,0,39.61,119.94Z"/><path class="cls-2" d="M104.65,119.94v3a4.08,4.08,0,0,1-4.07,4.06H92.45a4.08,4.08,0,0,1-4.06-4.06v-3A4.08,4.08,0,0,0,92.45,124h8.13A4.08,4.08,0,0,0,104.65,119.94Z"/><polygon class="cls-13" points="78.19 106.68 49.81 106.68 53.87 98.55 74.13 98.55 78.19 106.68"/><polygon class="cls-14" points="78.19 106.68 49.81 106.68 51.31 103.68 76.69 103.68 78.19 106.68"/><path class="cls-11" d="M24.37,82.29h5.08V77.21a5.08,5.08,0,1,0-5.08,5.08Z"/><path class="cls-11" d="M103.63,82.29H98.55V77.21a5.08,5.08,0,1,1,5.08,5.08Z"/><path class="cls-12" d="M29.45,79.29v3H24.37a5.08,5.08,0,0,1-4.85-6.57,5,5,0,0,0,1.26,2.08C22.73,79.75,24.74,79.29,29.45,79.29Z"/><path class="cls-12" d="M103.63,82.29H98.55v-3c4.72,0,6.76.42,8.67-1.49a5,5,0,0,0,1.26-2.08A5.08,5.08,0,0,1,103.63,82.29Z"/><circle class="cls-8" cx="34.53" cy="101.6" r="5.08"/><circle class="cls-8" cx="93.47" cy="101.6" r="5.08"/><path class="cls-9" d="M34.53,106.68a5.08,5.08,0,0,1-4.85-6.57,5.08,5.08,0,0,0,9.7,0A5.07,5.07,0,0,1,34.53,106.68Z"/><path class="cls-9" d="M93.47,106.68a5.07,5.07,0,0,1-4.85-6.57,5.08,5.08,0,0,0,9.7,0A5.08,5.08,0,0,1,93.47,106.68Z"/><path class="cls-13" d="M31.52,50.77l4.06-8.12H52.09l-2.9,8.12Z"/><circle class="cls-8" cx="16.24" cy="46.73" r="5.08"/><path class="cls-9" d="M16.24,51.81a5.08,5.08,0,0,1-4.85-6.57,5.08,5.08,0,0,0,9.7,0A5.08,5.08,0,0,1,16.24,51.81Z"/><path class="cls-7" d="M116.84,54.85c-11.76,2.38-19.5,2-31.38,2-34.11-1.1-31.44-.75-37.72-2l6.89-19.33a12.2,12.2,0,0,1,11.08-7.08H98.88A12.2,12.2,0,0,1,110,35.52Z"/><path class="cls-5" d="M116.84,54.86c-12.44,2.48-17.54,2-48.57,2a104.78,104.78,0,0,1-20.53-2l5.87-16.49c.59-.6,3.45-1.8,6.33-1.8h44.7a11.91,11.91,0,0,1,6.3,1.77C111,38.39,110.81,37.92,116.84,54.86Z"/><path class="cls-6" d="M116.84,54.86c-12.44,2.48-17.54,2-48.57,2a104.78,104.78,0,0,1-20.53-2l1.34-3.75c12,2.26,17.7,1.78,47.23,1.78a103.82,103.82,0,0,0,19.19-1.78Z"/><path class="cls-7" d="M42.66,54.85h5.08V49.77a5.08,5.08,0,1,0-5.08,5.08Z"/><path class="cls-7" d="M121.92,54.85h-5.08V49.77a5.08,5.08,0,1,1,5.08,5.08Z"/><path class="cls-10" d="M47.74,51.85v3H42.66a5.08,5.08,0,0,1-4.85-6.57,5,5,0,0,0,1.26,2.08C41,52.32,43,51.85,47.74,51.85Z"/><path class="cls-10" d="M121.92,54.85h-5.08v-3c4.72,0,6.76.43,8.67-1.49a5,5,0,0,0,1.26-2.08A5.08,5.08,0,0,1,121.92,54.85Z"/><path class="cls-11" d="M98.55,82.29c-12.44,2.48-17.54,2-48.57,2a104.78,104.78,0,0,1-20.53-2C36.16,63.43,35,66.72,36.34,63a12.22,12.22,0,0,1,11.07-7.08H80.59A12.22,12.22,0,0,1,91.66,63C93.12,67,91.69,63,98.55,82.29Z"/><path class="cls-5" d="M98.55,82.29c-12.44,2.48-17.54,2-48.57,2a104.78,104.78,0,0,1-20.53-2L35.32,65.8A11.69,11.69,0,0,1,41.65,64h44.7a11.91,11.91,0,0,1,6.3,1.77C92.75,65.82,92.52,65.36,98.55,82.29Z"/><path class="cls-6" d="M98.55,82.29c-12.44,2.48-17.54,2-48.57,2a104.78,104.78,0,0,1-20.53-2l1.34-3.75c12,2.26,17.7,1.78,47.23,1.78a103.82,103.82,0,0,0,19.19-1.78Z"/></g></svg>