<svg xmlns="http://www.w3.org/2000/svg" viewBox="0 0 128 128"><defs><style>.cls-1{fill:#7aa8d7;}.cls-2{fill:#5b8dc9;}.cls-3{fill:#adb3c4;}.cls-4{fill:#949aaf;}.cls-5{fill:#464f6b;}.cls-6{fill:#3d465e;}.cls-7{fill:#8288a1;}.cls-8{fill:#d7f1ff;}.cls-9{fill:#c3e1f5;}.cls-10{fill:#d7dbe2;}.cls-11{fill:#fbcc88;}.cls-12{fill:#f6b756;}.cls-13{fill:#c6ccda;}.cls-14{fill:#d4d8e1;}.cls-15{fill:#c7cdd8;}</style></defs><title>Trailer Truck</title><g id="Trailer_Truck" data-name="Trailer Truck"><path class="cls-1" d="M127,73.52V93H54V38H87.29a6.12,6.12,0,0,1,5,2.64c6.79,9.89,15.74,22.9,16.43,23.92l13.49,3A6.11,6.11,0,0,1,127,73.52Z"/><rect class="cls-2" x="54" y="89" width="73" height="4"/><path class="cls-3" d="M74,93V75H11.14L1,79V93Z"/><rect class="cls-4" x="1" y="89" width="73" height="4"/><circle class="cls-5" cx="19" cy="91" r="11"/><circle class="cls-4" cx="19" cy="91" r="5"/><circle class="cls-5" cx="41" cy="91" r="11"/><circle class="cls-4" cx="41" cy="91" r="5"/><circle class="cls-5" cx="109" cy="91" r="11"/><path class="cls-6" d="M19,102A11,11,0,0,1,8.11,89.5a11,11,0,0,0,21.78,0A11,11,0,0,1,19,102Z"/><path class="cls-6" d="M41,102A11,11,0,0,1,30.11,89.5a11,11,0,0,0,21.78,0A11,11,0,0,1,41,102Z"/><path class="cls-6" d="M109,102A11,11,0,0,1,98.11,89.5a11,11,0,0,0,21.78,0A11,11,0,0,1,109,102Z"/><circle class="cls-4" cx="109" cy="91" r="5"/><path class="cls-7" d="M23.9,92a5,5,0,0,0-9.8,0,5,5,0,1,1,9.8,0Z"/><path class="cls-7" d="M45.9,92a5,5,0,0,0-9.8,0,5,5,0,1,1,9.8,0Z"/><path class="cls-7" d="M113.9,92a5,5,0,0,0-9.8,0,5,5,0,1,1,9.8,0Z"/><path class="cls-2" d="M73,85V38a1,1,0,0,1,2,0V85A1,1,0,0,1,73,85Z"/><rect class="cls-8" x="60" y="46" width="8" height="12"/><rect class="cls-9" x="60" y="55" width="8" height="3"/><polygon class="cls-8" points="108.37 64 98 64 94 62 82 62 82 46 96 46 108.37 64"/><polygon class="cls-9" points="108.37 64 98 64 94 62 82 62 82 60 94 60 98 62 107 62 108.37 64"/><path class="cls-10" d="M86.06,38h-32c-3.83-5.75-4-5.75-4-6.93A3.07,3.07,0,0,1,53.13,28C69.88,28,66.75,27.27,86.06,38Z"/><rect class="cls-11" x="123" y="75" width="4" height="6"/><rect class="cls-12" x="123" y="78" width="4" height="3"/><path class="cls-13" d="M88,72H84a1,1,0,0,1,0-2h4A1,1,0,0,1,88,72Z"/><rect class="cls-14" x="60" y="85" width="22" height="10" rx="2"/><path class="cls-15" d="M82,90v3a2,2,0,0,1-2,2H62a2,2,0,0,1-2-2V90a2,2,0,0,0,2,2H80A2,2,0,0,0,82,90Z"/><polygon class="cls-13" points="86.06 38 54.06 38 52.06 35 80.66 35 86.06 38"/></g></svg>