<svg xmlns="http://www.w3.org/2000/svg" viewBox="0 0 128 128"><defs><style>.cls-1{fill:#949aaf;}.cls-2{fill:#fbcc88;}.cls-3{fill:#f6b756;}.cls-4{fill:#7aa8d7;}.cls-5{fill:#f3f4f5;}.cls-6{fill:#5b8dc9;}.cls-7{fill:#d4d8e1;}</style></defs><title>Travel Distance</title><g id="Travel_Distance" data-name="Travel Distance"><path class="cls-1" d="M96.52,122h-78a17.45,17.45,0,0,1-12.38-5.12C-4.81,105.91,2.89,87,18.5,87H60a14.94,14.94,0,0,0,10.61-4.39C80,73.22,73.4,57,60,57H31.48a1,1,0,0,1,0-2H60c15.2,0,22.63,18.39,12,29a17,17,0,0,1-12,5H18.5c-13.83,0-20.65,16.75-11,26.46a15.41,15.41,0,0,0,11,4.54h78A1,1,0,0,1,96.52,122Z"/><path class="cls-2" d="M25.33,50.26c10.1,2.61,7,11.71-4,11.71s-14.11-9.1-4-11.71"/><path class="cls-2" d="M110.68,115.29c10.11,2.62,7,11.71-4,11.71s-14.11-9.09-4-11.71"/><path class="cls-3" d="M21.32,62C14.84,62,9.25,58,11.73,53.88c3.15,5.44,16,5.44,19.18,0C33.39,58,27.85,62,21.32,62Z"/><path class="cls-3" d="M116.84,120.9c0,3.38-4.55,6.1-10.16,6.1s-10.16-2.72-10.16-6.1a3.85,3.85,0,0,1,.57-2c3.14,5.44,16,5.44,19.18,0A3.85,3.85,0,0,1,116.84,120.9Z"/><path class="cls-4" d="M41.65,21.32c0,16.26-20.33,32.52-20.33,32.52S1,37.58,1,21.32a20.33,20.33,0,0,1,40.65,0Z"/><circle class="cls-5" cx="21.32" cy="21.32" r="8.13"/><path class="cls-4" d="M127,86.35c0,16.26-20.32,32.52-20.32,32.52S86.35,102.61,86.35,86.35a20.33,20.33,0,0,1,40.65,0Z"/><path class="cls-6" d="M21.32,53.84c-9.45-7.57-21.86-22.37-20.16-35C2.35,28.54,10.07,38,15.61,43.57a8,8,0,0,0,11.43,0c5.54-5.63,13.28-15,14.45-24.78C43.2,31.52,30.58,46.43,21.32,53.84Z"/><path class="cls-6" d="M106.68,118.87c-9.4-7.52-21.87-22.33-20.17-35C87.68,93.56,95.42,103,101,108.61a8,8,0,0,0,11.43,0c5.54-5.62,13.26-15,14.45-24.75C128.53,96.43,116.14,111.3,106.68,118.87Z"/><circle class="cls-5" cx="106.68" cy="86.35" r="8.13"/><path class="cls-7" d="M29.31,22.82a8.13,8.13,0,0,0-16,0,8.13,8.13,0,1,1,16,0Z"/><path class="cls-7" d="M114.67,87.85a8.13,8.13,0,0,0-16,0,8.13,8.13,0,1,1,16,0Z"/></g></svg>