<svg xmlns="http://www.w3.org/2000/svg" viewBox="0 0 128 128"><defs><style>.cls-1{fill:#7aa8d7;}.cls-2{fill:#5b8dc9;}.cls-3{fill:#464f6b;}.cls-4{fill:#8288a1;}.cls-5{fill:#d7f1ff;}.cls-6{fill:#c3e1f5;}.cls-7{fill:#949aaf;}.cls-8{fill:#d7dbe2;}.cls-9{fill:#c6ccda;}.cls-10{fill:#3d465e;}.cls-11{fill:#697084;}</style></defs><title>Trem</title><g id="Trem"><path class="cls-1" d="M127,52.13V99H93l-2-2H77l-2,2H53l-2-2H37l-2,2H1V52.13A8.13,8.13,0,0,1,9.13,44H118.87A8.13,8.13,0,0,1,127,52.13Z"/><polygon class="cls-2" points="127 95 127 99 93 99 91 97 77 97 75 99 53 99 51 97 37 97 35 99 1 99 1 95 35 95 37 93 51 93 53 95 75 95 77 93 91 93 93 95 127 95"/><circle class="cls-3" cx="39" cy="102" r="5"/><circle class="cls-3" cx="49" cy="102" r="5"/><circle class="cls-3" cx="79" cy="102" r="5"/><circle class="cls-3" cx="89" cy="102" r="5"/><rect class="cls-4" x="9" y="58" width="20" height="41"/><rect class="cls-4" x="99" y="58" width="20" height="41"/><rect class="cls-4" x="9" y="95" width="20" height="4"/><rect class="cls-4" x="99" y="95" width="20" height="4"/><rect class="cls-5" x="1" y="58" width="8" height="20"/><rect class="cls-5" x="119" y="58" width="8" height="20"/><rect class="cls-6" x="1" y="74" width="8" height="4"/><rect class="cls-6" x="119" y="74" width="8" height="4"/><rect class="cls-5" x="29" y="58" width="70" height="20"/><rect class="cls-6" x="29" y="74" width="70" height="4"/><path class="cls-1" d="M63,78V58a1,1,0,0,1,2,0V78A1,1,0,0,1,63,78Z"/><path class="cls-1" d="M47,78V58a1,1,0,0,1,2,0V78A1,1,0,0,1,47,78Z"/><path class="cls-1" d="M79,78V58a1,1,0,0,1,2,0V78A1,1,0,0,1,79,78Z"/><polygon class="cls-7" points="37.42 44 17.42 44 19.42 38 35.42 38 37.42 44"/><polygon class="cls-7" points="110.58 44 90.58 44 92.58 38 108.58 38 110.58 44"/><polygon class="cls-4" points="37.42 44 17.42 44 18.42 41 36.42 41 37.42 44"/><polygon class="cls-4" points="110.58 44 90.58 44 91.58 41 109.58 41 110.58 44"/><rect class="cls-8" x="97" y="29" width="8" height="9"/><rect class="cls-9" x="97" y="35" width="8" height="3"/><path class="cls-4" d="M84,26H2a1,1,0,0,1,0-2H84A1,1,0,0,1,84,26Z"/><path class="cls-4" d="M126,26h-9a1,1,0,0,1,0-2h9A1,1,0,0,1,126,26Z"/><path class="cls-10" d="M126,109H2a1,1,0,0,1,0-2H126a1,1,0,0,1,0,2Z"/><path class="cls-10" d="M39,107a5,5,0,0,1-4.9-6,5,5,0,0,0,9.8,0A5,5,0,0,1,39,107Z"/><path class="cls-10" d="M49,107a5,5,0,0,1-4.9-6,5,5,0,0,0,9.8,0A5,5,0,0,1,49,107Z"/><path class="cls-10" d="M79,107a5,5,0,0,1-4.9-6,5,5,0,0,0,9.8,0A5,5,0,0,1,79,107Z"/><path class="cls-10" d="M89,107a5,5,0,0,1-4.9-6,5,5,0,0,0,9.8,0A5,5,0,0,1,89,107Z"/><path class="cls-11" d="M113.15,25.25c-.45,0-.3,0-4.89-3.25H92.88l-4.51,3a1,1,0,0,1-1.1-1.66C92.45,19.88,92.16,20,92.58,20c17.35,0,16.2-.08,16.58.19l4.57,3.25A1,1,0,0,1,113.15,25.25Z"/><path class="cls-11" d="M108.58,30c-17.5,0-16.2.07-16.55-.17l-4.76-3.17A1,1,0,0,1,88.37,25l4.51,3h15.41l4.49-2.79a1,1,0,0,1,1.06,1.7C108.75,30.07,109,30,108.58,30Z"/><circle class="cls-8" cx="86" cy="25" r="2"/><circle class="cls-8" cx="115" cy="25" r="2"/></g></svg>