<svg xmlns="http://www.w3.org/2000/svg" viewBox="0 0 128 128"><defs><style>.cls-1{fill:#949aaf;}.cls-2{fill:#8288a1;}.cls-3{fill:#7aa8d7;}.cls-4{fill:#5b8dc9;}.cls-5{fill:#464f6b;}.cls-6{fill:#3d465e;}.cls-7{fill:#d4d8e1;}.cls-8{fill:#c7cdd8;}.cls-9{fill:#9b756d;}.cls-10{fill:#8a6762;}.cls-11{fill:#d7f1ff;}.cls-12{fill:#c3e1f5;}</style></defs><title>Tuk Tuk</title><g id="Tuk_Tuk" data-name="Tuk Tuk"><rect class="cls-1" x="70" y="76" width="14" height="8"/><rect class="cls-2" x="70" y="81" width="14" height="3"/><path class="cls-1" d="M35,60V36a1,1,0,0,1,2,0V60A1,1,0,0,1,35,60Z"/><path class="cls-1" d="M65,64V29a1,1,0,0,1,2,0V64A1,1,0,0,1,65,64Z"/><path class="cls-3" d="M116,58c-1.43-7.33-4-10.73-17.17-33a8.12,8.12,0,0,0-7-4H22.3A20.3,20.3,0,0,0,2,40.23C.71,65.17,1,54.83,1,90c13.85,0,8-.4,26,2H90.22a26.68,26.68,0,0,0,13.88-3.88l9.36-9.87C117,71.9,117.41,65,116,58ZM94,79.94A4.06,4.06,0,0,1,89.94,84H74.06A4.06,4.06,0,0,1,70,79.94V64H62V79.94A4.06,4.06,0,0,1,57.94,84H46.06A4.06,4.06,0,0,1,42,79.94V64.06A4.06,4.06,0,0,0,37.94,60H19V29H94Z"/><path class="cls-4" d="M116.69,63.9a26.39,26.39,0,0,1-3.23,11.35l-9.36,9.87A26.65,26.65,0,0,1,90.22,89H27C9,86.6,14.85,87,1,87v3H12c20,2.67,4.73,2,78.22,2a26.65,26.65,0,0,0,13.88-3.88l9.36-9.87A26.57,26.57,0,0,0,116.69,63.9Z"/><path class="cls-5" d="M101.13,29H19V60c-20,0-18,.19-18-.42.25-4.73.05-1,1-19.35A20.3,20.3,0,0,1,22.3,21H91.77a8.12,8.12,0,0,1,7,4Z"/><path class="cls-6" d="M101.13,29C17,29,19,28.9,19,29a3,3,0,0,1,3-3H99.37Z"/><path class="cls-7" d="M39,33a4,4,0,0,1-4,4H19a4,4,0,0,1,0-8H35A4,4,0,0,1,39,33Z"/><path class="cls-8" d="M35,37H19a4,4,0,0,1-3.7-5.5A4,4,0,0,0,19,34H35a4,4,0,0,0,3.7-2.5A4,4,0,0,1,35,37Z"/><rect class="cls-9" x="70" y="68" width="16" height="8"/><rect class="cls-10" x="70" y="73" width="16" height="3"/><path class="cls-11" d="M116,58H102.13A8.13,8.13,0,0,1,94,49.87V29h7.13C111.89,47.32,114.54,50.73,116,58Z"/><path class="cls-12" d="M116,58H102.13A8.13,8.13,0,0,1,94,49.87v-3A8.13,8.13,0,0,0,102.13,55H115.2C115.4,55.63,115.73,56.88,116,58Z"/><path class="cls-6" d="M19,56v4H1c0-.56,0,.12.19-4Z"/><circle class="cls-5" cx="19" cy="97" r="10"/><path class="cls-6" d="M19,107A10,10,0,0,1,9.12,95.52a10,10,0,0,0,19.76,0A10,10,0,0,1,19,107Z"/><circle class="cls-1" cx="19" cy="97" r="5"/><path class="cls-2" d="M23.9,98a5,5,0,0,0-9.8,0,5,5,0,1,1,9.8,0Z"/><circle class="cls-5" cx="117" cy="97" r="10"/><path class="cls-6" d="M117,107a10,10,0,0,1-9.88-11.48,10,10,0,0,0,19.76,0A10,10,0,0,1,117,107Z"/><circle class="cls-1" cx="117" cy="97" r="5"/><path class="cls-2" d="M121.9,98a5,5,0,0,0-9.8,0,5,5,0,1,1,9.8,0Z"/><path class="cls-4" d="M114.92,75.12a26.25,26.25,0,0,1-1.46,3.13l-9.36,9.87a25.8,25.8,0,0,1-3.35,1.72l.72-2.87A15.76,15.76,0,0,1,114.92,75.12Z"/><path class="cls-3" d="M116.81,78a10,10,0,0,1,10,10H117.6a8.19,8.19,0,0,0-6.34,3c-2.4,2.93-5,3-8.45,3l1.57-6.3A12.81,12.81,0,0,1,116.81,78Z"/><path class="cls-4" d="M126.81,88H117.6a8.19,8.19,0,0,0-6.34,3c-2.62,3.19-5.73,3-8.45,3l.75-3a9.65,9.65,0,0,0,4.87-.79A8.09,8.09,0,0,0,111.26,88a8.19,8.19,0,0,1,6.34-3h8.75A9.91,9.91,0,0,1,126.81,88Z"/></g></svg>