<svg xmlns="http://www.w3.org/2000/svg" viewBox="0 0 128 128"><defs><style>.cls-1{fill:#949aaf;}.cls-2{fill:#8288a1;}.cls-3{fill:#6ab891;}.cls-4{fill:#4da67f;}.cls-5{fill:#d4d8e1;}.cls-6{fill:#c7cdd8;}.cls-7{fill:#d7f1ff;}</style></defs><title>Turnstile</title><g id="Turnstile"><path class="cls-1" d="M56,39V93.81a4.19,4.19,0,0,1-4.22,4.26,4,4,0,0,1-3.78-4V39"/><path class="cls-1" d="M62.82,32.68,102.1,72a4.07,4.07,0,0,1-5.75,5.75L57.05,38.41"/><path class="cls-2" d="M119,31H63.46c-.39-10.64-.24-9.75,0-3H119a4,4,0,0,0,3.71-2.47A4,4,0,0,1,119,31Z"/><polygon class="cls-1" points="64.14 31 63.46 31 63.43 30.29 64.14 31"/><path class="cls-2" d="M56,90.81v3a4.19,4.19,0,0,1-4.22,4.26,4,4,0,0,1-3.78-4v-3a4,4,0,0,0,3.78,4A4.19,4.19,0,0,0,56,90.81Z"/><path class="cls-2" d="M96.35,77.72,57.05,38.41l1.51-1.49,37.79,37.8A4.07,4.07,0,0,0,103,73.34,4.07,4.07,0,0,1,96.35,77.72Z"/><polygon class="cls-1" points="63.43 30.29 64.14 31 63.46 31 63.43 30.29"/><path class="cls-1" d="M122.71,25.52A4,4,0,0,1,119,28H63.46l-.18-5H119A3.93,3.93,0,0,1,122.71,25.52Z"/><path class="cls-3" d="M54,127H5V113H47.94L54,119.06Z"/><rect class="cls-4" x="5" y="124" width="49" height="3"/><rect class="cls-3" x="5" y="1" width="33" height="112"/><rect class="cls-4" x="5" y="109" width="33" height="4"/><rect class="cls-5" x="5" y="1" width="33" height="24"/><rect class="cls-6" x="5" y="21" width="33" height="4"/><rect class="cls-7" x="13" y="9" width="17" height="8"/><path class="cls-3" d="M38,1h7.66L62.11,17.44,41.55,38H38Z"/><path class="cls-4" d="M62.11,17.44,41.55,38H38V34h3.55L60.11,15.44Z"/><path class="cls-5" d="M60.58,19A12.19,12.19,0,0,1,43.35,36.2"/><path class="cls-6" d="M43.35,36.2,45,34.54a12.19,12.19,0,0,0,18.9-8.68C65.33,37.47,51.44,44.08,43.35,36.2Z"/><rect class="cls-4" x="38" y="1" width="3" height="34"/></g></svg>