<svg xmlns="http://www.w3.org/2000/svg" viewBox="0 0 128 128"><defs><style>.cls-1{fill:#d4d8e1;}.cls-2{fill:#c7cdd8;}.cls-3{fill:#464f6b;}.cls-4{fill:#3d465e;}.cls-5{fill:#adb3c4;}.cls-6{fill:#949aaf;}.cls-7{fill:#d7f1ff;}.cls-8{fill:#c3e1f5;}.cls-9{fill:#e2607f;}.cls-10{fill:#dd4e6a;}.cls-11{fill:#fbcc88;}.cls-12{fill:#f6b756;}</style></defs><title>Van</title><g id="Van"><path class="cls-1" d="M127,61.85V84C-2.34,84,19.06,84.52,1,82V55.42l5.59-16.3A6.09,6.09,0,0,1,12.35,35h87.5A8.17,8.17,0,0,1,107,39.2l7.81,14.12c.06.1-.59-.16,8.06,2.74A6.12,6.12,0,0,1,127,61.85Z"/><path class="cls-2" d="M127,81v3C-2.34,84,19.06,84.52,1,82V79C18.74,81.47-1.68,81,127,81Z"/><circle class="cls-3" cx="25" cy="83" r="10"/><circle class="cls-3" cx="111" cy="83" r="10"/><path class="cls-4" d="M25,93a10,10,0,0,1-9.88-11.48,10,10,0,0,0,19.76,0A10,10,0,0,1,25,93Z"/><path class="cls-4" d="M111,93a10,10,0,0,1-9.88-11.48,10,10,0,0,0,19.76,0A10,10,0,0,1,111,93Z"/><circle class="cls-5" cx="25" cy="83" r="5"/><circle class="cls-5" cx="111" cy="83" r="5"/><path class="cls-6" d="M29.9,84a5,5,0,0,0-9.8,0,5,5,0,1,1,9.8,0Z"/><path class="cls-6" d="M115.9,84a5,5,0,0,0-9.8,0,5,5,0,1,1,9.8,0Z"/><path class="cls-7" d="M114.81,54l-8.13,2H17.26l-6.1-4.06L14.9,37h90.28c1.47,1.26,1.16,1.06,8.46,14.26C115,53.68,114.77,53.1,114.81,54Z"/><path class="cls-8" d="M114.81,54l-8.13,2H17.26l-6.1-4.06.64-2.57L17.26,53h89.42l7-1.74C115,53.68,114.77,53.1,114.81,54Z"/><path class="cls-1" d="M28.4,35.72c-1.65,16.51-1.93,20.18-2,20.28a1,1,0,0,1-2-.23l2-20.05Z"/><path class="cls-1" d="M51,56V36a1,1,0,0,1,2,0V56A1,1,0,0,1,51,56Z"/><path class="cls-1" d="M81,56V36a1,1,0,0,1,2,0V56A1,1,0,0,1,81,56Z"/><path class="cls-6" d="M88,65H84a1,1,0,0,1,0-2h4A1,1,0,0,1,88,65Z"/><path class="cls-6" d="M60,65H56a1,1,0,0,1,0-2h4A1,1,0,0,1,60,65Z"/><rect class="cls-9" x="1" y="60" width="6" height="10"/><rect class="cls-10" x="1" y="67" width="6" height="3"/><rect class="cls-11" x="123" y="66" width="4" height="6"/><rect class="cls-12" x="123" y="69" width="4" height="3"/></g></svg>