<svg xmlns="http://www.w3.org/2000/svg" viewBox="0 0 128 128"><defs><style>.cls-1{fill:#9b756d;}.cls-2{fill:#8a6762;}.cls-3{fill:#464f6b;}.cls-4{fill:#3d465e;}.cls-5{fill:#949aaf;}.cls-6{fill:#8288a1;}.cls-7{fill:#d7f1ff;}.cls-8{fill:#c3e1f5;}.cls-9{fill:#dd4e6a;}.cls-10{fill:#f6b756;}</style></defs><title>Wagon</title><g id="Wagon"><path class="cls-1" d="M127,64.83v9.06L122.94,78C-1.13,78,20.64,78.78,1,75.94V53.33L11.4,42.81A6.11,6.11,0,0,1,15.74,41H74.25c2.53,0,1.72-.21,21.28,13.69,1.41,1-2.52.23,26.19,4.1A6.1,6.1,0,0,1,127,64.83Z"/><path class="cls-2" d="M127,69.89v4L122.94,78C-1.13,78,20.64,78.78,1,75.94v-4C20.7,74.79-1.06,74,122.94,74Z"/><circle class="cls-3" cx="25" cy="77" r="10"/><circle class="cls-3" cx="105" cy="77" r="10"/><path class="cls-4" d="M25,87a10,10,0,0,1-9.88-11.48,10,10,0,0,0,19.76,0A10,10,0,0,1,25,87Z"/><path class="cls-4" d="M105,87a10,10,0,0,1-9.88-11.48,10,10,0,0,0,19.76,0A10,10,0,0,1,105,87Z"/><circle class="cls-5" cx="25" cy="77" r="4"/><circle class="cls-5" cx="105" cy="77" r="4"/><path class="cls-6" d="M28.87,78a4,4,0,0,0-7.74,0,4,4,0,1,1,7.74,0Z"/><path class="cls-6" d="M108.87,78a4,4,0,0,0-7.74,0,4,4,0,1,1,7.74,0Z"/><path class="cls-7" d="M88.39,58H15.23l-4.07-2c2.05-2.92.47-.66,9.08-13H79c17,12.06,14,9.9,16.51,11.69Z"/><polygon class="cls-8" points="88.39 58 15.23 58 11.16 55.97 12.72 53.75 15.23 55 88.39 55 93.63 53.34 95.53 54.69 88.39 58"/><path class="cls-1" d="M36.39,43c-1.93,15.38-1.88,14.93-1.88,15a1,1,0,0,1-2-.25L34.37,43Z"/><path class="cls-1" d="M59,43V58a1,1,0,0,1-2,0V43Z"/><path class="cls-6" d="M66,65H62a1,1,0,0,1,0-2h4A1,1,0,0,1,66,65Z"/><polygon class="cls-9" points="7 66 1 66 1 62 5 62 7 66"/><path class="cls-10" d="M127,70h-4a2,2,0,0,1,0-4h4Z"/></g></svg>