<svg xmlns="http://www.w3.org/2000/svg" viewBox="0 0 128 128"><defs><style>.cls-1{fill:#adb3c4;}.cls-2{fill:#7aa8d7;}.cls-3{fill:#5b8dc9;}.cls-4{fill:#c7cdd8;}.cls-5{fill:#edf0f4;}.cls-6{fill:#697084;}</style></defs><title>Waiting Room</title><g id="Waiting_Room" data-name="Waiting Room"><path class="cls-1" d="M116,105H12a1,1,0,0,1,0-2H116A1,1,0,0,1,116,105Z"/><path class="cls-1" d="M126,125h-9V103a1,1,0,0,0-2,0v10H65V103a1,1,0,0,0-2,0v10H13V103a1,1,0,0,0-2,0v22H2a1,1,0,0,0,0,2H126A1,1,0,0,0,126,125Zm-11-10v10H65V115ZM13,115H63v10H13Z"/><path class="cls-2" d="M37,103H7a6,6,0,0,1-6-6,4,4,0,0,1,4-4H39a4,4,0,0,1,4,4A6,6,0,0,1,37,103Z"/><path class="cls-2" d="M13.24,56H30.76A8.24,8.24,0,0,1,39,64.24V93a0,0,0,0,1,0,0H5a0,0,0,0,1,0,0V64.24A8.24,8.24,0,0,1,13.24,56Z"/><path class="cls-3" d="M31,69H13a1,1,0,0,1,0-2H31A1,1,0,0,1,31,69Z"/><path class="cls-3" d="M31,82H13a1,1,0,0,1,0-2H31A1,1,0,0,1,31,82Z"/><path class="cls-2" d="M121,103H91a6,6,0,0,1-6-6,4,4,0,0,1,4-4h34a4,4,0,0,1,4,4A6,6,0,0,1,121,103Z"/><path class="cls-2" d="M97.24,56h17.53A8.24,8.24,0,0,1,123,64.24V93a0,0,0,0,1,0,0H89a0,0,0,0,1,0,0V64.24A8.24,8.24,0,0,1,97.24,56Z"/><path class="cls-3" d="M115,69H97a1,1,0,0,1,0-2h18A1,1,0,0,1,115,69Z"/><path class="cls-3" d="M115,82H97a1,1,0,0,1,0-2h18A1,1,0,0,1,115,82Z"/><path class="cls-2" d="M79,103H49a6,6,0,0,1-6-6,4,4,0,0,1,4-4H81a4,4,0,0,1,4,4A6,6,0,0,1,79,103Z"/><path class="cls-3" d="M37,103H7c-4.32,0-6.87-4.43-5.76-7.34A6,6,0,0,0,7,100H37a6,6,0,0,0,5.76-4.34C43.88,98.59,41.3,103,37,103Z"/><path class="cls-3" d="M121,103H91c-4.32,0-6.87-4.43-5.76-7.34A6,6,0,0,0,91,100h30a6,6,0,0,0,5.76-4.34C127.88,98.59,125.3,103,121,103Z"/><path class="cls-3" d="M79,103H49c-4.32,0-6.87-4.43-5.76-7.34A6,6,0,0,0,49,100H79a6,6,0,0,0,5.76-4.34C85.88,98.59,83.3,103,79,103Z"/><path class="cls-2" d="M55.24,56H72.76A8.24,8.24,0,0,1,81,64.24V93a0,0,0,0,1,0,0H47a0,0,0,0,1,0,0V64.24A8.24,8.24,0,0,1,55.24,56Z"/><path class="cls-3" d="M73,69H56a1,1,0,0,1,0-2H73A1,1,0,0,1,73,69Z"/><path class="cls-3" d="M73,82H56a1,1,0,0,1,0-2H73A1,1,0,0,1,73,82Z"/><circle class="cls-4" cx="63.5" cy="17.5" r="16.5"/><circle class="cls-5" cx="63.5" cy="17.5" r="14.5"/><path class="cls-6" d="M59.87,24.71A1,1,0,0,1,59,23.16l4-5.95V9a1,1,0,0,1,2,0c0,9.22.07,8.71-.17,9.07C60.31,24.85,60.59,24.71,59.87,24.71Z"/><rect class="cls-3" x="5" y="90" width="34" height="3"/><rect class="cls-3" x="47" y="90" width="34" height="3"/><rect class="cls-3" x="89" y="90" width="34" height="3"/></g></svg>