<svg xmlns="http://www.w3.org/2000/svg" viewBox="0 0 128 128"><defs><style>.cls-1{fill:#949aaf;}.cls-2{fill:#464f6b;}.cls-3{fill:#3d465e;}.cls-4{fill:#d1a788;}.cls-5{fill:#d7dbe2;}.cls-6{fill:#cba07a;}.cls-7{fill:#8288a1;}</style></defs><title>Way Finding</title><g id="Way_Finding" data-name="Way Finding"><path class="cls-1" d="M68,115H60V13a4,4,0,0,1,8,0Z"/><polygon class="cls-2" points="74 127 54 127 56 115 72 115 74 127"/><polygon class="cls-3" points="74 127 54 127 54.5 124 73.5 124 74 127"/><polygon class="cls-4" points="68 13 100 13 106 21 100 29 68 29 68 13"/><path class="cls-5" d="M94,22H76a1,1,0,0,1,0-2H94A1,1,0,0,1,94,22Z"/><polygon class="cls-4" points="60 23 28 23 22 31 28 39 60 39 60 23"/><path class="cls-5" d="M52,32H34a1,1,0,0,1,0-2H52A1,1,0,0,1,52,32Z"/><polygon class="cls-4" points="68 40 100 40 106 48 100 56 68 56 68 40"/><path class="cls-5" d="M94,49H76a1,1,0,0,1,0-2H94A1,1,0,0,1,94,49Z"/><polygon class="cls-4" points="60 50 28 50 22 58 28 66 60 66 60 50"/><polygon class="cls-6" points="106 21 100 29 68 29 68 26 100 26 104.88 19.5 106 21"/><polygon class="cls-6" points="60 36 60 39 28 39 22 31 23.13 29.5 28 36 60 36"/><polygon class="cls-6" points="106 48 100 56 68 56 68 53 100 53 104.88 46.5 106 48"/><polygon class="cls-6" points="60 63 60 66 28 66 22 58 23.13 56.5 28 63 60 63"/><path class="cls-5" d="M52,59H34a1,1,0,0,1,0-2H52A1,1,0,0,1,52,59Z"/><circle class="cls-1" cx="64" cy="5" r="4"/><rect class="cls-7" x="60" y="111" width="8" height="4"/></g></svg>