<svg xmlns="http://www.w3.org/2000/svg" viewBox="0 0 128 128"><defs><style>.cls-1{fill:#c6ccda;}.cls-2{fill:#fff;}.cls-3{fill:#d7f1ff;}.cls-4{fill:#f3f4f5;}.cls-5{fill:#c3e1f5;}.cls-6{fill:#d7dbe2;}.cls-7{fill:#adb3c4;}.cls-8{fill:#8288a1;}</style></defs><title>Yacth</title><g id="Yacth"><path class="cls-1" d="M20.4,65.51l1.89-9.73a1,1,0,0,1,2,.38L22.35,66A1,1,0,1,1,20.4,65.51Z"/><path class="cls-2" d="M104.52,64.19l-53,1.07C50.69,59.05,15.17,54.69,9,54V52H78.1Z"/><path class="cls-3" d="M104.52,64.19l-49.79,1L58,58H91.1Z"/><path class="cls-4" d="M56.18,62l-1.45,3.19-3.23.07C51.35,64.11,50,63,47.86,62Z"/><polygon class="cls-5" points="104.52 64.19 54.73 65.19 56.18 62 99.77 62 104.52 64.19"/><path class="cls-6" d="M127,64c-6,6-27.41,28-36.58,28H9.13L4.44,87.39A11.44,11.44,0,0,1,1.18,77.23C1.18,75.1,4.4,70.43,7.1,66Z"/><path class="cls-1" d="M127,64c-6,6.41-27.71,28-36.56,28H9.13c-4.52-4.44-8.91-7.52-8-14.29C1.29,76.19,1,80,4.44,83.39L9.13,88H90.42C97.39,88,121.6,68.45,127,64Z"/><path class="cls-2" d="M76.3,52H20.67L9.13,36h8.21l10,8H39.66l6-2H62Z"/><path class="cls-7" d="M106.63,83c-.86.69-1.71,1.36-2.56,2H15a1,1,0,0,1,0-2Z"/><path class="cls-8" d="M66,73H62a1,1,0,0,1,0-2h4A1,1,0,0,1,66,73Z"/><path class="cls-8" d="M76,73H72a1,1,0,0,1,0-2h4A1,1,0,0,1,76,73Z"/><path class="cls-8" d="M94,73H90a1,1,0,0,1,0-2h4A1,1,0,0,1,94,73Z"/><path class="cls-8" d="M105,73h-4a1,1,0,0,1,0-2h4A1,1,0,0,1,105,73Z"/><path class="cls-8" d="M42,73H23a1,1,0,0,1,0-2H42A1,1,0,0,1,42,73Z"/><polygon class="cls-4" points="76.3 52 20.67 52 18.51 49 72 49 76.3 52"/></g></svg>