<svg xmlns="http://www.w3.org/2000/svg" viewBox="0 0 128 128"><defs><style>.cls-1{fill:#f3f4f5;}.cls-2{fill:#edf0f4;}.cls-3{fill:#949aaf;}.cls-4{fill:#8288a1;}.cls-5{fill:#adb3c4;}.cls-6{fill:#d7f1ff;}</style></defs><title>Zepplin</title><g id="Zepplin"><path class="cls-1" d="M76.62,81.73c0,.13-.1.45-2.46,12.27H37.58L33.9,75.65Z"/><polygon class="cls-2" points="74.76 91 74.16 94 37.58 94 36.98 91 74.76 91"/><path class="cls-3" d="M22.36,72.51,17.19,78H5V38H17.19L22,43.52Z"/><polygon class="cls-4" points="22.36 72.51 17.19 78 5 78 5 75 17.19 75 22.32 69.55 22.36 72.51"/><path class="cls-4" d="M22.15,58H5V47.86a64.33,64.33,0,0,1,14.82-6.81L22,43.52Z"/><path class="cls-3" d="M127,57.9c0,13.2-19.8,23.91-46.74,23.91S1,71.1,1,57.9,53.32,34,80.26,34,127,44.7,127,57.9Z"/><path class="cls-4" d="M80.26,81.81C52.32,81.81-5.62,69.89,1.62,55.4c6,12,53.43,21.41,78.64,21.41s44.17-9.38,46.5-21.41C129.77,70.81,106.62,81.81,80.26,81.81Z"/><path class="cls-5" d="M23,59H5a1,1,0,0,1,0-2H23A1,1,0,0,1,23,59Z"/><path class="cls-6" d="M48,87H44a1,1,0,0,1,0-2h4A1,1,0,0,1,48,87Z"/><path class="cls-6" d="M58,87H54a1,1,0,0,1,0-2h4A1,1,0,0,1,58,87Z"/><path class="cls-6" d="M68,87H64a1,1,0,0,1,0-2h4A1,1,0,0,1,68,87Z"/></g></svg>