<svg xmlns="http://www.w3.org/2000/svg" viewBox="0 0 128 128"><defs><style>.cls-1{fill:#a0aec0;}</style></defs><title>Ambulance</title><g id="Ambulance"><path class="cls-1" d="M109,85a3,3,0,1,0,2.93,3.65A3,3,0,0,0,109,85Z"/><path class="cls-1" d="M109,78a10,10,0,1,0,10,10A10,10,0,0,0,109,78Zm4.94,10.75A5,5,0,1,1,109,83,5,5,0,0,1,113.94,88.75Z"/><circle class="cls-1" cx="31" cy="88" r="3"/><path class="cls-1" d="M31,78A10,10,0,1,0,41,88,10,10,0,0,0,31,78Zm0,15a5,5,0,1,1,5-5A5,5,0,0,1,31,93Z"/><rect class="cls-1" x="1" y="77" width="3" height="2"/><rect class="cls-1" x="59" y="51" width="10" height="10"/><path class="cls-1" d="M53,43V84H75V43ZM71,62a1,1,0,0,1-1,1H58a1,1,0,0,1-1-1V50a1,1,0,0,1,1-1H70a1,1,0,0,1,1,1Z"/><path class="cls-1" d="M24,54v7h7V54a1,1,0,0,1,1-1h7V47H31a1,1,0,0,1-1-1V39H24v7a1,1,0,0,1-1,1H16v6h7A1,1,0,0,1,24,54Z"/><path class="cls-1" d="M1,69H51V42a1,1,0,0,1,1-1H76a1,1,0,0,1,1,1V69h6V28H1ZM14,46a1,1,0,0,1,1-1h7V38a1,1,0,0,1,1-1h8a1,1,0,0,1,1,1v7h8a1,1,0,0,1,1,1v8a1,1,0,0,1-1,1H33v7a1,1,0,0,1-1,1H23a1,1,0,0,1-1-1V55H15a1,1,0,0,1-1-1Z"/><path class="cls-1" d="M77,85a1,1,0,0,1-1,1H52a1,1,0,0,1-1-1V71H1v4H5a1,1,0,0,1,1,1v4a1,1,0,0,1-1,1H1v7H19a12,12,0,0,1,24,0H83V71H77Z"/><rect class="cls-1" x="124" y="75" width="3" height="2"/><path class="cls-1" d="M93,63h17l3.58-2.3c.42-.25,1.25,1.93-7.22-16.7H93Z"/><path class="cls-1" d="M122.81,65.15c-8.71-2.91-8-2.64-8.11-2.8,0,.1-.62.41-3.87,2.49a1,1,0,0,1-.54.16H92a1,1,0,0,1-1-1V43a1,1,0,0,1,1-1h13.12a6.15,6.15,0,0,0-4.52-2H85V88H97a12,12,0,0,1,15.81-11.41A11.86,11.86,0,0,1,121,89h6V79h-4a1,1,0,0,1-1-1V74a1,1,0,0,1,1-1h4V71A6.11,6.11,0,0,0,122.81,65.15ZM99,73H94a1,1,0,0,1,0-2h5A1,1,0,0,1,99,73Z"/><path class="cls-1" d="M100,36a4,4,0,0,0-8,0v2h8Z"/></g></svg>