<svg xmlns="http://www.w3.org/2000/svg" viewBox="0 0 128 128"><defs><style>.cls-1{fill:#a0aec0;}</style></defs><title>Bike</title><g id="Bike"><path class="cls-1" d="M39.73,77h5.06a21.77,21.77,0,0,0-5.16-11.4l-3.34,3.8A16.82,16.82,0,0,1,39.73,77Z"/><path class="cls-1" d="M23,97a17,17,0,1,1,8.78-31.56l3.34-3.8C20.74,52.11,1,62.3,1,80a22,22,0,0,0,43.79,3H39.73A17,17,0,0,1,23,97Z"/><path class="cls-1" d="M97.75,59.22l2.31,4.51A17,17,0,1,1,105,97C88.7,97,81.83,76.24,94.72,66.47L92.41,62C74.82,74.25,83.52,102,105,102a22,22,0,1,0-7.25-42.78Z"/><circle class="cls-1" cx="58" cy="80" r="6"/><path class="cls-1" d="M25.2,79,47.25,53.89,54.19,73a7.91,7.91,0,0,1,1.86-.73L48.88,52.53c38.86-10.8,35.59-9.87,35.86-10,1.46,2.86,1.22,2.08.84,2.53L62.35,73.3a7.27,7.27,0,0,1,1.53,1.29l23-27.91c17.4,34.05,16.35,32,16.49,32.2a2,2,0,1,0,1.71-.88c-.07-.29,1.55,2.94-21.4-42L94.43,30.9c.75-.35.57-1,.57-3.9a1,1,0,0,0-2,0v2.37C81,35.06,81.68,34.65,81.45,35c-.39.66-.15.78,2.37,5.71L48.2,50.64,43.6,38H41.47l5,13.74c-24.73,28.17-22.9,26-23,26.31A2,2,0,1,0,24.75,81C25,81,23,81,50.06,81a8.36,8.36,0,0,1,0-2Z"/><path class="cls-1" d="M37.68,36h14.7A3.3,3.3,0,0,0,53,29.47L45.68,28c-4.52-2.26-4.08-2-10-2a4,4,0,0,0-4,4A6,6,0,0,0,37.68,36Z"/></g></svg>