<svg xmlns="http://www.w3.org/2000/svg" viewBox="0 0 128 128"><defs><style>.cls-1{fill:#a0aec0;}</style></defs><title>Bullet Train</title><g id="Bullet_Train" data-name="Bullet Train"><rect class="cls-1" x="1" y="50" width="6" height="10"/><rect class="cls-1" x="9" y="50" width="10" height="10"/><rect class="cls-1" x="21" y="50" width="10" height="10"/><rect class="cls-1" x="33" y="50" width="10" height="10"/><rect class="cls-1" x="53" y="50" width="12" height="23"/><path class="cls-1" d="M67,74a1,1,0,0,1-1,1H52a1,1,0,0,1-1-1V70H1v7H117a10.64,10.64,0,0,0,10-7H67Z"/><polygon class="cls-1" points="75 50 75 60 92.94 60 88.36 50 75 50"/><path class="cls-1" d="M95.14,60h30.52c-1.54-2.14-2.81-2.7-13.77-10H90.56Z"/><path class="cls-1" d="M126.77,61.88c-.33.19,3.31.12-52.77.12a1,1,0,0,1-1-1V49a1,1,0,0,1,1-1h34.89c-7-4.69-14.27-8-24.33-8H1v8H44a1,1,0,0,1,1,1V61a1,1,0,0,1-1,1H1v6H51V49a1,1,0,0,1,1-1H66a1,1,0,0,1,1,1V68h60.58A10.63,10.63,0,0,0,126.77,61.88Z"/><path class="cls-1" d="M126,86H2a1,1,0,0,0,0,2H126A1,1,0,0,0,126,86Z"/><path class="cls-1" d="M15.92,79H4.08a6,6,0,1,0,11.84,0Z"/><path class="cls-1" d="M24,86a6,6,0,0,0,5.92-7H18.08A6,6,0,0,0,24,86Z"/><path class="cls-1" d="M88.92,79H77.08a6,6,0,1,0,11.84,0Z"/><path class="cls-1" d="M97,86a6,6,0,0,0,5.92-7H91.08A6,6,0,0,0,97,86Z"/></g></svg>