<svg xmlns="http://www.w3.org/2000/svg" viewBox="0 0 128 128"><defs><style>.cls-1{fill:#a0aec0;}</style></defs><title>Bus Station</title><g id="Bus_Station" data-name="Bus Station"><path class="cls-1" d="M58,100.65V127H70V100.65A51.77,51.77,0,0,1,58,100.65Z"/><path class="cls-1" d="M63.5,10A39.5,39.5,0,1,0,103,49.5,39.55,39.55,0,0,0,63.5,10ZM91,42a1,1,0,0,1-2,0V38.06A3.07,3.07,0,0,0,85.94,35H84V66a1,1,0,0,1-1,1H81v5a3,3,0,0,1-3,3H74a3,3,0,0,1-3-3V67H57v5a3,3,0,0,1-3,3H50a3,3,0,0,1-3-3V67H45a1,1,0,0,1-1-1V35H42.06A3.07,3.07,0,0,0,39,38.06V42a1,1,0,0,1-2,0V38.06A5.07,5.07,0,0,1,42.06,33H44V29.11A5.11,5.11,0,0,1,49.11,24H78.89A5.11,5.11,0,0,1,84,29.11V33h1.94A5.07,5.07,0,0,1,91,38.06Z"/><path class="cls-1" d="M73,72a1,1,0,0,0,1,1h4a1,1,0,0,0,1-1V67H73Z"/><path class="cls-1" d="M49,72a1,1,0,0,0,1,1h4a1,1,0,0,0,1-1V67H49Z"/><rect class="cls-1" x="46" y="35" width="36" height="16"/><path class="cls-1" d="M78.89,26H49.11A3.11,3.11,0,0,0,46,29.11V33H82V29.11A3.11,3.11,0,0,0,78.89,26Z"/><path class="cls-1" d="M46,65H82V53H46Zm29-8a2,2,0,1,1-2,2A2,2,0,0,1,75,57ZM60,59h8a1,1,0,0,1,0,2H60A1,1,0,0,1,60,59Zm-7-2a2,2,0,1,1-2,2A2,2,0,0,1,53,57Z"/><path class="cls-1" d="M64,1a49,49,0,1,0,49,49A49,49,0,0,0,64,1Zm-.5,90A41.5,41.5,0,1,1,105,49.5,41.55,41.55,0,0,1,63.5,91Z"/></g></svg>