<svg xmlns="http://www.w3.org/2000/svg" viewBox="0 0 128 128"><defs><style>.cls-1{fill:#a0aec0;}</style></defs><title>Bus</title><g id="Bus"><circle class="cls-1" cx="31" cy="83" r="2"/><path class="cls-1" d="M31,75a8,8,0,1,0,8,8A8,8,0,0,0,31,75Zm0,12a4,4,0,1,1,4-4A4,4,0,0,1,31,87Z"/><circle class="cls-1" cx="103" cy="83" r="2"/><path class="cls-1" d="M103,75a8,8,0,1,0,8,8A8,8,0,0,0,103,75Zm0,12a4,4,0,1,1,4-4A4,4,0,0,1,103,87Z"/><rect class="cls-1" x="1" y="67" width="5" height="8"/><rect class="cls-1" x="89" y="41" width="12" height="16"/><path class="cls-1" d="M117.41,70.71c-7.66-7.66-7.41-7.24-7.41-7.82V40a1,1,0,0,1,1-1h9a4,4,0,0,0-3.49-2H7.1A6.1,6.1,0,0,0,1,43.1V65H7a1,1,0,0,1,1,1V76a1,1,0,0,1-1,1H1v5l6.1,2h14a8.66,8.66,0,0,1,.81-4.71C26.62,68.5,42,72.69,41,84h52.1c-.49-5.42,4.12-11,9.94-11a10,10,0,0,1,10,11h14V80h-4a1,1,0,0,1-1-1V75a1,1,0,0,1,1-1h4V71C117.65,71,117.83,71.13,117.41,70.71ZM103,58a1,1,0,0,1-1,1H9a1,1,0,0,1-1-1V40a1,1,0,0,1,1-1h93a1,1,0,0,1,1,1Z"/><path class="cls-1" d="M121.09,41H112V62.47L118.53,69H127C127,59.55,126.48,51.41,121.09,41Z"/><rect class="cls-1" x="59" y="41" width="14" height="16"/><rect class="cls-1" x="75" y="41" width="12" height="16"/><rect class="cls-1" x="43" y="41" width="14" height="16"/><rect class="cls-1" x="26" y="41" width="15" height="16"/><rect class="cls-1" x="10" y="41" width="14" height="16"/><rect class="cls-1" x="124" y="76" width="3" height="2"/></g></svg>