<svg xmlns="http://www.w3.org/2000/svg" viewBox="0 0 128 128"><defs><style>.cls-1{fill:#a0aec0;}</style></defs><title>Cable Car</title><g id="Cable_Car" data-name="Cable Car"><path class="cls-1" d="M12.35,44h103.3a12.87,12.87,0,0,0-11.91-8H24.26A12.87,12.87,0,0,0,12.35,44Z"/><rect class="cls-1" x="47" y="56" width="34" height="67"/><path class="cls-1" d="M121.83,52.83A4,4,0,0,0,119,46H9a4,4,0,1,0,0,8C130.24,54,120.21,54.42,121.83,52.83Z"/><path class="cls-1" d="M45,97H1v10H45Z"/><path class="cls-1" d="M83,97v10h44V97Z"/><path class="cls-1" d="M8.67,56C6,67.62,3.29,78.08,3,95H20V56C8.11,56,8.84,56,8.67,56Z"/><rect class="cls-1" x="22" y="56" width="23" height="27"/><rect class="cls-1" x="22" y="85" width="23" height="10"/><rect class="cls-1" x="83" y="56" width="21" height="27"/><rect class="cls-1" x="83" y="85" width="21" height="10"/><path class="cls-1" d="M121.36,64.89C119.1,55,119.48,56,119,56H106V95h19A144.66,144.66,0,0,0,121.36,64.89Z"/><path class="cls-1" d="M83,124a1,1,0,0,1-1,1H46a1,1,0,0,1-1-1V109H4.8L12,127H116l7.2-18H83Z"/><path class="cls-1" d="M73,28H56a8,8,0,0,0-7.75,6h32.5A8,8,0,0,0,73,28Z"/><path class="cls-1" d="M71.75,26a8,8,0,0,0-15.5,0Z"/><circle class="cls-1" cx="64" cy="5" r="4"/><path class="cls-1" d="M63,10.91v7.14a9.55,9.55,0,0,1,2,0V10.91A5.6,5.6,0,0,1,63,10.91Z"/><path class="cls-1" d="M2,6H58.09a5.6,5.6,0,0,1,0-2H2A1,1,0,0,0,2,6Z"/><path class="cls-1" d="M126,6a1,1,0,0,0,0-2H69.91a5.6,5.6,0,0,1,0,2Z"/></g></svg>