<svg xmlns="http://www.w3.org/2000/svg" viewBox="0 0 128 128"><defs><style>.cls-1{fill:#a0aec0;}</style></defs><title>Campervan</title><g id="Campervan"><circle class="cls-1" cx="31" cy="86" r="4"/><path class="cls-1" d="M31,76A10,10,0,1,0,41,86,10,10,0,0,0,31,76Zm0,16a6,6,0,1,1,6-6A6,6,0,0,1,31,92Z"/><circle class="cls-1" cx="111" cy="86" r="4"/><path class="cls-1" d="M111,76a10,10,0,1,0,10,10A10,10,0,0,0,111,76Zm0,16a6,6,0,1,1,6-6A6,6,0,0,1,111,92Z"/><rect class="cls-1" x="1" y="67" width="7" height="8"/><path class="cls-1" d="M124,73h3v4h-2a1,1,0,0,1-1-1Z"/><rect class="cls-1" x="20" y="49" width="18" height="16"/><rect class="cls-1" x="51" y="49" width="18" height="35"/><path class="cls-1" d="M107,38.38A29.08,29.08,0,0,0,88.79,32H1V65H9a1,1,0,0,1,1,1V76a1,1,0,0,1-1,1H1V88H19.17a12,12,0,1,1,23.66,0H77V49a1,1,0,0,1,1-1h25.6A5.41,5.41,0,0,0,107,38.38ZM40,66a1,1,0,0,1-1,1H19a1,1,0,0,1-1-1V48a1,1,0,0,1,1-1H39a1,1,0,0,1,1,1ZM71,85a1,1,0,0,1-1,1H50a1,1,0,0,1-1-1V48a1,1,0,0,1,1-1H70a1,1,0,0,1,1,1Z"/><path class="cls-1" d="M123,71h4c0-3.9,0-5-.76-5.25l-16.6-5.54c-.58.37-.12,0-4.64,4.5-.44.41,1,.29-19,.29a1,1,0,0,1-1-1V50H79V88H99.17a12,12,0,1,1,23.66,0H127V79h-2a3,3,0,0,1-3-3V72A1,1,0,0,1,123,71ZM90,73H86a1,1,0,0,1,0-2h4A1,1,0,0,1,90,73Z"/><path class="cls-1" d="M87,50V63h16.88c4.19-4.19,3.85-3.77,4.18-4.41L102.33,50Z"/></g></svg>