<svg xmlns="http://www.w3.org/2000/svg" viewBox="0 0 128 128"><defs><style>.cls-1{fill:#a0aec0;}</style></defs><title>Coupe</title><g id="Coupe"><circle class="cls-1" cx="27" cy="77" r="3"/><path class="cls-1" d="M27,67A10,10,0,1,0,37,77,10,10,0,0,0,27,67Zm0,15a5,5,0,1,1,5-5A5,5,0,0,1,27,82Z"/><circle class="cls-1" cx="103" cy="77" r="3"/><path class="cls-1" d="M103,67a10,10,0,1,0,10,10A10,10,0,0,0,103,67Zm0,15a5,5,0,1,1,5-5A5,5,0,0,1,103,82Z"/><path class="cls-1" d="M8,66H1V63H7a1,1,0,0,1,1,1Z"/><path class="cls-1" d="M123,65a26.4,26.4,0,0,0,3.31,0c.6,2.43.54,1.58,0,2H123A1,1,0,0,1,123,65Z"/><path class="cls-1" d="M77.21,45H50L47,57H84.16L90,55.06Zm45.94,24a3,3,0,0,1-2.26-5.13c1.1-1.12,2.32-.87,4.9-.87a6.09,6.09,0,0,0-5-4L91.32,55.52a1,1,0,0,1-.58,1.4c-6.78,2.26-6,2-6.41,2.08-43,0-40.55,0-40.85,0C32.59,56.81,32.88,57,32.59,56.35s-.42-.18,7-11.35c1.12-1.68,1.2-2,1.87-2H74.67a8.24,8.24,0,0,0-5.36-2H41.74c-2.82,0-2.74.35-20.42,10.29L6.48,52.8A6.09,6.09,0,0,0,1,58.86V61H7a3,3,0,0,1,3,3v3a1,1,0,0,1-1,1H1v6.94l14,1.8A12,12,0,0,1,39,77H91a12,12,0,0,1,24,0h12V69ZM54,65H50a1,1,0,0,1,0-2h4A1,1,0,0,1,54,65ZM42,45,35.18,55.28c9.9,2,8.17,1.72,9.72,1.72l3-12Z"/></g></svg>