<svg xmlns="http://www.w3.org/2000/svg" viewBox="0 0 128 128"><defs><style>.cls-1{fill:#a0aec0;}</style></defs><title>Crossover</title><g id="Crossover"><circle class="cls-1" cx="21" cy="81" r="3"/><path class="cls-1" d="M21,69A12,12,0,1,0,33,81,12,12,0,0,0,21,69Zm0,17a5,5,0,1,1,5-5A5,5,0,0,1,21,86Z"/><circle class="cls-1" cx="105" cy="81" r="3"/><path class="cls-1" d="M105,69a12,12,0,1,0,12,12A12,12,0,0,0,105,69Zm0,17a5,5,0,1,1,5-5A5,5,0,0,1,105,86Z"/><polygon class="cls-1" points="122.62 69 127 69 127 67 123.62 67 122.62 69"/><rect class="cls-1" x="1" y="57" width="3" height="6"/><polygon class="cls-1" points="53 55 87.97 55 93.53 52.53 78.55 39 53 39 53 55"/><rect class="cls-1" x="30" y="39" width="21" height="16"/><path class="cls-1" d="M18,51.26C28.69,55.53,27.08,55,28,55V39H18Z"/><path class="cls-1" d="M119.89,56.57l-23.84-3L88.45,57c-.35.07,2.9,0-61.29,0-.28,0,.55.3-10.53-4.14a1,1,0,0,1-.63-.92V38a1,1,0,0,1,1-1H76.32A8.09,8.09,0,0,0,71,35C14.4,35,17,35,16.8,35a8,8,0,0,0-6,3.25L1,51.33V55H5a1,1,0,0,1,1,1v8a1,1,0,0,1-1,1H1V80l6,1.51a13.72,13.72,0,0,1,9.37-13.73A14,14,0,0,1,35,82H91a13.78,13.78,0,0,1,9.65-14.35A14,14,0,0,1,119,82h1.94l6.1-4.09V71c-6.49,0-6.46.16-6.85-.47a1,1,0,0,1,0-1l2-4c.37-.73.73-.55,4.89-.55A8.15,8.15,0,0,0,119.89,56.57ZM60,63H56a1,1,0,0,1,0-2h4A1,1,0,0,1,60,63Z"/></g></svg>