<svg xmlns="http://www.w3.org/2000/svg" viewBox="0 0 128 128"><defs><style>.cls-1{fill:#a0aec0;}</style></defs><title>Cruise</title><g id="Cruise"><path class="cls-1" d="M17,87h93.92L105,94H11C11,84,1,76,1,76V70H87l4-2h36L112.62,85H17A1,1,0,0,0,17,87Z"/><path class="cls-1" d="M92.89,61H47a1,1,0,0,1,0-2H91.89l-3.5-7H11.16L7.36,68H86.53l4-2h4.86ZM20,62a1,1,0,0,1-2,0V60a1,1,0,0,1,2,0Zm8,0a1,1,0,0,1-2,0V60a1,1,0,0,1,2,0Zm9,0a1,1,0,0,1-2,0V60a1,1,0,0,1,2,0Z"/><polygon class="cls-1" points="80.42 50 48 50 48 44 74.42 44 80.42 50"/><polygon class="cls-1" points="62.8 42 54 42 54 34 58 34 62.8 42"/><rect class="cls-1" x="32" y="40" width="8" height="10"/><rect class="cls-1" x="15" y="40" width="8" height="10"/></g></svg>