<svg xmlns="http://www.w3.org/2000/svg" viewBox="0 0 128 128"><defs><style>.cls-1{fill:#a0aec0;}</style></defs><title>Driver</title><g id="Driver"><path class="cls-1" d="M56.65,33h14.7A17.52,17.52,0,0,0,87.62,22H40.38A17.52,17.52,0,0,0,56.65,33Z"/><path class="cls-1" d="M38.94,20H89.06c4.07-6.13,3.39-3.93,3.39-9.74a2,2,0,0,0-1.37-1.91L69.37,1.11C67.73.56,67,.68,61.31.68c-2,0-1.15-.08-24.39,7.67a2,2,0,0,0-1.37,1.91v4C35.55,15.1,35.62,15,38.94,20Z"/><path class="cls-1" d="M38,29.67c0,2.8,2,8.33,2,8.33l5.65-6.36a19.47,19.47,0,0,1-6.94-8.45C38,24.89,38,26.78,38,29.67Z"/><path class="cls-1" d="M90,29.67c0-2.89,0-4.78-.71-6.48a19.64,19.64,0,0,1-7,8.43L88,38S90,32.47,90,29.67Z"/><path class="cls-1" d="M63,95.54V87.86c-13.08,7.47-12.37,7.27-13,7s-.34.59-3.2-16.66a.66.66,0,0,1,0-.14,28.44,28.44,0,0,0-27.36,23.75l-4.16,25H32.52A31.51,31.51,0,0,1,63,95.54Z"/><path class="cls-1" d="M48.76,78.06l2.37,14.27L62.3,86c.11-.06.67.56-7.78-7.89Z"/><path class="cls-1" d="M76.87,92.33l2.37-14.27H73.48C64.76,86.78,65.6,85.89,65.7,86Z"/><path class="cls-1" d="M108.61,101.77A28.44,28.44,0,0,0,81.25,78a.66.66,0,0,1,0,.14C78.38,95.41,78.72,94.48,78,94.82s0,.47-13-7v7.68a31.51,31.51,0,0,1,30.48,31.23h17.29Z"/><path class="cls-1" d="M43,123H55.9a9.08,9.08,0,0,1,3.1-3.51V106.23A21.21,21.21,0,0,0,43,123Z"/><path class="cls-1" d="M64,97.52a29.5,29.5,0,0,0-29.47,29.25H93.47A29.5,29.5,0,0,0,64,97.52ZM61,120c0,1.25-2.25,1.11-3.53,4.33-.36.9,0,.63-15.47.63a1.07,1.07,0,0,1-1.12-1.18A23.19,23.19,0,0,1,59.75,104,1,1,0,0,1,61,105Zm25,5c-15.46,0-15.12.26-15.47-.63a7.09,7.09,0,0,0-3-3.47c-.69-.42-.49.26-.49-15.9a1,1,0,0,1,1.25-1,23.19,23.19,0,0,1,18.87,19.79A1.08,1.08,0,0,1,86,125Z"/><path class="cls-1" d="M69,106.23v13.26A9.08,9.08,0,0,1,72.1,123H85A21.21,21.21,0,0,0,69,106.23Z"/><path class="cls-1" d="M88,47.39V41l-7.41-8.34C75.16,35.62,72.13,35,56.65,35a19.58,19.58,0,0,1-9.26-2.31L40,41c0,7.22-1,15.92,7,24.07C61.93,80.32,88,69.89,88,47.39ZM53,44a1,1,0,0,1-2,0V42a1,1,0,0,1,2,0ZM69,60.89a7.12,7.12,0,0,1-10,0,1,1,0,0,1,1.42-1.42,5.09,5.09,0,0,0,7.2,0A1,1,0,0,1,69,60.89ZM77,44a1,1,0,0,1-2,0V42a1,1,0,0,1,2,0Z"/><path class="cls-1" d="M71,77.82V73.3a25.9,25.9,0,0,1-14,0v4.44c0,.18-.57-.47,7,7.11C64.12,84.72,68.31,80.51,71,77.82Z"/><path class="cls-1" d="M90,38.35C90,47.7,90.12,49,89.62,52a7,7,0,0,0,.47-13.88C90.06,38.19,90,38.27,90,38.35Z"/><path class="cls-1" d="M38.33,52c-.44-2.75-.33-3.87-.33-13.61,0-.08-.06-.16-.09-.26a6.92,6.92,0,0,0-3.86,2A7,7,0,0,0,38.33,52Z"/><path class="cls-1" d="M63.88,87.22c.15.09.09.09.24,0A1,1,0,0,1,63.88,87.22Z"/></g></svg>