<svg xmlns="http://www.w3.org/2000/svg" viewBox="0 0 128 128"><defs><style>.cls-1{fill:#a0aec0;}</style></defs><title>Electric Scooter</title><g id="Electric_Scooter" data-name="Electric Scooter"><path class="cls-1" d="M17.64,111h2.55a6,6,0,1,0,0,6H17.64a4,4,0,1,1,0-6Z"/><path class="cls-1" d="M15,122a8,8,0,1,1,7.41-11h4.21a12,12,0,1,0,0,6H22.41A8,8,0,0,1,15,122Z"/><path class="cls-1" d="M110.76,109.76a6,6,0,1,0,5.81-1.55l.65,2.47h0a4,4,0,1,1-5.81,1.55Z"/><path class="cls-1" d="M115,102c-.13,0-.21-.45,1,4.06a8,8,0,1,1-5.8,1.55l-1.08-4.07C98.4,109.55,102.68,126,115,126a12,12,0,0,0,0-24Z"/><path class="cls-1" d="M115.53,112.08l-4-15.18-2,.47,4,15.22a2,2,0,1,0,2-.51Z"/><path class="cls-1" d="M62,6H76V2H62a2,2,0,0,0,0,4Z"/><polygon class="cls-1" points="106.03 96.17 113.93 94.24 108.2 72.14 100.3 74.08 106.03 96.17"/><path class="cls-1" d="M102.8,71.4l2-.47L87.32,3.75a1,1,0,0,0-1-.75H78V5h7.58Z"/><path class="cls-1" d="M102.9,92.07,89.11,110c-59.85,0-54.9.24-55.07-.48-3.34-14.72-22.1-20.29-32.77-9a1,1,0,0,0,1.46,1.38c8.77-9.28,25.4-6.49,29.38,8.11H28.42a13.57,13.57,0,0,1,.54,3H16.72a2,2,0,1,0,0,2H29a13.57,13.57,0,0,1-.54,3H85.49l18.05-23.47Z"/></g></svg>