<svg xmlns="http://www.w3.org/2000/svg" viewBox="0 0 128 128"><defs><style>.cls-1{fill:#a0aec0;}</style></defs><title>Fire Truck</title><g id="Fire_Truck" data-name="Fire Truck"><circle class="cls-1" cx="101" cy="90" r="3"/><path class="cls-1" d="M101,80a10,10,0,1,0,10,10A10,10,0,0,0,101,80Zm0,15a5,5,0,1,1,5-5A5,5,0,0,1,101,95Z"/><circle class="cls-1" cx="44" cy="90" r="3"/><path class="cls-1" d="M44,80A10,10,0,1,0,54,90,10,10,0,0,0,44,80Zm0,15a5,5,0,1,1,5-5A5,5,0,0,1,44,95Z"/><circle class="cls-1" cx="19" cy="90" r="3"/><path class="cls-1" d="M19,80A10,10,0,1,0,29,90,10,10,0,0,0,19,80Zm0,15a5,5,0,1,1,5-5A5,5,0,0,1,19,95Z"/><path class="cls-1" d="M14.2,79H1V91H7A12,12,0,0,1,14.2,79Z"/><path class="cls-1" d="M39.2,79H23.8A12,12,0,0,1,31,91H32A12,12,0,0,1,39.2,79Z"/><path class="cls-1" d="M56,91H89a12,12,0,0,1,1-5.8V79H48.8A12,12,0,0,1,56,91Z"/><polygon class="cls-1" points="105.61 39 98.61 39 97.28 43 106.94 43 105.61 39"/><rect class="cls-1" x="20" y="56" width="16" height="21"/><rect class="cls-1" x="38" y="56" width="7" height="21"/><rect class="cls-1" x="47" y="56" width="16" height="21"/><rect class="cls-1" x="1" y="47" width="30" height="7"/><path class="cls-1" d="M9,43H94V28H86v2H9V28H1V45H9Zm51.33-2.6L50.26,32H70.41Zm12.84-8.1L83.59,41H62.74ZM57.93,41H37.07L47.5,32.3Zm-23.26-.6L24.59,32H44.74Zm-2.41.6H11.41l10.42-8.7ZM85,39.57,75.93,32H85ZM19.07,32,10,39.57V32Z"/><rect class="cls-1" x="1" y="56" width="17" height="21"/><rect class="cls-1" x="73" y="49" width="14" height="13"/><rect class="cls-1" x="89" y="49" width="15" height="13"/><path class="cls-1" d="M106,62h15.87c-5.68-10.6-4.12-7.68-7-13H106Z"/><path class="cls-1" d="M122.94,64H72a1,1,0,0,1-1-1V47h42.63a6.06,6.06,0,0,0-4.51-2H65V77H92v5.08c7.94-9,22.83-1.93,20.83,9.92H127V84h-6a1,1,0,0,1-1-1V75a1,1,0,0,1,1-1h6V71.57ZM78,72H74a1,1,0,0,1,0-2h4A1,1,0,0,1,78,72Zm31,0h-4a1,1,0,0,1,0-2h4A1,1,0,0,1,109,72Z"/><rect class="cls-1" x="122" y="76" width="5" height="6"/></g></svg>