<svg xmlns="http://www.w3.org/2000/svg" viewBox="0 0 128 128"><defs><style>.cls-1{fill:#a0aec0;}</style></defs><title>Gateway</title><g id="Gateway"><rect class="cls-1" x="1" y="1" width="24" height="9"/><rect class="cls-1" x="1" y="12" width="24" height="10"/><circle class="cls-1" cx="13" cy="36" r="3"/><path class="cls-1" d="M13,49a3,3,0,1,0,3,3A3,3,0,0,0,13,49Zm0,0a3,3,0,1,0,3,3A3,3,0,0,0,13,49ZM1,24V127H25V24ZM13,57a5,5,0,1,1,5-5A5,5,0,0,1,13,57Zm0-16a5,5,0,1,1,5-5A5,5,0,0,1,13,41Zm0,8a3,3,0,1,0,3,3A3,3,0,0,0,13,49Zm0,0a3,3,0,1,0,3,3A3,3,0,0,0,13,49Zm0,0a3,3,0,1,0,3,3A3,3,0,0,0,13,49Z"/><path class="cls-1" d="M56.94,13H36.06A4.08,4.08,0,0,0,32,17.06V30h3a6,6,0,0,1,0,12H32V82h3a6,6,0,0,1,0,12H32v12.94A4.08,4.08,0,0,0,36.06,111H56.94A4.08,4.08,0,0,0,61,106.94V17.06A4.08,4.08,0,0,0,56.94,13ZM50.29,63.71,47,60.41V74a1,1,0,0,1-2,0V60.41l-3.29,3.3a1,1,0,0,1-1.42-1.42c5.46-5.46,5.05-5.1,5.32-5.21.85-.34.73-.16,6.1,5.21A1,1,0,0,1,50.29,63.71Z"/><path class="cls-1" d="M27,84h8a4,4,0,0,1,0,8H27Z"/><path class="cls-1" d="M27,32h8a4,4,0,0,1,0,8H27Z"/><rect class="cls-1" x="103" y="1" width="24" height="9"/><rect class="cls-1" x="103" y="12" width="24" height="10"/><circle class="cls-1" cx="115" cy="36" r="3"/><path class="cls-1" d="M103,24V127h24V24Zm12,33a5,5,0,1,1,5-5A5,5,0,0,1,115,57Zm0-16a5,5,0,1,1,5-5A5,5,0,0,1,115,41Zm0,8a3,3,0,1,0,3,3A3,3,0,0,0,115,49Z"/><path class="cls-1" d="M93,30h3V17.06A4.08,4.08,0,0,0,91.94,13H71.06A4.08,4.08,0,0,0,67,17.06v89.88A4.08,4.08,0,0,0,71.06,111H91.94A4.08,4.08,0,0,0,96,106.94V94H93a6,6,0,0,1,0-12h3V42H93a6,6,0,0,1,0-12ZM87.71,62.29A1,1,0,0,1,87,64c-.57,0-.45,0-4-3.59V74a1,1,0,0,1-2,0V60.41l-3.29,3.3a1,1,0,0,1-1.42-1.42c5.37-5.37,5.24-5.55,6.1-5.21C82.69,57.2,82.29,56.87,87.71,62.29Z"/><path class="cls-1" d="M101,84H93a4,4,0,0,0,0,8h8Z"/><path class="cls-1" d="M101,32H93a4,4,0,0,0,0,8h8Z"/></g></svg>