<svg xmlns="http://www.w3.org/2000/svg" viewBox="0 0 128 128"><defs><style>.cls-1{fill:#a0aec0;}</style></defs><title>Golf Car</title><g id="Golf_Car" data-name="Golf Car"><circle class="cls-1" cx="21" cy="98" r="3"/><path class="cls-1" d="M21,86A12,12,0,1,0,33,98,12,12,0,0,0,21,86Zm0,17a5,5,0,1,1,5-5A5,5,0,0,1,21,103Z"/><circle class="cls-1" cx="115" cy="98" r="3"/><path class="cls-1" d="M115,86a12,12,0,1,0,12,12A12,12,0,0,0,115,86Zm0,17a5,5,0,1,1,5-5A5,5,0,0,1,115,103Z"/><path class="cls-1" d="M123,78.5a2.5,2.5,0,0,0,2.5,2.5H127V76h-1.5A2.5,2.5,0,0,0,123,78.5Z"/><path class="cls-1" d="M114.81,61H100V79L92,91H72V81H51.69L38.48,68H7v9H1V97H7a14,14,0,1,1,27.82,3h66.28a14,14,0,0,1,25.39-9.93c.67-.93.47.26.47-7.07h-1.5a4.5,4.5,0,0,1,0-9H127v-.81Z"/><path class="cls-1" d="M90.91,16H13.85a8,8,0,0,0-8,8h98A14.47,14.47,0,0,0,90.91,16Z"/><rect class="cls-1" x="14" y="26" width="2" height="40"/><polygon class="cls-1" points="104.98 59 92.81 26 90.67 26 102.86 59 104.98 59"/><path class="cls-1" d="M69.86,73H49.74l-4.8-16.72a4,4,0,1,0-7.68,2.22l2.2,7.65L52.51,79H73.29A4,4,0,0,0,69.86,73Z"/><path class="cls-1" d="M95.78,81.73,98,78.39V61H96.52l-3,6.09L80.74,57.54l4.4-6.15a1,1,0,0,0-1.63-1.16L73.35,64.45A1,1,0,0,0,75,65.61l4.6-6.44L92.4,68.78c.24.18.47-.5-2,4.41Z"/></g></svg>