<svg xmlns="http://www.w3.org/2000/svg" viewBox="0 0 128 128"><defs><style>.cls-1{fill:#a0aec0;}</style></defs><title>GPS</title><g id="GPS"><polygon class="cls-1" points="9 36.96 9 75.74 28.39 56.35 9 36.96"/><rect class="cls-1" x="19.93" y="98.99" width="9.68" height="12.6" transform="translate(-67.19 48.36) rotate(-45)"/><path class="cls-1" d="M9,96.1V119H56L21.05,84.05Zm15.45-.81,10.32,10.33a1,1,0,0,1,0,1.41c-9,9-8.38,8.55-9,8.55s.15.57-11-10.62a1,1,0,0,1,0-1.41L23,95.29A1,1,0,0,1,24.45,95.29Z"/><polygon class="cls-1" points="29.29 27.87 37.16 35.75 45.04 27.87 37.16 20 29.29 27.87"/><path class="cls-1" d="M69,9H56.43a5.11,5.11,0,0,1-5,4H26.6a5.11,5.11,0,0,1-5-4H9V19.54L37.09,47.65l21.2-21.2a1,1,0,0,1,1.41,0l9.3,9.3ZM47.16,28.58c-10,10-9.4,9.58-10,9.58s0,.45-10-9.58a1,1,0,0,1,0-1.42l9.29-9.29a1,1,0,0,1,1.42,0l9.29,9.29A1,1,0,0,1,47.16,28.58Z"/><rect class="cls-1" x="41.91" y="71.25" width="11.14" height="8.22" transform="translate(-39.38 55.65) rotate(-45)"/><path class="cls-1" d="M69,38.58l-10-10L37.8,49.77a1,1,0,0,1-1.42,0L9.06,22.43V34.2L30.51,55.64a1,1,0,0,1,0,1.42L9.06,78.5V93.2C21.28,81,20.45,81.63,21.05,81.63S19.33,79.49,58.81,119h8.86L26.19,77.5a1,1,0,0,1,0-1.42L58.29,44a1,1,0,0,1,1.41,0l9.3,9.3Z"/><path class="cls-1" d="M71,119.92A1.07,1.07,0,0,1,70,121H8a1,1,0,0,1-1-1V8A1,1,0,0,1,8,7H22.47a1,1,0,0,1,1,1,2.85,2.85,0,0,0,.9,2.09c1.29,1.26.39.91,27,.91a3.07,3.07,0,0,0,3.13-3,1,1,0,0,1,1-1H70a1,1,0,0,1,1,1V61.19a35,35,0,0,1,7-5.12V8.26A8.26,8.26,0,0,0,69.74,0H8.26A8.26,8.26,0,0,0,0,8.26V119.74A8.26,8.26,0,0,0,8.26,128H69.74A8.26,8.26,0,0,0,78,119.74v-2.39a35,35,0,0,1-7-5.12Z"/><path class="cls-1" d="M28.31,76.79,69,117.5v-7.3a35,35,0,0,1,0-47V56.09l-10-10ZM56.45,75c-10.08,10.08-9.4,9.58-10,9.58s-.22.2-7.93-7.52a1,1,0,0,1,0-1.41l9.29-9.29a1,1,0,0,1,1.41,0l7.23,7.23A1,1,0,0,1,56.45,75Z"/><path class="cls-1" d="M76.31,100.69C95.94,95.28,94.78,95.58,95,95.58s-1-.31,18.65,5.11L95,66.11Z"/><path class="cls-1" d="M95,53.68c-28.06,0-43.36,32.94-25.22,54.36A33,33,0,1,0,95,53.68ZM116.4,102.9c-.6.73.63.8-21.43-5.28l-20.38,5.62a1,1,0,0,1-1.15-1.44L94.09,63.53a1,1,0,0,1,1.76,0C118.2,105,117,102.13,116.4,102.9Z"/></g></svg>