<svg xmlns="http://www.w3.org/2000/svg" viewBox="0 0 128 128"><defs><style>.cls-1{fill:#a0aec0;}</style></defs><title>Hatchback</title><g id="Hatchback"><circle class="cls-1" cx="17" cy="80" r="3"/><path class="cls-1" d="M17,70A10,10,0,1,0,27,80,10,10,0,0,0,17,70Zm0,15a5,5,0,1,1,5-5A5,5,0,0,1,17,85Z"/><circle class="cls-1" cx="105" cy="80" r="3"/><path class="cls-1" d="M105,70a10,10,0,1,0,10,10A10,10,0,0,0,105,70Zm0,15a5,5,0,1,1,5-5A5,5,0,0,1,105,85Z"/><rect class="cls-1" x="1" y="65" width="3" height="2"/><path class="cls-1" d="M122.94,67h3.51l.4,2h-6.74A3,3,0,0,1,122.94,67Z"/><path class="cls-1" d="M5.59,57H1a10.2,10.2,0,0,1,2.51-6.51c5.25-6.07,7.31-9.1,11.94-11.37,1,5.6-1.28,8-5.44,15.31A5.1,5.1,0,0,1,5.59,57Z"/><path class="cls-1" d="M27.57,41l-3.18,8a7.69,7.69,0,0,0,1.43,8h8.81l1.61-16Zm10.68,0L36.64,57H57V41ZM27.57,41l-3.18,8a7.69,7.69,0,0,0,1.43,8h8.81l1.61-16Zm10.68,0L36.64,57H57V41Zm80.69,30c-1.82,0-.88-3.21.48-4.54,1.76-1.8,3.75-1.46,6.64-1.46a8.2,8.2,0,0,0-6.72-6.36l-18.6-2.87c-8.83,3.52-7.86,3.16-8.23,3.23-71.79,0-67.35.16-67.83-.29a9.7,9.7,0,0,1-2.15-10.48C26,39.6,25.87,39,27.57,39H76.74a12.11,12.11,0,0,0-6.67-2c-48.58,0-48-.48-52.72,1.3,1.16,7-1,9.13-5.6,17.12A7.1,7.1,0,0,1,5.59,59H1v4H5a1,1,0,0,1,1,1v4a1,1,0,0,1-1,1H1v9L5,79.3A12,12,0,0,1,29,80H93a12,12,0,0,1,24,0h8l2-2V71ZM66,67H62a1,1,0,0,1,0-2h4A1,1,0,0,1,66,67ZM79.45,41H59V57H92.29l5.45-2.18Zm-41.2,0L36.64,57H57V41ZM27.57,41l-3.18,8a7.69,7.69,0,0,0,1.43,8h8.81l1.61-16Zm0,0-3.18,8a7.69,7.69,0,0,0,1.43,8h8.81l1.61-16Z"/></g></svg>