<svg xmlns="http://www.w3.org/2000/svg" viewBox="0 0 128 128"><defs><style>.cls-1{fill:#a0aec0;}</style></defs><title>Helicopter</title><g id="Helicopter"><rect class="cls-1" x="94" y="59" width="14" height="14"/><path class="cls-1" d="M110,59V73h16.73a26.5,26.5,0,0,0-6.49-14Z"/><path class="cls-1" d="M110,75v7a1,1,0,0,1-1,1H93a1,1,0,0,1-1-1V75a19.45,19.45,0,0,1-15.6-9.33A5.71,5.71,0,0,1,81.3,57h37a26.63,26.63,0,0,0-18-7H19L7,36H1L7,50c0,4.44.33,1.27-2,16h6.09l4.32-9,48.45,9A30.76,30.76,0,0,0,91,85c.48,0-1.33,0,27.88,0A8.13,8.13,0,0,0,127,76.9c0-.65,0-1.28-.06-1.9Z"/><path class="cls-1" d="M78.69,60.08a3.71,3.71,0,0,0-.56,4.55A17.42,17.42,0,0,0,92,73V59C80.57,59,80.08,58.65,78.69,60.08Z"/><rect class="cls-1" x="94" y="75" width="14" height="6"/><path class="cls-1" d="M70.56,48H98.32l-6-6C86.44,42,78.77,41.41,70.56,48Z"/><path class="cls-1" d="M50,36H87v4c.25,0,.36,0,2,0V36h37a1,1,0,0,0,0-2H89V33a1,1,0,0,0-2,0v1H50A1,1,0,0,0,50,36Z"/><path class="cls-1" d="M125.11,90.49A6.34,6.34,0,0,1,119.42,94H112V87h-2v7H91V87c-.35,0-1.24,0-2-.12V94H74a1,1,0,0,0,0,2h45.42a8.29,8.29,0,0,0,7.47-4.62A1,1,0,0,0,125.11,90.49Z"/></g></svg>