<svg xmlns="http://www.w3.org/2000/svg" viewBox="0 0 128 128"><defs><style>.cls-1{fill:#a0aec0;}</style></defs><title>Hot Air Balloon</title><g id="Hot_Air_Balloon" data-name="Hot Air Balloon"><path class="cls-1" d="M55.45,87C50.07,78.18,37,54.71,37,34.78,37,17.25,43.16,7.22,51.12,2.47,36.34,6.05,25,16.38,25,35.4,25,55.09,45.26,78.76,52.91,87Z"/><path class="cls-1" d="M39,34.78C39,54.8,53.06,79.3,57.81,87h2.34C58.14,78.43,53,54.52,53,34.78,53,18,55.31,6.27,59.37,1.45,48.83,3.52,39,13.05,39,34.78Z"/><path class="cls-1" d="M62.2,87h3.6C78.05,35.36,72.49,1,64,1S50,35.38,62.2,87Z"/><path class="cls-1" d="M67.85,87h2.34C74.94,79.3,89,54.79,89,34.78,89,13.05,79.17,3.52,68.63,1.45,72.69,6.27,75,18,75,34.78,75,54.52,69.86,78.43,67.85,87Z"/><path class="cls-1" d="M91,34.78C91,54.71,77.93,78.18,72.55,87h2.54C82.74,78.76,103,55.09,103,35.4c0-19-11.34-29.35-26.12-32.93C84.84,7.22,91,17.25,91,34.78Z"/><path class="cls-1" d="M74,89H54a1,1,0,0,0,0,2H74A1,1,0,0,0,74,89Z"/><path class="cls-1" d="M76,112H52a1,1,0,0,0,0,2H76A1,1,0,0,0,76,112Z"/><rect class="cls-1" x="53" y="116" width="22" height="11"/><polygon class="cls-1" points="53.24 110 55.25 110 56.66 93 54.65 93 53.24 110"/><rect class="cls-1" x="63" y="93" width="2" height="17"/><polygon class="cls-1" points="71.34 93 72.75 110 74.76 110 73.35 93 71.34 93"/></g></svg>