<svg xmlns="http://www.w3.org/2000/svg" viewBox="0 0 128 128"><defs><style>.cls-1{fill:#a0aec0;}</style></defs><title>Jeep</title><g id="Jeep"><circle class="cls-1" cx="31" cy="86" r="6"/><path class="cls-1" d="M31,70A16,16,0,1,0,47,86,16,16,0,0,0,31,70Zm0,24a8,8,0,1,1,8-8A8,8,0,0,1,31,94Z"/><path class="cls-1" d="M119.36,71.32a4.86,4.86,0,0,1,.12-6.86c1.78-1.81,3.76-1.46,6.91-1.46l-.55-2.68a6.06,6.06,0,0,0-5.33-4.78C79.63,51.31,89,52,86.73,52.86,75.86,57.21,76.48,57,76.19,57H54a1,1,0,0,1-1-1V32H79.15a4.08,4.08,0,0,0-3.52-2H26.39a6.07,6.07,0,0,0-4.51,2H47V56a1,1,0,0,1-1,1H11V71a3,3,0,0,1-3,3H5V84c5,0,3.2-.34,8,1.32a18,18,0,0,1,36,.79c43.29.14,40,.25,40-.11a18,18,0,0,1,35.93-1.64L127,82.29V73C123.7,73,121.36,73.41,119.36,71.32ZM60,67H56a1,1,0,0,1,0-2h4A1,1,0,0,1,60,67Z"/><path class="cls-1" d="M45,34H20.67c-.29.77,0-.72-3.4,21H45Z"/><path class="cls-1" d="M126.78,65c-3.71,0-4.78-.26-5.88.88a2.84,2.84,0,0,0-.09,4.06C122.09,71.29,123.25,71,127,71,127,65.29,127.07,66.46,126.78,65Z"/><polygon class="cls-1" points="55 55 76 55 85.95 51.02 79.91 34 55 34 55 55"/><circle class="cls-1" cx="107" cy="86" r="6"/><path class="cls-1" d="M107,70a16,16,0,1,0,16,16A16,16,0,0,0,107,70Zm0,24a8,8,0,1,1,8-8A8,8,0,0,1,107,94Z"/><rect class="cls-1" x="1" y="48" width="8" height="24" rx="1"/></g></svg>