<svg xmlns="http://www.w3.org/2000/svg" viewBox="0 0 128 128"><defs><style>.cls-1{fill:#a0aec0;}</style></defs><title>London Bus</title><g id="London_Bus" data-name="London Bus"><circle class="cls-1" cx="31" cy="89" r="2"/><path class="cls-1" d="M31,81a8,8,0,1,0,8,8A8,8,0,0,0,31,81Zm0,12a4,4,0,1,1,4-4A4,4,0,0,1,31,93Z"/><circle class="cls-1" cx="113" cy="89" r="2"/><path class="cls-1" d="M113,81a8,8,0,1,0,8,8A8,8,0,0,0,113,81Zm0,12a4,4,0,1,1,4-4A4,4,0,0,1,113,93Z"/><path class="cls-1" d="M125.5,83H127V80h-1.5A1.5,1.5,0,0,0,125.5,83Z"/><rect class="cls-1" x="114" y="60" width="9" height="12"/><rect class="cls-1" x="89" y="60" width="14" height="12"/><rect class="cls-1" x="73" y="60" width="14" height="12"/><rect class="cls-1" x="24" y="60" width="15" height="12"/><rect class="cls-1" x="41" y="60" width="14" height="12"/><rect class="cls-1" x="57" y="60" width="14" height="12"/><path class="cls-1" d="M16,35H4.16C.65,38.87,1,42.77,1,46H16Z"/><rect class="cls-1" x="18" y="35" width="15" height="11"/><rect class="cls-1" x="35" y="35" width="16" height="11"/><rect class="cls-1" x="53" y="35" width="16" height="11"/><rect class="cls-1" x="71" y="35" width="16" height="11"/><rect class="cls-1" x="89" y="35" width="17" height="11"/><path class="cls-1" d="M119.68,31H13.19A12.08,12.08,0,0,0,6.5,33H124.18A6,6,0,0,0,119.68,31Z"/><path class="cls-1" d="M108,46h19c-1.33-10.3-1.25-10.2-1.58-11H108Z"/><rect class="cls-1" x="1" y="48" width="126" height="10"/><rect class="cls-1" x="5" y="60" width="12" height="27"/><path class="cls-1" d="M113,74a1,1,0,0,1-1-1V60h-7V73a1,1,0,0,1-1,1H23a1,1,0,0,1-1-1V60H19V88a1,1,0,0,1-1,1H4a1,1,0,0,1-1-1V60H1V91H21.2a10,10,0,1,1,19.56.18l62.65.64a10,10,0,1,1,19.13.18H127V85h-1.5a3.5,3.5,0,0,1,0-7c2.28,0,2.42.51-2-4Z"/></g></svg>