<svg xmlns="http://www.w3.org/2000/svg" viewBox="0 0 128 128"><defs><style>.cls-1{fill:#a0aec0;}</style></defs><title>Mail Truck</title><g id="Mail_Truck" data-name="Mail Truck"><circle class="cls-1" cx="21" cy="91" r="3"/><path class="cls-1" d="M21,81A10,10,0,1,0,31,91,10,10,0,0,0,21,81Zm0,15a5,5,0,1,1,5-5A5,5,0,0,1,21,96Z"/><circle class="cls-1" cx="107" cy="91" r="3"/><path class="cls-1" d="M107,81a10,10,0,1,0,10,10A10,10,0,0,0,107,81Zm0,15a5,5,0,1,1,5-5A5,5,0,0,1,107,96Z"/><path class="cls-1" d="M120.31,77.29c-.93.88.24,3.71,2.69,3.71h3.81a19,19,0,0,0-1.44-4C120.83,77,120.7,76.88,120.31,77.29Z"/><rect class="cls-1" x="1" y="75" width="3" height="6"/><polygon class="cls-1" points="92.5 64.71 102.11 60.7 88.74 39 80.57 39 92.5 64.71"/><path class="cls-1" d="M66.06,39A3.06,3.06,0,0,0,63,42.06v19.4L68.3,65H90.43L78.36,39Z"/><path class="cls-1" d="M44,43.94c-13,9.41-12.08,8.87-12.55,8.87s0,.46-9.32-9.2L18.73,59h22Z"/><polygon class="cls-1" points="41.92 43 24.36 43 31.6 50.49 41.92 43"/><path class="cls-1" d="M123,83c-4.22,0-6.32-5-4.11-7.13,1.1-1.12,2.2-.87,5.38-.87a20,20,0,0,0-8.73-7.62C103.73,62,104,62.12,103.92,62.12c-8.89,3.7-11.4,4.69-11.5,4.79C92.11,67,93.69,67,68,67c-.4,0,0,.19-6.55-4.17-.64-.41-.45.92-.45-20.77A5.07,5.07,0,0,1,66.06,37H87.51c-1.48-2.4-.74-1.18-3.11-5.13A10,10,0,0,0,75.8,27H6.93a4.07,4.07,0,0,0-4.06,3.9L1,73H5a1,1,0,0,1,1,1v8a1,1,0,0,1-1,1H1v6.94l8.21,3.28A12,12,0,1,1,32.62,94H95.38a12,12,0,1,1,23.24,0H127V83ZM16.51,59.78l4-18a1,1,0,0,1,1-.78c26.22,0,24.34-.16,24.78.37s.56-.75-3.8,18.85a1,1,0,0,1-1,.78h-24A1,1,0,0,1,16.51,59.78ZM58,69H9a1,1,0,0,1,0-2H58A1,1,0,0,1,58,69Zm10,8H64a1,1,0,0,1,0-2h4A1,1,0,0,1,68,77Z"/></g></svg>