<svg xmlns="http://www.w3.org/2000/svg" viewBox="0 0 128 128"><defs><style>.cls-1{fill:#a0aec0;}</style></defs><title>Motorcycle </title><g id="Motorcycle"><path class="cls-1" d="M64.84,58l-1.54,2c.55-.07-.18,0,10.7,0a6.31,6.31,0,0,1,6,6.57c0,8.26.14,8.75-.41,10.23l9.41-13V56.42A6,6,0,0,1,84.94,58Z"/><path class="cls-1" d="M19,88A10,10,0,0,1,9,78c0-9.55,12.29-13.7,18-6l7.77-2.7a18,18,0,1,0,2,11.66h-8.2A10,10,0,0,1,19,88Z"/><path class="cls-1" d="M104.62,60.54l3.3,7.52a10,10,0,1,1-5.5,2.42L99.13,63c-14.89,9.72-8,33,9.87,33a18,18,0,1,0-4.38-35.46Z"/><path class="cls-1" d="M107,50V38H98a3,3,0,0,0-2.61,1.51L100,50Z"/><path class="cls-1" d="M82.9,40c-18.2,0-15.62-.5-30.9,8v8H84.94A4.06,4.06,0,0,0,89,51.94V46.1A6.1,6.1,0,0,0,82.9,40Z"/><path class="cls-1" d="M15.19,54c11,0,12.16-.32,14.81,1s3.08,1,20,1V48H36.24c-3.94,0-4.54-2-8.48-2H15.19a4,4,0,1,0,0,8Z"/><path class="cls-1" d="M90.63,54h6.75C109,80.47,108.07,79,109,79a1,1,0,0,0,.92-1.4C87.71,27,89.37,30,88.39,30H80a1,1,0,0,0,0,2h7.73L93,44H90.81c-.27,0,.19.19.19,2.1C91,52.05,91.12,52.68,90.63,54Z"/><path class="cls-1" d="M74,62H64a4.32,4.32,0,0,0-4,4.57v7.86A4.32,4.32,0,0,0,64,79H74a4.32,4.32,0,0,0,4-4.57V66.57A4.32,4.32,0,0,0,74,62Z"/><path class="cls-1" d="M39.88,67.57A6.62,6.62,0,0,1,41.81,67l-2.58-9H37.15Z"/><polygon class="cls-1" points="62.34 58 45.34 58 49.84 64 57.84 64 62.34 58"/><path class="cls-1" d="M41.74,69l-23.07,8A1,1,0,0,0,19,79H48V69C41.44,69,41.89,69,41.74,69Z"/><path class="cls-1" d="M58,66.57A5.3,5.3,0,0,1,58,66H50V79h9.7C57.53,76.56,58,74.57,58,66.57Z"/></g></svg>