<svg xmlns="http://www.w3.org/2000/svg" viewBox="0 0 128 128"><defs><style>.cls-1{fill:#a0aec0;}</style></defs><title>Parking Car </title><g id="Parking_Car" data-name="Parking Car"><path class="cls-1" d="M19,10H14v6h5a1,1,0,0,0,1-1V11A1,1,0,0,0,19,10Z"/><path class="cls-1" d="M34,32V3a2,2,0,0,0-2-2H3A2,2,0,0,0,1,3V32a2,2,0,0,0,2,2H32A2,2,0,0,0,34,32ZM22,15a3,3,0,0,1-3,3H14v7a1,1,0,0,1-2,0V9a1,1,0,0,1,1-1h6a3,3,0,0,1,3,3Z"/><rect class="cls-1" x="13" y="103" width="8" height="24"/><rect class="cls-1" x="16" y="36" width="2" height="65"/><circle class="cls-1" cx="46" cy="99" r="5"/><path class="cls-1" d="M117.47,76.67c-.25.25-.44.31-4.09.91C102,79.46,97.33,79,59.83,79c-8.46,0-20.54-1.57-21.3-2.33-11,11.9-9.53,8.77-9.53,32.65a4.06,4.06,0,0,0,3.61,4L47.37,115c71.2,0,56.33.55,76-1.65a4.06,4.06,0,0,0,3.61-4C127,85.56,128.54,88.62,117.47,76.67ZM46,106a7,7,0,1,1,7-7A7,7,0,0,1,46,106Zm49.05,1.56c-.44.66,1.52.44-32.82.44a1,1,0,0,1-.93-1.37C65.64,95.77,65.3,96,66.23,96c25.93,0,24.56-.27,24.92.63C95.43,107.34,95.47,107,95.05,107.56ZM111,106a7,7,0,1,1,7-7A7,7,0,0,1,111,106Z"/><polygon class="cls-1" points="66.9 98 63.7 106 92.75 106 89.55 98 66.9 98"/><circle class="cls-1" cx="111" cy="99" r="5"/><path class="cls-1" d="M103.08,57c5.24,0,5.82,2.27,4.76.08A12.3,12.3,0,0,0,96.68,50H59.15A12.31,12.31,0,0,0,48,57.08l-.49,1C51.15,56.54,49.42,57,103.08,57Z"/><path class="cls-1" d="M96.17,77a102.76,102.76,0,0,0,20.33-2c-9-18.51-6.36-13.84-8-14.68C105,58.49,106.69,59,52.92,59c-3.61,0-5.49,1.52-6.06,1.52s.5-2.11-7.37,14.45C52.54,77.63,59.15,77,96.17,77Z"/><path class="cls-1" d="M34,115.51v7.43A4.08,4.08,0,0,0,38.06,127h7.88A4.08,4.08,0,0,0,50,122.94V117C46.35,117,49.38,117.24,34,115.51Z"/><path class="cls-1" d="M107,117v5.94a4.08,4.08,0,0,0,4.06,4.06h7.88a4.08,4.08,0,0,0,4.06-4.06V115.4C106.58,117.24,109.4,117,107,117Z"/><path class="cls-1" d="M29,70.5v3A2.5,2.5,0,0,0,31.5,76H39V70.5A2.5,2.5,0,0,0,36.5,68h-5A2.5,2.5,0,0,0,29,70.5Z"/><path class="cls-1" d="M124.5,68h-5a2.5,2.5,0,0,0-2.5,2.5V76h7.5a2.5,2.5,0,0,0,2.5-2.5v-3A2.5,2.5,0,0,0,124.5,68Z"/></g></svg>