<svg xmlns="http://www.w3.org/2000/svg" viewBox="0 0 128 128"><defs><style>.cls-1{fill:#a0aec0;}</style></defs><title>Parking Meter</title><g id="Parking_Meter" data-name="Parking Meter"><rect class="cls-1" x="60" y="97" width="8" height="30"/><path class="cls-1" d="M42,31V65.63L50.18,86H77.82L86,65.63V31ZM55,50a1,1,0,0,1-2,0V44a1,1,0,0,1,2,0Zm9,19H61v7a1,1,0,0,1-2,0V60a1,1,0,0,1,1-1h4a5,5,0,0,1,0,10ZM76,47H64a1,1,0,0,1,0-2H76A1,1,0,0,1,76,47Z"/><path class="cls-1" d="M64,61H61v6h3a3,3,0,0,0,0-6Z"/><path class="cls-1" d="M54,91a4,4,0,0,0,4,4H70a4,4,0,0,0,4-4V88H54Z"/><path class="cls-1" d="M68.59,29H84.9a21,21,0,0,0-41.8,0H59.41A5,5,0,0,1,63,26.1V19a1,1,0,0,1,2,0v7.1A5,5,0,0,1,68.59,29Z"/><path class="cls-1" d="M88,49V30a1,1,0,0,0-1.09-1,23,23,0,0,0-45.82,0A1,1,0,0,0,40,30V49C25.43,29.61,38.93,1,64,1S102.6,29.58,88,49Z"/></g></svg>