<svg xmlns="http://www.w3.org/2000/svg" viewBox="0 0 128 128"><defs><style>.cls-1{fill:#a0aec0;}</style></defs><title>Pickup</title><g id="Pickup"><rect class="cls-1" x="1" y="62" width="3" height="4"/><path class="cls-1" d="M1,60H5a1,1,0,0,1,1,1v6a1,1,0,0,1-1,1H1v8.19L11,77.7A12,12,0,0,1,35,78H50V55H1Z"/><polygon class="cls-1" points="123 68 126.85 68 126.25 65 123 65 123 68"/><polygon class="cls-1" points="63 57 88.3 57 95.09 55.3 83.79 44 63 44 63 57"/><path class="cls-1" d="M122,70a1,1,0,0,1-1-1V64a1,1,0,0,1,1-1h3.85l-.29-1.47a4.12,4.12,0,0,0-3.73-3.28c-30.72-2.2-22.9-1.89-25-1.31-9,2.25-8,2-8.37,2.06H62a1,1,0,0,1-1-1V43a1,1,0,0,1,1-1H81.79c-1-1-1.82-2-3.7-2H57.35a4.16,4.16,0,0,0-4,3.69L51.87,54.52c.19.29.13-1.25.13,23.48H97a12,12,0,0,1,24,0h6V70ZM68,68H64a1,1,0,0,1,0-2h4A1,1,0,0,1,68,68Z"/><circle class="cls-1" cx="23" cy="78" r="3"/><path class="cls-1" d="M23,68A10,10,0,1,0,33,78,10,10,0,0,0,23,68Zm0,15a5,5,0,1,1,5-5A5,5,0,0,1,23,83Z"/><circle class="cls-1" cx="109" cy="78" r="3"/><path class="cls-1" d="M109,68a10,10,0,1,0,10,10A10,10,0,0,0,109,68Zm0,15a5,5,0,1,1,5-5A5,5,0,0,1,109,83Z"/></g></svg>