<svg xmlns="http://www.w3.org/2000/svg" viewBox="0 0 128 128"><defs><style>.cls-1{fill:#a0aec0;}</style></defs><title>Plane</title><g id="Plane"><path class="cls-1" d="M120.77,67H110.2l-2-2h9.67C120.67,67,120.13,66.6,120.77,67Z"/><path class="cls-1" d="M125.07,69c-16.63,0-15.55.12-16-.29-4.21-4.21-4.56-4.27-4.21-5.09s.21-.62,10-.62a28.35,28.35,0,0,0-14.52-4c-83.71,0-61.86-.58-94.89,1.75a3.69,3.69,0,0,0-1,7.15L31.08,78.16A5,5,0,0,1,36,74H69a5,5,0,0,1,5,5c29.35,0,36.19.4,48.79-1.4A4.8,4.8,0,0,0,125.07,69ZM45,69a1,1,0,0,1-2,0V67a1,1,0,0,1,2,0Zm6,0a1,1,0,0,1-2,0V67a1,1,0,0,1,2,0Zm6,0a1,1,0,0,1-2,0V67a1,1,0,0,1,2,0Zm6,0a1,1,0,0,1-2,0V67a1,1,0,0,1,2,0Zm6,0a1,1,0,0,1-2,0V67a1,1,0,0,1,2,0Zm6,0a1,1,0,0,1-2,0V67a1,1,0,0,1,2,0Zm6,0a1,1,0,0,1-2,0V67a1,1,0,0,1,2,0Zm6,0a1,1,0,0,1-2,0V67a1,1,0,0,1,2,0Zm6,0a1,1,0,0,1-2,0V67a1,1,0,0,1,2,0Z"/><polygon class="cls-1" points="24.47 57.4 5.93 58.72 1 39 9.13 39 24.47 57.4"/><path class="cls-1" d="M69,82H36a3,3,0,0,1,0-6H69a3,3,0,0,1,0,6Z"/><path class="cls-1" d="M78,84.94A4.08,4.08,0,0,1,73.94,89H68L54,85V84H69a5,5,0,0,0,4.59-3h3.83C78.14,82.19,78,83.09,78,84.94Z"/></g></svg>