<svg xmlns="http://www.w3.org/2000/svg" viewBox="0 0 128 128"><defs><style>.cls-1{fill:#a0aec0;}</style></defs><title>Police</title><g id="Police"><circle class="cls-1" cx="25" cy="91" r="3"/><path class="cls-1" d="M25,81A10,10,0,1,0,35,91,10,10,0,0,0,25,81Zm0,15a5,5,0,1,1,5-5A5,5,0,0,1,25,96Z"/><circle class="cls-1" cx="107" cy="91" r="3"/><path class="cls-1" d="M107,81a10,10,0,1,0,10,10A10,10,0,0,0,107,81Zm0,15a5,5,0,1,1,5-5A5,5,0,0,1,107,96Z"/><rect class="cls-1" x="1" y="74" width="5" height="6"/><path class="cls-1" d="M122,79v2a1,1,0,0,0,1,1h4V78h-4A1,1,0,0,0,122,79Z"/><polygon class="cls-1" points="32.82 60.86 35.96 64 40.88 64 43.88 53 39.09 53 32.82 60.86"/><path class="cls-1" d="M123.74,70.87,101.58,66h-66c-.61,0-.51-.09-4.77-4.36a1,1,0,0,1-.08-1.33L38.13,51H80.45a8.09,8.09,0,0,0-5.33-2H36.59a8.14,8.14,0,0,0-5.38,2L17.26,63.33l-12.7,1.6A4.07,4.07,0,0,0,1,69v3H7a1,1,0,0,1,1,1v8a1,1,0,0,1-1,1H1v8l12,.9A12,12,0,0,1,37,91H95a12,12,0,0,1,24,0h8V84h-4a3,3,0,0,1-3-3V79a3,3,0,0,1,3-3h4V74.85A4.06,4.06,0,0,0,123.74,70.87ZM72,74H68a1,1,0,0,1,0-2h4A1,1,0,0,1,72,74Z"/><polygon class="cls-1" points="65 64 95.82 64 82.82 53 65 53 65 64"/><polygon class="cls-1" points="63 53 45.94 53 42.96 64 63 64 63 53"/><path class="cls-1" d="M61,41c-5.72,0-5.19.3-8,6h8Z"/><path class="cls-1" d="M63,47h8c-2.91-5.8-2.4-6-8-6Z"/><path class="cls-1" d="M63,32V28a1,1,0,0,0-2,0v4A1,1,0,0,0,63,32Z"/><path class="cls-1" d="M72,37.63c.55,0,.45,0,3.58-3.16a1,1,0,0,0-1.42-1.42l-2.87,2.88A1,1,0,0,0,72,37.63Z"/><path class="cls-1" d="M51.2,37.34a1,1,0,0,0,1.42-1.41l-2.88-2.88a1,1,0,0,0-1.41,1.42Z"/></g></svg>