<svg xmlns="http://www.w3.org/2000/svg" viewBox="0 0 128 128"><defs><style>.cls-1{fill:#a0aec0;}</style></defs><title>Road</title><g id="Road"><path class="cls-1" d="M36.24,1c-22.58,129.17-22,125.82-22,126H1L29.45,1Z"/><path class="cls-1" d="M66.64,14.23H61.36L61.65,1c0-.1,0,0,4.7,0C66.35,2.3,66.25-3.7,66.64,14.23Z"/><polygon class="cls-1" points="67.35 46.74 60.65 46.74 61.14 24.35 66.86 24.35 67.35 46.74"/><path class="cls-1" d="M67.61,58.9H60.39l-.71,32.55h8.64Zm1.06,48.78H59.33L58.9,127H69.1ZM67.61,58.9H60.39l-.71,32.55h8.64ZM111.76,127C89.13-2.43,89.75,1.18,89.75,1H68.35l.31,14.2a1,1,0,0,1-1,1c-7.82,0-7.62.12-8-.31s-.32.58,0-14.92C36.53,1,38.28.92,38.24,1.17L16.24,127H56.9c0-2-.16,7.23.45-20.34a1,1,0,0,1,1-1h11.3a1,1,0,0,1,1,1L71.1,127C71.1,127.08,70.2,127,111.76,127ZM59.16,23.33a1,1,0,0,1,1-1h7.68a1,1,0,0,1,1,1l.53,24.39a1,1,0,0,1-1,1c-9.36,0-9.05.12-9.45-.3S58.58,50,59.16,23.33Zm10.9,69.82c-.42.42.11.3-11.4.3a1,1,0,0,1-1-1l.75-34.55a1,1,0,0,1,1-1h9.18a1,1,0,0,1,1,1C70.39,94.67,70.5,92.71,70.06,93.15ZM60.39,58.9l-.71,32.55h8.64L67.61,58.9Zm7.22,0H60.39l-.71,32.55h8.64Zm0,0H60.39l-.71,32.55h8.64Z"/><path class="cls-1" d="M127,127c-14.72,0-13.2.07-13.24-.17L91.76,1h6.79Z"/></g></svg>