<svg xmlns="http://www.w3.org/2000/svg" viewBox="0 0 128 128"><defs><style>.cls-1{fill:#a0aec0;}</style></defs><title>Route</title><g id="Route"><path class="cls-1" d="M28.45,21.32a7.13,7.13,0,1,0-7.13,7.13A7.14,7.14,0,0,0,28.45,21.32Z"/><path class="cls-1" d="M21.32,53.84S41.65,37.58,41.65,21.32A20.33,20.33,0,0,0,1,21.32C1,37.58,21.32,53.84,21.32,53.84ZM12.19,21.32a9.13,9.13,0,1,1,9.13,9.13A9.15,9.15,0,0,1,12.19,21.32Z"/><path class="cls-1" d="M22.57,55.4c-.6.48-1.16,1.07-1.87.5A65.05,65.05,0,0,1,15.19,51c-7.81,3.54-3.48,11,6.13,11s13.89-7.44,6.13-11C24.8,53.6,22.83,55.2,22.57,55.4Z"/><path class="cls-1" d="M119.84,115.08v3.79a3,3,0,0,1-6,0v-3.79c-4.15.77-7.16,3.09-7.16,5.82,0,3.37,4.55,6.1,10.16,6.1S127,124.27,127,120.9C127,118.17,124,115.85,119.84,115.08Z"/><ellipse class="cls-1" cx="56" cy="88" rx="10" ry="6"/><ellipse class="cls-1" cx="34" cy="121" rx="10" ry="6"/><path class="cls-1" d="M115.84,118.87a1,1,0,0,0,2,0V80.26a1,1,0,0,0-2,0H98.55V94.48h17.29Z"/><path class="cls-1" d="M18.5,87C2.91,87-4.82,105.87,6.12,116.88c5.43,5.4,11,5.12,16,5.12a5.6,5.6,0,0,1,0-2c-4.75,0-9.66.35-14.55-4.54C-2.19,105.73,4.75,89,18.5,89H44.09a5.6,5.6,0,0,1,0-2Z"/><path class="cls-1" d="M33.36,57H72c13.38,0,20,16.21,10.61,25.61-4.92,4.9-10,4.39-14.7,4.39a5.6,5.6,0,0,1,0,2c5.27,0,10.68.44,16.12-5C94.67,73.32,87.1,55,72,55H33.41A5.45,5.45,0,0,1,33.36,57Z"/><path class="cls-1" d="M104.75,120H45.91a5.6,5.6,0,0,1,0,2h58.88A5.65,5.65,0,0,1,104.75,120Z"/></g></svg>