<svg xmlns="http://www.w3.org/2000/svg" viewBox="0 0 128 128"><defs><style>.cls-1{fill:#a0aec0;}</style></defs><title>Sailboat</title><g id="Sailboat"><path class="cls-1" d="M5.06,109,1,119H84a1,1,0,0,1,0,2H9.64l1.52,6H82.29c14.23,0,38.61-12,44.71-24Z"/><path class="cls-1" d="M63,10.71V81h50.81C102.42,49.38,86.31,25.91,63,10.71Z"/><path class="cls-1" d="M57,31.26A195.31,195.31,0,0,1,28,81H57Z"/><polygon class="cls-1" points="57 2.5 35.61 6.06 57 13.19 57 2.5"/><path class="cls-1" d="M25,85H59v5h2V85h54a1,1,0,0,0,0-2H61V2a1,1,0,0,0-2,0V83H25A1,1,0,0,0,25,85Z"/><polygon class="cls-1" points="69 103.85 95.91 102.53 85.97 92 69 92 69 103.85"/><path class="cls-1" d="M21,94h4v12L67,104V92H21A1,1,0,0,0,21,94Zm29,4a2,2,0,1,1-2,2A2,2,0,0,1,50,98Zm-8,0a2,2,0,1,1-2,2A2,2,0,0,1,42,98Zm-8,0a2,2,0,1,1-2,2A2,2,0,0,1,34,98Z"/></g></svg>