<svg xmlns="http://www.w3.org/2000/svg" viewBox="0 0 128 128"><defs><style>.cls-1{fill:#a0aec0;}</style></defs><title>School Bus</title><g id="School_Bus" data-name="School Bus"><circle class="cls-1" cx="19" cy="84" r="2"/><path class="cls-1" d="M19,76a8,8,0,1,0,8,8A8,8,0,0,0,19,76Zm0,12a4,4,0,1,1,4-4A4,4,0,0,1,19,88Z"/><circle class="cls-1" cx="111" cy="84" r="2"/><path class="cls-1" d="M111,76a8,8,0,1,0,8,8A8,8,0,0,0,111,76Zm0,12a4,4,0,1,1,4-4A4,4,0,0,1,111,88Z"/><rect class="cls-1" x="1" y="69" width="5" height="6"/><rect class="cls-1" x="124" y="71" width="3" height="2"/><polygon class="cls-1" points="101 59 106.9 59 105.65 47 101 47 101 59"/><rect class="cls-1" x="59" y="47" width="10" height="12"/><rect class="cls-1" x="35" y="47" width="10" height="12"/><rect class="cls-1" x="47" y="47" width="10" height="12"/><rect class="cls-1" x="79" y="47" width="16" height="34"/><rect class="cls-1" x="22" y="47" width="11" height="12"/><path class="cls-1" d="M122,73V71a2,2,0,0,1,2-2h3a6.09,6.09,0,0,0-4.9-5.65C108.78,60.39,114.58,61,100,61a1,1,0,0,1-1-1V46a1,1,0,0,1,1-1h5.46L105,39.7a4.07,4.07,0,0,0-4-3.7H5.06A4.06,4.06,0,0,0,1,40.06V67H7a1,1,0,0,1,1,1v8a1,1,0,0,1-1,1H1v7H9a10,10,0,1,1,20,.17l72,.66A10,10,0,1,1,121,85h6V75h-3A2,2,0,0,1,122,73ZM70,69H15a1,1,0,0,1,0-2H70A1,1,0,0,1,70,69Zm1-9a1,1,0,0,1-1,1H9a1,1,0,0,1-1-1V46a1,1,0,0,1,1-1H70a1,1,0,0,1,1,1ZM97,82a1,1,0,0,1-1,1H78a1,1,0,0,1-1-1V46a1,1,0,0,1,1-1H96a1,1,0,0,1,1,1Z"/><rect class="cls-1" x="10" y="47" width="10" height="12"/></g></svg>