<svg xmlns="http://www.w3.org/2000/svg" viewBox="0 0 128 128"><defs><style>.cls-1{fill:#a0aec0;}</style></defs><title>Scooter</title><g id="Scooter"><path class="cls-1" d="M29.45,67.65c-20.24,0-26,16.76-27.2,21.35h38.6C43.16,78.06,41.05,67.65,29.45,67.65Z"/><path class="cls-1" d="M102.53,68.55c.65-8.71-2.18-21.87-8.86-33.55H86.86c1.42,5.93,5.28,23.64,3.6,33.74C88.42,81,74.11,81,74.11,81H61c-5.1,0-12-4-12-12,0-5.22,4.26-9.59,7.22-12H17v4C7.87,67.49,3.87,77.17,2.17,83.28c3.19-7.13,10.7-17.63,27.28-17.63,12.72,0,15.92,11,13.45,23.35,39.26,0,41.39.74,47.58-2.2C91.74,76.89,96.62,71.05,102.53,68.55Z"/><path class="cls-1" d="M105.48,82a11.33,11.33,0,0,1,7.25-3h14a17.23,17.23,0,0,0-16-10c-16,0-18,16-18,16C97.86,85,101.36,85.52,105.48,82Z"/><path class="cls-1" d="M17,55H59a4,4,0,0,0,4-4,6,6,0,0,0-6-6H52.1c-9,0-11.17-2-20.2-2H17a4,4,0,0,0-4,4v4A4,4,0,0,0,17,55Z"/><path class="cls-1" d="M11.48,63H5L1,67v6H4.09A40.14,40.14,0,0,1,11.48,63Z"/><path class="cls-1" d="M77,29h5v2a2,2,0,0,0,2,2H98V21H86a4,4,0,0,0-4,4H77a2,2,0,0,0,0,4Z"/><path class="cls-1" d="M26.59,91H17.41A5,5,0,0,0,26.59,91Z"/><path class="cls-1" d="M15.29,91H8.14a14,14,0,0,0,27.72,0H28.71A7,7,0,0,1,15.29,91Z"/><circle class="cls-1" cx="111" cy="89" r="5"/><path class="cls-1" d="M107.51,82.93a7,7,0,1,1-1.6,1.28A14.06,14.06,0,0,1,97.15,87a14,14,0,1,0,25.33-6C112.49,81,110.91,80.4,107.51,82.93Z"/></g></svg>