<svg xmlns="http://www.w3.org/2000/svg" viewBox="0 0 128 128"><defs><style>.cls-1{fill:#a0aec0;}</style></defs><title>Sedan</title><g id="Sedan"><path class="cls-1" d="M39.52,43l-6.85,8.08L34.13,54h6.95l2.75-11Zm6.38,0L43.15,54H63V43Zm-6.38,0-6.85,8.08L34.13,54h6.95l2.75-11Zm43.16,0H65V54H94.94ZM125.5,68a1.5,1.5,0,0,0,0,3H127V68Zm.1-2H127V64.9a4.06,4.06,0,0,0-3.26-4L99.39,56c-70.17,0-66.36.28-66.77-.55-2.12-4.25-2.47-4.51-1.9-5.16l7.58-8.94c.44-.52-2-.35,42.14-.35a8.07,8.07,0,0,0-5.33-2H36.59a8,8,0,0,0-5.38,2L17.26,53.37,4.56,55A4.07,4.07,0,0,0,1,59v2H7a1,1,0,0,1,1,1v8a1,1,0,0,1-1,1H1v5l12,2.62A12,12,0,0,1,37,79H95a12,12,0,0,1,24,0h8V73h-1.5a3.49,3.49,0,0,1-3.42-4.23A3.56,3.56,0,0,1,125.6,66ZM72,65H68a1,1,0,0,1,0-2h4A1,1,0,0,1,72,65ZM1,63v6H6V63ZM45.9,43,43.15,54H63V43Zm-6.38,0-6.85,8.08L34.13,54h6.95l2.75-11Zm0,0-6.85,8.08L34.13,54h6.95l2.75-11Zm6.38,0L43.15,54H63V43Zm-6.38,0-6.85,8.08L34.13,54h6.95l2.75-11Zm6.38,0L43.15,54H63V43Z"/><circle class="cls-1" cx="25" cy="79" r="4"/><path class="cls-1" d="M25,69A10,10,0,1,0,35,79,10,10,0,0,0,25,69Zm0,16a6,6,0,1,1,6-6A6,6,0,0,1,25,85Z"/><circle class="cls-1" cx="107" cy="79" r="4"/><path class="cls-1" d="M107,69a10,10,0,1,0,10,10A10,10,0,0,0,107,69Zm0,16a6,6,0,1,1,6-6A6,6,0,0,1,107,85Z"/></g></svg>