<svg xmlns="http://www.w3.org/2000/svg" viewBox="0 0 128 128"><defs><style>.cls-1{fill:#a0aec0;}</style></defs><title>Segway</title><g id="Segway"><path class="cls-1" d="M49.77,93.45a9.16,9.16,0,1,0,9.17,9.16A9.17,9.17,0,0,0,49.77,93.45Z"/><path class="cls-1" d="M66,84.42a24.44,24.44,0,0,0-33.43.86C17.25,100.56,28,127,49.77,127,72.2,127,82.59,99.26,66,84.42ZM49.77,113.77a11.16,11.16,0,1,1,11.17-11.16A11.17,11.17,0,0,1,49.77,113.77Z"/><path class="cls-1" d="M67,82.62a26.43,26.43,0,0,1,7.16,9.94V68.06H67Z"/><path class="cls-1" d="M94.48,2C93.41,2,95-1.2,69.8,66h2.14L95.18,4h5.56a3.87,3.87,0,0,1,0-2Z"/><path class="cls-1" d="M104.65,1a2,2,0,1,0,2,2A2,2,0,0,0,104.65,1Z"/><path class="cls-1" d="M65,81.06V72.13H21.32v8.13l9.34,4.16C37.81,75.94,53.35,72.81,65,81.06Z"/><path class="cls-1" d="M35.55,65H51.81a5.1,5.1,0,0,1,5.09,5.13h2A7.09,7.09,0,0,0,51.81,63H35.55a7.11,7.11,0,0,0-7.1,7.13h2A5.1,5.1,0,0,1,35.55,65Z"/></g></svg>