<svg xmlns="http://www.w3.org/2000/svg" viewBox="0 0 128 128"><defs><style>.cls-1{fill:#a0aec0;}</style></defs><title>Sport Coupe</title><g id="Sport_Coupe" data-name="Sport Coupe"><circle class="cls-1" cx="21" cy="74" r="5"/><path class="cls-1" d="M21,64A10,10,0,1,0,31,74,10,10,0,0,0,21,64Zm0,17a7,7,0,1,1,7-7A7,7,0,0,1,21,81Z"/><circle class="cls-1" cx="103" cy="74" r="5"/><path class="cls-1" d="M103,64a10,10,0,1,0,10,10A10,10,0,0,0,103,64Zm0,17a7,7,0,1,1,7-7A7,7,0,0,1,103,81Z"/><path class="cls-1" d="M7.5,63H1V59H7.5a.5.5,0,0,1,.5.5C8,62.5,8.17,63,7.5,63Z"/><path class="cls-1" d="M127,66.68c0,.45.79.32-5.38.32l-1-2h6.2A7.79,7.79,0,0,1,127,66.68Z"/><path class="cls-1" d="M35.25,53.49c8.2-9.57,7.82-9,7.82-9.49,20.19,0,20.22-.22,23.27.72l28,8.6C80.89,55.56,91.51,55,39.77,55Z"/><path class="cls-1" d="M121,69c-.82,0-.79-.34-2.89-4.55A1,1,0,0,1,119,63h7.11a8.11,8.11,0,0,0-5.67-4.29c-21.9-4.32-21.71-4.3-21.81-4.3l-2,.56c-13.08,2.18-12.14,2-12.3,2-48,0-44.74,0-45,0-6.57-2.19-6.53-2-6.73-2.71S32.09,54.1,40.75,44a17.64,17.64,0,0,0-5.24.56C12,50.88,16.8,50,10.53,50L6.85,44H1V57H7.5A2.5,2.5,0,0,1,10,59.5v3A2.5,2.5,0,0,1,7.5,65H1v9.16l8.13,1.63a12,12,0,1,1,23.68.36L91.18,76a12,12,0,1,1,23.65,0h6.07l6.1-4.06V69ZM46,63H42a1,1,0,0,1,0-2h4A1,1,0,0,1,46,63Z"/></g></svg>