<svg xmlns="http://www.w3.org/2000/svg" viewBox="0 0 128 128"><defs><style>.cls-1{fill:#a0aec0;}</style></defs><title>Stop Sign</title><g id="Stop_Sign" data-name="Stop Sign"><path class="cls-1" d="M70,41a3,3,0,0,0-3,3v8a3,3,0,0,0,6,0V44A3,3,0,0,0,70,41Zm0,0a3,3,0,0,0-3,3v8a3,3,0,0,0,6,0V44A3,3,0,0,0,70,41Zm9.33-31H48.67L27,31.67V62.33L48.67,84H79.33L101,62.33V31.67ZM46,41H41.65a3,3,0,0,0,0,6,5,5,0,1,1,0,10H38a1,1,0,0,1,0-2h3.65a3,3,0,1,0,0-6,5,5,0,0,1,0-10H46A1,1,0,0,1,46,41Zm14,0H57V56a1,1,0,0,1-2,0V41H52a1,1,0,0,1,0-2h8A1,1,0,0,1,60,41ZM75,52a5,5,0,0,1-10,0V44a5,5,0,0,1,10,0Zm11-3H83v7a1,1,0,0,1-2,0V40a1,1,0,0,1,1-1h4a5,5,0,0,1,0,10Zm0-8H83v6h3a3,3,0,0,0,0-6ZM70,41a3,3,0,0,0-3,3v8a3,3,0,0,0,6,0V44A3,3,0,0,0,70,41Zm0,0a3,3,0,0,0-3,3v8a3,3,0,0,0,6,0V44A3,3,0,0,0,70,41Zm0,0a3,3,0,0,0-3,3v8a3,3,0,0,0,6,0V44A3,3,0,0,0,70,41Z"/><path class="cls-1" d="M83.05,1H45L18,28v38.1L45,93h38.1l27-26.95V28Zm20,61.74c0,.62,1.52-1.1-22.55,23-.45.43,2,.29-32.19.29-.62,0,1.1,1.52-23-22.55-.43-.45-.29,2-.29-32.19,0-.62-1.52,1.1,22.55-23C48,7.86,45.56,8,79.74,8c.62,0-1.1-1.52,23,22.55C103.14,31,103,28.56,103,62.74Z"/><rect class="cls-1" x="58" y="95" width="12" height="32"/></g></svg>