<svg xmlns="http://www.w3.org/2000/svg" viewBox="0 0 128 128"><defs><style>.cls-1{fill:#a0aec0;}</style></defs><title>Subway Train</title><g id="Subway_Train" data-name="Subway Train"><path class="cls-1" d="M119.63,62h6.47c-.76-3.5-1.28-4.62-6-18h-5.82Z"/><polygon class="cls-1" points="98 44 98 56 107.67 56 104.25 44 98 44"/><rect class="cls-1" x="8" y="44" width="12" height="26"/><rect class="cls-1" x="22" y="44" width="10" height="12"/><rect class="cls-1" x="1" y="44" width="5" height="26"/><rect class="cls-1" x="34" y="44" width="10" height="12"/><path class="cls-1" d="M65,79H83l2,2h42c0-5.62.19-3.45-.71-4.35A15.78,15.78,0,0,0,115.06,72H80a1,1,0,0,1,0-2h35.06A17.76,17.76,0,0,1,127,74.57,56.81,56.81,0,0,0,126.47,64h-7.59a1,1,0,0,1-1-.71l-6-20a1,1,0,0,1,1-1.29h6.46l-.57-1.61A8.13,8.13,0,0,0,111.11,35H1v7c110.83,0,104.64-.41,105,.73l4,14A1,1,0,0,1,109,58H74V71a1,1,0,0,1-1,1H45a1,1,0,0,1-1-1V58H22V71a1,1,0,0,1-1,1H1v9H63ZM39,72H26a1,1,0,0,1,0-2H39A1,1,0,0,1,39,72Z"/><rect class="cls-1" x="86" y="44" width="10" height="12"/><rect class="cls-1" x="74" y="44" width="10" height="12"/><rect class="cls-1" x="60" y="44" width="12" height="26"/><rect class="cls-1" x="46" y="44" width="12" height="26"/><circle class="cls-1" cx="68" cy="86" r="6"/><circle class="cls-1" cx="80" cy="86" r="6"/><path class="cls-1" d="M127,92H1a1,1,0,0,0,0,2H127A1,1,0,0,0,127,92Z"/></g></svg>