<svg xmlns="http://www.w3.org/2000/svg" viewBox="0 0 128 128"><defs><style>.cls-1{fill:#a0aec0;}</style></defs><title>SUV</title><g id="SUV"><circle class="cls-1" cx="23" cy="79" r="3"/><path class="cls-1" d="M23,67A12,12,0,1,0,35,79,12,12,0,0,0,23,67Zm0,17a5,5,0,1,1,5-5A5,5,0,0,1,23,84Z"/><circle class="cls-1" cx="105" cy="79" r="3"/><path class="cls-1" d="M105,67a12,12,0,1,0,12,12A12,12,0,0,0,105,67Zm0,17a5,5,0,1,1,5-5A5,5,0,0,1,105,84Z"/><path class="cls-1" d="M122,66c-1.7,0-1.13,3,1,3h4V66Z"/><rect class="cls-1" x="1" y="60" width="5" height="8"/><polygon class="cls-1" points="61 56 86.19 56 91.93 53.91 80.71 44 61 44 61 56"/><path class="cls-1" d="M119,67a3,3,0,0,1,3-3h4.76a7.91,7.91,0,0,0-6.6-5.9L95.42,54.77C85.91,58.22,86.61,58,86.35,58c-71.41,0-67.53.29-67.95-.55-2.19-4.36-2.37-4.4-2-5C23.44,40.37,22.27,42,23,42H78.45C75.7,39.58,73,40,69,40a4.71,4.71,0,0,0-4.69-5H26.69A4.71,4.71,0,0,0,22,40c-2.42,0-4.77,0-7.13,2.41L1,56.42V58H7a1,1,0,0,1,1,1V69a1,1,0,0,1-1,1H1v7l8,1.62A14,14,0,0,1,37,79H91a14,14,0,0,1,28,0h3.94L127,74.89V71h-4A4,4,0,0,1,119,67ZM24,39.69A2.7,2.7,0,0,1,26.69,37H64.31A2.72,2.72,0,0,1,67,40C20.35,40,24,40.18,24,39.69ZM68,64H64a1,1,0,0,1,0-2h4A1,1,0,0,1,68,64Z"/><rect class="cls-1" x="39" y="44" width="20" height="12"/><polygon class="cls-1" points="19.91 56 37 56 37 44 23.62 44 18.39 52.97 19.91 56"/></g></svg>