<svg xmlns="http://www.w3.org/2000/svg" viewBox="0 0 128 128"><defs><style>.cls-1{fill:#a0aec0;}</style></defs><title>Taxi</title><g id="Taxi"><circle class="cls-1" cx="25" cy="84" r="4"/><path class="cls-1" d="M25,74A10,10,0,1,0,35,84,10,10,0,0,0,25,74Zm0,16a6,6,0,1,1,6-6A6,6,0,0,1,25,90Z"/><circle class="cls-1" cx="107" cy="84" r="4"/><path class="cls-1" d="M107,74a10,10,0,1,0,10,10A10,10,0,0,0,107,74Zm0,16a6,6,0,1,1,6-6A6,6,0,0,1,107,90Z"/><rect class="cls-1" x="1" y="67" width="5" height="6"/><path class="cls-1" d="M122,72a1,1,0,0,0,1,1h4V71h-5Z"/><polygon class="cls-1" points="63 45 45.9 45 42.91 57 63 57 63 45"/><polygon class="cls-1" points="65 57 96.1 57 82.7 45 65 45 65 57"/><path class="cls-1" d="M123.74,62.87,104.54,59H41.3a14.77,14.77,0,0,1-10.52-4.36,1,1,0,0,1-.09-1.32l7.74-9.94c.47-.59-2.23-.38,42-.38a8.09,8.09,0,0,0-5.33-2H36.59a8.14,8.14,0,0,0-5.38,2L17.26,55.33l-12.7,1.6A4.07,4.07,0,0,0,1,61v4H7a1,1,0,0,1,1,1v8a1,1,0,0,1-1,1H1v7l12,1.76A12,12,0,0,1,37,84H95a12,12,0,0,1,24,0h8V75h-4a3,3,0,0,1-3-3V70a1,1,0,0,1,1-1h6V66.85A4.06,4.06,0,0,0,123.74,62.87ZM72,67H68a1,1,0,0,1,0-2h4A1,1,0,0,1,72,67Z"/><path class="cls-1" d="M32.83,53.83a12.8,12.8,0,0,0,8,3.16l3-12H39.7Z"/><polygon class="cls-1" points="59.89 34 53.89 34 52.46 39 61.32 39 59.89 34"/></g></svg>