<svg xmlns="http://www.w3.org/2000/svg" viewBox="0 0 128 128"><defs><style>.cls-1{fill:#a0aec0;}</style></defs><title>Ticket Bus</title><g id="Ticket_Bus" data-name="Ticket Bus"><path class="cls-1" d="M90,38V48h26V38Zm0,0V48h26V38ZM55.89,39H27.11A3.11,3.11,0,0,0,24,42.11V46H59V42.11A3.11,3.11,0,0,0,55.89,39ZM90,38V48h26V38Zm0,0V48h26V38ZM24,48V64H59V48Zm31.89-9H27.11A3.11,3.11,0,0,0,24,42.11V46H59V42.11A3.11,3.11,0,0,0,55.89,39Zm0,0H27.11A3.11,3.11,0,0,0,24,42.11V46H59V42.11A3.11,3.11,0,0,0,55.89,39ZM90,38V48h26V38Zm0,0V48h26V38ZM24,48V64H59V48Zm31.89-9H27.11A3.11,3.11,0,0,0,24,42.11V46H59V42.11A3.11,3.11,0,0,0,55.89,39Zm0,0H27.11A3.11,3.11,0,0,0,24,42.11V46H59V42.11A3.11,3.11,0,0,0,55.89,39ZM90,38V48h26V38Zm0,0V48h26V38ZM29,72a1,1,0,0,0,0,2A1,1,0,0,0,29,72Zm25,0a1,1,0,0,0,0,2A1,1,0,0,0,54,72Zm0,0a1,1,0,0,0,0,2A1,1,0,0,0,54,72ZM29,72a1,1,0,0,0,0,2A1,1,0,0,0,29,72Zm-5-6V78H59V66Zm5,10a3,3,0,1,1,3-3A3,3,0,0,1,29,76Zm17-2H37a1,1,0,0,1,0-2h9A1,1,0,0,1,46,74Zm8,2a3,3,0,1,1,3-3A3,3,0,0,1,54,76Zm0-4a1,1,0,0,0,0,2A1,1,0,0,0,54,72ZM29,72a1,1,0,0,0,0,2A1,1,0,0,0,29,72Zm0,0a1,1,0,0,0,0,2A1,1,0,0,0,29,72Zm0,0a1,1,0,0,0,0,2A1,1,0,0,0,29,72ZM24,48V64H59V48Zm31.89-9H27.11A3.11,3.11,0,0,0,24,42.11V46H59V42.11A3.11,3.11,0,0,0,55.89,39Zm0,0H27.11A3.11,3.11,0,0,0,24,42.11V46H59V42.11A3.11,3.11,0,0,0,55.89,39ZM90,38V48h26V38Zm0,0V48h26V38ZM29,72a1,1,0,0,0,0,2A1,1,0,0,0,29,72Zm25,0a1,1,0,0,0,0,2A1,1,0,0,0,54,72Zm0,0a1,1,0,0,0,0,2A1,1,0,0,0,54,72ZM29,72a1,1,0,0,0,0,2A1,1,0,0,0,29,72Zm-5-6V78H59V66Zm5,10a3,3,0,1,1,3-3A3,3,0,0,1,29,76Zm17-2H37a1,1,0,0,1,0-2h9A1,1,0,0,1,46,74Zm8,2a3,3,0,1,1,3-3A3,3,0,0,1,54,76Zm0-4a1,1,0,0,0,0,2A1,1,0,0,0,54,72ZM29,72a1,1,0,0,0,0,2A1,1,0,0,0,29,72Zm0,0a1,1,0,0,0,0,2A1,1,0,0,0,29,72Zm0,0a1,1,0,0,0,0,2A1,1,0,0,0,29,72ZM24,48V64H59V48Zm31.89-9H27.11A3.11,3.11,0,0,0,24,42.11V46H59V42.11A3.11,3.11,0,0,0,55.89,39Zm0,0H27.11A3.11,3.11,0,0,0,24,42.11V46H59V42.11A3.11,3.11,0,0,0,55.89,39ZM90,38V48h26V38Zm0,0V48h26V38ZM29,72a1,1,0,0,0,0,2A1,1,0,0,0,29,72Zm25,0a1,1,0,0,0,0,2A1,1,0,0,0,54,72Zm0,0a1,1,0,0,0,0,2A1,1,0,0,0,54,72ZM29,72a1,1,0,0,0,0,2A1,1,0,0,0,29,72Zm-5-6V78H59V66Zm5,10a3,3,0,1,1,3-3A3,3,0,0,1,29,76Zm17-2H37a1,1,0,0,1,0-2h9A1,1,0,0,1,46,74Zm8,2a3,3,0,1,1,3-3A3,3,0,0,1,54,76Zm0-4a1,1,0,0,0,0,2A1,1,0,0,0,54,72ZM29,72a1,1,0,0,0,0,2A1,1,0,0,0,29,72Zm0,0a1,1,0,0,0,0,2A1,1,0,0,0,29,72Zm0,0a1,1,0,0,0,0,2A1,1,0,0,0,29,72ZM24,48V64H59V48Zm31.89-9H27.11A3.11,3.11,0,0,0,24,42.11V46H59V42.11A3.11,3.11,0,0,0,55.89,39ZM51,80v5a1,1,0,0,0,1,1h4a1,1,0,0,0,1-1V80Zm4.89-41H27.11A3.11,3.11,0,0,0,24,42.11V46H59V42.11A3.11,3.11,0,0,0,55.89,39ZM24,48V64H59V48ZM90,38V48h26V38Zm0,0V48h26V38ZM29,72a1,1,0,0,0,0,2A1,1,0,0,0,29,72Zm25,0a1,1,0,0,0,0,2A1,1,0,0,0,54,72Zm0,0a1,1,0,0,0,0,2A1,1,0,0,0,54,72ZM29,72a1,1,0,0,0,0,2A1,1,0,0,0,29,72Zm-5-6V78H59V66Zm5,10a3,3,0,1,1,3-3A3,3,0,0,1,29,76Zm17-2H37a1,1,0,0,1,0-2h9A1,1,0,0,1,46,74Zm8,2a3,3,0,1,1,3-3A3,3,0,0,1,54,76Zm0-4a1,1,0,0,0,0,2A1,1,0,0,0,54,72ZM29,72a1,1,0,0,0,0,2A1,1,0,0,0,29,72Zm0,0a1,1,0,0,0,0,2A1,1,0,0,0,29,72Zm0,0a1,1,0,0,0,0,2A1,1,0,0,0,29,72ZM24,48V64H59V48Zm31.89-9H27.11A3.11,3.11,0,0,0,24,42.11V46H59V42.11A3.11,3.11,0,0,0,55.89,39ZM51,80v5a1,1,0,0,0,1,1h4a1,1,0,0,0,1-1V80Zm0,0v5a1,1,0,0,0,1,1h4a1,1,0,0,0,1-1V80Zm4.89-41H27.11A3.11,3.11,0,0,0,24,42.11V46H59V42.11A3.11,3.11,0,0,0,55.89,39ZM24,48V64H59V48Zm5,24a1,1,0,0,0,0,2A1,1,0,0,0,29,72Zm25,0a1,1,0,0,0,0,2A1,1,0,0,0,54,72Zm0,0a1,1,0,0,0,0,2A1,1,0,0,0,54,72ZM29,72a1,1,0,0,0,0,2A1,1,0,0,0,29,72Zm-5-6V78H59V66Zm5,10a3,3,0,1,1,3-3A3,3,0,0,1,29,76Zm17-2H37a1,1,0,0,1,0-2h9A1,1,0,0,1,46,74Zm8,2a3,3,0,1,1,3-3A3,3,0,0,1,54,76Zm0-4a1,1,0,0,0,0,2A1,1,0,0,0,54,72ZM29,72a1,1,0,0,0,0,2A1,1,0,0,0,29,72Zm0,0a1,1,0,0,0,0,2A1,1,0,0,0,29,72Zm0,0a1,1,0,0,0,0,2A1,1,0,0,0,29,72ZM90,38V48h26V38Zm0,0V48h26V38ZM29,72a1,1,0,0,0,0,2A1,1,0,0,0,29,72Zm25,0a1,1,0,0,0,0,2A1,1,0,0,0,54,72Zm0,0a1,1,0,0,0,0,2A1,1,0,0,0,54,72ZM29,72a1,1,0,0,0,0,2A1,1,0,0,0,29,72Zm-5-6V78H59V66Zm5,10a3,3,0,1,1,3-3A3,3,0,0,1,29,76Zm17-2H37a1,1,0,0,1,0-2h9A1,1,0,0,1,46,74Zm8,2a3,3,0,1,1,3-3A3,3,0,0,1,54,76Zm0-4a1,1,0,0,0,0,2A1,1,0,0,0,54,72ZM29,72a1,1,0,0,0,0,2A1,1,0,0,0,29,72Zm0,0a1,1,0,0,0,0,2A1,1,0,0,0,29,72Zm0,0a1,1,0,0,0,0,2A1,1,0,0,0,29,72ZM24,48V64H59V48Zm31.89-9H27.11A3.11,3.11,0,0,0,24,42.11V46H59V42.11A3.11,3.11,0,0,0,55.89,39ZM51,80v5a1,1,0,0,0,1,1h4a1,1,0,0,0,1-1V80ZM26,80v5a1,1,0,0,0,1,1h4a1,1,0,0,0,1-1V80Zm0,0v5a1,1,0,0,0,1,1h4a1,1,0,0,0,1-1V80Zm25,0v5a1,1,0,0,0,1,1h4a1,1,0,0,0,1-1V80Zm4.89-41H27.11A3.11,3.11,0,0,0,24,42.11V46H59V42.11A3.11,3.11,0,0,0,55.89,39ZM24,48V64H59V48Zm5,24a1,1,0,0,0,0,2A1,1,0,0,0,29,72Zm25,0a1,1,0,0,0,0,2A1,1,0,0,0,54,72Zm0,0a1,1,0,0,0,0,2A1,1,0,0,0,54,72ZM29,72a1,1,0,0,0,0,2A1,1,0,0,0,29,72Zm-5-6V78H59V66Zm5,10a3,3,0,1,1,3-3A3,3,0,0,1,29,76Zm17-2H37a1,1,0,0,1,0-2h9A1,1,0,0,1,46,74Zm8,2a3,3,0,1,1,3-3A3,3,0,0,1,54,76Zm0-4a1,1,0,0,0,0,2A1,1,0,0,0,54,72ZM29,72a1,1,0,0,0,0,2A1,1,0,0,0,29,72Zm0,0a1,1,0,0,0,0,2A1,1,0,0,0,29,72Zm0,0a1,1,0,0,0,0,2A1,1,0,0,0,29,72ZM90,38V48h26V38Zm0,0V48h26V38ZM29,72a1,1,0,0,0,0,2A1,1,0,0,0,29,72Zm25,0a1,1,0,0,0,0,2A1,1,0,0,0,54,72Zm0,0a1,1,0,0,0,0,2A1,1,0,0,0,54,72ZM29,72a1,1,0,0,0,0,2A1,1,0,0,0,29,72Zm-5-6V78H59V66Zm5,10a3,3,0,1,1,3-3A3,3,0,0,1,29,76Zm17-2H37a1,1,0,0,1,0-2h9A1,1,0,0,1,46,74Zm8,2a3,3,0,1,1,3-3A3,3,0,0,1,54,76Zm0-4a1,1,0,0,0,0,2A1,1,0,0,0,54,72ZM29,72a1,1,0,0,0,0,2A1,1,0,0,0,29,72Zm0,0a1,1,0,0,0,0,2A1,1,0,0,0,29,72ZM24,48V64H59V48Zm31.89-9H27.11A3.11,3.11,0,0,0,24,42.11V46H59V42.11A3.11,3.11,0,0,0,55.89,39ZM51,80v5a1,1,0,0,0,1,1h4a1,1,0,0,0,1-1V80ZM26,80v5a1,1,0,0,0,1,1h4a1,1,0,0,0,1-1V80Zm3-8a1,1,0,0,0,0,2A1,1,0,0,0,29,72Zm0,0a1,1,0,0,0,0,2A1,1,0,0,0,29,72Zm-3,8v5a1,1,0,0,0,1,1h4a1,1,0,0,0,1-1V80Zm28-8a1,1,0,0,0,0,2A1,1,0,0,0,54,72Zm-3,8v5a1,1,0,0,0,1,1h4a1,1,0,0,0,1-1V80Zm4.89-41H27.11A3.11,3.11,0,0,0,24,42.11V46H59V42.11A3.11,3.11,0,0,0,55.89,39ZM24,48V64H59V48Zm5,24a1,1,0,0,0,0,2A1,1,0,0,0,29,72Zm25,0a1,1,0,0,0,0,2A1,1,0,0,0,54,72ZM24,66V78H59V66Zm5,10a3,3,0,1,1,3-3A3,3,0,0,1,29,76Zm17-2H37a1,1,0,0,1,0-2h9A1,1,0,0,1,46,74Zm8,2a3,3,0,1,1,3-3A3,3,0,0,1,54,76Zm0-4a1,1,0,0,0,0,2A1,1,0,0,0,54,72ZM29,72a1,1,0,0,0,0,2A1,1,0,0,0,29,72ZM90,38V48h26V38Zm0,0V48h26V38ZM24,78H59V66H24Zm30-8a3,3,0,1,1-3,3A3,3,0,0,1,54,70ZM37,72h9a1,1,0,0,1,0,2H37A1,1,0,0,1,37,72Zm-8-2a3,3,0,1,1-3,3A3,3,0,0,1,29,70Zm-5-6H59V48H24ZM55.89,39H27.11A3.11,3.11,0,0,0,24,42.11V46H59V42.11A3.11,3.11,0,0,0,55.89,39ZM51,85a1,1,0,0,0,1,1h4a1,1,0,0,0,1-1V80H51Zm3-11a1,1,0,0,0,0-2A1,1,0,0,0,54,74ZM26,85a1,1,0,0,0,1,1h4a1,1,0,0,0,1-1V80H26Zm3-11a1,1,0,0,0,0-2A1,1,0,0,0,29,74Zm98-18.22V27H1V55.78A8.22,8.22,0,0,1,1,72.22V101H127V72.22a8.22,8.22,0,0,1,0-16.44ZM69,55a1,1,0,0,1-2,0V51.06A3.07,3.07,0,0,0,63.94,48H61V79a1,1,0,0,1-1,1H59v5a3,3,0,0,1-3,3H52a3,3,0,0,1-3-3V80H34v5a3,3,0,0,1-3,3H27a3,3,0,0,1-3-3V80H23a1,1,0,0,1-1-1V48H19.06A3.07,3.07,0,0,0,16,51.06V55a1,1,0,0,1-2,0V51.06A5.07,5.07,0,0,1,19.06,46H22V42.11A5.11,5.11,0,0,1,27.11,37H55.89A5.11,5.11,0,0,1,61,42.11V46h2.94A5.07,5.07,0,0,1,69,51.06Zm9,43a1,1,0,0,1,0-2A1,1,0,0,1,78,98Zm0-6a1,1,0,0,1,0-2A1,1,0,0,1,78,92Zm0-6a1,1,0,0,1,0-2A1,1,0,0,1,78,86Zm0-6a1,1,0,0,1,0-2A1,1,0,0,1,78,80Zm0-6a1,1,0,0,1,0-2A1,1,0,0,1,78,74Zm0-6a1,1,0,0,1,0-2A1,1,0,0,1,78,68Zm0-6a1,1,0,0,1,0-2A1,1,0,0,1,78,62Zm0-6a1,1,0,0,1,0-2A1,1,0,0,1,78,56Zm0-6a1,1,0,0,1,0-2A1,1,0,0,1,78,50Zm0-6a1,1,0,0,1,0-2A1,1,0,0,1,78,44Zm0-6a1,1,0,0,1,0-2A1,1,0,0,1,78,38Zm0-6a1,1,0,0,1,0-2A1,1,0,0,1,78,32Zm39,58H88a1,1,0,0,1,0-2h29A1,1,0,0,1,117,90Zm0-8H88a1,1,0,0,1,0-2h29A1,1,0,0,1,117,82ZM91,69V59a1,1,0,0,1,2,0V69A1,1,0,0,1,91,69Zm9,0V59a1,1,0,0,1,2,0V69A1,1,0,0,1,100,69Zm8,0V59a1,1,0,0,1,2,0V69A1,1,0,0,1,108,69Zm10-20a1,1,0,0,1-1,1H89a1,1,0,0,1-1-1V37a1,1,0,0,1,1-1h28a1,1,0,0,1,1,1ZM90,48h26V38H90ZM24,78H59V66H24Zm30-8a3,3,0,1,1-3,3A3,3,0,0,1,54,70ZM37,72h9a1,1,0,0,1,0,2H37A1,1,0,0,1,37,72Zm-8-2a3,3,0,1,1-3,3A3,3,0,0,1,29,70Zm-5-6H59V48H24ZM55.89,39H27.11A3.11,3.11,0,0,0,24,42.11V46H59V42.11A3.11,3.11,0,0,0,55.89,39ZM51,85a1,1,0,0,0,1,1h4a1,1,0,0,0,1-1V80H51Zm3-11a1,1,0,0,0,0-2A1,1,0,0,0,54,74ZM26,85a1,1,0,0,0,1,1h4a1,1,0,0,0,1-1V80H26Zm3-11a1,1,0,0,0,0-2A1,1,0,0,0,29,74Zm0-2a1,1,0,0,0,0,2A1,1,0,0,0,29,72Zm-3,8v5a1,1,0,0,0,1,1h4a1,1,0,0,0,1-1V80Zm28-8a1,1,0,0,0,0,2A1,1,0,0,0,54,72Zm-3,8v5a1,1,0,0,0,1,1h4a1,1,0,0,0,1-1V80Zm4.89-41H27.11A3.11,3.11,0,0,0,24,42.11V46H59V42.11A3.11,3.11,0,0,0,55.89,39ZM24,48V64H59V48Zm5,24a1,1,0,0,0,0,2A1,1,0,0,0,29,72Zm25,0a1,1,0,0,0,0,2A1,1,0,0,0,54,72ZM24,66V78H59V66Zm5,10a3,3,0,1,1,3-3A3,3,0,0,1,29,76Zm17-2H37a1,1,0,0,1,0-2h9A1,1,0,0,1,46,74Zm8,2a3,3,0,1,1,3-3A3,3,0,0,1,54,76Zm0-4a1,1,0,0,0,0,2A1,1,0,0,0,54,72ZM29,72a1,1,0,0,0,0,2A1,1,0,0,0,29,72ZM90,38V48h26V38Zm0,0V48h26V38ZM29,72a1,1,0,0,0,0,2A1,1,0,0,0,29,72Zm25,0a1,1,0,0,0,0,2A1,1,0,0,0,54,72Zm0,0a1,1,0,0,0,0,2A1,1,0,0,0,54,72ZM29,72a1,1,0,0,0,0,2A1,1,0,0,0,29,72Zm-5-6V78H59V66Zm5,10a3,3,0,1,1,3-3A3,3,0,0,1,29,76Zm17-2H37a1,1,0,0,1,0-2h9A1,1,0,0,1,46,74Zm8,2a3,3,0,1,1,3-3A3,3,0,0,1,54,76Zm0-4a1,1,0,0,0,0,2A1,1,0,0,0,54,72ZM29,72a1,1,0,0,0,0,2A1,1,0,0,0,29,72Zm0,0a1,1,0,0,0,0,2A1,1,0,0,0,29,72ZM24,48V64H59V48Zm31.89-9H27.11A3.11,3.11,0,0,0,24,42.11V46H59V42.11A3.11,3.11,0,0,0,55.89,39ZM51,80v5a1,1,0,0,0,1,1h4a1,1,0,0,0,1-1V80ZM26,80v5a1,1,0,0,0,1,1h4a1,1,0,0,0,1-1V80Zm3-8a1,1,0,0,0,0,2A1,1,0,0,0,29,72Zm-3,8v5a1,1,0,0,0,1,1h4a1,1,0,0,0,1-1V80Zm25,0v5a1,1,0,0,0,1,1h4a1,1,0,0,0,1-1V80Zm4.89-41H27.11A3.11,3.11,0,0,0,24,42.11V46H59V42.11A3.11,3.11,0,0,0,55.89,39ZM24,48V64H59V48Zm5,24a1,1,0,0,0,0,2A1,1,0,0,0,29,72Zm25,0a1,1,0,0,0,0,2A1,1,0,0,0,54,72Zm0,0a1,1,0,0,0,0,2A1,1,0,0,0,54,72ZM29,72a1,1,0,0,0,0,2A1,1,0,0,0,29,72Zm-5-6V78H59V66Zm5,10a3,3,0,1,1,3-3A3,3,0,0,1,29,76Zm17-2H37a1,1,0,0,1,0-2h9A1,1,0,0,1,46,74Zm8,2a3,3,0,1,1,3-3A3,3,0,0,1,54,76Zm0-4a1,1,0,0,0,0,2A1,1,0,0,0,54,72ZM29,72a1,1,0,0,0,0,2A1,1,0,0,0,29,72Zm0,0a1,1,0,0,0,0,2A1,1,0,0,0,29,72Zm0,0a1,1,0,0,0,0,2A1,1,0,0,0,29,72ZM90,38V48h26V38Zm0,0V48h26V38ZM29,72a1,1,0,0,0,0,2A1,1,0,0,0,29,72Zm25,0a1,1,0,0,0,0,2A1,1,0,0,0,54,72Zm0,0a1,1,0,0,0,0,2A1,1,0,0,0,54,72ZM29,72a1,1,0,0,0,0,2A1,1,0,0,0,29,72Zm-5-6V78H59V66Zm5,10a3,3,0,1,1,3-3A3,3,0,0,1,29,76Zm17-2H37a1,1,0,0,1,0-2h9A1,1,0,0,1,46,74Zm8,2a3,3,0,1,1,3-3A3,3,0,0,1,54,76Zm0-4a1,1,0,0,0,0,2A1,1,0,0,0,54,72ZM29,72a1,1,0,0,0,0,2A1,1,0,0,0,29,72Zm0,0a1,1,0,0,0,0,2A1,1,0,0,0,29,72Zm0,0a1,1,0,0,0,0,2A1,1,0,0,0,29,72ZM24,48V64H59V48Zm31.89-9H27.11A3.11,3.11,0,0,0,24,42.11V46H59V42.11A3.11,3.11,0,0,0,55.89,39ZM51,80v5a1,1,0,0,0,1,1h4a1,1,0,0,0,1-1V80ZM26,80v5a1,1,0,0,0,1,1h4a1,1,0,0,0,1-1V80Zm25,0v5a1,1,0,0,0,1,1h4a1,1,0,0,0,1-1V80Zm4.89-41H27.11A3.11,3.11,0,0,0,24,42.11V46H59V42.11A3.11,3.11,0,0,0,55.89,39ZM24,48V64H59V48Zm5,24a1,1,0,0,0,0,2A1,1,0,0,0,29,72Zm25,0a1,1,0,0,0,0,2A1,1,0,0,0,54,72Zm0,0a1,1,0,0,0,0,2A1,1,0,0,0,54,72ZM29,72a1,1,0,0,0,0,2A1,1,0,0,0,29,72Zm-5-6V78H59V66Zm5,10a3,3,0,1,1,3-3A3,3,0,0,1,29,76Zm17-2H37a1,1,0,0,1,0-2h9A1,1,0,0,1,46,74Zm8,2a3,3,0,1,1,3-3A3,3,0,0,1,54,76Zm0-4a1,1,0,0,0,0,2A1,1,0,0,0,54,72ZM29,72a1,1,0,0,0,0,2A1,1,0,0,0,29,72Zm0,0a1,1,0,0,0,0,2A1,1,0,0,0,29,72Zm0,0a1,1,0,0,0,0,2A1,1,0,0,0,29,72ZM90,38V48h26V38Zm0,0V48h26V38ZM24,48V64H59V48Zm31.89-9H27.11A3.11,3.11,0,0,0,24,42.11V46H59V42.11A3.11,3.11,0,0,0,55.89,39ZM51,80v5a1,1,0,0,0,1,1h4a1,1,0,0,0,1-1V80Zm4.89-41H27.11A3.11,3.11,0,0,0,24,42.11V46H59V42.11A3.11,3.11,0,0,0,55.89,39ZM24,48V64H59V48Zm5,24a1,1,0,0,0,0,2A1,1,0,0,0,29,72Zm25,0a1,1,0,0,0,0,2A1,1,0,0,0,54,72Zm0,0a1,1,0,0,0,0,2A1,1,0,0,0,54,72ZM29,72a1,1,0,0,0,0,2A1,1,0,0,0,29,72Zm-5-6V78H59V66Zm5,10a3,3,0,1,1,3-3A3,3,0,0,1,29,76Zm17-2H37a1,1,0,0,1,0-2h9A1,1,0,0,1,46,74Zm8,2a3,3,0,1,1,3-3A3,3,0,0,1,54,76Zm0-4a1,1,0,0,0,0,2A1,1,0,0,0,54,72ZM29,72a1,1,0,0,0,0,2A1,1,0,0,0,29,72Zm0,0a1,1,0,0,0,0,2A1,1,0,0,0,29,72Zm0,0a1,1,0,0,0,0,2A1,1,0,0,0,29,72ZM90,38V48h26V38Zm0,0V48h26V38ZM24,48V64H59V48Zm31.89-9H27.11A3.11,3.11,0,0,0,24,42.11V46H59V42.11A3.11,3.11,0,0,0,55.89,39Zm0,0H27.11A3.11,3.11,0,0,0,24,42.11V46H59V42.11A3.11,3.11,0,0,0,55.89,39ZM24,48V64H59V48Zm5,24a1,1,0,0,0,0,2A1,1,0,0,0,29,72Zm25,0a1,1,0,0,0,0,2A1,1,0,0,0,54,72Zm0,0a1,1,0,0,0,0,2A1,1,0,0,0,54,72ZM29,72a1,1,0,0,0,0,2A1,1,0,0,0,29,72Zm-5-6V78H59V66Zm5,10a3,3,0,1,1,3-3A3,3,0,0,1,29,76Zm17-2H37a1,1,0,0,1,0-2h9A1,1,0,0,1,46,74Zm8,2a3,3,0,1,1,3-3A3,3,0,0,1,54,76Zm0-4a1,1,0,0,0,0,2A1,1,0,0,0,54,72ZM29,72a1,1,0,0,0,0,2A1,1,0,0,0,29,72Zm0,0a1,1,0,0,0,0,2A1,1,0,0,0,29,72Zm0,0a1,1,0,0,0,0,2A1,1,0,0,0,29,72ZM90,38V48h26V38Zm0,0V48h26V38ZM55.89,39H27.11A3.11,3.11,0,0,0,24,42.11V46H59V42.11A3.11,3.11,0,0,0,55.89,39Zm0,0H27.11A3.11,3.11,0,0,0,24,42.11V46H59V42.11A3.11,3.11,0,0,0,55.89,39ZM24,48V64H59V48Zm5,24a1,1,0,0,0,0,2A1,1,0,0,0,29,72Zm25,0a1,1,0,0,0,0,2A1,1,0,0,0,54,72Zm0,0a1,1,0,0,0,0,2A1,1,0,0,0,54,72ZM29,72a1,1,0,0,0,0,2A1,1,0,0,0,29,72Zm-5-6V78H59V66Zm5,10a3,3,0,1,1,3-3A3,3,0,0,1,29,76Zm17-2H37a1,1,0,0,1,0-2h9A1,1,0,0,1,46,74Zm8,2a3,3,0,1,1,3-3A3,3,0,0,1,54,76Zm0-4a1,1,0,0,0,0,2A1,1,0,0,0,54,72ZM29,72a1,1,0,0,0,0,2A1,1,0,0,0,29,72Zm0,0a1,1,0,0,0,0,2A1,1,0,0,0,29,72Zm0,0a1,1,0,0,0,0,2A1,1,0,0,0,29,72ZM90,38V48h26V38Zm0,0V48h26V38ZM55.89,39H27.11A3.11,3.11,0,0,0,24,42.11V46H59V42.11A3.11,3.11,0,0,0,55.89,39Zm0,0H27.11A3.11,3.11,0,0,0,24,42.11V46H59V42.11A3.11,3.11,0,0,0,55.89,39ZM29,72a1,1,0,0,0,0,2A1,1,0,0,0,29,72Zm25,0a1,1,0,0,0,0,2A1,1,0,0,0,54,72Zm0,0a1,1,0,0,0,0,2A1,1,0,0,0,54,72ZM29,72a1,1,0,0,0,0,2A1,1,0,0,0,29,72Zm-5-6V78H59V66Zm5,10a3,3,0,1,1,3-3A3,3,0,0,1,29,76Zm17-2H37a1,1,0,0,1,0-2h9A1,1,0,0,1,46,74Zm8,2a3,3,0,1,1,3-3A3,3,0,0,1,54,76Zm0-4a1,1,0,0,0,0,2A1,1,0,0,0,54,72ZM29,72a1,1,0,0,0,0,2A1,1,0,0,0,29,72Zm0,0a1,1,0,0,0,0,2A1,1,0,0,0,29,72Zm0,0a1,1,0,0,0,0,2A1,1,0,0,0,29,72ZM24,48V64H59V48ZM90,38V48h26V38Zm0,0V48h26V38ZM55.89,39H27.11A3.11,3.11,0,0,0,24,42.11V46H59V42.11A3.11,3.11,0,0,0,55.89,39Zm0,0H27.11A3.11,3.11,0,0,0,24,42.11V46H59V42.11A3.11,3.11,0,0,0,55.89,39ZM24,48V64H59V48ZM90,38V48h26V38Zm0,0V48h26V38ZM55.89,39H27.11A3.11,3.11,0,0,0,24,42.11V46H59V42.11A3.11,3.11,0,0,0,55.89,39ZM24,48V64H59V48ZM90,38V48h26V38Zm0,0V48h26V38Z"/></g></svg>