<svg xmlns="http://www.w3.org/2000/svg" viewBox="0 0 128 128"><defs><style>.cls-1{fill:#a0aec0;}</style></defs><title>Ticket Machine</title><g id="Ticket_Machine" data-name="Ticket Machine"><rect class="cls-1" x="30" y="14" width="68" height="43"/><path class="cls-1" d="M85,77v6h6V77Zm0,0v6h6V77ZM45,77v35H57.07a7,7,0,0,1,13.86,0H83V77Zm4,12a1,1,0,0,1,0-2A1,1,0,0,1,49,89Zm6,0a1,1,0,0,1,0-2A1,1,0,0,1,55,89Zm6,0a1,1,0,0,1,0-2A1,1,0,0,1,61,89Zm6,0a1,1,0,0,1,0-2A1,1,0,0,1,67,89Zm6,0a1,1,0,0,1,0-2A1,1,0,0,1,73,89Zm6,0a1,1,0,0,1,0-2A1,1,0,0,1,79,89ZM37,77v6h6V77Zm8,0v35H57.07a7,7,0,0,1,13.86,0H83V77Zm4,12a1,1,0,0,1,0-2A1,1,0,0,1,49,89Zm6,0a1,1,0,0,1,0-2A1,1,0,0,1,55,89Zm6,0a1,1,0,0,1,0-2A1,1,0,0,1,61,89Zm6,0a1,1,0,0,1,0-2A1,1,0,0,1,67,89Zm6,0a1,1,0,0,1,0-2A1,1,0,0,1,73,89Zm6,0a1,1,0,0,1,0-2A1,1,0,0,1,79,89Zm6-12v6h6V77Zm0,0v6h6V77ZM45,77v35H57.07a7,7,0,0,1,13.86,0H83V77Zm4,12a1,1,0,0,1,0-2A1,1,0,0,1,49,89Zm6,0a1,1,0,0,1,0-2A1,1,0,0,1,55,89Zm6,0a1,1,0,0,1,0-2A1,1,0,0,1,61,89Zm6,0a1,1,0,0,1,0-2A1,1,0,0,1,67,89Zm6,0a1,1,0,0,1,0-2A1,1,0,0,1,73,89Zm6,0a1,1,0,0,1,0-2A1,1,0,0,1,79,89ZM37,77v6h6V77Zm0,0v6h6V77Zm8,0v35H57.07a7,7,0,0,1,13.86,0H83V77Zm4,12a1,1,0,0,1,0-2A1,1,0,0,1,49,89Zm6,0a1,1,0,0,1,0-2A1,1,0,0,1,55,89Zm6,0a1,1,0,0,1,0-2A1,1,0,0,1,61,89Zm6,0a1,1,0,0,1,0-2A1,1,0,0,1,67,89Zm6,0a1,1,0,0,1,0-2A1,1,0,0,1,73,89Zm6,0a1,1,0,0,1,0-2A1,1,0,0,1,79,89Zm6-12v6h6V77Zm0,0v6h6V77ZM45,77v35H57.07a7,7,0,0,1,13.86,0H83V77Zm4,12a1,1,0,0,1,0-2A1,1,0,0,1,49,89Zm6,0a1,1,0,0,1,0-2A1,1,0,0,1,55,89Zm6,0a1,1,0,0,1,0-2A1,1,0,0,1,61,89Zm6,0a1,1,0,0,1,0-2A1,1,0,0,1,67,89Zm6,0a1,1,0,0,1,0-2A1,1,0,0,1,73,89Zm6,0a1,1,0,0,1,0-2A1,1,0,0,1,79,89ZM37,77v6h6V77Zm0,0v6h6V77Zm8,0v35H57.07a7,7,0,0,1,13.86,0H83V77Zm4,12a1,1,0,0,1,0-2A1,1,0,0,1,49,89Zm6,0a1,1,0,0,1,0-2A1,1,0,0,1,55,89Zm6,0a1,1,0,0,1,0-2A1,1,0,0,1,61,89Zm6,0a1,1,0,0,1,0-2A1,1,0,0,1,67,89Zm6,0a1,1,0,0,1,0-2A1,1,0,0,1,73,89Zm6,0a1,1,0,0,1,0-2A1,1,0,0,1,79,89Zm6-12v6h6V77Zm0,0v6h6V77ZM45,112H57.07a7,7,0,0,1,13.86,0H83V77H45ZM79,87a1,1,0,0,1,0,2A1,1,0,0,1,79,87Zm-6,0a1,1,0,0,1,0,2A1,1,0,0,1,73,87Zm-6,0a1,1,0,0,1,0,2A1,1,0,0,1,67,87Zm-6,0a1,1,0,0,1,0,2A1,1,0,0,1,61,87Zm-6,0a1,1,0,0,1,0,2A1,1,0,0,1,55,87Zm-6,0a1,1,0,0,1,0,2A1,1,0,0,1,49,87ZM37,83h6V77H37ZM101.87,1H26.13A8.13,8.13,0,0,0,18,9.13V127h92V9.13A8.13,8.13,0,0,0,101.87,1ZM93,84a1,1,0,0,1-1,1H85v28a1,1,0,0,1-1,1H70a1,1,0,0,1-1-1,5,5,0,1,0-10,0,1,1,0,0,1-1,1H44a1,1,0,0,1-1-1V85H36a1,1,0,0,1-1-1V76a1,1,0,0,1,1-1H92a1,1,0,0,1,1,1Zm7-26a1,1,0,0,1-1,1H29a1,1,0,0,1-1-1V13a1,1,0,0,1,1-1H99a1,1,0,0,1,1,1ZM85,83h6V77H85ZM45,112H57.07a7,7,0,0,1,13.86,0H83V77H45ZM79,87a1,1,0,0,1,0,2A1,1,0,0,1,79,87Zm-6,0a1,1,0,0,1,0,2A1,1,0,0,1,73,87Zm-6,0a1,1,0,0,1,0,2A1,1,0,0,1,67,87Zm-6,0a1,1,0,0,1,0,2A1,1,0,0,1,61,87Zm-6,0a1,1,0,0,1,0,2A1,1,0,0,1,55,87Zm-6,0a1,1,0,0,1,0,2A1,1,0,0,1,49,87ZM37,83h6V77H37Zm0-6v6h6V77Zm8,0v35H57.07a7,7,0,0,1,13.86,0H83V77Zm4,12a1,1,0,0,1,0-2A1,1,0,0,1,49,89Zm6,0a1,1,0,0,1,0-2A1,1,0,0,1,55,89Zm6,0a1,1,0,0,1,0-2A1,1,0,0,1,61,89Zm6,0a1,1,0,0,1,0-2A1,1,0,0,1,67,89Zm6,0a1,1,0,0,1,0-2A1,1,0,0,1,73,89Zm6,0a1,1,0,0,1,0-2A1,1,0,0,1,79,89Zm6-12v6h6V77Zm0,0v6h6V77ZM45,77v35H57.07a7,7,0,0,1,13.86,0H83V77Zm4,12a1,1,0,0,1,0-2A1,1,0,0,1,49,89Zm6,0a1,1,0,0,1,0-2A1,1,0,0,1,55,89Zm6,0a1,1,0,0,1,0-2A1,1,0,0,1,61,89Zm6,0a1,1,0,0,1,0-2A1,1,0,0,1,67,89Zm6,0a1,1,0,0,1,0-2A1,1,0,0,1,73,89Zm6,0a1,1,0,0,1,0-2A1,1,0,0,1,79,89ZM37,77v6h6V77Zm0,0v6h6V77Zm8,0v35H57.07a7,7,0,0,1,13.86,0H83V77Zm4,12a1,1,0,0,1,0-2A1,1,0,0,1,49,89Zm6,0a1,1,0,0,1,0-2A1,1,0,0,1,55,89Zm6,0a1,1,0,0,1,0-2A1,1,0,0,1,61,89Zm6,0a1,1,0,0,1,0-2A1,1,0,0,1,67,89Zm6,0a1,1,0,0,1,0-2A1,1,0,0,1,73,89Zm6,0a1,1,0,0,1,0-2A1,1,0,0,1,79,89Zm6-12v6h6V77Zm0,0v6h6V77ZM45,77v35H57.07a7,7,0,0,1,13.86,0H83V77Zm4,12a1,1,0,0,1,0-2A1,1,0,0,1,49,89Zm6,0a1,1,0,0,1,0-2A1,1,0,0,1,55,89Zm6,0a1,1,0,0,1,0-2A1,1,0,0,1,61,89Zm6,0a1,1,0,0,1,0-2A1,1,0,0,1,67,89Zm6,0a1,1,0,0,1,0-2A1,1,0,0,1,73,89Zm6,0a1,1,0,0,1,0-2A1,1,0,0,1,79,89ZM37,77v6h6V77Zm0,0v6h6V77Zm8,0v35H57.07a7,7,0,0,1,13.86,0H83V77Zm4,12a1,1,0,0,1,0-2A1,1,0,0,1,49,89Zm6,0a1,1,0,0,1,0-2A1,1,0,0,1,55,89Zm6,0a1,1,0,0,1,0-2A1,1,0,0,1,61,89Zm6,0a1,1,0,0,1,0-2A1,1,0,0,1,67,89Zm6,0a1,1,0,0,1,0-2A1,1,0,0,1,73,89Zm6,0a1,1,0,0,1,0-2A1,1,0,0,1,79,89Zm6-12v6h6V77Zm0,0v6h6V77ZM45,77v35H57.07a7,7,0,0,1,13.86,0H83V77Zm4,12a1,1,0,0,1,0-2A1,1,0,0,1,49,89Zm6,0a1,1,0,0,1,0-2A1,1,0,0,1,55,89Zm6,0a1,1,0,0,1,0-2A1,1,0,0,1,61,89Zm6,0a1,1,0,0,1,0-2A1,1,0,0,1,67,89Zm6,0a1,1,0,0,1,0-2A1,1,0,0,1,73,89Zm6,0a1,1,0,0,1,0-2A1,1,0,0,1,79,89ZM37,77v6h6V77Zm8,0v35H57.07a7,7,0,0,1,13.86,0H83V77Zm4,12a1,1,0,0,1,0-2A1,1,0,0,1,49,89Zm6,0a1,1,0,0,1,0-2A1,1,0,0,1,55,89Zm6,0a1,1,0,0,1,0-2A1,1,0,0,1,61,89Zm6,0a1,1,0,0,1,0-2A1,1,0,0,1,67,89Zm6,0a1,1,0,0,1,0-2A1,1,0,0,1,73,89Zm6,0a1,1,0,0,1,0-2A1,1,0,0,1,79,89Zm6-12v6h6V77Zm0,0v6h6V77Z"/></g></svg>