<svg xmlns="http://www.w3.org/2000/svg" viewBox="0 0 128 128"><defs><style>.cls-1{fill:#a0aec0;}</style></defs><title>tow truck</title><g id="tow_truck" data-name="tow truck"><circle class="cls-1" cx="19" cy="87" r="3"/><path class="cls-1" d="M19,77A10,10,0,1,0,29,87,10,10,0,0,0,19,77Zm0,15a5,5,0,1,1,5-5A5,5,0,0,1,19,92Z"/><circle class="cls-1" cx="44" cy="87" r="3"/><path class="cls-1" d="M44,77A10,10,0,1,0,54,87,10,10,0,0,0,44,77Zm0,15a5,5,0,1,1,5-5A5,5,0,0,1,44,92Z"/><circle class="cls-1" cx="102" cy="87" r="3"/><path class="cls-1" d="M102,77a10,10,0,1,0,10,10A10,10,0,0,0,102,77Zm0,15a5,5,0,1,1,5-5A5,5,0,0,1,102,92Z"/><rect class="cls-1" x="1" y="78" width="3" height="2"/><path class="cls-1" d="M1,76H5a1,1,0,0,1,1,1v4a1,1,0,0,1-1,1H1v5H7a12,12,0,0,1,24,0h1a12,12,0,0,1,24,0H86V73H1Z"/><path class="cls-1" d="M120.24,47H110V62c3.18,0,3.3-.1,3.71.29l5.7,5.71H127C127,64.54,128,68.3,120.24,47Z"/><path class="cls-1" d="M118.29,69.71,112.59,64H97a1,1,0,0,1-1-1V45h23.43a4.08,4.08,0,0,0-3.51-2H88V87h2a12,12,0,0,1,24,0h13V83h-2a3,3,0,0,1-3-3V77a3,3,0,0,1,3-3h2V70C118.42,70,118.72,70.12,118.29,69.71ZM103,72H99a1,1,0,0,1,0-2h4A1,1,0,0,1,103,72Z"/><rect class="cls-1" x="98" y="47" width="10" height="15"/><path class="cls-1" d="M124,77v3a1,1,0,0,0,1,1h2V76h-2A1,1,0,0,0,124,77Z"/><path class="cls-1" d="M73.58,43.23C69.42,70.74,70,65.54,70,71H80V43.71C80,39.73,74.18,39.32,73.58,43.23Z"/><path class="cls-1" d="M71.63,42.82c1-6,9.64-5.65,10.32.26L84,41,80,32.87l-59,2V41H69.81Z"/><rect class="cls-1" x="11" y="31" width="8" height="12" rx="2"/><path class="cls-1" d="M16.18,63.87a5.08,5.08,0,0,0,1.41-9.29A3.13,3.13,0,0,1,16,51.9V45H14v6.9a5.11,5.11,0,0,0,2.57,4.4A3.07,3.07,0,0,1,18,59.67c-.81,3.52-6,2.83-6-.73a1,1,0,0,0-2,0A5.06,5.06,0,0,0,16.18,63.87Z"/></g></svg>