<svg xmlns="http://www.w3.org/2000/svg" viewBox="0 0 128 128"><defs><style>.cls-1{fill:#a0aec0;}</style></defs><title>Traffic Light</title><g id="Traffic_Light" data-name="Traffic Light"><circle class="cls-1" cx="64" cy="23" r="13"/><path class="cls-1" d="M64,51A13,13,0,1,0,77,64,13,13,0,0,0,64,51Zm0,0A13,13,0,1,0,77,64,13,13,0,0,0,64,51ZM41,1V127H87V1ZM64,120a15,15,0,1,1,15-15A15,15,0,0,1,64,120Zm0-41A15,15,0,1,1,79,64,15,15,0,0,1,64,79Zm0-41A15,15,0,1,1,79,23,15,15,0,0,1,64,38Zm0,13A13,13,0,1,0,77,64,13,13,0,0,0,64,51Zm0,41a13,13,0,1,0,13,13A13,13,0,0,0,64,92Z"/><path class="cls-1" d="M89,7h16l-1.53,3.11A42.58,42.58,0,0,0,99,29.35,10.09,10.09,0,0,1,89,39.52Z"/><path class="cls-1" d="M39,7H23l1.53,3.11A42.58,42.58,0,0,1,29,29.35,10.09,10.09,0,0,0,39,39.52Z"/><path class="cls-1" d="M89,48h16l-1.53,3.11A42.58,42.58,0,0,0,99,70.35,10.09,10.09,0,0,1,89,80.52Z"/><path class="cls-1" d="M39,48H23l1.53,3.11A42.58,42.58,0,0,1,29,70.35,10.09,10.09,0,0,0,39,80.52Z"/><path class="cls-1" d="M89,88h16l-1.53,3.11A42.58,42.58,0,0,0,99,110.35a10.09,10.09,0,0,1-10,10.17Z"/><path class="cls-1" d="M39,88H23l1.53,3.11A42.58,42.58,0,0,1,29,110.35a10.09,10.09,0,0,0,10,10.17Z"/></g></svg>