<svg xmlns="http://www.w3.org/2000/svg" viewBox="0 0 128 128"><defs><style>.cls-1{fill:#a0aec0;}</style></defs><title>Traffic Jam</title><g id="Traffic_Jam" data-name="Traffic Jam"><path class="cls-1" d="M80.59,55.87H47.41A12.22,12.22,0,0,0,36.34,63l-.5,1.41A12.89,12.89,0,0,1,41.65,63c48.86,0,46.84-.48,50.51,1.36L91.66,63A12.22,12.22,0,0,0,80.59,55.87Z"/><path class="cls-1" d="M41.65,65a11,11,0,0,0-5.78,1.62,19.89,19.89,0,0,0-1.57,2L29.79,81.34a103.75,103.75,0,0,0,20.19,2c29,0,35.68.52,48.23-2L93.45,68s-1.16-1.23-1.32-1.33A11,11,0,0,0,86.35,65Z"/><path class="cls-1" d="M34.53,97.52a4.08,4.08,0,1,0,4.08,4.08A4.08,4.08,0,0,0,34.53,97.52Z"/><path class="cls-1" d="M93.47,97.52a4.08,4.08,0,1,0,4.08,4.08A4.08,4.08,0,0,0,93.47,97.52Z"/><path class="cls-1" d="M99.23,83c-.74.69-11.94,2.3-21.21,2.3-28.8,0-35.79.54-48.76-2a1,1,0,0,1-.49-.25c-10.62,11.37-9.48,10.23-9.48,26.12a4.07,4.07,0,0,0,3.62,4l14.67,1.63c61.46,0,48,.54,67.51-1.63a4.07,4.07,0,0,0,3.62-4C108.71,93.27,109.86,94.4,99.23,83Zm-64.7,24.66a6.08,6.08,0,1,1,6.08-6.08A6.09,6.09,0,0,1,34.53,107.68ZM79,107.2c-.45.74,1.12.48-29.23.48a1,1,0,0,1-.9-1.45c4.41-8.81,4.12-8.68,5-8.68,21.9,0,20.76-.24,21.15.55C79.3,106.65,79.46,106.55,79,107.2Zm14.43.48a6.08,6.08,0,1,1,6.08-6.08A6.08,6.08,0,0,1,93.47,107.68Z"/><polygon class="cls-1" points="54.49 99.55 51.42 105.68 76.58 105.68 73.51 99.55 54.49 99.55"/><path class="cls-1" d="M23.35,115.24v7.7A4.08,4.08,0,0,0,27.42,127h8.13a4.08,4.08,0,0,0,4.06-4.06v-6.13C36.76,116.81,39.73,117.06,23.35,115.24Z"/><path class="cls-1" d="M88.39,116.81v6.13A4.08,4.08,0,0,0,92.45,127h8.13a4.08,4.08,0,0,0,4.07-4.06v-7.7C88.36,117.05,91.25,116.81,88.39,116.81Z"/><path class="cls-1" d="M20.78,73.62a5.06,5.06,0,0,0,0,7.18c1.74,1.74,3.52,1.49,5.94,1.49,1.31-1.41.7-.28,2.67-5.8A5.08,5.08,0,0,0,20.78,73.62Z"/><path class="cls-1" d="M103.63,72.13a5.05,5.05,0,0,0-5,4.36c2,5.52,1.35,4.39,2.67,5.8h2.35a5.08,5.08,0,1,0,0-10.16Z"/><circle class="cls-1" cx="16.24" cy="46.73" r="4.08"/><path class="cls-1" d="M49.61,43.65H46.22a7.15,7.15,0,0,1,2.5,2.48Z"/><path class="cls-1" d="M36.2,43.65l-3.06,6.12h2.44a7.08,7.08,0,0,1,3.53-6.12Z"/><path class="cls-1" d="M35.79,59.94a14.16,14.16,0,0,1,3.88-3.76,7.1,7.1,0,0,1-3.8-4.41c-4.63,0-4.82.16-5.2-.48s-.29-.47,4-9.09c.36-.77-.14-.55,15.63-.55.34-1,2.31-6.49,2.49-7a14.07,14.07,0,0,1,3-4.23c-22.42,0-31.49.64-44.88-2.05a1,1,0,0,1-.48-.25C-.16,39.56,1,38.4,1,54.27a4.06,4.06,0,0,0,3.62,4C23.09,60.36,16,59.94,35.79,59.94ZM10.16,46.73a6.08,6.08,0,1,1,6.08,6.08A6.08,6.08,0,0,1,10.16,46.73Z"/><path class="cls-1" d="M68.06,8.13A12.77,12.77,0,0,1,73.87,9.5l-.5-1.42A12.22,12.22,0,0,0,62.29,1H29.12A12.22,12.22,0,0,0,18.05,8.08l-.5,1.42C21.21,7.64,19.34,8.13,68.06,8.13Z"/><path class="cls-1" d="M58.45,28.45c4.42-2.64,7.1-2,21.46-2C75.5,14.05,75.52,13.3,74,11.88a10.52,10.52,0,0,0-5.93-1.75H23.35a11,11,0,0,0-5.77,1.62,9.88,9.88,0,0,0-2.12,3.6l-4,11.12C23.51,28.86,28.52,28.45,58.45,28.45Z"/><path class="cls-1" d="M21.32,68.06V61.94c-2.85,0,.12.25-16.26-1.57v7.69a4.08,4.08,0,0,0,4.07,4.07h8.13A4.08,4.08,0,0,0,21.32,68.06Z"/><path class="cls-1" d="M6.08,27.42H8.42c1.33-1.43.73-.3,2.68-5.79a5.08,5.08,0,1,0-5,5.79Z"/><path class="cls-1" d="M88.33,26.44a5.08,5.08,0,1,0-8-4.83L82,26.44Z"/><path class="cls-1" d="M115.84,74.16a4.08,4.08,0,0,0-7.5-2.22,7,7,0,0,1,2.31,6.14A4.08,4.08,0,0,0,115.84,74.16Z"/><path class="cls-1" d="M117.52,55.58a.93.93,0,0,1-.48.25c-11.12,2.25-18.82,2.06-26.58,2.06,3.05,2.91,3.28,4.9,7.11,15.68a7,7,0,0,1,9.11-2.74A6.08,6.08,0,1,1,110.13,80a7.12,7.12,0,0,1-7,4.28c2.22,2.37,2.64,2.82,2.87,3.08,3.57,0,.36.26,16.92-1.58A4.1,4.1,0,0,0,127,81.7C127,65.84,128.16,67,117.52,55.58Z"/><path class="cls-1" d="M54.63,35.52l-.5,1.4a13,13,0,0,1,5.81-1.36c47.67,0,46.7-.53,50.51,1.36l-.5-1.4a12.2,12.2,0,0,0-11.07-7.08H65.71A12.2,12.2,0,0,0,54.63,35.52Z"/><path class="cls-1" d="M104.65,37.56H59.94a11,11,0,0,0-5.78,1.62,17.47,17.47,0,0,0-1.46,1.74L48.09,53.87h32.5a14,14,0,0,1,7.25,2c10.18,0,17.41.26,28.66-2-4.32-12.13-4.28-12.64-5.84-14.47C110.06,38.74,107.46,37.56,104.65,37.56Z"/><path class="cls-1" d="M107.57,89.37a17.34,17.34,0,0,1,3.14,10.19h8.16a4.07,4.07,0,0,0,4.07-4.06V87.8C106.76,89.6,109.33,89.37,107.57,89.37Z"/><path class="cls-1" d="M42.31,54.83A13.89,13.89,0,0,1,45.93,54l1.75-4.9a5.07,5.07,0,1,0-5.37,5.78Z"/><path class="cls-1" d="M119.57,54.85c2.38,0,4.2.26,5.94-1.49a5.07,5.07,0,1,0-8.61-4.3C118.92,54.74,118.26,53.44,119.57,54.85Z"/></g></svg>