<svg xmlns="http://www.w3.org/2000/svg" viewBox="0 0 128 128"><defs><style>.cls-1{fill:#a0aec0;}</style></defs><title>Trailer Truck</title><g id="Trailer_Truck" data-name="Trailer Truck"><circle class="cls-1" cx="19" cy="91" r="4"/><path class="cls-1" d="M19,80A11,11,0,1,0,30,91,11,11,0,0,0,19,80Zm0,17a6,6,0,1,1,6-6A6,6,0,0,1,19,97Z"/><circle class="cls-1" cx="41" cy="91" r="4"/><path class="cls-1" d="M41,80A11,11,0,1,0,52,91,11,11,0,0,0,41,80Zm0,17a6,6,0,1,1,6-6A6,6,0,0,1,41,97Z"/><circle class="cls-1" cx="109" cy="91" r="4"/><path class="cls-1" d="M109,80a11,11,0,1,0,11,11A11,11,0,0,0,109,80Zm0,17a6,6,0,1,1,6-6A6,6,0,0,1,109,97Z"/><path class="cls-1" d="M73,83V75H11.14L1,79V93H6.15C4,79,22.58,72.31,30,84.08c7.35-11.66,25.49-5.2,23.93,8.22L58,92.24V87a4,4,0,0,1,4-4Z"/><rect class="cls-1" x="58" y="47" width="11" height="12"/><path class="cls-1" d="M73,73V38H54V73ZM56,46a1,1,0,0,1,1-1H70a1,1,0,0,1,1,1V60a1,1,0,0,1-1,1H57a1,1,0,0,1-1-1Z"/><rect class="cls-1" x="124" y="76" width="3" height="4"/><path class="cls-1" d="M83,61c12,0,11.14,0,11.45.11L98.24,63h9.44l-11-16H83Z"/><path class="cls-1" d="M122.24,67.57,110.72,65H98c-.31,0-.12,0-4.24-2H82a1,1,0,0,1-1-1V46a1,1,0,0,1,1-1H95.31l-3-4.36a6.12,6.12,0,0,0-5-2.64H75V83h5a4,4,0,0,1,4,4v6H96.15a13,13,0,1,1,25.7,0H127V82h-4a1,1,0,0,1-1-1V75a1,1,0,0,1,1-1h4C127,70.36,124.87,68.17,122.24,67.57ZM88,72H84a1,1,0,0,1,0-2h4A1,1,0,0,1,88,72Z"/><path class="cls-1" d="M52.73,36H82.46c-14.91-8.29-12.74-8-29.33-8a3.07,3.07,0,0,0-3.07,3.07C50.06,32.25,50.44,32.56,52.73,36Z"/><rect class="cls-1" x="60" y="85" width="22" height="10" rx="2"/></g></svg>