<svg xmlns="http://www.w3.org/2000/svg" viewBox="0 0 128 128"><defs><style>.cls-1{fill:#a0aec0;}</style></defs><title>Travel Distance</title><g id="Travel_Distance" data-name="Travel Distance"><path class="cls-1" d="M28.45,21.32a7.13,7.13,0,1,1-7.13-7.13A7.14,7.14,0,0,1,28.45,21.32Z"/><path class="cls-1" d="M21.32,1A20.32,20.32,0,0,0,1,21.32C1,37.58,21.32,53.84,21.32,53.84S41.65,37.58,41.65,21.32A20.33,20.33,0,0,0,21.32,1Zm0,29.45a9.13,9.13,0,1,1,9.13-9.13A9.14,9.14,0,0,1,21.32,30.45Z"/><path class="cls-1" d="M113.81,86.35a7.13,7.13,0,1,1-7.13-7.12A7.13,7.13,0,0,1,113.81,86.35Z"/><path class="cls-1" d="M106.68,66A20.33,20.33,0,0,0,86.35,86.35c0,16.26,20.33,32.52,20.33,32.52S127,102.61,127,86.35A20.32,20.32,0,0,0,106.68,66Zm0,29.45a9.13,9.13,0,1,1,9.13-9.13A9.13,9.13,0,0,1,106.68,95.48Z"/><path class="cls-1" d="M21.32,62c-9.68,0-13.89-7.44-6.13-11,2.65,2.59,4.62,4.19,4.88,4.39.6.48,1.16,1.07,1.87.5A65.05,65.05,0,0,0,27.45,51C35.26,54.55,30.93,62,21.32,62Z"/><path class="cls-1" d="M106.68,127c-9.76,0-13.85-7.47-6.13-11,2.65,2.58,4.62,4.18,4.88,4.39.6.48,1.16,1.07,1.87.5a68.8,68.8,0,0,0,5.5-4.89C120.6,119.57,116.33,127,106.68,127Z"/><path class="cls-1" d="M94.63,122H18.5a17.45,17.45,0,0,1-12.38-5.12C-4.82,105.87,2.92,87,18.5,87H60a14.94,14.94,0,0,0,10.61-4.39C80,73.21,73.38,57,60,57H33.36a5.44,5.44,0,0,0,0-2H60c15.1,0,22.67,18.32,12,29a17,17,0,0,1-12,5H18.5c-13.76,0-20.68,16.74-11,26.46a15.41,15.41,0,0,0,11,4.54H94.59A5.65,5.65,0,0,0,94.63,122Z"/></g></svg>