<svg xmlns="http://www.w3.org/2000/svg" viewBox="0 0 128 128"><defs><style>.cls-1{fill:#a0aec0;}</style></defs><title>Trem</title><g id="Trem"><rect class="cls-1" x="1" y="58" width="7" height="18"/><rect class="cls-1" x="10" y="58" width="18" height="36"/><rect class="cls-1" x="30" y="58" width="17" height="18"/><rect class="cls-1" x="49" y="58" width="14" height="18"/><rect class="cls-1" x="65" y="58" width="14" height="18"/><rect class="cls-1" x="81" y="58" width="17" height="18"/><path class="cls-1" d="M1,51.13V56H127V51.13A8.13,8.13,0,0,0,118.87,43H9.13A8.13,8.13,0,0,0,1,51.13Z"/><rect class="cls-1" x="100" y="58" width="18" height="36"/><path class="cls-1" d="M1,98H34l2-2H52l2,2H74l2-2H92l2,2h33V78h-7V95a1,1,0,0,1-1,1H99a1,1,0,0,1-1-1V78H30V95a1,1,0,0,1-1,1H9a1,1,0,0,1-1-1V78H1Z"/><rect class="cls-1" x="120" y="58" width="7" height="18"/><path class="cls-1" d="M41,98H36.83l-2,2H33.41A5,5,0,1,0,41,98Z"/><path class="cls-1" d="M54.59,100H53.17l-2-2H47a5,5,0,1,0,7.59,2Z"/><path class="cls-1" d="M81,98H76.83l-2,2H73.41A5,5,0,1,0,81,98Z"/><path class="cls-1" d="M94.59,100H93.17l-2-2H87a5,5,0,1,0,7.59,2Z"/><polygon class="cls-1" points="19.42 37 18.09 41 36.75 41 35.42 37 19.42 37"/><polygon class="cls-1" points="91.25 41 109.91 41 108.58 37 92.58 37 91.25 41"/><path class="cls-1" d="M92.88,21h15.38l2.86,2a4,4,0,0,1,1-1.76l-2.92-2.08c-.36-.28,1-.19-16.58-.19-.42,0-.37.05-3.68,2.25a3.92,3.92,0,0,1,1,1.75Z"/><path class="cls-1" d="M92.58,29c17.51,0,16.19.06,16.53-.15l3.14-2a4,4,0,0,1-1.07-1.7L108.29,27H92.88l-3-2a3.92,3.92,0,0,1-1,1.75C92.26,29,92.18,29,92.58,29Z"/><rect class="cls-1" x="97" y="31" width="8" height="4"/><circle class="cls-1" cx="86" cy="24" r="2"/><circle class="cls-1" cx="115" cy="24" r="2"/><path class="cls-1" d="M1,25H82.13a3.87,3.87,0,0,1,0-2H1A1,1,0,0,0,1,25Z"/><path class="cls-1" d="M127,25a1,1,0,0,0,0-2h-8.13a4,4,0,0,1,0,2Z"/><path class="cls-1" d="M127,107H1a1,1,0,0,0,0,2H127A1,1,0,0,0,127,107Z"/></g></svg>