<svg xmlns="http://www.w3.org/2000/svg" viewBox="0 0 128 128"><defs><style>.cls-1{fill:#a0aec0;}</style></defs><title>Tuk Tuk</title><g id="Tuk_Tuk" data-name="Tuk Tuk"><path class="cls-1" d="M18,39.91A6,6,0,0,1,19,28h81.54l-1.76-3a8.12,8.12,0,0,0-7-4H22.3A20.3,20.3,0,0,0,2,40.23L1,59H18Z"/><rect class="cls-1" x="71" y="69" width="14" height="6"/><path class="cls-1" d="M71,79.94A3.07,3.07,0,0,0,74.06,83H83V77H71Z"/><path class="cls-1" d="M114.48,76.18A28.68,28.68,0,0,0,116.14,59h-14A9.08,9.08,0,0,1,95,55.56V79.94A5.07,5.07,0,0,1,89.94,85H74.06A5.07,5.07,0,0,1,69,79.94V65H63V79.94A5.07,5.07,0,0,1,57.94,85H46.06A5.07,5.07,0,0,1,41,79.94V64.06A3.07,3.07,0,0,0,37.94,61H1V90H9.26a12,12,0,0,1,20.65,2H90.22a26.7,26.7,0,0,0,11.7-2.69l.52-2.09A14.8,14.8,0,0,1,114.48,76.18Z"/><path class="cls-1" d="M95,49.87A7.14,7.14,0,0,0,102.13,57h13.6c-1.37-6.51-4.74-11.2-14-27H95Z"/><circle class="cls-1" cx="19" cy="97" r="4"/><path class="cls-1" d="M19,87A10,10,0,1,0,29,97,10,10,0,0,0,19,87Zm0,16a6,6,0,1,1,6-6A6,6,0,0,1,19,103Z"/><path class="cls-1" d="M39,34a4,4,0,0,0-4-4H19a4,4,0,0,0,0,8H35A4,4,0,0,0,39,34Z"/><path class="cls-1" d="M111.26,91a8.09,8.09,0,0,1,6.34-3h9.21a10,10,0,0,0-10-10,12.81,12.81,0,0,0-12.43,9.7L102.81,94C105.52,94,108.62,94.23,111.26,91Z"/><circle class="cls-1" cx="117" cy="97" r="4"/><path class="cls-1" d="M124.13,90c-6.3,0-9-.59-11.32,2.27a10.15,10.15,0,0,1-5.73,3.5,10,10,0,1,0,17-5.77ZM117,103a6,6,0,1,1,6-6A6,6,0,0,1,117,103Z"/><rect class="cls-1" x="65" y="30" width="2" height="33"/><rect class="cls-1" x="34" y="40" width="2" height="19"/></g></svg>