<svg xmlns="http://www.w3.org/2000/svg" viewBox="0 0 128 128"><defs><style>.cls-1{fill:#a0aec0;}</style></defs><title>Turnstile</title><g id="Turnstile"><path class="cls-1" d="M54,127H5V113H47.94L54,119.06Z"/><rect class="cls-1" x="14" y="10" width="15" height="6"/><path class="cls-1" d="M5,1V25H38V1ZM31,17a1,1,0,0,1-1,1H13a1,1,0,0,1-1-1V9a1,1,0,0,1,1-1H30a1,1,0,0,1,1,1Z"/><rect class="cls-1" x="5" y="27" width="33" height="84"/><path class="cls-1" d="M40,1h5.66L62.11,17.44,41.55,38H40Z"/><path class="cls-1" d="M57.07,38.43a12.28,12.28,0,0,1-12.16-1l17-17A12.24,12.24,0,0,1,57.07,38.43Z"/><path class="cls-1" d="M56,41V93.81a4.19,4.19,0,0,1-4.22,4.26,4,4,0,0,1-3.78-4v-53A14.39,14.39,0,0,0,56,41Z"/><path class="cls-1" d="M102.1,77.72a4.05,4.05,0,0,1-5.75,0L58.55,39.91a14.09,14.09,0,0,0,5.74-5.76L102.1,72A4.06,4.06,0,0,1,102.1,77.72Z"/><path class="cls-1" d="M121.83,29.83A4,4,0,0,1,119,31H65.53a14.21,14.21,0,0,0-.21-8H119A4,4,0,0,1,121.83,29.83Z"/></g></svg>