<svg xmlns="http://www.w3.org/2000/svg" viewBox="0 0 128 128"><defs><style>.cls-1{fill:#a0aec0;}</style></defs><title>Van</title><g id="Van"><circle class="cls-1" cx="25" cy="83" r="4"/><path class="cls-1" d="M25,73A10,10,0,1,0,35,83,10,10,0,0,0,25,73Zm0,16a6,6,0,1,1,6-6A6,6,0,0,1,25,89Z"/><circle class="cls-1" cx="111" cy="83" r="4"/><path class="cls-1" d="M111,73a10,10,0,1,0,10,10A10,10,0,0,0,111,73Zm0,16a6,6,0,1,1,6-6A6,6,0,0,1,111,89Z"/><rect class="cls-1" x="124" y="67" width="3" height="4"/><rect class="cls-1" x="53" y="39" width="28" height="16"/><rect class="cls-1" x="1" y="61" width="5" height="8"/><path class="cls-1" d="M83,55h23.55l8-2c.1,0,.31.48-7.59-13.8-.17-.3,1.7-.2-24-.2Z"/><polygon class="cls-1" points="12.3 51.49 17.56 55 24.47 55 26.07 39 15.43 39 12.3 51.49"/><polygon class="cls-1" points="51 55 51 39 28.08 39 26.48 55 51 55"/><path class="cls-1" d="M122.84,56.06c-7.62-2.56-7.06-2.43-7.06-2.33a1,1,0,0,1-.73,1.21l-8.13,2c-.19.05,4.09,0-89.66,0-.44,0-.18.08-6.65-4.23a1,1,0,0,1-.42-1.08L13.87,37h91.31a8.11,8.11,0,0,0-5.33-2H12.35a6.09,6.09,0,0,0-5.76,4.12L1,55.42V59H7a1,1,0,0,1,1,1V70a1,1,0,0,1-1,1H1V82l12,1.7A12,12,0,1,1,37,84L99,84A12,12,0,1,1,123,84h4V73h-4a1,1,0,0,1-1-1V66a1,1,0,0,1,1-1h4V61.85A6.12,6.12,0,0,0,122.84,56.06ZM60,65H56a1,1,0,0,1,0-2h4A1,1,0,0,1,60,65Zm28,0H84a1,1,0,0,1,0-2h4A1,1,0,0,1,88,65Z"/></g></svg>