<svg xmlns="http://www.w3.org/2000/svg" viewBox="0 0 128 128"><defs><style>.cls-1{fill:#a0aec0;}</style></defs><title>Wagon</title><g id="Wagon"><circle class="cls-1" cx="25" cy="77" r="3"/><path class="cls-1" d="M25,67A10,10,0,1,0,35,77,10,10,0,0,0,25,67Zm0,15a5,5,0,1,1,5-5A5,5,0,0,1,25,82Z"/><circle class="cls-1" cx="105" cy="77" r="3"/><path class="cls-1" d="M105,67a10,10,0,1,0,10,10A10,10,0,0,0,105,67Zm0,15a5,5,0,1,1,5-5A5,5,0,0,1,105,82Z"/><polygon class="cls-1" points="4.38 63 1 63 1 65 5.38 65 4.38 63"/><path class="cls-1" d="M123,69h4V67h-4A1,1,0,0,0,123,69Z"/><path class="cls-1" d="M59,57H88.23l7.34-2.28C94.4,53.94,100.17,58,81.85,45H59Z"/><polygon class="cls-1" points="57 57 57 45 36.14 45 34.64 57 57 57"/><polygon class="cls-1" points="15.46 57 32.62 57 34.12 45 20.06 45 12.65 55.59 15.46 57"/><path class="cls-1" d="M121.72,58.79,99.07,55.73,88.69,59c-.51.08,3.16,0-73.46,0-.34,0-.17,0-4.52-2.14a1,1,0,0,1-.37-1.47l8.38-12c.43-.62-3.63-.43,60.3-.43-1.51-1.07-2.61-2-4.77-2H15.74a6.11,6.11,0,0,0-4.34,1.81L1,53.33V61c4,0,4.54-.19,4.89.55C9,67.84,9.51,67,1,67v8.94l12,1.74C12.76,71.68,18,65,25.09,65A12,12,0,0,1,37,78C99.31,78,93,78.22,93,77.49a11.87,11.87,0,0,1,8.47-12A12,12,0,0,1,117,78h6L127,73.89V71h-4a3,3,0,0,1-2.94-3.6,3.09,3.09,0,0,1,3.07-2.4H127A6.1,6.1,0,0,0,121.72,58.79ZM66,65H62a1,1,0,0,1,0-2h4A1,1,0,0,1,66,65Z"/></g></svg>