<svg xmlns="http://www.w3.org/2000/svg" viewBox="0 0 128 128"><defs><style>.cls-1{fill:#a0aec0;}</style></defs><title>Waiting Room</title><g id="Waiting_Room" data-name="Waiting Room"><path class="cls-1" d="M126,125h-9V103h4a6,6,0,0,0,6-6,4,4,0,0,0-4-4H89c-4.55,0-5.49,6.23-1.31,9H82.31c4.14-2.75,3.29-9-1.31-9H47c-4.55,0-5.49,6.23-1.31,9H40.31c4.14-2.75,3.29-9-1.31-9H5a4,4,0,0,0-4,4,6,6,0,0,0,6,6h4v22H2a1,1,0,0,0,0,2H126A1,1,0,0,0,126,125ZM13,104H63v10H13Zm52,0h50v10H65Zm50,12v9H65v-9ZM13,116H63v9H13Z"/><path class="cls-1" d="M39,64.24A8.24,8.24,0,0,0,30.76,56H13.24A8.24,8.24,0,0,0,5,64.24V91H39ZM31,82H13a1,1,0,0,1,0-2H31A1,1,0,0,1,31,82Zm0-13H13a1,1,0,0,1,0-2H31A1,1,0,0,1,31,69Z"/><path class="cls-1" d="M123,64.24A8.24,8.24,0,0,0,114.76,56H97.24A8.24,8.24,0,0,0,89,64.24V91h34ZM115,82H97a1,1,0,0,1,0-2h18A1,1,0,0,1,115,82Zm0-13H97a1,1,0,0,1,0-2h18A1,1,0,0,1,115,69Z"/><path class="cls-1" d="M81,64.24A8.24,8.24,0,0,0,72.76,56H55.24A8.24,8.24,0,0,0,47,64.24V91H81ZM73,82H56a1,1,0,0,1,0-2H73A1,1,0,0,1,73,82Zm0-13H56a1,1,0,0,1,0-2H73A1,1,0,0,1,73,69Z"/><path class="cls-1" d="M63.5,34A16.5,16.5,0,1,0,47,17.5,16.5,16.5,0,0,0,63.5,34ZM59,23.16l4-5.95V9a1,1,0,0,1,2,0c0,9.2.07,8.72-.17,9.07-4.35,6.52-4.23,6.64-5,6.64A1,1,0,0,1,59,23.16Z"/></g></svg>