<svg xmlns="http://www.w3.org/2000/svg" viewBox="0 0 128 128"><defs><style>.cls-1{fill:#a0aec0;}</style></defs><title>Way Finding</title><g id="Way_Finding" data-name="Way Finding"><path class="cls-1" d="M68,13a4,4,0,0,0-8,0V113h8Z"/><polygon class="cls-1" points="56 115 54 127 74 127 72 115 56 115"/><path class="cls-1" d="M108,21l-6-8H70V29h32ZM96,22H78a1,1,0,0,1,0-2H96A1,1,0,0,1,96,22Z"/><path class="cls-1" d="M58,39V23H26l-6,8,6,8ZM32,30H50a1,1,0,0,1,0,2H32A1,1,0,0,1,32,30Z"/><path class="cls-1" d="M70,40V56h32l6-8-6-8Zm26,9H78a1,1,0,0,1,0-2H96A1,1,0,0,1,96,49Z"/><path class="cls-1" d="M58,50H26l-6,8,6,8H58Zm-8,9H32a1,1,0,0,1,0-2H50A1,1,0,0,1,50,59Z"/><circle class="cls-1" cx="64" cy="5" r="4"/></g></svg>