<svg xmlns="http://www.w3.org/2000/svg" viewBox="0 0 128 128"><defs><style>.cls-1{fill:#a0aec0;}</style></defs><title>Yacth</title><g id="Yacth"><path class="cls-1" d="M7.1,66C2.71,73.2,1,75.15,1,79.21,1,85,4.73,87.68,9.13,92H90.42c3.31,0,8.36-3,13.65-7H15a1,1,0,0,1,0-2h91.63A239.53,239.53,0,0,0,127,64ZM42,73H23a1,1,0,0,1,0-2H42A1,1,0,0,1,42,73Zm24,0H62a1,1,0,0,1,0-2h4A1,1,0,0,1,66,73Zm10,0H72a1,1,0,0,1,0-2h4A1,1,0,0,1,76,73Zm18,0H90a1,1,0,0,1,0-2h4A1,1,0,0,1,94,73Zm11,0h-4a1,1,0,0,1,0-2h4A1,1,0,0,1,105,73Z"/><path class="cls-1" d="M50.06,63.28l4.48-.07,2.55-5.62c.38-.85-1.79-.59,31.84-.59L78.1,52H9v2C17.05,54.89,43.63,58.42,50.06,63.28Z"/><polygon class="cls-1" points="56.74 63.17 100.72 62.44 93.27 59 58.64 59 56.74 63.17"/><path class="cls-1" d="M21.9,57.78l-1.16,6,2,0,1.1-5.65Z"/><polygon class="cls-1" points="73.43 50 61.97 42 45.66 42 39.66 44 27.34 44 17.34 36 9.13 36 19.23 50 73.43 50"/></g></svg>