<svg xmlns="http://www.w3.org/2000/svg" viewBox="0 0 128 128"><defs><style>.cls-1{fill:#a0aec0;}</style></defs><title>Zepplin</title><g id="Zepplin"><path class="cls-1" d="M80.26,34C53.32,34,1,44.7,1,57.9S53.32,81.81,80.26,81.81,127,71.1,127,57.9,107.2,34,80.26,34ZM23,59H5a1,1,0,0,1,0-2H23A1,1,0,0,1,23,59Z"/><path class="cls-1" d="M20.48,41.81C14.22,43.93,8.82,46.36,5,49.07V38H17.19Z"/><path class="cls-1" d="M20.85,74.12,17.19,78H5V66.74C8.89,69.5,14.43,72,20.85,74.12Z"/><path class="cls-1" d="M34.35,77.89,37.58,94H74.16l2.06-10.26A233.45,233.45,0,0,1,34.35,77.89ZM48,87H44a1,1,0,0,1,0-2h4A1,1,0,0,1,48,87Zm10,0H54a1,1,0,0,1,0-2h4A1,1,0,0,1,58,87Zm10,0H64a1,1,0,0,1,0-2h4A1,1,0,0,1,68,87Z"/></g></svg>