<svg xmlns="http://www.w3.org/2000/svg" xmlns:xlink="http://www.w3.org/1999/xlink" viewBox="0 0 128 128"><defs><style>.cls-1{fill:url(#linear-gradient);}.cls-2{fill:#c7cdd8;}.cls-3{fill:url(#linear-gradient-2);}.cls-4{fill:#e2607f;}.cls-5{fill:#f6b756;}.cls-6{fill:url(#linear-gradient-3);}.cls-7{fill:#77cacb;}.cls-8{fill:url(#linear-gradient-4);}.cls-9{fill:#8288a1;}.cls-10{fill:url(#linear-gradient-5);}.cls-11{fill:url(#linear-gradient-6);}.cls-12{fill:#fbcc88;}.cls-13{fill:#dd4e6a;}.cls-14{fill:url(#linear-gradient-7);}.cls-15{fill:#949aaf;}.cls-16{fill:url(#linear-gradient-8);}.cls-17{fill:#3d465e;}.cls-18{fill:#47566a;}</style><linearGradient id="linear-gradient" x1="105.5" y1="89" x2="105.5" y2="40" gradientUnits="userSpaceOnUse"><stop offset="0" stop-color="#d4d8e1"/><stop offset="1" stop-color="#f3f4f5"/></linearGradient><linearGradient id="linear-gradient-2" x1="42.5" y1="88" x2="42.5" y2="28" xlink:href="#linear-gradient"/><linearGradient id="linear-gradient-3" x1="103.06" y1="64" x2="103.06" y2="40" gradientUnits="userSpaceOnUse"><stop offset="0" stop-color="#9dd5df"/><stop offset="1" stop-color="#c3e1f5"/></linearGradient><linearGradient id="linear-gradient-4" x1="64" y1="88" x2="64" y2="42" gradientUnits="userSpaceOnUse"><stop offset="0" stop-color="#949aaf"/><stop offset="1" stop-color="#c6ccda"/></linearGradient><linearGradient id="linear-gradient-5" x1="64" y1="62" x2="64" y2="50" xlink:href="#linear-gradient-3"/><linearGradient id="linear-gradient-6" x1="27.5" y1="63" x2="27.5" y2="38" gradientUnits="userSpaceOnUse"><stop offset="0" stop-color="#da5466"/><stop offset="1" stop-color="#e87092"/></linearGradient><linearGradient id="linear-gradient-7" x1="109" y1="98" x2="109" y2="78" gradientUnits="userSpaceOnUse"><stop offset="0" stop-color="#464f6b"/><stop offset="1" stop-color="#575f7c"/></linearGradient><linearGradient id="linear-gradient-8" x1="31" x2="31" xlink:href="#linear-gradient-7"/></defs><title>Ambulance</title><g id="Ambulance"><path class="cls-1" d="M127,71V89c-22,0-10.33-1-43-1V40h16.6a6.15,6.15,0,0,1,5.57,3.59c8.5,18.69,7.68,16.88,8.58,18.87l8.06,2.69A6.11,6.11,0,0,1,127,71Z"/><path class="cls-2" d="M127,85v4c-22,0-10.33-1-43-1V84C116.21,84,104.69,85,127,85Z"/><path class="cls-3" d="M84,88V28H1V88Z"/><path class="cls-2" d="M84,88V84H1v4Z"/><path class="cls-4" d="M100,40H92V36a4,4,0,0,1,8,0Z"/><rect class="cls-5" x="123" y="74" width="4" height="4"/><path class="cls-6" d="M114.12,61.55,110.29,64H92V40h9a5,5,0,0,1,3.43,1.36l.68.64c.92,1,.46.29,9,19Z"/><path class="cls-7" d="M114.12,61.55,110.29,64H92V61h18.29l2.94-1.88C114.23,61.33,114.08,60.83,114.12,61.55Z"/><rect class="cls-8" x="52" y="42" width="24" height="46"/><rect class="cls-9" x="52" y="84" width="24" height="4"/><rect class="cls-10" x="58" y="50" width="12" height="12"/><rect class="cls-7" x="58" y="58" width="12" height="4"/><polygon class="cls-11" points="40 46 32 46 32 38 23 38 23 46 15 46 15 55 23 55 23 63 32 63 32 55 40 55 40 46"/><rect class="cls-12" x="1" y="76" width="4" height="4"/><rect class="cls-13" x="23" y="59" width="9" height="4"/><rect class="cls-2" x="84" y="40" width="3" height="48"/><rect class="cls-13" x="92" y="37" width="8" height="3"/><circle class="cls-14" cx="109" cy="88" r="10"/><circle class="cls-15" cx="109" cy="88" r="4"/><circle class="cls-16" cx="31" cy="88" r="10"/><path class="cls-17" d="M109,98a10,10,0,0,1-9.88-11.48,10,10,0,0,0,19.76,0A10,10,0,0,1,109,98Z"/><path class="cls-17" d="M31,98a10,10,0,0,1-9.88-11.48,10,10,0,0,0,19.76,0A10,10,0,0,1,31,98Z"/><circle class="cls-15" cx="31" cy="88" r="4"/><path class="cls-9" d="M112.87,89a4,4,0,0,0-7.74,0,4,4,0,1,1,7.74,0Z"/><path class="cls-9" d="M34.87,89a4,4,0,0,0-7.74,0,4,4,0,1,1,7.74,0Z"/><path class="cls-18" d="M109,83a5,5,0,1,0,5,5A5,5,0,0,0,109,83Zm0,8a3,3,0,1,1,3-3A3,3,0,0,1,109,91Z"/><path class="cls-18" d="M31,83a5,5,0,1,0,5,5A5,5,0,0,0,31,83Zm0,8a3,3,0,1,1,3-3A3,3,0,0,1,31,91Z"/><path class="cls-18" d="M123.13,64.21l-7.65-2.56-8.4-18.47A7.12,7.12,0,0,0,101,39V36a5,5,0,0,0-10,0v3H85V28a1,1,0,0,0-1-1H1a1,1,0,0,0-1,1V88a1,1,0,0,0,1,1H20.05A11,11,0,0,0,42,89h56.1a11,11,0,0,0,21.76,1H127a1,1,0,0,0,1-1V71A7.07,7.07,0,0,0,123.13,64.21ZM105.26,44,113,61.07,110,63H93V41h7.6A5.13,5.13,0,0,1,105.26,44ZM93,36a3,3,0,0,1,6,0v3H93ZM77,71h6V87H77Zm6-42V69H77V42a1,1,0,0,0-1-1H52a1,1,0,0,0-1,1V69H2V29ZM2,77H4v2H2Zm0,4H5a1,1,0,0,0,1-1V76a1,1,0,0,0-1-1H2V71H51V87H42a11,11,0,0,0-21.9,0H2ZM31,97a9,9,0,1,1,9-9A9,9,0,0,1,31,97ZM53,87V43H75V87Zm56,10a9,9,0,1,1,9-9A9,9,0,0,1,109,97Zm11-9a11,11,0,0,0-22-1H85V41h6V64a1,1,0,0,0,1,1h18.29c.4,0,.31,0,3.57-2.1.26.52-.07.29,8.64,3.2A5.1,5.1,0,0,1,126,71v2h-3a1,1,0,0,0-1,1v4a1,1,0,0,0,1,1h3v9Zm6-11h-2V75h2Z"/><path class="cls-18" d="M99,71H94a1,1,0,0,0,0,2h5A1,1,0,0,0,99,71Z"/><path class="cls-18" d="M70,49H58a1,1,0,0,0-1,1V62a1,1,0,0,0,1,1H70a1,1,0,0,0,1-1V50A1,1,0,0,0,70,49ZM69,61H59V51H69Z"/><path class="cls-18" d="M15,56h7v7a1,1,0,0,0,1,1h9a1,1,0,0,0,1-1V56h7a1,1,0,0,0,1-1V46a1,1,0,0,0-1-1H33V38a1,1,0,0,0-1-1H23a1,1,0,0,0-1,1v7H15a1,1,0,0,0-1,1v9A1,1,0,0,0,15,56Zm1-9h7a1,1,0,0,0,1-1V39h7v7a1,1,0,0,0,1,1h7v7H32a1,1,0,0,0-1,1v7H24V55a1,1,0,0,0-1-1H16Z"/></g></svg>