<svg xmlns="http://www.w3.org/2000/svg" xmlns:xlink="http://www.w3.org/1999/xlink" viewBox="0 0 128 128"><defs><style>.cls-1{fill:url(#linear-gradient);}.cls-2{fill:#5b8dc9;}.cls-3{fill:url(#linear-gradient-2);}.cls-4{fill:#c7cdd8;}.cls-5{fill:url(#linear-gradient-3);}.cls-6{fill:#77cacb;}.cls-7{fill:url(#linear-gradient-4);}.cls-8{fill:#8288a1;}.cls-9{fill:url(#linear-gradient-5);}.cls-10{fill:url(#linear-gradient-6);}.cls-11{fill:#3d465e;}.cls-12{fill:#949aaf;}.cls-13{fill:url(#linear-gradient-7);}.cls-14{fill:#f6b756;}.cls-15{fill:#47566a;}</style><linearGradient id="linear-gradient" x1="106.5" y1="90" x2="106.5" y2="44" gradientUnits="userSpaceOnUse"><stop offset="0" stop-color="#7aa8d7"/><stop offset="1" stop-color="#96c8ea"/></linearGradient><linearGradient id="linear-gradient-2" x1="43.5" y1="76" x2="43.5" y2="28" gradientUnits="userSpaceOnUse"><stop offset="0" stop-color="#d4d8e1"/><stop offset="1" stop-color="#f3f4f5"/></linearGradient><linearGradient id="linear-gradient-3" x1="111.77" y1="66" x2="111.77" y2="44" gradientUnits="userSpaceOnUse"><stop offset="0" stop-color="#9dd5df"/><stop offset="1" stop-color="#c3e1f5"/></linearGradient><linearGradient id="linear-gradient-4" x1="43.5" y1="90" x2="43.5" y2="76" gradientUnits="userSpaceOnUse"><stop offset="0" stop-color="#949aaf"/><stop offset="1" stop-color="#c6ccda"/></linearGradient><linearGradient id="linear-gradient-5" x1="19" y1="100" x2="19" y2="80" gradientUnits="userSpaceOnUse"><stop offset="0" stop-color="#464f6b"/><stop offset="1" stop-color="#575f7c"/></linearGradient><linearGradient id="linear-gradient-6" x1="101" x2="101" xlink:href="#linear-gradient-5"/><linearGradient id="linear-gradient-7" x1="123" y1="79" x2="127" y2="79" gradientUnits="userSpaceOnUse"><stop offset="0" stop-color="#fbcc88"/><stop offset="1" stop-color="#ffe5c3"/></linearGradient></defs><title>Box Truck</title><g id="Box_Truck" data-name="Box Truck"><path class="cls-1" d="M127,67.82V90H86V44h25.25a6.12,6.12,0,0,1,5.23,3C125.67,62.22,127,63.35,127,67.82Z"/><rect class="cls-2" x="86" y="87" width="41" height="3"/><rect class="cls-3" x="1" y="28" width="85" height="48"/><rect class="cls-4" x="1" y="72" width="85" height="4"/><path class="cls-5" d="M126.53,64.47,125,66H115l-4-4H97V44h14.33a5.94,5.94,0,0,1,4.44,2h0c.63.7,10.24,16.58,10.24,17A12.83,12.83,0,0,1,126.53,64.47Z"/><path class="cls-6" d="M126.53,64.47,125,66H115l-4-4H97V60h14l4,4h10l1-1A12.83,12.83,0,0,1,126.53,64.47Z"/><path class="cls-7" d="M86,90V76H1V90Z"/><path class="cls-8" d="M86,90V87H1v3Z"/><circle class="cls-9" cx="19" cy="90" r="10"/><circle class="cls-10" cx="101" cy="90" r="10"/><path class="cls-11" d="M19,100A10,10,0,0,1,9.12,88.52a10,10,0,0,0,19.76,0A10,10,0,0,1,19,100Z"/><path class="cls-11" d="M101,100a10,10,0,0,1-9.88-11.48,10,10,0,0,0,19.76,0A10,10,0,0,1,101,100Z"/><circle class="cls-12" cx="19" cy="90" r="4"/><circle class="cls-12" cx="101" cy="90" r="4"/><path class="cls-8" d="M22.87,91a4,4,0,0,0-7.74,0,4,4,0,1,1,7.74,0Z"/><path class="cls-8" d="M104.87,91a4,4,0,0,0-7.74,0,4,4,0,1,1,7.74,0Z"/><rect class="cls-13" x="123" y="76" width="4" height="6"/><rect class="cls-14" x="123" y="80" width="4" height="2"/><path class="cls-15" d="M127.32,63.67c-.68-2.05-.6-1.64-10-17.23A7.12,7.12,0,0,0,111.25,43H87V28a1,1,0,0,0-1-1H1a1,1,0,0,0-1,1V90a1,1,0,0,0,1,1H8.05A11,11,0,0,0,30,91c78.67,0,55.92.21,60.1,0A11,11,0,0,0,112,91h15a1,1,0,0,0,1-1C128,71.76,128.25,64.6,127.32,63.67Zm-11.7-16.2c11.28,18.74,10.19,16.31,9,17.53h-9.18c-4-4-3.85-4-4.41-4H98V45h13.25A5.14,5.14,0,0,1,115.62,47.47ZM2,29H85V75H2ZM2,77H85V89H30a11,11,0,0,0-21.9,0H2ZM19,99a9,9,0,1,1,9-9A9,9,0,0,1,19,99Zm82,0a9,9,0,1,1,9-9A9,9,0,0,1,101,99Zm11-10a11,11,0,0,0-21.9,0c-.3,0,1.06,0-3,0V45h9V62a1,1,0,0,0,1,1h13.59c4,4,3.85,4,4.41,4,11.36,0,10.24.18,10.91-.5.12,1,.09.45.09,8.5h-3a1,1,0,0,0-1,1v6a1,1,0,0,0,1,1h3v6Zm14-8h-2V77h2Z"/><path class="cls-15" d="M103,69H99a1,1,0,0,0,0,2h4A1,1,0,0,0,103,69Z"/><path class="cls-15" d="M19,85a5,5,0,1,0,5,5A5,5,0,0,0,19,85Zm0,8a3,3,0,1,1,3-3A3,3,0,0,1,19,93Z"/><path class="cls-15" d="M101,85a5,5,0,1,0,5,5A5,5,0,0,0,101,85Zm0,8a3,3,0,1,1,3-3A3,3,0,0,1,101,93Z"/></g></svg>