<svg xmlns="http://www.w3.org/2000/svg" xmlns:xlink="http://www.w3.org/1999/xlink" viewBox="0 0 128 128"><defs><style>.cls-1{fill:url(#linear-gradient);}.cls-2{fill:url(#linear-gradient-2);}.cls-3{fill:#77cacb;}.cls-4{fill:url(#linear-gradient-3);}.cls-5{fill:url(#linear-gradient-4);}.cls-6{fill:url(#linear-gradient-5);}.cls-7{fill:url(#linear-gradient-6);}.cls-8{fill:url(#linear-gradient-7);}.cls-9{fill:#3d465e;}.cls-10{fill:url(#linear-gradient-8);}.cls-11{fill:#5b8dc9;}.cls-12{fill:url(#linear-gradient-9);}.cls-13{fill:#8288a1;}.cls-14{fill:#47566a;}</style><linearGradient id="linear-gradient" x1="64.36" y1="78" x2="64.36" y2="41" gradientUnits="userSpaceOnUse"><stop offset="0" stop-color="#d4d8e1"/><stop offset="1" stop-color="#f3f4f5"/></linearGradient><linearGradient id="linear-gradient-2" x1="100.15" y1="62" x2="100.15" y2="50" gradientUnits="userSpaceOnUse"><stop offset="0" stop-color="#9dd5df"/><stop offset="1" stop-color="#c3e1f5"/></linearGradient><linearGradient id="linear-gradient-3" x1="22.5" x2="22.5" xlink:href="#linear-gradient-2"/><linearGradient id="linear-gradient-4" x1="11" y1="87" x2="11" y2="78" gradientUnits="userSpaceOnUse"><stop offset="0" stop-color="#464f6b"/><stop offset="1" stop-color="#575f7c"/></linearGradient><linearGradient id="linear-gradient-5" x1="23" x2="23" xlink:href="#linear-gradient-4"/><linearGradient id="linear-gradient-6" x1="84" x2="84" xlink:href="#linear-gradient-4"/><linearGradient id="linear-gradient-7" x1="96" x2="96" xlink:href="#linear-gradient-4"/><linearGradient id="linear-gradient-8" x1="64.18" y1="78" x2="64.18" y2="70" gradientUnits="userSpaceOnUse"><stop offset="0" stop-color="#7aa8d7"/><stop offset="1" stop-color="#96c8ea"/></linearGradient><linearGradient id="linear-gradient-9" x1="59" y1="78" x2="59" y2="50" gradientUnits="userSpaceOnUse"><stop offset="0" stop-color="#949aaf"/><stop offset="1" stop-color="#c6ccda"/></linearGradient></defs><title>Bullet Train</title><g id="Bullet_Train" data-name="Bullet Train"><path class="cls-1" d="M117,78H1V41H84.56c10.13,0,17.24,3.29,24.66,8.22,14.4,9.6,14.15,9.32,15.11,10.28A10.7,10.7,0,0,1,117,78Z"/><path class="cls-2" d="M126.31,62H74V50h36.39C123.76,58.91,124.47,58.94,126.31,62Z"/><path class="cls-3" d="M126.31,62H74V59c53.45,0,49.58-.25,50.33.5A10.26,10.26,0,0,1,126.31,62Z"/><rect class="cls-4" x="1" y="50" width="43" height="12"/><rect class="cls-3" x="1" y="59" width="43" height="3"/><path class="cls-5" d="M16.19,78A6,6,0,1,1,5.81,78"/><path class="cls-6" d="M17.81,78a6,6,0,1,0,10.38,0"/><path class="cls-7" d="M89.19,78a6,6,0,1,1-10.38,0"/><path class="cls-8" d="M90.81,78a6,6,0,1,0,10.38,0"/><path class="cls-9" d="M11,87a6,6,0,0,1-5.81-7.51,6,6,0,0,0,11.62,0A6,6,0,0,1,11,87Z"/><path class="cls-9" d="M23,87a6,6,0,0,1-5.81-7.51,6,6,0,0,0,11.62,0A6,6,0,0,1,23,87Z"/><path class="cls-9" d="M84,87a6,6,0,0,1-5.81-7.51,6,6,0,0,0,11.62,0A6,6,0,0,1,84,87Z"/><path class="cls-9" d="M96,87a6,6,0,0,1-5.81-7.51,6,6,0,0,0,11.62,0A6,6,0,0,1,96,87Z"/><path class="cls-10" d="M127.37,70A10.65,10.65,0,0,1,117,78H1V70Z"/><path class="cls-11" d="M127.37,70A10.65,10.65,0,0,1,117,78H1V75H117a10.75,10.75,0,0,0,7.59-3.12C126.8,69.64,125.2,70,127.37,70Z"/><rect class="cls-12" x="52" y="50" width="14" height="28"/><rect class="cls-13" x="52" y="75" width="14" height="3"/><path class="cls-14" d="M127,86H100.89a7,7,0,0,0,1.81-7H117a11.71,11.71,0,0,0,8-20.21c-1-1-.13-.32-17.24-11.72A42,42,0,0,0,84.56,40H1a1,1,0,0,0,0,2H84.55a39.94,39.94,0,0,1,22.14,6.74c.61.4,4.51.26-32.69.26a1,1,0,0,0-1,1V62a1,1,0,0,0,1,1h51.69a9.49,9.49,0,0,1,.88,6H67V50a1,1,0,0,0-1-1H52a1,1,0,0,0-1,1V69H1a1,1,0,0,0,0,2H51v6H1a1,1,0,0,0,0,2H4.3a7,7,0,0,0,1.81,7H1a1,1,0,0,0,0,2H127A1,1,0,0,0,127,86ZM96,86a5,5,0,0,1-4.58-7h9.16A5,5,0,0,1,96,86ZM84,86a5,5,0,0,1-4.58-7h9.16A5,5,0,0,1,84,86Zm40.38-25H95.14L90.56,51h19.53C123.74,60.1,123.07,59.49,124.38,61ZM75,51H88.36l4.58,10H75Zm51,20a9.66,9.66,0,0,1-9,6H67V71ZM53,51H65V77H53ZM23,86a5,5,0,0,1-4.58-7h9.16A5,5,0,0,1,23,86ZM6.42,79h9.16a5,5,0,1,1-9.16,0Zm9.47,7c1.93-1.88.29-1.88,2.22,0Zm12,0a7,7,0,0,0,1.81-7H77.3a7,7,0,0,0,1.81,7Zm61,0c1.93-1.88.29-1.88,2.22,0Z"/><path class="cls-14" d="M1,61a1,1,0,0,0,0,2H44a1,1,0,0,0,1-1V50a1,1,0,0,0-1-1H1a1,1,0,0,0,0,2H7V61Zm20,0V51H31V61Zm22,0H33V51H43ZM9,51H19V61H9Z"/></g></svg>