<svg xmlns="http://www.w3.org/2000/svg" xmlns:xlink="http://www.w3.org/1999/xlink" viewBox="0 0 128 128"><defs><style>.cls-1{fill:url(#linear-gradient);}.cls-2{fill:#8288a1;}.cls-3{fill:url(#linear-gradient-2);}.cls-4{fill:#5b8dc9;}.cls-5{fill:url(#linear-gradient-3);}.cls-6{fill:#c7cdd8;}.cls-7{fill:url(#linear-gradient-4);}.cls-8{fill:url(#linear-gradient-5);}.cls-9{fill:#77cacb;}.cls-10{fill:url(#linear-gradient-6);}.cls-11{fill:#464f6b;}.cls-12{fill:#3d465e;}.cls-13{fill:url(#linear-gradient-7);}.cls-14{fill:url(#linear-gradient-8);}.cls-15{fill:url(#linear-gradient-9);}.cls-16{fill:url(#linear-gradient-10);}.cls-17{fill:url(#linear-gradient-11);}.cls-18{fill:url(#linear-gradient-12);}</style><linearGradient id="linear-gradient" x1="64" y1="127" x2="64" y2="98.64" gradientUnits="userSpaceOnUse"><stop offset="0" stop-color="#949aaf"/><stop offset="1" stop-color="#c6ccda"/></linearGradient><linearGradient id="linear-gradient-2" x1="64" y1="99" x2="64" y2="1" gradientUnits="userSpaceOnUse"><stop offset="0" stop-color="#7aa8d7"/><stop offset="1" stop-color="#96c8ea"/></linearGradient><linearGradient id="linear-gradient-3" x1="63.5" y1="90" x2="63.5" y2="9" gradientUnits="userSpaceOnUse"><stop offset="0" stop-color="#d4d8e1"/><stop offset="1" stop-color="#f3f4f5"/></linearGradient><linearGradient id="linear-gradient-4" y1="66" y2="25" xlink:href="#linear-gradient-2"/><linearGradient id="linear-gradient-5" x1="64" y1="52" x2="64" y2="34" gradientUnits="userSpaceOnUse"><stop offset="0" stop-color="#9dd5df"/><stop offset="1" stop-color="#c3e1f5"/></linearGradient><linearGradient id="linear-gradient-6" x1="52" y1="74" x2="52" y2="66" gradientUnits="userSpaceOnUse"><stop offset="0" stop-color="#464f6b"/><stop offset="1" stop-color="#575f7c"/></linearGradient><linearGradient id="linear-gradient-7" x1="64" y1="127.99" x2="64" y2="0" xlink:href="#linear-gradient-6"/><linearGradient id="linear-gradient-8" x1="63.5" y1="91" x2="63.5" y2="8" xlink:href="#linear-gradient-6"/><linearGradient id="linear-gradient-9" x1="53" y1="61" x2="53" y2="57" xlink:href="#linear-gradient-6"/><linearGradient id="linear-gradient-10" x1="75" y1="61" x2="75" y2="57" xlink:href="#linear-gradient-6"/><linearGradient id="linear-gradient-11" x1="64" y1="61" x2="64" y2="59" xlink:href="#linear-gradient-6"/><linearGradient id="linear-gradient-12" x1="64" y1="75" x2="64" y2="24" xlink:href="#linear-gradient-6"/></defs><title>Bus Station</title><g id="Bus_Station" data-name="Bus Station"><rect class="cls-1" x="58" y="98.64" width="12" height="28.36"/><rect class="cls-2" x="58" y="124" width="12" height="3"/><circle class="cls-3" cx="64" cy="50" r="49"/><path class="cls-4" d="M64,99A49,49,0,0,1,15,48,49,49,0,0,0,113,48,49,49,0,0,1,64,99Z"/><circle class="cls-5" cx="63.5" cy="49.5" r="40.5"/><path class="cls-6" d="M63.5,90A40.49,40.49,0,0,1,23.05,47.5a40.5,40.5,0,0,0,80.9,0A40.49,40.49,0,0,1,63.5,90Z"/><path class="cls-7" d="M49.11,25H78.89A4.11,4.11,0,0,1,83,29.11V66a0,0,0,0,1,0,0H45a0,0,0,0,1,0,0V29.11A4.11,4.11,0,0,1,49.11,25Z"/><rect class="cls-8" x="45" y="34" width="38" height="18"/><rect class="cls-9" x="45" y="49" width="38" height="3"/><path class="cls-10" d="M48,66h8a0,0,0,0,1,0,0v6a2,2,0,0,1-2,2H50a2,2,0,0,1-2-2V66A0,0,0,0,1,48,66Z"/><path class="cls-11" d="M72,66h8a0,0,0,0,1,0,0v6a2,2,0,0,1-2,2H74a2,2,0,0,1-2-2V66A0,0,0,0,1,72,66Z"/><path class="cls-12" d="M56,70v2a2,2,0,0,1-2,2H50a2,2,0,0,1-2-2V70a2,2,0,0,0,2,2h4A2,2,0,0,0,56,70Z"/><path class="cls-12" d="M80,70v2a2,2,0,0,1-2,2H74a2,2,0,0,1-2-2V70a2,2,0,0,0,2,2h4A2,2,0,0,0,80,70Z"/><rect class="cls-4" x="45" y="63" width="38" height="3"/><path class="cls-13" d="M114,50A50,50,0,1,0,57,99.5V127a1,1,0,0,0,2,0V99.75a50.62,50.62,0,0,0,10,0V127a1,1,0,0,0,2,0V99.5A50.07,50.07,0,0,0,114,50ZM64,98a48,48,0,1,1,48-48A48.05,48.05,0,0,1,64,98Z"/><path class="cls-14" d="M63.5,8A41.5,41.5,0,1,0,105,49.5,41.55,41.55,0,0,0,63.5,8Zm0,81A39.5,39.5,0,1,1,103,49.5,39.55,39.55,0,0,1,63.5,89Z"/><circle class="cls-15" cx="53" cy="59" r="2"/><circle class="cls-16" cx="75" cy="59" r="2"/><path class="cls-17" d="M60,61h8a1,1,0,0,0,0-2H60A1,1,0,0,0,60,61Z"/><path class="cls-18" d="M85.94,33H84V29.11A5.11,5.11,0,0,0,78.89,24H49.11A5.11,5.11,0,0,0,44,29.11V33H42.06A5.07,5.07,0,0,0,37,38.06V42a1,1,0,0,0,2,0V38.06A3.07,3.07,0,0,1,42.06,35H44V66a1,1,0,0,0,1,1h2v5a3,3,0,0,0,3,3h4a3,3,0,0,0,3-3V67H71v5a3,3,0,0,0,3,3h4a3,3,0,0,0,3-3V67h2a1,1,0,0,0,1-1V35h1.94A3.07,3.07,0,0,1,89,38.06V42a1,1,0,0,0,2,0V38.06A5.07,5.07,0,0,0,85.94,33ZM46,29.11A3.11,3.11,0,0,1,49.11,26H78.89A3.11,3.11,0,0,1,82,29.11V33H46ZM55,72a1,1,0,0,1-1,1H50a1,1,0,0,1-1-1V67h6Zm24,0a1,1,0,0,1-1,1H74a1,1,0,0,1-1-1V67h6Zm3-7H46V53H82Zm0-14H46V35H82Z"/></g></svg>