<svg xmlns="http://www.w3.org/2000/svg" xmlns:xlink="http://www.w3.org/1999/xlink" viewBox="0 0 128 128"><defs><style>.cls-1{fill:url(#linear-gradient);}.cls-2{fill:#5b8dc9;}.cls-3{fill:url(#linear-gradient-2);}.cls-4{fill:url(#linear-gradient-3);}.cls-5{fill:#3d465e;}.cls-6{fill:#adb3c4;}.cls-7{fill:#949aaf;}.cls-8{fill:url(#linear-gradient-4);}.cls-9{fill:#77cacb;}.cls-10{fill:url(#linear-gradient-5);}.cls-11{fill:#fbcc88;}.cls-12{fill:#f6b756;}.cls-13{fill:#e2607f;}.cls-14{fill:#dd4e6a;}.cls-15{fill:#47566a;}</style><linearGradient id="linear-gradient" x1="64.04" y1="84" x2="64.04" y2="37" gradientUnits="userSpaceOnUse"><stop offset="0" stop-color="#7aa8d7"/><stop offset="1" stop-color="#96c8ea"/></linearGradient><linearGradient id="linear-gradient-2" x1="31" y1="91" x2="31" y2="75" gradientUnits="userSpaceOnUse"><stop offset="0" stop-color="#464f6b"/><stop offset="1" stop-color="#575f7c"/></linearGradient><linearGradient id="linear-gradient-3" x1="103" y1="91" x2="103" y2="75" xlink:href="#linear-gradient-2"/><linearGradient id="linear-gradient-4" x1="119" y1="70" x2="119" y2="37" gradientUnits="userSpaceOnUse"><stop offset="0" stop-color="#9dd5df"/><stop offset="1" stop-color="#c3e1f5"/></linearGradient><linearGradient id="linear-gradient-5" x1="55.5" y1="58" x2="55.5" xlink:href="#linear-gradient-4"/></defs><title>Bus</title><g id="Bus"><path class="cls-1" d="M127,84H7.1L1,82V43.1A6.1,6.1,0,0,1,7.1,37H116.51A4.06,4.06,0,0,1,120,39.06C128.35,54.29,127,63.06,127,84Z"/><polygon class="cls-2" points="127 81 127 84 7.1 84 1 81.96 1 78.96 7.1 81 127 81"/><circle class="cls-3" cx="31" cy="83" r="8"/><circle class="cls-4" cx="103" cy="83" r="8"/><path class="cls-5" d="M31,91a8,8,0,0,1-7.86-9.5,8,8,0,0,0,15.72,0A8,8,0,0,1,31,91Z"/><path class="cls-5" d="M103,91a8,8,0,0,1-7.86-9.5,8,8,0,0,0,15.72,0A8,8,0,0,1,103,91Z"/><circle class="cls-6" cx="31" cy="83" r="3"/><circle class="cls-6" cx="103" cy="83" r="3"/><path class="cls-7" d="M33.82,84a3,3,0,0,0-5.64,0,3,3,0,1,1,5.64,0Z"/><path class="cls-7" d="M105.82,84a3,3,0,0,0-5.64,0,3,3,0,1,1,5.64,0Z"/><path class="cls-8" d="M127,65.26V70h-8.89L111,62.89V37h6a3.74,3.74,0,0,1,3,2.06A52.88,52.88,0,0,1,127,65.26Z"/><polygon class="cls-9" points="127 67 127 70 118.11 70 111 62.89 111 59.89 118.11 67 127 67"/><rect class="cls-10" x="9" y="37" width="93" height="21"/><rect class="cls-9" x="9" y="55" width="93" height="3"/><rect class="cls-11" x="123" y="75" width="4" height="4"/><rect class="cls-12" x="123" y="77" width="4" height="2"/><rect class="cls-13" x="1" y="66" width="6" height="10"/><rect class="cls-14" x="1" y="73" width="6" height="3"/><path class="cls-15" d="M31,79a4,4,0,1,0,4,4A4,4,0,0,0,31,79Zm0,6a2,2,0,1,1,2-2A2,2,0,0,1,31,85Z"/><path class="cls-15" d="M103,79a4,4,0,1,0,4,4A4,4,0,0,0,103,79Zm0,6a2,2,0,1,1,2-2A2,2,0,0,1,103,85Z"/><path class="cls-15" d="M121,38.68A5.06,5.06,0,0,0,116.51,36H7.1A7.1,7.1,0,0,0,0,43.1V82a1,1,0,0,0,.68.94C7.29,85.12,6.86,85,7.1,85H22.23a9,9,0,0,0,17.55,0c.3.06-2.73,0,54.45,0a9,9,0,0,0,17.54,0H127a1,1,0,0,0,1-1C128,65.14,129.48,53.64,121,38.68Zm-1.8.87A51.86,51.86,0,0,1,126,65.26V69h-7.47L112,62.47V38h4.51A3.05,3.05,0,0,1,119.17,39.55ZM101,38V57H89V38ZM87,38V57H75V38ZM73,38V57H59V38ZM57,38V57H43V38ZM41,38V57H26V38ZM24,38V57H10V38ZM2,67H6v8H2ZM31,90a7,7,0,1,1,7-7A7,7,0,0,1,31,90Zm72,0a7,7,0,1,1,7-7A7,7,0,0,1,103,90Zm9-7a9,9,0,0,0-18,0H40a9,9,0,0,0-18,0H7.26L2,81.24V77H7a1,1,0,0,0,1-1V66a1,1,0,0,0-1-1H2V43.1A5.11,5.11,0,0,1,7.1,38H8V58a1,1,0,0,0,1,1h93a1,1,0,0,0,1-1V38h7c0,27.18-.13,25.17.29,25.59C118,71.26,117.53,71,118.11,71H126v3h-3a1,1,0,0,0-1,1v4a1,1,0,0,0,1,1h3v3Zm14-5h-2V76h2Z"/></g></svg>