<svg xmlns="http://www.w3.org/2000/svg" xmlns:xlink="http://www.w3.org/1999/xlink" viewBox="0 0 128 128"><defs><style>.cls-1{fill:url(#linear-gradient);}.cls-2{fill:#77cacb;}.cls-3{fill:url(#linear-gradient-2);}.cls-4{fill:#5b8dc9;}.cls-5{fill:url(#linear-gradient-3);}.cls-6{fill:url(#linear-gradient-4);}.cls-7{fill:url(#linear-gradient-5);}.cls-8{fill:#8288a1;}.cls-9{fill:url(#linear-gradient-6);}.cls-10{fill:url(#linear-gradient-7);}.cls-11{fill:url(#linear-gradient-8);}.cls-12{fill:url(#linear-gradient-9);}.cls-13{fill:url(#linear-gradient-10);}.cls-14{fill:url(#linear-gradient-11);}.cls-15{fill:#3d465e;}.cls-16{fill:#47566a;}</style><linearGradient id="linear-gradient" x1="64.01" y1="97.04" x2="64.01" y2="53.32" gradientUnits="userSpaceOnUse"><stop offset="0" stop-color="#9dd5df"/><stop offset="1" stop-color="#c3e1f5"/></linearGradient><linearGradient id="linear-gradient-2" x1="64" y1="46" x2="64" y2="36" gradientUnits="userSpaceOnUse"><stop offset="0" stop-color="#7aa8d7"/><stop offset="1" stop-color="#96c8ea"/></linearGradient><linearGradient id="linear-gradient-3" x1="64" y1="127" x2="64" y2="54" xlink:href="#linear-gradient"/><linearGradient id="linear-gradient-4" x1="23.5" y1="107" x2="23.5" y2="97" gradientUnits="userSpaceOnUse"><stop offset="0" stop-color="#949aaf"/><stop offset="1" stop-color="#c6ccda"/></linearGradient><linearGradient id="linear-gradient-5" x1="104.5" x2="104.5" xlink:href="#linear-gradient-4"/><linearGradient id="linear-gradient-6" x1="103" y1="127" x2="103" y2="107" xlink:href="#linear-gradient-2"/><linearGradient id="linear-gradient-7" x1="25" y1="127" x2="25" y2="107" xlink:href="#linear-gradient-2"/><linearGradient id="linear-gradient-8" x1="64.5" y1="36" x2="64.5" y2="28" xlink:href="#linear-gradient-4"/><linearGradient id="linear-gradient-9" x1="64" y1="28" x2="64" y2="20" xlink:href="#linear-gradient-4"/><linearGradient id="linear-gradient-10" x1="64" y1="54" x2="64" y2="46" xlink:href="#linear-gradient-4"/><linearGradient id="linear-gradient-11" x1="64" y1="9" x2="64" y2="1" gradientUnits="userSpaceOnUse"><stop offset="0" stop-color="#464f6b"/><stop offset="1" stop-color="#575f7c"/></linearGradient></defs><title>Cable Car</title><g id="Cable_Car" data-name="Cable Car"><path class="cls-1" d="M119,53.32C122.41,70,125,80,125,97c0,.1,5.21,0-121.94,0,0-17,2.56-27,6-43.68Z"/><rect class="cls-2" x="3" y="94" width="122" height="3"/><path class="cls-3" d="M11.72,46A12.85,12.85,0,0,1,24.26,36h79.48a12.86,12.86,0,0,1,12.54,10"/><path class="cls-4" d="M116.28,46H11.72a12.63,12.63,0,0,1,1.09-3H115.19A12.63,12.63,0,0,1,116.28,46Z"/><rect class="cls-5" x="46" y="54" width="36" height="73"/><rect class="cls-2" x="46" y="124" width="36" height="3"/><rect class="cls-6" x="1" y="97" width="45" height="10"/><rect class="cls-7" x="82" y="97" width="45" height="10"/><rect class="cls-8" x="1" y="104" width="45" height="3"/><rect class="cls-8" x="82" y="104" width="45" height="3"/><path class="cls-9" d="M124,107l-8,20H82V107Z"/><path class="cls-10" d="M46,107v20H12c-2.82-7.06-6.43-16.08-8-20Z"/><path class="cls-11" d="M81,36c-34.15,0-33-.1-33,0a8,8,0,0,1,8-8H73A8,8,0,0,1,81,36Z"/><path class="cls-8" d="M81,36H48a8.09,8.09,0,0,1,.58-3H80.42A8.09,8.09,0,0,1,81,36Z"/><path class="cls-12" d="M72,28c-16.82,0-16-.1-16,0a8,8,0,0,1,16,0Z"/><path class="cls-8" d="M72,28H56a8.09,8.09,0,0,1,.58-3H71.42A8.09,8.09,0,0,1,72,28Z"/><path class="cls-13" d="M119,54H9a4,4,0,0,1,0-8H119a4,4,0,0,1,0,8Z"/><path class="cls-8" d="M119,54H9a4,4,0,0,1-3.7-5.5A4,4,0,0,0,9,51H119a4,4,0,0,0,3.7-2.5A4,4,0,0,1,119,54Z"/><polygon class="cls-4" points="46 123 46 127 12 127 10.4 123 46 123"/><polygon class="cls-4" points="117.6 123 116 127 82 127 82 123 117.6 123"/><circle class="cls-14" cx="64" cy="5" r="4"/><path class="cls-15" d="M64,9a4,4,0,0,1-3.87-5,4,4,0,0,0,7.74,0A4,4,0,0,1,64,9Z"/><path class="cls-16" d="M127,96h-1c-.12-17.78-3.12-29.17-5.85-41.13A5,5,0,0,0,119,45h-2a13.78,13.78,0,0,0-13.3-10H81.94a9,9,0,0,0-9-8A9,9,0,0,0,65,19.06V9.9A5,5,0,0,0,68.9,6H127a1,1,0,0,0,0-2H68.9a5,5,0,0,0-9.8,0H1A1,1,0,0,0,1,6H59.1A5,5,0,0,0,63,9.9v9.16a9,9,0,0,0-8,8,9,9,0,0,0-8,8H24.26A13.78,13.78,0,0,0,11,45H9a5,5,0,0,0-1.1,9.87C5,67.56,2.17,78.36,2.05,96H1a1,1,0,0,0-1,1v10a1,1,0,0,0,1,1H3.32l7.75,19.37c.39,1-7,.63,104.93.63,1,0,.36.79,8.68-20H127a1,1,0,0,0,1-1V97A1,1,0,0,0,127,96Zm-3,0H106V55h12.08C121,67.69,123.84,78.66,124,96ZM83,96V85h21V96Zm21-41V83H83V55ZM61,5a3,3,0,1,1,3,3A3,3,0,0,1,61,5Zm3,16a7,7,0,0,1,6.93,6H57.07A7,7,0,0,1,64,21Zm-8,8H73a7,7,0,0,1,6.93,6H49.07A7,7,0,0,1,56,29ZM24.26,37h79.48A11.79,11.79,0,0,1,115,45H13.05A11.79,11.79,0,0,1,24.26,37ZM6,50a3,3,0,0,1,3-3H119a3,3,0,0,1,0,6H9A3,3,0,0,1,6,50ZM22,85H45V96H22Zm23-2H22V55H45ZM9.92,55H20V96H4C4.16,78.5,7.12,67.28,9.92,55ZM2,98H45v8H2Zm3.48,10H45v18H12.68ZM47,55H81v71H47Zm68.32,71H83V108h39.52ZM126,106H83V98h43Z"/></g></svg>