<svg xmlns="http://www.w3.org/2000/svg" xmlns:xlink="http://www.w3.org/1999/xlink" viewBox="0 0 128 128"><defs><style>.cls-1{fill:url(#linear-gradient);}.cls-2{fill:url(#linear-gradient-2);}.cls-3{fill:#c7cdd8;}.cls-4{fill:url(#linear-gradient-3);}.cls-5{fill:#77cacb;}.cls-6{fill:url(#linear-gradient-4);}.cls-7{fill:#e2607f;}.cls-8{fill:#dd4e6a;}.cls-9{fill:#fbcc88;}.cls-10{fill:#f6b756;}.cls-11{fill:url(#linear-gradient-5);}.cls-12{fill:#8288a1;}.cls-13{fill:url(#linear-gradient-6);}.cls-14{fill:url(#linear-gradient-7);}.cls-15{fill:#adb3c4;}.cls-16{fill:#edf0f4;}.cls-17{fill:#47566a;}</style><linearGradient id="linear-gradient" x1="64.02" y1="88" x2="64.02" y2="32" gradientUnits="userSpaceOnUse"><stop offset="0" stop-color="#d4d8e1"/><stop offset="1" stop-color="#f3f4f5"/></linearGradient><linearGradient id="linear-gradient-2" x1="102.52" x2="102.52" y2="48" xlink:href="#linear-gradient"/><linearGradient id="linear-gradient-3" x1="97.19" y1="64" x2="97.19" y2="48" gradientUnits="userSpaceOnUse"><stop offset="0" stop-color="#9dd5df"/><stop offset="1" stop-color="#c3e1f5"/></linearGradient><linearGradient id="linear-gradient-4" x1="29" y1="66" x2="29" xlink:href="#linear-gradient-3"/><linearGradient id="linear-gradient-5" x1="60" y1="88" x2="60" y2="48" gradientUnits="userSpaceOnUse"><stop offset="0" stop-color="#949aaf"/><stop offset="1" stop-color="#c6ccda"/></linearGradient><linearGradient id="linear-gradient-6" x1="31" y1="96" x2="31" y2="76" gradientUnits="userSpaceOnUse"><stop offset="0" stop-color="#464f6b"/><stop offset="1" stop-color="#575f7c"/></linearGradient><linearGradient id="linear-gradient-7" x1="111" y1="96" x2="111" y2="76" xlink:href="#linear-gradient-6"/></defs><title>Campervan</title><g id="Campervan"><path class="cls-1" d="M127,88H1V32H88.79a28.94,28.94,0,0,1,14.71,4c3,1.72,5.5,3.44,5.5,6.6a5.4,5.4,0,0,1-5.4,5.4H101l8,12,17.24,5.75C127.27,66.09,127,67,127,88Z"/><path class="cls-2" d="M127,88H78V48h23l8,12,17.24,5.75C127.27,66.09,127,67,127,88Z"/><rect class="cls-3" x="1" y="84" width="77" height="4"/><rect class="cls-3" x="78" y="84" width="49" height="4"/><path class="cls-4" d="M108.35,59.94,104.29,64H86V48h15C109.4,60.59,108.31,58.59,108.35,59.94Z"/><path class="cls-5" d="M108.35,59.94,104.29,64H86V61h18.29l3.23-3.23C108.52,59.28,108.31,58.73,108.35,59.94Z"/><rect class="cls-6" x="19" y="48" width="20" height="18"/><rect class="cls-5" x="19" y="63" width="20" height="3"/><rect class="cls-7" x="1" y="66" width="8" height="10"/><rect class="cls-8" x="1" y="72" width="8" height="4"/><path class="cls-9" d="M123,72h4a0,0,0,0,1,0,0v6a0,0,0,0,1,0,0h-2a2,2,0,0,1-2-2V72A0,0,0,0,1,123,72Z"/><path class="cls-10" d="M127,76v2h-2a2,2,0,0,1-2-2V74a2,2,0,0,0,2,2Z"/><rect class="cls-11" x="50" y="48" width="20" height="40"/><rect class="cls-12" x="50" y="84" width="20" height="4"/><circle class="cls-13" cx="31" cy="86" r="10"/><circle class="cls-14" cx="111" cy="86" r="10"/><circle class="cls-3" cx="31" cy="86" r="5"/><circle class="cls-3" cx="111" cy="86" r="5"/><path class="cls-15" d="M35.9,87a5,5,0,0,0-9.8,0,5,5,0,1,1,9.8,0Z"/><path class="cls-15" d="M115.9,87a5,5,0,0,0-9.8,0,5,5,0,1,1,9.8,0Z"/><path class="cls-16" d="M103.6,48H78V45h25.6a5.4,5.4,0,0,0,5.18-3.89A5.4,5.4,0,0,1,103.6,48Z"/><rect class="cls-3" x="78" y="48" width="3" height="40"/><path class="cls-17" d="M31,80a6,6,0,1,0,6,6A6,6,0,0,0,31,80Zm0,10a4,4,0,1,1,4-4A4,4,0,0,1,31,90Z"/><path class="cls-17" d="M111,80a6,6,0,1,0,6,6A6,6,0,0,0,111,80Zm0,10a4,4,0,1,1,4-4A4,4,0,0,1,111,90Z"/><path class="cls-17" d="M126.55,64.8l-16.91-5.64L102.87,49h.73a6.41,6.41,0,0,0,4-11.4A30.2,30.2,0,0,0,88.79,31H1a1,1,0,0,0-1,1V88a1,1,0,0,0,1,1H20.43c3,10.68,18.22,10.62,21.17-.09.33.15-3,.09,58.83.09,3,10.64,18.12,10.63,21.14,0H127a1,1,0,0,0,1-1C128,66.62,128.49,65.44,126.55,64.8Zm-19.12-5.35L103.88,63H87V49h13.46ZM2,67H8v8H2ZM31,95a9,9,0,1,1,9-9A9,9,0,0,1,31,95Zm11-8a11,11,0,1,0-21.9,0H2V77H9a1,1,0,0,0,1-1V66a1,1,0,0,0-1-1H2V33H88.79a28.23,28.23,0,0,1,17.56,6.16A4.41,4.41,0,0,1,103.6,47H78a1,1,0,0,0-1,1V87H71V48a1,1,0,0,0-1-1H50a1,1,0,0,0-1,1V87C40.57,87,42.21,87,42,87Zm9,0V49H69V87Zm60,8a9,9,0,1,1,9-9A9,9,0,0,1,111,95Zm11-8a11,11,0,1,0-21.9,0H79V49h6V64a1,1,0,0,0,1,1h18.29c.56,0,.35.07,4.45-4l17.09,5.69A23.92,23.92,0,0,1,126,71h-3a1,1,0,0,0-1,1v4a3,3,0,0,0,3,3h1v8Zm4-10h-1a1,1,0,0,1-1-1V73h2Z"/><path class="cls-17" d="M90,71H86a1,1,0,0,0,0,2h4A1,1,0,0,0,90,71Z"/><path class="cls-17" d="M39,47H19a1,1,0,0,0-1,1V66a1,1,0,0,0,1,1H39a1,1,0,0,0,1-1V48A1,1,0,0,0,39,47ZM38,65H20V49H38Z"/></g></svg>