<svg xmlns="http://www.w3.org/2000/svg" xmlns:xlink="http://www.w3.org/1999/xlink" viewBox="0 0 128 128"><defs><style>.cls-1{fill:url(#linear-gradient);}.cls-2{fill:#8288a1;}.cls-3{fill:url(#linear-gradient-2);}.cls-4{fill:url(#linear-gradient-3);}.cls-5{fill:#3d465e;}.cls-6{fill:#949aaf;}.cls-7{fill:url(#linear-gradient-4);}.cls-8{fill:#77cacb;}.cls-9{fill:#e2607f;}.cls-10{fill:#fbcc88;}.cls-11{fill:#dd4e6a;}.cls-12{fill:#47566a;}</style><linearGradient id="linear-gradient" x1="64.01" y1="77.08" x2="64.01" y2="41" gradientUnits="userSpaceOnUse"><stop offset="0" stop-color="#949aaf"/><stop offset="1" stop-color="#c6ccda"/></linearGradient><linearGradient id="linear-gradient-2" x1="27" y1="87" x2="27" y2="67" gradientUnits="userSpaceOnUse"><stop offset="0" stop-color="#464f6b"/><stop offset="1" stop-color="#575f7c"/></linearGradient><linearGradient id="linear-gradient-3" x1="103" x2="103" xlink:href="#linear-gradient-2"/><linearGradient id="linear-gradient-4" x1="33.52" y1="49.5" x2="90.42" y2="49.5" gradientUnits="userSpaceOnUse"><stop offset="0" stop-color="#9dd5df"/><stop offset="1" stop-color="#c3e1f5"/></linearGradient></defs><title>Coupe</title><g id="Coupe"><path class="cls-1" d="M127,77C-.85,77,22.33,77.69,1,74.94V58.86A6.09,6.09,0,0,1,6.48,52.8l14.84-1.51C39.05,41.31,38.88,41,41.74,41H69.31a8.1,8.1,0,0,1,5,1.74L90,55.09c.58.46-2.71-.05,30.76,3.94a6.1,6.1,0,0,1,5.2,4.59C127.26,68.83,127,65.91,127,77Z"/><path class="cls-2" d="M127,74v3C-.85,77,22.33,77.69,1,74.94v-3C22.35,74.69-.9,74,127,74Z"/><circle class="cls-3" cx="27" cy="77" r="10"/><circle class="cls-4" cx="103" cy="77" r="10"/><path class="cls-5" d="M27,87a10,10,0,0,1-9.88-11.48,10,10,0,0,0,19.76,0A10,10,0,0,1,27,87Z"/><path class="cls-5" d="M103,87a10,10,0,0,1-9.88-11.48,10,10,0,0,0,19.76,0A10,10,0,0,1,103,87Z"/><circle class="cls-6" cx="27" cy="77" r="4"/><circle class="cls-6" cx="103" cy="77" r="4"/><path class="cls-7" d="M90.42,56l-6.1,2H43.68L33.52,56,43,41H72C89.59,54.85,89.86,54.73,90.42,56Z"/><path class="cls-8" d="M90.42,56l-6.1,2H43.68L33.52,56l1.18-1.76,9,1.79H84.32l4.82-1.6C90.2,55.23,89.92,54.86,90.42,56Z"/><path class="cls-9" d="M1,62H7a2,2,0,0,1,2,2v3a0,0,0,0,1,0,0H1a0,0,0,0,1,0,0V62A0,0,0,0,1,1,62Z"/><path class="cls-10" d="M127,67.76c0,.34.59.24-4,.24a2,2,0,0,1-1.41-3.41c.79-.81,1.64-.59,4.48-.59Z"/><rect class="cls-11" x="1" y="65" width="8" height="2"/><path class="cls-12" d="M27,72a5,5,0,1,0,5,5A5,5,0,0,0,27,72Zm0,8a3,3,0,1,1,3-3A3,3,0,0,1,27,80Z"/><path class="cls-12" d="M103,72a5,5,0,1,0,5,5A5,5,0,0,0,103,72Zm0,8a3,3,0,1,1,3-3A3,3,0,0,1,103,80Z"/><path class="cls-12" d="M54,63H50a1,1,0,0,0,0,2h4A1,1,0,0,0,54,63Z"/><path class="cls-12" d="M127,63.38a7.12,7.12,0,0,0-6-5.34L90.82,54.45,75,42a9.18,9.18,0,0,0-5.65-2c-30.36,0-29.26-.39-32,1.17L21,50.32,6.38,51.8A7.08,7.08,0,0,0,0,58.86V74.94a1,1,0,0,0,.87,1l15.17,2A11,11,0,0,0,38,78c1.13.06,54,0,54.1,0A11,11,0,0,0,114,78h13a1,1,0,0,0,1-1C128,65.63,128.32,68.94,127,63.38ZM125.29,65l.49,2H123a1,1,0,0,1-.69-1.71C122.68,64.9,122.91,65,125.29,65Zm-56-23a7.13,7.13,0,0,1,4.41,1.53L88.84,55.44,84.16,57H47l3.75-15Zm-25.47.3c.28-.42-.72-.3,4.81-.3L44.9,57c-1.55,0,.18.26-9.72-1.72ZM2,63H7a1,1,0,0,1,1,1v2H2ZM27,86a9,9,0,1,1,9-9A9,9,0,0,1,27,86Zm76,0a9,9,0,1,1,9-9A9,9,0,0,1,103,86Zm23-10H114a11,11,0,0,0-21.9,0C92,76,39,76,38,76a11,11,0,0,0-21.89-.14L2,74.06V68H9a1,1,0,0,0,1-1V64a3,3,0,0,0-3-3H2V58.86a5.09,5.09,0,0,1,4.58-5.07l14.84-1.5c.33,0-.76.53,16.83-9.37A7.12,7.12,0,0,1,41.63,42l-9,13.4A1,1,0,0,0,33.32,57c10.9,2.18,10.21,2,10.36,2,43.59,0,40.72,0,41,0,6.55-2.19,6.31-2,6.6-2.43L120.66,60a5.13,5.13,0,0,1,4,3c-1.56,0-2.77-.19-3.81.87A3,3,0,0,0,123,69h3Z"/></g></svg>