<svg xmlns="http://www.w3.org/2000/svg" xmlns:xlink="http://www.w3.org/1999/xlink" viewBox="0 0 128 128"><defs><style>.cls-1{fill:url(#linear-gradient);}.cls-2{fill:#8288a1;}.cls-3{fill:url(#linear-gradient-2);}.cls-4{fill:url(#linear-gradient-3);}.cls-5{fill:#3d465e;}.cls-6{fill:#d4d8e1;}.cls-7{fill:#c7cdd8;}.cls-8{fill:#e2607f;}.cls-9{fill:#dd4e6a;}.cls-10{fill:url(#linear-gradient-4);}.cls-11{fill:#77cacb;}.cls-12{fill:#f6b756;}.cls-13{fill:#47566a;}</style><linearGradient id="linear-gradient" x1="64" y1="82" x2="64" y2="35" gradientUnits="userSpaceOnUse"><stop offset="0" stop-color="#949aaf"/><stop offset="1" stop-color="#c6ccda"/></linearGradient><linearGradient id="linear-gradient-2" x1="21" y1="93" x2="21" y2="69" gradientUnits="userSpaceOnUse"><stop offset="0" stop-color="#464f6b"/><stop offset="1" stop-color="#575f7c"/></linearGradient><linearGradient id="linear-gradient-3" x1="105" x2="105" xlink:href="#linear-gradient-2"/><linearGradient id="linear-gradient-4" x1="55.61" y1="56" x2="55.61" y2="35" gradientUnits="userSpaceOnUse"><stop offset="0" stop-color="#9dd5df"/><stop offset="1" stop-color="#c3e1f5"/></linearGradient></defs><title>Crossover</title><g id="Crossover"><path class="cls-1" d="M127,64.64V77.91L120.9,82H9.13L1,80V51.33l9.76-13.06A8.1,8.1,0,0,1,17.27,35H71a8.22,8.22,0,0,1,5.44,2.09C95.34,54.16,91.81,51,94.22,53.14c.39.36-1.69,0,25.67,3.43A8.13,8.13,0,0,1,127,64.64Z"/><polygon class="cls-2" points="127 73.91 127 77.91 120.9 82 9.13 82 1 79.96 1 75.96 9.13 78 120.9 78 127 73.91"/><circle class="cls-3" cx="21" cy="81" r="12"/><circle class="cls-4" cx="105" cy="81" r="12"/><path class="cls-5" d="M21,93A12,12,0,0,1,9.17,79a12,12,0,0,0,23.66,0A12,12,0,0,1,21,93Z"/><path class="cls-5" d="M105,93A12,12,0,0,1,93.17,79a12,12,0,0,0,23.66,0A12,12,0,0,1,105,93Z"/><circle class="cls-6" cx="21" cy="81" r="4"/><circle class="cls-6" cx="105" cy="81" r="4"/><path class="cls-7" d="M24.87,82a4,4,0,0,0-7.74,0,4,4,0,1,1,7.74,0Z"/><path class="cls-7" d="M108.87,82a4,4,0,0,0-7.74,0,4,4,0,1,1,7.74,0Z"/><rect class="cls-8" x="1" y="56" width="4" height="8"/><rect class="cls-9" x="1" y="61" width="4" height="3"/><path class="cls-10" d="M94.22,53.14,88.13,56h-61L17,51.94V35H71a9.2,9.2,0,0,1,5.43,2.09C95.34,54.16,91.81,51,94.22,53.14Z"/><polygon class="cls-11" points="88.13 56 27.16 56 17 51.94 17 48.94 27.16 53 88.13 53 92.46 51.56 94.22 53.14 88.13 56"/><polygon class="cls-12" points="127 70 121 70 123 66 127 66 127 70"/><path class="cls-13" d="M21,76a5,5,0,1,0,5,5A5,5,0,0,0,21,76Zm0,8a3,3,0,1,1,3-3A3,3,0,0,1,21,84Z"/><path class="cls-13" d="M105,76a5,5,0,1,0,5,5A5,5,0,0,0,105,76Zm0,8a3,3,0,1,1,3-3A3,3,0,0,1,105,84Z"/><path class="cls-13" d="M120,55.58,94.92,52.42,77.1,36.35A9.09,9.09,0,0,0,71,34H17.27A9.17,9.17,0,0,0,10,37.67L.2,50.74C-.09,51.12,0,49.18,0,80a1,1,0,0,0,.76,1l7.38,1.85A13,13,0,0,0,33.83,83c.37.06,58.08,0,58.34,0a13,13,0,0,0,25.66,0h3.07c.43,0,.07.16,6.66-4.26.63-.42.44.39.44-14.1A9.15,9.15,0,0,0,120,55.58ZM71,36a7.13,7.13,0,0,1,4.77,1.83L93,53.34,88,55H53V36ZM51,36V55H30V36ZM28,36V55c-.91,0,.67.53-10-3.74V36ZM2,57H4v6H2ZM21,92A11,11,0,1,1,32,81,11,11,0,0,1,21,92Zm84,0a11,11,0,1,1,11-11A11,11,0,0,1,105,92Zm15.6-11H118a13,13,0,0,0-26,0H34a13,13,0,0,0-26-.31L2,79.18V65H5a1,1,0,0,0,1-1V56a1,1,0,0,0-1-1H2V51.67l9.56-12.8A7.13,7.13,0,0,1,16,36.13c0,16.88-.26,16.38.63,16.73C27.5,57.21,26.88,57,27.16,57c65.39,0,61,0,61.29,0,6.54-2.18,6.36-2,6.63-2.49l24.68,3.1A7.16,7.16,0,0,1,126,65h-3c-.82,0-.8.36-2.89,4.55A1,1,0,0,0,121,71h5v6.38ZM126,69h-3.38l1-2H126Z"/><path class="cls-13" d="M60,61H56a1,1,0,0,0,0,2h4A1,1,0,0,0,60,61Z"/></g></svg>