<svg xmlns="http://www.w3.org/2000/svg" xmlns:xlink="http://www.w3.org/1999/xlink" viewBox="0 0 128 128"><defs><style>.cls-1{fill:url(#linear-gradient);}.cls-2{fill:#c7cdd8;}.cls-3{fill:url(#linear-gradient-2);}.cls-4{fill:#8288a1;}.cls-5{fill:url(#linear-gradient-3);}.cls-6{fill:url(#linear-gradient-4);}.cls-7{fill:url(#linear-gradient-5);}.cls-8{fill:url(#linear-gradient-6);}.cls-9{fill:#47566a;}</style><linearGradient id="linear-gradient" x1="51.64" y1="70" x2="51.64" y2="52" gradientUnits="userSpaceOnUse"><stop offset="0" stop-color="#d4d8e1"/><stop offset="1" stop-color="#f3f4f5"/></linearGradient><linearGradient id="linear-gradient-2" x1="64" y1="94" x2="64" y2="68" gradientUnits="userSpaceOnUse"><stop offset="0" stop-color="#949aaf"/><stop offset="1" stop-color="#c6ccda"/></linearGradient><linearGradient id="linear-gradient-3" x1="65.25" y1="52.08" x2="65.25" y2="44" xlink:href="#linear-gradient"/><linearGradient id="linear-gradient-4" x1="59" y1="44" x2="59" y2="34" xlink:href="#linear-gradient"/><linearGradient id="linear-gradient-5" x1="36" y1="52" x2="36" y2="40" xlink:href="#linear-gradient"/><linearGradient id="linear-gradient-6" x1="19" y1="52" x2="19" y2="40" xlink:href="#linear-gradient"/></defs><title>Cruise</title><g id="Cruise"><path class="cls-1" d="M96.39,68,96,70H6.88c.92-3.9.1-.44,4.28-18H88.39Z"/><polygon class="cls-2" points="96.39 68 96 70 6.88 70 7.59 67 86.29 67 90.29 65 94.89 65 96.39 68"/><path class="cls-3" d="M127,68,105,94H11C11,84,1,76,1,76V70H87l4-2Z"/><path class="cls-4" d="M105,94H11C11,84,1,76,1,76a26.33,26.33,0,0,1,6,3.75C10,82.25,13,86,13,91h92C135.11,59.55,133.63,60.15,105,94Z"/><polygon class="cls-5" points="82.5 52.08 48 52 48 44 74.42 44 82.5 52.08"/><path class="cls-6" d="M64,44H54V34h4Z"/><rect class="cls-7" x="32" y="40" width="8" height="12"/><rect class="cls-8" x="15" y="40" width="8" height="12"/><rect class="cls-2" x="32" y="49" width="8" height="3"/><rect class="cls-2" x="15" y="49" width="8" height="3"/><polygon class="cls-2" points="82.42 52 48 52 48 49 79.42 49 82.42 52"/><polygon class="cls-2" points="64 44 54 44 54 42 62.8 42 64 44"/><path class="cls-9" d="M127.91,67.58c-.39-.83,1.74-.58-30.9-.58-8.31-16.61-7.74-16-8.62-16H82.83l-7.7-7.71c-.42-.41,0-.29-10.56-.29C58.48,32.86,58.79,33,58,33H54a1,1,0,0,0-1,1v9H48a1,1,0,0,0-1,1v7H41V40a1,1,0,0,0-1-1H32a1,1,0,0,0-1,1V51H24V40a1,1,0,0,0-1-1H15a1,1,0,0,0-1,1V51c-2.84,0-3.58-.2-3.81.77L6.09,69H1a1,1,0,0,0-1,1c0,6.49-.13,6.38.38,6.78C.47,76.86,10,84.61,10,94a1,1,0,0,0,1,1h94c.71,0-.91,1.63,22.76-26.35A1,1,0,0,0,127.91,67.58ZM55,35h2.43l4.8,8H55ZM49,45H74l6,6H49ZM33,41h6V51H33ZM16,41h6V51H16ZM12,53H87.77l3,6H47a1,1,0,0,0,0,2H91.77l3,6c-4.2,0-3.93,0-4.22.11L86.76,69H8.15Zm99.36,32H17a1,1,0,0,0,0,2h92.61l-5.07,6H12c-.54-8.89-8.15-15.91-10-17.47V71c91.28,0,85.12.06,85.45-.11L91.24,69h33.6Z"/><path class="cls-9" d="M18,60v2a1,1,0,0,0,2,0V60A1,1,0,0,0,18,60Z"/><path class="cls-9" d="M26,60v2a1,1,0,0,0,2,0V60A1,1,0,0,0,26,60Z"/><path class="cls-9" d="M35,60v2a1,1,0,0,0,2,0V60A1,1,0,0,0,35,60Z"/></g></svg>