<svg xmlns="http://www.w3.org/2000/svg" xmlns:xlink="http://www.w3.org/1999/xlink" viewBox="0 0 128 128"><defs><style>.cls-1{fill:url(#linear-gradient);}.cls-2{fill:url(#linear-gradient-2);}.cls-3{fill:#3d465e;}.cls-4{fill:#adb3c4;}.cls-5{fill:url(#linear-gradient-3);}.cls-6{fill:url(#linear-gradient-4);}.cls-7{fill:url(#linear-gradient-5);}.cls-8{fill:#5b8dc9;}.cls-9{fill:url(#linear-gradient-6);}.cls-10{fill:#949aaf;}.cls-11{fill:#8288a1;}.cls-12{fill:#47566a;}</style><linearGradient id="linear-gradient" x1="15" y1="126" x2="15" y2="102" gradientUnits="userSpaceOnUse"><stop offset="0" stop-color="#464f6b"/><stop offset="1" stop-color="#575f7c"/></linearGradient><linearGradient id="linear-gradient-2" x1="15" y1="121" x2="15" y2="107" gradientUnits="userSpaceOnUse"><stop offset="0" stop-color="#949aaf"/><stop offset="1" stop-color="#c6ccda"/></linearGradient><linearGradient id="linear-gradient-3" x1="115" x2="115" xlink:href="#linear-gradient"/><linearGradient id="linear-gradient-4" x1="115" x2="115" xlink:href="#linear-gradient-2"/><linearGradient id="linear-gradient-5" x1="58.69" y1="118" x2="58.69" y2="110" gradientUnits="userSpaceOnUse"><stop offset="0" stop-color="#7aa8d7"/><stop offset="1" stop-color="#96c8ea"/></linearGradient><linearGradient id="linear-gradient-6" x1="107.11" y1="96.17" x2="107.11" y2="72.15" xlink:href="#linear-gradient-5"/></defs><title>Electric Scooter</title><g id="Electric_Scooter" data-name="Electric Scooter"><circle class="cls-1" cx="15" cy="114" r="12"/><circle class="cls-2" cx="15" cy="114" r="7"/><path class="cls-3" d="M15,126A12,12,0,0,1,3.1,112.5a12,12,0,0,0,23.8,0A12,12,0,0,1,15,126Z"/><path class="cls-4" d="M21.84,115.5c-1.6-7.3-12.08-7.31-13.68,0a7,7,0,1,1,13.68,0Z"/><circle class="cls-5" cx="115" cy="114" r="12"/><path class="cls-3" d="M115,126a12,12,0,0,1-11.9-13.5,12,12,0,0,0,23.8,0A12,12,0,0,1,115,126Z"/><circle class="cls-6" cx="115" cy="114" r="7"/><path class="cls-4" d="M121.84,115.5c-1.6-7.3-12.08-7.31-13.68,0a7,7,0,1,1,13.68,0Z"/><polygon class="cls-7" points="90.38 110 84 118 27 118 27 110 90.38 110"/><polygon class="cls-8" points="90.38 110 84 118 27 118 27 115 84 115 87.99 110 90.38 110"/><polygon class="cls-9" points="113.93 94.24 106.03 96.17 100.3 74.08 108.2 72.14 113.93 94.24"/><path class="cls-8" d="M113.93,94.24,106,96.17,100.3,74.08l1-.24,3,11.43A7.22,7.22,0,0,0,113,90.48Z"/><path class="cls-10" d="M76,6H62a2,2,0,0,1,0-4H76Z"/><path class="cls-11" d="M76,4V6H62a2,2,0,0,1-1.73-3A2,2,0,0,0,62,4Z"/><path class="cls-12" d="M112.63,101.23l-1.41-5.3c3.14-.77,3.29-.7,3.57-1.18s.61,1.15-5.62-22.86a1,1,0,0,0-1.21-.72l-3,.73L87.32,3.75a1,1,0,0,0-1-.75H77V2a1,1,0,0,0-1-1H62a3,3,0,0,0,0,6H76a1,1,0,0,0,1-1V5h8.58l17.47,67.37-3,.73a1,1,0,0,0-.73,1.23l4.34,16.75L89.89,109h-56C30,93.9,10.24,89.19.22,101.72A1,1,0,0,0,1.78,103C10.54,92,28,95.7,31.83,109H27c-.11,0-2.88-8-12-8a13,13,0,1,0,12,18c61.11,0,57.11.1,57.54-.18.59-.13-.89,1.56,19.77-25.29,1.17,4.51.48,4,5,2.87l1.42,5.35a13,13,0,1,0,1.93-.52ZM75,5H62a1,1,0,0,1,0-2H75ZM15,125a11,11,0,1,1,11-12h-3a8,8,0,1,0,0,2h3A11,11,0,0,1,15,125Zm1.72-12a2,2,0,1,0,0,2h4.19a6,6,0,1,1,0-2Zm67,4H27.64a12.68,12.68,0,0,0,0-6H88.35Zm17.79-42.19,6-1.46,5.23,20.15-6,1.46ZM115,125a11,11,0,0,1-3.78-21.32l.77,2.91a8,8,0,1,0,1.94-.51l-.78-2.91A11,11,0,1,1,115,125Zm0-9a2,2,0,0,0,.52-3.92l-1.08-4a6,6,0,1,1-1.93.52l1.08,4A2,2,0,0,0,115,116Z"/></g></svg>