<svg xmlns="http://www.w3.org/2000/svg" xmlns:xlink="http://www.w3.org/1999/xlink" viewBox="0 0 128 128"><defs><style>.cls-1{fill:url(#linear-gradient);}.cls-2{fill:url(#linear-gradient-2);}.cls-3{fill:#77cacb;}.cls-4{fill:url(#linear-gradient-3);}.cls-5{fill:#8288a1;}.cls-6{fill:#dd4e6a;}.cls-7{fill:url(#linear-gradient-4);}.cls-8{fill:#d7dbe2;}.cls-9{fill:url(#linear-gradient-5);}.cls-10{fill:url(#linear-gradient-6);}.cls-11{fill:#3d465e;}.cls-12{fill:#c6ccda;}.cls-13{fill:#fbcc88;}.cls-14{fill:#f6b756;}.cls-15{fill:url(#linear-gradient-7);}.cls-16{fill:#c7cdd8;}.cls-17{fill:url(#linear-gradient-8);}.cls-18{fill:url(#linear-gradient-9);}.cls-19{fill:url(#linear-gradient-10);}.cls-20{fill:url(#linear-gradient-11);}.cls-21{fill:url(#linear-gradient-12);}.cls-22{fill:#47566a;}</style><linearGradient id="linear-gradient" x1="95.5" y1="90" x2="95.5" y2="44" gradientUnits="userSpaceOnUse"><stop offset="0" stop-color="#da5466"/><stop offset="1" stop-color="#e87092"/></linearGradient><linearGradient id="linear-gradient-2" x1="97.21" y1="62" x2="97.21" y2="44" gradientUnits="userSpaceOnUse"><stop offset="0" stop-color="#9dd5df"/><stop offset="1" stop-color="#c3e1f5"/></linearGradient><linearGradient id="linear-gradient-3" x1="45.5" y1="90" x2="45.5" y2="78" gradientUnits="userSpaceOnUse"><stop offset="0" stop-color="#949aaf"/><stop offset="1" stop-color="#c6ccda"/></linearGradient><linearGradient id="linear-gradient-4" x1="101" y1="98" x2="101" y2="78" gradientUnits="userSpaceOnUse"><stop offset="0" stop-color="#464f6b"/><stop offset="1" stop-color="#575f7c"/></linearGradient><linearGradient id="linear-gradient-5" x1="44" x2="44" xlink:href="#linear-gradient-4"/><linearGradient id="linear-gradient-6" x1="19" x2="19" xlink:href="#linear-gradient-4"/><linearGradient id="linear-gradient-7" x1="32.5" y1="78" x2="32.5" y2="54" gradientUnits="userSpaceOnUse"><stop offset="0" stop-color="#d4d8e1"/><stop offset="1" stop-color="#f3f4f5"/></linearGradient><linearGradient id="linear-gradient-8" x1="16" y1="54" x2="16" xlink:href="#linear-gradient"/><linearGradient id="linear-gradient-9" x1="19" y1="78" x2="19" y2="54" xlink:href="#linear-gradient"/><linearGradient id="linear-gradient-10" x1="55" y1="78" x2="55" y2="54" xlink:href="#linear-gradient-3"/><linearGradient id="linear-gradient-11" x1="5" y1="44" x2="5" y2="30" xlink:href="#linear-gradient-3"/><linearGradient id="linear-gradient-12" x1="90" y1="44" x2="90" y2="30" xlink:href="#linear-gradient-3"/></defs><title>Fire Truck</title><g id="Fire_Truck" data-name="Fire Truck"><path class="cls-1" d="M127,70.57V90H64V44h45.12a6.11,6.11,0,0,1,5.38,3.22C119.33,56.27,116.91,51.73,127,70.57Z"/><path class="cls-2" d="M122.41,62H72V44h37.12a6.1,6.1,0,0,1,5.25,3C114.47,47.13,114.32,46.91,122.41,62Z"/><polygon class="cls-3" points="122.41 62 72 62 72 59 120.8 59 122.41 62"/><path class="cls-4" d="M90,90V78H1V90Z"/><path class="cls-5" d="M90,90V87H1v3Z"/><rect class="cls-6" x="90" y="87" width="37" height="3"/><circle class="cls-7" cx="101" cy="88" r="10"/><circle class="cls-8" cx="101" cy="88" r="4"/><circle class="cls-9" cx="44" cy="88" r="10"/><circle class="cls-8" cx="44" cy="88" r="4"/><circle class="cls-10" cx="19" cy="88" r="10"/><path class="cls-11" d="M101,98a10,10,0,0,1-9.88-11.48,10,10,0,0,0,19.76,0A10,10,0,0,1,101,98Z"/><path class="cls-11" d="M44,98a10,10,0,0,1-9.88-11.48,10,10,0,0,0,19.76,0A10,10,0,0,1,44,98Z"/><path class="cls-11" d="M19,98A10,10,0,0,1,9.12,86.52a10,10,0,0,0,19.76,0A10,10,0,0,1,19,98Z"/><circle class="cls-8" cx="19" cy="88" r="4"/><path class="cls-12" d="M104.87,89a4,4,0,0,0-7.74,0,4,4,0,1,1,7.74,0Z"/><path class="cls-12" d="M47.87,89a4,4,0,0,0-7.74,0,4,4,0,1,1,7.74,0Z"/><path class="cls-12" d="M22.87,89a4,4,0,0,0-7.74,0,4,4,0,1,1,7.74,0Z"/><polygon class="cls-13" points="107.61 44 96.61 44 98.61 38 105.61 38 107.61 44"/><rect class="cls-13" x="121" y="74" width="6" height="8"/><rect class="cls-14" x="121" y="79" width="6" height="3"/><rect class="cls-15" x="1" y="54" width="63" height="24"/><rect class="cls-16" x="1" y="74" width="63" height="4"/><rect class="cls-17" x="1" y="44" width="30" height="10"/><rect class="cls-6" x="1" y="50" width="30" height="4"/><rect class="cls-18" x="1" y="54" width="36" height="24"/><rect class="cls-6" x="1" y="74" width="18" height="4"/><rect class="cls-6" x="19" y="74" width="18" height="4"/><rect class="cls-19" x="46" y="54" width="18" height="24"/><rect class="cls-5" x="46" y="74" width="18" height="4"/><rect class="cls-20" x="1" y="30" width="8" height="14"/><rect class="cls-21" x="86" y="30" width="8" height="14"/><rect class="cls-5" x="1" y="41" width="8" height="3"/><rect class="cls-5" x="86" y="41" width="8" height="3"/><polygon class="cls-14" points="107.61 44 96.61 44 97.61 41 106.61 41 107.61 44"/><path class="cls-22" d="M101,83a5,5,0,1,0,5,5A5,5,0,0,0,101,83Zm0,8a3,3,0,1,1,3-3A3,3,0,0,1,101,91Z"/><path class="cls-22" d="M44,83a5,5,0,1,0,5,5A5,5,0,0,0,44,83Zm0,8a3,3,0,1,1,3-3A3,3,0,0,1,44,91Z"/><path class="cls-22" d="M19,83a5,5,0,1,0,5,5A5,5,0,0,0,19,83Zm0,8a3,3,0,1,1,3-3A3,3,0,0,1,19,91Z"/><path class="cls-22" d="M127.88,70.1l-12.5-23.35A7.1,7.1,0,0,0,109.12,43h-.79l-1.77-5.32c-.3-.91-.48-.68-8-.68a1,1,0,0,0-1,.68L95.89,43H95V30a1,1,0,0,0-1-1H86a1,1,0,0,0-1,1v1H10V30a1,1,0,0,0-1-1H1a1,1,0,0,0-1,1V90a1,1,0,0,0,1,1H8.43c3,10.64,18.12,10.63,21.14,0h3.86c3,10.64,18.12,10.63,21.14,0,37.89,0,35.52,0,35.83-.09,2.81,10.21,17,10.9,20.84,1.09H127a1,1,0,0,0,1-1C128,69,128.06,70.43,127.88,70.1ZM113.62,47.69,120.74,61H106V45h3.12A5.09,5.09,0,0,1,113.62,47.69ZM89,61V45h15V61ZM73,61V45H87V61ZM47,77V55H63V77ZM60.33,42.33,50.08,33h20.5ZM58.1,43H36.9l10.6-9.65Zm-23.43-.67L24.42,33h20.5ZM32.44,43H11.23l10.6-9.65ZM30,45v8H2V45ZM2,55H18V77H2Zm18,0H36V77H20ZM38,77V55h7V77ZM63,53H32V45H63Zm-.44-10,10.61-9.65L83.77,43Zm36.77-4h5.56l1.34,4H98ZM87,31h6V43H87ZM85,41.42,75.75,33H85ZM19.25,33,10,41.42V33ZM2,31H8V43H2ZM2,89V79H12.7A11,11,0,0,0,8.05,89Zm17,8a9,9,0,1,1,9-9A9,9,0,0,1,19,97Zm11-8A11,11,0,0,0,25.3,79H37.7a11,11,0,0,0-4.65,10ZM44,97a9,9,0,1,1,9-9A9,9,0,0,1,44,97Zm45-8H55A11,11,0,0,0,50.3,79H89Zm12,8a9,9,0,1,1,9-9A9,9,0,0,1,101,97Zm10.81-7A11,11,0,0,0,91,83.44V78a1,1,0,0,0-1-1H65V45h6V62a1,1,0,0,0,1,1h49.81L126,70.82V73h-5a1,1,0,0,0-1,1v8a1,1,0,0,0,1,1h5v7ZM126,81h-4V75h4Z"/><path class="cls-22" d="M109,69h-4a1,1,0,0,0,0,2h4A1,1,0,0,0,109,69Z"/><path class="cls-22" d="M78,69H74a1,1,0,0,0,0,2h4A1,1,0,0,0,78,69Z"/></g></svg>