<svg xmlns="http://www.w3.org/2000/svg" xmlns:xlink="http://www.w3.org/1999/xlink" viewBox="0 0 128 128"><defs><style>.cls-1{fill:url(#linear-gradient);}.cls-2{fill:url(#linear-gradient-2);}.cls-3{fill:#e2607f;}.cls-4{fill:#8cdd79;}.cls-5{fill:url(#linear-gradient-3);}.cls-6{fill:#77cacb;}.cls-7{fill:url(#linear-gradient-4);}.cls-8{fill:#d4d8e1;}.cls-9{fill:url(#linear-gradient-5);}.cls-10{fill:#8288a1;}.cls-11{fill:url(#linear-gradient-6);}.cls-12{fill:#c7cdd8;}.cls-13{fill:#dd4e6a;}.cls-14{fill:#7ece67;}.cls-15{fill:#47566a;}</style><linearGradient id="linear-gradient" x1="13" y1="127" x2="13" y2="1" gradientUnits="userSpaceOnUse"><stop offset="0" stop-color="#949aaf"/><stop offset="1" stop-color="#c6ccda"/></linearGradient><linearGradient id="linear-gradient-2" x1="13" y1="23" x2="13" y2="11" gradientUnits="userSpaceOnUse"><stop offset="0" stop-color="#d4d8e1"/><stop offset="1" stop-color="#f3f4f5"/></linearGradient><linearGradient id="linear-gradient-3" x1="46.5" y1="111" x2="46.5" y2="13" gradientUnits="userSpaceOnUse"><stop offset="0" stop-color="#9dd5df"/><stop offset="1" stop-color="#c3e1f5"/></linearGradient><linearGradient id="linear-gradient-4" x1="81.5" x2="81.5" xlink:href="#linear-gradient-3"/><linearGradient id="linear-gradient-5" x1="115" x2="115" gradientTransform="translate(230 128) rotate(-180)" xlink:href="#linear-gradient"/><linearGradient id="linear-gradient-6" x1="115" x2="115" gradientTransform="translate(230 34) rotate(-180)" xlink:href="#linear-gradient-2"/></defs><title>Gateway</title><g id="Gateway"><rect class="cls-1" x="1" y="1" width="24" height="126"/><rect class="cls-2" x="1" y="11" width="24" height="12"/><circle class="cls-3" cx="13" cy="36" r="4"/><circle class="cls-4" cx="13" cy="52" r="4"/><rect class="cls-5" x="32" y="13" width="29" height="98" rx="4.06"/><path class="cls-6" d="M61,102.94v4A4.08,4.08,0,0,1,56.94,111H36.06A4.08,4.08,0,0,1,32,106.94v-4A4.08,4.08,0,0,0,36.06,107H56.94A4.08,4.08,0,0,0,61,102.94Z"/><rect class="cls-7" x="67" y="13" width="29" height="98" rx="4.06"/><path class="cls-6" d="M96,102.94v4A4.08,4.08,0,0,1,91.94,111H71.06A4.08,4.08,0,0,1,67,106.94v-4A4.08,4.08,0,0,0,71.06,107H91.94A4.08,4.08,0,0,0,96,102.94Z"/><path class="cls-8" d="M25,84H35a4,4,0,0,1,0,8H25Z"/><path class="cls-8" d="M25,32H35a4,4,0,0,1,0,8H25Z"/><rect class="cls-9" x="103" y="1" width="24" height="126" transform="translate(230 128) rotate(180)"/><rect class="cls-10" x="1" y="123" width="24" height="4"/><rect class="cls-10" x="103" y="123" width="24" height="4" transform="translate(230 250) rotate(180)"/><rect class="cls-11" x="103" y="11" width="24" height="12" transform="translate(230 34) rotate(180)"/><rect class="cls-12" x="1" y="20" width="24" height="3"/><rect class="cls-12" x="103" y="20" width="24" height="3" transform="translate(230 43) rotate(180)"/><circle class="cls-3" cx="115" cy="36" r="4"/><path class="cls-13" d="M13,40a4,4,0,0,1-3.87-5,4,4,0,0,0,7.74,0A4,4,0,0,1,13,40Z"/><path class="cls-13" d="M115,40a4,4,0,0,1-3.87-5,4,4,0,0,0,7.74,0A4,4,0,0,1,115,40Z"/><circle class="cls-4" cx="115" cy="52" r="4"/><path class="cls-14" d="M13,56a4,4,0,0,1-3.87-5,4,4,0,0,0,7.74,0A4,4,0,0,1,13,56Z"/><path class="cls-14" d="M115,56a4,4,0,0,1-3.87-5,4,4,0,0,0,7.74,0A4,4,0,0,1,115,56Z"/><path class="cls-8" d="M103,84H93a4,4,0,0,0,0,8h10Z"/><path class="cls-8" d="M103,32H93a4,4,0,0,0,0,8h10Z"/><path class="cls-12" d="M35,92H25V89c10.4,0,11.26.38,12.83-1.17a4.09,4.09,0,0,0,.87-1.33A4,4,0,0,1,35,92Z"/><path class="cls-12" d="M35,40H25V37c10.4,0,11.26.38,12.83-1.17a4.09,4.09,0,0,0,.87-1.33A4,4,0,0,1,35,40Z"/><path class="cls-12" d="M103,89v3H93a4,4,0,0,1-3.7-5.5,4.09,4.09,0,0,0,.87,1.33C91.75,89.39,92.5,89,103,89Z"/><path class="cls-12" d="M103,37v3H93a4,4,0,0,1-3.7-5.5,4.09,4.09,0,0,0,.87,1.33C91.75,37.39,92.5,37,103,37Z"/><path class="cls-15" d="M13,31a5,5,0,1,0,5,5A5,5,0,0,0,13,31Zm0,8a3,3,0,1,1,3-3A3,3,0,0,1,13,39Z"/><path class="cls-15" d="M13,47a5,5,0,1,0,5,5A5,5,0,0,0,13,47Zm0,8a3,3,0,1,1,3-3A3,3,0,0,1,13,55Z"/><path class="cls-15" d="M56.94,12H36.06A5.07,5.07,0,0,0,31,17.06V31H26V1a1,1,0,0,0-1-1H1A1,1,0,0,0,0,1V127a1,1,0,0,0,1,1H25a1,1,0,0,0,1-1V93h5v13.94A5.07,5.07,0,0,0,36.06,112H56.94A5.07,5.07,0,0,0,62,106.94V17.06A5.07,5.07,0,0,0,56.94,12ZM35,33a3,3,0,0,1,0,6H26V33ZM26,83V41h5V83ZM2,12H24V22H2ZM24,2v8H2V2Zm0,124H2V24H24Zm2-35V85h9a3,3,0,0,1,0,6Zm34,15.94A3.06,3.06,0,0,1,56.94,110H36.06A3.07,3.07,0,0,1,33,106.94V93h2a5,5,0,0,0,0-10H33V41h2a5,5,0,0,0,0-10H33V17.06A3.07,3.07,0,0,1,36.06,14H56.94A3.07,3.07,0,0,1,60,17.06Z"/><path class="cls-15" d="M45.62,57.08c-.27.11.12-.24-5.33,5.21a1,1,0,0,0,1.42,1.42L45,60.41V74a1,1,0,0,0,2,0V60.41l3.29,3.3a1,1,0,0,0,1.42-1.42C46.34,56.92,46.45,56.73,45.62,57.08Z"/><path class="cls-15" d="M127,0H103a1,1,0,0,0-1,1V31H97V17.06A5.07,5.07,0,0,0,91.94,12H71.06A5.07,5.07,0,0,0,66,17.06v89.88A5.07,5.07,0,0,0,71.06,112H91.94A5.07,5.07,0,0,0,97,106.94V93h5v34a1,1,0,0,0,1,1h24a1,1,0,0,0,1-1V1A1,1,0,0,0,127,0Zm-1,2v8H104V2Zm0,20H104V12h22ZM102,41V83H97V41Zm0-8v6H93a3,3,0,0,1,0-6Zm-7,73.94A3.06,3.06,0,0,1,91.94,110H71.06A3.07,3.07,0,0,1,68,106.94V17.06A3.07,3.07,0,0,1,71.06,14H91.94A3.07,3.07,0,0,1,95,17.06V31H93a5,5,0,0,0,0,10h2V83H93a5,5,0,0,0,0,10h2ZM93,91a3,3,0,0,1,0-6h9v6Zm11,35V24h22V126Z"/><path class="cls-15" d="M115,31a5,5,0,1,0,5,5A5,5,0,0,0,115,31Zm0,8a3,3,0,1,1,3-3A3,3,0,0,1,115,39Z"/><path class="cls-15" d="M115,47a5,5,0,1,0,5,5A5,5,0,0,0,115,47Zm0,8a3,3,0,1,1,3-3A3,3,0,0,1,115,55Z"/><path class="cls-15" d="M87.71,62.29c-5.46-5.46-5.06-5.1-5.33-5.21-.83-.35-.74-.13-6.09,5.21a1,1,0,0,0,1.42,1.42L81,60.41V74a1,1,0,0,0,2,0V60.41C86.6,64,86.45,64,87,64A1,1,0,0,0,87.71,62.29Z"/></g></svg>