<svg xmlns="http://www.w3.org/2000/svg" xmlns:xlink="http://www.w3.org/1999/xlink" viewBox="0 0 128 128"><defs><style>.cls-1{fill:url(#linear-gradient);}.cls-2{fill:#8288a1;}.cls-3{fill:url(#linear-gradient-2);}.cls-4{fill:#c7cdd8;}.cls-5{fill:url(#linear-gradient-3);}.cls-6{fill:#c6ccda;}.cls-7{fill:url(#linear-gradient-4);}.cls-8{fill:#3d465e;}.cls-9{fill:#949aaf;}.cls-10{fill:url(#linear-gradient-5);}.cls-11{fill:url(#linear-gradient-6);}.cls-12{fill:#cba07a;}.cls-13{fill:#fbcc88;}.cls-14{fill:#f6b756;}.cls-15{fill:#47566a;}</style><linearGradient id="linear-gradient" x1="95.71" y1="83.58" x2="95.71" y2="61" gradientUnits="userSpaceOnUse"><stop offset="0" stop-color="#949aaf"/><stop offset="1" stop-color="#c6ccda"/></linearGradient><linearGradient id="linear-gradient-2" x1="64" y1="100" x2="64" y2="61" gradientUnits="userSpaceOnUse"><stop offset="0" stop-color="#d4d8e1"/><stop offset="1" stop-color="#f3f4f5"/></linearGradient><linearGradient id="linear-gradient-3" x1="21" y1="110" x2="21" y2="86" gradientUnits="userSpaceOnUse"><stop offset="0" stop-color="#464f6b"/><stop offset="1" stop-color="#575f7c"/></linearGradient><linearGradient id="linear-gradient-4" x1="115" x2="115" xlink:href="#linear-gradient-3"/><linearGradient id="linear-gradient-5" x1="54.85" y1="24" x2="54.85" y2="16" xlink:href="#linear-gradient-2"/><linearGradient id="linear-gradient-6" x1="55.48" y1="81" x2="55.48" y2="53.39" gradientUnits="userSpaceOnUse"><stop offset="0" stop-color="#d1a788"/><stop offset="1" stop-color="#f2d3b8"/></linearGradient></defs><title>Golf Car</title><g id="Golf_Car" data-name="Golf Car"><path class="cls-1" d="M96.94,83.58,90.42,73.19,96.52,61H101V79Z"/><path class="cls-2" d="M101,76v3l-4.06,4.58L90.42,73.19l.84-1.67,2.43,3.87A4.58,4.58,0,0,0,101,76Z"/><path class="cls-3" d="M1,97V77H7V68H38.48L51.69,81H72V91H92l8-12V61h14.81L127,73.19V89.42l-1.57,2.15L103,100H33C4.76,96.47,11.67,97,1,97Z"/><path class="cls-4" d="M127,86.42v3l-1.57,2.15L103,100H33C4.76,96.47,11.67,97,1,97V94c10.07,0,3.2-.6,32,3h70l22.43-8.43Z"/><circle class="cls-5" cx="21" cy="98" r="12"/><circle class="cls-6" cx="21" cy="98" r="4"/><circle class="cls-7" cx="115" cy="98" r="12"/><path class="cls-8" d="M21,110A12,12,0,0,1,9.1,96.5a12,12,0,0,0,23.8,0A12,12,0,0,1,21,110Z"/><path class="cls-8" d="M115,110a12,12,0,0,1-11.9-13.5,12,12,0,0,0,23.8,0A12,12,0,0,1,115,110Z"/><circle class="cls-6" cx="115" cy="98" r="4"/><path class="cls-9" d="M24.87,99a4,4,0,0,0-7.74,0,4,4,0,1,1,7.74,0Z"/><path class="cls-9" d="M118.87,99a4,4,0,0,0-7.74,0,4,4,0,1,1,7.74,0Z"/><path class="cls-10" d="M103.85,24c-100.3,0-98-.1-98,0a8,8,0,0,1,8-8H90.91A14.45,14.45,0,0,1,103.85,24Z"/><path class="cls-4" d="M103.85,24h-98a8.09,8.09,0,0,1,.58-3h95.4A14.09,14.09,0,0,1,103.85,24Z"/><path class="cls-11" d="M52,81H69.65a4.13,4.13,0,0,0,4.19-3.62,4,4,0,0,0-4-4.38H49.74l-4.8-16.72a4,4,0,1,0-7.68,2.22l3.18,11.08Z"/><path class="cls-12" d="M69.65,81H52L40.44,69.58c-3.47-12.09-3.72-12-3.06-13.65l3.06,10.65L52,78H69.65a4.24,4.24,0,0,0,3.91-2.5A4,4,0,0,1,69.65,81Z"/><path class="cls-13" d="M127,82h-1.5a3.5,3.5,0,0,1,0-7H127Z"/><path class="cls-14" d="M127,80v2h-1.5a3.5,3.5,0,0,1-3.35-4.5A3.51,3.51,0,0,0,125.5,80Z"/><path class="cls-15" d="M21,93a5,5,0,1,0,5,5A5,5,0,0,0,21,93Zm0,8a3,3,0,1,1,3-3A3,3,0,0,1,21,101Z"/><path class="cls-15" d="M115,93a5,5,0,1,0,5,5A5,5,0,0,0,115,93Zm0,8a3,3,0,1,1,3-3A3,3,0,0,1,115,101Z"/><path class="cls-15" d="M127.71,72.49C114.42,59.19,115.4,60,114.81,60h-9.46L92.44,25c12.15,0,11.85.2,12.27-.47a1,1,0,0,0,0-1A15.4,15.4,0,0,0,90.91,15H13.85c-8,0-10.77,10-8,10H14V67H7a1,1,0,0,0-1,1v8H1a1,1,0,0,0-1,1V97a1,1,0,0,0,1,1H8a13,13,0,0,0,25.65,2.93c.3.11-4.8.07,68.71.07a13,13,0,1,0,24.09-9.14c1.49-2,1.55-2,1.55-2.44C128,71.7,128.11,72.89,127.71,72.49ZM13.85,17H90.91a13.38,13.38,0,0,1,11.21,6H6.93A7,7,0,0,1,13.85,17ZM16,25H90.3l12.92,35c-7.2,0-7.22-.2-7.59.55l-3,5.93L80.74,57.54l4.4-6.15a1,1,0,0,0-1.63-1.16L73.35,64.45A1,1,0,0,0,74.16,66c.71,0,.53,0,5.42-6.86l12.17,9.12-2.22,4.45c-.36.71-.37.32,6.22,10.83L91.46,90H73c0-10.23,0-8.88,0-9.17A5,5,0,0,0,69.86,72H50.49L45.9,56a5,5,0,1,0-9.6,2.77C39,68.1,38.74,67,38.48,67H16ZM97,81.74l-5.4-8.61L97.14,62H99V78.7ZM41.42,69.48c0-.28.32,1-3.2-11.26A3,3,0,1,1,44,56.56l4.8,16.72a1,1,0,0,0,1,.72H69.86a3,3,0,1,1-.21,6H52.1ZM21,109A11,11,0,1,1,32,98,11,11,0,0,1,21,109Zm94,0a11,11,0,1,1,11-11A11,11,0,0,1,115,109Zm-13-10c-73.2,0-67.8,0-68.1,0A13,13,0,0,0,8.17,96H2V78H7a1,1,0,0,0,1-1V69H38.07C52.41,83.12,51,82,52,82H71v9a1,1,0,0,0,1,1c21.7,0,20.41.19,20.83-.45,8.7-13,8.17-12.12,8.17-12.55V62h13.39c12.78,12.78,12.32,12,11.11,12a4.5,4.5,0,0,0,0,9h.5v6.09l-.72,1C117.4,79.87,101.07,86.19,102.05,99Zm24-18h-.5a2.5,2.5,0,0,1,0-5h.5Z"/></g></svg>