<svg xmlns="http://www.w3.org/2000/svg" xmlns:xlink="http://www.w3.org/1999/xlink" viewBox="0 0 128 128"><defs><style>.cls-1{fill:url(#linear-gradient);}.cls-2{fill:#8288a1;}.cls-3{fill:url(#linear-gradient-2);}.cls-4{fill:#7ece67;}.cls-5{fill:url(#linear-gradient-3);}.cls-6{fill:#5b8dc9;}.cls-7{fill:url(#linear-gradient-4);}.cls-8{fill:url(#linear-gradient-5);}.cls-9{fill:url(#linear-gradient-6);}.cls-10{fill:url(#linear-gradient-7);}.cls-11{fill:url(#linear-gradient-8);}.cls-12{fill:#f6b756;}.cls-13{fill:#c7cdd8;}.cls-14{fill:#47566a;}</style><linearGradient id="linear-gradient" x1="39" y1="128" x2="39" gradientUnits="userSpaceOnUse"><stop offset="0" stop-color="#949aaf"/><stop offset="1" stop-color="#c6ccda"/></linearGradient><linearGradient id="linear-gradient-2" x1="39" y1="120" x2="39" y2="8" gradientUnits="userSpaceOnUse"><stop offset="0" stop-color="#8cdd79"/><stop offset="1" stop-color="#d4e6b6"/></linearGradient><linearGradient id="linear-gradient-3" x1="94.97" y1="119.74" x2="94.97" y2="53.68" gradientUnits="userSpaceOnUse"><stop offset="0" stop-color="#7aa8d7"/><stop offset="1" stop-color="#96c8ea"/></linearGradient><linearGradient id="linear-gradient-4" x1="94.96" y1="102.28" x2="94.96" y2="64" gradientUnits="userSpaceOnUse"><stop offset="0" stop-color="#d4d8e1"/><stop offset="1" stop-color="#f3f4f5"/></linearGradient><linearGradient id="linear-gradient-5" x1="39.04" y1="120.01" x2="39.04" y2="20.02" gradientUnits="userSpaceOnUse"><stop offset="0" stop-color="#464f6b"/><stop offset="1" stop-color="#575f7c"/></linearGradient><linearGradient id="linear-gradient-6" x1="37.16" y1="37.16" x2="37.16" y2="18.58" gradientTransform="translate(-8.82 34.44) rotate(-45)" gradientUnits="userSpaceOnUse"><stop offset="0" stop-color="#fbcc88"/><stop offset="1" stop-color="#ffe5c3"/></linearGradient><linearGradient id="linear-gradient-7" x1="47.48" y1="83.61" x2="47.48" y2="67.1" gradientTransform="translate(-39.38 55.65) rotate(-45)" xlink:href="#linear-gradient-6"/><linearGradient id="linear-gradient-8" x1="24.77" y1="114.58" x2="24.77" y2="96" gradientTransform="translate(-67.2 48.36) rotate(-45)" xlink:href="#linear-gradient-6"/></defs><title>GPS</title><g id="GPS"><rect class="cls-1" width="78" height="128" rx="8.26"/><path class="cls-2" d="M78,115.74v4A8.26,8.26,0,0,1,69.74,128H8.26A8.26,8.26,0,0,1,0,119.74v-4A8.26,8.26,0,0,0,8.26,124H69.74A8.26,8.26,0,0,0,78,115.74Z"/><path class="cls-3" d="M70,120H8V8H22.47a4.08,4.08,0,0,0,4.13,4H51.4a4.08,4.08,0,0,0,4.13-4H70Z"/><rect class="cls-4" x="8" y="116" width="62" height="4"/><circle class="cls-5" cx="94.97" cy="86.71" r="33.03"/><path class="cls-6" d="M95,119.74a33,33,0,0,1-33-34.2,33,33,0,0,0,65.82-2.63A33,33,0,0,1,95,119.74Z"/><path class="cls-7" d="M115.61,102.28C88.32,94.75,96.5,97.09,95,96.58l-20.65,5.7L95,64C96.37,66.82,88.56,52.12,115.61,102.28Z"/><path class="cls-8" d="M59,44.67,26.89,76.79,70,119.92c0,.12.86.08-11.6.08L21.05,82.63l-13,13V78.09L29.8,56.35,8.06,34.61V20l29,29L59,27.16l11,11V55.67Z"/><rect class="cls-9" x="30.59" y="21.3" width="13.14" height="13.14" transform="translate(30.59 -18.11) rotate(45)"/><rect class="cls-10" x="42.37" y="68.79" width="10.22" height="13.14" transform="translate(67.19 -11.51) rotate(45)"/><rect class="cls-11" x="17.48" y="99.45" width="14.6" height="11.68" transform="translate(81.71 13.32) rotate(45)"/><polygon class="cls-12" points="46.45 27.87 37.16 37.16 27.87 27.87 30.37 25.37 37.16 32.16 43.95 25.37 46.45 27.87"/><polygon class="cls-12" points="55.74 74.32 46.45 83.61 39.23 76.39 41.73 73.89 46.45 78.61 53.24 71.82 55.74 74.32"/><polygon class="cls-12" points="34.06 106.32 25.81 114.58 15.48 104.26 17.98 101.76 25.81 109.58 31.56 103.82 34.06 106.32"/><path class="cls-13" d="M95,64.06c0,34,.07,32.55,0,32.52l-20.65,5.7C96.28,61.57,95,64,95,64.06Z"/><path class="cls-14" d="M31,8.26A2.07,2.07,0,1,0,28.9,6.19,2.07,2.07,0,0,0,31,8.26Z"/><path class="cls-14" d="M47.48,8.26a2.07,2.07,0,1,0-2.06-2.07A2.07,2.07,0,0,0,47.48,8.26Z"/><path class="cls-14" d="M79,56.67V8.26A9.27,9.27,0,0,0,69.74-1H8.26A9.27,9.27,0,0,0-1,8.26V119.74A9.27,9.27,0,0,0,8.26,129H69.74A9.27,9.27,0,0,0,79,119.74v-3c22.47,12,50-4.32,50-30S101.51,44.65,79,56.67Zm-2,63.07A7.27,7.27,0,0,1,69.74,127H8.26A7.27,7.27,0,0,1,1,119.74V8.26A7.27,7.27,0,0,1,8.26,1H69.74A7.27,7.27,0,0,1,77,8.26V57.83a33.62,33.62,0,0,0-6,4.75V8a1,1,0,0,0-1-1H55.53a1,1,0,0,0-1,1,3.07,3.07,0,0,1-3.13,3c-26.51,0-25.73.38-27-.91A2.85,2.85,0,0,1,23.47,8a1,1,0,0,0-1-1H8A1,1,0,0,0,7,8V120a1,1,0,0,0,1,1H70a1.07,1.07,0,0,0,1-1.08v-9.08a33.62,33.62,0,0,0,6,4.75Zm-8-2.24L28.31,76.79,59,46.08l10,10v8.67a33.92,33.92,0,0,0,0,44C69,109,69,108,69,117.5Zm0-81.75-9.3-9.3a1,1,0,0,0-1.41,0l-21.2,21.2L9,19.54V9H21.57a5.11,5.11,0,0,0,5,4H51.4a5.11,5.11,0,0,0,5-4H69ZM9,37,28.39,56.35,9,75.74ZM9,96.1l12.05-12L56,119H9ZM21.76,81.92a1,1,0,0,0-1.42,0L9.06,93.2V78.5L30.51,57.06a1,1,0,0,0,0-1.42L9.06,34.2V22.43c29.12,29.14,27.41,27.63,28,27.63S36,51.55,59,28.57l10,10V53.26L59.7,44a1,1,0,0,0-1.41,0L26.19,76.08a1,1,0,0,0,0,1.42L67.67,119H58.81ZM78.7,114.29a1,1,0,0,0-.38-.23A32,32,0,1,1,127,86.71C127,111.44,100,126.88,78.7,114.29Z"/><path class="cls-14" d="M95.85,63.53a1,1,0,0,0-1.76,0L73.44,101.8a1,1,0,0,0,1.15,1.44L95,97.62c22,6.06,20.84,6,21.43,5.28S118,104.56,95.85,63.53Zm-.62,32.09c-.38-.11,1.14-.46-18.92,5.07L95,66.11l18.65,34.58Z"/><path class="cls-14" d="M37.87,17.87a1,1,0,0,0-1.42,0l-9.29,9.29a1,1,0,0,0,0,1.42l9.29,9.29a1,1,0,0,0,1.42,0c10.07-10.07,9.58-9.41,9.58-10S47.94,28,37.87,17.87Zm-.71,17.88-7.87-7.88L37.16,20,45,27.87Z"/><path class="cls-14" d="M49.22,66.39a1,1,0,0,0-1.41,0l-9.29,9.29a1,1,0,0,0,0,1.41l7.22,7.23a1,1,0,0,0,1.42,0L56.45,75a1,1,0,0,0,0-1.41ZM46.45,82.2l-5.81-5.81,7.88-7.88,5.81,5.81Z"/><path class="cls-14" d="M34.77,105.62,24.45,95.29a1,1,0,0,0-1.42,0l-8.25,8.26a1,1,0,0,0,0,1.41c11.21,11.22,10.44,10.62,11,10.62s0,.38,9-8.55A1,1,0,0,0,34.77,105.62Zm-9,7.55-8.91-8.91,6.84-6.85,8.91,8.91Z"/></g></svg>