<svg xmlns="http://www.w3.org/2000/svg" xmlns:xlink="http://www.w3.org/1999/xlink" viewBox="0 0 128 128"><defs><style>.cls-1{fill:url(#linear-gradient);}.cls-2{fill:#5b8dc9;}.cls-3{fill:url(#linear-gradient-2);}.cls-4{fill:url(#linear-gradient-3);}.cls-5{fill:#3d465e;}.cls-6{fill:#949aaf;}.cls-7{fill:#8288a1;}.cls-8{fill:#f6b756;}.cls-9{fill:url(#linear-gradient-4);}.cls-10{fill:#77cacb;}.cls-11{fill:url(#linear-gradient-5);}.cls-12{fill:#dd4e6a;}.cls-13{fill:#47566a;}</style><linearGradient id="linear-gradient" x1="64.01" y1="80" x2="64.01" y2="37" gradientUnits="userSpaceOnUse"><stop offset="0" stop-color="#7aa8d7"/><stop offset="1" stop-color="#96c8ea"/></linearGradient><linearGradient id="linear-gradient-2" x1="17" y1="90" x2="17" y2="70" gradientUnits="userSpaceOnUse"><stop offset="0" stop-color="#464f6b"/><stop offset="1" stop-color="#575f7c"/></linearGradient><linearGradient id="linear-gradient-3" x1="105" x2="105" xlink:href="#linear-gradient-2"/><linearGradient id="linear-gradient-4" x1="8.84" y1="58" x2="8.84" y2="38.72" gradientUnits="userSpaceOnUse"><stop offset="0" stop-color="#9dd5df"/><stop offset="1" stop-color="#c3e1f5"/></linearGradient><linearGradient id="linear-gradient-5" x1="60.7" y1="58.05" x2="60.7" y2="37" xlink:href="#linear-gradient-4"/></defs><title>Hatchback</title><g id="Hatchback"><path class="cls-1" d="M127,78l-2,2H7.1L1,78V57.23a10.24,10.24,0,0,1,2.52-6.74c5.15-6,10-13.49,20.93-13.49H70.07a12.11,12.11,0,0,1,6.67,2c.89.54,21.72,16.43,21.82,16.43l20.78,3.21a8.22,8.22,0,0,1,6.75,6.49C127.24,71.32,127,67.41,127,78Z"/><polygon class="cls-2" points="127 73.95 127 77.95 124.97 80 7.1 80 1 77.95 1 73.95 7.1 76 124.97 76 127 73.95"/><circle class="cls-3" cx="17" cy="80" r="10"/><circle class="cls-4" cx="105" cy="80" r="10"/><path class="cls-5" d="M17,90A10,10,0,0,1,7.12,78.52a10,10,0,0,0,19.76,0A10,10,0,0,1,17,90Z"/><path class="cls-5" d="M105,90a10,10,0,0,1-9.88-11.48,10,10,0,0,0,19.76,0A10,10,0,0,1,105,90Z"/><circle class="cls-6" cx="17" cy="80" r="4"/><circle class="cls-6" cx="105" cy="80" r="4"/><path class="cls-7" d="M20.87,81a4,4,0,0,0-7.74,0,4,4,0,1,1,7.74,0Z"/><path class="cls-7" d="M108.87,81a4,4,0,0,0-7.74,0,4,4,0,1,1,7.74,0Z"/><path class="cls-8" d="M126.94,70h-8a3.91,3.91,0,0,1,1.18-2.82c1.45-1.5,3-1.18,6-1.18Z"/><path class="cls-9" d="M15,47.71l-4.13,7.22A6.08,6.08,0,0,1,5.59,58H1a10.45,10.45,0,0,1,2.52-7.51C9,44.19,11.1,41,16.34,38.72A12.35,12.35,0,0,1,15,47.71Z"/><path class="cls-10" d="M10.88,54.93A6.08,6.08,0,0,1,5.59,58H1a11.43,11.43,0,0,1,.25-3H5.59a6.08,6.08,0,0,0,5.29-3.07c4.42-7.73,5.37-8.83,5.71-12.1C17.25,45.25,14.68,48.29,10.88,54.93Z"/><path class="cls-11" d="M98.56,55.43V56l-6.1,2c-72,0-66.85.32-67.65-.65a8.65,8.65,0,0,1-1.93-6.24C23,49.38,23.86,47.35,28,37H70.57a9.66,9.66,0,0,1,4.58,1.15l1.59.85C77.63,39.54,98.46,55.43,98.56,55.43Z"/><path class="cls-10" d="M98.56,55.43V56l-6.1,2H25.39a8.65,8.65,0,0,1-2.52-6.89c.18-2.26-.29,1.08,2.52,3.89H92.45l3.84-1.28C99,55.75,98.46,55.43,98.56,55.43Z"/><rect class="cls-12" x="1" y="64" width="4" height="4"/><path class="cls-13" d="M17,75a5,5,0,1,0,5,5A5,5,0,0,0,17,75Zm0,8a3,3,0,1,1,3-3A3,3,0,0,1,17,83Z"/><path class="cls-13" d="M105,75a5,5,0,1,0,5,5A5,5,0,0,0,105,75Zm0,8a3,3,0,1,1,3-3A3,3,0,0,1,105,83Z"/><path class="cls-13" d="M127.07,64.94a9.22,9.22,0,0,0-7.58-7.28L99,54.48,78,38.67a13.29,13.29,0,0,0-8-2.67H24.45A21.34,21.34,0,0,0,8.39,43.33C3,49.54,0,52,0,57.23V78c0,1,.36.84,6,2.75A11,11,0,0,0,28,81h66.1A11,11,0,0,0,116,81c9.69,0,9.32.12,9.73-.3C127.86,78.5,128,78.49,128,78,128,67.53,128.25,70.91,127.07,64.94ZM125.72,69h-5.61a2.8,2.8,0,0,1,.72-1.12c1.1-1.13,2.3-.88,4.49-.88ZM76.82,40.26l20.11,15.2L92.29,57H59V38C69.82,38,72.93,37.32,76.82,40.26ZM57,57H36.64l1.9-19H57ZM28.76,38h7.77l-1.9,19H25.82a7.69,7.69,0,0,1-1.43-8C27.76,40.52,28.66,38.3,28.76,38ZM14.14,47.21C8.34,57.37,9.62,57,2,57a9.1,9.1,0,0,1,2.24-5.27C9.62,45.59,11.4,43,15.67,40.79A11.75,11.75,0,0,1,14.14,47.21ZM2,65H4v2H2ZM17,89a9,9,0,0,1-9-8.63,1,1,0,0,0,0-.72A9,9,0,1,1,17,89Zm88,0a9,9,0,1,1,9-9A9,9,0,0,1,105,89Zm19.55-10H116a11,11,0,0,0-21.9,0H28A11,11,0,0,0,6.1,78.61L2,77.23V69H5a1,1,0,0,0,1-1V64a1,1,0,0,0-1-1H2V59H5.59a7.1,7.1,0,0,0,6.16-3.58c4-7,6.67-10.22,5.77-16.09,3.72-1.47,6.34-1.33,9.1-1.33L22.53,48.23a9.7,9.7,0,0,0,2.15,10.48c.46.45-3.93.29,67.77.29.23,0-.23.13,6.42-2.08,1.25-.42-3.24-.93,20.31,2.71A7.19,7.19,0,0,1,125,65h-2.07c-4.65,0-6.29,6-4,6H126v6.54Z"/><path class="cls-13" d="M66,65H62a1,1,0,0,0,0,2h4A1,1,0,0,0,66,65Z"/></g></svg>