<svg xmlns="http://www.w3.org/2000/svg" xmlns:xlink="http://www.w3.org/1999/xlink" viewBox="0 0 128 128"><defs><style>.cls-1{fill:url(#linear-gradient);}.cls-2{fill:#c7cdd8;}.cls-3{fill:url(#linear-gradient-2);}.cls-4{fill:#8288a1;}.cls-5{fill:url(#linear-gradient-3);}.cls-6{fill:#77cacb;}.cls-7{fill:url(#linear-gradient-4);}.cls-8{fill:#47566a;}</style><linearGradient id="linear-gradient" x1="64" y1="85" x2="64" y2="36" gradientUnits="userSpaceOnUse"><stop offset="0" stop-color="#d4d8e1"/><stop offset="1" stop-color="#f3f4f5"/></linearGradient><linearGradient id="linear-gradient-2" x1="84.32" y1="50" x2="84.32" y2="42" gradientUnits="userSpaceOnUse"><stop offset="0" stop-color="#949aaf"/><stop offset="1" stop-color="#c6ccda"/></linearGradient><linearGradient id="linear-gradient-3" x1="101.55" y1="74" x2="101.55" y2="58" gradientUnits="userSpaceOnUse"><stop offset="0" stop-color="#9dd5df"/><stop offset="1" stop-color="#c3e1f5"/></linearGradient><linearGradient id="linear-gradient-4" x1="101" y1="85" x2="101" xlink:href="#linear-gradient-3"/></defs><title>Helicopter</title><g id="Helicopter"><path class="cls-1" d="M127,76.9a8.13,8.13,0,0,1-8.12,8.1H91.93A30.73,30.73,0,0,1,63.82,66L15.37,57l-4.32,9H5C7.32,51.25,7,54.44,7,50L1,36H7L19,50h81.29A26.75,26.75,0,0,1,127,76.9Z"/><path class="cls-2" d="M127,76.9a8.13,8.13,0,0,1-8.12,8.1H91.93A30.73,30.73,0,0,1,63.82,66L15.37,57l-4.32,9H5l.48-3h5.62l4.32-9,48.45,9a30.73,30.73,0,0,0,28.1,19h27a8.12,8.12,0,0,0,8-7C127,75.59,127,76.23,127,76.9Z"/><path class="cls-3" d="M100.32,50c-34.27,0-31.9-.1-32,0a27.32,27.32,0,0,1,19.32-8h4.68Z"/><path class="cls-4" d="M100.32,50h-32a26.76,26.76,0,0,1,3.57-3H97.32Z"/><path class="cls-5" d="M126.52,74H93a18.36,18.36,0,0,1-15.7-8.88,4.7,4.7,0,0,1,4-7.12h38A25.8,25.8,0,0,1,126.52,74Z"/><path class="cls-6" d="M126.52,74H93a18.36,18.36,0,0,1-15.7-8.88,4.76,4.76,0,0,1-.41-3.92,4.7,4.7,0,0,0,.41.92A18.36,18.36,0,0,0,93,71h33.15A24.61,24.61,0,0,1,126.52,74Z"/><rect class="cls-7" x="93" y="58" width="16" height="27"/><rect class="cls-6" x="93" y="82" width="16" height="3"/><rect class="cls-6" x="91" y="58" width="2" height="16"/><rect class="cls-6" x="109" y="58" width="2" height="16"/><path class="cls-8" d="M100.75,49c-8.32-8.32-7.84-8-8.43-8H89V36h38a1,1,0,0,0,0-2H89V33a1,1,0,0,0-2,0v1H50a1,1,0,0,0,0,2H87v5a28.08,28.08,0,0,0-19.08,8H19.44L7.75,35.35C7.32,34.85,7.4,35,1,35a1,1,0,0,0-.92,1.39L6,50.21v3C3.81,66.86,3.78,66.15,4.2,66.65s.2.35,6.85.35c.88,0,.72-.19,4.89-8.87l47.17,8.76A31.84,31.84,0,0,0,89,85.84V94H74a1,1,0,0,0,0,2h46.42a8.29,8.29,0,0,0,7.47-4.62,1,1,0,0,0-1.78-.89A6.34,6.34,0,0,1,120.42,94H112V86h6.88A9.14,9.14,0,0,0,128,76.9,27.75,27.75,0,0,0,100.75,49Zm24.67,24H110V59h8.88A24.92,24.92,0,0,1,125.42,73ZM92,73c-8.28-.47-14.4-7.13-14.4-10.27A3.69,3.69,0,0,1,81.3,59H92Zm2,2h14v9H94Zm0-2V59h14V73ZM91.91,43l6,6h-27C78.68,42.57,86.1,43,91.91,43ZM64.74,65.61c-.31-.72,3,.1-49.18-9.59a1,1,0,0,0-1.09.55L10.42,65H6.13C8.11,52.69,8,53.46,8,53.33c0-3.69,0-3.47-.08-3.72L2.52,37h4C19.24,51.85,18.32,51,19,51h81.29a25.5,25.5,0,0,1,16.49,6H81.3a5.69,5.69,0,0,0-5.7,5.7C75.6,66.86,82.49,74.49,92,75c0,9.72,0,9-.07,9A29.75,29.75,0,0,1,64.74,65.61ZM110,94H91V86c1.6,0,1.69,0,19,0Zm8.88-10H110V75h15.94c0,.56.06,1.16.06,1.9A7.14,7.14,0,0,1,118.88,84Z"/></g></svg>