<svg xmlns="http://www.w3.org/2000/svg" xmlns:xlink="http://www.w3.org/1999/xlink" viewBox="0 0 128 128"><defs><style>.cls-1{fill:url(#linear-gradient);}.cls-2{fill:#cba07a;}.cls-3{fill:url(#linear-gradient-2);}.cls-4{fill:url(#linear-gradient-3);}.cls-5{fill:url(#linear-gradient-4);}.cls-6{fill:#47566a;}</style><linearGradient id="linear-gradient" x1="64" y1="127" x2="64" y2="113" gradientUnits="userSpaceOnUse"><stop offset="0" stop-color="#d1a788"/><stop offset="1" stop-color="#f2d3b8"/></linearGradient><linearGradient id="linear-gradient-2" x1="64" y1="90" x2="64" y2="1" gradientUnits="userSpaceOnUse"><stop offset="0" stop-color="#7aa8d7"/><stop offset="1" stop-color="#96c8ea"/></linearGradient><linearGradient id="linear-gradient-3" x1="64" y1="90" x2="64" y2="1" gradientUnits="userSpaceOnUse"><stop offset="0" stop-color="#d4d8e1"/><stop offset="1" stop-color="#f3f4f5"/></linearGradient><linearGradient id="linear-gradient-4" x1="64" y1="90" x2="64" y2="1" xlink:href="#linear-gradient-2"/></defs><title>Hot Air Balloon</title><g id="Hot_Air_Balloon" data-name="Hot Air Balloon"><rect class="cls-1" x="54" y="113" width="20" height="14"/><rect class="cls-2" x="54" y="124" width="20" height="3"/><path class="cls-3" d="M72.21,90S103,59.67,103,35.4,84.53,1,64,1,25,11.12,25,35.4,55.79,90,55.79,90"/><path class="cls-4" d="M69.47,90S90,59.67,90,35.4,77.68,1,64,1,38,11.12,38,35.4,58.53,90,58.53,90"/><path class="cls-5" d="M66.11,90C78.45,42.57,75,1,64,1S49.42,42.06,61.9,90"/><path class="cls-6" d="M76,112H74.92L73.18,91H74a1,1,0,0,0,.47-1.87C80.81,82.54,104,56.94,104,35.4,104,9.3,83.34,0,64,0,40.7,0,24,12.36,24,35.4c0,21.54,23.19,47.14,29.53,53.73A1,1,0,0,0,54,91h.82l-1.74,21H52a1,1,0,0,0,0,2h1v13a1,1,0,0,0,1,1H74a1,1,0,0,0,1-1V114h1A1,1,0,0,0,76,112ZM59.06,89C56.59,85.22,39,57.53,39,35.4,39,13.92,48.82,4.51,59.35,2.45,55.3,7.23,53,18.81,53,35.4,53,56.76,59.15,83,60.61,89Zm8.33,0C68.85,83,75,56.76,75,35.4c0-16.59-2.3-28.17-6.35-32.95C79.18,4.51,89,13.92,89,35.4,89,57.53,71.41,85.22,68.94,89Zm-4.72,0C61.48,84.22,55,57.19,55,35.4,55-1.47,65.43,2,64,2c8.81,0,14.07,35.85,1.33,87Zm8.51,2,1.73,21H65V91ZM102,35.4C102,57.78,74.8,86,71.79,89h-.47C75.53,82.45,91,56.86,91,35.4c0-17.08-6-27-13.76-31.76C90.71,7.17,102,16.72,102,35.4ZM50.76,3.64C43,8.43,37,18.32,37,35.4,37,56.86,52.47,82.45,56.68,89h-.47C53.2,86,26,57.78,26,35.4,26,16.72,37.29,7.17,50.76,3.64ZM63,91v21H55.09l1.73-21Zm10,35H55V114H73Z"/></g></svg>