<svg xmlns="http://www.w3.org/2000/svg" xmlns:xlink="http://www.w3.org/1999/xlink" viewBox="0 0 128 128"><defs><style>.cls-1{fill:url(#linear-gradient);}.cls-2{fill:#4da67f;}.cls-3{fill:url(#linear-gradient-2);}.cls-4{fill:url(#linear-gradient-3);}.cls-5{fill:url(#linear-gradient-4);}.cls-6{fill:#77cacb;}.cls-7{fill:url(#linear-gradient-5);}.cls-8{fill:url(#linear-gradient-6);}.cls-9{fill:#3d465e;}.cls-10{fill:#fbcc88;}.cls-11{fill:#f6b756;}.cls-12{fill:url(#linear-gradient-7);}.cls-13{fill:url(#linear-gradient-8);}.cls-14{fill:#adb3c4;}.cls-15{fill:#47566a;}</style><linearGradient id="linear-gradient" x1="66.02" y1="86.35" x2="66.02" y2="30" gradientUnits="userSpaceOnUse"><stop offset="0" stop-color="#6ab891"/><stop offset="1" stop-color="#85cba9"/></linearGradient><linearGradient id="linear-gradient-2" x1="31" y1="102" x2="31" y2="70" gradientUnits="userSpaceOnUse"><stop offset="0" stop-color="#464f6b"/><stop offset="1" stop-color="#575f7c"/></linearGradient><linearGradient id="linear-gradient-3" x1="31" y1="93" x2="31" y2="79" gradientUnits="userSpaceOnUse"><stop offset="0" stop-color="#949aaf"/><stop offset="1" stop-color="#c6ccda"/></linearGradient><linearGradient id="linear-gradient-4" x1="70.15" y1="56" x2="70.15" y2="30" gradientUnits="userSpaceOnUse"><stop offset="0" stop-color="#9dd5df"/><stop offset="1" stop-color="#c3e1f5"/></linearGradient><linearGradient id="linear-gradient-5" x1="31.55" x2="31.55" xlink:href="#linear-gradient-4"/><linearGradient id="linear-gradient-6" x1="6" y1="74" x2="6" y2="50" xlink:href="#linear-gradient-2"/><linearGradient id="linear-gradient-7" x1="107" y1="102" x2="107" y2="70" xlink:href="#linear-gradient-2"/><linearGradient id="linear-gradient-8" x1="107" x2="107" xlink:href="#linear-gradient-3"/></defs><title>Jeep</title><g id="Jeep"><path class="cls-1" d="M127,82.29l-4.06,4.06L15,86c-7-2.4-4.72-2-10-2V74h6V56h6.11l3.26-20.85a6.1,6.1,0,0,1,6-5.15H75.63a4.08,4.08,0,0,1,3.65,2.22l7,19.74c0,.1-1.62-.13,34.22,3.58a6.06,6.06,0,0,1,5.33,4.78C127.38,67.9,127,63.52,127,82.29Z"/><path class="cls-2" d="M127,78.29v4l-4.06,4.06L15,86c-7-2.4-4.72-2-10-2V80c5.28,0,3-.4,10,2l107.94.35Z"/><circle class="cls-3" cx="31" cy="86" r="16"/><circle class="cls-4" cx="31" cy="86" r="7"/><path class="cls-5" d="M86.29,52l-10.1,4H54V30H75.5a4.12,4.12,0,0,1,3.65,2.22l.41.78Z"/><polygon class="cls-6" points="86.29 51.96 76.19 56 54 56 54 52 76.19 52 85.05 48.46 86.29 51.96"/><path class="cls-7" d="M46,30V56H17.11c3.5-22.4,3.19-21.57,4-23h0a6.34,6.34,0,0,1,5.39-3Z"/><polygon class="cls-6" points="46 52 46 56 17.11 56 17.74 52 46 52"/><rect class="cls-8" x="1" y="50" width="10" height="24" rx="1"/><path class="cls-9" d="M11,68v5a1,1,0,0,1-1,1H2a1,1,0,0,1-1-1V68a1,1,0,0,0,1,1h8A1,1,0,0,0,11,68Z"/><path class="cls-10" d="M127,72h-3.74c-3.71,0-5.66-4.31-3.08-6.82,1.48-1.52,3.06-1.18,6.42-1.18C127.13,66.67,127,64.9,127,72Z"/><path class="cls-11" d="M127,70v2h-3.74a4.11,4.11,0,0,1-4.12-5,4.29,4.29,0,0,0,4.12,3Z"/><circle class="cls-12" cx="107" cy="86" r="16"/><path class="cls-9" d="M31,102A16,16,0,0,1,15.13,84a16,16,0,0,0,31.75,0A16,16,0,0,1,31,102Z"/><path class="cls-9" d="M107,102A16,16,0,0,1,91.13,84a16,16,0,0,0,31.75,0A16,16,0,0,1,107,102Z"/><circle class="cls-13" cx="107" cy="86" r="7"/><path class="cls-14" d="M37.84,87.5c-1.6-7.3-12.08-7.31-13.68,0a7,7,0,1,1,13.68,0Z"/><path class="cls-14" d="M113.84,87.5c-1.6-7.3-12.08-7.31-13.68,0a7,7,0,1,1,13.68,0Z"/><path class="cls-15" d="M31,78a8,8,0,1,0,8,8A8,8,0,0,0,31,78Zm0,14a6,6,0,1,1,6-6A6,6,0,0,1,31,92Z"/><path class="cls-15" d="M60,65H56a1,1,0,0,0,0,2h4A1,1,0,0,0,60,65Z"/><path class="cls-15" d="M126.82,60.13a7.08,7.08,0,0,0-6.21-5.58L87,51.07c-7-19.8-6.81-19.2-6.86-19.3A5.06,5.06,0,0,0,75.63,29H26.39a7.05,7.05,0,0,0-7,6L16.25,55H12V51a2,2,0,0,0-2-2H2a2,2,0,0,0-2,2V73a2,2,0,0,0,2,2H4v9a1,1,0,0,0,1,1c5.07,0,3-.35,9,1.73A17,17,0,0,0,48,87h42.1A17,17,0,0,0,124,86.74L127.71,83c.42-.42.29,0,.29-11C128,64.43,128.31,67.4,126.82,60.13ZM126,71h-2.74A3.2,3.2,0,0,1,120,67.83,3,3,0,0,1,123,65h2.78C126.07,66.47,126,65.3,126,71ZM78.36,32.62,85,51.39,76,55H55V31H75.63A3.08,3.08,0,0,1,78.36,32.62Zm-57,2.69a5.07,5.07,0,0,1,5-4.31H45V55H18.27ZM2,51h8V73H2Zm29,50A15,15,0,1,1,46,86,15,15,0,0,1,31,101Zm76,0a15,15,0,1,1,15-15,1,1,0,0,0,0,.51A15,15,0,0,1,107,101Zm16.87-17a17,17,0,0,0-33.82,1H48a17,17,0,0,0-33.88-.38C8.35,82.65,10.29,83,6,83V75h5a1,1,0,0,0,1-1V57H46a1,1,0,0,0,1-1V31h6V56a1,1,0,0,0,1,1c23.72,0,22.29,0,22.56-.07L86.36,53l34,3.52a5.09,5.09,0,0,1,4.46,4l.51,2.48c-2.37,0-4.2-.27-5.89,1.46a4.85,4.85,0,0,0-.12,6.86c1.9,2,4,1.68,6.64,1.68v8.88Z"/><path class="cls-15" d="M107,78a8,8,0,1,0,8,8A8,8,0,0,0,107,78Zm0,14a6,6,0,1,1,6-6A6,6,0,0,1,107,92Z"/></g></svg>