<svg xmlns="http://www.w3.org/2000/svg" xmlns:xlink="http://www.w3.org/1999/xlink" viewBox="0 0 128 128"><defs><style>.cls-1{fill:url(#linear-gradient);}.cls-2{fill:#575f7c;}.cls-3{fill:#8288a1;}.cls-4{fill:url(#linear-gradient-2);}.cls-5{fill:url(#linear-gradient-3);}.cls-6{fill:url(#linear-gradient-4);}.cls-7{fill:url(#linear-gradient-5);}.cls-8{fill:url(#linear-gradient-6);}.cls-9{fill:url(#linear-gradient-7);}.cls-10{fill:url(#linear-gradient-8);}.cls-11{fill:#adb3c4;}.cls-12{fill:url(#linear-gradient-9);}.cls-13{fill:#949aaf;}.cls-14{fill:url(#linear-gradient-10);}.cls-15{fill:#3d465e;}.cls-16{fill:url(#linear-gradient-11);}.cls-17{fill:url(#linear-gradient-12);}.cls-18{fill:url(#linear-gradient-13);}.cls-19{fill:url(#linear-gradient-14);}.cls-20{fill:#c7cdd8;}.cls-21{fill:url(#linear-gradient-15);}.cls-22{fill:url(#linear-gradient-16);}.cls-23{fill:url(#linear-gradient-17);}.cls-24{fill:url(#linear-gradient-18);}.cls-25{fill:url(#linear-gradient-19);}.cls-26{fill:url(#linear-gradient-20);}.cls-27{fill:url(#linear-gradient-21);}.cls-28{fill:#edf0f4;}.cls-29{fill:#47566a;}</style><linearGradient id="linear-gradient" x1="15" y1="84" x2="15" y2="70" gradientUnits="userSpaceOnUse"><stop offset="0" stop-color="#949aaf"/><stop offset="1" stop-color="#c6ccda"/></linearGradient><linearGradient id="linear-gradient-2" x1="61.5" x2="61.5" y2="60" xlink:href="#linear-gradient"/><linearGradient id="linear-gradient-3" x1="25" y1="94" x2="25" y2="74" gradientUnits="userSpaceOnUse"><stop offset="0" stop-color="#464f6b"/><stop offset="1" stop-color="#575f7c"/></linearGradient><linearGradient id="linear-gradient-4" x1="25" y1="90" x2="25" y2="78" xlink:href="#linear-gradient"/><linearGradient id="linear-gradient-5" x1="48" x2="48" xlink:href="#linear-gradient-3"/><linearGradient id="linear-gradient-6" x1="48" y1="90" x2="48" y2="78" xlink:href="#linear-gradient"/><linearGradient id="linear-gradient-7" x1="70" x2="70" xlink:href="#linear-gradient-3"/><linearGradient id="linear-gradient-8" x1="70" y1="90" x2="70" y2="78" xlink:href="#linear-gradient"/><linearGradient id="linear-gradient-9" x1="91" x2="91" y2="84" xlink:href="#linear-gradient-3"/><linearGradient id="linear-gradient-10" x1="104" x2="104" y2="84" xlink:href="#linear-gradient-3"/><linearGradient id="linear-gradient-11" x1="17" y1="70" x2="17" y2="42" gradientUnits="userSpaceOnUse"><stop offset="0" stop-color="#d4d8e1"/><stop offset="1" stop-color="#f3f4f5"/></linearGradient><linearGradient id="linear-gradient-12" x1="23" y1="70" x2="23" y2="42" xlink:href="#linear-gradient"/><linearGradient id="linear-gradient-13" x1="23" y1="56" x2="23" xlink:href="#linear-gradient-11"/><linearGradient id="linear-gradient-14" x1="52" y1="60" x2="52" y2="50" xlink:href="#linear-gradient-11"/><linearGradient id="linear-gradient-15" x1="72" y1="60" x2="72" y2="50" xlink:href="#linear-gradient-11"/><linearGradient id="linear-gradient-16" x1="86" y1="60" x2="86" y2="50" xlink:href="#linear-gradient-11"/><linearGradient id="linear-gradient-17" x1="104.5" x2="104.5" y2="76" xlink:href="#linear-gradient"/><linearGradient id="linear-gradient-18" x1="102.5" y1="76" x2="102.5" y2="60" xlink:href="#linear-gradient-11"/><linearGradient id="linear-gradient-19" x1="120" y1="92" x2="120" y2="83.87" xlink:href="#linear-gradient-11"/><linearGradient id="linear-gradient-20" x1="101" y1="60" x2="101" xlink:href="#linear-gradient-11"/><linearGradient id="linear-gradient-21" x1="101" y1="42" x2="101" y2="34" xlink:href="#linear-gradient-11"/></defs><title>Locomotive</title><g id="Locomotive"><rect class="cls-1" x="1" y="70" width="28" height="14"/><rect class="cls-2" x="27" y="70" width="2" height="14"/><rect class="cls-3" x="1" y="80" width="28" height="4"/><path class="cls-4" d="M29,84H94V60H29Z"/><path class="cls-3" d="M29,84H94V80H29Z"/><circle class="cls-5" cx="25" cy="84" r="10"/><circle class="cls-6" cx="25" cy="84" r="6"/><circle class="cls-7" cx="48" cy="84" r="10"/><circle class="cls-8" cx="48" cy="84" r="6"/><circle class="cls-9" cx="70" cy="84" r="10"/><circle class="cls-10" cx="70" cy="84" r="6"/><path class="cls-11" d="M30.91,85c-1.1-6.64-10.72-6.63-11.82,0a6,6,0,1,1,11.82,0Z"/><path class="cls-11" d="M53.91,85c-1.1-6.64-10.72-6.63-11.82,0a6,6,0,1,1,11.82,0Z"/><path class="cls-11" d="M75.91,85c-1.1-6.64-10.72-6.63-11.82,0a6,6,0,1,1,11.82,0Z"/><circle class="cls-12" cx="91" cy="89" r="5"/><path class="cls-13" d="M91,91a2,2,0,1,1,2-2A2,2,0,0,1,91,91Zm0-2Z"/><circle class="cls-14" cx="104" cy="89" r="5"/><path class="cls-15" d="M25,94a10,10,0,0,1-9.88-11.48,10,10,0,0,0,19.76,0A10,10,0,0,1,25,94Z"/><path class="cls-15" d="M48,94a10,10,0,0,1-9.88-11.48,10,10,0,0,0,19.76,0A10,10,0,0,1,48,94Z"/><path class="cls-15" d="M70,94a10,10,0,0,1-9.88-11.48,10,10,0,0,0,19.76,0A10,10,0,0,1,70,94Z"/><path class="cls-15" d="M91,94a5,5,0,0,1-4.9-6,5,5,0,0,0,9.8,0A5,5,0,0,1,91,94Z"/><path class="cls-15" d="M104,94a5,5,0,0,1-4.9-6,5,5,0,0,0,9.8,0A5,5,0,0,1,104,94Z"/><path class="cls-13" d="M104,91a2,2,0,1,1,2-2A2,2,0,0,1,104,91Zm0-2Z"/><rect class="cls-16" x="5" y="42" width="24" height="28"/><rect class="cls-17" x="17" y="42" width="12" height="28"/><rect class="cls-18" x="17" y="42" width="12" height="14"/><rect class="cls-19" x="46" y="50" width="12" height="10"/><rect class="cls-20" x="46" y="57" width="12" height="3"/><path class="cls-11" d="M59,51H45a1,1,0,0,1,0-2H59A1,1,0,0,1,59,51Z"/><path class="cls-21" d="M70,50h4a2,2,0,0,1,2,2v8a0,0,0,0,1,0,0H68a0,0,0,0,1,0,0V52A2,2,0,0,1,70,50Z"/><path class="cls-22" d="M84,50h4a2,2,0,0,1,2,2v8a0,0,0,0,1,0,0H82a0,0,0,0,1,0,0V52A2,2,0,0,1,84,50Z"/><rect class="cls-23" x="94" y="76" width="21" height="8"/><rect class="cls-3" x="94" y="80" width="21" height="4"/><path class="cls-24" d="M94,60h13a4,4,0,0,1,4,4v8a4,4,0,0,1-4,4H94a0,0,0,0,1,0,0V60A0,0,0,0,1,94,60Z"/><path class="cls-20" d="M111,69v3a4,4,0,0,1-4,4H94V73h13A4,4,0,0,0,111,69Z"/><path class="cls-25" d="M127,92H113V84l2-.13Z"/><rect class="cls-26" x="97" y="42" width="8" height="18"/><rect class="cls-20" x="97" y="57" width="8" height="3"/><polygon class="cls-27" points="105 42 97 42 95 38 97 34 105 34 107 38 105 42"/><rect class="cls-20" x="68" y="57" width="8" height="3"/><rect class="cls-20" x="82" y="57" width="8" height="3"/><rect class="cls-3" x="17" y="67" width="12" height="3"/><rect class="cls-20" x="5" y="67" width="12" height="3"/><rect class="cls-28" x="5" y="43" width="12" height="3"/><path class="cls-11" d="M33,43H2a1,1,0,0,1,0-2H33A1,1,0,0,1,33,43Z"/><polygon class="cls-20" points="127 92 113 92 113 89 122.58 89 127 92"/><path class="cls-29" d="M25,77a7,7,0,1,0,7,7A7,7,0,0,0,25,77Zm0,12a5,5,0,1,1,5-5A5,5,0,0,1,25,89Z"/><path class="cls-29" d="M48,77a7,7,0,1,0,7,7A7,7,0,0,0,48,77Zm0,12a5,5,0,1,1,5-5A5,5,0,0,1,48,89Z"/><path class="cls-29" d="M70,77a7,7,0,1,0,7,7A7,7,0,0,0,70,77Zm0,12a5,5,0,1,1,5-5A5,5,0,0,1,70,89Z"/><circle class="cls-29" cx="91" cy="89" r="2"/><circle class="cls-29" cx="104" cy="89" r="2"/><path class="cls-29" d="M127.56,91.17,116,83.32V76a1,1,0,0,0-1-1h-4c1.39-1.83,1-2.8,1-11a5,5,0,0,0-5-5h-1c0-18.49,0-17.11-.09-17.41,1.65-3.31,1.86-3.44,1.57-4-2.06-4.11-2.08-4.55-2.9-4.55-8.62,0-8.52-.2-8.89.55-2.16,4.32-2.3,4.3-2,4.9,2.14,4.29,2,4.14,2.31,4.36V59H91V52a3,3,0,0,0-3-3H84a3,3,0,0,0-3,3v7H77V52a3,3,0,0,0-3-3H70a3,3,0,0,0-3,3v7H59V51h1a1,1,0,0,0,0-2H44a1,1,0,0,0,0,2h1v8H30V43h4a1,1,0,0,0,0-2H1a1,1,0,0,0,0,2H4V69H1a1,1,0,0,0-1,1V84a1,1,0,0,0,1,1H14.05A11,11,0,0,0,36,85h1.1A11,11,0,0,0,59,85h.1A11,11,0,0,0,81,85h5.59a6,6,0,1,0,8.92,0h4.08a6,6,0,1,0,8.92,0H112v7a1,1,0,0,0,1,1h14A1,1,0,0,0,127.56,91.17ZM95,83V77h19v6Zm15-19v8a3,3,0,0,1-3,3H95V61h12A3,3,0,0,1,110,64ZM95.7,38l1.5-3H104l1.5,3L104,41H97.2ZM98,43h6V59H98ZM83,52a1,1,0,0,1,1-1h4a1,1,0,0,1,1,1v7H83ZM69,52a1,1,0,0,1,1-1h4a1,1,0,0,1,1,1v7H69ZM47,51H57v8H47ZM18,57H28V69H18ZM28,43V55H18V43ZM16,43V69H6V43ZM2,71H28v2.43A11,11,0,0,0,14.05,83H2ZM25,93a9,9,0,1,1,9-9A9,9,0,0,1,25,93ZM36,83a11,11,0,0,0-6-8.8V61H93v8H40a1,1,0,0,0,0,2H93V83H81a11,11,0,0,0-21.9,0H59a11,11,0,0,0-21.9,0ZM48,93a9,9,0,1,1,9-9A9,9,0,0,1,48,93Zm22,0a9,9,0,1,1,9-9A9,9,0,0,1,70,93Zm21,0a4,4,0,1,1,4-4A4,4,0,0,1,91,93Zm17-4a4,4,0,1,1-4-4A4,4,0,0,1,108,89Zm6,2V85c1.3,0-.31-.83,9.75,6Z"/></g></svg>