<svg xmlns="http://www.w3.org/2000/svg" xmlns:xlink="http://www.w3.org/1999/xlink" viewBox="0 0 128 128"><defs><style>.cls-1{fill:url(#linear-gradient);}.cls-2{fill:#dd4e6a;}.cls-3{fill:url(#linear-gradient-2);}.cls-4{fill:url(#linear-gradient-3);}.cls-5{fill:#3d465e;}.cls-6{fill:#adb3c4;}.cls-7{fill:#949aaf;}.cls-8{fill:url(#linear-gradient-4);}.cls-9{fill:url(#linear-gradient-5);}.cls-10{fill:#77cacb;}.cls-11{fill:url(#linear-gradient-6);}.cls-12{fill:url(#linear-gradient-7);}.cls-13{fill:#fbcc88;}.cls-14{fill:#f6b756;}.cls-15{fill:#47566a;}</style><linearGradient id="linear-gradient" x1="64" y1="92" x2="64" y2="31" gradientUnits="userSpaceOnUse"><stop offset="0" stop-color="#da5466"/><stop offset="0.02" stop-color="#db576a"/><stop offset="0.11" stop-color="#e1627c"/><stop offset="0.21" stop-color="#e56a89"/><stop offset="0.36" stop-color="#e76f90"/><stop offset="0.68" stop-color="#e87092"/></linearGradient><linearGradient id="linear-gradient-2" x1="31" y1="97" x2="31" y2="81" gradientUnits="userSpaceOnUse"><stop offset="0" stop-color="#464f6b"/><stop offset="1" stop-color="#575f7c"/></linearGradient><linearGradient id="linear-gradient-3" x1="113" x2="113" xlink:href="#linear-gradient-2"/><linearGradient id="linear-gradient-4" x1="8" y1="91" x2="8" y2="59" xlink:href="#linear-gradient-2"/><linearGradient id="linear-gradient-5" x1="63.5" y1="73" x2="63.5" y2="59" gradientUnits="userSpaceOnUse"><stop offset="0" stop-color="#9dd5df"/><stop offset="1" stop-color="#c3e1f5"/></linearGradient><linearGradient id="linear-gradient-6" x1="118" x2="118" xlink:href="#linear-gradient-5"/><linearGradient id="linear-gradient-7" x1="63.99" y1="47" x2="63.99" y2="31" xlink:href="#linear-gradient-5"/></defs><title>London Bus</title><g id="London_Bus" data-name="London Bus"><path class="cls-1" d="M127,46.24V59h-4V73.44l4,4.12V92h-6c-21.36-1.33,1-1-120-1C1,41.11,1,43.1,1,43A12.18,12.18,0,0,1,13.19,31H119.68a6,6,0,0,1,4.5,2C125.93,34.91,125.67,36,127,46.24Z"/><path class="cls-2" d="M121,89h6v3c-8,0-2.81.2-22-1H1V88C121.8,88,99.66,87.67,121,89Z"/><circle class="cls-3" cx="31" cy="89" r="8"/><circle class="cls-4" cx="113" cy="89" r="8"/><path class="cls-5" d="M31,97a8,8,0,0,1-7.86-9.5,8,8,0,0,0,15.72,0A8,8,0,0,1,31,97Z"/><path class="cls-5" d="M113,97a8,8,0,0,1-7.86-9.5,8,8,0,0,0,15.72,0A8,8,0,0,1,113,97Z"/><circle class="cls-6" cx="31" cy="89" r="3"/><circle class="cls-6" cx="113" cy="89" r="3"/><path class="cls-7" d="M33.82,90a3,3,0,0,0-5.64,0,3,3,0,1,1,5.64,0Z"/><path class="cls-7" d="M115.82,90a3,3,0,0,0-5.64,0,3,3,0,1,1,5.64,0Z"/><rect class="cls-8" x="1" y="59" width="14" height="32"/><rect class="cls-5" x="1" y="88" width="14" height="3"/><rect class="cls-9" x="23" y="59" width="81" height="14"/><rect class="cls-10" x="23" y="70" width="81" height="3"/><rect class="cls-11" x="113" y="59" width="10" height="14"/><rect class="cls-10" x="113" y="70" width="10" height="3"/><path class="cls-12" d="M127,46.24V47H1C1,42.66.4,37,6.5,33A11.09,11.09,0,0,1,13,31H119c4,0,5.18,2,5.18,2C125.93,34.91,125.67,36,127,46.24Z"/><path class="cls-10" d="M127,47H1V43H126.58C127.07,46.77,127,46,127,47Z"/><path class="cls-13" d="M127,85h-1.5a2.5,2.5,0,0,1,0-5H127Z"/><path class="cls-14" d="M127,83v2h-1.5a2.5,2.5,0,0,1-2.29-3.5C124,83.23,125.62,83,127,83Z"/><rect class="cls-2" x="1" y="55" width="126" height="4"/><path class="cls-15" d="M31,85a4,4,0,1,0,4,4A4,4,0,0,0,31,85Zm0,6a2,2,0,1,1,2-2A2,2,0,0,1,31,91Z"/><path class="cls-15" d="M113,85a4,4,0,1,0,4,4A4,4,0,0,0,113,85Zm0,6a2,2,0,1,1,2-2A2,2,0,0,1,113,91Z"/><path class="cls-15" d="M126.71,36.09a7.14,7.14,0,0,0-7-6.09H13.19A13.21,13.21,0,0,0,0,43.19V91a1,1,0,0,0,1,1H22.53a9,9,0,0,0,17-.14c.39.22-4.25.14,65,.14a9,9,0,0,0,16.52,1h6a1,1,0,0,0,1-1V77.56c0-.54.09-.31-4-4.53V60h3a1,1,0,0,0,1-1C128,42.85,128.34,48.8,126.71,36.09Zm-2,.27L126,46H108V32h11.68A5.11,5.11,0,0,1,124.72,36.36ZM89,46V32h17V46ZM71,46V32H87V46ZM53,46V32H69V46ZM35,46V32H51V46ZM18,46V32H33V46ZM13.19,32H16V46H2V43.19A11.2,11.2,0,0,1,13.19,32ZM2,90V60H14V90Zm29,6a7,7,0,1,1,7-7A7,7,0,0,1,31,96Zm82,0a7,7,0,1,1,7-7A7,7,0,0,1,113,96Zm13-12h-.5a1.5,1.5,0,0,1,0-3h.5Zm0-6v1h-.5a3.5,3.5,0,0,0,0,7h.5v5h-4.23a9,9,0,1,0-17.71-1c-69.58,0-63.78,0-64.12,0a9,9,0,1,0-17.88,0H16V60h6V73a1,1,0,0,0,1,1h81a1,1,0,0,0,1-1V60h7V73a1,1,0,0,0,1,1c10.34,0,9.1-.06,9.28.13ZM55,60V72H41V60Zm16,0V72H57V60Zm16,0V72H73V60Zm16,0V72H89V60ZM39,72H24V60H39Zm83,0h-8V60h8ZM2,58V48H126V58Z"/></g></svg>