<svg xmlns="http://www.w3.org/2000/svg" xmlns:xlink="http://www.w3.org/1999/xlink" viewBox="0 0 128 128"><defs><style>.cls-1{fill:url(#linear-gradient);}.cls-2{fill:#c7cdd8;}.cls-3{fill:url(#linear-gradient-2);}.cls-4{fill:url(#linear-gradient-3);}.cls-5{fill:#3d465e;}.cls-6{fill:#adb3c4;}.cls-7{fill:#949aaf;}.cls-8{fill:url(#linear-gradient-4);}.cls-9{fill:url(#linear-gradient-5);}.cls-10{fill:#77cacb;}.cls-11{fill:#e2607f;}.cls-12{fill:#dd4e6a;}.cls-13{fill:#fbcc88;}.cls-14{fill:#f6b756;}.cls-15{fill:#47566a;}</style><linearGradient id="linear-gradient" x1="63.99" y1="94" x2="63.99" y2="27" gradientUnits="userSpaceOnUse"><stop offset="0" stop-color="#d4d8e1"/><stop offset="1" stop-color="#f3f4f5"/></linearGradient><linearGradient id="linear-gradient-2" x1="21" y1="101" x2="21" y2="81" gradientUnits="userSpaceOnUse"><stop offset="0" stop-color="#464f6b"/><stop offset="1" stop-color="#575f7c"/></linearGradient><linearGradient id="linear-gradient-3" x1="107" x2="107" xlink:href="#linear-gradient-2"/><linearGradient id="linear-gradient-4" x1="31.48" y1="60" x2="31.48" y2="42" gradientUnits="userSpaceOnUse"><stop offset="0" stop-color="#fbcc88"/><stop offset="1" stop-color="#ffe5c3"/></linearGradient><linearGradient id="linear-gradient-5" x1="82.23" y1="66" x2="82.23" y2="38" gradientUnits="userSpaceOnUse"><stop offset="0" stop-color="#9dd5df"/><stop offset="1" stop-color="#c3e1f5"/></linearGradient></defs><title>Mail Truck</title><g id="Mail_Truck" data-name="Mail Truck"><path class="cls-1" d="M127,81.82V94H11.16L1,89.94c0-20.46-.37-7.69,1.87-59A4.07,4.07,0,0,1,6.93,27H75.8a10,10,0,0,1,8.6,4.87c2.78,4.63,18.2,29.63,18.21,29.65C114.35,66.84,124.51,69.37,127,81.82Z"/><polygon class="cls-2" points="127 91 127 94 11.16 94 1 89.94 1 86.94 11.16 91 127 91"/><circle class="cls-3" cx="21" cy="91" r="10"/><circle class="cls-4" cx="107" cy="91" r="10"/><path class="cls-5" d="M21,101a10,10,0,0,1-9.88-11.48,10,10,0,0,0,19.76,0A10,10,0,0,1,21,101Z"/><path class="cls-5" d="M107,101a10,10,0,0,1-9.88-11.48,10,10,0,0,0,19.76,0A10,10,0,0,1,107,101Z"/><circle class="cls-6" cx="21" cy="91" r="4"/><circle class="cls-6" cx="107" cy="91" r="4"/><path class="cls-7" d="M24.87,92a4,4,0,0,0-7.74,0,4,4,0,1,1,7.74,0Z"/><path class="cls-7" d="M110.87,92a4,4,0,0,0-7.74,0,4,4,0,1,1,7.74,0Z"/><path class="cls-8" d="M45.48,42c-.64,2.81-2.32,10.48-4,18h-24c.54-2.43,3.67-16.45,4-18Z"/><path class="cls-9" d="M102.45,61.25,92,66H68l-6-4V42.06A4.08,4.08,0,0,1,66.06,38H88C91,42.54,88.23,38.17,102.45,61.25Z"/><polygon class="cls-10" points="102.45 61.25 92 66 68 66 62 62 62 59 68 63 92 63 101.01 58.91 102.45 61.25"/><rect class="cls-11" x="1" y="74" width="4" height="8"/><rect class="cls-12" x="1" y="79" width="4" height="3"/><path class="cls-13" d="M127,81.82c0,.25.59.18-4,.18-3.38,0-5-3.92-3.41-5.41.77-.79,1.36-.59,5.26-.59A20.29,20.29,0,0,1,127,81.82Z"/><path class="cls-14" d="M127,81.82c0,.25.59.18-4,.18-3,0-4.61-3.16-3.82-4.81A4,4,0,0,0,123,80h3.54A16.16,16.16,0,0,1,127,81.82Z"/><polygon class="cls-14" points="42.15 57 41.48 60 17.48 60 18.15 57 42.15 57"/><path class="cls-15" d="M21,86a5,5,0,1,0,5,5A5,5,0,0,0,21,86Zm0,8a3,3,0,1,1,3-3A3,3,0,0,1,21,94Z"/><path class="cls-15" d="M107,86a5,5,0,1,0,5,5A5,5,0,0,0,107,86Zm0,8a3,3,0,1,1,3-3A3,3,0,0,1,107,94Z"/><path class="cls-15" d="M17.48,61h24a1,1,0,0,0,1-.78c4.29-19.31,4.24-18.3,3.8-18.85S47.71,41,21.48,41a1,1,0,0,0-1,.78l-4,18A1,1,0,0,0,17.48,61ZM41.92,43,31.6,50.49,24.36,43Zm-19.77.6c9.32,9.63,8.73,9.21,9.33,9.21S31,53.42,44,43.94L40.68,59H18.73Z"/><path class="cls-15" d="M68,75H64a1,1,0,0,0,0,2h4A1,1,0,0,0,68,75Z"/><path class="cls-15" d="M58,67H9a1,1,0,0,0,0,2H58A1,1,0,0,0,58,67Z"/><path class="cls-15" d="M128,81.62a21.26,21.26,0,0,0-12-15.15L103.3,60.74c-18.5-30-15.33-24.86-18-29.38A11.08,11.08,0,0,0,75.8,26H6.93a5.1,5.1,0,0,0-5.06,4.86C-.37,82.23,0,68.29,0,89.94c0,.93-.27.57,10.73,5a11,11,0,0,0,20.51.1H96.76a11,11,0,0,0,20.48,0H127a1,1,0,0,0,1-1C128,81.31,128,81.79,128,81.62ZM124.23,77a16.08,16.08,0,0,1,1.53,4H123c-3,0-3.92-4-2-4ZM87.57,39l13.68,22.22-8.74,3.5L80.57,39Zm2.86,26H68.3L63,61.46V42.06A3.06,3.06,0,0,1,66.06,39h12.3ZM2,75H4v6H2Zm19,25a9,9,0,1,1,9-9A9,9,0,0,1,21,100Zm86,0a9,9,0,1,1,9-9A9,9,0,0,1,107,100Zm19-7h-8.19a11,11,0,1,0-21.62,0H31.81a11,11,0,1,0-21.69-.49L2,89.26V83H5a1,1,0,0,0,1-1V74a1,1,0,0,0-1-1H2L3.87,30.94A3.08,3.08,0,0,1,6.93,28H75.8a9.08,9.08,0,0,1,7.74,4.38c2.35,3.92,1.74,2.91,2.79,4.62H66.06A5.07,5.07,0,0,0,61,42.06V62c0,.73-.12.46,6.45,4.83.36.25,24.51.26,24.92.1,11-4.39,10.13-4,10.36-4.26,12.89,5.85,16.63,6.75,20.35,12.33H121a3,3,0,0,0-3,3,5,5,0,0,0,5,5h3Z"/></g></svg>