<svg xmlns="http://www.w3.org/2000/svg" xmlns:xlink="http://www.w3.org/1999/xlink" viewBox="0 0 128 128"><defs><style>.cls-1{fill:#8288a1;}.cls-2{fill:url(#linear-gradient);}.cls-3{fill:url(#linear-gradient-2);}.cls-4{fill:#3d465e;}.cls-5{fill:url(#linear-gradient-3);}.cls-6{fill:url(#linear-gradient-4);}.cls-7{fill:url(#linear-gradient-5);}.cls-8{fill:#5b8dc9;}.cls-9{fill:url(#linear-gradient-6);}.cls-10{fill:#8a6762;}.cls-11{fill:url(#linear-gradient-7);}.cls-12{fill:url(#linear-gradient-8);}.cls-13{fill:url(#linear-gradient-9);}.cls-14{fill:#464f6b;}.cls-15{fill:#47566a;}</style><linearGradient id="linear-gradient" x1="69.5" y1="78" x2="69.5" y2="50" gradientUnits="userSpaceOnUse"><stop offset="0" stop-color="#949aaf"/><stop offset="1" stop-color="#c6ccda"/></linearGradient><linearGradient id="linear-gradient-2" x1="109" y1="96" x2="109" y2="60" gradientUnits="userSpaceOnUse"><stop offset="0" stop-color="#464f6b"/><stop offset="1" stop-color="#575f7c"/></linearGradient><linearGradient id="linear-gradient-3" x1="19" x2="19" xlink:href="#linear-gradient-2"/><linearGradient id="linear-gradient-4" x1="101" y1="50" x2="101" y2="38" xlink:href="#linear-gradient"/><linearGradient id="linear-gradient-5" x1="70.5" y1="56" x2="70.5" y2="40" gradientUnits="userSpaceOnUse"><stop offset="0" stop-color="#7aa8d7"/><stop offset="1" stop-color="#96c8ea"/></linearGradient><linearGradient id="linear-gradient-6" x1="31.6" y1="56.04" x2="31.6" y2="46" gradientUnits="userSpaceOnUse"><stop offset="0" stop-color="#9b756d"/><stop offset="1" stop-color="#bc9388"/></linearGradient><linearGradient id="linear-gradient-7" x1="69" x2="69" y2="62" xlink:href="#linear-gradient"/><linearGradient id="linear-gradient-8" x1="53.84" y1="64" x2="53.84" y2="56" xlink:href="#linear-gradient"/><linearGradient id="linear-gradient-9" x1="34" x2="34" y2="69.99" xlink:href="#linear-gradient"/></defs><title>Motorcycle </title><g id="Motorcycle"><polygon class="cls-1" points="93 44 88 44 88 54 98 54 93 44"/><path class="cls-2" d="M89,50V63.77C78.14,77.63,80.18,75,77.84,78H50V56Z"/><polygon class="cls-1" points="89 60.77 89 63.77 77.84 78 50 78 50 75 77.84 75 89 60.77"/><path class="cls-3" d="M109,60a18,18,0,1,0,18,18A18,18,0,0,0,109,60Zm0,28a10,10,0,1,1,10-10A10,10,0,0,1,109,88Z"/><path class="cls-4" d="M126.94,76.5a18,18,0,0,1-35.88,0,18,18,0,1,0,35.88,0Z"/><path class="cls-5" d="M19,60A18,18,0,1,0,37,78,18,18,0,0,0,19,60Zm0,28A10,10,0,1,1,29,78,10,10,0,0,1,19,88Z"/><path class="cls-4" d="M36.94,76.5a18,18,0,0,1-35.88,0,18,18,0,1,0,35.88,0Z"/><path class="cls-6" d="M98,38h9a0,0,0,0,1,0,0V50a0,0,0,0,1,0,0H98a3,3,0,0,1-3-3V41A3,3,0,0,1,98,38Z"/><path class="cls-1" d="M107,47v3H98a3,3,0,0,1-3-3V44a3,3,0,0,0,3,3Z"/><path class="cls-7" d="M84.94,56H52V48c8.52-4.74,12.91-8,20.71-8H82.9A6.1,6.1,0,0,1,89,46.1v5.84A4.06,4.06,0,0,1,84.94,56Z"/><path class="cls-8" d="M89,48.94v3A4.06,4.06,0,0,1,84.94,56H52V53H84.94A4.06,4.06,0,0,0,89,48.94Z"/><path class="cls-9" d="M32,47a9.41,9.41,0,0,0-4.24-1H15.19a4,4,0,1,0,0,8c11,0,12.16-.32,14.81,1s2.8,1,22,1V48C35,48,34.65,48.32,32,47Z"/><path class="cls-10" d="M52,53v3H34.24c-3.94,0-4.54-2-8.48-2-11.13,0-11.84.39-13.4-1.17a4,4,0,0,1-.88-4.33A4,4,0,0,0,15.19,51c11,0,12.17-.32,14.81,1S32.8,53,52,53Z"/><path class="cls-1" d="M80,66.57c0,10,.37,8.21-2.16,11.43H59.7C57.52,75.55,58,73.24,58,66.57A6.31,6.31,0,0,1,64,60H74A6.31,6.31,0,0,1,80,66.57Z"/><path class="cls-11" d="M74,78H64a4.32,4.32,0,0,1-4-4.57V66.57A4.32,4.32,0,0,1,64,62H74a4.32,4.32,0,0,1,4,4.57v6.86A4.32,4.32,0,0,1,74,78Z"/><path class="cls-1" d="M78,70.43v3A4.32,4.32,0,0,1,74,78H64a4.32,4.32,0,0,1-4-4.57v-3A4.32,4.32,0,0,0,64,75H74A4.32,4.32,0,0,0,78,70.43Z"/><polygon class="cls-12" points="57.84 64 49.84 64 43.84 56 63.84 56 57.84 64"/><polygon class="cls-1" points="63.84 56 57.84 64 49.84 64 43.84 56 49.84 61 57.84 61 63.84 56"/><path class="cls-13" d="M50,70c-10.08,0-8.84,0-9.35.1L18,78H50Z"/><polygon class="cls-1" points="50 75 50 78 19 78 27.6 75 50 75"/><circle class="cls-14" cx="18" cy="78" r="2"/><path class="cls-15" d="M102.16,60.29,98,51h9a1,1,0,0,0,1-1V38a1,1,0,0,0-1-1H98a4,4,0,0,0-4,4v1.08C89,31,89.3,31,88.39,31H80a1,1,0,0,0,0,2h7.74l4.48,10H89.28a7.1,7.1,0,0,0-6.38-4c-17.64,0-15.33-.8-31.16,8-16.72,0-16.91.3-19.29-.89C29.56,44.66,28.73,45,15.19,45a5,5,0,0,0,0,10c11.11,0,12-.29,14.36.89,2.59,1.3,4.53,1.11,7.31,1.11l3.56,12.46-3.84,1.35A19,19,0,1,0,38,79H77.84c.69,0-.19.86,12-14.61.3-.39.21.08.21-9.39h7.6l2.74,6.11a19,19,0,1,0,1.82-.82ZM96,41a2,2,0,0,1,2-2h8V49c-8.87,0-8.38.1-9-.3l-1-2.15ZM82.9,41A5.11,5.11,0,0,1,88,46.1v5.84A3.06,3.06,0,0,1,84.94,55H53V48.59C67.73,40.4,65.19,41,82.9,41Zm-58,36c18.6-6.49,17-5.91,17.14-6h7v6Zm-6.45.18A1,1,0,0,0,19,79h8.94A9,9,0,0,1,10,78c0-9.48,13-12.54,17.11-3.89C17.74,77.38,18.69,77,18.45,77.18ZM45.84,57h16l-4.5,6h-7ZM30.45,54.11c-3-1.49-4.67-1.11-15.26-1.11a3,3,0,1,1,0-6c13.41,0,14-.29,16.36.89C34.42,49.33,35.14,49,51,49v6H38.07a1,1,0,0,0-.76-.09c-.4.11.68.09-3.07.09A8.58,8.58,0,0,1,30.45,54.11ZM43.34,57,49,64.55V69H42.37L38.94,57ZM19,95A17,17,0,1,1,34.69,71.47l-5.68,2A11,11,0,1,0,30,79h6A17,17,0,0,1,19,95ZM51,65h8.21c-.3,1.11-.21,1.26-.21,8.43A5.92,5.92,0,0,0,60.17,77H51ZM64,77a3.33,3.33,0,0,1-3-3.57V66.57A3.33,3.33,0,0,1,64,63H74a3.33,3.33,0,0,1,3,3.57v6.86A3.33,3.33,0,0,1,74,77Zm14.72-1.74c.37-1.2.28-1.27.28-8.69A5.31,5.31,0,0,0,74,61H64a4.8,4.8,0,0,0-3.83,2c-.47,0-1,.91,4.17-6,22.47,0,21.8.37,23.66-1.06v7.49ZM90,53V45a21.53,21.53,0,0,0,3.11,0A13.83,13.83,0,0,1,94,47a4,4,0,0,0,1.34,3l1.36,3Zm19,42a17,17,0,0,1-7.85-32.07l2.46,5.49C93.73,74,97.79,89,109,89a11,11,0,1,0-3.56-21.4L103,62.12A17,17,0,1,1,109,95Zm.91-17.41-3.65-8.16A9,9,0,1,1,109,87c-9.12,0-12.44-12.08-4.56-16.74,4,8.92,3.69,8.74,4.56,8.74A1,1,0,0,0,109.91,77.59Z"/></g></svg>