<svg xmlns="http://www.w3.org/2000/svg" xmlns:xlink="http://www.w3.org/1999/xlink" viewBox="0 0 128 128"><defs><style>.cls-1{fill:url(#linear-gradient);}.cls-2{fill:#5b8dc9;}.cls-3{fill:url(#linear-gradient-2);}.cls-4{fill:url(#linear-gradient-3);}.cls-5{fill:url(#linear-gradient-4);}.cls-6{fill:url(#linear-gradient-5);}.cls-7{fill:url(#linear-gradient-6);}.cls-8{fill:url(#linear-gradient-7);}.cls-9{fill:#f6b756;}.cls-10{fill:#464f6b;}.cls-11{fill:#3d465e;}.cls-12{fill:url(#linear-gradient-8);}.cls-13{fill:#949aaf;}.cls-14{fill:url(#linear-gradient-9);}.cls-15{fill:#77cacb;}.cls-16{fill:url(#linear-gradient-10);}.cls-17{fill:url(#linear-gradient-11);}.cls-18{fill:url(#linear-gradient-12);}.cls-19{fill:#8288a1;}.cls-20{fill:#47566a;}</style><linearGradient id="linear-gradient" x1="17.5" y1="34" x2="17.5" y2="1" gradientUnits="userSpaceOnUse"><stop offset="0" stop-color="#7aa8d7"/><stop offset="1" stop-color="#96c8ea"/></linearGradient><linearGradient id="linear-gradient-2" x1="78" y1="115.06" x2="78" y2="75.94" xlink:href="#linear-gradient"/><linearGradient id="linear-gradient-3" x1="78.02" y1="78.06" x2="78.02" y2="50" xlink:href="#linear-gradient"/><linearGradient id="linear-gradient-4" x1="39.34" y1="76.01" x2="39.34" y2="75.94" xlink:href="#linear-gradient"/><linearGradient id="linear-gradient-5" x1="116.67" y1="76.01" x2="116.67" y2="75.94" xlink:href="#linear-gradient"/><linearGradient id="linear-gradient-6" x1="46" y1="105" x2="46" y2="93" gradientUnits="userSpaceOnUse"><stop offset="0" stop-color="#fbcc88"/><stop offset="1" stop-color="#ffe5c3"/></linearGradient><linearGradient id="linear-gradient-7" x1="111" x2="111" xlink:href="#linear-gradient-6"/><linearGradient id="linear-gradient-8" x1="78.23" y1="107" x2="78.23" y2="97" gradientUnits="userSpaceOnUse"><stop offset="0" stop-color="#949aaf"/><stop offset="1" stop-color="#c6ccda"/></linearGradient><linearGradient id="linear-gradient-9" x1="78" y1="78.06" x2="78" y2="57.94" gradientUnits="userSpaceOnUse"><stop offset="0" stop-color="#9dd5df"/><stop offset="1" stop-color="#c3e1f5"/></linearGradient><linearGradient id="linear-gradient-10" x1="34" y1="76" x2="34" y2="68" gradientTransform="translate(68 144) rotate(-180)" xlink:href="#linear-gradient"/><linearGradient id="linear-gradient-11" x1="122" y1="76" x2="122" y2="68" xlink:href="#linear-gradient"/><linearGradient id="linear-gradient-12" x1="17" y1="127" x2="17" y2="103" xlink:href="#linear-gradient-8"/></defs><title>Parking Car </title><g id="Parking_Car" data-name="Parking Car"><rect class="cls-1" x="1" y="1" width="33" height="33" rx="2"/><path class="cls-2" d="M34,28v4a2,2,0,0,1-2,2H3a2,2,0,0,1-2-2V28a2,2,0,0,0,2,2H32A2,2,0,0,0,34,28Z"/><path class="cls-3" d="M127,92.79v16.53a4.06,4.06,0,0,1-3.61,4c-19.68,2.2-4.81,1.65-76,1.65l-14.76-1.65a4.06,4.06,0,0,1-3.61-4V92.79a15,15,0,0,1,4-10.15l6.21-6.7A104.29,104.29,0,0,0,59.83,78c37.38,0,43.52.61,56.64-2,.51-.09-.42-.86,6.53,6.64A15,15,0,0,1,127,92.79Z"/><path class="cls-2" d="M127,105.32v4a4.06,4.06,0,0,1-3.61,4c-19.68,2.2-4.81,1.65-76,1.65l-14.76-1.65a4.06,4.06,0,0,1-3.61-4v-4a4.06,4.06,0,0,0,3.61,4c19.68,2.2,4.82,1.65,76,1.65l14.77-1.65A4.06,4.06,0,0,0,127,105.32Z"/><path class="cls-4" d="M117,76c-2.18,0-8.29,2-20.83,2-37.38,0-43.52.61-56.64-2-.37-.07-.28-.1-.38,0S38.29,77.49,48,57.08A12.31,12.31,0,0,1,59.15,50H96.68a12.3,12.3,0,0,1,11.16,7.08Z"/><path class="cls-5" d="M39.53,76c-.44,0-.42,0-.32-.06Z"/><path class="cls-6" d="M116.85,76c-.29,0-.63,0-.06-.06Z"/><circle class="cls-7" cx="46" cy="99" r="6"/><circle class="cls-8" cx="111" cy="99" r="6"/><path class="cls-9" d="M46,105a6,6,0,0,1-5.8-7.5,6,6,0,0,0,11.61,0A6,6,0,0,1,46,105Z"/><path class="cls-9" d="M111,105a6,6,0,0,1-5.8-7.5,6,6,0,0,0,11.61,0A6,6,0,0,1,111,105Z"/><path class="cls-10" d="M50,115v7.94A4.08,4.08,0,0,1,45.94,127H38.06A4.08,4.08,0,0,1,34,122.94v-9.43Z"/><path class="cls-10" d="M123,113.39v9.55a4.08,4.08,0,0,1-4.06,4.06h-7.88a4.08,4.08,0,0,1-4.06-4.06V115Z"/><path class="cls-11" d="M50,119.94v3A4.08,4.08,0,0,1,45.94,127H38.06A4.08,4.08,0,0,1,34,122.94v-3A4.08,4.08,0,0,0,38.06,124h7.88A4.08,4.08,0,0,0,50,119.94Z"/><path class="cls-11" d="M123,119.94v3a4.08,4.08,0,0,1-4.06,4.06h-7.88a4.08,4.08,0,0,1-4.06-4.06v-3a4.08,4.08,0,0,0,4.06,4.06h7.88A4.08,4.08,0,0,0,123,119.94Z"/><polygon class="cls-12" points="94.23 107 62.23 107 66.23 97 90.23 97 94.23 107"/><polygon class="cls-13" points="94.23 107 62.23 107 63.43 104 93.03 104 94.23 107"/><path class="cls-14" d="M117,76c-1.74,0-8.63,2-20.83,2-37.38,0-43.52.61-56.64-2H39l7.83-16.48A12.72,12.72,0,0,1,52.92,58c55.85,0,50.87-.52,56,1.41C109,59.43,108.56,58.57,117,76Z"/><path class="cls-15" d="M117,76c-1.74,0-8.63,2-20.83,2-37.38,0-43.52.61-56.64-2H39l1.35-2.85C53,75.57,58.78,75,96.17,75a103.18,103.18,0,0,0,19.45-1.84Z"/><path class="cls-16" d="M29,68h7.5A2.5,2.5,0,0,1,39,70.5v3A2.5,2.5,0,0,1,36.5,76h-5A2.5,2.5,0,0,1,29,73.5V68a0,0,0,0,1,0,0Z" transform="translate(68 144) rotate(180)"/><path class="cls-17" d="M119.5,68h5a2.5,2.5,0,0,1,2.5,2.5v3a2.5,2.5,0,0,1-2.5,2.5H117a0,0,0,0,1,0,0V70.5A2.5,2.5,0,0,1,119.5,68Z"/><path class="cls-2" d="M39,73v3H31.5A2.5,2.5,0,0,1,29,73.5v-3A2.5,2.5,0,0,0,31.5,73Z"/><path class="cls-2" d="M127,70.5v3a2.5,2.5,0,0,1-2.5,2.5H117V73h7.5A2.5,2.5,0,0,0,127,70.5Z"/><rect class="cls-18" x="13" y="103" width="8" height="24"/><rect class="cls-19" x="13" y="123" width="8" height="4"/><path class="cls-20" d="M19,18a3,3,0,0,0,3-3V11a3,3,0,0,0-3-3H13a1,1,0,0,0-1,1V25a1,1,0,0,0,2,0V18Zm1-7v4a1,1,0,0,1-1,1H14V10h5A1,1,0,0,1,20,11Z"/><path class="cls-20" d="M46,92a7,7,0,1,0,7,7A7,7,0,0,0,46,92Zm0,12a5,5,0,1,1,5-5A5,5,0,0,1,46,104Z"/><path class="cls-20" d="M111,92a7,7,0,1,0,7,7A7,7,0,0,0,111,92Zm0,12a5,5,0,1,1,5-5A5,5,0,0,1,111,104Z"/><path class="cls-20" d="M91.15,96.63c-.36-.9,1-.63-24.92-.63-.93,0-.56-.32-4.93,10.63a1,1,0,0,0,.93,1.37c34.73,0,32.39.19,32.82-.44S95.42,107.29,91.15,96.63ZM63.7,106l3.2-8H89.55l3.2,8Z"/><path class="cls-20" d="M128,73.5v-3a3.5,3.5,0,0,0-3.5-3.5h-5a3.5,3.5,0,0,0-3.5,3.5v1.14l-7.25-15A13.34,13.34,0,0,0,96.68,49H59.15a13.34,13.34,0,0,0-12.06,7.65L40,71.57V70.5A3.5,3.5,0,0,0,36.5,67h-5A3.5,3.5,0,0,0,28,70.5v3A3.5,3.5,0,0,0,31.5,77h5.37C26.52,88.16,28,85.79,28,109.32c0,2.46,1.64,4.7,5,5.08v8.54A5.07,5.07,0,0,0,38.06,128h7.88A5.07,5.07,0,0,0,51,122.94V116h55v6.94a5.07,5.07,0,0,0,5.06,5.06h7.88a5.07,5.07,0,0,0,5.06-5.06v-8.7a5,5,0,0,0,4-4.92C128,85.73,129.37,88,119.13,77h5.37A3.5,3.5,0,0,0,128,73.5Zm-10-3a1.5,1.5,0,0,1,1.5-1.5h5a1.5,1.5,0,0,1,1.5,1.5v3a1.5,1.5,0,0,1-1.5,1.5H118ZM47.58,60.29c3.58-1.84,2-1.29,55.5-1.29a11.68,11.68,0,0,1,5.16,1.2l7.25,15C102.9,77.57,97.41,77,59.83,77A103.66,103.66,0,0,1,40.5,75.17ZM59.15,51H96.68a11.32,11.32,0,0,1,10.26,6.52,22.37,22.37,0,0,0-3.86-.52c-54.32,0-51.31-.26-54.24.64A11.33,11.33,0,0,1,59.15,51ZM30,73.5v-3A1.5,1.5,0,0,1,31.5,69h5A1.5,1.5,0,0,1,38,70.5V75H31.5A1.5,1.5,0,0,1,30,73.5Zm19,49.44A3.06,3.06,0,0,1,45.94,126H38.06A3.06,3.06,0,0,1,35,122.94v-8.32C49.14,116.2,46.75,116,49,116ZM118.94,126h-7.88a3.06,3.06,0,0,1-3.06-3.06V116c1,0-1.29.22,14-1.49v8.43A3.06,3.06,0,0,1,118.94,126ZM126,109.32a3.05,3.05,0,0,1-2.72,3c-19.61,2.2-4.76,1.65-75.85,1.65l-14.71-1.65a3.05,3.05,0,0,1-2.72-3c0-24-1.6-20.25,9.56-32.29,13.54,2.66,21.35,2,56.61,2a105.27,105.27,0,0,0,20.27-2C127.47,88.93,126,85.25,126,109.32Z"/><path class="cls-20" d="M21,102H18V35H32a3,3,0,0,0,3-3V3a3,3,0,0,0-3-3H3A3,3,0,0,0,0,3V32a3,3,0,0,0,3,3H16v67H13a1,1,0,0,0-1,1v24a1,1,0,0,0,1,1h8a1,1,0,0,0,1-1V103A1,1,0,0,0,21,102ZM2,32V3A1,1,0,0,1,3,2H32a1,1,0,0,1,1,1V32a1,1,0,0,1-1,1H3A1,1,0,0,1,2,32Zm18,94H14V104h6Z"/></g></svg>