<svg xmlns="http://www.w3.org/2000/svg" xmlns:xlink="http://www.w3.org/1999/xlink" viewBox="0 0 128 128"><defs><style>.cls-1{fill:url(#linear-gradient);}.cls-2{fill:url(#linear-gradient-2);}.cls-3{fill:#c7cdd8;}.cls-4{fill:#8288a1;}.cls-5{fill:url(#linear-gradient-3);}.cls-6{fill:#5b8dc9;}.cls-7{fill:url(#linear-gradient-4);}.cls-8{fill:url(#linear-gradient-5);}.cls-9{fill:#949aaf;}.cls-10{fill:#47566a;}</style><linearGradient id="linear-gradient" x1="64" y1="51.38" x2="64" y2="1" gradientUnits="userSpaceOnUse"><stop offset="0" stop-color="#949aaf"/><stop offset="1" stop-color="#c6ccda"/></linearGradient><linearGradient id="linear-gradient-2" x1="64" y1="31" x2="64" y2="9" gradientUnits="userSpaceOnUse"><stop offset="0" stop-color="#d4d8e1"/><stop offset="1" stop-color="#f3f4f5"/></linearGradient><linearGradient id="linear-gradient-3" x1="64" y1="86" x2="64" y2="31" gradientUnits="userSpaceOnUse"><stop offset="0" stop-color="#7aa8d7"/><stop offset="1" stop-color="#96c8ea"/></linearGradient><linearGradient id="linear-gradient-4" x1="64" y1="127" x2="64" y2="94" xlink:href="#linear-gradient"/><linearGradient id="linear-gradient-5" x1="64" y1="94" x2="64" y2="86" xlink:href="#linear-gradient"/></defs><title>Parking Meter</title><g id="Parking_Meter" data-name="Parking Meter"><path class="cls-1" d="M86,51.38C103.65,32.38,90.22,1,64,1S24.36,32.39,42,51.38Z"/><path class="cls-2" d="M42,31a22,22,0,0,1,44,0Z"/><rect class="cls-3" x="42" y="28" width="44" height="3"/><path class="cls-4" d="M86,51.38H42a29.79,29.79,0,0,1-7.91-22.59A19.69,19.69,0,0,0,53.84,47H74.16A19.69,19.69,0,0,0,93.89,29,29.44,29.44,0,0,1,86,51.38Z"/><polygon class="cls-5" points="42 31 42 65.63 50.18 86 77.82 86 86 65.63 86 31 42 31"/><path class="cls-6" d="M77.82,86H50.18c-10.6-26.39-11.26-26.9,0-3H77.82C89.08,59.1,88.42,59.61,77.82,86Z"/><rect class="cls-7" x="60" y="94" width="8" height="33"/><rect class="cls-4" x="60" y="124" width="8" height="3"/><path class="cls-8" d="M54,86H74a0,0,0,0,1,0,0v4a4,4,0,0,1-4,4H58a4,4,0,0,1-4-4V86A0,0,0,0,1,54,86Z"/><path class="cls-4" d="M74,87v3a4,4,0,0,1-4,4H58a4,4,0,0,1-4-4V87a4,4,0,0,0,4,4H70A4,4,0,0,0,74,87Z"/><path class="cls-9" d="M60,31a4,4,0,0,1,8,0Z"/><path class="cls-10" d="M64,59H60a1,1,0,0,0-1,1V76a1,1,0,0,0,2,0V69h3a5,5,0,0,0,0-10Zm0,8H61V61h3a3,3,0,0,1,0,6Z"/><path class="cls-10" d="M64,47H76a1,1,0,0,0,0-2H64A1,1,0,0,0,64,47Z"/><path class="cls-10" d="M53,44v6a1,1,0,0,0,2,0V44A1,1,0,0,0,53,44Z"/><path class="cls-10" d="M64,0C37,0,23.17,32.06,41,51.76V65.63c0,.3-.49-1,8.25,20.74.33.81.92.63,3.75.63v3a5,5,0,0,0,5,5h1v32a1,1,0,0,0,2,0V95h6v32a1,1,0,0,0,2,0V95h1a5,5,0,0,0,5-5V87h2.82c1,0,.31.92,9.11-21,.1-.26.07.88.07-14.24C104.83,32.06,91,0,64,0Zm0,2c24.14,0,37.51,27.82,23,46.65V31a23,23,0,0,0-46,0V48.65C26.5,29.84,39.84,2,64,2Zm2.82,28H61.18A3,3,0,0,1,66.82,30Zm2.08,0A5,5,0,0,0,65,26.1V19a1,1,0,0,0-2,0v7.1A5,5,0,0,0,59.1,30H43.05A21,21,0,0,1,85,30ZM73,90a3,3,0,0,1-3,3H58a3,3,0,0,1-3-3V87H73ZM85,65.44,77.14,85H50.86L43,65.44V32H85Z"/></g></svg>