<svg xmlns="http://www.w3.org/2000/svg" xmlns:xlink="http://www.w3.org/1999/xlink" viewBox="0 0 128 128"><defs><style>.cls-1{fill:url(#linear-gradient);}.cls-2{fill:#5b8dc9;}.cls-3{fill:#464f6b;}.cls-4{fill:url(#linear-gradient-2);}.cls-5{fill:#3d465e;}.cls-6{fill:url(#linear-gradient-3);}.cls-7{fill:#d7dbe2;}.cls-8{fill:#c6ccda;}.cls-9{fill:url(#linear-gradient-4);}.cls-10{fill:#77cacb;}.cls-11{fill:#e2607f;}.cls-12{fill:#dd4e6a;}.cls-13{fill:#f6b756;}.cls-14{fill:#47566a;}</style><linearGradient id="linear-gradient" x1="64.02" y1="78.1" x2="64.02" y2="40" gradientUnits="userSpaceOnUse"><stop offset="0" stop-color="#7aa8d7"/><stop offset="1" stop-color="#96c8ea"/></linearGradient><linearGradient id="linear-gradient-2" x1="13" y1="78" x2="33" y2="78" gradientUnits="userSpaceOnUse"><stop offset="0" stop-color="#464f6b"/><stop offset="1" stop-color="#575f7c"/></linearGradient><linearGradient id="linear-gradient-3" x1="99" x2="119" xlink:href="#linear-gradient-2"/><linearGradient id="linear-gradient-4" x1="79.11" y1="59" x2="79.11" y2="40" gradientUnits="userSpaceOnUse"><stop offset="0" stop-color="#9dd5df"/><stop offset="1" stop-color="#c3e1f5"/></linearGradient></defs><title>Pickup</title><g id="Pickup"><path class="cls-1" d="M127,78C-3.81,78,17.8,78.72,1,76.19V55c56.44,0,50.78.21,50.87-.48l1.46-10.83a4.16,4.16,0,0,1,4-3.69H78.09A4.12,4.12,0,0,1,81,41.21L96.21,56.42l25.62,1.83a4.12,4.12,0,0,1,3.73,3.28C127.37,70.67,127,66.78,127,78Z"/><path class="cls-2" d="M127,75v3C-3.81,78,17.8,78.72,1,76.19v-3C17.83,75.73-3.76,75,127,75Z"/><circle class="cls-3" cx="23" cy="78" r="10"/><circle class="cls-3" cx="109" cy="78" r="10"/><circle class="cls-4" cx="23" cy="78" r="10"/><path class="cls-5" d="M23,88a10,10,0,0,1-9.88-11.48,10,10,0,0,0,19.76,0A10,10,0,0,1,23,88Z"/><path class="cls-5" d="M109,88a10,10,0,0,1-9.88-11.48,10,10,0,0,0,19.76,0A10,10,0,0,1,109,88Z"/><circle class="cls-6" cx="109" cy="78" r="10"/><circle class="cls-7" cx="23" cy="78" r="4"/><circle class="cls-7" cx="109" cy="78" r="4"/><path class="cls-8" d="M26.87,79a4,4,0,0,0-7.74,0,4,4,0,1,1,7.74,0Z"/><path class="cls-8" d="M112.87,79a4,4,0,0,0-7.74,0,4,4,0,1,1,7.74,0Z"/><polygon class="cls-9" points="88.42 59 62 59 62 40 80 40 96.21 56.42 88.42 59"/><polygon class="cls-10" points="96.21 56.42 88.42 59 62 59 62 57 88.42 57 94.71 54.92 96.21 56.42"/><rect class="cls-11" x="1" y="61" width="4" height="6"/><rect class="cls-12" x="1" y="64" width="4" height="3"/><path class="cls-13" d="M127,68.74c0,.37,1,.26-7,.26V64h6C126.23,64.86,126,63.86,127,68.74Z"/><path class="cls-14" d="M23,73a5,5,0,1,0,5,5A5,5,0,0,0,23,73Zm0,8a3,3,0,1,1,3-3A3,3,0,0,1,23,81Z"/><path class="cls-14" d="M109,73a5,5,0,1,0,5,5A5,5,0,0,0,109,73Zm0,8a3,3,0,1,1,3-3A3,3,0,0,1,109,81Z"/><path class="cls-14" d="M68,66H64a1,1,0,0,0,0,2h4A1,1,0,0,0,68,66Z"/><path class="cls-14" d="M126.54,61.33a5.16,5.16,0,0,0-4.64-4.08l-25.25-1.8-14.94-15A5.19,5.19,0,0,0,78.09,39H57.35a5.13,5.13,0,0,0-5,4.56L50.93,54H1a1,1,0,0,0-1,1V76.19a1,1,0,0,0,.85,1L12,78.87A11,11,0,0,0,34,79c.35,0-5.34,0,64.1,0A11,11,0,0,0,120,79h7a1,1,0,0,0,1-1C128,66.22,128.38,70.55,126.54,61.33ZM125.83,68H121V65h4.23ZM78.09,41c1.81,0,1.36.07,16.67,15.38L88.3,58H63V41ZM2,62H4v4H2ZM23,87a9,9,0,1,1,9-9A9,9,0,0,1,23,87ZM34,77a11,11,0,0,0-21.89-.16L2,75.33V68H5a1,1,0,0,0,1-1V61a1,1,0,0,0-1-1H2V56H51V77C35.77,77,34.25,77,34,77ZM109,87a9,9,0,1,1,9-9A9,9,0,0,1,109,87Zm11-10a11,11,0,0,0-21.9,0H53c0-29.38-.34-20.79,1.32-33.17a3.15,3.15,0,0,1,3-2.83H61V59a1,1,0,0,0,1,1c28.31,0,26.47,0,26.66,0,8.84-2.21,8.42-2,8.72-2.46l24.37,1.74a3.13,3.13,0,0,1,2.83,2.47l.25,1.28H120a1,1,0,0,0-1,1v5a1,1,0,0,0,1,1h6v7Z"/></g></svg>