<svg xmlns="http://www.w3.org/2000/svg" xmlns:xlink="http://www.w3.org/1999/xlink" viewBox="0 0 128 128"><defs><style>.cls-1{fill:url(#linear-gradient);}.cls-2{fill:url(#linear-gradient-2);}.cls-3{fill:#c7cdd8;}.cls-4{fill:url(#linear-gradient-3);}.cls-5{fill:#5b8dc9;}.cls-6{fill:#d7f1ff;}.cls-7{fill:url(#linear-gradient-4);}.cls-8{fill:#47566a;}</style><linearGradient id="linear-gradient" x1="66" y1="89" x2="66" y2="78.98" gradientUnits="userSpaceOnUse"><stop offset="0" stop-color="#949aaf"/><stop offset="1" stop-color="#c6ccda"/></linearGradient><linearGradient id="linear-gradient-2" x1="64.49" y1="79.04" x2="64.49" y2="59" gradientUnits="userSpaceOnUse"><stop offset="0" stop-color="#d4d8e1"/><stop offset="1" stop-color="#f3f4f5"/></linearGradient><linearGradient id="linear-gradient-3" x1="13.53" y1="60.68" x2="13.53" y2="39" gradientUnits="userSpaceOnUse"><stop offset="0" stop-color="#7aa8d7"/><stop offset="1" stop-color="#96c8ea"/></linearGradient><linearGradient id="linear-gradient-4" x1="52.5" y1="82" x2="52.5" y2="76" xlink:href="#linear-gradient"/></defs><title>Plane</title><g id="Plane"><path class="cls-1" d="M73.94,79A4.08,4.08,0,0,1,78,83.06v1.88A4.08,4.08,0,0,1,73.94,89H68L54,85V82C74.69,78.55,71.24,79,73.94,79Z"/><path class="cls-2" d="M122.79,77.6a4.88,4.88,0,0,0,.31-9.6c-4.83-1.3-9.79-9-22.75-9H30.23L5.46,60.75a3.7,3.7,0,0,0-1,7.15L33.25,79C109.81,79,110,79.43,122.79,77.6Z"/><path class="cls-3" d="M127,73c-.32,7.18-6.82,6-93.75,6C1.94,67,3.56,67.85,2.66,66.54a3.65,3.65,0,0,1-.34-3.6,3.69,3.69,0,0,0,2.1,2L33.25,76c89.25,0,91.71.55,93.5-4.66A4.38,4.38,0,0,1,127,73Z"/><polygon class="cls-4" points="6.42 60.68 1 39 9.13 39 26.05 59.3 6.42 60.68"/><polygon class="cls-5" points="26.05 59.3 6.42 60.68 5.67 57.66 23.63 56.4 26.05 59.3"/><polygon class="cls-6" points="116.43 64 105.79 64 109.79 68 123.1 68 116.43 64"/><path class="cls-7" d="M69,82H36a3,3,0,0,1,0-6H69a3,3,0,0,1,0,6Z"/><path class="cls-8" d="M123.52,67.1c-1.45-.68.42.88-6.39-3.83A29.15,29.15,0,0,0,100.35,58c-78,0-68.62-.11-73.86.26L9.9,38.36C9.48,37.86,9.67,38,1,38a1,1,0,0,0-1,1.24L5.17,59.79a4.68,4.68,0,0,0-1.11,9l28,10.78A4,4,0,0,0,36,83H53v2a1,1,0,0,0,.73,1c15,4.28,14.06,4,14.27,4h5.94A5.07,5.07,0,0,0,79,84.94c0-2,.18-3.32-1.06-4.94,25.22,0,32.6.36,45-1.41A5.86,5.86,0,0,0,123.52,67.1Zm-7.4-2.1L119,67H110.2l-2-2ZM8.66,40,24,58.44,7.19,59.63,2.28,40ZM36,81a2,2,0,0,1-1.92-1.47.93.93,0,0,0,0-1.06A2,2,0,0,1,36,77H69a2,2,0,0,1,0,4Zm41,2.06v1.88A3.06,3.06,0,0,1,73.94,88h-5.8L55,84.25V83H69a4,4,0,0,0,3.86-3h1.08A3.06,3.06,0,0,1,77,83.06Zm45.65-6.45C110,78.41,103.07,78,72.86,78A4,4,0,0,0,69,75H36a4,4,0,0,0-3.72,2.56L4.77,67a2.69,2.69,0,0,1,.76-5.21C38.46,59.42,16.75,60,100.35,60a27.24,27.24,0,0,1,12.44,3h-7a1,1,0,0,0-.71,1.71c4.37,4.37,4.15,4.29,4.71,4.29h13.13A3.87,3.87,0,0,1,122.65,76.61Z"/><path class="cls-8" d="M91,67v2a1,1,0,0,0,2,0V67A1,1,0,0,0,91,67Z"/><path class="cls-8" d="M85,67v2a1,1,0,0,0,2,0V67A1,1,0,0,0,85,67Z"/><path class="cls-8" d="M79,67v2a1,1,0,0,0,2,0V67A1,1,0,0,0,79,67Z"/><path class="cls-8" d="M73,67v2a1,1,0,0,0,2,0V67A1,1,0,0,0,73,67Z"/><path class="cls-8" d="M67,67v2a1,1,0,0,0,2,0V67A1,1,0,0,0,67,67Z"/><path class="cls-8" d="M61,67v2a1,1,0,0,0,2,0V67A1,1,0,0,0,61,67Z"/><path class="cls-8" d="M55,67v2a1,1,0,0,0,2,0V67A1,1,0,0,0,55,67Z"/><path class="cls-8" d="M49,67v2a1,1,0,0,0,2,0V67A1,1,0,0,0,49,67Z"/><path class="cls-8" d="M43,67v2a1,1,0,0,0,2,0V67A1,1,0,0,0,43,67Z"/></g></svg>