<svg xmlns="http://www.w3.org/2000/svg" xmlns:xlink="http://www.w3.org/1999/xlink" viewBox="0 0 128 128"><defs><style>.cls-1{fill:#e2607f;}.cls-2{fill:url(#linear-gradient);}.cls-3{fill:url(#linear-gradient-2);}.cls-4{fill:#8288a1;}.cls-5{fill:url(#linear-gradient-3);}.cls-6{fill:url(#linear-gradient-4);}.cls-7{fill:#3d465e;}.cls-8{fill:url(#linear-gradient-5);}.cls-9{fill:#77cacb;}.cls-10{fill:#dd4e6a;}.cls-11{fill:#d7dbe2;}.cls-12{fill:#c6ccda;}.cls-13{fill:#fbcc88;}.cls-14{fill:#f6b756;}.cls-15{fill:#7aa8d7;}.cls-16{fill:#5b8dc9;}.cls-17{fill:#47566a;}</style><linearGradient id="linear-gradient" x1="64" y1="91.05" x2="64" y2="49" gradientUnits="userSpaceOnUse"><stop offset="0" stop-color="#d4d8e1"/><stop offset="1" stop-color="#f3f4f5"/></linearGradient><linearGradient id="linear-gradient-2" x1="64" y1="91.05" x2="64" y2="77" gradientUnits="userSpaceOnUse"><stop offset="0" stop-color="#949aaf"/><stop offset="1" stop-color="#c6ccda"/></linearGradient><linearGradient id="linear-gradient-3" x1="25" y1="101" x2="25" y2="81" gradientUnits="userSpaceOnUse"><stop offset="0" stop-color="#464f6b"/><stop offset="1" stop-color="#575f7c"/></linearGradient><linearGradient id="linear-gradient-4" x1="107" x2="107" xlink:href="#linear-gradient-3"/><linearGradient id="linear-gradient-5" x1="64.24" y1="65" x2="64.24" y2="49" gradientUnits="userSpaceOnUse"><stop offset="0" stop-color="#9dd5df"/><stop offset="1" stop-color="#c3e1f5"/></linearGradient></defs><title>Police</title><g id="Police"><path class="cls-1" d="M72,49H52c4.61-9.22,2.71-8,13.49-8a4.06,4.06,0,0,1,3.63,2.25C70.75,46.55,70.08,45.22,72,49Z"/><path class="cls-2" d="M127,74.85V91C-1.82,91,20.42,91.41,1,90V69a4.07,4.07,0,0,1,3.56-4l12.7-1.6,14-12.3a8.14,8.14,0,0,1,5.38-2H75.12a8.14,8.14,0,0,1,5.42,2.07L97,65l26.74,5.87A4.06,4.06,0,0,1,127,74.85Z"/><path class="cls-3" d="M127,77V91C-1.82,91,20.42,91.41,1,90V77Z"/><path class="cls-4" d="M127,87v4C-1.82,91,20.42,91.41,1,90V86C21,87.45-1.26,87,127,87Z"/><circle class="cls-5" cx="25" cy="91" r="10"/><circle class="cls-6" cx="107" cy="91" r="10"/><path class="cls-7" d="M25,101a10,10,0,0,1-9.88-11.48,10,10,0,0,0,19.76,0A10,10,0,0,1,25,101Z"/><path class="cls-7" d="M107,101a10,10,0,0,1-9.88-11.48,10,10,0,0,0,19.76,0A10,10,0,0,1,107,101Z"/><path class="cls-8" d="M97,65H35.55l-4.07-4.06L41,49H74c5,0,6.48,2,6.54,2.07Z"/><path class="cls-9" d="M97,65H35.55l-4.07-4.06c5.75,1.5-4.28,1.06,62,1.06Z"/><rect class="cls-1" x="1" y="73" width="6" height="8"/><rect class="cls-10" x="1" y="78" width="6" height="3"/><circle class="cls-11" cx="25" cy="91" r="4"/><circle class="cls-11" cx="107" cy="91" r="4"/><path class="cls-12" d="M28.87,92a4,4,0,0,0-7.74,0,4,4,0,1,1,7.74,0Z"/><path class="cls-12" d="M110.87,92a4,4,0,0,0-7.74,0,4,4,0,1,1,7.74,0Z"/><path class="cls-13" d="M123,77h4a0,0,0,0,1,0,0v6a0,0,0,0,1,0,0h-4a2,2,0,0,1-2-2V79A2,2,0,0,1,123,77Z"/><path class="cls-14" d="M127,81v2h-4a2,2,0,0,1-2-2V79a2,2,0,0,0,2,2Z"/><path class="cls-15" d="M72,49H62V41h3.46a4.06,4.06,0,0,1,3.63,2.25C70.75,46.55,70.08,45.22,72,49Z"/><polygon class="cls-10" points="62 46 62 49 51.97 49 53.47 46 62 46"/><polygon class="cls-16" points="71.97 49 62 49 62 46 70.47 46 71.97 49"/><path class="cls-17" d="M124,69.89,97.46,64.08,81.21,50.33C78.28,47.7,75.39,48,72.59,48L70,42.8A5,5,0,0,0,65.46,40h-7A5,5,0,0,0,54,42.8L51.35,48H36.59a9.13,9.13,0,0,0-6,2.28L16.83,62.38,4.43,63.94A5.08,5.08,0,0,0,0,69V90a1,1,0,0,0,.93,1l13.12,1A11,11,0,0,0,36,92h60.1A11,11,0,0,0,118,92h9a1,1,0,0,0,1-1V74.85A5.07,5.07,0,0,0,124,69.89Zm-44-18L94.27,64H65V50C76.06,50,77.35,49.56,79.9,51.84ZM43,64l3.8-14H63V64Zm-7,0-3.14-3.14L41.48,50h3.21l-3.8,14ZM70.35,48H63V42C68,42,67.21,41.72,70.35,48ZM61,42v6H53.59C56.76,41.65,56,42,61,42ZM2,74H6v6H2Zm23,26a9,9,0,1,1,9-9A9,9,0,0,1,25,100Zm82,0a9,9,0,1,1,9-9A9,9,0,0,1,107,100Zm11-10a11,11,0,0,0-21.9,0H36a11,11,0,0,0-21.9-.07L2,89V82H7a1,1,0,0,0,1-1V73a1,1,0,0,0-1-1H2V69a3.06,3.06,0,0,1,2.68-3c13.76-1.74,12.91-1.55,13.24-1.85,17-15,14.67-14.08,21-14.08L30.7,60.31a1,1,0,0,0,.08,1.33l4.06,4.07c.44.43-3.82.29,62.05.29l26.65,5.85a3.06,3.06,0,0,1,2.46,3V76h-3a3,3,0,0,0-3,3v2a3,3,0,0,0,3,3h3v6Zm8-8h-3a1,1,0,0,1-1-1V79a1,1,0,0,1,1-1h3Z"/><path class="cls-17" d="M25,86a5,5,0,1,0,5,5A5,5,0,0,0,25,86Zm0,8a3,3,0,1,1,3-3A3,3,0,0,1,25,94Z"/><path class="cls-17" d="M107,86a5,5,0,1,0,5,5A5,5,0,0,0,107,86Zm0,8a3,3,0,1,1,3-3A3,3,0,0,1,107,94Z"/><path class="cls-17" d="M63,31V27a1,1,0,0,0-2,0v4A1,1,0,0,0,63,31Z"/><path class="cls-17" d="M72,36.63c.55,0,.45,0,3.58-3.16a1,1,0,0,0-1.42-1.42l-2.87,2.88A1,1,0,0,0,72,36.63Z"/><path class="cls-17" d="M51.2,36.34a1,1,0,0,0,1.42-1.41l-2.88-2.88a1,1,0,0,0-1.41,1.42Z"/><path class="cls-17" d="M72,72H68a1,1,0,0,0,0,2h4A1,1,0,0,0,72,72Z"/></g></svg>