<svg xmlns="http://www.w3.org/2000/svg" xmlns:xlink="http://www.w3.org/1999/xlink" viewBox="0 0 128 128"><defs><style>.cls-1{fill:url(#linear-gradient);}.cls-2{fill:#8288a1;}.cls-3{fill:url(#linear-gradient-2);}.cls-4{fill:#3d465e;}.cls-5{fill:url(#linear-gradient-3);}.cls-6{fill:url(#linear-gradient-4);}.cls-7{fill:url(#linear-gradient-5);}.cls-8{fill:url(#linear-gradient-6);}.cls-9{fill:#47566a;}</style><linearGradient id="linear-gradient" x1="64" y1="127" x2="64" y2="1" gradientUnits="userSpaceOnUse"><stop offset="0" stop-color="#949aaf"/><stop offset="1" stop-color="#c6ccda"/></linearGradient><linearGradient id="linear-gradient-2" x1="64" y1="127" x2="64" y2="1" gradientUnits="userSpaceOnUse"><stop offset="0" stop-color="#464f6b"/><stop offset="1" stop-color="#575f7c"/></linearGradient><linearGradient id="linear-gradient-3" x1="64" y1="15.23" x2="64" y2="1" gradientUnits="userSpaceOnUse"><stop offset="0" stop-color="#d4d8e1"/><stop offset="1" stop-color="#f3f4f5"/></linearGradient><linearGradient id="linear-gradient-4" x1="64" y1="92.45" x2="64" y2="57.9" xlink:href="#linear-gradient-3"/><linearGradient id="linear-gradient-5" x1="64" y1="127" x2="64" y2="106.68" xlink:href="#linear-gradient-3"/><linearGradient id="linear-gradient-6" x1="64" y1="47.74" x2="64" y2="23.35" xlink:href="#linear-gradient-3"/></defs><title>Road</title><g id="Road"><polygon class="cls-1" points="1 127 29.45 1 98.55 1 127 127 1 127"/><polygon class="cls-2" points="127 127 1 127 1.9 123 126.1 123 127 127"/><path class="cls-3" d="M112.77,127H15.23c1.11-6.34,21.17-121.14,22-126h53.5C91.61,5.93,111.66,120.67,112.77,127Z"/><polygon class="cls-4" points="112.77 127 15.23 127 15.93 123 112.07 123 112.77 127"/><polygon class="cls-5" points="67.66 15.23 60.34 15.23 60.65 1 67.35 1 67.66 15.23"/><polygon class="cls-6" points="69.34 92.45 58.66 92.45 59.41 57.9 68.59 57.9 69.34 92.45"/><polygon class="cls-7" points="70.1 127 57.9 127 58.35 106.68 69.65 106.68 70.1 127"/><polygon class="cls-8" points="68.37 47.74 59.63 47.74 60.16 23.35 67.84 23.35 68.37 47.74"/><path class="cls-9" d="M128,126.78,99.52.78a1,1,0,0,0-2,.44l28.45,126A1,1,0,0,0,128,126.78Z"/><path class="cls-9" d="M28.48.78,0,126.78A1,1,0,0,0,1,128c1.19,0-1,8,29.43-126.78A1,1,0,0,0,28.48.78Z"/><path class="cls-9" d="M89.76,1.17l22,126a1,1,0,0,0,2-.34l-22-126A1,1,0,0,0,89.76,1.17Z"/><path class="cls-9" d="M36.27.83l-22,126a1,1,0,0,0,1,1.17c1.24,0-.5,7.64,23-126.83A1,1,0,0,0,36.27.83Z"/><path class="cls-9" d="M60.34,16.23c7.86,0,7.63.11,8-.31s.31.48,0-14.94a1,1,0,0,0-2,0l.29,13.21H61.36L61.65,1a1,1,0,0,0-2,0L59.34,15.2A1,1,0,0,0,60.34,16.23Z"/><path class="cls-9" d="M58.66,93.45c11.51,0,11,.13,11.4-.3s.35,2.11-.47-35.27a1,1,0,0,0-1-1H59.41a1,1,0,0,0-1,1l-.75,34.55A1,1,0,0,0,58.66,93.45ZM60.39,58.9h7.22l.71,32.55H59.68Z"/><path class="cls-9" d="M69.65,105.68H58.35a1,1,0,0,0-1,1L56.9,127a1,1,0,0,0,2,0l.43-19.34h9.34L69.1,127a1,1,0,0,0,2,0l-.45-20.32A1,1,0,0,0,69.65,105.68Z"/><path class="cls-9" d="M59.63,48.74c9.44,0,9.05.12,9.45-.3s.33,1.33-.24-25.11a1,1,0,0,0-1-1H60.16a1,1,0,0,0-1,1l-.53,24.39A1,1,0,0,0,59.63,48.74Zm1.51-24.39h5.72l.49,22.39h-6.7Z"/></g></svg>