<svg xmlns="http://www.w3.org/2000/svg" xmlns:xlink="http://www.w3.org/1999/xlink" viewBox="0 0 128 128"><defs><style>.cls-1{fill:url(#linear-gradient);}.cls-2{fill:url(#linear-gradient-2);}.cls-3{fill:url(#linear-gradient-3);}.cls-4{fill:url(#linear-gradient-4);}.cls-5{fill:#f6b756;}.cls-6{fill:url(#linear-gradient-5);}.cls-7{fill:#dd4e6a;}.cls-8{fill:url(#linear-gradient-6);}.cls-9{fill:url(#linear-gradient-7);}.cls-10{fill:#5b8dc9;}.cls-11{fill:#d4d8e1;}.cls-12{fill:#47566a;}</style><linearGradient id="linear-gradient" x1="21.32" y1="61.97" x2="21.32" y2="50.26" gradientUnits="userSpaceOnUse"><stop offset="0" stop-color="#fbcc88"/><stop offset="1" stop-color="#ffe5c3"/></linearGradient><linearGradient id="linear-gradient-2" x1="116.84" y1="127" x2="116.84" y2="114.81" xlink:href="#linear-gradient"/><linearGradient id="linear-gradient-3" x1="56" y1="94" x2="56" y2="82" xlink:href="#linear-gradient"/><linearGradient id="linear-gradient-4" x1="34" y1="127" x2="34" y2="115" xlink:href="#linear-gradient"/><linearGradient id="linear-gradient-5" x1="107.27" y1="94.48" x2="107.27" y2="80.26" gradientUnits="userSpaceOnUse"><stop offset="0" stop-color="#da5466"/><stop offset="1" stop-color="#e87092"/></linearGradient><linearGradient id="linear-gradient-6" x1="21.32" y1="53.84" x2="21.32" y2="1" gradientUnits="userSpaceOnUse"><stop offset="0" stop-color="#7aa8d7"/><stop offset="1" stop-color="#96c8ea"/></linearGradient><linearGradient id="linear-gradient-7" x1="21.32" y1="29.45" x2="21.32" y2="13.19" gradientUnits="userSpaceOnUse"><stop offset="0" stop-color="#d4d8e1"/><stop offset="1" stop-color="#f3f4f5"/></linearGradient></defs><title>Route</title><g id="Route"><path class="cls-1" d="M25.33,50.26c10.1,2.61,7,11.71-4,11.71s-14.11-9.1-4-11.71"/><ellipse class="cls-2" cx="116.84" cy="120.9" rx="10.16" ry="6.1"/><ellipse class="cls-3" cx="56" cy="88" rx="10" ry="6"/><ellipse class="cls-4" cx="34" cy="121" rx="10" ry="6"/><path class="cls-5" d="M21.32,62C14.84,62,9.25,58,11.73,53.88c3.15,5.44,16,5.44,19.18,0C33.39,58,27.85,62,21.32,62Z"/><path class="cls-5" d="M116.84,127c-6.84,0-12-4.08-9.59-8.1,3.13,5.45,16,5.45,19.18,0C128.92,123.14,123.31,127,116.84,127Z"/><path class="cls-5" d="M66,88c0,3.31-4.48,6-10,6-6.06,0-12-3.67-9.43-8,3.12,5.31,15.72,5.33,18.86,0A3.91,3.91,0,0,1,66,88Z"/><path class="cls-5" d="M44,121c0,3.31-4.48,6-10,6-6.06,0-12-3.67-9.43-8,3.12,5.31,15.72,5.33,18.86,0A3.91,3.91,0,0,1,44,121Z"/><rect class="cls-6" x="98.55" y="80.26" width="17.45" height="14.23"/><rect class="cls-7" x="98.55" y="91" width="17.45" height="3.48"/><path class="cls-8" d="M41.65,21.32c0,16.26-20.33,32.52-20.33,32.52S1,37.58,1,21.32a20.33,20.33,0,0,1,40.65,0Z"/><circle class="cls-9" cx="21.32" cy="21.32" r="8.13"/><path class="cls-10" d="M21.32,53.84c-9.45-7.57-21.86-22.37-20.16-35C2.35,28.54,10.07,38,15.61,43.57a8,8,0,0,0,11.43,0c5.54-5.63,13.28-15,14.45-24.78C43.2,31.52,30.58,46.43,21.32,53.84Z"/><path class="cls-11" d="M29.31,22.82a8.13,8.13,0,0,0-16,0,8.13,8.13,0,1,1,16,0Z"/><path class="cls-12" d="M30.45,21.32a9.13,9.13,0,1,0-9.13,9.13A9.14,9.14,0,0,0,30.45,21.32Zm-16.26,0a7.13,7.13,0,1,1,7.13,7.13A7.14,7.14,0,0,1,14.19,21.32Z"/><path class="cls-12" d="M117.84,113.84V80.26a1,1,0,0,0-1-1H98.55a1,1,0,0,0-1,1V94.48a1,1,0,0,0,1,1h17.29v18.36c-5.3.28-9.43,2.83-10.07,6.16H44.88c-1.73-8-20-8-21.76,0H17.5a15.5,15.5,0,0,1,0-31H45.12c1.73,8,20,8,21.76,0,5.87,0,11.55.6,17.15-5,10.6-10.64,3.17-29-12-29H32.39c-.4-2.16-2.3-4-5.17-5.17,6.14-6.1,15.43-17.19,15.43-28.51A21.33,21.33,0,0,0,0,21.32C0,32.64,9.28,43.73,15.42,49.83,6.13,53.47,9.81,63,21.32,63c5.65,0,10.19-2.55,11-6H72c13.4,0,20,16.23,10.61,25.61C77.51,87.7,72,87,66.88,87c-1.73-8-20-8-21.76,0H17.5a17.5,17.5,0,0,0,0,35h5.62c1.73,8,20,8,21.76,0h60.94c.81,3.44,5.35,6,11,6,6.26,0,11.16-3.12,11.16-7.1C128,117.14,123.61,114.15,117.84,113.84ZM21.32,2A19.35,19.35,0,0,1,40.65,21.32c0,14-15.94,28.33-19.33,31.22C17.94,49.65,2,35.33,2,21.32A19.35,19.35,0,0,1,21.32,2Zm0,59c-9.09,0-13-6.92-4.28-9.58,2,1.9,3.44,3.06,3.66,3.23a1,1,0,0,0,1.25,0c.21-.17,1.64-1.33,3.66-3.23,2.58.79,4.39,2.25,4.78,3.83a1,1,0,0,0-.05,1.52C29.57,59.1,25.76,61,21.32,61ZM56,83c4.88,0,9,2.29,9,5s-4.12,5-9,5-9-2.29-9-5S51.12,83,56,83ZM99.55,93.48V81.26h16.29V93.48ZM34,126c-4.88,0-9-2.29-9-5s4.12-5,9-5,9,2.29,9,5S38.88,126,34,126Zm82.84,0c-5,0-9.16-2.33-9.16-5.1,0-2.57,3.64-4.77,8.16-5.06v3a1,1,0,0,0,2,0v-3c4.51.29,8.16,2.49,8.16,5.06C126,123.67,121.8,126,116.84,126Z"/></g></svg>