<svg xmlns="http://www.w3.org/2000/svg" xmlns:xlink="http://www.w3.org/1999/xlink" viewBox="0 0 128 128"><defs><style>.cls-1{fill:#e2607f;}.cls-2{fill:#dd4e6a;}.cls-3{fill:url(#linear-gradient);}.cls-4{fill:url(#linear-gradient-2);}.cls-5{fill:#c7cdd8;}.cls-6{fill:url(#linear-gradient-3);}.cls-7{fill:#8a6762;}.cls-8{fill:url(#linear-gradient-4);}.cls-9{fill:#cba07a;}.cls-10{fill:#d7f1ff;}.cls-11{fill:#47566a;}</style><linearGradient id="linear-gradient" x1="87.44" y1="84" x2="87.44" y2="8.81" gradientUnits="userSpaceOnUse"><stop offset="0" stop-color="#d4d8e1"/><stop offset="1" stop-color="#f3f4f5"/></linearGradient><linearGradient id="linear-gradient-2" x1="42.73" x2="42.73" y2="23.03" xlink:href="#linear-gradient"/><linearGradient id="linear-gradient-3" x1="62" y1="109" x2="62" y2="92" gradientUnits="userSpaceOnUse"><stop offset="0" stop-color="#9b756d"/><stop offset="1" stop-color="#bc9388"/></linearGradient><linearGradient id="linear-gradient-4" x1="64" y1="127" x2="64" y2="103" gradientUnits="userSpaceOnUse"><stop offset="0" stop-color="#d1a788"/><stop offset="1" stop-color="#f2d3b8"/></linearGradient></defs><title>Sailboat</title><g id="Sailboat"><polygon class="cls-1" points="60 13.19 35.61 5.07 60 1 60 13.19"/><polygon class="cls-2" points="60 9 60 13.19 35.61 5.06 60 9"/><path class="cls-3" d="M60,8.81V84h54.87C103,49.5,85.69,24.39,60,8.81Z"/><path class="cls-4" d="M60,23V84H25.45A192.06,192.06,0,0,0,60,23Z"/><path class="cls-5" d="M114.87,84H60V80h53.45C113.93,81.32,114.4,82.65,114.87,84Z"/><path class="cls-5" d="M60,80v4H25.45c1.09-1.27,2.19-2.61,3.31-4Z"/><path class="cls-6" d="M99,106l-74,3V92H86Z"/><polygon class="cls-7" points="99 106 25 109 25 105.02 94.88 101.58 99 106"/><path class="cls-8" d="M127,103c-6.1,12-30.48,24-44.71,24H11.16l-2-8H1c2-5,1.13-2.8,4.06-10Z"/><path class="cls-9" d="M127,103c-6.1,12-30.48,24-44.71,24H11.16l-2-8H1l1.62-4H9.13c1.22,4.8.76,3,2,8H82.29C94.88,123,118.2,113.47,127,103Z"/><circle class="cls-10" cx="34" cy="101" r="2"/><circle class="cls-10" cx="42" cy="101" r="2"/><circle class="cls-10" cx="50" cy="101" r="2"/><path class="cls-11" d="M127.84,102.46c-.45-.69,1.78-.59-29.92,1-.09-.42.72.54-11.23-12.12C86.27,90.86,88.15,91,61,91V85h53.87a1,1,0,0,0,.8-1.73c-12.31-35.45-30.21-60-54.67-75,0-7.69.13-7.6-.35-8s.46-.44-25.2,3.84A1,1,0,0,0,35.3,6L59,13.91v9A191,191,0,0,1,25,83a1,1,0,0,0,0,2H59v6H21a1,1,0,0,0,0,2h3v14c0,.1,1.45,0-19,1-.9,0-.63,0-4.95,10.62A1,1,0,0,0,1,120H8.35l1.84,7.25a1,1,0,0,0,1,.75H82.29c14.47,0,39.18-11.9,45.6-24.55A1,1,0,0,0,127.84,102.46ZM113.46,83H61V10.6C84.31,25.29,101.49,49,113.46,83ZM39.75,5.39,59,2.18v9.63ZM59,28.85V83H27.61A195.28,195.28,0,0,0,59,28.85Zm36.5,74.7L69,104.85V93H85.54ZM26,93H67v12l-41,2Zm56.29,33H11.94l-1.53-6H84a1,1,0,0,0,0-2H2.49l3.26-8,119.47-5.88C118,115.39,95.33,126,82.29,126Z"/><circle class="cls-11" cx="34" cy="101" r="2"/><circle class="cls-11" cx="42" cy="101" r="2"/><circle class="cls-11" cx="50" cy="101" r="2"/></g></svg>