<svg xmlns="http://www.w3.org/2000/svg" xmlns:xlink="http://www.w3.org/1999/xlink" viewBox="0 0 128 128"><defs><style>.cls-1{fill:url(#linear-gradient);}.cls-2{fill:#f6b756;}.cls-3{fill:url(#linear-gradient-2);}.cls-4{fill:url(#linear-gradient-3);}.cls-5{fill:#3d465e;}.cls-6{fill:#949aaf;}.cls-7{fill:#8288a1;}.cls-8{fill:url(#linear-gradient-4);}.cls-9{fill:url(#linear-gradient-5);}.cls-10{fill:url(#linear-gradient-6);}.cls-11{fill:#77cacb;}.cls-12{fill:#edf0f4;}.cls-13{fill:#e2607f;}.cls-14{fill:#dd4e6a;}.cls-15{fill:#47566a;}</style><linearGradient id="linear-gradient" x1="64" y1="84" x2="64" y2="36" gradientUnits="userSpaceOnUse"><stop offset="0" stop-color="#fbcc88"/><stop offset="1" stop-color="#ffe5c3"/></linearGradient><linearGradient id="linear-gradient-2" x1="19" y1="92" x2="19" y2="76" gradientUnits="userSpaceOnUse"><stop offset="0" stop-color="#464f6b"/><stop offset="1" stop-color="#575f7c"/></linearGradient><linearGradient id="linear-gradient-3" x1="111" x2="111" xlink:href="#linear-gradient-2"/><linearGradient id="linear-gradient-4" x1="87" y1="84" x2="87" y2="46" gradientUnits="userSpaceOnUse"><stop offset="0" stop-color="#949aaf"/><stop offset="1" stop-color="#c6ccda"/></linearGradient><linearGradient id="linear-gradient-5" x1="103.5" y1="60" x2="103.5" y2="45.99" gradientUnits="userSpaceOnUse"><stop offset="0" stop-color="#9dd5df"/><stop offset="1" stop-color="#c3e1f5"/></linearGradient><linearGradient id="linear-gradient-6" x1="39.5" x2="39.5" y2="46" xlink:href="#linear-gradient-5"/></defs><title>School Bus</title><g id="School_Bus" data-name="School Bus"><path class="cls-1" d="M127,84V69.33a6.09,6.09,0,0,0-4.91-6L107,60c-1.74-16.81-1.27-12-2-20.3a4.07,4.07,0,0,0-4-3.7H5.06A4.06,4.06,0,0,0,1,40.06V84Z"/><rect class="cls-2" x="1" y="81" width="126" height="3"/><circle class="cls-3" cx="19" cy="84" r="8"/><circle class="cls-4" cx="111" cy="84" r="8"/><path class="cls-5" d="M19,92a8,8,0,0,1-7.86-9.5,8,8,0,0,0,15.72,0A8,8,0,0,1,19,92Z"/><path class="cls-5" d="M111,92a8,8,0,0,1-7.86-9.5,8,8,0,0,0,15.72,0A8,8,0,0,1,111,92Z"/><circle class="cls-6" cx="19" cy="84" r="3"/><circle class="cls-6" cx="111" cy="84" r="3"/><path class="cls-7" d="M21.82,85a3,3,0,0,0-5.64,0,3,3,0,1,1,5.64,0Z"/><path class="cls-7" d="M113.82,85a3,3,0,0,0-5.64,0,3,3,0,1,1,5.64,0Z"/><rect class="cls-8" x="78" y="46" width="18" height="38"/><rect class="cls-7" x="78" y="80" width="18" height="4"/><path class="cls-9" d="M107,60h-7V46c6.17,0,5.55,0,5.56.12C106.91,59.13,106.6,56.09,107,60Z"/><rect class="cls-10" x="9" y="46" width="61" height="14"/><rect class="cls-11" x="9" y="57" width="61" height="3"/><path class="cls-12" d="M124,70h3a0,0,0,0,1,0,0v4a0,0,0,0,1,0,0h-3a1,1,0,0,1-1-1V71A1,1,0,0,1,124,70Z"/><rect class="cls-13" x="1" y="68" width="6" height="8"/><rect class="cls-14" x="1" y="73" width="6" height="3"/><polygon class="cls-11" points="107 60 100 60 100 57 106.69 57 107 60"/><path class="cls-15" d="M19,80a4,4,0,1,0,4,4A4,4,0,0,0,19,80Zm0,6a2,2,0,1,1,2-2A2,2,0,0,1,19,86Z"/><path class="cls-15" d="M111,80a4,4,0,1,0,4,4A4,4,0,0,0,111,80Zm0,6a2,2,0,1,1,2-2A2,2,0,0,1,111,86Z"/><path class="cls-15" d="M122.31,62.37l-14.39-3.19c-1.69-16.31-1.18-11.13-1.94-19.57a5,5,0,0,0-5-4.61H5.06A5.07,5.07,0,0,0,0,40.06V84a1,1,0,0,0,1,1h9.06a9,9,0,0,0,17.88,0h74.12a9,9,0,0,0,17.71,1H127a1,1,0,0,0,1-1V69.33A7.1,7.1,0,0,0,122.31,62.37ZM126,73h-2V71h2ZM104.65,47c1.58,15.22,1.17,11.36,1.24,12H101V47ZM2,69H6v6H2ZM19,91a7,7,0,1,1,7-7A7,7,0,0,1,19,91Zm60-8V47H95V83Zm32,8a7,7,0,1,1,7-7A7,7,0,0,1,111,91Zm9-7a9,9,0,0,0-17.94-1H97V46a1,1,0,0,0-1-1H78a1,1,0,0,0-1,1V83H27.94a9,9,0,0,0-17.88,0H2V77H7a1,1,0,0,0,1-1V68a1,1,0,0,0-1-1H2V40.06A3.06,3.06,0,0,1,5.06,37h95.87a3,3,0,0,1,3,2.79l.48,5.21H100a1,1,0,0,0-1,1V60a1,1,0,0,0,1,1c8.68,0,3.88-.67,21.9,3.33A5.08,5.08,0,0,1,126,69h-2a2,2,0,0,0-2,2v2a2,2,0,0,0,2,2h2v9Z"/><path class="cls-15" d="M70,45H9a1,1,0,0,0-1,1V60a1,1,0,0,0,1,1H70a1,1,0,0,0,1-1V46A1,1,0,0,0,70,45ZM35,47H45V59H35ZM33,59H22V47H33ZM47,47H57V59H47ZM10,47H20V59H10ZM69,59H59V47H69Z"/><path class="cls-15" d="M70,67H15a1,1,0,0,0,0,2H70A1,1,0,0,0,70,67Z"/></g></svg>