<svg xmlns="http://www.w3.org/2000/svg" xmlns:xlink="http://www.w3.org/1999/xlink" viewBox="0 0 128 128"><defs><style>.cls-1{fill:url(#linear-gradient);}.cls-2{fill:#dd4e6a;}.cls-3{fill:url(#linear-gradient-2);}.cls-4{fill:#5b8dc9;}.cls-5{fill:url(#linear-gradient-3);}.cls-6{fill:url(#linear-gradient-4);}.cls-7{fill:url(#linear-gradient-5);}.cls-8{fill:url(#linear-gradient-6);}.cls-9{fill:url(#linear-gradient-7);}.cls-10{fill:#8a6762;}.cls-11{fill:url(#linear-gradient-8);}.cls-12{fill:#697084;}.cls-13{fill:#8288a1;}.cls-14{fill:#3d465e;}.cls-15{fill:#949aaf;}.cls-16{fill:#47566a;}</style><linearGradient id="linear-gradient" x1="8.5" y1="73" x2="8.5" y2="63" gradientUnits="userSpaceOnUse"><stop offset="0" stop-color="#da5466"/><stop offset="1" stop-color="#e87092"/></linearGradient><linearGradient id="linear-gradient-2" x1="51.81" y1="89" x2="51.81" y2="33" gradientUnits="userSpaceOnUse"><stop offset="0" stop-color="#7aa8d7"/><stop offset="1" stop-color="#96c8ea"/></linearGradient><linearGradient id="linear-gradient-3" x1="21.81" x2="21.81" y2="66.65" xlink:href="#linear-gradient-2"/><linearGradient id="linear-gradient-4" x1="111" y1="103" x2="111" y2="75" gradientUnits="userSpaceOnUse"><stop offset="0" stop-color="#464f6b"/><stop offset="1" stop-color="#575f7c"/></linearGradient><linearGradient id="linear-gradient-5" x1="22.01" y1="102.73" x2="22.01" y2="88.65" xlink:href="#linear-gradient-4"/><linearGradient id="linear-gradient-6" x1="109.73" y1="85.03" x2="109.73" y2="69" xlink:href="#linear-gradient-2"/><linearGradient id="linear-gradient-7" x1="38" y1="55" x2="38" y2="42.97" gradientUnits="userSpaceOnUse"><stop offset="0" stop-color="#9b756d"/><stop offset="1" stop-color="#bc9388"/></linearGradient><linearGradient id="linear-gradient-8" x1="90" y1="33" x2="90" y2="21" xlink:href="#linear-gradient-2"/></defs><title>Scooter</title><g id="Scooter"><polygon class="cls-1" points="8 73 1 73 1 67 5 63 16 63 8 73"/><polygon class="cls-2" points="10.4 70 8 73 1 73 1 70 10.4 70"/><path class="cls-3" d="M102.33,70.38,93.69,84.94A23,23,0,0,1,80.26,89H1A47.47,47.47,0,0,1,4.6,76.56,37.92,37.92,0,0,1,17,61V55H59S49,61,49,69s6.9,12,12,12H74.11s14.31,0,16.35-12.26C92,59.31,88.72,42.09,86.37,33h6.08C99.76,44,103.74,61,102.33,70.38Z"/><path class="cls-4" d="M43.72,89H1A47.47,47.47,0,0,1,4.6,76.56c4.38-6,12-11.91,24.85-11.91C42.93,64.65,46.75,76.11,43.72,89Z"/><path class="cls-5" d="M41.65,89H1S5.06,66.65,29.45,66.65C47.74,66.65,41.65,89,41.65,89Z"/><path class="cls-4" d="M102.61,66.52a27,27,0,0,1-.28,3.86L93.69,84.94A23,23,0,0,1,80.26,89H1a29.19,29.19,0,0,1,.51-3H80.26a23,23,0,0,0,13.43-4.06l8.64-14.56C102.64,65.21,102.61,63.18,102.61,66.52Z"/><circle class="cls-6" cx="111" cy="89" r="14"/><path class="cls-7" d="M8,88.65a14,14,0,0,0,28,.17Z"/><path class="cls-4" d="M102.53,68.55c-.19,2.4.69.32-8.84,16.39a19.6,19.6,0,0,1-3.21,1.86C91.74,76.89,96.62,71.05,102.53,68.55Z"/><path class="cls-8" d="M92.73,85c5.13,0,8.63.52,12.75-3a11.33,11.33,0,0,1,7.25-3h14a17.23,17.23,0,0,0-16-10C94.73,69,92.73,85,92.73,85Z"/><path class="cls-4" d="M126.73,79h-14a11.33,11.33,0,0,0-7.25,3c-4.11,3.52-7.68,3-12.75,3a18,18,0,0,1,.72-3h4.16c7.37,0,8.57-6,15.12-6H125A15,15,0,0,1,126.73,79Z"/><path class="cls-9" d="M59,55H17a4,4,0,0,1-4-4V47a4,4,0,0,1,4-4c15.16,0,18.59-.28,25,1a51.86,51.86,0,0,0,10.1,1H57a6,6,0,0,1,6,6A4,4,0,0,1,59,55Z"/><path class="cls-10" d="M59,55H17a4,4,0,0,1-4-4V48a4,4,0,0,0,4,4H59a4,4,0,0,0,3.76-2.66C63.74,52.59,61.56,55,59,55Z"/><path class="cls-11" d="M82,29v2a2,2,0,0,0,2,2H98V21H86a4,4,0,0,0-4,4"/><path class="cls-12" d="M77,29h8a2,2,0,0,0,0-4H77A2,2,0,0,0,77,29Z"/><path class="cls-13" d="M16,89a6,6,0,0,0,12,0"/><path class="cls-14" d="M36,88.82a14,14,0,0,1-28-.17h.31a14,14,0,0,0,27.35.17Z"/><path class="cls-14" d="M110.93,103.27A14,14,0,0,1,97.09,87.78a14,14,0,0,0,27.84,0A14,14,0,0,1,110.93,103.27Z"/><circle class="cls-15" cx="111" cy="89" r="6"/><path class="cls-13" d="M116.81,90.5a6,6,0,0,0-11.61,0,6,6,0,1,1,11.61,0Z"/><path class="cls-4" d="M94.22,36H87.1c-.44-1.88-.73-3-.73-3h6.08S93.17,34.08,94.22,36Z"/><path class="cls-16" d="M127.65,78.63A18.37,18.37,0,0,0,110.73,68a19.81,19.81,0,0,0-7.27,1.28c.92-9.14-2.14-23.31-9.21-35.28H98a1,1,0,0,0,1-1V21a1,1,0,0,0-1-1H86a5,5,0,0,0-4.9,4H77a3,3,0,0,0,0,6h4v1a3,3,0,0,0,3,3h1.59c1,4.06,5.67,23.87,3.88,34.57C87.59,79.84,74.66,80,74.11,80H61c-4.44,0-11-3.5-11-11,0-6.8,8.1-12.24,9.34-13A5,5,0,0,0,64,51a7,7,0,0,0-7-7c-5.48,0-9.11.16-14.8-1-6.42-1.28-9.27-1-25.2-1a5,5,0,0,0-5,5v4a5,5,0,0,0,4,4.9v4.56C14.09,61.86,14.19,62,14,62c-9.68,0-9.3-.12-9.71.29C-.08,66.66,0,66.44,0,67v6a1,1,0,0,0,1,1H4.69A45.81,45.81,0,0,0,0,88.9,1,1,0,0,0,1,90H7.05A15,15,0,0,0,37,90H80.26a24.09,24.09,0,0,0,13.63-4h2.42A15,15,0,1,0,123,80c4,0,4.18.14,4.57-.44A1,1,0,0,0,127.65,78.63ZM77,26h8a1,1,0,0,1,0,2H77A1,1,0,0,1,77,26Zm6,5V30h2a3,3,0,0,0,0-6H83.18A3,3,0,0,1,86,22H97V32H84A1,1,0,0,1,83,31ZM14,51V47a3,3,0,0,1,3-3c15.23,0,18.58-.26,24.8,1,5.85,1.17,9.67,1,15.2,1a5,5,0,0,1,5,5,3,3,0,0,1-3,3H17A3,3,0,0,1,14,51ZM2,72V67.41L5.41,64H11.9a38.85,38.85,0,0,0-6.11,8Zm20,30A13,13,0,0,1,9.05,90h6a7,7,0,0,0,13.84,0h6A13,13,0,0,1,22,102ZM17.1,90h9.8A5,5,0,0,1,17.1,90Zm23.76-2H2.27c1.26-4.5,7.1-20.35,27.18-20.35,4.34,0,7.55,1.33,9.56,4C42.93,76.73,41.42,85.43,40.86,88Zm2,0c2.53-12.17-1-22.35-13.46-22.35S9.79,71.27,5.53,77a37.11,37.11,0,0,1,12-15.19c.56-.4.42-.4.42-5.78H55.86c-15,11.86-5.74,26,5.14,26H74.11c.15,0,15.18-.15,17.34-13.1,1.8-10.84-2.55-29.81-3.79-34.9H91.9c6,9.74,10.8,24.35,9.44,36.26-8.23,4.57-9.59,14.49-9.61,14.62s0,.08,0,.13a22.4,22.4,0,0,1-11.48,3ZM111,102A13,13,0,0,1,98.36,86a13.19,13.19,0,0,0,7.77-3.2c4.06-3.48,6.52-2.76,14.22-2.76A13,13,0,0,1,111,102Zm1.73-24c-7.1,0-8.08,6-15.12,6a28.68,28.68,0,0,1-3.68,0c3.85-17.48,24.33-17.64,31.17-6Z"/><path class="cls-16" d="M104,89a7,7,0,1,0,7-7A7,7,0,0,0,104,89Zm12,0a5,5,0,1,1-5-5A5,5,0,0,1,116,89Z"/></g></svg>