<svg xmlns="http://www.w3.org/2000/svg" xmlns:xlink="http://www.w3.org/1999/xlink" viewBox="0 0 128 128"><defs><style>.cls-1{fill:url(#linear-gradient);}.cls-2{fill:#5b8dc9;}.cls-3{fill:url(#linear-gradient-2);}.cls-4{fill:url(#linear-gradient-3);}.cls-5{fill:#3d465e;}.cls-6{fill:url(#linear-gradient-4);}.cls-7{fill:#77cacb;}.cls-8{fill:#e2607f;}.cls-9{fill:#dd4e6a;}.cls-10{fill:#edf0f4;}.cls-11{fill:#d4d8e1;}.cls-12{fill:#f6b756;}.cls-13{fill:#47566a;}</style><linearGradient id="linear-gradient" x1="64" y1="79" x2="64" y2="39" gradientUnits="userSpaceOnUse"><stop offset="0" stop-color="#7aa8d7"/><stop offset="1" stop-color="#96c8ea"/></linearGradient><linearGradient id="linear-gradient-2" x1="25" y1="89" x2="25" y2="69" gradientUnits="userSpaceOnUse"><stop offset="0" stop-color="#464f6b"/><stop offset="1" stop-color="#575f7c"/></linearGradient><linearGradient id="linear-gradient-3" x1="107" x2="107" xlink:href="#linear-gradient-2"/><linearGradient id="linear-gradient-4" x1="64" y1="56.03" x2="64" y2="38.98" gradientUnits="userSpaceOnUse"><stop offset="0" stop-color="#9dd5df"/><stop offset="1" stop-color="#c3e1f5"/></linearGradient></defs><title>Sedan</title><g id="Sedan"><path class="cls-1" d="M127,64.9V79H15L1,76V59a4.07,4.07,0,0,1,3.56-4l12.7-1.6L31.21,41a8.1,8.1,0,0,1,5.38-2H75.11a8.11,8.11,0,0,1,5.43,2.08C98.28,57,96.4,55.4,96.78,55.47l27,5.45A4.06,4.06,0,0,1,127,64.9Z"/><polygon class="cls-2" points="127 76 127 79 15 79 1 75.95 1 72.95 15 76 127 76"/><circle class="cls-3" cx="25" cy="79" r="10"/><circle class="cls-4" cx="107" cy="79" r="10"/><path class="cls-5" d="M25,89a10,10,0,0,1-9.95-11A10,10,0,0,0,35,78,10,10,0,0,1,25,89Z"/><path class="cls-5" d="M107,89a10,10,0,0,1-10-11A10,10,0,0,0,117,78,10,10,0,0,1,107,89Z"/><path class="cls-6" d="M33.52,56l-2-4.06L41,39s35.9,0,36,0L96.52,55.42C92.92,56.25,100.81,56,33.52,56Z"/><path class="cls-7" d="M33.52,56l-2-4.06,1.19-1.62L34.52,54H94.94C97.82,56.59,104.23,56,33.52,56Z"/><rect class="cls-8" x="1" y="62" width="6" height="8"/><rect class="cls-9" x="1" y="67" width="6" height="3"/><circle class="cls-10" cx="25" cy="79" r="5"/><circle class="cls-10" cx="107" cy="79" r="5"/><path class="cls-11" d="M107,74a5,5,0,0,1,4.9,6,5,5,0,0,0-9.8,0A5,5,0,0,1,107,74Z"/><path class="cls-11" d="M25,74a5,5,0,0,1,4.9,6,5,5,0,0,0-9.8,0A5,5,0,0,1,25,74Z"/><path class="cls-12" d="M127,72h-1.5a2.5,2.5,0,0,1,0-5H127Z"/><path class="cls-13" d="M123.94,59.94,97,54.49,81.21,40.34A9.1,9.1,0,0,0,75.11,38H36.59a9.09,9.09,0,0,0-6,2.29L16.83,52.42,4.43,54A5.07,5.07,0,0,0,0,59V76a1,1,0,0,0,.79,1L14,79.81A11,11,0,0,0,36,80c2.21.12-10.92,0,60.1,0A11,11,0,0,0,118,80h9a1,1,0,0,0,1-1V64.9A5.08,5.08,0,0,0,123.94,59.94ZM75.11,40a7.19,7.19,0,0,1,4.77,1.82L94.55,55H65V40ZM63,55H42.89l3.75-15H63ZM41.94,40h2.64L40.83,55h-6.7l-1.47-3C42.52,39.38,41.86,40.29,41.94,40ZM2,63H6v6H2ZM25,88a9,9,0,1,1,9-9A9,9,0,0,1,25,88Zm82,0a9,9,0,1,1,9-9A9,9,0,0,1,107,88Zm11-10a11,11,0,0,0-21.9,0C23.3,78,37.87,77.91,36,78a11,11,0,0,0-21.88-.24L2,75.14V71H7a1,1,0,0,0,1-1V62a1,1,0,0,0-1-1H2V59a3.07,3.07,0,0,1,2.68-3l12.7-1.6c.45-.06-.75.89,14.49-12.57,2.38-2.1,4.67-1.79,7.64-1.79-9.42,12.1-9.32,11.59-8.92,12.38,2.13,4.26,2.1,4.62,2.93,4.62,67.91,0,63.74.17,64.2-.32l25.82,5.22a3.07,3.07,0,0,1,2.46,3V66h-.5a3.5,3.5,0,0,0,0,7h.5v5Zm8-7h-.5a1.5,1.5,0,0,1,0-3h.5Z"/><path class="cls-13" d="M25,73a6,6,0,1,0,6,6A6,6,0,0,0,25,73Zm0,10a4,4,0,1,1,4-4A4,4,0,0,1,25,83Z"/><path class="cls-13" d="M107,73a6,6,0,1,0,6,6A6,6,0,0,0,107,73Zm0,10a4,4,0,1,1,4-4A4,4,0,0,1,107,83Z"/><path class="cls-13" d="M72,63H68a1,1,0,0,0,0,2h4A1,1,0,0,0,72,63Z"/></g></svg>