<svg xmlns="http://www.w3.org/2000/svg" xmlns:xlink="http://www.w3.org/1999/xlink" viewBox="0 0 128 128"><defs><style>.cls-1{fill:url(#linear-gradient);}.cls-2{fill:#5b8dc9;}.cls-3{fill:url(#linear-gradient-2);}.cls-4{fill:#949aaf;}.cls-5{fill:#8288a1;}.cls-6{fill:url(#linear-gradient-3);}.cls-7{fill:#3d465e;}.cls-8{fill:url(#linear-gradient-4);}.cls-9{fill:#adb3c4;}.cls-10{fill:#47566a;}</style><linearGradient id="linear-gradient" x1="43.68" y1="85.28" x2="43.68" y2="72.13" gradientUnits="userSpaceOnUse"><stop offset="0" stop-color="#7aa8d7"/><stop offset="1" stop-color="#96c8ea"/></linearGradient><linearGradient id="linear-gradient-2" x1="70.1" y1="102.61" x2="70.1" y2="68.06" gradientUnits="userSpaceOnUse"><stop offset="0" stop-color="#949aaf"/><stop offset="1" stop-color="#c6ccda"/></linearGradient><linearGradient id="linear-gradient-3" x1="49.77" y1="127" x2="49.77" y2="78.23" gradientUnits="userSpaceOnUse"><stop offset="0" stop-color="#464f6b"/><stop offset="1" stop-color="#575f7c"/></linearGradient><linearGradient id="linear-gradient-4" x1="49.77" y1="112.77" x2="49.77" y2="92.45" xlink:href="#linear-gradient-2"/></defs><title>Segway</title><g id="Segway"><path class="cls-1" d="M66,72.13V85l-33.43.28-11.28-5V72.13Z"/><polygon class="cls-2" points="66.03 82 66.03 85 32.6 85.28 21.32 80.26 21.32 77.26 32.6 82.28 66.03 82"/><path class="cls-3" d="M74.16,68.06v34.55A24.33,24.33,0,0,0,66,84.42V68.06Z"/><circle class="cls-4" cx="104.65" cy="3.03" r="2.03"/><path class="cls-5" d="M74.16,90.16v12.45A24.33,24.33,0,0,0,66,84.42V80.55A27.36,27.36,0,0,1,74.16,90.16Z"/><path class="cls-2" d="M66,80.55V85l-33.43.28L29.68,84A27.45,27.45,0,0,1,66,80.55Z"/><path class="cls-6" d="M74.16,102.61A24.39,24.39,0,1,1,49.77,78.23,24.38,24.38,0,0,1,74.16,102.61Z"/><path class="cls-7" d="M49.77,127a24.37,24.37,0,0,1-24.33-25.89,24.38,24.38,0,0,0,48.67,0C75.18,114.53,64.22,127,49.77,127Z"/><circle class="cls-8" cx="49.77" cy="102.61" r="10.16"/><path class="cls-9" d="M59.83,104.11a10.17,10.17,0,0,0-20.11,0,10.17,10.17,0,1,1,20.11,0Z"/><path class="cls-10" d="M49.77,91.45a11.16,11.16,0,1,0,11.17,11.16A11.18,11.18,0,0,0,49.77,91.45Zm0,20.32a9.16,9.16,0,1,1,9.17-9.16A9.17,9.17,0,0,1,49.77,111.77Z"/><path class="cls-10" d="M101.8,2H94.48c-1.07,0,.58-3.4-25.08,65H66a1,1,0,0,0-1,1v3.07H58.9v-1A7.1,7.1,0,0,0,51.81,63H35.55a7.11,7.11,0,0,0-7.1,7.1v1H21.32a1,1,0,0,0-1,1v8.13c0,.89-.2.56,10.58,5.36C16.27,101.89,27.89,128,49.77,128a25.42,25.42,0,0,0,25.39-25.39V68.06a1,1,0,0,0-1-1H71.54L95.18,4h6.62a3,3,0,1,0,0-2ZM30.45,70.1a5.11,5.11,0,0,1,5.1-5.1H51.81a5.1,5.1,0,0,1,5.09,5.1v1H30.45Zm-8.13,3H65v9.19A25.4,25.4,0,0,0,32.4,84.09L22.32,79.61ZM49.77,126C29,126,18.55,100.68,33.31,86a23.42,23.42,0,0,1,32.06-.82C81.23,99.36,71.31,126,49.77,126ZM73.16,92.74A25.37,25.37,0,0,0,67,84V69.06h6.13ZM104.65,4.06a1,1,0,0,1,0-2.06A1,1,0,0,1,104.65,4.06Z"/></g></svg>