<svg xmlns="http://www.w3.org/2000/svg" xmlns:xlink="http://www.w3.org/1999/xlink" viewBox="0 0 128 128"><defs><style>.cls-1{fill:url(#linear-gradient);}.cls-2{fill:#dd4e6a;}.cls-3{fill:url(#linear-gradient-2);}.cls-4{fill:#c7cdd8;}.cls-5{fill:url(#linear-gradient-3);}.cls-6{fill:#8288a1;}.cls-7{fill:#47566a;}</style><linearGradient id="linear-gradient" x1="64" y1="93" x2="64" y2="1" gradientUnits="userSpaceOnUse"><stop offset="0" stop-color="#da5466"/><stop offset="1" stop-color="#e87092"/></linearGradient><linearGradient id="linear-gradient-2" x1="64" y1="85" x2="64" y2="9" gradientUnits="userSpaceOnUse"><stop offset="0" stop-color="#d4d8e1"/><stop offset="1" stop-color="#f3f4f5"/></linearGradient><linearGradient id="linear-gradient-3" x1="64" y1="127" x2="64" y2="93" gradientUnits="userSpaceOnUse"><stop offset="0" stop-color="#949aaf"/><stop offset="1" stop-color="#c6ccda"/></linearGradient></defs><title>Stop Sign</title><g id="Stop_Sign" data-name="Stop Sign"><polygon class="cls-1" points="83.05 1 44.95 1 18 27.95 18 66.05 44.95 93 83.05 93 110 66.05 110 27.95 83.05 1"/><polygon class="cls-2" points="110 62.05 110 66.05 83.05 93 44.95 93 18 66.05 18 62.05 44.95 89 83.05 89 110 62.05"/><polygon class="cls-3" points="48.26 85 26 62.74 26 31.26 48.26 9 79.74 9 102 31.26 102 62.74 79.74 85 48.26 85"/><polygon class="cls-4" points="102 59.74 102 62.74 79.74 85 48.26 85 26 62.74 26 59.74 48.26 82 79.74 82 102 59.74"/><rect class="cls-5" x="58" y="93" width="12" height="34"/><rect class="cls-6" x="58" y="123" width="12" height="4"/><path class="cls-7" d="M110.71,27.24C82-1.46,83.68,0,83.05,0,42.46,0,44.68-.15,44.24.29,15.54,29,17,27.32,17,28c0,40.59-.15,38.37.29,38.81C46,95.46,44.32,94,45,94H57v33a1,1,0,0,0,2,0V94H69v33a1,1,0,0,0,2,0V94c13,0,12.34.13,12.76-.29C112.46,65,111,66.68,111,66.05,111,25.46,111.15,27.68,110.71,27.24ZM109,65.64,82.64,92H45.36L19,65.64V28.36L45.36,2H82.64L109,28.36Z"/><path class="cls-7" d="M79.74,8C45.52,8,48,7.86,47.55,8.29,23.35,32.49,25,30.65,25,31.26c0,34.22-.14,31.76.29,32.19C49.49,87.65,47.65,86,48.26,86c34.22,0,31.76.14,32.19-.29,24.2-24.2,22.55-22.36,22.55-23,0-34.22.14-31.76-.29-32.19C78.51,6.35,80.35,8,79.74,8ZM101,62.33,79.33,84H48.67L27,62.33V31.67L48.67,10H79.33L101,31.67Z"/><path class="cls-7" d="M46,39H41.65a5,5,0,0,0,0,10,3,3,0,1,1,0,6H38a1,1,0,0,0,0,2h3.65a5,5,0,1,0,0-10,3,3,0,0,1,0-6H46A1,1,0,0,0,46,39Z"/><path class="cls-7" d="M60,39H52a1,1,0,0,0,0,2h3V56a1,1,0,0,0,2,0V41h3A1,1,0,0,0,60,39Z"/><path class="cls-7" d="M70,39a5,5,0,0,0-5,5v8a5,5,0,0,0,10,0V44A5,5,0,0,0,70,39Zm3,13a3,3,0,0,1-6,0V44a3,3,0,0,1,6,0Z"/><path class="cls-7" d="M83,56V49h3a5,5,0,0,0,0-10H82a1,1,0,0,0-1,1V56A1,1,0,0,0,83,56Zm6-12a3,3,0,0,1-3,3H83V41h3A3,3,0,0,1,89,44Z"/></g></svg>