<svg xmlns="http://www.w3.org/2000/svg" xmlns:xlink="http://www.w3.org/1999/xlink" viewBox="0 0 128 128"><defs><style>.cls-1{fill:url(#linear-gradient);}.cls-2{fill:url(#linear-gradient-2);}.cls-3{fill:#4da67f;}.cls-4{fill:url(#linear-gradient-3);}.cls-5{fill:url(#linear-gradient-4);}.cls-6{fill:#77cacb;}.cls-7{fill:url(#linear-gradient-5);}.cls-8{fill:url(#linear-gradient-6);}.cls-9{fill:url(#linear-gradient-7);}.cls-10{fill:url(#linear-gradient-8);}.cls-11{fill:url(#linear-gradient-9);}.cls-12{fill:url(#linear-gradient-10);}.cls-13{fill:url(#linear-gradient-11);}.cls-14{fill:url(#linear-gradient-12);}.cls-15{fill:#3d465e;}.cls-16{fill:#47566a;}</style><linearGradient id="linear-gradient" x1="64" y1="82" x2="64" y2="36" gradientUnits="userSpaceOnUse"><stop offset="0" stop-color="#d4d8e1"/><stop offset="1" stop-color="#f3f4f5"/></linearGradient><linearGradient id="linear-gradient-2" x1="64" y1="82" x2="64" y2="72" gradientUnits="userSpaceOnUse"><stop offset="0" stop-color="#6ab891"/><stop offset="1" stop-color="#85cba9"/></linearGradient><linearGradient id="linear-gradient-3" x1="119.58" y1="64" x2="119.58" y2="44" gradientUnits="userSpaceOnUse"><stop offset="0" stop-color="#9dd5df"/><stop offset="1" stop-color="#c3e1f5"/></linearGradient><linearGradient id="linear-gradient-4" x1="59" y1="72" x2="59" xlink:href="#linear-gradient-3"/><linearGradient id="linear-gradient-5" x1="11" y1="72" x2="11" xlink:href="#linear-gradient-3"/><linearGradient id="linear-gradient-6" x1="79" y1="58" x2="79" xlink:href="#linear-gradient-3"/><linearGradient id="linear-gradient-7" x1="91" y1="58" x2="91" xlink:href="#linear-gradient-3"/><linearGradient id="linear-gradient-8" x1="27" y1="58" x2="27" xlink:href="#linear-gradient-3"/><linearGradient id="linear-gradient-9" x1="39" y1="58" x2="39" xlink:href="#linear-gradient-3"/><linearGradient id="linear-gradient-10" x1="103" y1="58" x2="103" xlink:href="#linear-gradient-3"/><linearGradient id="linear-gradient-11" x1="68" y1="92" x2="68" y2="80" gradientUnits="userSpaceOnUse"><stop offset="0" stop-color="#464f6b"/><stop offset="1" stop-color="#575f7c"/></linearGradient><linearGradient id="linear-gradient-12" x1="80" x2="80" xlink:href="#linear-gradient-11"/></defs><title>Subway Train</title><g id="Subway_Train" data-name="Subway Train"><path class="cls-1" d="M127,82H85l-2-2H65l-2,2H1V36H111.11a8.13,8.13,0,0,1,7.66,5.39C127.58,66.28,127,61.47,127,82Z"/><path class="cls-2" d="M127,77v5H85l-2-2H65l-2,2H1V72H115.06A16.88,16.88,0,0,1,127,77Z"/><polygon class="cls-3" points="127 79 127 82 85 82 83 80 65 80 63 82 1 82 1 79 63 79 65 77 83 77 85 79 127 79"/><path class="cls-4" d="M126.28,64h-7.4c-1.48-5-4.52-15.07-6-20h6.86C124.46,57.27,125.51,59.68,126.28,64Z"/><rect class="cls-5" x="45" y="44" width="28" height="28"/><rect class="cls-6" x="45" y="69" width="28" height="3"/><rect class="cls-7" x="1" y="44" width="20" height="28"/><rect class="cls-6" x="1" y="69" width="20" height="3"/><rect class="cls-8" x="73" y="44" width="12" height="14"/><rect class="cls-9" x="85" y="44" width="12" height="14"/><rect class="cls-10" x="21" y="44" width="12" height="14"/><rect class="cls-11" x="33" y="44" width="12" height="14"/><rect class="cls-6" x="21" y="55" width="12" height="3"/><rect class="cls-6" x="33" y="55" width="12" height="3"/><path class="cls-12" d="M109,58H97V44h8C108.72,57,107.88,54.09,109,58Z"/><circle class="cls-13" cx="68" cy="86" r="6"/><circle class="cls-14" cx="80" cy="86" r="6"/><path class="cls-15" d="M68,92a6,6,0,0,1-5.8-7.5,6,6,0,0,0,11.61,0A6,6,0,0,1,68,92Z"/><path class="cls-15" d="M80,92a6,6,0,0,1-5.8-7.5,6,6,0,0,0,11.61,0A6,6,0,0,1,80,92Z"/><path class="cls-6" d="M126.28,64h-7.4l-.9-3h7.64Q126,62.49,126.28,64Z"/><polygon class="cls-6" points="109 58 73 58 73 55 108.14 55 109 58"/><path class="cls-16" d="M1,71a1,1,0,0,0,0,2H21a1,1,0,0,0,1-1V59H44V72a1,1,0,0,0,1,1H73a1,1,0,0,0,1-1V59c37.93,0,35.34.2,35.8-.4s.48.23-3.84-14.87C105.64,42.6,111.79,43,1,43a1,1,0,0,0,0,2H6V71ZM46,45H58V71H46Zm61.67,12H98V45h6.25ZM96,57H86V45H96ZM84,57H74V45H84ZM72,71H60V45H72ZM44,57H34V45H44ZM32,57H22V45H32ZM8,45H20V71H8Z"/><path class="cls-16" d="M26,71a1,1,0,0,0,0,2H39a1,1,0,0,0,0-2Z"/><path class="cls-16" d="M119.71,41.05a9.15,9.15,0,0,0-8.6-6H1a1,1,0,0,0,0,2H111.11a7.17,7.17,0,0,1,6.72,4.72l.45,1.28c-5.51,0-5.77-.18-6.2.4s-.68-.87,5.84,20.89a1,1,0,0,0,1,.71h6.58a51.58,51.58,0,0,1,.54,9.75A17.76,17.76,0,0,0,115.06,71H80a1,1,0,0,0,0,2h35.06A15.75,15.75,0,0,1,126,77.39V81H85.41c-1.8-1.8-1.86-2-2.41-2-19.52,0-18.29-.13-18.71.29L62.59,81H1a1,1,0,0,0,0,2H61.68a7,7,0,0,0,1.43,8H1a1,1,0,0,0,0,2H127a1,1,0,0,0,0-2H84.89a7,7,0,0,0,1.43-8H127a1,1,0,0,0,1-1C128,61.57,128.65,66.17,119.71,41.05ZM75.11,81c-1.93,1.88-.29,1.88-2.22,0ZM63,86a5,5,0,1,1,5,5A5,5,0,0,1,63,86Zm9.89,5c1.93-1.88.29-1.88,2.22,0ZM80,91a5,5,0,1,1,5-5A5,5,0,0,1,80,91Zm39.63-28-5.4-18H119c4.57,12.83,5.42,14.9,6.08,18Z"/></g></svg>