<svg xmlns="http://www.w3.org/2000/svg" xmlns:xlink="http://www.w3.org/1999/xlink" viewBox="0 0 128 128"><defs><style>.cls-1{fill:url(#linear-gradient);}.cls-2{fill:#8288a1;}.cls-3{fill:url(#linear-gradient-2);}.cls-4{fill:url(#linear-gradient-3);}.cls-5{fill:#3d465e;}.cls-6{fill:#d4d8e1;}.cls-7{fill:#c7cdd8;}.cls-8{fill:url(#linear-gradient-4);}.cls-9{fill:#77cacb;}.cls-10{fill:#e2607f;}.cls-11{fill:#dd4e6a;}.cls-12{fill:#fbcc88;}.cls-13{fill:#f6b756;}.cls-14{fill:#47566a;}</style><linearGradient id="linear-gradient" x1="64" y1="79" x2="64" y2="40" gradientUnits="userSpaceOnUse"><stop offset="0" stop-color="#949aaf"/><stop offset="1" stop-color="#c6ccda"/></linearGradient><linearGradient id="linear-gradient-2" x1="23" y1="91" x2="23" y2="67" gradientUnits="userSpaceOnUse"><stop offset="0" stop-color="#464f6b"/><stop offset="1" stop-color="#575f7c"/></linearGradient><linearGradient id="linear-gradient-3" x1="105" x2="105" xlink:href="#linear-gradient-2"/><linearGradient id="linear-gradient-4" x1="54.68" y1="57" x2="54.68" y2="40" gradientUnits="userSpaceOnUse"><stop offset="0" stop-color="#9dd5df"/><stop offset="1" stop-color="#c3e1f5"/></linearGradient></defs><title>SUV</title><g id="SUV"><path class="cls-1" d="M127,65.92v9L122.94,79H11.16L1,77V56.42l13.87-14A8.15,8.15,0,0,1,20.65,40H73.12a8.13,8.13,0,0,1,5.38,2l13.6,12c.51.45-2.48-.07,28.06,4A7.91,7.91,0,0,1,127,65.92Z"/><polygon class="cls-2" points="127 70.89 127 74.89 122.94 79 11.16 79 1 76.95 1 72.95 11.16 75 122.94 75 127 70.89"/><circle class="cls-3" cx="23" cy="79" r="12"/><circle class="cls-4" cx="105" cy="79" r="12"/><path class="cls-5" d="M23,91A12,12,0,0,1,11.1,77.5a12,12,0,0,0,23.8,0A12,12,0,0,1,23,91Z"/><path class="cls-5" d="M105,91A12,12,0,0,1,93.1,77.5a12,12,0,0,0,23.8,0A12,12,0,0,1,105,91Z"/><circle class="cls-6" cx="23" cy="79" r="4"/><circle class="cls-6" cx="105" cy="79" r="4"/><path class="cls-7" d="M26.87,80a4,4,0,0,0-7.74,0,4,4,0,1,1,7.74,0Z"/><path class="cls-7" d="M108.87,80a4,4,0,0,0-7.74,0,4,4,0,1,1,7.74,0Z"/><path class="cls-8" d="M92.1,54.06,86.35,57H19.29l-2-4.06c1.07-1.84,1.37-2,7.74-12.94H72.85a8.83,8.83,0,0,1,5.59,2h0C78.52,42,87.78,50.25,92.1,54.06Z"/><polygon class="cls-9" points="86.35 57 19.29 57 17.26 52.94 18.07 51.55 19.29 54 86.35 54 90.48 52.63 92.1 54.06 86.35 57"/><rect class="cls-10" x="1" y="59" width="6" height="10"/><rect class="cls-11" x="1" y="66" width="6" height="3"/><path class="cls-12" d="M127,70h-4c-3.44,0-4.09-5-1-5h5Z"/><path class="cls-13" d="M127,68v2h-4a2.91,2.91,0,0,1-2.78-3.9A3,3,0,0,0,123,68Z"/><path class="cls-14" d="M23,74a5,5,0,1,0,5,5A5,5,0,0,0,23,74Zm0,8a3,3,0,1,1,3-3A3,3,0,0,1,23,82Z"/><path class="cls-14" d="M105,74a5,5,0,1,0,5,5A5,5,0,0,0,105,74Zm0,8a3,3,0,1,1,3-3A3,3,0,0,1,105,82Z"/><path class="cls-14" d="M68,62H64a1,1,0,0,0,0,2h4A1,1,0,0,0,68,62Z"/><path class="cls-14" d="M127.89,64.56a8.91,8.91,0,0,0-7.6-7.45l-27.4-3.69C75.42,38,78.44,39,69,39a4.71,4.71,0,0,0-4.69-5H26.69A4.71,4.71,0,0,0,22,39c-2.62,0-5.28.12-7.84,2.71L.29,55.72C-.1,56.11,0,54.63,0,77a1,1,0,0,0,.8,1L10,79.79A13,13,0,0,0,36,80c1.15.06,56,0,56.1,0A13,13,0,0,0,118,80h5c.6,0,.53-.12,4.77-4.4.39-.4.29-.25.29-5.6C128,64.49,128,64.86,127.89,64.56ZM126,69h-3c-2.13,0-2.71-3-1-3h4ZM77.84,42.79,91,54.4,86.19,56H61V41H73.12A7.1,7.1,0,0,1,77.84,42.79ZM39,56V41H59V56ZM19.91,56l-1.52-3,6.84-11.72C25.44,40.89,23.82,41,37,41V56ZM24,38.69A2.7,2.7,0,0,1,26.69,36H64.31A2.72,2.72,0,0,1,67,39C20.55,39,24,39.17,24,38.69ZM2,60H6v8H2ZM23,90A11,11,0,0,1,12,79.49a1,1,0,0,0,0-1A11,11,0,1,1,23,90Zm82,0a11,11,0,1,1,11-11A11,11,0,0,1,105,90Zm17.52-12H118a13,13,0,0,0-25.9,0C92,78,37,78,36,78a13,13,0,0,0-25.89-.25L2,76.13V70H7a1,1,0,0,0,1-1V59a1,1,0,0,0-1-1H2V56.83L15.58,43.11C18,40.68,20.67,41,23.06,41c-7.12,12.21-7,11.69-6.7,12.38C18.49,57.64,18.47,58,19.29,58c72,0,67.14,0,67.38,0,6.55-2.19,6.34-2,6.62-2.46L120,59.09a6.93,6.93,0,0,1,5.7,4.91H122a3,3,0,0,0-3,3,4,4,0,0,0,4,4h3v3.48Z"/></g></svg>