<svg xmlns="http://www.w3.org/2000/svg" xmlns:xlink="http://www.w3.org/1999/xlink" viewBox="0 0 128 128"><defs><style>.cls-1{fill:url(#linear-gradient);}.cls-2{fill:#f6b756;}.cls-3{fill:url(#linear-gradient-2);}.cls-4{fill:url(#linear-gradient-3);}.cls-5{fill:#3d465e;}.cls-6{fill:url(#linear-gradient-4);}.cls-7{fill:#77cacb;}.cls-8{fill:#e2607f;}.cls-9{fill:#dd4e6a;}.cls-10{fill:#949aaf;}.cls-11{fill:#8288a1;}.cls-12{fill:url(#linear-gradient-5);}.cls-13{fill:#fff2e3;}.cls-14{fill:#c7cdd8;}.cls-15{fill:#47566a;}</style><linearGradient id="linear-gradient" x1="64" y1="84.11" x2="64" y2="40.96" gradientUnits="userSpaceOnUse"><stop offset="0" stop-color="#fbcc88"/><stop offset="1" stop-color="#ffe5c3"/></linearGradient><linearGradient id="linear-gradient-2" x1="25" y1="94" x2="25" y2="74" gradientUnits="userSpaceOnUse"><stop offset="0" stop-color="#464f6b"/><stop offset="1" stop-color="#575f7c"/></linearGradient><linearGradient id="linear-gradient-3" x1="107" x2="107" xlink:href="#linear-gradient-2"/><linearGradient id="linear-gradient-4" x1="64" y1="58.04" x2="64" y2="41" gradientUnits="userSpaceOnUse"><stop offset="0" stop-color="#9dd5df"/><stop offset="1" stop-color="#c3e1f5"/></linearGradient><linearGradient id="linear-gradient-5" x1="56.89" y1="41" x2="56.89" y2="34" gradientUnits="userSpaceOnUse"><stop offset="0" stop-color="#d4d8e1"/><stop offset="1" stop-color="#f3f4f5"/></linearGradient></defs><title>Taxi</title><g id="Taxi"><path class="cls-1" d="M127,66.85V84C-1.65,84,20.51,84.81,1,82V61a4.07,4.07,0,0,1,3.56-4l12.7-1.6,14-12.3a8.14,8.14,0,0,1,5.38-2c41.61,0,39.68-.3,41.9.74,1.55.69,1,.43,16.49,14.26,1.81,1.62,1.38,1.35,2,1.48l26.74,5.39A4.06,4.06,0,0,1,127,66.85Z"/><path class="cls-2" d="M127,80v4C-1.65,84,20.51,84.81,1,82V78C20.86,80.86-1.31,80,127,80Z"/><circle class="cls-3" cx="25" cy="84" r="10"/><circle class="cls-4" cx="107" cy="84" r="10"/><path class="cls-5" d="M25,94a10,10,0,0,1-9.88-11.48,10,10,0,0,0,19.76,0A10,10,0,0,1,25,94Z"/><path class="cls-5" d="M107,94a10,10,0,0,1-9.88-11.48,10,10,0,0,0,19.76,0A10,10,0,0,1,107,94Z"/><path class="cls-6" d="M96.52,57.38c-2.17.89,4.44.62-55.22.62a13.91,13.91,0,0,1-9.82-4.06C32.84,52.19,39.66,42.72,41,41H75.36a7.43,7.43,0,0,1,4.69,1.67l.4.33C80.9,43.3,91.19,52.6,96.52,57.38Z"/><path class="cls-7" d="M41.3,58a13.91,13.91,0,0,1-9.82-4.06l.91-1.17A13.9,13.9,0,0,0,41.3,56H95C97.91,58.63,102.6,58,41.3,58Z"/><rect class="cls-8" x="1" y="66" width="6" height="8"/><rect class="cls-9" x="1" y="71" width="6" height="3"/><circle class="cls-10" cx="25" cy="84" r="5"/><circle class="cls-10" cx="107" cy="84" r="5"/><path class="cls-11" d="M29.78,85.5a5,5,0,0,0-9.56,0,5,5,0,1,1,9.56,0Z"/><path class="cls-11" d="M111.78,85.5a5,5,0,0,0-9.56,0,5,5,0,1,1,9.56,0Z"/><path class="cls-12" d="M61.89,41h-10l2-7h6Z"/><path class="cls-13" d="M121,70h6a0,0,0,0,1,0,0v4a0,0,0,0,1,0,0h-4a2,2,0,0,1-2-2V70A0,0,0,0,1,121,70Z"/><polygon class="cls-14" points="61.89 41 51.89 41 52.75 38 61.03 38 61.89 41"/><path class="cls-15" d="M123.94,61.89,97,56.45,81.21,42.33A9.13,9.13,0,0,0,75.12,40H62.64l-1.79-6.27a1,1,0,0,0-1-.73h-6a1,1,0,0,0-1,.73L51.13,40H36.59a9.13,9.13,0,0,0-6,2.28L16.83,54.38,4.43,55.94A5.08,5.08,0,0,0,0,61V82a1,1,0,0,0,.86,1L14,84.87A11,11,0,0,0,36,85c2.21.12-10.92,0,60.1,0A11,11,0,0,0,118,85h9a1,1,0,0,0,1-1V66.85A5.07,5.07,0,0,0,123.94,61.89ZM79.87,43.82,94.59,57H65V42C75,42,77.18,41.41,79.87,43.82ZM63,57H42.9l3.75-15H63ZM41.94,42h2.65L40.85,57a12.79,12.79,0,0,1-8-3.15C42.48,41.43,41.86,42.28,41.94,42Zm12.7-7h4.49l1.43,5H53.21ZM2,67H6v6H2ZM25,93a9,9,0,1,1,9-9A9,9,0,0,1,25,93Zm82,0a9,9,0,1,1,9-9A9,9,0,0,1,107,93Zm11-10a11,11,0,0,0-21.9,0C23.3,83,37.87,82.91,36,83a11,11,0,0,0-21.89-.16L2,81.09V75H7a1,1,0,0,0,1-1V66a1,1,0,0,0-1-1H2V61a3.06,3.06,0,0,1,2.68-3l12.7-1.6c.44-.06-.78.91,14.49-12.55C34.25,41.69,36.53,42,39.51,42L30.69,53.32a1,1,0,0,0,.09,1.32A14.77,14.77,0,0,0,41.3,59H97c3.28,0-8.17-2.15,26.54,4.85a3.06,3.06,0,0,1,2.46,3V69h-5a1,1,0,0,0-1,1v2a3,3,0,0,0,3,3h3v8Zm8-10h-3a1,1,0,0,1-1-1V71h4Z"/><path class="cls-15" d="M25,78a6,6,0,1,0,6,6A6,6,0,0,0,25,78Zm0,10a4,4,0,1,1,4-4A4,4,0,0,1,25,88Z"/><path class="cls-15" d="M107,78a6,6,0,1,0,6,6A6,6,0,0,0,107,78Zm0,10a4,4,0,1,1,4-4A4,4,0,0,1,107,88Z"/><path class="cls-15" d="M72,65H68a1,1,0,0,0,0,2h4A1,1,0,0,0,72,65Z"/></g></svg>