<svg xmlns="http://www.w3.org/2000/svg" xmlns:xlink="http://www.w3.org/1999/xlink" viewBox="0 0 128 128"><defs><style>.cls-1{fill:url(#linear-gradient);}.cls-2{fill:url(#linear-gradient-2);}.cls-3{fill:#77cacb;}.cls-4{fill:url(#linear-gradient-3);}.cls-5{fill:url(#linear-gradient-4);}.cls-6{fill:url(#linear-gradient-5);}.cls-7{fill:#5b8dc9;}.cls-8{fill:#f6b756;}.cls-9{fill:#47566a;}</style><linearGradient id="linear-gradient" x1="64" y1="127" x2="64" y2="1" gradientUnits="userSpaceOnUse"><stop offset="0" stop-color="#7aa8d7"/><stop offset="1" stop-color="#96c8ea"/></linearGradient><linearGradient id="linear-gradient-2" x1="64" y1="58" x2="64" y2="13" gradientUnits="userSpaceOnUse"><stop offset="0" stop-color="#9dd5df"/><stop offset="1" stop-color="#c3e1f5"/></linearGradient><linearGradient id="linear-gradient-3" x1="40" y1="84" x2="40" y2="76" gradientUnits="userSpaceOnUse"><stop offset="0" stop-color="#464f6b"/><stop offset="1" stop-color="#575f7c"/></linearGradient><linearGradient id="linear-gradient-4" x1="88" x2="88" xlink:href="#linear-gradient-3"/><linearGradient id="linear-gradient-5" x1="64" y1="113" x2="64" y2="76" gradientUnits="userSpaceOnUse"><stop offset="0" stop-color="#fbcc88"/><stop offset="1" stop-color="#ffe5c3"/></linearGradient></defs><title>Ticket Machine</title><g id="Ticket_Machine" data-name="Ticket Machine"><path class="cls-1" d="M18,127V9.13A8.13,8.13,0,0,1,26.13,1h75.74A8.13,8.13,0,0,1,110,9.13V127Z"/><rect class="cls-2" x="29" y="13" width="70" height="45"/><rect class="cls-3" x="29" y="54" width="70" height="4"/><rect class="cls-4" x="36" y="76" width="8" height="8"/><rect class="cls-5" x="84" y="76" width="8" height="8"/><path class="cls-6" d="M84,76v37H70a6,6,0,1,0-12,0H44V76Z"/><rect class="cls-7" x="18" y="124" width="92" height="3"/><rect class="cls-8" x="44" y="76" width="40" height="3"/><path class="cls-9" d="M101.87,0H26.13A9.15,9.15,0,0,0,17,9.13V127a1,1,0,0,0,1,1h92a1,1,0,0,0,1-1V9.13A9.15,9.15,0,0,0,101.87,0ZM109,126H19V9.13A7.14,7.14,0,0,1,26.13,2h75.74A7.14,7.14,0,0,1,109,9.13Z"/><path class="cls-9" d="M99,12H29a1,1,0,0,0-1,1V58a1,1,0,0,0,1,1H99a1,1,0,0,0,1-1V13A1,1,0,0,0,99,12ZM98,57H30V14H98Z"/><path class="cls-9" d="M92,75H36a1,1,0,0,0-1,1v8a1,1,0,0,0,1,1h7v28a1,1,0,0,0,1,1H58a1,1,0,0,0,1-1,5,5,0,1,1,10,0,1,1,0,0,0,1,1H84a1,1,0,0,0,1-1V85h7a1,1,0,0,0,1-1V76A1,1,0,0,0,92,75ZM37,83V77h6v6Zm46,29H70.93a7,7,0,0,0-13.86,0H45V77H83Zm8-29H85V77h6Z"/><path class="cls-9" d="M49,87a1,1,0,0,0,0,2A1,1,0,0,0,49,87Z"/><path class="cls-9" d="M55,87a1,1,0,0,0,0,2A1,1,0,0,0,55,87Z"/><path class="cls-9" d="M61,87a1,1,0,0,0,0,2A1,1,0,0,0,61,87Z"/><path class="cls-9" d="M67,87a1,1,0,0,0,0,2A1,1,0,0,0,67,87Z"/><path class="cls-9" d="M73,87a1,1,0,0,0,0,2A1,1,0,0,0,73,87Z"/><path class="cls-9" d="M79,87a1,1,0,0,0,0,2A1,1,0,0,0,79,87Z"/></g></svg>