<svg xmlns="http://www.w3.org/2000/svg" xmlns:xlink="http://www.w3.org/1999/xlink" viewBox="0 0 128 128"><defs><style>.cls-1{fill:url(#linear-gradient);}.cls-2{fill:#c7cdd8;}.cls-3{fill:#7aa8d7;}.cls-4{fill:#464f6b;}.cls-5{fill:#3d465e;}.cls-6{fill:#fbcc88;}.cls-7{fill:#f6b756;}.cls-8{fill:url(#linear-gradient-2);}.cls-9{fill:url(#linear-gradient-3);}.cls-10{fill:#77cacb;}.cls-11{fill:#47566a;}</style><linearGradient id="linear-gradient" x1="64" y1="101" x2="64" y2="27" gradientUnits="userSpaceOnUse"><stop offset="0" stop-color="#d4d8e1"/><stop offset="1" stop-color="#f3f4f5"/></linearGradient><linearGradient id="linear-gradient-2" x1="89" y1="43" x2="117" y2="43" gradientUnits="userSpaceOnUse"><stop offset="0" stop-color="#949aaf"/><stop offset="1" stop-color="#c6ccda"/></linearGradient><linearGradient id="linear-gradient-3" x1="41.5" y1="66" x2="41.5" y2="47" gradientUnits="userSpaceOnUse"><stop offset="0" stop-color="#9dd5df"/><stop offset="1" stop-color="#c3e1f5"/></linearGradient></defs><title>Ticket Bus</title><g id="Ticket_Bus" data-name="Ticket Bus"><path class="cls-1" d="M118.87,64A8.18,8.18,0,0,0,127,72.22V101H1V72.22A8.22,8.22,0,0,0,1,55.78V27H127V55.78A8.18,8.18,0,0,0,118.87,64Z"/><rect class="cls-2" x="1" y="98" width="126" height="3"/><path class="cls-3" d="M27.11,38H55.89A4.11,4.11,0,0,1,60,42.11V79a0,0,0,0,1,0,0H23a0,0,0,0,1,0,0V42.11A4.11,4.11,0,0,1,27.11,38Z"/><path class="cls-4" d="M25,79h8a0,0,0,0,1,0,0v6a2,2,0,0,1-2,2H27a2,2,0,0,1-2-2V79A0,0,0,0,1,25,79Z"/><path class="cls-4" d="M50,79h8a0,0,0,0,1,0,0v6a2,2,0,0,1-2,2H52a2,2,0,0,1-2-2V79A0,0,0,0,1,50,79Z"/><path class="cls-5" d="M33,82v3a2,2,0,0,1-2,2H27a2,2,0,0,1-2-2V82a2,2,0,0,0,2,2h4A2,2,0,0,0,33,82Z"/><path class="cls-5" d="M58,82v3a2,2,0,0,1-2,2H52a2,2,0,0,1-2-2V82a2,2,0,0,0,2,2h4A2,2,0,0,0,58,82Z"/><circle class="cls-6" cx="29" cy="73" r="2"/><circle class="cls-6" cx="54" cy="73" r="2"/><path class="cls-7" d="M29,75a2,2,0,0,1-1.93-2.5,2,2,0,0,0,3.86,0A2,2,0,0,1,29,75Z"/><path class="cls-7" d="M54,75a2,2,0,0,1-1.93-2.5,2,2,0,0,0,3.86,0A2,2,0,0,1,54,75Z"/><rect class="cls-8" x="89" y="37" width="28" height="12"/><rect class="cls-9" x="23" y="47" width="37" height="19"/><rect class="cls-10" x="23" y="63" width="37" height="3"/><path class="cls-11" d="M127,56.78a1,1,0,0,0,1-1V27a1,1,0,0,0-1-1H1a1,1,0,0,0-1,1V55.78a1,1,0,0,0,1,1A7.22,7.22,0,0,1,1,71.22a1,1,0,0,0-1,1V101a1,1,0,0,0,1,1H127a1,1,0,0,0,1-1V72.22a1,1,0,0,0-1-1,7.22,7.22,0,0,1,0-14.44ZM117.87,64A9.22,9.22,0,0,0,126,73.17V100H2V73.17A9.24,9.24,0,0,0,2,54.83V28H126V54.83A9.22,9.22,0,0,0,117.87,64Z"/><path class="cls-11" d="M29,70a3,3,0,1,0,3,3A3,3,0,0,0,29,70Zm0,4a1,1,0,0,1,0-2A1,1,0,0,1,29,74Z"/><path class="cls-11" d="M54,70a3,3,0,1,0,3,3A3,3,0,0,0,54,70Zm0,4a1,1,0,0,1,0-2A1,1,0,0,1,54,74Z"/><path class="cls-11" d="M46,72H37a1,1,0,0,0,0,2h9A1,1,0,0,0,46,72Z"/><path class="cls-11" d="M63.94,46H61V42.11A5.11,5.11,0,0,0,55.89,37H27.11A5.11,5.11,0,0,0,22,42.11V46H19.06A5.07,5.07,0,0,0,14,51.06V55a1,1,0,0,0,2,0V51.06A3.07,3.07,0,0,1,19.06,48H22V79a1,1,0,0,0,1,1h1v5a3,3,0,0,0,3,3h4a3,3,0,0,0,3-3V80H49v5a3,3,0,0,0,3,3h4a3,3,0,0,0,3-3V80h1a1,1,0,0,0,1-1V48h2.94A3.07,3.07,0,0,1,67,51.06V55a1,1,0,0,0,2,0V51.06A5.07,5.07,0,0,0,63.94,46ZM59,64H24V48H59ZM27.11,39H55.89A3.11,3.11,0,0,1,59,42.11V46H24V42.11A3.11,3.11,0,0,1,27.11,39ZM32,85a1,1,0,0,1-1,1H27a1,1,0,0,1-1-1V80h6Zm25,0a1,1,0,0,1-1,1H52a1,1,0,0,1-1-1V80h6ZM24,78V66H59V78Z"/><path class="cls-11" d="M78,30a1,1,0,0,0,0,2A1,1,0,0,0,78,30Z"/><path class="cls-11" d="M78,36a1,1,0,0,0,0,2A1,1,0,0,0,78,36Z"/><path class="cls-11" d="M78,42a1,1,0,0,0,0,2A1,1,0,0,0,78,42Z"/><path class="cls-11" d="M78,48a1,1,0,0,0,0,2A1,1,0,0,0,78,48Z"/><path class="cls-11" d="M78,54a1,1,0,0,0,0,2A1,1,0,0,0,78,54Z"/><path class="cls-11" d="M78,60a1,1,0,0,0,0,2A1,1,0,0,0,78,60Z"/><path class="cls-11" d="M78,66a1,1,0,0,0,0,2A1,1,0,0,0,78,66Z"/><path class="cls-11" d="M78,72a1,1,0,0,0,0,2A1,1,0,0,0,78,72Z"/><path class="cls-11" d="M78,78a1,1,0,0,0,0,2A1,1,0,0,0,78,78Z"/><path class="cls-11" d="M78,84a1,1,0,0,0,0,2A1,1,0,0,0,78,84Z"/><path class="cls-11" d="M78,90a1,1,0,0,0,0,2A1,1,0,0,0,78,90Z"/><path class="cls-11" d="M78,96a1,1,0,0,0,0,2A1,1,0,0,0,78,96Z"/><path class="cls-11" d="M117,36H89a1,1,0,0,0-1,1V49a1,1,0,0,0,1,1h28a1,1,0,0,0,1-1V37A1,1,0,0,0,117,36Zm-1,12H90V38h26Z"/><path class="cls-11" d="M93,69V59a1,1,0,0,0-2,0V69A1,1,0,0,0,93,69Z"/><path class="cls-11" d="M102,69V59a1,1,0,0,0-2,0V69A1,1,0,0,0,102,69Z"/><path class="cls-11" d="M110,69V59a1,1,0,0,0-2,0V69A1,1,0,0,0,110,69Z"/><path class="cls-11" d="M117,80H88a1,1,0,0,0,0,2h29A1,1,0,0,0,117,80Z"/><path class="cls-11" d="M117,88H88a1,1,0,0,0,0,2h29A1,1,0,0,0,117,88Z"/></g></svg>