<svg xmlns="http://www.w3.org/2000/svg" xmlns:xlink="http://www.w3.org/1999/xlink" viewBox="0 0 128 128"><defs><style>.cls-1{fill:url(#linear-gradient);}.cls-2{fill:#adb3c4;}.cls-3{fill:url(#linear-gradient-2);}.cls-4{fill:#8288a1;}.cls-5{fill:#464f6b;}.cls-6{fill:url(#linear-gradient-3);}.cls-7{fill:url(#linear-gradient-4);}.cls-8{fill:#3d465e;}.cls-9{fill:url(#linear-gradient-5);}.cls-10{fill:#5b8dc9;}.cls-11{fill:url(#linear-gradient-6);}.cls-12{fill:#949aaf;}.cls-13{fill:url(#linear-gradient-7);}.cls-14{fill:#77cacb;}.cls-15{fill:#fbcc88;}.cls-16{fill:#f6b756;}.cls-17{fill:url(#linear-gradient-8);}.cls-18{fill:url(#linear-gradient-9);}.cls-19{fill:#dd4e6a;}.cls-20{fill:#47566a;}</style><linearGradient id="linear-gradient" x1="51.52" y1="45.06" x2="51.52" y2="32.87" gradientUnits="userSpaceOnUse"><stop offset="0" stop-color="#949aaf"/><stop offset="1" stop-color="#c6ccda"/></linearGradient><linearGradient id="linear-gradient-2" x1="44.5" y1="87" x2="44.5" y2="73" xlink:href="#linear-gradient"/><linearGradient id="linear-gradient-3" x1="19" y1="97" x2="19" y2="77" gradientUnits="userSpaceOnUse"><stop offset="0" stop-color="#464f6b"/><stop offset="1" stop-color="#575f7c"/></linearGradient><linearGradient id="linear-gradient-4" x1="44" y1="97" x2="44" y2="77" xlink:href="#linear-gradient-3"/><linearGradient id="linear-gradient-5" x1="107.5" y1="87" x2="107.5" y2="43" gradientUnits="userSpaceOnUse"><stop offset="0" stop-color="#7aa8d7"/><stop offset="1" stop-color="#96c8ea"/></linearGradient><linearGradient id="linear-gradient-6" x1="102" y1="97" x2="102" y2="77" xlink:href="#linear-gradient-3"/><linearGradient id="linear-gradient-7" x1="112" y1="69" x2="112" y2="43" gradientUnits="userSpaceOnUse"><stop offset="0" stop-color="#9dd5df"/><stop offset="1" stop-color="#c3e1f5"/></linearGradient><linearGradient id="linear-gradient-8" x1="75" y1="73" x2="75" y2="40.5" xlink:href="#linear-gradient"/><linearGradient id="linear-gradient-9" x1="15" y1="43" x2="15" y2="31" xlink:href="#linear-gradient"/></defs><title>tow truck</title><g id="tow_truck" data-name="tow truck"><polygon class="cls-1" points="73.32 44.52 69.81 41 19 41 19 34.9 79.97 32.87 84.03 41 79.97 45.06 73.32 44.52"/><polygon class="cls-2" points="84.03 41 79.97 45.06 73.32 44.52 69.81 41 19 41 19 39 69.81 39 73.32 42.52 79.97 43.06 83.36 39.67 84.03 41"/><path class="cls-3" d="M1,87V73H88V87Z"/><path class="cls-4" d="M1,87V83H88v4Z"/><circle class="cls-5" cx="19" cy="87" r="10"/><circle class="cls-5" cx="44" cy="87" r="10"/><circle class="cls-6" cx="19" cy="87" r="10"/><circle class="cls-7" cx="44" cy="87" r="10"/><path class="cls-8" d="M19,97A10,10,0,0,1,9.12,85.52a10,10,0,0,0,19.76,0A10,10,0,0,1,19,97Z"/><path class="cls-8" d="M44,97a10,10,0,0,1-9.88-11.48,10,10,0,0,0,19.76,0A10,10,0,0,1,44,97Z"/><path class="cls-9" d="M127,65.5V87H88V43h27.92a4.11,4.11,0,0,1,3.85,2.7Z"/><rect class="cls-10" x="88" y="83" width="39" height="4"/><circle class="cls-2" cx="19" cy="87" r="4"/><circle class="cls-2" cx="44" cy="87" r="4"/><circle class="cls-5" cx="102" cy="87" r="10"/><circle class="cls-11" cx="102" cy="87" r="10"/><path class="cls-8" d="M102,97a10,10,0,0,1-9.88-11.48,10,10,0,0,0,19.76,0A10,10,0,0,1,102,97Z"/><circle class="cls-2" cx="102" cy="87" r="4"/><path class="cls-12" d="M22.87,88a4,4,0,0,0-7.74,0,4,4,0,1,1,7.74,0Z"/><path class="cls-12" d="M47.87,88a4,4,0,0,0-7.74,0,4,4,0,1,1,7.74,0Z"/><path class="cls-12" d="M105.87,88a4,4,0,0,0-7.74,0,4,4,0,1,1,7.74,0Z"/><path class="cls-13" d="M118,43H97V63h16l6,6h8V65.5C119.06,43.74,118.28,43.44,118,43Z"/><polygon class="cls-14" points="119 66 113 60 110 60 97 60 97 63 110 63 113 63 119 69 127 69 127 66 119 66"/><path class="cls-15" d="M125,75h2a0,0,0,0,1,0,0v7a0,0,0,0,1,0,0h-2a2,2,0,0,1-2-2V77A2,2,0,0,1,125,75Z"/><path class="cls-16" d="M127,80v2h-2a2,2,0,0,1-2-2V78a2,2,0,0,0,2,2Z"/><path class="cls-17" d="M80,73H70V66.9l3.58-23.67a3.23,3.23,0,0,1,6.42.48Z"/><rect class="cls-18" x="11" y="31" width="8" height="12" rx="2"/><path class="cls-4" d="M19,39v2a2,2,0,0,1-2,2H13a2,2,0,0,1-2-2V39a2,2,0,0,0,2,2h4A2,2,0,0,0,19,39Z"/><rect class="cls-19" x="1" y="77" width="4" height="4"/><rect class="cls-4" x="70" y="70" width="10" height="3"/><path class="cls-20" d="M19,82a5,5,0,1,0,5,5A5,5,0,0,0,19,82Zm0,8a3,3,0,1,1,3-3A3,3,0,0,1,19,90Z"/><path class="cls-20" d="M44,82a5,5,0,1,0,5,5A5,5,0,0,0,44,82Zm0,8a3,3,0,1,1,3-3A3,3,0,0,1,44,90Z"/><path class="cls-20" d="M102,82a5,5,0,1,0,5,5A5,5,0,0,0,102,82Zm0,8a3,3,0,1,1,3-3A3,3,0,0,1,102,90Z"/><path class="cls-20" d="M127.94,65.16l-7.23-19.81A5.13,5.13,0,0,0,115.92,42H88a1,1,0,0,0-1,1V72H81V45.45l3.74-3.74a1,1,0,0,0,.19-1.16l-4.07-8.13c-.44-.87,3-.68-60.86,1.45V33a3,3,0,0,0-3-3H13a3,3,0,0,0-3,3v8a3,3,0,0,0,3,3h1v7.9a5.11,5.11,0,0,0,2.57,4.4A3.07,3.07,0,0,1,18,59.67c-.8,3.5-6,2.84-6-.73a1,1,0,0,0-2,0,5.07,5.07,0,1,0,7.65-4.36A3.13,3.13,0,0,1,16,51.9V44h1a3,3,0,0,0,2.82-2H69.39l2.93,2.92C68.34,71.2,69,65.11,69,72H1a1,1,0,0,0-1,1V87a1,1,0,0,0,1,1H8.05A11,11,0,0,0,30,88h3.1A11,11,0,0,0,55,88h36.1A11,11,0,0,0,113,88h14a1,1,0,0,0,1-1C128,64.1,128,65.42,127.94,65.16ZM118.83,46c8.25,22.6,7.17,18.75,7.17,22h-6.59l-5.7-5.71c-.39-.39-.52-.29-3.71-.29V44h5.92A3.11,3.11,0,0,1,118.83,46ZM98,62V44h10V62ZM17,42H13a1,1,0,0,1-1-1V33a1,1,0,0,1,1-1h4a1,1,0,0,1,1,1v8A1,1,0,0,1,17,42Zm52.81-2H20V35.87l59.36-2,3.46,6.91-1.94,1.94a4.22,4.22,0,0,0-8.15-.23C70.32,40.1,70.35,40,69.81,40Zm4.76,3.38a2.23,2.23,0,0,1,4.43.33V72H71C71,65.3,70.42,70.8,74.57,43.38ZM2,78H4v2H2Zm0,4H5a1,1,0,0,0,1-1V77a1,1,0,0,0-1-1H2V74H87V86H55a11,11,0,0,0-21.9,0H30a11,11,0,0,0-21.9,0H2ZM19,96a9,9,0,1,1,9-9A9,9,0,0,1,19,96Zm25,0a9,9,0,1,1,9-9A9,9,0,0,1,44,96Zm58,0a9,9,0,1,1,9-9A9,9,0,0,1,102,96Zm11-10a11,11,0,0,0-21.9,0H89V44h7V63a1,1,0,0,0,1,1h15.59l5.7,5.71c.42.41.29.29,7.71.29v4h-1a3,3,0,0,0-3,3v3a3,3,0,0,0,3,3h1v3Zm13-5h-1a1,1,0,0,1-1-1V77a1,1,0,0,1,1-1h1Z"/><path class="cls-20" d="M103,70H99a1,1,0,0,0,0,2h4A1,1,0,0,0,103,70Z"/></g></svg>