<svg xmlns="http://www.w3.org/2000/svg" xmlns:xlink="http://www.w3.org/1999/xlink" viewBox="0 0 128 128"><defs><style>.cls-1{fill:url(#linear-gradient);}.cls-2{fill:#3d465e;}.cls-3{fill:url(#linear-gradient-2);}.cls-4{fill:#4da67f;}.cls-5{fill:url(#linear-gradient-3);}.cls-6{fill:url(#linear-gradient-4);}.cls-7{fill:url(#linear-gradient-5);}.cls-8{fill:url(#linear-gradient-6);}.cls-9{fill:#77cacb;}.cls-10{fill:url(#linear-gradient-7);}.cls-11{fill:url(#linear-gradient-8);}.cls-12{fill:#f6b756;}.cls-13{fill:#dd4e6a;}.cls-14{fill:url(#linear-gradient-9);}.cls-15{fill:url(#linear-gradient-10);}.cls-16{fill:#5b8dc9;}.cls-17{fill:#464f6b;}.cls-18{fill:url(#linear-gradient-11);}.cls-19{fill:url(#linear-gradient-12);}.cls-20{fill:#c6ccda;}.cls-21{fill:#949aaf;}.cls-22{fill:url(#linear-gradient-13);}.cls-23{fill:url(#linear-gradient-14);}.cls-24{fill:url(#linear-gradient-15);}.cls-25{fill:url(#linear-gradient-16);}.cls-26{fill:url(#linear-gradient-17);}.cls-27{fill:url(#linear-gradient-18);}.cls-28{fill:url(#linear-gradient-19);}.cls-29{fill:url(#linear-gradient-20);}.cls-30{fill:url(#linear-gradient-21);}.cls-31{fill:url(#linear-gradient-22);}.cls-32{fill:url(#linear-gradient-23);}.cls-33{fill:#47566a;}</style><linearGradient id="linear-gradient" x1="13.19" y1="72.13" x2="13.19" y2="58.35" gradientUnits="userSpaceOnUse"><stop offset="0" stop-color="#464f6b"/><stop offset="1" stop-color="#575f7c"/></linearGradient><linearGradient id="linear-gradient-2" x1="45.57" y1="60.14" x2="45.57" y2="27.56" gradientUnits="userSpaceOnUse"><stop offset="0" stop-color="#6ab891"/><stop offset="1" stop-color="#85cba9"/></linearGradient><linearGradient id="linear-gradient-3" x1="5.94" y1="27.56" x2="5.94" y2="17.4" xlink:href="#linear-gradient-2"/><linearGradient id="linear-gradient-4" x1="85.2" y1="27.56" x2="85.2" y2="17.4" xlink:href="#linear-gradient-2"/><linearGradient id="linear-gradient-5" x1="45.57" y1="29.62" x2="45.57" y2="1.14" xlink:href="#linear-gradient-2"/><linearGradient id="linear-gradient-6" x1="45.57" y1="29.62" x2="45.57" y2="9.27" gradientUnits="userSpaceOnUse"><stop offset="0" stop-color="#9dd5df"/><stop offset="1" stop-color="#c3e1f5"/></linearGradient><linearGradient id="linear-gradient-7" x1="86.9" y1="87.37" x2="86.9" y2="54.85" gradientUnits="userSpaceOnUse"><stop offset="0" stop-color="#da5466"/><stop offset="1" stop-color="#e87092"/></linearGradient><linearGradient id="linear-gradient-8" x1="111.8" y1="79.24" x2="111.8" y2="69.08" gradientUnits="userSpaceOnUse"><stop offset="0" stop-color="#fbcc88"/><stop offset="1" stop-color="#ffe5c3"/></linearGradient><linearGradient id="linear-gradient-9" x1="114.79" y1="99.59" x2="114.79" y2="85.79" xlink:href="#linear-gradient"/><linearGradient id="linear-gradient-10" x1="64" y1="114.87" x2="64" y2="82.29" gradientUnits="userSpaceOnUse"><stop offset="0" stop-color="#7aa8d7"/><stop offset="1" stop-color="#96c8ea"/></linearGradient><linearGradient id="linear-gradient-11" x1="31.48" y1="127" x2="31.48" y2="113.22" xlink:href="#linear-gradient"/><linearGradient id="linear-gradient-12" x1="96.52" y1="127" x2="96.52" y2="113.22" xlink:href="#linear-gradient"/><linearGradient id="linear-gradient-13" x1="24.37" y1="82.29" x2="24.37" y2="72.13" xlink:href="#linear-gradient-10"/><linearGradient id="linear-gradient-14" x1="103.63" y1="82.29" x2="103.63" y2="72.13" xlink:href="#linear-gradient-10"/><linearGradient id="linear-gradient-15" x1="34.53" y1="106.68" x2="34.53" y2="96.52" xlink:href="#linear-gradient-8"/><linearGradient id="linear-gradient-16" x1="93.47" y1="106.68" x2="93.47" y2="96.52" xlink:href="#linear-gradient-8"/><linearGradient id="linear-gradient-17" x1="16.24" y1="51.81" x2="16.24" y2="41.65" xlink:href="#linear-gradient-8"/><linearGradient id="linear-gradient-18" x1="82.29" y1="56.91" x2="82.29" y2="28.44" xlink:href="#linear-gradient-7"/><linearGradient id="linear-gradient-19" x1="82.29" y1="56.92" x2="82.29" y2="36.57" xlink:href="#linear-gradient-6"/><linearGradient id="linear-gradient-20" x1="42.66" y1="54.85" x2="42.66" y2="44.69" xlink:href="#linear-gradient-7"/><linearGradient id="linear-gradient-21" x1="121.92" y1="54.85" x2="121.92" y2="44.69" xlink:href="#linear-gradient-7"/><linearGradient id="linear-gradient-22" x1="64" y1="84.35" x2="64" y2="55.87" xlink:href="#linear-gradient-10"/><linearGradient id="linear-gradient-23" x1="64" y1="84.35" x2="64" y2="64" xlink:href="#linear-gradient-6"/></defs><title>Traffic Jam</title><g id="Traffic_Jam" data-name="Traffic Jam"><path class="cls-1" d="M21.32,59.94v8.12a4.08,4.08,0,0,1-4.06,4.07H9.13a4.08,4.08,0,0,1-4.07-4.07V58.35"/><path class="cls-2" d="M21.32,65.06v3a4.08,4.08,0,0,1-4.06,4.07H9.13a4.08,4.08,0,0,1-4.07-4.07v-3a4.08,4.08,0,0,0,4.07,4.07h8.13A4.08,4.08,0,0,0,21.32,65.06Z"/><path class="cls-3" d="M90.28,54.41a4.07,4.07,0,0,1-3.62,4c-19.6,2.18-6,1.63-67.51,1.63L4.48,58.45a4.07,4.07,0,0,1-3.62-4C.86,38.21-.28,39.66,11,27.56a104.78,104.78,0,0,0,20.53,2c29.14,0,35.79.52,48.57-2C91.42,39.66,90.28,38.24,90.28,54.41Z"/><path class="cls-4" d="M90.28,50.41v4a4.07,4.07,0,0,1-3.62,4c-19.6,2.18-6,1.63-67.51,1.63L4.48,58.45a4.07,4.07,0,0,1-3.62-4v-4a4.07,4.07,0,0,0,3.62,4c19.61,2.18,6,1.63,67.51,1.63l14.67-1.63A4.07,4.07,0,0,0,90.28,50.41Z"/><path class="cls-5" d="M5.94,27.56H11V22.48a5.08,5.08,0,1,0-5.08,5.08Z"/><path class="cls-6" d="M85.2,27.56H80.12V22.48a5.08,5.08,0,1,1,5.08,5.08Z"/><path class="cls-4" d="M11,24.56v3H5.94A5.08,5.08,0,0,1,1.09,21a5,5,0,0,0,1.26,2.08C4.31,25,6.31,24.56,11,24.56Z"/><path class="cls-4" d="M85.2,27.56H80.12v-3c4.73,0,6.76.42,8.67-1.49A5,5,0,0,0,90.05,21,5.08,5.08,0,0,1,85.2,27.56Z"/><path class="cls-7" d="M80.12,27.56c-12.43,2.48-17.54,2-48.57,2a104.78,104.78,0,0,1-20.53-2L17.91,8.22A12.22,12.22,0,0,1,29,1.14H62.16A12.22,12.22,0,0,1,73.23,8.22C74.69,12.31,73.26,8.29,80.12,27.56Z"/><path class="cls-8" d="M80.12,27.56c-12.43,2.48-17.54,2-48.57,2a104.78,104.78,0,0,1-20.53-2l5.87-16.49a11.72,11.72,0,0,1,6.33-1.8h44.7A11.91,11.91,0,0,1,74.22,11C74.32,11.09,74.09,10.62,80.12,27.56Z"/><path class="cls-9" d="M80.12,27.56c-12.43,2.48-17.54,2-48.57,2a104.78,104.78,0,0,1-20.53-2l1.34-3.75c12,2.26,17.7,1.78,47.23,1.78a103.82,103.82,0,0,0,19.19-1.78Z"/><path class="cls-10" d="M127,81.7a4.08,4.08,0,0,1-3.62,4c-19.18,1.75-9.12,1.62-20.1,1.62L46.77,55.89l1-1c2,.41,4,.74,6,1,36.47,1.17,48.12,2,63.1-1C128.13,67,127,65.47,127,81.7Z"/><circle class="cls-11" cx="111.8" cy="74.16" r="5.08"/><path class="cls-12" d="M111.8,79.24A5.07,5.07,0,0,1,107,72.67a5.08,5.08,0,0,0,9.7,0A5.08,5.08,0,0,1,111.8,79.24Z"/><path class="cls-13" d="M127,77.7v4a4.08,4.08,0,0,1-3.62,4c-19.18,1.75-9.12,1.62-20.1,1.62l-7.18-4c15.88,0,9.76.32,26.84-1.58A4.1,4.1,0,0,0,127,77.7Z"/><path class="cls-13" d="M96.1,83.37c-.13,0,0,.07-.77-.43Z"/><path class="cls-14" d="M122.94,85.79V95.5a4.07,4.07,0,0,1-4.07,4.06c-8.28,0-8.87.21-10.16-.54-2.44-8.77-2-6.17-2-11.65Z"/><path class="cls-2" d="M122.94,92.5v3a4.08,4.08,0,0,1-4.07,4.06h-8.13a4.08,4.08,0,0,1-4.06-4.06v-3a4.08,4.08,0,0,0,4.06,4.06h8.13A4.08,4.08,0,0,0,122.94,92.5Z"/><path class="cls-15" d="M108.71,109.14a4.07,4.07,0,0,1-3.62,4c-19.61,2.18-6,1.63-67.51,1.63l-14.67-1.63a4.07,4.07,0,0,1-3.62-4c0-16.2-1.14-14.75,10.16-26.85a104.78,104.78,0,0,0,20.53,2c29.14,0,35.79.52,48.57-2C109.85,94.39,108.71,93,108.71,109.14Z"/><path class="cls-16" d="M108.71,105.14v4a4.07,4.07,0,0,1-3.62,4c-19.61,2.18-6,1.63-67.51,1.63l-14.67-1.63a4.07,4.07,0,0,1-3.62-4v-4a4.07,4.07,0,0,0,3.62,4c19.61,2.18,6,1.63,67.51,1.63l14.67-1.63A4.07,4.07,0,0,0,108.71,105.14Z"/><path class="cls-17" d="M39.61,114.81v8.13A4.08,4.08,0,0,1,35.55,127H27.42a4.08,4.08,0,0,1-4.07-4.06v-9.72Z"/><path class="cls-17" d="M104.65,113.22v9.72a4.08,4.08,0,0,1-4.07,4.06H92.45a4.08,4.08,0,0,1-4.06-4.06v-8.13Z"/><path class="cls-18" d="M39.61,114.81v8.13A4.08,4.08,0,0,1,35.55,127H27.42a4.08,4.08,0,0,1-4.07-4.06v-9.72Z"/><path class="cls-19" d="M104.65,113.22v9.72a4.08,4.08,0,0,1-4.07,4.06H92.45a4.08,4.08,0,0,1-4.06-4.06v-8.13Z"/><path class="cls-2" d="M39.61,119.94v3A4.08,4.08,0,0,1,35.55,127H27.42a4.08,4.08,0,0,1-4.07-4.06v-3A4.08,4.08,0,0,0,27.42,124h8.13A4.08,4.08,0,0,0,39.61,119.94Z"/><path class="cls-2" d="M104.65,119.94v3a4.08,4.08,0,0,1-4.07,4.06H92.45a4.08,4.08,0,0,1-4.06-4.06v-3A4.08,4.08,0,0,0,92.45,124h8.13A4.08,4.08,0,0,0,104.65,119.94Z"/><polygon class="cls-20" points="78.19 106.68 49.81 106.68 53.87 98.55 74.13 98.55 78.19 106.68"/><polygon class="cls-21" points="78.19 106.68 49.81 106.68 51.31 103.68 76.69 103.68 78.19 106.68"/><path class="cls-22" d="M24.37,82.29h5.08V77.21a5.08,5.08,0,1,0-5.08,5.08Z"/><path class="cls-23" d="M103.63,82.29H98.55V77.21a5.08,5.08,0,1,1,5.08,5.08Z"/><path class="cls-16" d="M29.45,79.29v3H24.37a5.08,5.08,0,0,1-4.85-6.57,5,5,0,0,0,1.26,2.08C22.73,79.75,24.74,79.29,29.45,79.29Z"/><path class="cls-16" d="M103.63,82.29H98.55v-3c4.72,0,6.76.42,8.67-1.49a5,5,0,0,0,1.26-2.08A5.08,5.08,0,0,1,103.63,82.29Z"/><circle class="cls-24" cx="34.53" cy="101.6" r="5.08"/><circle class="cls-25" cx="93.47" cy="101.6" r="5.08"/><path class="cls-12" d="M34.53,106.68a5.08,5.08,0,0,1-4.85-6.57,5.08,5.08,0,0,0,9.7,0A5.07,5.07,0,0,1,34.53,106.68Z"/><path class="cls-12" d="M93.47,106.68a5.07,5.07,0,0,1-4.85-6.57,5.08,5.08,0,0,0,9.7,0A5.08,5.08,0,0,1,93.47,106.68Z"/><path class="cls-20" d="M31.52,50.77l4.06-8.12H52.09l-2.9,8.12Z"/><circle class="cls-26" cx="16.24" cy="46.73" r="5.08"/><path class="cls-12" d="M16.24,51.81a5.08,5.08,0,0,1-4.85-6.57,5.08,5.08,0,0,0,9.7,0A5.08,5.08,0,0,1,16.24,51.81Z"/><path class="cls-27" d="M116.84,54.85c-11.76,2.38-19.5,2-31.38,2-34.11-1.1-31.44-.75-37.72-2l6.89-19.33a12.2,12.2,0,0,1,11.08-7.08H98.88A12.2,12.2,0,0,1,110,35.52Z"/><path class="cls-28" d="M116.84,54.86c-12.44,2.48-17.54,2-48.57,2a104.78,104.78,0,0,1-20.53-2l5.87-16.49c.59-.6,3.45-1.8,6.33-1.8h44.7a11.91,11.91,0,0,1,6.3,1.77C111,38.39,110.81,37.92,116.84,54.86Z"/><path class="cls-9" d="M116.84,54.86c-12.44,2.48-17.54,2-48.57,2a104.78,104.78,0,0,1-20.53-2l1.34-3.75c12,2.26,17.7,1.78,47.23,1.78a103.82,103.82,0,0,0,19.19-1.78Z"/><path class="cls-29" d="M42.66,54.85h5.08V49.77a5.08,5.08,0,1,0-5.08,5.08Z"/><path class="cls-30" d="M121.92,54.85h-5.08V49.77a5.08,5.08,0,1,1,5.08,5.08Z"/><path class="cls-13" d="M47.74,51.85v3H42.66a5.08,5.08,0,0,1-4.85-6.57,5,5,0,0,0,1.26,2.08C41,52.32,43,51.85,47.74,51.85Z"/><path class="cls-13" d="M121.92,54.85h-5.08v-3c4.72,0,6.76.43,8.67-1.49a5,5,0,0,0,1.26-2.08A5.08,5.08,0,0,1,121.92,54.85Z"/><path class="cls-31" d="M98.55,82.29c-12.44,2.48-17.54,2-48.57,2a104.78,104.78,0,0,1-20.53-2C36.16,63.43,35,66.72,36.34,63a12.22,12.22,0,0,1,11.07-7.08H80.59A12.22,12.22,0,0,1,91.66,63C93.12,67,91.69,63,98.55,82.29Z"/><path class="cls-32" d="M98.55,82.29c-12.44,2.48-17.54,2-48.57,2a104.78,104.78,0,0,1-20.53-2L35.32,65.8A11.69,11.69,0,0,1,41.65,64h44.7a11.91,11.91,0,0,1,6.3,1.77C92.75,65.82,92.52,65.36,98.55,82.29Z"/><path class="cls-9" d="M98.55,82.29c-12.44,2.48-17.54,2-48.57,2a104.78,104.78,0,0,1-20.53-2l1.34-3.75c12,2.26,17.7,1.78,47.23,1.78a103.82,103.82,0,0,0,19.19-1.78Z"/><path class="cls-33" d="M75,98.1c-.39-.79.69-.55-21.15-.55-.86,0-.68.13-5,8.68a1,1,0,0,0,.9,1.45c30.89,0,28.81.2,29.23-.48S79.33,106.71,75,98.1Zm-23.6,7.58,3.07-6.13h19l3.07,6.13Z"/><path class="cls-33" d="M34.53,95.52a6.08,6.08,0,1,0,6.08,6.08A6.08,6.08,0,0,0,34.53,95.52Zm0,10.16a4.08,4.08,0,1,1,4.08-4.08A4.08,4.08,0,0,1,34.53,105.68Z"/><path class="cls-33" d="M93.47,95.52a6.08,6.08,0,1,0,6.08,6.08A6.08,6.08,0,0,0,93.47,95.52Zm0,10.16a4.08,4.08,0,1,1,4.08-4.08A4.08,4.08,0,0,1,93.47,105.68Z"/><path class="cls-33" d="M16.24,40.65a6.08,6.08,0,1,0,6.08,6.08A6.08,6.08,0,0,0,16.24,40.65Zm0,10.16a4.08,4.08,0,1,1,4.08-4.08A4.08,4.08,0,0,1,16.24,50.81Z"/><path class="cls-33" d="M119.14,55.85h2.78a6.08,6.08,0,1,0-6-6.69l-5-14.06a13.23,13.23,0,0,0-12-7.66H88.64a6.08,6.08,0,1,0-9.35-5.72l-5-14A13.22,13.22,0,0,0,62.29,0H29.12a13.26,13.26,0,0,0-12,7.75l-5,14a6.08,6.08,0,1,0-6.05,6.7H8.86C-1.13,39.14,0,38.82,0,54.27a5,5,0,0,0,4.06,4.94v8.85a5.08,5.08,0,0,0,5.07,5.07h8.13a5.07,5.07,0,0,0,5.06-5.07V60.94h14c-1,1.6-.65.89-5.91,15.65a6.08,6.08,0,1,0-6.05,6.7h2.78c-9.9,10.61-8.86,10.29-8.86,25.85a5,5,0,0,0,4.06,4.94v8.86A5.07,5.07,0,0,0,27.42,128h8.13a5.07,5.07,0,0,0,5.06-5.06v-7.13H87.39v7.13A5.07,5.07,0,0,0,92.45,128h8.13a5.07,5.07,0,0,0,5.07-5.06v-8.86a5,5,0,0,0,4.06-4.94v-8.69c.77.16.08.11,9.16.11a5.07,5.07,0,0,0,5.07-5.06V86.65a5,5,0,0,0,4.06-5C128,66.3,129.15,66.59,119.14,55.85Zm-11.25,17a4.08,4.08,0,1,1,1.8,4.78A6.06,6.06,0,0,0,107.89,72.88Zm-.18,4.33a4.08,4.08,0,0,1-4.08,4.08H99.55V77.21a4.08,4.08,0,1,1,8.16,0ZM36.15,66.47c3.51-2,2.2-1.47,50.2-1.47a11.07,11.07,0,0,1,5.5,1.47l5.36,15c-12,2.27-17.2,1.8-47.23,1.8a103.76,103.76,0,0,1-19.19-1.8ZM86.35,63c-48.21,0-46.2-.32-49.26.81a11.12,11.12,0,0,1,10.32-6.94H80.58A11.09,11.09,0,0,1,90.9,63.81,13.18,13.18,0,0,0,86.35,63ZM33.14,49.77l3.06-6.12H50.67l-2,5.51a6.08,6.08,0,0,0-12.13.61Zm5.44,0a4.08,4.08,0,1,1,8.16,0v4.08H42.66A4.08,4.08,0,0,1,38.58,49.77Zm42,5.1c-29.46,0-26,.26-31.51-.77L54.44,39a11,11,0,0,1,5.5-1.48c49,0,46.72-.52,50.2,1.48l5.36,15.05c-11.16,2.11-18.35,1.8-29.88,1.8A13,13,0,0,0,80.58,54.87Zm37.26-5.1a4.08,4.08,0,1,1,4.08,4.08h-4.08Zm-8.65-13.39a12.94,12.94,0,0,0-4.54-.82c-48.16,0-46.19-.32-49.27.82a11.12,11.12,0,0,1,10.33-6.94H98.88A11.06,11.06,0,0,1,109.19,36.38ZM59.73,28.45c-28.46,0-35.17.49-47.23-1.8l5.36-15a11,11,0,0,1,5.49-1.47c49.05,0,46.73-.53,50.21,1.47l5.37,15.06c-1.46.28-3,.53-4.74.78-9.18,0-10.43-.26-13.48,1Zm21.53-6.11a4.08,4.08,0,1,1,4.08,4.08H81.26ZM29.12,2H62.29A11.09,11.09,0,0,1,72.61,8.94a13.18,13.18,0,0,0-4.55-.81c-48.14,0-46.18-.32-49.26.81A11.13,11.13,0,0,1,29.12,2ZM2,22.34a4.08,4.08,0,0,1,8.16,0v4.08H6.08A4.08,4.08,0,0,1,2,22.34ZM20.32,68.06a3.07,3.07,0,0,1-3.06,3.07H9.13a3.08,3.08,0,0,1-3.07-3.07V59.48c15.07,1.67,12.69,1.46,14.26,1.46ZM4.73,57.32a3.06,3.06,0,0,1-2.73-3C2,38.4.83,40,11.51,28.51,24.08,31,31.27,30.45,57.35,30.45c-3.68,3-4.2,6.26-6,11.2-17,0-16.31-.23-16.7.55-4.29,8.56-4.43,8.43-4,9.09s.45.48,6.25.48a6.1,6.1,0,0,0,5.56,4.08,13.08,13.08,0,0,0-4.56,3.09C15.27,58.94,23.18,59.36,4.73,57.32ZM20.29,77.21a4.08,4.08,0,1,1,8.16,0v4.08H24.37A4.08,4.08,0,0,1,20.29,77.21Zm18.32,45.73A3.06,3.06,0,0,1,35.55,126H27.42a3.07,3.07,0,0,1-3.07-3.06v-8.6C39.42,116,37,115.81,38.61,115.81Zm62,3.06H92.45a3.06,3.06,0,0,1-3.06-3.06v-7.13c1.57,0-.86.21,14.26-1.47v8.6A3.07,3.07,0,0,1,100.58,126Zm7.13-16.86a3.06,3.06,0,0,1-2.73,3l-14.62,1.63c-61.28,0-47.85.54-67.34-1.63a3.06,3.06,0,0,1-2.73-3c0-15.84-1.18-14.3,9.51-25.76C42,85.75,46.9,85.32,78,85.32A106,106,0,0,0,98.2,83.38c5.13,5.5,9.47,9,9.51,15.77Zm-2.17-20.77c.17,0,.14,0,.14.17A2.09,2.09,0,0,1,105.54,88.37Zm13.33,10.19c-9.09,0-8.41.08-9.2-.22a16.2,16.2,0,0,0-2-6.88V88.37c1.51,0-.9.22,14.26-1.47v8.6A3.07,3.07,0,0,1,118.87,98.56ZM126,81.7a3.11,3.11,0,0,1-3.09,3.09c-16.92,1.88-12.61,1.58-19.18,1.58l-2.88-3.08h2.78a6.11,6.11,0,0,0,5.57-3.64,6.07,6.07,0,1,0-3-7.94,6.08,6.08,0,0,0-8.63,4.89l-5-14.06A13,13,0,0,0,89,57.89c9.46,0,16.53.2,27.53-2C127.16,67.39,126,65.88,126,81.7Z"/></g></svg>