<svg xmlns="http://www.w3.org/2000/svg" xmlns:xlink="http://www.w3.org/1999/xlink" viewBox="0 0 128 128"><defs><style>.cls-1{fill:#f8aa88;}.cls-2{fill:#f69163;}.cls-3{fill:url(#linear-gradient);}.cls-4{fill:url(#linear-gradient-2);}.cls-5{fill:url(#linear-gradient-3);}.cls-6{fill:#c7cdd8;}.cls-7{fill:#47566a;}</style><linearGradient id="linear-gradient" x1="64" y1="111" x2="64" y2="1" gradientUnits="userSpaceOnUse"><stop offset="0" stop-color="#f8aa88"/><stop offset="1" stop-color="#fac2ab"/></linearGradient><linearGradient id="linear-gradient-2" x1="64" y1="45" x2="64" y2="17" gradientUnits="userSpaceOnUse"><stop offset="0" stop-color="#d4d8e1"/><stop offset="1" stop-color="#f3f4f5"/></linearGradient><linearGradient id="linear-gradient-3" y1="98" y2="70" xlink:href="#linear-gradient-2"/></defs><title>Traffic Cone</title><g id="Traffic_Cone" data-name="Traffic Cone"><rect class="cls-1" x="23" y="111" width="82" height="8"/><rect class="cls-2" x="23" y="116" width="82" height="3"/><path class="cls-3" d="M98.63,111H29.37C35.1,87.13,52.2,16.15,55.85,1h16.3C77.35,22.56,93.68,90.39,98.63,111Z"/><polygon class="cls-2" points="98.63 111 29.37 111 30.09 108 97.91 108 98.63 111"/><rect class="cls-1" x="9" y="119" width="110" height="8"/><polygon class="cls-4" points="45.25 45 82.75 45 76.01 17 51.99 17 45.25 45"/><polygon class="cls-5" points="32.49 98 95.51 98 88.77 70 39.23 70 32.49 98"/><polygon class="cls-6" points="82.75 45 45.25 45 45.97 42 82.03 42 82.75 45"/><polygon class="cls-6" points="95.51 98 32.49 98 33.21 95 94.79 95 95.51 98"/><rect class="cls-2" x="9" y="124" width="110" height="3"/><path class="cls-7" d="M119,118H105v-7a1,1,0,0,0-1-1H99.42C71.37-6.51,73.33,0,72.15,0H55.85c-1.18,0,.78-6.51-27.27,110H23a1,1,0,0,0-1,1v7H9a1,1,0,0,0-1,1v8a1,1,0,0,0,1,1H119a1,1,0,0,0,1-1v-8A1,1,0,0,0,119,118ZM40,71H88l6.26,26H33.77Zm6-25H82l5.54,23h-47Zm6.74-28H75.21l6.26,26H46.53ZM56.64,2H71.36l3.37,14H53.27ZM33.29,99H94.71l2.65,11H30.64ZM24,112h79v6H24Zm94,14H10v-6H118Z"/></g></svg>