<svg xmlns="http://www.w3.org/2000/svg" xmlns:xlink="http://www.w3.org/1999/xlink" viewBox="0 0 128 128"><defs><style>.cls-1{fill:url(#linear-gradient);}.cls-2{fill:#949aaf;}.cls-3{fill:url(#linear-gradient-2);}.cls-4{fill:#dd4e6a;}.cls-5{fill:url(#linear-gradient-3);}.cls-6{fill:url(#linear-gradient-4);}.cls-7{fill:url(#linear-gradient-5);}.cls-8{fill:#f6b756;}.cls-9{fill:url(#linear-gradient-6);}.cls-10{fill:url(#linear-gradient-7);}.cls-11{fill:url(#linear-gradient-8);}.cls-12{fill:#4da67f;}.cls-13{fill:url(#linear-gradient-9);}.cls-14{fill:#8288a1;}.cls-15{fill:url(#linear-gradient-10);}.cls-16{fill:#47566a;}</style><linearGradient id="linear-gradient" x1="64" y1="127" x2="64" y2="1" gradientUnits="userSpaceOnUse"><stop offset="0" stop-color="#949aaf"/><stop offset="1" stop-color="#c6ccda"/></linearGradient><linearGradient id="linear-gradient-2" x1="64" y1="37" x2="64" y2="9" gradientUnits="userSpaceOnUse"><stop offset="0" stop-color="#da5466"/><stop offset="1" stop-color="#e87092"/></linearGradient><linearGradient id="linear-gradient-3" x1="96" y1="39.52" x2="96" y2="7" xlink:href="#linear-gradient"/><linearGradient id="linear-gradient-4" x1="32" y1="39.52" x2="32" y2="7" xlink:href="#linear-gradient"/><linearGradient id="linear-gradient-5" x1="64" y1="78" x2="64" y2="50" gradientUnits="userSpaceOnUse"><stop offset="0" stop-color="#fbcc88"/><stop offset="1" stop-color="#ffe5c3"/></linearGradient><linearGradient id="linear-gradient-6" x1="96" y1="80.52" x2="96" y2="48" xlink:href="#linear-gradient"/><linearGradient id="linear-gradient-7" x1="32" y1="80.52" x2="32" y2="48" xlink:href="#linear-gradient"/><linearGradient id="linear-gradient-8" x1="64" y1="119" x2="64" y2="91" gradientUnits="userSpaceOnUse"><stop offset="0" stop-color="#6ab891"/><stop offset="1" stop-color="#85cba9"/></linearGradient><linearGradient id="linear-gradient-9" x1="96" y1="120.52" x2="96" y2="88" xlink:href="#linear-gradient"/><linearGradient id="linear-gradient-10" x1="32" y1="120.52" x2="32" y2="88" xlink:href="#linear-gradient"/></defs><title>Traffic Light</title><g id="Traffic_Light" data-name="Traffic Light"><rect class="cls-1" x="40" y="1" width="48" height="126"/><rect class="cls-2" x="40" y="123" width="48" height="4"/><circle class="cls-3" cx="64" cy="23" r="14"/><path class="cls-4" d="M64,37A14,14,0,0,1,50.08,21.5a14,14,0,0,0,27.84,0A14,14,0,0,1,64,37Z"/><path class="cls-5" d="M88,7h16l-1.53,3.11A42.58,42.58,0,0,0,98,29.35,10.09,10.09,0,0,1,88,39.52Z"/><path class="cls-6" d="M40,7H24l1.53,3.11A42.58,42.58,0,0,1,30,29.35,10.09,10.09,0,0,0,40,39.52Z"/><circle class="cls-7" cx="64" cy="64" r="14"/><path class="cls-8" d="M64,78A14,14,0,0,1,50.08,62.5a14,14,0,0,0,27.84,0A14,14,0,0,1,64,78Z"/><path class="cls-9" d="M88,48h16l-1.53,3.11A42.58,42.58,0,0,0,98,70.35,10.09,10.09,0,0,1,88,80.52Z"/><path class="cls-10" d="M40,48H24l1.53,3.11A42.58,42.58,0,0,1,30,70.35,10.09,10.09,0,0,0,40,80.52Z"/><circle class="cls-11" cx="64" cy="105" r="14"/><path class="cls-12" d="M64,119a14,14,0,0,1-13.92-15.5,14,14,0,0,0,27.84,0A14,14,0,0,1,64,119Z"/><path class="cls-13" d="M88,88h16l-1.53,3.11A42.58,42.58,0,0,0,98,110.35a10.09,10.09,0,0,1-10,10.17Z"/><path class="cls-14" d="M98,28.76c0,.2,0,.39,0,.59A10.09,10.09,0,0,1,88,39.52v-4A10.6,10.6,0,0,0,98,28.76Z"/><path class="cls-14" d="M98,69.76c0,.2,0,.39,0,.59A10.09,10.09,0,0,1,88,80.52v-4A10.6,10.6,0,0,0,98,69.76Z"/><path class="cls-14" d="M98,109.76c0,.2,0,.39,0,.59a10.09,10.09,0,0,1-10,10.17v-4A10.6,10.6,0,0,0,98,109.76Z"/><path class="cls-15" d="M40,88H24l1.53,3.11A42.58,42.58,0,0,1,30,110.35a10.09,10.09,0,0,0,10,10.17Z"/><path class="cls-14" d="M40,35.52v4A10.09,10.09,0,0,1,30,29.35c0-.19,0-.37,0-.56A10.63,10.63,0,0,0,40,35.52Z"/><path class="cls-14" d="M40,76.52v4A10.09,10.09,0,0,1,30,70.35c0-.19,0-.37,0-.56A10.63,10.63,0,0,0,40,76.52Z"/><path class="cls-14" d="M40,116.52v4a10.09,10.09,0,0,1-10-10.17c0-.19,0-.37,0-.56A10.63,10.63,0,0,0,40,116.52Z"/><path class="cls-16" d="M64,8A15,15,0,1,0,79,23,15,15,0,0,0,64,8Zm0,28A13,13,0,1,1,77,23,13,13,0,0,1,64,36Z"/><path class="cls-16" d="M64,49A15,15,0,1,0,79,64,15,15,0,0,0,64,49Zm0,28A13,13,0,1,1,77,64,13,13,0,0,1,64,77Z"/><path class="cls-16" d="M99,70.35c0-9.14,2.55-15.11,5.9-21.91A1,1,0,0,0,104,47H89V40.47A11.12,11.12,0,0,0,99,29.35C99,14.51,105.82,8,104.85,6.47,104.43,5.81,105.16,6,89,6V1a1,1,0,0,0-1-1H40a1,1,0,0,0-1,1V6H24a1,1,0,0,0-.9,1.44C26.17,13.67,29,19.73,29,29.35A11.12,11.12,0,0,0,39,40.47V47c-16.14,0-15.43-.2-15.85.47C22.21,49,29,55.76,29,70.35A11.12,11.12,0,0,0,39,81.47V87H24a1,1,0,0,0-.9,1.44c3.07,6.23,5.9,12.29,5.9,21.91a11.12,11.12,0,0,0,10,11.12V127a1,1,0,0,0,1,1H88a1,1,0,0,0,1-1v-5.53a11.12,11.12,0,0,0,10-11.12c0-14.84,6.82-21.33,5.85-22.88-.42-.66.31-.47-15.85-.47V81.47A11.12,11.12,0,0,0,99,70.35ZM102.39,49C99.2,55.5,97,61.79,97,70.35a9.12,9.12,0,0,1-8,9.11V49Zm0-41C99.2,14.5,97,20.79,97,29.35a9.12,9.12,0,0,1-8,9.11V8ZM31,29.35C31,20.92,28.88,14.64,25.61,8H39V38.46A9.12,9.12,0,0,1,31,29.35Zm0,41c0-8.43-2.12-14.71-5.39-21.35H39V79.46A9.12,9.12,0,0,1,31,70.35Zm0,40c0-8.43-2.12-14.71-5.39-21.35H39v30.46A9.12,9.12,0,0,1,31,110.35ZM87,126H41V2H87Zm15.39-37C99.2,95.5,97,101.79,97,110.35a9.12,9.12,0,0,1-8,9.11V89Z"/><path class="cls-16" d="M64,90a15,15,0,1,0,15,15A15,15,0,0,0,64,90Zm0,28a13,13,0,1,1,13-13A13,13,0,0,1,64,118Z"/></g></svg>