<svg xmlns="http://www.w3.org/2000/svg" xmlns:xlink="http://www.w3.org/1999/xlink" viewBox="0 0 128 128"><defs><style>.cls-1{fill:url(#linear-gradient);}.cls-2{fill:#5b8dc9;}.cls-3{fill:url(#linear-gradient-2);}.cls-4{fill:#8288a1;}.cls-5{fill:url(#linear-gradient-3);}.cls-6{fill:#949aaf;}.cls-7{fill:url(#linear-gradient-4);}.cls-8{fill:url(#linear-gradient-5);}.cls-9{fill:#3d465e;}.cls-10{fill:url(#linear-gradient-6);}.cls-11{fill:#77cacb;}.cls-12{fill:url(#linear-gradient-7);}.cls-13{fill:url(#linear-gradient-8);}.cls-14{fill:#fbcc88;}.cls-15{fill:#f6b756;}.cls-16{fill:url(#linear-gradient-9);}.cls-17{fill:#c7cdd8;}.cls-18{fill:#47566a;}</style><linearGradient id="linear-gradient" x1="90.5" y1="93" x2="90.5" y2="38" gradientUnits="userSpaceOnUse"><stop offset="0" stop-color="#7aa8d7"/><stop offset="1" stop-color="#96c8ea"/></linearGradient><linearGradient id="linear-gradient-2" x1="37.5" y1="93" x2="37.5" y2="75" gradientUnits="userSpaceOnUse"><stop offset="0" stop-color="#949aaf"/><stop offset="1" stop-color="#c6ccda"/></linearGradient><linearGradient id="linear-gradient-3" x1="19" y1="102" x2="19" y2="80" gradientUnits="userSpaceOnUse"><stop offset="0" stop-color="#464f6b"/><stop offset="1" stop-color="#575f7c"/></linearGradient><linearGradient id="linear-gradient-4" x1="41" y1="102" x2="41" y2="80" xlink:href="#linear-gradient-3"/><linearGradient id="linear-gradient-5" x1="109" y1="102" x2="109" y2="80" xlink:href="#linear-gradient-3"/><linearGradient id="linear-gradient-6" x1="64" y1="58" x2="64" y2="46" gradientUnits="userSpaceOnUse"><stop offset="0" stop-color="#9dd5df"/><stop offset="1" stop-color="#c3e1f5"/></linearGradient><linearGradient id="linear-gradient-7" x1="95.18" y1="64" x2="95.18" xlink:href="#linear-gradient-6"/><linearGradient id="linear-gradient-8" x1="68.06" y1="38" x2="68.06" y2="27.99" gradientUnits="userSpaceOnUse"><stop offset="0" stop-color="#d4d8e1"/><stop offset="1" stop-color="#f3f4f5"/></linearGradient><linearGradient id="linear-gradient-9" x1="71" y1="95" x2="71" y2="85" xlink:href="#linear-gradient-8"/></defs><title>Trailer Truck</title><g id="Trailer_Truck" data-name="Trailer Truck"><path class="cls-1" d="M127,73.52V93H54V38H87.29a6.12,6.12,0,0,1,5,2.64c6.79,9.89,15.74,22.9,16.43,23.92l13.49,3A6.11,6.11,0,0,1,127,73.52Z"/><rect class="cls-2" x="54" y="89" width="73" height="4"/><path class="cls-3" d="M74,93V75H11.14L1,79V93Z"/><rect class="cls-4" x="1" y="89" width="73" height="4"/><circle class="cls-5" cx="19" cy="91" r="11"/><circle class="cls-6" cx="19" cy="91" r="5"/><circle class="cls-7" cx="41" cy="91" r="11"/><circle class="cls-6" cx="41" cy="91" r="5"/><circle class="cls-8" cx="109" cy="91" r="11"/><path class="cls-9" d="M19,102A11,11,0,0,1,8.11,89.5a11,11,0,0,0,21.78,0A11,11,0,0,1,19,102Z"/><path class="cls-9" d="M41,102A11,11,0,0,1,30.11,89.5a11,11,0,0,0,21.78,0A11,11,0,0,1,41,102Z"/><path class="cls-9" d="M109,102A11,11,0,0,1,98.11,89.5a11,11,0,0,0,21.78,0A11,11,0,0,1,109,102Z"/><circle class="cls-6" cx="109" cy="91" r="5"/><path class="cls-4" d="M23.9,92a5,5,0,0,0-9.8,0,5,5,0,1,1,9.8,0Z"/><path class="cls-4" d="M45.9,92a5,5,0,0,0-9.8,0,5,5,0,1,1,9.8,0Z"/><path class="cls-4" d="M113.9,92a5,5,0,0,0-9.8,0,5,5,0,1,1,9.8,0Z"/><rect class="cls-10" x="60" y="46" width="8" height="12"/><rect class="cls-11" x="60" y="55" width="8" height="3"/><polygon class="cls-12" points="108.37 64 98 64 94 62 82 62 82 46 96 46 108.37 64"/><polygon class="cls-11" points="108.37 64 98 64 94 62 82 62 82 60 94 60 98 62 107 62 108.37 64"/><path class="cls-13" d="M86.06,38h-32c-3.83-5.75-4-5.75-4-6.93A3.07,3.07,0,0,1,53.13,28C69.88,28,66.75,27.27,86.06,38Z"/><rect class="cls-14" x="123" y="75" width="4" height="6"/><rect class="cls-15" x="123" y="78" width="4" height="3"/><rect class="cls-16" x="60" y="85" width="22" height="10" rx="2"/><path class="cls-17" d="M82,90v3a2,2,0,0,1-2,2H62a2,2,0,0,1-2-2V90a2,2,0,0,0,2,2H80A2,2,0,0,0,82,90Z"/><polygon class="cls-17" points="86.06 38 54.06 38 52.06 35 80.66 35 86.06 38"/><rect class="cls-2" x="54" y="71" width="20" height="4"/><path class="cls-18" d="M19,85a6,6,0,1,0,6,6A6,6,0,0,0,19,85Zm0,10a4,4,0,1,1,4-4A4,4,0,0,1,19,95Z"/><path class="cls-18" d="M41,85a6,6,0,1,0,6,6A6,6,0,0,0,41,85Zm0,10a4,4,0,1,1,4-4A4,4,0,0,1,41,95Z"/><path class="cls-18" d="M109,85a6,6,0,1,0,6,6A6,6,0,0,0,109,85Zm0,10a4,4,0,1,1,4-4A4,4,0,0,1,109,95Z"/><path class="cls-18" d="M68,45H60a1,1,0,0,0-1,1V58a1,1,0,0,0,1,1h8a1,1,0,0,0,1-1V46A1,1,0,0,0,68,45ZM67,57H61V47h6Z"/><path class="cls-18" d="M88,70H84a1,1,0,0,0,0,2h4A1,1,0,0,0,88,70Z"/><path class="cls-18" d="M122.46,66.59l-13.11-2.92L93.14,40.07A7.11,7.11,0,0,0,87.29,37h-1C66.94,26.23,70.1,27,53.13,27a4.08,4.08,0,0,0-4.07,4.07c0,1.63.57,2.07,3.94,7.14V74H11.14c-.28,0,.56-.3-10.51,4.07C-.25,78.42,0,78.1,0,93a1,1,0,0,0,1,1H7.39c2.86,11,18.05,12.23,22.61,1.78C34.56,106.22,49.75,105,52.61,94h6.57A3,3,0,0,0,62,96H80a3,3,0,0,0,2.82-2H97.39a12,12,0,0,0,23.22,0H127a1,1,0,0,0,1-1V73.52A7.07,7.07,0,0,0,122.46,66.59Zm-16-3.59H98.24l-3.79-1.89C94.15,61,95,61,83,61V47H95.48ZM51.06,31.07A2.07,2.07,0,0,1,53.13,29c16,0,13.5-.65,29.08,8H54.6C51.24,32,51.06,31.92,51.06,31.07ZM73,74H55V39H73ZM19,101A10,10,0,1,1,29,91,10,10,0,0,1,19,101Zm22,0A10,10,0,1,1,51,91,10,10,0,0,1,41,101ZM59,87v5H53a12,12,0,0,0-23-5.78A12,12,0,0,0,7.05,92H2V79.68L11.33,76H73v8H62A3,3,0,0,0,59,87Zm22,6a1,1,0,0,1-1,1H62a1,1,0,0,1-1-1V87a1,1,0,0,1,1-1H80a1,1,0,0,1,1,1Zm28,8a10,10,0,1,1,10-10A10,10,0,0,1,109,101Zm17-21h-2V76h2Zm-3-6a1,1,0,0,0-1,1v6a1,1,0,0,0,1,1h3V92h-5a12,12,0,1,0-23.9,0H83V87a3,3,0,0,0-3-3H75V39c16.73,0,14.21-1.13,19.1,6H82a1,1,0,0,0-1,1V62a1,1,0,0,0,1,1H93.76c4.08,2,3.91,2,4.24,2,10.93,0,9.8,0,9.93.13.32.46-.56.15,14.09,3.41,2.24.51,4,2.31,4,5.46Z"/></g></svg>