<svg xmlns="http://www.w3.org/2000/svg" xmlns:xlink="http://www.w3.org/1999/xlink" viewBox="0 0 128 128"><defs><style>.cls-1{fill:url(#linear-gradient);}.cls-2{fill:url(#linear-gradient-2);}.cls-3{fill:#f6b756;}.cls-4{fill:url(#linear-gradient-3);}.cls-5{fill:url(#linear-gradient-4);}.cls-6{fill:url(#linear-gradient-5);}.cls-7{fill:#5b8dc9;}.cls-8{fill:url(#linear-gradient-6);}.cls-9{fill:#d4d8e1;}.cls-10{fill:#47566a;}</style><linearGradient id="linear-gradient" x1="21.32" y1="61.97" x2="21.32" y2="50.26" gradientUnits="userSpaceOnUse"><stop offset="0" stop-color="#fbcc88"/><stop offset="1" stop-color="#ffe5c3"/></linearGradient><linearGradient id="linear-gradient-2" x1="106.68" y1="127" x2="106.68" y2="115.29" xlink:href="#linear-gradient"/><linearGradient id="linear-gradient-3" x1="21.32" y1="53.84" x2="21.32" y2="1" gradientUnits="userSpaceOnUse"><stop offset="0" stop-color="#7aa8d7"/><stop offset="1" stop-color="#96c8ea"/></linearGradient><linearGradient id="linear-gradient-4" x1="21.32" y1="29.45" x2="21.32" y2="13.19" gradientUnits="userSpaceOnUse"><stop offset="0" stop-color="#d4d8e1"/><stop offset="1" stop-color="#f3f4f5"/></linearGradient><linearGradient id="linear-gradient-5" x1="106.68" y1="118.87" x2="106.68" y2="66.03" xlink:href="#linear-gradient-3"/><linearGradient id="linear-gradient-6" x1="106.68" y1="94.48" x2="106.68" y2="78.23" xlink:href="#linear-gradient-4"/></defs><title>Travel Distance</title><g id="Travel_Distance" data-name="Travel Distance"><path class="cls-1" d="M25.33,50.26c10.1,2.61,7,11.71-4,11.71s-14.11-9.1-4-11.71"/><path class="cls-2" d="M110.68,115.29c10.11,2.62,7,11.71-4,11.71s-14.11-9.09-4-11.71"/><path class="cls-3" d="M21.32,62C14.84,62,9.25,58,11.73,53.88c3.15,5.44,16,5.44,19.18,0C33.39,58,27.85,62,21.32,62Z"/><path class="cls-3" d="M116.84,120.9c0,3.38-4.55,6.1-10.16,6.1s-10.16-2.72-10.16-6.1a3.85,3.85,0,0,1,.57-2c3.14,5.44,16,5.44,19.18,0A3.85,3.85,0,0,1,116.84,120.9Z"/><path class="cls-4" d="M41.65,21.32c0,16.26-20.33,32.52-20.33,32.52S1,37.58,1,21.32a20.33,20.33,0,0,1,40.65,0Z"/><circle class="cls-5" cx="21.32" cy="21.32" r="8.13"/><path class="cls-6" d="M127,86.35c0,16.26-20.32,32.52-20.32,32.52S86.35,102.61,86.35,86.35a20.33,20.33,0,0,1,40.65,0Z"/><path class="cls-7" d="M21.32,53.84c-9.45-7.57-21.86-22.37-20.16-35C2.35,28.54,10.07,38,15.61,43.57a8,8,0,0,0,11.43,0c5.54-5.63,13.28-15,14.45-24.78C43.2,31.52,30.58,46.43,21.32,53.84Z"/><path class="cls-7" d="M106.68,118.87c-9.4-7.52-21.87-22.33-20.17-35C87.68,93.56,95.42,103,101,108.61a8,8,0,0,0,11.43,0c5.54-5.62,13.26-15,14.45-24.75C128.53,96.43,116.14,111.3,106.68,118.87Z"/><circle class="cls-8" cx="106.68" cy="86.35" r="8.13"/><path class="cls-9" d="M29.31,22.82a8.13,8.13,0,0,0-16,0,8.13,8.13,0,1,1,16,0Z"/><path class="cls-9" d="M114.67,87.85a8.13,8.13,0,0,0-16,0,8.13,8.13,0,1,1,16,0Z"/><path class="cls-10" d="M30.45,21.32a9.13,9.13,0,1,0-9.13,9.13A9.14,9.14,0,0,0,30.45,21.32Zm-16.26,0a7.13,7.13,0,1,1,7.13,7.13A7.14,7.14,0,0,1,14.19,21.32Z"/><path class="cls-10" d="M115.81,86.35a9.13,9.13,0,1,0-9.13,9.13A9.14,9.14,0,0,0,115.81,86.35Zm-16.26,0a7.13,7.13,0,1,1,7.13,7.13A7.13,7.13,0,0,1,99.55,86.35Z"/><path class="cls-10" d="M112.58,114.86c6.14-6.1,15.42-17.19,15.42-28.51a21.33,21.33,0,0,0-42.65,0c0,11.32,9.29,22.41,15.43,28.51-2.85,1.12-4.75,3-5.17,5.14H17.5a15.5,15.5,0,0,1,0-31H60a17,17,0,0,0,0-34H32.39c-.4-2.16-2.3-4-5.17-5.17,6.14-6.1,15.43-17.19,15.43-28.51A21.33,21.33,0,0,0,0,21.32C0,32.64,9.28,43.73,15.42,49.83,6.13,53.47,9.81,63,21.32,63c5.65,0,10.19-2.55,11-6H60a15,15,0,0,1,0,30H17.5a17.5,17.5,0,0,0,0,35H95.66c.81,3.44,5.35,6,11,6C118.23,128,121.84,118.5,112.58,114.86ZM21.32,2A19.35,19.35,0,0,1,40.65,21.32c0,14-15.94,28.33-19.33,31.22C17.94,49.65,2,35.33,2,21.32A19.35,19.35,0,0,1,21.32,2Zm0,59c-9.09,0-13-6.92-4.28-9.58,2,1.9,3.44,3.06,3.66,3.23a1,1,0,0,0,1.25,0c.21-.17,1.64-1.33,3.66-3.23C34.3,54.05,30.42,61,21.32,61ZM106.68,67A19.35,19.35,0,0,1,126,86.35c0,14-15.94,28.34-19.32,31.22-3.39-2.88-19.33-17.21-19.33-31.22A19.35,19.35,0,0,1,106.68,67Zm0,59c-9.09,0-13-6.91-4.29-9.57,2,1.89,3.45,3,3.66,3.22a1,1,0,0,0,1.25,0c.22-.17,1.65-1.33,3.66-3.22C119.65,119.09,115.77,126,106.68,126Z"/></g></svg>