<svg xmlns="http://www.w3.org/2000/svg" xmlns:xlink="http://www.w3.org/1999/xlink" viewBox="0 0 128 128"><defs><style>.cls-1{fill:url(#linear-gradient);}.cls-2{fill:#5b8dc9;}.cls-3{fill:url(#linear-gradient-2);}.cls-4{fill:url(#linear-gradient-3);}.cls-5{fill:url(#linear-gradient-4);}.cls-6{fill:url(#linear-gradient-5);}.cls-7{fill:url(#linear-gradient-6);}.cls-8{fill:url(#linear-gradient-7);}.cls-9{fill:#8288a1;}.cls-10{fill:url(#linear-gradient-8);}.cls-11{fill:url(#linear-gradient-9);}.cls-12{fill:#77cacb;}.cls-13{fill:url(#linear-gradient-10);}.cls-14{fill:#949aaf;}.cls-15{fill:#d7dbe2;}.cls-16{fill:#c6ccda;}.cls-17{fill:none;stroke:#231f20;stroke-linecap:round;stroke-linejoin:round;stroke-width:2px;}.cls-18{fill:#3d465e;}.cls-19{fill:#47566a;}</style><linearGradient id="linear-gradient" x1="64" y1="99" x2="64" y2="44" gradientUnits="userSpaceOnUse"><stop offset="0" stop-color="#7aa8d7"/><stop offset="1" stop-color="#96c8ea"/></linearGradient><linearGradient id="linear-gradient-2" x1="39" y1="107" x2="39" y2="97" gradientUnits="userSpaceOnUse"><stop offset="0" stop-color="#464f6b"/><stop offset="1" stop-color="#575f7c"/></linearGradient><linearGradient id="linear-gradient-3" x1="49" x2="49" xlink:href="#linear-gradient-2"/><linearGradient id="linear-gradient-4" x1="79" x2="79" xlink:href="#linear-gradient-2"/><linearGradient id="linear-gradient-5" x1="89" x2="89" xlink:href="#linear-gradient-2"/><linearGradient id="linear-gradient-6" x1="19" y1="99" x2="19" y2="58" gradientUnits="userSpaceOnUse"><stop offset="0" stop-color="#949aaf"/><stop offset="1" stop-color="#c6ccda"/></linearGradient><linearGradient id="linear-gradient-7" x1="109" x2="109" xlink:href="#linear-gradient-6"/><linearGradient id="linear-gradient-8" x1="5" y1="78" x2="5" y2="58" gradientUnits="userSpaceOnUse"><stop offset="0" stop-color="#9dd5df"/><stop offset="1" stop-color="#c3e1f5"/></linearGradient><linearGradient id="linear-gradient-9" x1="123" x2="123" xlink:href="#linear-gradient-8"/><linearGradient id="linear-gradient-10" x1="64" x2="64" xlink:href="#linear-gradient-8"/></defs><title>Trem</title><g id="Trem"><path class="cls-1" d="M127,52.13V99H93l-2-2H77l-2,2H53l-2-2H37l-2,2H1V52.13A8.13,8.13,0,0,1,9.13,44H118.87A8.13,8.13,0,0,1,127,52.13Z"/><polygon class="cls-2" points="127 95 127 99 93 99 91 97 77 97 75 99 53 99 51 97 37 97 35 99 1 99 1 95 35 95 37 93 51 93 53 95 75 95 77 93 91 93 93 95 127 95"/><circle class="cls-3" cx="39" cy="102" r="5"/><circle class="cls-4" cx="49" cy="102" r="5"/><circle class="cls-5" cx="79" cy="102" r="5"/><circle class="cls-6" cx="89" cy="102" r="5"/><rect class="cls-7" x="9" y="58" width="20" height="41"/><rect class="cls-8" x="99" y="58" width="20" height="41"/><rect class="cls-9" x="9" y="95" width="20" height="4"/><rect class="cls-9" x="99" y="95" width="20" height="4"/><rect class="cls-10" x="1" y="58" width="8" height="20"/><rect class="cls-11" x="119" y="58" width="8" height="20"/><rect class="cls-12" x="1" y="74" width="8" height="4"/><rect class="cls-12" x="119" y="74" width="8" height="4"/><rect class="cls-13" x="29" y="58" width="70" height="20"/><rect class="cls-12" x="29" y="74" width="70" height="4"/><polygon class="cls-14" points="37.42 44 17.42 44 19.42 38 35.42 38 37.42 44"/><polygon class="cls-14" points="110.58 44 90.58 44 92.58 38 108.58 38 110.58 44"/><polygon class="cls-9" points="37.42 44 17.42 44 18.42 41 36.42 41 37.42 44"/><polygon class="cls-9" points="110.58 44 90.58 44 91.58 41 109.58 41 110.58 44"/><rect class="cls-15" x="97" y="29" width="8" height="9"/><rect class="cls-16" x="97" y="35" width="8" height="3"/><line class="cls-17" x1="1" y1="107" x2="127" y2="107"/><path class="cls-18" d="M39,107a5,5,0,0,1-4.9-6,5,5,0,0,0,9.8,0A5,5,0,0,1,39,107Z"/><path class="cls-18" d="M49,107a5,5,0,0,1-4.9-6,5,5,0,0,0,9.8,0A5,5,0,0,1,49,107Z"/><path class="cls-18" d="M79,107a5,5,0,0,1-4.9-6,5,5,0,0,0,9.8,0A5,5,0,0,1,79,107Z"/><path class="cls-18" d="M89,107a5,5,0,0,1-4.9-6,5,5,0,0,0,9.8,0A5,5,0,0,1,89,107Z"/><circle class="cls-15" cx="86" cy="25" r="2"/><circle class="cls-15" cx="115" cy="25" r="2"/><path class="cls-19" d="M118.87,43H111.3l-1.77-5.32c-.29-.87-1-.68-3.53-.68V30c3.62,0,2,.53,7.15-2.66A3,3,0,0,0,117.82,26H127a1,1,0,0,0,0-2h-9.18a3,3,0,0,0-4.91-1.15C109,20,109,20,108.58,20c-17.5,0-16.2-.07-16.55.17l-4,2.65A3,3,0,0,0,83.18,24H1a1,1,0,0,0,0,2H83.18a3,3,0,0,0,4.87,1.18l4,2.65c.36.24.36.17,4,.17v7c-3.57,0-4.08-.19-4.37.68L89.86,43H38.14l-1.77-5.32a1,1,0,0,0-.95-.68h-16a1,1,0,0,0-1,.68L16.7,43H9.13A9.15,9.15,0,0,0,0,52.13V99a1,1,0,0,0,1,1H33.35a6,6,0,0,0,1.19,6H1a1,1,0,0,0,0,2H127a1,1,0,0,0,0-2H93.46a6,6,0,0,0,1.19-6H127a1,1,0,0,0,1-1V52.13A9.15,9.15,0,0,0,118.87,43ZM115,24a1,1,0,0,1,0,2A1,1,0,0,1,115,24ZM86,26a1,1,0,0,1,0-2A1,1,0,0,1,86,26Zm3-.61a2,2,0,0,0,0-.78L92.88,22h15.38c4.82,3.43,3.48,2.16,3.82,3.65L108.29,28H92.88ZM98,30h6v7H98Zm-4.7,9h14.56l1.33,4H92ZM20.14,39H34.7L36,43H18.81ZM8,77H2V59H8ZM2,79H8V98H2Zm8,19V59H28V98ZM63,59V77H49V59Zm16,0V77H65V59Zm19,0V77H81V59ZM47,77H30V59H47ZM35,102a4.12,4.12,0,0,1,1.56-3.15A4,4,0,1,1,35,102Zm48,0a4,4,0,0,1-8,0,4.12,4.12,0,0,1,1.56-3.15A4,4,0,0,1,83,102Zm.46-4h1.08C83.76,98.87,84.25,98.88,83.46,98Zm1.08,8H83.46C84.24,105.13,83.75,105.12,84.54,106Zm-10,0H53.46a6,6,0,0,0,1.19-6h18.7A6,6,0,0,0,74.54,106Zm-23.1-7.15A4,4,0,1,1,45,102,4,4,0,0,1,51.44,98.85ZM44.54,106H43.46C44.24,105.13,43.75,105.12,44.54,106Zm-1.08-8h1.08C43.76,98.87,44.25,98.88,43.46,98ZM85,102a4,4,0,0,1,6.44-3.15A4,4,0,1,1,85,102Zm7.7-4.71c-1-1-1.18-1.29-1.7-1.29-15.19,0-14.29-.13-14.71.29C74.64,98,75,97.45,74.54,98H53.46a5.66,5.66,0,0,0-.76-.71c-1-1-1.18-1.29-1.7-1.29-15.19,0-14.29-.13-14.71.29C34.64,98,35,97.45,34.54,98H30V79H98V98C92.36,98,93.91,98.24,92.7,97.29ZM100,98V59h18V98Zm26-21h-6V59h6Zm-6,21V79h6V98Zm6-41H2V52.13A7.14,7.14,0,0,1,9.13,45H118.87A7.14,7.14,0,0,1,126,52.13Z"/></g></svg>