<svg xmlns="http://www.w3.org/2000/svg" xmlns:xlink="http://www.w3.org/1999/xlink" viewBox="0 0 128 128"><defs><style>.cls-1{fill:#949aaf;}.cls-2{fill:#8288a1;}.cls-3{fill:url(#linear-gradient);}.cls-4{fill:#5b8dc9;}.cls-5{fill:url(#linear-gradient-2);}.cls-6{fill:#3d465e;}.cls-7{fill:url(#linear-gradient-3);}.cls-8{fill:#9b756d;}.cls-9{fill:#8a6762;}.cls-10{fill:url(#linear-gradient-4);}.cls-11{fill:#77cacb;}.cls-12{fill:url(#linear-gradient-5);}.cls-13{fill:url(#linear-gradient-6);}.cls-14{fill:#7aa8d7;}.cls-15{fill:#47566a;}</style><linearGradient id="linear-gradient" x1="58.85" y1="92" x2="58.85" y2="21" gradientUnits="userSpaceOnUse"><stop offset="0" stop-color="#7aa8d7"/><stop offset="1" stop-color="#96c8ea"/></linearGradient><linearGradient id="linear-gradient-2" x1="51.04" y1="60.03" x2="51.04" y2="21" gradientUnits="userSpaceOnUse"><stop offset="0" stop-color="#464f6b"/><stop offset="1" stop-color="#575f7c"/></linearGradient><linearGradient id="linear-gradient-3" x1="27" y1="37" x2="27" y2="29" gradientUnits="userSpaceOnUse"><stop offset="0" stop-color="#949aaf"/><stop offset="1" stop-color="#c6ccda"/></linearGradient><linearGradient id="linear-gradient-4" x1="104.98" y1="58" x2="104.98" y2="29" gradientUnits="userSpaceOnUse"><stop offset="0" stop-color="#9dd5df"/><stop offset="1" stop-color="#c3e1f5"/></linearGradient><linearGradient id="linear-gradient-5" x1="19" y1="107" x2="19" y2="87" xlink:href="#linear-gradient-2"/><linearGradient id="linear-gradient-6" x1="117" y1="107" x2="117" y2="87" xlink:href="#linear-gradient-2"/></defs><title>Tuk Tuk</title><g id="Tuk_Tuk" data-name="Tuk Tuk"><rect class="cls-1" x="70" y="76" width="14" height="8"/><rect class="cls-2" x="70" y="81" width="14" height="3"/><path class="cls-3" d="M116,58c-1.43-7.33-4-10.73-17.17-33a8.12,8.12,0,0,0-7-4H22.3A20.3,20.3,0,0,0,2,40.23C.71,65.17,1,54.83,1,90c13.85,0,8-.4,26,2H90.22a26.68,26.68,0,0,0,13.88-3.88l9.36-9.87C117,71.9,117.41,65,116,58ZM94,79.94A4.06,4.06,0,0,1,89.94,84H74.06A4.06,4.06,0,0,1,70,79.94V64H62V79.94A4.06,4.06,0,0,1,57.94,84H46.06A4.06,4.06,0,0,1,42,79.94V64.06A4.06,4.06,0,0,0,37.94,60H19V29H94Z"/><path class="cls-4" d="M116.69,63.9a26.39,26.39,0,0,1-3.23,11.35l-9.36,9.87A26.65,26.65,0,0,1,90.22,89H27C9,86.6,14.85,87,1,87v3H12c20,2.67,4.73,2,78.22,2a26.65,26.65,0,0,0,13.88-3.88l9.36-9.87A26.57,26.57,0,0,0,116.69,63.9Z"/><path class="cls-5" d="M101.13,29H19V60c-20,0-18,.19-18-.42.25-4.73.05-1,1-19.35A20.3,20.3,0,0,1,22.3,21H91.77a8.12,8.12,0,0,1,7,4Z"/><path class="cls-6" d="M101.13,29C17,29,19,28.9,19,29a3,3,0,0,1,3-3H99.37Z"/><path class="cls-7" d="M39,33a4,4,0,0,1-4,4H19a4,4,0,0,1,0-8H35A4,4,0,0,1,39,33Z"/><path class="cls-2" d="M35,37H19a4,4,0,0,1-3.7-5.5A4,4,0,0,0,19,34H35a4,4,0,0,0,3.7-2.5A4,4,0,0,1,35,37Z"/><rect class="cls-8" x="70" y="68" width="16" height="8"/><rect class="cls-9" x="70" y="73" width="16" height="3"/><path class="cls-10" d="M116,58H102.13A8.13,8.13,0,0,1,94,49.87V29h7.13C111.89,47.32,114.54,50.73,116,58Z"/><path class="cls-11" d="M116,58H102.13A8.13,8.13,0,0,1,94,49.87v-3A8.13,8.13,0,0,0,102.13,55H115.2C115.4,55.63,115.73,56.88,116,58Z"/><path class="cls-6" d="M19,56v4H1c0-.56,0,.12.19-4Z"/><circle class="cls-12" cx="19" cy="97" r="10"/><path class="cls-6" d="M19,107A10,10,0,0,1,9.12,95.52a10,10,0,0,0,19.76,0A10,10,0,0,1,19,107Z"/><circle class="cls-1" cx="19" cy="97" r="5"/><path class="cls-2" d="M23.9,98a5,5,0,0,0-9.8,0,5,5,0,1,1,9.8,0Z"/><circle class="cls-13" cx="117" cy="97" r="10"/><path class="cls-6" d="M117,107a10,10,0,0,1-9.88-11.48,10,10,0,0,0,19.76,0A10,10,0,0,1,117,107Z"/><circle class="cls-1" cx="117" cy="97" r="5"/><path class="cls-2" d="M121.9,98a5,5,0,0,0-9.8,0,5,5,0,1,1,9.8,0Z"/><path class="cls-4" d="M114.92,75.12a26.25,26.25,0,0,1-1.46,3.13l-9.36,9.87a25.8,25.8,0,0,1-3.35,1.72l.72-2.87A15.76,15.76,0,0,1,114.92,75.12Z"/><path class="cls-14" d="M116.81,78a10,10,0,0,1,10,10H117.6a8.19,8.19,0,0,0-6.34,3c-2.4,2.93-5,3-8.45,3l1.57-6.3A12.81,12.81,0,0,1,116.81,78Z"/><path class="cls-4" d="M126.81,88H117.6a8.19,8.19,0,0,0-6.34,3c-2.62,3.19-5.73,3-8.45,3l.75-3a9.65,9.65,0,0,0,4.87-.79A8.09,8.09,0,0,0,111.26,88a8.19,8.19,0,0,1,6.34-3h8.75A9.91,9.91,0,0,1,126.81,88Z"/><path class="cls-15" d="M19,91a6,6,0,1,0,6,6A6,6,0,0,0,19,91Zm0,10a4,4,0,1,1,4-4A4,4,0,0,1,19,101Z"/><path class="cls-15" d="M124.52,89h2.29a1,1,0,0,0,1-1,11,11,0,0,0-12.65-10.9c3.24-7,3.13-14.51,1.25-21.5-1.68-6.13-2.86-7.44-16.77-31.11A9.17,9.17,0,0,0,91.77,20H22.3A21.29,21.29,0,0,0,1,40.17C-.26,64.59,0,53.5,0,90a1,1,0,0,0,1,1H9.78a11,11,0,1,0,19.47,2h61a27.61,27.61,0,0,0,12.56-3l-.94,3.77a1,1,0,0,0,1,1.24,23.24,23.24,0,0,0,3.39-.09A15.9,15.9,0,0,0,106,97a11,11,0,1,0,18.52-8Zm-9.83-32H102.13A7.14,7.14,0,0,1,95,49.87V30h5.56C111.41,48.47,113.13,50.55,114.69,57ZM74.06,83A3.07,3.07,0,0,1,71,79.94V77H83v6ZM71,75V69H85v6Zm14,2h1a1,1,0,0,0,1-1V68a1,1,0,0,0-1-1H71V64a1,1,0,0,0-1-1H67V30H93V79.94A3.06,3.06,0,0,1,89.94,83H85ZM62,63a1,1,0,0,0-1,1V79.94A3.06,3.06,0,0,1,57.94,83H46.06A3.07,3.07,0,0,1,43,79.94V64.06A5.07,5.07,0,0,0,37.94,59H37c0-22.44,0-21.1-.08-21.38A5,5,0,0,0,39,30H65V63ZM20,59V38H35V59ZM19,30H35a3,3,0,0,1,0,6H19a3,3,0,0,1,0-6Zm3.3-8H91.77a7.16,7.16,0,0,1,6.15,3.51L99.38,28H19a5,5,0,0,0-1,9.9c0,.31,0,5.75,0,21.1H2L3,40.28A19.31,19.31,0,0,1,22.3,22ZM28,97a9,9,0,1,1-15.07-6.64A9,9,0,0,1,28,97Zm62.22-6h-62a11,11,0,0,0-16.77-2H2V61H37.94A3.07,3.07,0,0,1,41,64.06V79.94A5.07,5.07,0,0,0,46.06,85H57.94A5.07,5.07,0,0,0,63,79.94V65h6V79.94A5.07,5.07,0,0,0,74.06,85H89.94A5.07,5.07,0,0,0,95,79.94V55.56A9.12,9.12,0,0,0,102.13,59c14.54,0,12.69,0,13,0,1.22,6.56.74,12.77-2.46,18.66a13.79,13.79,0,0,0-9.21,9.7A25.61,25.61,0,0,1,90.22,91Zm14.71,2h-.84l1.26-5.06A11.8,11.8,0,0,1,116.81,79a9,9,0,0,1,8.94,8H117.6a9.15,9.15,0,0,0-7.11,3.37A7.21,7.21,0,0,1,104.93,93ZM117,106a9,9,0,0,1-8.58-11.69A9.12,9.12,0,0,0,112,91.63c2.5-3,5.49-2.63,9-2.63C129.53,93.32,126.35,106,117,106Z"/><path class="cls-15" d="M117,91a6,6,0,1,0,6,6A6,6,0,0,0,117,91Zm0,10a4,4,0,1,1,4-4A4,4,0,0,1,117,101Z"/></g></svg>