<svg xmlns="http://www.w3.org/2000/svg" xmlns:xlink="http://www.w3.org/1999/xlink" viewBox="0 0 128 128"><defs><style>.cls-1{fill:url(#linear-gradient);}.cls-2{fill:url(#linear-gradient-2);}.cls-3{fill:#8288a1;}.cls-4{fill:#949aaf;}.cls-5{fill:url(#linear-gradient-3);}.cls-6{fill:url(#linear-gradient-4);}.cls-7{fill:#4da67f;}.cls-8{fill:url(#linear-gradient-5);}.cls-9{fill:url(#linear-gradient-6);}.cls-10{fill:#c7cdd8;}.cls-11{fill:url(#linear-gradient-7);}.cls-12{fill:url(#linear-gradient-8);}.cls-13{fill:url(#linear-gradient-9);}.cls-14{fill:#47566a;}</style><linearGradient id="linear-gradient" x1="52" y1="98.07" x2="52" y2="39" gradientUnits="userSpaceOnUse"><stop offset="0" stop-color="#949aaf"/><stop offset="1" stop-color="#c6ccda"/></linearGradient><linearGradient id="linear-gradient-2" x1="80.17" y1="78.92" x2="80.17" y2="32.68" xlink:href="#linear-gradient"/><linearGradient id="linear-gradient-3" x1="93" y1="28" x2="93" y2="23" xlink:href="#linear-gradient"/><linearGradient id="linear-gradient-4" x1="29.5" y1="127" x2="29.5" y2="113" gradientUnits="userSpaceOnUse"><stop offset="0" stop-color="#6ab891"/><stop offset="1" stop-color="#85cba9"/></linearGradient><linearGradient id="linear-gradient-5" x1="21.5" y1="113" x2="21.5" y2="1" xlink:href="#linear-gradient-4"/><linearGradient id="linear-gradient-6" x1="21.5" y1="25" x2="21.5" y2="1" gradientUnits="userSpaceOnUse"><stop offset="0" stop-color="#d4d8e1"/><stop offset="1" stop-color="#f3f4f5"/></linearGradient><linearGradient id="linear-gradient-7" x1="21.5" y1="17" x2="21.5" y2="9" gradientUnits="userSpaceOnUse"><stop offset="0" stop-color="#9dd5df"/><stop offset="1" stop-color="#c3e1f5"/></linearGradient><linearGradient id="linear-gradient-8" x1="50.06" y1="38" x2="50.06" y2="1" xlink:href="#linear-gradient-4"/><linearGradient id="linear-gradient-9" x1="53.68" y1="39.6" x2="53.68" y2="18.97" xlink:href="#linear-gradient-6"/></defs><title>Turnstile</title><g id="Turnstile"><path class="cls-1" d="M56,39V93.81a4.19,4.19,0,0,1-4.22,4.26,4,4,0,0,1-3.78-4V39"/><path class="cls-2" d="M62.82,32.68,102.1,72a4.07,4.07,0,0,1-5.75,5.75L57.05,38.41"/><path class="cls-3" d="M119,31H63.46c-.39-10.64-.24-9.75,0-3H119a4,4,0,0,0,3.71-2.47A4,4,0,0,1,119,31Z"/><polygon class="cls-4" points="64.14 31 63.46 31 63.43 30.29 64.14 31"/><path class="cls-3" d="M56,90.81v3a4.19,4.19,0,0,1-4.22,4.26,4,4,0,0,1-3.78-4v-3a4,4,0,0,0,3.78,4A4.19,4.19,0,0,0,56,90.81Z"/><path class="cls-3" d="M96.35,77.72,57.05,38.41l1.51-1.49,37.79,37.8A4.07,4.07,0,0,0,103,73.34,4.07,4.07,0,0,1,96.35,77.72Z"/><polygon class="cls-4" points="63.43 30.29 64.14 31 63.46 31 63.43 30.29"/><path class="cls-5" d="M122.71,25.52A4,4,0,0,1,119,28H63.46l-.18-5H119A3.93,3.93,0,0,1,122.71,25.52Z"/><path class="cls-6" d="M54,127H5V113H47.94L54,119.06Z"/><rect class="cls-7" x="5" y="124" width="49" height="3"/><rect class="cls-8" x="5" y="1" width="33" height="112"/><rect class="cls-7" x="5" y="109" width="33" height="4"/><rect class="cls-9" x="5" y="1" width="33" height="24"/><rect class="cls-10" x="5" y="21" width="33" height="4"/><rect class="cls-11" x="13" y="9" width="17" height="8"/><path class="cls-12" d="M38,1h7.66L62.11,17.44,41.55,38H38Z"/><path class="cls-7" d="M62.11,17.44,41.55,38H38V34h3.55L60.11,15.44Z"/><path class="cls-13" d="M60.58,19A12.19,12.19,0,0,1,43.35,36.2"/><path class="cls-10" d="M43.35,36.2,45,34.54a12.19,12.19,0,0,0,18.9-8.68C65.33,37.47,51.44,44.08,43.35,36.2Z"/><rect class="cls-7" x="38" y="1" width="3" height="34"/><path class="cls-14" d="M30,8H13a1,1,0,0,0-1,1v8a1,1,0,0,0,1,1H30a1,1,0,0,0,1-1V9A1,1,0,0,0,30,8Zm-1,8H14V10H29Z"/><path class="cls-14" d="M123.6,25.06A4.91,4.91,0,0,0,119,22H63.86A12.58,12.58,0,0,0,62,19l.87-.87a1,1,0,0,0,0-1.42C45.05-1,46.28,0,45.66,0H5A1,1,0,0,0,4,1V127a1,1,0,0,0,1,1H54a1,1,0,0,0,1-1c0-8.5.12-8.24-.29-8.64-6.57-6.57-6.19-6.36-6.77-6.36H39V39c3.45,0,2.66.31,4.39-1.43A13.18,13.18,0,0,0,47,39.72V94.08a4.94,4.94,0,0,0,8.32,3.63A5.38,5.38,0,0,0,57,93.81v-54L95.65,78.42a5.06,5.06,0,1,0,7.16-7.16C61,29.47,63.9,32.64,64.14,32H119A5,5,0,0,0,123.6,25.06ZM6,2H37V24H6ZM53,119.48V126H6V114H47.52ZM6,112V26H37v86ZM41.14,37H39V2h6.25L60.7,17.44ZM60.53,20.43c4,4.88,3.47,13-4,17.12a11.18,11.18,0,0,1-11.76-1.39ZM53.94,96.26A2.94,2.94,0,0,1,49,94.08V40.31a12.84,12.84,0,0,0,6-.11V93.81A3.41,3.41,0,0,1,53.94,96.26ZM101.4,72.67a3.08,3.08,0,0,1,0,4.34,3,3,0,0,1-2.18.91c-1.8,0,1.33,2.58-40.51-39.26A13.21,13.21,0,0,0,63,34.31Zm19.73-43.55c-1.29,1.27,2.59.88-56.41.88a12.91,12.91,0,0,0-.16-6H119A3,3,0,0,1,121.13,29.12Z"/></g></svg>