<svg xmlns="http://www.w3.org/2000/svg" xmlns:xlink="http://www.w3.org/1999/xlink" viewBox="0 0 128 128"><defs><style>.cls-1{fill:url(#linear-gradient);}.cls-2{fill:#c7cdd8;}.cls-3{fill:url(#linear-gradient-2);}.cls-4{fill:url(#linear-gradient-3);}.cls-5{fill:#3d465e;}.cls-6{fill:#adb3c4;}.cls-7{fill:#949aaf;}.cls-8{fill:url(#linear-gradient-4);}.cls-9{fill:#77cacb;}.cls-10{fill:#e2607f;}.cls-11{fill:#dd4e6a;}.cls-12{fill:#fbcc88;}.cls-13{fill:#f6b756;}.cls-14{fill:#47566a;}</style><linearGradient id="linear-gradient" x1="64" y1="84.04" x2="64" y2="35" gradientUnits="userSpaceOnUse"><stop offset="0" stop-color="#d4d8e1"/><stop offset="1" stop-color="#f3f4f5"/></linearGradient><linearGradient id="linear-gradient-2" x1="25" y1="93" x2="25" y2="73" gradientUnits="userSpaceOnUse"><stop offset="0" stop-color="#464f6b"/><stop offset="1" stop-color="#575f7c"/></linearGradient><linearGradient id="linear-gradient-3" x1="111" x2="111" xlink:href="#linear-gradient-2"/><linearGradient id="linear-gradient-4" x1="62.98" y1="56" x2="62.98" y2="35" gradientUnits="userSpaceOnUse"><stop offset="0" stop-color="#9dd5df"/><stop offset="1" stop-color="#c3e1f5"/></linearGradient></defs><title>Van</title><g id="Van"><path class="cls-1" d="M127,61.85V84C-2.34,84,19.06,84.52,1,82V55.42l5.59-16.3A6.09,6.09,0,0,1,12.35,35h87.5A8.17,8.17,0,0,1,107,39.2l7.81,14.12c.06.1-.59-.16,8.06,2.74A6.12,6.12,0,0,1,127,61.85Z"/><path class="cls-2" d="M127,81v3C-2.34,84,19.06,84.52,1,82V79C18.74,81.47-1.68,81,127,81Z"/><circle class="cls-3" cx="25" cy="83" r="10"/><circle class="cls-4" cx="111" cy="83" r="10"/><path class="cls-5" d="M25,93a10,10,0,0,1-9.88-11.48,10,10,0,0,0,19.76,0A10,10,0,0,1,25,93Z"/><path class="cls-5" d="M111,93a10,10,0,0,1-9.88-11.48,10,10,0,0,0,19.76,0A10,10,0,0,1,111,93Z"/><circle class="cls-6" cx="25" cy="83" r="5"/><circle class="cls-6" cx="111" cy="83" r="5"/><path class="cls-7" d="M29.9,84a5,5,0,0,0-9.8,0,5,5,0,1,1,9.8,0Z"/><path class="cls-7" d="M115.9,84a5,5,0,0,0-9.8,0,5,5,0,1,1,9.8,0Z"/><path class="cls-8" d="M114.81,54l-8.13,2H17.26l-6.1-4.06C12,48.54,11.45,49.18,15,35h85a7.59,7.59,0,0,1,5.14,2h0c1.47,1.26,1.16,1.06,8.46,14.26C115,53.68,114.77,53.1,114.81,54Z"/><path class="cls-9" d="M114.81,54l-8.13,2H17.26l-6.1-4.06.64-2.57L17.26,53h89.42l7-1.74C115,53.68,114.77,53.1,114.81,54Z"/><rect class="cls-10" x="1" y="60" width="6" height="10"/><rect class="cls-11" x="1" y="67" width="6" height="3"/><rect class="cls-12" x="123" y="66" width="4" height="6"/><rect class="cls-13" x="123" y="69" width="4" height="3"/><path class="cls-14" d="M25,77a6,6,0,1,0,6,6A6,6,0,0,0,25,77Zm0,10a4,4,0,1,1,4-4A4,4,0,0,1,25,87Z"/><path class="cls-14" d="M111,77a6,6,0,1,0,6,6A6,6,0,0,0,111,77Zm0,10a4,4,0,1,1,4-4A4,4,0,0,1,111,87Z"/><path class="cls-14" d="M123.16,55.11l-7.66-2.56-7.66-13.84a9.15,9.15,0,0,0-8-4.71H12.35a7.09,7.09,0,0,0-6.71,4.8L.05,55.1C0,55.33,0,53.31,0,82a1,1,0,0,0,.86,1l13.31,1.89A11,11,0,0,0,35.81,85h64.38a11,11,0,0,0,21.62,0H127a1,1,0,0,0,1-1V61.85A7.12,7.12,0,0,0,123.16,55.11ZM99.85,36a7.14,7.14,0,0,1,6.24,3.68l7.5,13.56-7,1.76H83V36ZM81,36V55H53V36ZM51,55H26.48l1.9-19H51ZM26.37,36l-1.9,19H17.56L12.3,51.49,16.18,36ZM2,61H6v8H2ZM25,92a9,9,0,1,1,9-9A9,9,0,0,1,25,92Zm86,0a9,9,0,1,1,9-9A9,9,0,0,1,111,92Zm11-9a11,11,0,0,0-22,0H36a11,11,0,0,0-22-.21L2,81.09V71H7a1,1,0,0,0,1-1V60a1,1,0,0,0-1-1H2c0-4.55-.9-.79,5.54-19.56A5.07,5.07,0,0,1,12.35,36h1.76c-4.17,16.69-4.34,16.21-3.5,16.77C17.19,57.16,16.83,57,17.26,57c93.72,0,89.47,0,89.66,0,8.87-2.22,8.28-2,8.59-2.31l7,2.35A5.11,5.11,0,0,1,126,61.85V65h-3a1,1,0,0,0-1,1v6a1,1,0,0,0,1,1h3V83Zm4-12h-2V67h2Z"/><path class="cls-14" d="M88,63H84a1,1,0,0,0,0,2h4A1,1,0,0,0,88,63Z"/><path class="cls-14" d="M60,63H56a1,1,0,0,0,0,2h4A1,1,0,0,0,60,63Z"/></g></svg>