<svg xmlns="http://www.w3.org/2000/svg" xmlns:xlink="http://www.w3.org/1999/xlink" viewBox="0 0 128 128"><defs><style>.cls-1{fill:url(#linear-gradient);}.cls-2{fill:#8a6762;}.cls-3{fill:url(#linear-gradient-2);}.cls-4{fill:url(#linear-gradient-3);}.cls-5{fill:#3d465e;}.cls-6{fill:#949aaf;}.cls-7{fill:#8288a1;}.cls-8{fill:url(#linear-gradient-4);}.cls-9{fill:#77cacb;}.cls-10{fill:#dd4e6a;}.cls-11{fill:#f6b756;}.cls-12{fill:#47566a;}</style><linearGradient id="linear-gradient" x1="64" y1="78.1" x2="64" y2="41" gradientUnits="userSpaceOnUse"><stop offset="0" stop-color="#9b756d"/><stop offset="1" stop-color="#bc9388"/></linearGradient><linearGradient id="linear-gradient-2" x1="25" y1="87" x2="25" y2="67" gradientUnits="userSpaceOnUse"><stop offset="0" stop-color="#464f6b"/><stop offset="1" stop-color="#575f7c"/></linearGradient><linearGradient id="linear-gradient-3" x1="105" x2="105" xlink:href="#linear-gradient-2"/><linearGradient id="linear-gradient-4" x1="53.35" y1="58" x2="53.35" y2="41" gradientUnits="userSpaceOnUse"><stop offset="0" stop-color="#9dd5df"/><stop offset="1" stop-color="#c3e1f5"/></linearGradient></defs><title>Wagon</title><g id="Wagon"><path class="cls-1" d="M127,64.83v9.06L122.94,78C-1.13,78,20.64,78.78,1,75.94V53.33L11.4,42.81A6.11,6.11,0,0,1,15.74,41H74.25c2.53,0,1.72-.21,21.28,13.69,1.41,1-2.52.23,26.19,4.1A6.1,6.1,0,0,1,127,64.83Z"/><path class="cls-2" d="M127,69.89v4L122.94,78C-1.13,78,20.64,78.78,1,75.94v-4C20.7,74.79-1.06,74,122.94,74Z"/><circle class="cls-3" cx="25" cy="77" r="10"/><circle class="cls-4" cx="105" cy="77" r="10"/><path class="cls-5" d="M25,87a10,10,0,0,1-9.88-11.48,10,10,0,0,0,19.76,0A10,10,0,0,1,25,87Z"/><path class="cls-5" d="M105,87a10,10,0,0,1-9.88-11.48,10,10,0,0,0,19.76,0A10,10,0,0,1,105,87Z"/><circle class="cls-6" cx="25" cy="77" r="4"/><circle class="cls-6" cx="105" cy="77" r="4"/><path class="cls-7" d="M28.87,78a4,4,0,0,0-7.74,0,4,4,0,1,1,7.74,0Z"/><path class="cls-7" d="M108.87,78a4,4,0,0,0-7.74,0,4,4,0,1,1,7.74,0Z"/><path class="cls-8" d="M88.39,58H15.23l-4.07-2c2.05-2.92,1.23-2.66,9.84-15H74a6.58,6.58,0,0,1,3.65,1.1L79,43c17,12.06,14,9.9,16.51,11.69Z"/><polygon class="cls-9" points="88.39 58 15.23 58 11.16 55.97 12.72 53.75 15.23 55 88.39 55 93.63 53.34 95.53 54.69 88.39 58"/><polygon class="cls-10" points="7 66 1 66 1 62 5 62 7 66"/><path class="cls-11" d="M127,70h-4a2,2,0,0,1,0-4h4Z"/><path class="cls-12" d="M25,72a5,5,0,1,0,5,5A5,5,0,0,0,25,72Zm0,8a3,3,0,1,1,3-3A3,3,0,0,1,25,80Z"/><path class="cls-12" d="M105,72a5,5,0,1,0,5,5A5,5,0,0,0,105,72Zm0,8a3,3,0,1,1,3-3A3,3,0,0,1,105,80Z"/><path class="cls-12" d="M121.85,57.8l-25-3.37C77.54,40.73,77.39,40,74.25,40H15.74a7.17,7.17,0,0,0-5.05,2.11L.29,52.63c-.43.43-.29-1.2-.29,23.31a1,1,0,0,0,.86,1l13.31,1.93A11,11,0,0,0,35.81,79H94.19a11,11,0,0,0,21.62,0h7.13c.6,0,.53-.12,4.77-4.41.41-.41.29.06.29-9.76A7.11,7.11,0,0,0,121.85,57.8ZM74.25,42c2.2,0,1.32-.22,20.09,13.07L88.23,57H59V42ZM57,57H34.64l1.87-15H57ZM22.08,42H34.5L32.62,57H15.46l-2.81-1.41C22.74,41.16,22,42.28,22.08,42ZM2,63H4.38l1,2H2ZM25,86a9,9,0,0,1-8.87-7.56c.3-.63-.13-.79-.13-1.44a9,9,0,1,1,9,9Zm80,0a9,9,0,1,1,9-9A9,9,0,0,1,105,86Zm17.52-9H116a11,11,0,0,0-22,0H36a11,11,0,0,0-22-.19L2,75.08V67c5.33,0,5.46.16,5.85-.47s.17-.72-2-5C5.53,60.82,5,61,2,61V53.74C15,40.62,12,42,19.72,42,9.54,56.54,10,55.58,10.19,56.21s.18.48,4.59,2.68c.32.17-4.44.11,73.61.11.21,0-.21.11,7.9-2.44.64-.21-2.47-.53,25.29,3.22A5.12,5.12,0,0,1,126,65h-3a3,3,0,0,0,0,6h3v2.48ZM126,69h-3a1,1,0,0,1,0-2h3Z"/><path class="cls-12" d="M66,63H62a1,1,0,0,0,0,2h4A1,1,0,0,0,66,63Z"/></g></svg>