<svg xmlns="http://www.w3.org/2000/svg" xmlns:xlink="http://www.w3.org/1999/xlink" viewBox="0 0 128 128"><defs><style>.cls-1{fill:url(#linear-gradient);}.cls-2{fill:url(#linear-gradient-2);}.cls-3{fill:url(#linear-gradient-3);}.cls-4{fill:url(#linear-gradient-4);}.cls-5{fill:url(#linear-gradient-5);}.cls-6{fill:#5b8dc9;}.cls-7{fill:url(#linear-gradient-6);}.cls-8{fill:url(#linear-gradient-7);}.cls-9{fill:#47566a;}</style><linearGradient id="linear-gradient" x1="22" y1="103" x2="22" y2="93" gradientUnits="userSpaceOnUse"><stop offset="0" stop-color="#7aa8d7"/><stop offset="1" stop-color="#96c8ea"/></linearGradient><linearGradient id="linear-gradient-2" x1="22" y1="93" x2="22" y2="56" xlink:href="#linear-gradient"/><linearGradient id="linear-gradient-3" x1="106" y1="103" x2="106" y2="93" xlink:href="#linear-gradient"/><linearGradient id="linear-gradient-4" x1="106" y1="93" x2="106" y2="56" xlink:href="#linear-gradient"/><linearGradient id="linear-gradient-5" x1="64" y1="103" x2="64" y2="93" xlink:href="#linear-gradient"/><linearGradient id="linear-gradient-6" x1="64" y1="93" x2="64" y2="56" xlink:href="#linear-gradient"/><linearGradient id="linear-gradient-7" x1="63.5" y1="34" x2="63.5" y2="1" gradientUnits="userSpaceOnUse"><stop offset="0" stop-color="#d4d8e1"/><stop offset="1" stop-color="#f3f4f5"/></linearGradient></defs><title>Waiting Room</title><g id="Waiting_Room" data-name="Waiting Room"><path class="cls-1" d="M37,103H7a6,6,0,0,1-6-6,4,4,0,0,1,4-4H39a4,4,0,0,1,4,4A6,6,0,0,1,37,103Z"/><path class="cls-2" d="M13.24,56H30.76A8.24,8.24,0,0,1,39,64.24V93a0,0,0,0,1,0,0H5a0,0,0,0,1,0,0V64.24A8.24,8.24,0,0,1,13.24,56Z"/><path class="cls-3" d="M121,103H91a6,6,0,0,1-6-6,4,4,0,0,1,4-4h34a4,4,0,0,1,4,4A6,6,0,0,1,121,103Z"/><path class="cls-4" d="M97.24,56h17.53A8.24,8.24,0,0,1,123,64.24V93a0,0,0,0,1,0,0H89a0,0,0,0,1,0,0V64.24A8.24,8.24,0,0,1,97.24,56Z"/><path class="cls-5" d="M79,103H49a6,6,0,0,1-6-6,4,4,0,0,1,4-4H81a4,4,0,0,1,4,4A6,6,0,0,1,79,103Z"/><path class="cls-6" d="M37,103H7c-4.32,0-6.87-4.43-5.76-7.34A6,6,0,0,0,7,100H37a6,6,0,0,0,5.76-4.34C43.88,98.59,41.3,103,37,103Z"/><path class="cls-6" d="M121,103H91c-4.32,0-6.87-4.43-5.76-7.34A6,6,0,0,0,91,100h30a6,6,0,0,0,5.76-4.34C127.88,98.59,125.3,103,121,103Z"/><path class="cls-6" d="M79,103H49c-4.32,0-6.87-4.43-5.76-7.34A6,6,0,0,0,49,100H79a6,6,0,0,0,5.76-4.34C85.88,98.59,83.3,103,79,103Z"/><path class="cls-7" d="M55.24,56H72.76A8.24,8.24,0,0,1,81,64.24V93a0,0,0,0,1,0,0H47a0,0,0,0,1,0,0V64.24A8.24,8.24,0,0,1,55.24,56Z"/><circle class="cls-8" cx="63.5" cy="17.5" r="16.5"/><rect class="cls-6" x="5" y="90" width="34" height="3"/><rect class="cls-6" x="47" y="90" width="34" height="3"/><rect class="cls-6" x="89" y="90" width="34" height="3"/><path class="cls-9" d="M127,126H117V104h4c7.54,0,9.65-10.54,3-11.9V64.24A9.24,9.24,0,0,0,114.76,55H97.24A9.24,9.24,0,0,0,88,64.24V92.1A5,5,0,0,0,85,94a5,5,0,0,0-3-1.93V64.24A9.24,9.24,0,0,0,72.76,55H55.24A9.24,9.24,0,0,0,46,64.24V92.1A5,5,0,0,0,43,94a5,5,0,0,0-3-1.93V64.24A9.24,9.24,0,0,0,30.76,55H13.24A9.24,9.24,0,0,0,4,64.24V92.1C-2.69,93.47-.49,104,7,104h4v22H1a1,1,0,0,0,0,2H127A1,1,0,0,0,127,126ZM63,104v10H13V104Zm-21.11-2c1.93-1.88.29-1.88,2.22,0ZM65,104h50v10H65Zm18.89-2c1.93-1.88.29-1.88,2.22,0ZM115,116v10H65V116ZM90,64.24A7.25,7.25,0,0,1,97.24,57h17.52A7.25,7.25,0,0,1,122,64.24V92H90ZM89,94h34a3,3,0,0,1,3,3,5,5,0,0,1-5,5H91a5,5,0,0,1-5-5A3,3,0,0,1,89,94ZM48,64.24A7.25,7.25,0,0,1,55.24,57H72.76A7.25,7.25,0,0,1,80,64.24V92H48ZM47,94H81a3,3,0,0,1,3,3,5,5,0,0,1-5,5H49a5,5,0,0,1-5-5A3,3,0,0,1,47,94ZM6,64.24A7.25,7.25,0,0,1,13.24,57H30.76A7.25,7.25,0,0,1,38,64.24V92H6ZM2,97a3,3,0,0,1,3-3H39a3,3,0,0,1,3,3,5,5,0,0,1-5,5H7A5,5,0,0,1,2,97Zm11,19H63v10H13Z"/><path class="cls-9" d="M31,67H13a1,1,0,0,0,0,2H31A1,1,0,0,0,31,67Z"/><path class="cls-9" d="M31,80H13a1,1,0,0,0,0,2H31A1,1,0,0,0,31,80Z"/><path class="cls-9" d="M115,67H97a1,1,0,0,0,0,2h18A1,1,0,0,0,115,67Z"/><path class="cls-9" d="M115,80H97a1,1,0,0,0,0,2h18A1,1,0,0,0,115,80Z"/><path class="cls-9" d="M73,67H56a1,1,0,0,0,0,2H73A1,1,0,0,0,73,67Z"/><path class="cls-9" d="M73,80H56a1,1,0,0,0,0,2H73A1,1,0,0,0,73,80Z"/><path class="cls-9" d="M63.5,35A17.5,17.5,0,1,0,46,17.5,17.52,17.52,0,0,0,63.5,35Zm0-33A15.5,15.5,0,1,1,48,17.5,15.51,15.51,0,0,1,63.5,2Z"/><path class="cls-9" d="M59.87,24.71c.73,0,.43.16,5-6.64.24-.35.17.2.17-9.07a1,1,0,0,0-2,0v8.21l-4,5.95A1,1,0,0,0,59.87,24.71Z"/></g></svg>