<svg xmlns="http://www.w3.org/2000/svg" xmlns:xlink="http://www.w3.org/1999/xlink" viewBox="0 0 128 128"><defs><style>.cls-1{fill:url(#linear-gradient);}.cls-2{fill:url(#linear-gradient-2);}.cls-3{fill:#3d465e;}.cls-4{fill:url(#linear-gradient-3);}.cls-5{fill:url(#linear-gradient-4);}.cls-6{fill:url(#linear-gradient-5);}.cls-7{fill:url(#linear-gradient-6);}.cls-8{fill:#cba07a;}.cls-9{fill:url(#linear-gradient-7);}.cls-10{fill:#8288a1;}.cls-11{fill:#47566a;}</style><linearGradient id="linear-gradient" x1="64" y1="115" x2="64" y2="9" gradientUnits="userSpaceOnUse"><stop offset="0" stop-color="#949aaf"/><stop offset="1" stop-color="#c6ccda"/></linearGradient><linearGradient id="linear-gradient-2" x1="64" y1="127" x2="64" y2="115" gradientUnits="userSpaceOnUse"><stop offset="0" stop-color="#464f6b"/><stop offset="1" stop-color="#575f7c"/></linearGradient><linearGradient id="linear-gradient-3" x1="87" y1="29" x2="87" y2="13" gradientUnits="userSpaceOnUse"><stop offset="0" stop-color="#d1a788"/><stop offset="1" stop-color="#f2d3b8"/></linearGradient><linearGradient id="linear-gradient-4" x1="41" y1="39" x2="41" y2="23" xlink:href="#linear-gradient-3"/><linearGradient id="linear-gradient-5" x1="87" y1="56" x2="87" y2="40" xlink:href="#linear-gradient-3"/><linearGradient id="linear-gradient-6" x1="41" y1="66" x2="41" y2="50" xlink:href="#linear-gradient-3"/><linearGradient id="linear-gradient-7" x1="64" y1="9" x2="64" y2="1" xlink:href="#linear-gradient"/></defs><title>Way Finding</title><g id="Way_Finding" data-name="Way Finding"><path class="cls-1" d="M68,115H60V13a4,4,0,0,1,8,0Z"/><polygon class="cls-2" points="74 127 54 127 56 115 72 115 74 127"/><polygon class="cls-3" points="74 127 54 127 54.5 124 73.5 124 74 127"/><polygon class="cls-4" points="68 13 100 13 106 21 100 29 68 29 68 13"/><polygon class="cls-5" points="60 23 28 23 22 31 28 39 60 39 60 23"/><polygon class="cls-6" points="68 40 100 40 106 48 100 56 68 56 68 40"/><polygon class="cls-7" points="60 50 28 50 22 58 28 66 60 66 60 50"/><polygon class="cls-8" points="106 21 100 29 68 29 68 26 100 26 104.88 19.5 106 21"/><polygon class="cls-8" points="60 36 60 39 28 39 22 31 23.13 29.5 28 36 60 36"/><polygon class="cls-8" points="106 48 100 56 68 56 68 53 100 53 104.88 46.5 106 48"/><polygon class="cls-8" points="60 63 60 66 28 66 22 58 23.13 56.5 28 63 60 63"/><circle class="cls-9" cx="64" cy="5" r="4"/><rect class="cls-10" x="60" y="111" width="8" height="4"/><path class="cls-11" d="M76,22H94a1,1,0,0,0,0-2H76A1,1,0,0,0,76,22Z"/><path class="cls-11" d="M52,30H34a1,1,0,0,0,0,2H52A1,1,0,0,0,52,30Z"/><path class="cls-11" d="M100.8,39.4c-.45-.6,1.64-.4-31.8-.4V30h31c.7,0,.38.16,6.8-8.4a1,1,0,0,0,0-1.2l-6-8c-.45-.61,1.54-.4-31.9-.4A5,5,0,0,0,67,9,5,5,0,1,0,61,9a5,5,0,0,0-2,4v9H28c-.7,0-.38-.16-6.8,8.4a1,1,0,0,0,0,1.2l6,8c.45.6-1.64.4,31.8.4v9H28c-.7,0-.38-.16-6.8,8.4a1,1,0,0,0,0,1.2l6,8c.45.6-1.64.4,31.8.4v47H56a1,1,0,0,0-1,.84l-2,12A1,1,0,0,0,54,128c21.56,0,20.33.15,20.76-.35s.39.15-1.77-12.81a1,1,0,0,0-1-.84H69V57h31c.7,0,.38.16,6.8-8.4a1,1,0,0,0,0-1.2Zm4-18.4L99.5,28H69V14H99.5ZM61,5a3,3,0,1,1,3,3A3,3,0,0,1,61,5ZM28.5,38l-5.25-7,5.25-7H59V38Zm0,27-5.25-7,5.25-7H59V65Zm44.32,61H55.18l1.67-10h14.3ZM61,114V13a3,3,0,0,1,6,0V114ZM99.5,55H69V41H99.5l5.25,7Z"/><path class="cls-11" d="M94,47H76a1,1,0,0,0,0,2H94A1,1,0,0,0,94,47Z"/><path class="cls-11" d="M52,57H34a1,1,0,0,0,0,2H52A1,1,0,0,0,52,57Z"/></g></svg>