<svg xmlns="http://www.w3.org/2000/svg" xmlns:xlink="http://www.w3.org/1999/xlink" viewBox="0 0 128 128"><defs><style>.cls-1{fill:url(#linear-gradient);}.cls-2{fill:url(#linear-gradient-2);}.cls-3{fill:#c7cdd8;}.cls-4{fill:#77cacb;}.cls-5{fill:url(#linear-gradient-3);}.cls-6{fill:#8288a1;}.cls-7{fill:url(#linear-gradient-4);}.cls-8{fill:#47566a;}</style><linearGradient id="linear-gradient" x1="56.76" y1="65.26" x2="56.76" y2="52" gradientUnits="userSpaceOnUse"><stop offset="0" stop-color="#d4d8e1"/><stop offset="1" stop-color="#f3f4f5"/></linearGradient><linearGradient id="linear-gradient-2" x1="79.63" y1="65.19" x2="79.63" y2="58" gradientUnits="userSpaceOnUse"><stop offset="0" stop-color="#9dd5df"/><stop offset="1" stop-color="#c3e1f5"/></linearGradient><linearGradient id="linear-gradient-3" x1="64" y1="92" x2="64" y2="64" gradientUnits="userSpaceOnUse"><stop offset="0" stop-color="#949aaf"/><stop offset="1" stop-color="#c6ccda"/></linearGradient><linearGradient id="linear-gradient-4" x1="42.71" y1="52" x2="42.71" y2="36" xlink:href="#linear-gradient"/></defs><title>Yacth</title><g id="Yacth"><path class="cls-1" d="M104.52,64.19l-53,1.07C50.69,59.05,15.17,54.69,9,54V52H78.1Z"/><path class="cls-2" d="M104.52,64.19l-49.79,1L58,58H91.1Z"/><path class="cls-3" d="M56.18,62l-1.45,3.19-3.23.07C51.35,64.11,50,63,47.86,62Z"/><polygon class="cls-4" points="104.52 64.19 54.73 65.19 56.18 62 99.77 62 104.52 64.19"/><path class="cls-5" d="M127,64c-6,6-27.41,28-36.58,28H9.13L4.44,87.39A11.44,11.44,0,0,1,1.18,77.23C1.18,75.1,4.4,70.43,7.1,66Z"/><path class="cls-6" d="M127,64c-6,6.41-27.71,28-36.56,28H9.13c-4.52-4.44-8.91-7.52-8-14.29C1.29,76.19,1,80,4.44,83.39L9.13,88H90.42C97.39,88,121.6,68.45,127,64Z"/><path class="cls-7" d="M76.3,52H20.67L9.13,36h8.21l10,8H39.66l6-2H62Z"/><polygon class="cls-3" points="76.3 52 20.67 52 18.51 49 72 49 76.3 52"/><path class="cls-8" d="M127.92,63.6c-.39-.87.7-.63-22.87-.23-.26-.18,2.45,1.1-26.53-12.28-.26-.12-.29-.09-1.91-.09C61.21,40.25,62.42,41,62,41c-17.57,0-16.4,0-16.63,0L39.5,43H27.69c-10.58-8.47-9.85-8-10.35-8-8.88,0-8.72-.19-9.1.54s-.7,0,10.48,15.46H9a1,1,0,0,0-1,1v2c0,1.43.53.66,14.09,2.77l-1.55,8c-14.49.24-13.9,0-14.3.7C1.89,72.62,0,74.81,0,79.21c0,6.25,3.77,8.92,8.43,13.5.45.45-5.08.29,82,.29,10.47,0,36.22-27.16,37.31-28.31A1,1,0,0,0,127.92,63.6Zm-27.41-.16-44.22.74L58.64,59H90.88ZM11.08,37H17l9.72,7.78c.4.32-.43.22,12.95.22.23,0-.17.11,6.16-2H61.66l11.46,8H21.18Zm66.8,16,8.67,4c-31,0-29.08-.25-29.46.59l-3,6.63-1.81,0C49.44,57.93,16.87,53.93,10,53.14,10,52.92,6.67,53,77.88,53ZM24.07,57.11c18.18,3,23.88,5.68,25.65,7.18l-27.13.45ZM105,83H15a1,1,0,0,0,0,2h87.38c-4.8,3.53-9.16,6-12,6H9.54C5.41,86.93,2,84.53,2,79.21,2,75.63,3.15,74.39,7.66,67l117-1.95A219.93,219.93,0,0,1,105,83Z"/><path class="cls-8" d="M62,73h4a1,1,0,0,0,0-2H62A1,1,0,0,0,62,73Z"/><path class="cls-8" d="M72,73h4a1,1,0,0,0,0-2H72A1,1,0,0,0,72,73Z"/><path class="cls-8" d="M90,73h4a1,1,0,0,0,0-2H90A1,1,0,0,0,90,73Z"/><path class="cls-8" d="M101,73h4a1,1,0,0,0,0-2h-4A1,1,0,0,0,101,73Z"/><path class="cls-8" d="M42,71H23a1,1,0,0,0,0,2H42A1,1,0,0,0,42,71Z"/></g></svg>