<svg xmlns="http://www.w3.org/2000/svg" xmlns:xlink="http://www.w3.org/1999/xlink" viewBox="0 0 128 128"><defs><style>.cls-1{fill:url(#linear-gradient);}.cls-2{fill:#c7cdd8;}.cls-3{fill:url(#linear-gradient-2);}.cls-4{fill:#8288a1;}.cls-5{fill:#adb3c4;}.cls-6{fill:url(#linear-gradient-3);}.cls-7{fill:#47566a;}</style><linearGradient id="linear-gradient" x1="55.26" y1="94" x2="55.26" y2="75.65" gradientUnits="userSpaceOnUse"><stop offset="0" stop-color="#d4d8e1"/><stop offset="1" stop-color="#f3f4f5"/></linearGradient><linearGradient id="linear-gradient-2" x1="13.68" y1="78" x2="13.68" y2="38" gradientUnits="userSpaceOnUse"><stop offset="0" stop-color="#949aaf"/><stop offset="1" stop-color="#c6ccda"/></linearGradient><linearGradient id="linear-gradient-3" x1="64" y1="81.81" x2="64" y2="34" xlink:href="#linear-gradient-2"/></defs><title>Zepplin</title><g id="Zepplin"><path class="cls-1" d="M76.62,81.73c0,.13-.1.45-2.46,12.27H37.58L33.9,75.65Z"/><polygon class="cls-2" points="74.76 91 74.16 94 37.58 94 36.98 91 74.76 91"/><path class="cls-3" d="M22.36,72.51,17.19,78H5V38H17.19L22,43.52Z"/><polygon class="cls-4" points="22.36 72.51 17.19 78 5 78 5 75 17.19 75 22.32 69.55 22.36 72.51"/><path class="cls-5" d="M22.15,58H5V47.86a64.33,64.33,0,0,1,14.82-6.81L22,43.52Z"/><path class="cls-6" d="M127,57.9c0,13.2-19.8,23.91-46.74,23.91S1,71.1,1,57.9,53.32,34,80.26,34,127,44.7,127,57.9Z"/><path class="cls-4" d="M80.26,81.81C52.32,81.81-5.62,69.89,1.62,55.4c6,12,53.43,21.41,78.64,21.41s44.17-9.38,46.5-21.41C129.77,70.81,106.62,81.81,80.26,81.81Z"/><path class="cls-7" d="M80.26,33c-15.87,0-40.37,3.7-58,9.36C17.58,36.92,17.81,37,17.19,37H5a1,1,0,0,0-1,1V51.07c-5.18,4.32-5.49,9.08,0,13.67V78a1,1,0,0,0,1,1H17.19c.61,0,.44,0,5.53-5.41,3.45,1.1,6.88,2,10.33,2.89L36.6,94.2a1,1,0,0,0,1,.8H74.16a1,1,0,0,0,1-.8l2.3-11.43c1,0,1.9,0,2.82,0C107.48,82.81,128,72.1,128,57.9S107.48,33,80.26,33ZM6,39H16.73l3.48,4A62,62,0,0,0,6,49.57ZM16.76,77H6V66.24c3.82,2.58,9.09,4.8,14.61,6.66ZM73.34,93H38.4L35.19,77A228.52,228.52,0,0,0,75.41,82.7Zm6.92-12.19C55,80.81,2,70.29,2,57.9,2,46.21,52,35,80.26,35,105.91,35,126,45.06,126,57.9S105.91,80.81,80.26,80.81Z"/><path class="cls-7" d="M23,57H5a1,1,0,0,0,0,2H23A1,1,0,0,0,23,57Z"/><path class="cls-7" d="M44,87h4a1,1,0,0,0,0-2H44A1,1,0,0,0,44,87Z"/><path class="cls-7" d="M54,87h4a1,1,0,0,0,0-2H54A1,1,0,0,0,54,87Z"/><path class="cls-7" d="M64,87h4a1,1,0,0,0,0-2H64A1,1,0,0,0,64,87Z"/></g></svg>