<svg xmlns="http://www.w3.org/2000/svg" viewBox="0 0 128 128"><defs><style>.cls-1{fill:#47566a;}</style></defs><title>Ambulance</title><g id="Ambulance"><path class="cls-1" d="M109,83a5,5,0,1,0,5,5A5,5,0,0,0,109,83Zm0,8a3,3,0,1,1,3-3A3,3,0,0,1,109,91Z"/><path class="cls-1" d="M31,83a5,5,0,1,0,5,5A5,5,0,0,0,31,83Zm0,8a3,3,0,1,1,3-3A3,3,0,0,1,31,91Z"/><path class="cls-1" d="M123.13,64.21l-7.65-2.56-8.4-18.47A7.12,7.12,0,0,0,101,39V36a5,5,0,0,0-10,0v3H85V28a1,1,0,0,0-1-1H1a1,1,0,0,0-1,1V88a1,1,0,0,0,1,1H20.05A11,11,0,0,0,42,89h56.1a11,11,0,0,0,21.76,1H127a1,1,0,0,0,1-1V71A7.07,7.07,0,0,0,123.13,64.21ZM105.26,44,113,61.07,110,63H93V41h7.6A5.13,5.13,0,0,1,105.26,44ZM93,36a3,3,0,0,1,6,0v3H93ZM77,71h6V87H77Zm6-42V69H77V42a1,1,0,0,0-1-1H52a1,1,0,0,0-1,1V69H2V29ZM2,77H4v2H2Zm0,4H5a1,1,0,0,0,1-1V76a1,1,0,0,0-1-1H2V71H51V87H42a11,11,0,0,0-21.9,0H2ZM31,97a9,9,0,1,1,9-9A9,9,0,0,1,31,97ZM53,87V43H75V87Zm56,10a9,9,0,1,1,9-9A9,9,0,0,1,109,97Zm11-9a11,11,0,0,0-22-1H85V41h6V64a1,1,0,0,0,1,1h18.29c.4,0,.31,0,3.57-2.1.26.52-.07.29,8.64,3.2A5.1,5.1,0,0,1,126,71v2h-3a1,1,0,0,0-1,1v4a1,1,0,0,0,1,1h3v9Zm6-11h-2V75h2Z"/><path class="cls-1" d="M99,71H94a1,1,0,0,0,0,2h5A1,1,0,0,0,99,71Z"/><path class="cls-1" d="M70,49H58a1,1,0,0,0-1,1V62a1,1,0,0,0,1,1H70a1,1,0,0,0,1-1V50A1,1,0,0,0,70,49ZM69,61H59V51H69Z"/><path class="cls-1" d="M15,56h7v7a1,1,0,0,0,1,1h9a1,1,0,0,0,1-1V56h7a1,1,0,0,0,1-1V46a1,1,0,0,0-1-1H33V38a1,1,0,0,0-1-1H23a1,1,0,0,0-1,1v7H15a1,1,0,0,0-1,1v9A1,1,0,0,0,15,56Zm1-9h7a1,1,0,0,0,1-1V39h7v7a1,1,0,0,0,1,1h7v7H32a1,1,0,0,0-1,1v7H24V55a1,1,0,0,0-1-1H16Z"/></g></svg>