<svg xmlns="http://www.w3.org/2000/svg" viewBox="0 0 128 128"><defs><style>.cls-1{fill:#47566a;}</style></defs><title>Bike</title><g id="Bike"><path class="cls-1" d="M95.44,59.09,83.65,36c11.71-5.55,10.95-5.12,11.18-5.48S95,30.52,95,26a1,1,0,0,0-2,0v3.37c-11.46,5.43-11.76,5.32-11.71,6.24,0,.31.13.44,2.53,5.14L48.2,50.64,43.24,37h9.14a4.3,4.3,0,0,0,.84-8.51c-8.4-1.68-6.6-1.14-9.09-2.38C41.44,24.76,39.48,25,35.68,25a5,5,0,0,0-5,5,7,7,0,0,0,7,7h3.43l5.36,14.74L37.39,62.08C22.47,50.07,0,60.67,0,80a23,23,0,0,0,46,1h5.11a7,7,0,1,0,12.16-5.63L86.85,46.68,93.66,60a23,23,0,1,0,1.78-.91ZM32.68,30a3,3,0,0,1,3-3c5.83,0,5.25-.26,9.55,1.89.17.09-.33,0,7.6,1.56A2.3,2.3,0,0,1,52.38,35H37.68A5,5,0,0,1,32.68,30ZM47.25,53.89l7.29,20A7,7,0,0,0,51.08,79H46A22.94,22.94,0,0,0,38.9,63.4ZM41,79a18,18,0,0,0-5.36-11.84l2-2.25A20.91,20.91,0,0,1,44,79ZM24,80a1,1,0,0,1-2,0A1,1,0,0,1,24,80Zm.1-2.78A3,3,0,1,0,25.82,81H39a16,16,0,1,1-6.19-13.65ZM25.82,79c-.26-.71-1.28.76,8.46-10.34A16,16,0,0,1,39,79ZM23,101A21,21,0,0,1,2,80C2,62.4,22.42,52.7,36.07,63.59l-2,2.26A18,18,0,1,0,41,81h3A21,21,0,0,1,23,101ZM58,85a5,5,0,1,1,5-5A5,5,0,0,1,58,85ZM85.58,45.07l-23.87,29a6.94,6.94,0,0,0-5.31-.88L48.88,52.53c38.86-10.8,35.59-9.87,35.86-10C86.2,45.41,86,44.62,85.58,45.07ZM105,101A21,21,0,0,1,94.58,61.8l1.36,2.67a17.94,17.94,0,1,0,1.78-.92l-1.36-2.67A21,21,0,1,1,105,101Zm0-22a1,1,0,0,1,0,2A1,1,0,0,1,105,79Zm0,4a3,3,0,0,0,0-6c-.59,0,.34,1.46-6.37-11.67A16,16,0,1,1,105,96c-16.13,0-22.18-21.4-8.15-29.75l6,11.69A3,3,0,0,0,105,83Z"/></g></svg>