<svg xmlns="http://www.w3.org/2000/svg" viewBox="0 0 128 128"><defs><style>.cls-1{fill:#47566a;}</style></defs><title>Box Truck</title><g id="Box_Truck" data-name="Box Truck"><path class="cls-1" d="M127.32,63.67c-.68-2.05-.6-1.64-10-17.23A7.12,7.12,0,0,0,111.25,43H87V28a1,1,0,0,0-1-1H1a1,1,0,0,0-1,1V90a1,1,0,0,0,1,1H8.05A11,11,0,0,0,30,91c78.67,0,55.92.21,60.1,0A11,11,0,0,0,112,91h15a1,1,0,0,0,1-1C128,71.76,128.25,64.6,127.32,63.67Zm-11.7-16.2c11.28,18.74,10.19,16.31,9,17.53h-9.18c-4-4-3.85-4-4.41-4H98V45h13.25A5.14,5.14,0,0,1,115.62,47.47ZM2,29H85V75H2ZM2,77H85V89H30a11,11,0,0,0-21.9,0H2ZM19,99a9,9,0,1,1,9-9A9,9,0,0,1,19,99Zm82,0a9,9,0,1,1,9-9A9,9,0,0,1,101,99Zm11-10a11,11,0,0,0-21.9,0c-.3,0,1.06,0-3,0V45h9V62a1,1,0,0,0,1,1h13.59c4,4,3.85,4,4.41,4,11.36,0,10.24.18,10.91-.5.12,1,.09.45.09,8.5h-3a1,1,0,0,0-1,1v6a1,1,0,0,0,1,1h3v6Zm14-8h-2V77h2Z"/><path class="cls-1" d="M103,69H99a1,1,0,0,0,0,2h4A1,1,0,0,0,103,69Z"/><path class="cls-1" d="M19,85a5,5,0,1,0,5,5A5,5,0,0,0,19,85Zm0,8a3,3,0,1,1,3-3A3,3,0,0,1,19,93Z"/><path class="cls-1" d="M101,85a5,5,0,1,0,5,5A5,5,0,0,0,101,85Zm0,8a3,3,0,1,1,3-3A3,3,0,0,1,101,93Z"/></g></svg>