<svg xmlns="http://www.w3.org/2000/svg" viewBox="0 0 128 128"><defs><style>.cls-1{fill:#47566a;}</style></defs><title>Bullet Train</title><g id="Bullet_Train" data-name="Bullet Train"><path class="cls-1" d="M127,86H100.89a7,7,0,0,0,1.81-7H117a11.71,11.71,0,0,0,8-20.21c-1-1-.13-.32-17.24-11.72A42,42,0,0,0,84.56,40H1a1,1,0,0,0,0,2H84.55a39.94,39.94,0,0,1,22.14,6.74c.61.4,4.51.26-32.69.26a1,1,0,0,0-1,1V62a1,1,0,0,0,1,1h51.69a9.49,9.49,0,0,1,.88,6H67V50a1,1,0,0,0-1-1H52a1,1,0,0,0-1,1V69H1a1,1,0,0,0,0,2H51v6H1a1,1,0,0,0,0,2H4.3a7,7,0,0,0,1.81,7H1a1,1,0,0,0,0,2H127A1,1,0,0,0,127,86ZM96,86a5,5,0,0,1-4.58-7h9.16A5,5,0,0,1,96,86ZM84,86a5,5,0,0,1-4.58-7h9.16A5,5,0,0,1,84,86Zm40.38-25H95.14L90.56,51h19.53C123.74,60.1,123.07,59.49,124.38,61ZM75,51H88.36l4.58,10H75Zm51,20a9.66,9.66,0,0,1-9,6H67V71ZM53,51H65V77H53ZM23,86a5,5,0,0,1-4.58-7h9.16A5,5,0,0,1,23,86ZM6.42,79h9.16a5,5,0,1,1-9.16,0Zm9.47,7c1.93-1.88.29-1.88,2.22,0Zm12,0a7,7,0,0,0,1.81-7H77.3a7,7,0,0,0,1.81,7Zm61,0c1.93-1.88.29-1.88,2.22,0Z"/><path class="cls-1" d="M1,61a1,1,0,0,0,0,2H44a1,1,0,0,0,1-1V50a1,1,0,0,0-1-1H1a1,1,0,0,0,0,2H7V61Zm20,0V51H31V61Zm22,0H33V51H43ZM9,51H19V61H9Z"/></g></svg>