<svg xmlns="http://www.w3.org/2000/svg" viewBox="0 0 128 128"><defs><style>.cls-1{fill:#47566a;}</style></defs><title>Bus Station</title><g id="Bus_Station" data-name="Bus Station"><path class="cls-1" d="M114,50A50,50,0,1,0,57,99.5V127a1,1,0,0,0,2,0V99.75a50.62,50.62,0,0,0,10,0V127a1,1,0,0,0,2,0V99.5A50.07,50.07,0,0,0,114,50ZM64,98a48,48,0,1,1,48-48A48.05,48.05,0,0,1,64,98Z"/><path class="cls-1" d="M63.5,8A41.5,41.5,0,1,0,105,49.5,41.55,41.55,0,0,0,63.5,8Zm0,81A39.5,39.5,0,1,1,103,49.5,39.55,39.55,0,0,1,63.5,89Z"/><circle class="cls-1" cx="53" cy="59" r="2"/><circle class="cls-1" cx="75" cy="59" r="2"/><path class="cls-1" d="M60,61h8a1,1,0,0,0,0-2H60A1,1,0,0,0,60,61Z"/><path class="cls-1" d="M85.94,33H84V29.11A5.11,5.11,0,0,0,78.89,24H49.11A5.11,5.11,0,0,0,44,29.11V33H42.06A5.07,5.07,0,0,0,37,38.06V42a1,1,0,0,0,2,0V38.06A3.07,3.07,0,0,1,42.06,35H44V66a1,1,0,0,0,1,1h2v5a3,3,0,0,0,3,3h4a3,3,0,0,0,3-3V67H71v5a3,3,0,0,0,3,3h4a3,3,0,0,0,3-3V67h2a1,1,0,0,0,1-1V35h1.94A3.07,3.07,0,0,1,89,38.06V42a1,1,0,0,0,2,0V38.06A5.07,5.07,0,0,0,85.94,33ZM46,29.11A3.11,3.11,0,0,1,49.11,26H78.89A3.11,3.11,0,0,1,82,29.11V33H46ZM55,72a1,1,0,0,1-1,1H50a1,1,0,0,1-1-1V67h6Zm24,0a1,1,0,0,1-1,1H74a1,1,0,0,1-1-1V67h6Zm3-7H46V53H82Zm0-14H46V35H82Z"/></g></svg>