<svg xmlns="http://www.w3.org/2000/svg" viewBox="0 0 128 128"><defs><style>.cls-1{fill:#47566a;}</style></defs><title>Bus</title><g id="Bus"><path class="cls-1" d="M31,79a4,4,0,1,0,4,4A4,4,0,0,0,31,79Zm0,6a2,2,0,1,1,2-2A2,2,0,0,1,31,85Z"/><path class="cls-1" d="M103,79a4,4,0,1,0,4,4A4,4,0,0,0,103,79Zm0,6a2,2,0,1,1,2-2A2,2,0,0,1,103,85Z"/><path class="cls-1" d="M121,38.68A5.06,5.06,0,0,0,116.51,36H7.1A7.1,7.1,0,0,0,0,43.1V82a1,1,0,0,0,.68.94C7.29,85.12,6.86,85,7.1,85H22.23a9,9,0,0,0,17.55,0c.3.06-2.73,0,54.45,0a9,9,0,0,0,17.54,0H127a1,1,0,0,0,1-1C128,65.14,129.48,53.64,121,38.68Zm-1.8.87A51.86,51.86,0,0,1,126,65.26V69h-7.47L112,62.47V38h4.51A3.05,3.05,0,0,1,119.17,39.55ZM101,38V57H89V38ZM87,38V57H75V38ZM73,38V57H59V38ZM57,38V57H43V38ZM41,38V57H26V38ZM24,38V57H10V38ZM2,67H6v8H2ZM31,90a7,7,0,1,1,7-7A7,7,0,0,1,31,90Zm72,0a7,7,0,1,1,7-7A7,7,0,0,1,103,90Zm9-7a9,9,0,0,0-18,0H40a9,9,0,0,0-18,0H7.26L2,81.24V77H7a1,1,0,0,0,1-1V66a1,1,0,0,0-1-1H2V43.1A5.11,5.11,0,0,1,7.1,38H8V58a1,1,0,0,0,1,1h93a1,1,0,0,0,1-1V38h7c0,27.18-.13,25.17.29,25.59C118,71.26,117.53,71,118.11,71H126v3h-3a1,1,0,0,0-1,1v4a1,1,0,0,0,1,1h3v3Zm14-5h-2V76h2Z"/></g></svg>