<svg xmlns="http://www.w3.org/2000/svg" viewBox="0 0 128 128"><defs><style>.cls-1{fill:#47566a;}</style></defs><title>Cable Car</title><g id="Cable_Car" data-name="Cable Car"><path class="cls-1" d="M127,96h-1c-.12-17.78-3.12-29.17-5.85-41.13A5,5,0,0,0,119,45h-2a13.78,13.78,0,0,0-13.3-10H81.94a9,9,0,0,0-9-8A9,9,0,0,0,65,19.06V9.9A5,5,0,0,0,68.9,6H127a1,1,0,0,0,0-2H68.9a5,5,0,0,0-9.8,0H1A1,1,0,0,0,1,6H59.1A5,5,0,0,0,63,9.9v9.16a9,9,0,0,0-8,8,9,9,0,0,0-8,8H24.26A13.78,13.78,0,0,0,11,45H9a5,5,0,0,0-1.1,9.87C5,67.56,2.17,78.36,2.05,96H1a1,1,0,0,0-1,1v10a1,1,0,0,0,1,1H3.32l7.75,19.37c.39,1-7,.63,104.93.63,1,0,.36.79,8.68-20H127a1,1,0,0,0,1-1V97A1,1,0,0,0,127,96Zm-3,0H106V55h12.08C121,67.69,123.84,78.66,124,96ZM83,96V85h21V96Zm21-41V83H83V55ZM61,5a3,3,0,1,1,3,3A3,3,0,0,1,61,5Zm3,16a7,7,0,0,1,6.93,6H57.07A7,7,0,0,1,64,21Zm-8,8H73a7,7,0,0,1,6.93,6H49.07A7,7,0,0,1,56,29ZM24.26,37h79.48A11.79,11.79,0,0,1,115,45H13.05A11.79,11.79,0,0,1,24.26,37ZM6,50a3,3,0,0,1,3-3H119a3,3,0,0,1,0,6H9A3,3,0,0,1,6,50ZM22,85H45V96H22Zm23-2H22V55H45ZM9.92,55H20V96H4C4.16,78.5,7.12,67.28,9.92,55ZM2,98H45v8H2Zm3.48,10H45v18H12.68ZM47,55H81v71H47Zm68.32,71H83V108h39.52ZM126,106H83V98h43Z"/></g></svg>