<svg xmlns="http://www.w3.org/2000/svg" viewBox="0 0 128 128"><defs><style>.cls-1{fill:#47566a;}</style></defs><title>Campervan</title><g id="Campervan"><path class="cls-1" d="M31,80a6,6,0,1,0,6,6A6,6,0,0,0,31,80Zm0,10a4,4,0,1,1,4-4A4,4,0,0,1,31,90Z"/><path class="cls-1" d="M111,80a6,6,0,1,0,6,6A6,6,0,0,0,111,80Zm0,10a4,4,0,1,1,4-4A4,4,0,0,1,111,90Z"/><path class="cls-1" d="M126.55,64.8l-16.91-5.64L102.87,49h.73a6.41,6.41,0,0,0,4-11.4A30.2,30.2,0,0,0,88.79,31H1a1,1,0,0,0-1,1V88a1,1,0,0,0,1,1H20.43c3,10.68,18.22,10.62,21.17-.09.33.15-3,.09,58.83.09,3,10.64,18.12,10.63,21.14,0H127a1,1,0,0,0,1-1C128,66.62,128.49,65.44,126.55,64.8Zm-19.12-5.35L103.88,63H87V49h13.46ZM2,67H8v8H2ZM31,95a9,9,0,1,1,9-9A9,9,0,0,1,31,95Zm11-8a11,11,0,1,0-21.9,0H2V77H9a1,1,0,0,0,1-1V66a1,1,0,0,0-1-1H2V33H88.79a28.23,28.23,0,0,1,17.56,6.16A4.41,4.41,0,0,1,103.6,47H78a1,1,0,0,0-1,1V87H71V48a1,1,0,0,0-1-1H50a1,1,0,0,0-1,1V87C40.57,87,42.21,87,42,87Zm9,0V49H69V87Zm60,8a9,9,0,1,1,9-9A9,9,0,0,1,111,95Zm11-8a11,11,0,1,0-21.9,0H79V49h6V64a1,1,0,0,0,1,1h18.29c.56,0,.35.07,4.45-4l17.09,5.69A23.92,23.92,0,0,1,126,71h-3a1,1,0,0,0-1,1v4a3,3,0,0,0,3,3h1v8Zm4-10h-1a1,1,0,0,1-1-1V73h2Z"/><path class="cls-1" d="M90,71H86a1,1,0,0,0,0,2h4A1,1,0,0,0,90,71Z"/><path class="cls-1" d="M39,47H19a1,1,0,0,0-1,1V66a1,1,0,0,0,1,1H39a1,1,0,0,0,1-1V48A1,1,0,0,0,39,47ZM38,65H20V49H38Z"/></g></svg>