<svg xmlns="http://www.w3.org/2000/svg" viewBox="0 0 128 128"><defs><style>.cls-1{fill:#47566a;}</style></defs><title>Coupe</title><g id="Coupe"><path class="cls-1" d="M27,72a5,5,0,1,0,5,5A5,5,0,0,0,27,72Zm0,8a3,3,0,1,1,3-3A3,3,0,0,1,27,80Z"/><path class="cls-1" d="M103,72a5,5,0,1,0,5,5A5,5,0,0,0,103,72Zm0,8a3,3,0,1,1,3-3A3,3,0,0,1,103,80Z"/><path class="cls-1" d="M54,63H50a1,1,0,0,0,0,2h4A1,1,0,0,0,54,63Z"/><path class="cls-1" d="M127,63.38a7.12,7.12,0,0,0-6-5.34L90.82,54.45,75,42a9.18,9.18,0,0,0-5.65-2c-30.36,0-29.26-.39-32,1.17L21,50.32,6.38,51.8A7.08,7.08,0,0,0,0,58.86V74.94a1,1,0,0,0,.87,1l15.17,2A11,11,0,0,0,38,78c1.13.06,54,0,54.1,0A11,11,0,0,0,114,78h13a1,1,0,0,0,1-1C128,65.63,128.32,68.94,127,63.38ZM125.29,65l.49,2H123a1,1,0,0,1-.69-1.71C122.68,64.9,122.91,65,125.29,65Zm-56-23a7.13,7.13,0,0,1,4.41,1.53L88.84,55.44,84.16,57H47l3.75-15Zm-25.47.3c.28-.42-.72-.3,4.81-.3L44.9,57c-1.55,0,.18.26-9.72-1.72ZM2,63H7a1,1,0,0,1,1,1v2H2ZM27,86a9,9,0,1,1,9-9A9,9,0,0,1,27,86Zm76,0a9,9,0,1,1,9-9A9,9,0,0,1,103,86Zm23-10H114a11,11,0,0,0-21.9,0C92,76,39,76,38,76a11,11,0,0,0-21.89-.14L2,74.06V68H9a1,1,0,0,0,1-1V64a3,3,0,0,0-3-3H2V58.86a5.09,5.09,0,0,1,4.58-5.07l14.84-1.5c.33,0-.76.53,16.83-9.37A7.12,7.12,0,0,1,41.63,42l-9,13.4A1,1,0,0,0,33.32,57c10.9,2.18,10.21,2,10.36,2,43.59,0,40.72,0,41,0,6.55-2.19,6.31-2,6.6-2.43L120.66,60a5.13,5.13,0,0,1,4,3c-1.56,0-2.77-.19-3.81.87A3,3,0,0,0,123,69h3Z"/></g></svg>