<svg xmlns="http://www.w3.org/2000/svg" viewBox="0 0 128 128"><defs><style>.cls-1{fill:#47566a;}</style></defs><title>Crossover</title><g id="Crossover"><path class="cls-1" d="M21,76a5,5,0,1,0,5,5A5,5,0,0,0,21,76Zm0,8a3,3,0,1,1,3-3A3,3,0,0,1,21,84Z"/><path class="cls-1" d="M105,76a5,5,0,1,0,5,5A5,5,0,0,0,105,76Zm0,8a3,3,0,1,1,3-3A3,3,0,0,1,105,84Z"/><path class="cls-1" d="M120,55.58,94.92,52.42,77.1,36.35A9.09,9.09,0,0,0,71,34H17.27A9.17,9.17,0,0,0,10,37.67L.2,50.74C-.09,51.12,0,49.18,0,80a1,1,0,0,0,.76,1l7.38,1.85A13,13,0,0,0,33.83,83c.37.06,58.08,0,58.34,0a13,13,0,0,0,25.66,0h3.07c.43,0,.07.16,6.66-4.26.63-.42.44.39.44-14.1A9.15,9.15,0,0,0,120,55.58ZM71,36a7.13,7.13,0,0,1,4.77,1.83L93,53.34,88,55H53V36ZM51,36V55H30V36ZM28,36V55c-.91,0,.67.53-10-3.74V36ZM2,57H4v6H2ZM21,92A11,11,0,1,1,32,81,11,11,0,0,1,21,92Zm84,0a11,11,0,1,1,11-11A11,11,0,0,1,105,92Zm15.6-11H118a13,13,0,0,0-26,0H34a13,13,0,0,0-26-.31L2,79.18V65H5a1,1,0,0,0,1-1V56a1,1,0,0,0-1-1H2V51.67l9.56-12.8A7.13,7.13,0,0,1,16,36.13c0,16.88-.26,16.38.63,16.73C27.5,57.21,26.88,57,27.16,57c65.39,0,61,0,61.29,0,6.54-2.18,6.36-2,6.63-2.49l24.68,3.1A7.16,7.16,0,0,1,126,65h-3c-.82,0-.8.36-2.89,4.55A1,1,0,0,0,121,71h5v6.38ZM126,69h-3.38l1-2H126Z"/><path class="cls-1" d="M60,61H56a1,1,0,0,0,0,2h4A1,1,0,0,0,60,61Z"/></g></svg>