<svg xmlns="http://www.w3.org/2000/svg" viewBox="0 0 128 128"><defs><style>.cls-1{fill:#47566a;}</style></defs><title>Cruise</title><g id="Cruise"><path class="cls-1" d="M127.91,67.58c-.39-.83,1.74-.58-30.9-.58-8.31-16.61-7.74-16-8.62-16H82.83l-7.7-7.71c-.42-.41,0-.29-10.56-.29C58.48,32.86,58.79,33,58,33H54a1,1,0,0,0-1,1v9H48a1,1,0,0,0-1,1v7H41V40a1,1,0,0,0-1-1H32a1,1,0,0,0-1,1V51H24V40a1,1,0,0,0-1-1H15a1,1,0,0,0-1,1V51c-2.84,0-3.58-.2-3.81.77L6.09,69H1a1,1,0,0,0-1,1c0,6.49-.13,6.38.38,6.78C.47,76.86,10,84.61,10,94a1,1,0,0,0,1,1h94c.71,0-.91,1.63,22.76-26.35A1,1,0,0,0,127.91,67.58ZM55,35h2.43l4.8,8H55ZM49,45H74l6,6H49ZM33,41h6V51H33ZM16,41h6V51H16ZM12,53H87.77l3,6H47a1,1,0,0,0,0,2H91.77l3,6c-4.2,0-3.93,0-4.22.11L86.76,69H8.15Zm99.36,32H17a1,1,0,0,0,0,2h92.61l-5.07,6H12c-.54-8.89-8.15-15.91-10-17.47V71c91.28,0,85.12.06,85.45-.11L91.24,69h33.6Z"/><path class="cls-1" d="M18,60v2a1,1,0,0,0,2,0V60A1,1,0,0,0,18,60Z"/><path class="cls-1" d="M26,60v2a1,1,0,0,0,2,0V60A1,1,0,0,0,26,60Z"/><path class="cls-1" d="M35,60v2a1,1,0,0,0,2,0V60A1,1,0,0,0,35,60Z"/></g></svg>