<svg xmlns="http://www.w3.org/2000/svg" viewBox="0 0 128 128"><defs><style>.cls-1{fill:#47566a;}</style></defs><title>Driver</title><g id="Driver"><path class="cls-1" d="M69,60.89a1,1,0,0,0-1.42-1.42,5.09,5.09,0,0,1-7.2,0A1,1,0,0,0,59,60.89,7.11,7.11,0,0,0,69,60.89Z"/><path class="cls-1" d="M51,42v2a1,1,0,0,0,2,0V42A1,1,0,0,0,51,42Z"/><path class="cls-1" d="M77,44V42a1,1,0,0,0-2,0v2A1,1,0,0,0,77,44Z"/><path class="cls-1" d="M109.59,101.61A29.35,29.35,0,0,0,80.26,77H73V71.54A25.77,25.77,0,0,0,88.37,53C93.88,53,97,49.14,97,45a8,8,0,0,0-7.61-8A29.28,29.28,0,0,0,91,29.67c0-3.63,0-6-1.59-8.41,4.74-7.11,4-5,4-11A3,3,0,0,0,91.39,7.4C67.58-.54,68.78-.32,66.69-.32c-9.22,0-3.63-1.1-30.08,7.72a3,3,0,0,0-2.06,2.86c0,6.11-.72,3.86,4,11C37,23.7,37,26,37,29.67A29.28,29.28,0,0,0,38.61,37,8,8,0,0,0,31,45c0,4,3,8,8.53,8A25.32,25.32,0,0,0,55,71.55V77H47.74a29.35,29.35,0,0,0-29.33,24.61l-4.17,25a1,1,0,0,0,2,.33l4.17-25A27.35,27.35,0,0,1,46.9,79C49.59,95.24,49.28,94.5,50,94.82s0,.48,13-7v7.69A31.51,31.51,0,0,0,32.52,127a1,1,0,0,0,2,0A29.51,29.51,0,0,1,64,97.52c17.9.47,29.49,14.4,29.49,29.48a1,1,0,0,0,2,0A31.51,31.51,0,0,0,65,95.54V87.85c13,7.45,12.37,7.29,13,7s.39.3,3.06-15.8a27.35,27.35,0,0,1,26.52,22.92l4.17,25a1,1,0,0,0,2-.33ZM40.4,36.05A26.18,26.18,0,0,1,39,29.67c0-3.12,0-4.89.8-6.5a18.4,18.4,0,0,0,5.72,7.11Zm1.05-14h45.1a16.52,16.52,0,0,1-15.2,10H56.65A16.52,16.52,0,0,1,41.45,22ZM88.2,23.17c.76,1.61.8,3.38.8,6.5a26.18,26.18,0,0,1-1.4,6.38l-5.12-5.77A18.4,18.4,0,0,0,88.2,23.17ZM95,45a6,6,0,0,1-6,6V39A6,6,0,0,1,95,45ZM36.55,14.29c0-4.24-.2-4.69.69-5C60.89,1.41,59.63,1.68,61.31,1.68c5.6,0,6.22-.13,7.74.38L90.76,9.3a1,1,0,0,1,.69,1c0,4.47.06,4.25-.17,4.6L87.85,20H40.15C36.46,14.46,36.55,14.72,36.55,14.29ZM39,51a6,6,0,0,1,0-12Zm2-3.25V38.38l6.2-7C52.68,34.66,55.69,34,71.35,34a18.53,18.53,0,0,0,9.45-2.59l6.2,7v9c0,16-15.17,28.1-30.66,22.52A23.4,23.4,0,0,1,41,47.75ZM71,72.23v5.48l-7,7-7-7V72.24A24.7,24.7,0,0,0,71,72.23ZM48.92,79h6.44l6.94,7L51.13,92.33Zm28,13.33L65.7,86l6.94-7h6.44Z"/><path class="cls-1" d="M68.25,104A1,1,0,0,0,67,105v15c0,1.26,2.24,1.09,3.53,4.33.35.88,0,.63,15.47.63a1.1,1.1,0,0,0,1.12-1.18A23.19,23.19,0,0,0,68.25,104ZM69,119.49V106.24A21.21,21.21,0,0,1,85,123H72.1A9.08,9.08,0,0,0,69,119.49Z"/><path class="cls-1" d="M59.86,104a.41.41,0,0,0-.11,0,23.19,23.19,0,0,0-18.87,19.79,1,1,0,0,0,.66,1.06c.34.17-.95.12,15,.12,1.44,0,.65-2.14,4-4.1.69-.41.49.28.49-15.9A1,1,0,0,0,59.86,104Zm-4,19H43.05a21.21,21.21,0,0,1,16-16.76v13.25A9.08,9.08,0,0,0,55.9,123Z"/></g></svg>