<svg xmlns="http://www.w3.org/2000/svg" viewBox="0 0 128 128"><defs><style>.cls-1{fill:#47566a;}</style></defs><title>Electric Scooter</title><g id="Electric_Scooter" data-name="Electric Scooter"><path class="cls-1" d="M112.63,101.23l-1.41-5.3c3.14-.77,3.29-.7,3.57-1.18s.61,1.15-5.62-22.86a1,1,0,0,0-1.21-.72l-3,.73L87.32,3.75a1,1,0,0,0-1-.75H77V2a1,1,0,0,0-1-1H62a3,3,0,0,0,0,6H76a1,1,0,0,0,1-1V5h8.58l17.47,67.37-3,.73a1,1,0,0,0-.73,1.23l4.34,16.75L89.89,109h-56C30,93.9,10.24,89.19.22,101.72A1,1,0,0,0,1.78,103C10.54,92,28,95.7,31.83,109H27c-.11,0-2.88-8-12-8a13,13,0,1,0,12,18c61.11,0,57.11.1,57.54-.18.59-.13-.89,1.56,19.77-25.29,1.17,4.51.48,4,5,2.87l1.42,5.35a13,13,0,1,0,1.93-.52ZM75,5H62a1,1,0,0,1,0-2H75ZM15,125a11,11,0,1,1,11-12h-3a8,8,0,1,0,0,2h3A11,11,0,0,1,15,125Zm1.72-12a2,2,0,1,0,0,2h4.19a6,6,0,1,1,0-2Zm67,4H27.64a12.68,12.68,0,0,0,0-6H88.35Zm17.79-42.19,6-1.46,5.23,20.15-6,1.46ZM115,125a11,11,0,0,1-3.78-21.32l.77,2.91a8,8,0,1,0,1.94-.51l-.78-2.91A11,11,0,1,1,115,125Zm0-9a2,2,0,0,0,.52-3.92l-1.08-4a6,6,0,1,1-1.93.52l1.08,4A2,2,0,0,0,115,116Z"/></g></svg>