<svg xmlns="http://www.w3.org/2000/svg" viewBox="0 0 128 128"><defs><style>.cls-1{fill:#47566a;}</style></defs><title>Fire Truck</title><g id="Fire_Truck" data-name="Fire Truck"><path class="cls-1" d="M101,83a5,5,0,1,0,5,5A5,5,0,0,0,101,83Zm0,8a3,3,0,1,1,3-3A3,3,0,0,1,101,91Z"/><path class="cls-1" d="M44,83a5,5,0,1,0,5,5A5,5,0,0,0,44,83Zm0,8a3,3,0,1,1,3-3A3,3,0,0,1,44,91Z"/><path class="cls-1" d="M19,83a5,5,0,1,0,5,5A5,5,0,0,0,19,83Zm0,8a3,3,0,1,1,3-3A3,3,0,0,1,19,91Z"/><path class="cls-1" d="M127.88,70.1l-12.5-23.35A7.1,7.1,0,0,0,109.12,43h-.79l-1.77-5.32c-.3-.91-.48-.68-8-.68a1,1,0,0,0-1,.68L95.89,43H95V30a1,1,0,0,0-1-1H86a1,1,0,0,0-1,1v1H10V30a1,1,0,0,0-1-1H1a1,1,0,0,0-1,1V90a1,1,0,0,0,1,1H8.43c3,10.64,18.12,10.63,21.14,0h3.86c3,10.64,18.12,10.63,21.14,0,37.89,0,35.52,0,35.83-.09,2.81,10.21,17,10.9,20.84,1.09H127a1,1,0,0,0,1-1C128,69,128.06,70.43,127.88,70.1ZM113.62,47.69,120.74,61H106V45h3.12A5.09,5.09,0,0,1,113.62,47.69ZM89,61V45h15V61ZM73,61V45H87V61ZM47,77V55H63V77ZM60.33,42.33,50.08,33h20.5ZM58.1,43H36.9l10.6-9.65Zm-23.43-.67L24.42,33h20.5ZM32.44,43H11.23l10.6-9.65ZM30,45v8H2V45ZM2,55H18V77H2Zm18,0H36V77H20ZM38,77V55h7V77ZM63,53H32V45H63Zm-.44-10,10.61-9.65L83.77,43Zm36.77-4h5.56l1.34,4H98ZM87,31h6V43H87ZM85,41.42,75.75,33H85ZM19.25,33,10,41.42V33ZM2,31H8V43H2ZM2,89V79H12.7A11,11,0,0,0,8.05,89Zm17,8a9,9,0,1,1,9-9A9,9,0,0,1,19,97Zm11-8A11,11,0,0,0,25.3,79H37.7a11,11,0,0,0-4.65,10ZM44,97a9,9,0,1,1,9-9A9,9,0,0,1,44,97Zm45-8H55A11,11,0,0,0,50.3,79H89Zm12,8a9,9,0,1,1,9-9A9,9,0,0,1,101,97Zm10.81-7A11,11,0,0,0,91,83.44V78a1,1,0,0,0-1-1H65V45h6V62a1,1,0,0,0,1,1h49.81L126,70.82V73h-5a1,1,0,0,0-1,1v8a1,1,0,0,0,1,1h5v7ZM126,81h-4V75h4Z"/><path class="cls-1" d="M109,69h-4a1,1,0,0,0,0,2h4A1,1,0,0,0,109,69Z"/><path class="cls-1" d="M78,69H74a1,1,0,0,0,0,2h4A1,1,0,0,0,78,69Z"/></g></svg>