<svg xmlns="http://www.w3.org/2000/svg" viewBox="0 0 128 128"><defs><style>.cls-1{fill:#47566a;}</style></defs><title>Gateway</title><g id="Gateway"><path class="cls-1" d="M13,31a5,5,0,1,0,5,5A5,5,0,0,0,13,31Zm0,8a3,3,0,1,1,3-3A3,3,0,0,1,13,39Z"/><path class="cls-1" d="M13,47a5,5,0,1,0,5,5A5,5,0,0,0,13,47Zm0,8a3,3,0,1,1,3-3A3,3,0,0,1,13,55Z"/><path class="cls-1" d="M56.94,12H36.06A5.07,5.07,0,0,0,31,17.06V31H26V1a1,1,0,0,0-1-1H1A1,1,0,0,0,0,1V127a1,1,0,0,0,1,1H25a1,1,0,0,0,1-1V93h5v13.94A5.07,5.07,0,0,0,36.06,112H56.94A5.07,5.07,0,0,0,62,106.94V17.06A5.07,5.07,0,0,0,56.94,12ZM35,33a3,3,0,0,1,0,6H26V33ZM26,83V41h5V83ZM2,12H24V22H2ZM24,2v8H2V2Zm0,124H2V24H24Zm2-35V85h9a3,3,0,0,1,0,6Zm34,15.94A3.06,3.06,0,0,1,56.94,110H36.06A3.07,3.07,0,0,1,33,106.94V93h2a5,5,0,0,0,0-10H33V41h2a5,5,0,0,0,0-10H33V17.06A3.07,3.07,0,0,1,36.06,14H56.94A3.07,3.07,0,0,1,60,17.06Z"/><path class="cls-1" d="M45.62,57.08c-.27.11.12-.24-5.33,5.21a1,1,0,0,0,1.42,1.42L45,60.41V74a1,1,0,0,0,2,0V60.41l3.29,3.3a1,1,0,0,0,1.42-1.42C46.34,56.92,46.45,56.73,45.62,57.08Z"/><path class="cls-1" d="M127,0H103a1,1,0,0,0-1,1V31H97V17.06A5.07,5.07,0,0,0,91.94,12H71.06A5.07,5.07,0,0,0,66,17.06v89.88A5.07,5.07,0,0,0,71.06,112H91.94A5.07,5.07,0,0,0,97,106.94V93h5v34a1,1,0,0,0,1,1h24a1,1,0,0,0,1-1V1A1,1,0,0,0,127,0Zm-1,2v8H104V2Zm0,20H104V12h22ZM102,41V83H97V41Zm0-8v6H93a3,3,0,0,1,0-6Zm-7,73.94A3.06,3.06,0,0,1,91.94,110H71.06A3.07,3.07,0,0,1,68,106.94V17.06A3.07,3.07,0,0,1,71.06,14H91.94A3.07,3.07,0,0,1,95,17.06V31H93a5,5,0,0,0,0,10h2V83H93a5,5,0,0,0,0,10h2ZM93,91a3,3,0,0,1,0-6h9v6Zm11,35V24h22V126Z"/><path class="cls-1" d="M115,31a5,5,0,1,0,5,5A5,5,0,0,0,115,31Zm0,8a3,3,0,1,1,3-3A3,3,0,0,1,115,39Z"/><path class="cls-1" d="M115,47a5,5,0,1,0,5,5A5,5,0,0,0,115,47Zm0,8a3,3,0,1,1,3-3A3,3,0,0,1,115,55Z"/><path class="cls-1" d="M87.71,62.29c-5.46-5.46-5.06-5.1-5.33-5.21-.83-.35-.74-.13-6.09,5.21a1,1,0,0,0,1.42,1.42L81,60.41V74a1,1,0,0,0,2,0V60.41C86.6,64,86.45,64,87,64A1,1,0,0,0,87.71,62.29Z"/></g></svg>