<svg xmlns="http://www.w3.org/2000/svg" viewBox="0 0 128 128"><defs><style>.cls-1{fill:#47566a;}</style></defs><title>Golf Car</title><g id="Golf_Car" data-name="Golf Car"><path class="cls-1" d="M21,93a5,5,0,1,0,5,5A5,5,0,0,0,21,93Zm0,8a3,3,0,1,1,3-3A3,3,0,0,1,21,101Z"/><path class="cls-1" d="M115,93a5,5,0,1,0,5,5A5,5,0,0,0,115,93Zm0,8a3,3,0,1,1,3-3A3,3,0,0,1,115,101Z"/><path class="cls-1" d="M127.71,72.49C114.42,59.19,115.4,60,114.81,60h-9.46L92.44,25c12.15,0,11.85.2,12.27-.47a1,1,0,0,0,0-1A15.4,15.4,0,0,0,90.91,15H13.85c-8,0-10.77,10-8,10H14V67H7a1,1,0,0,0-1,1v8H1a1,1,0,0,0-1,1V97a1,1,0,0,0,1,1H8a13,13,0,0,0,25.65,2.93c.3.11-4.8.07,68.71.07a13,13,0,1,0,24.09-9.14c1.49-2,1.55-2,1.55-2.44C128,71.7,128.11,72.89,127.71,72.49ZM13.85,17H90.91a13.38,13.38,0,0,1,11.21,6H6.93A7,7,0,0,1,13.85,17ZM16,25H90.3l12.92,35c-7.2,0-7.22-.2-7.59.55l-3,5.93L80.74,57.54l4.4-6.15a1,1,0,0,0-1.63-1.16L73.35,64.45A1,1,0,0,0,74.16,66c.71,0,.53,0,5.42-6.86l12.17,9.12-2.22,4.45c-.36.71-.37.32,6.22,10.83L91.46,90H73c0-10.23,0-8.88,0-9.17A5,5,0,0,0,69.86,72H50.49L45.9,56a5,5,0,1,0-9.6,2.77C39,68.1,38.74,67,38.48,67H16ZM97,81.74l-5.4-8.61L97.14,62H99V78.7ZM41.42,69.48c0-.28.32,1-3.2-11.26A3,3,0,1,1,44,56.56l4.8,16.72a1,1,0,0,0,1,.72H69.86a3,3,0,1,1-.21,6H52.1ZM21,109A11,11,0,1,1,32,98,11,11,0,0,1,21,109Zm94,0a11,11,0,1,1,11-11A11,11,0,0,1,115,109Zm-13-10c-73.2,0-67.8,0-68.1,0A13,13,0,0,0,8.17,96H2V78H7a1,1,0,0,0,1-1V69H38.07C52.41,83.12,51,82,52,82H71v9a1,1,0,0,0,1,1c21.7,0,20.41.19,20.83-.45,8.7-13,8.17-12.12,8.17-12.55V62h13.39c12.78,12.78,12.32,12,11.11,12a4.5,4.5,0,0,0,0,9h.5v6.09l-.72,1C117.4,79.87,101.07,86.19,102.05,99Zm24-18h-.5a2.5,2.5,0,0,1,0-5h.5Z"/></g></svg>