<svg xmlns="http://www.w3.org/2000/svg" viewBox="0 0 128 128"><defs><style>.cls-1{fill:#47566a;}</style></defs><title>GPS</title><g id="GPS"><path class="cls-1" d="M31,8.26A2.07,2.07,0,1,0,28.9,6.19,2.07,2.07,0,0,0,31,8.26Z"/><path class="cls-1" d="M47.48,8.26a2.07,2.07,0,1,0-2.06-2.07A2.07,2.07,0,0,0,47.48,8.26Z"/><path class="cls-1" d="M79,56.67V8.26A9.27,9.27,0,0,0,69.74-1H8.26A9.27,9.27,0,0,0-1,8.26V119.74A9.27,9.27,0,0,0,8.26,129H69.74A9.27,9.27,0,0,0,79,119.74v-3c22.47,12,50-4.32,50-30S101.51,44.65,79,56.67Zm-2,63.07A7.27,7.27,0,0,1,69.74,127H8.26A7.27,7.27,0,0,1,1,119.74V8.26A7.27,7.27,0,0,1,8.26,1H69.74A7.27,7.27,0,0,1,77,8.26V57.83a33.62,33.62,0,0,0-6,4.75V8a1,1,0,0,0-1-1H55.53a1,1,0,0,0-1,1,3.07,3.07,0,0,1-3.13,3c-26.51,0-25.73.38-27-.91A2.85,2.85,0,0,1,23.47,8a1,1,0,0,0-1-1H8A1,1,0,0,0,7,8V120a1,1,0,0,0,1,1H70a1.07,1.07,0,0,0,1-1.08v-9.08a33.62,33.62,0,0,0,6,4.75Zm-8-2.24L28.31,76.79,59,46.08l10,10v8.67a33.92,33.92,0,0,0,0,44C69,109,69,108,69,117.5Zm0-81.75-9.3-9.3a1,1,0,0,0-1.41,0l-21.2,21.2L9,19.54V9H21.57a5.11,5.11,0,0,0,5,4H51.4a5.11,5.11,0,0,0,5-4H69ZM9,37,28.39,56.35,9,75.74ZM9,96.1l12.05-12L56,119H9ZM21.76,81.92a1,1,0,0,0-1.42,0L9.06,93.2V78.5L30.51,57.06a1,1,0,0,0,0-1.42L9.06,34.2V22.43c29.12,29.14,27.41,27.63,28,27.63S36,51.55,59,28.57l10,10V53.26L59.7,44a1,1,0,0,0-1.41,0L26.19,76.08a1,1,0,0,0,0,1.42L67.67,119H58.81ZM78.7,114.29a1,1,0,0,0-.38-.23A32,32,0,1,1,127,86.71C127,111.44,100,126.88,78.7,114.29Z"/><path class="cls-1" d="M95.85,63.53a1,1,0,0,0-1.76,0L73.44,101.8a1,1,0,0,0,1.15,1.44L95,97.62c22,6.06,20.84,6,21.43,5.28S118,104.56,95.85,63.53Zm-.62,32.09c-.38-.11,1.14-.46-18.92,5.07L95,66.11l18.65,34.58Z"/><path class="cls-1" d="M37.87,17.87a1,1,0,0,0-1.42,0l-9.29,9.29a1,1,0,0,0,0,1.42l9.29,9.29a1,1,0,0,0,1.42,0c10.07-10.07,9.58-9.41,9.58-10S47.94,28,37.87,17.87Zm-.71,17.88-7.87-7.88L37.16,20,45,27.87Z"/><path class="cls-1" d="M49.22,66.39a1,1,0,0,0-1.41,0l-9.29,9.29a1,1,0,0,0,0,1.41l7.22,7.23a1,1,0,0,0,1.42,0L56.45,75a1,1,0,0,0,0-1.41ZM46.45,82.2l-5.81-5.81,7.88-7.88,5.81,5.81Z"/><path class="cls-1" d="M34.77,105.62,24.45,95.29a1,1,0,0,0-1.42,0l-8.25,8.26a1,1,0,0,0,0,1.41c11.21,11.22,10.44,10.62,11,10.62s0,.38,9-8.55A1,1,0,0,0,34.77,105.62Zm-9,7.55-8.91-8.91,6.84-6.85,8.91,8.91Z"/></g></svg>