<svg xmlns="http://www.w3.org/2000/svg" viewBox="0 0 128 128"><defs><style>.cls-1{fill:#47566a;}</style></defs><title>Hatchback</title><g id="Hatchback"><path class="cls-1" d="M17,75a5,5,0,1,0,5,5A5,5,0,0,0,17,75Zm0,8a3,3,0,1,1,3-3A3,3,0,0,1,17,83Z"/><path class="cls-1" d="M105,75a5,5,0,1,0,5,5A5,5,0,0,0,105,75Zm0,8a3,3,0,1,1,3-3A3,3,0,0,1,105,83Z"/><path class="cls-1" d="M127.07,64.94a9.22,9.22,0,0,0-7.58-7.28L99,54.48,78,38.67a13.29,13.29,0,0,0-8-2.67H24.45A21.34,21.34,0,0,0,8.39,43.33C3,49.54,0,52,0,57.23V78c0,1,.36.84,6,2.75A11,11,0,0,0,28,81h66.1A11,11,0,0,0,116,81c9.69,0,9.32.12,9.73-.3C127.86,78.5,128,78.49,128,78,128,67.53,128.25,70.91,127.07,64.94ZM125.72,69h-5.61a2.8,2.8,0,0,1,.72-1.12c1.1-1.13,2.3-.88,4.49-.88ZM76.82,40.26l20.11,15.2L92.29,57H59V38C69.82,38,72.93,37.32,76.82,40.26ZM57,57H36.64l1.9-19H57ZM28.76,38h7.77l-1.9,19H25.82a7.69,7.69,0,0,1-1.43-8C27.76,40.52,28.66,38.3,28.76,38ZM14.14,47.21C8.34,57.37,9.62,57,2,57a9.1,9.1,0,0,1,2.24-5.27C9.62,45.59,11.4,43,15.67,40.79A11.75,11.75,0,0,1,14.14,47.21ZM2,65H4v2H2ZM17,89a9,9,0,0,1-9-8.63,1,1,0,0,0,0-.72A9,9,0,1,1,17,89Zm88,0a9,9,0,1,1,9-9A9,9,0,0,1,105,89Zm19.55-10H116a11,11,0,0,0-21.9,0H28A11,11,0,0,0,6.1,78.61L2,77.23V69H5a1,1,0,0,0,1-1V64a1,1,0,0,0-1-1H2V59H5.59a7.1,7.1,0,0,0,6.16-3.58c4-7,6.67-10.22,5.77-16.09,3.72-1.47,6.34-1.33,9.1-1.33L22.53,48.23a9.7,9.7,0,0,0,2.15,10.48c.46.45-3.93.29,67.77.29.23,0-.23.13,6.42-2.08,1.25-.42-3.24-.93,20.31,2.71A7.19,7.19,0,0,1,125,65h-2.07c-4.65,0-6.29,6-4,6H126v6.54Z"/><path class="cls-1" d="M66,65H62a1,1,0,0,0,0,2h4A1,1,0,0,0,66,65Z"/></g></svg>