<svg xmlns="http://www.w3.org/2000/svg" viewBox="0 0 128 128"><defs><style>.cls-1{fill:#47566a;}</style></defs><title>Helicopter</title><g id="Helicopter"><path class="cls-1" d="M100.75,49c-8.32-8.32-7.84-8-8.43-8H89V36h38a1,1,0,0,0,0-2H89V33a1,1,0,0,0-2,0v1H50a1,1,0,0,0,0,2H87v5a28.08,28.08,0,0,0-19.08,8H19.44L7.75,35.35C7.32,34.85,7.4,35,1,35a1,1,0,0,0-.92,1.39L6,50.21v3C3.81,66.86,3.78,66.15,4.2,66.65s.2.35,6.85.35c.88,0,.72-.19,4.89-8.87l47.17,8.76A31.84,31.84,0,0,0,89,85.84V94H74a1,1,0,0,0,0,2h46.42a8.29,8.29,0,0,0,7.47-4.62,1,1,0,0,0-1.78-.89A6.34,6.34,0,0,1,120.42,94H112V86h6.88A9.14,9.14,0,0,0,128,76.9,27.75,27.75,0,0,0,100.75,49Zm24.67,24H110V59h8.88A24.92,24.92,0,0,1,125.42,73ZM92,73c-8.28-.47-14.4-7.13-14.4-10.27A3.69,3.69,0,0,1,81.3,59H92Zm2,2h14v9H94Zm0-2V59h14V73ZM91.91,43l6,6h-27C78.68,42.57,86.1,43,91.91,43ZM64.74,65.61c-.31-.72,3,.1-49.18-9.59a1,1,0,0,0-1.09.55L10.42,65H6.13C8.11,52.69,8,53.46,8,53.33c0-3.69,0-3.47-.08-3.72L2.52,37h4C19.24,51.85,18.32,51,19,51h81.29a25.5,25.5,0,0,1,16.49,6H81.3a5.69,5.69,0,0,0-5.7,5.7C75.6,66.86,82.49,74.49,92,75c0,9.72,0,9-.07,9A29.75,29.75,0,0,1,64.74,65.61ZM110,94H91V86c1.6,0,1.69,0,19,0Zm8.88-10H110V75h15.94c0,.56.06,1.16.06,1.9A7.14,7.14,0,0,1,118.88,84Z"/></g></svg>