<svg xmlns="http://www.w3.org/2000/svg" viewBox="0 0 128 128"><defs><style>.cls-1{fill:#47566a;}</style></defs><title>Hot Air Balloon</title><g id="Hot_Air_Balloon" data-name="Hot Air Balloon"><path class="cls-1" d="M76,112H74.92L73.18,91H74a1,1,0,0,0,.47-1.87C80.81,82.54,104,56.94,104,35.4,104,9.3,83.34,0,64,0,40.7,0,24,12.36,24,35.4c0,21.54,23.19,47.14,29.53,53.73A1,1,0,0,0,54,91h.82l-1.74,21H52a1,1,0,0,0,0,2h1v13a1,1,0,0,0,1,1H74a1,1,0,0,0,1-1V114h1A1,1,0,0,0,76,112ZM59.06,89C56.59,85.22,39,57.53,39,35.4,39,13.92,48.82,4.51,59.35,2.45,55.3,7.23,53,18.81,53,35.4,53,56.76,59.15,83,60.61,89Zm8.33,0C68.85,83,75,56.76,75,35.4c0-16.59-2.3-28.17-6.35-32.95C79.18,4.51,89,13.92,89,35.4,89,57.53,71.41,85.22,68.94,89Zm-4.72,0C61.48,84.22,55,57.19,55,35.4,55-1.47,65.43,2,64,2c8.81,0,14.07,35.85,1.33,87Zm8.51,2,1.73,21H65V91ZM102,35.4C102,57.78,74.8,86,71.79,89h-.47C75.53,82.45,91,56.86,91,35.4c0-17.08-6-27-13.76-31.76C90.71,7.17,102,16.72,102,35.4ZM50.76,3.64C43,8.43,37,18.32,37,35.4,37,56.86,52.47,82.45,56.68,89h-.47C53.2,86,26,57.78,26,35.4,26,16.72,37.29,7.17,50.76,3.64ZM63,91v21H55.09l1.73-21Zm10,35H55V114H73Z"/></g></svg>