<svg xmlns="http://www.w3.org/2000/svg" viewBox="0 0 128 128"><defs><style>.cls-1{fill:#47566a;}</style></defs><title>Jeep</title><g id="Jeep"><path class="cls-1" d="M31,78a8,8,0,1,0,8,8A8,8,0,0,0,31,78Zm0,14a6,6,0,1,1,6-6A6,6,0,0,1,31,92Z"/><path class="cls-1" d="M60,65H56a1,1,0,0,0,0,2h4A1,1,0,0,0,60,65Z"/><path class="cls-1" d="M126.82,60.13a7.08,7.08,0,0,0-6.21-5.58L87,51.07c-7-19.8-6.81-19.2-6.86-19.3A5.06,5.06,0,0,0,75.63,29H26.39a7.05,7.05,0,0,0-7,6L16.25,55H12V51a2,2,0,0,0-2-2H2a2,2,0,0,0-2,2V73a2,2,0,0,0,2,2H4v9a1,1,0,0,0,1,1c5.07,0,3-.35,9,1.73A17,17,0,0,0,48,87h42.1A17,17,0,0,0,124,86.74L127.71,83c.42-.42.29,0,.29-11C128,64.43,128.31,67.4,126.82,60.13ZM126,71h-2.74A3.2,3.2,0,0,1,120,67.83,3,3,0,0,1,123,65h2.78C126.07,66.47,126,65.3,126,71ZM78.36,32.62,85,51.39,76,55H55V31H75.63A3.08,3.08,0,0,1,78.36,32.62Zm-57,2.69a5.07,5.07,0,0,1,5-4.31H45V55H18.27ZM2,51h8V73H2Zm29,50A15,15,0,1,1,46,86,15,15,0,0,1,31,101Zm76,0a15,15,0,1,1,15-15,1,1,0,0,0,0,.51A15,15,0,0,1,107,101Zm16.87-17a17,17,0,0,0-33.82,1H48a17,17,0,0,0-33.88-.38C8.35,82.65,10.29,83,6,83V75h5a1,1,0,0,0,1-1V57H46a1,1,0,0,0,1-1V31h6V56a1,1,0,0,0,1,1c23.72,0,22.29,0,22.56-.07L86.36,53l34,3.52a5.09,5.09,0,0,1,4.46,4l.51,2.48c-2.37,0-4.2-.27-5.89,1.46a4.85,4.85,0,0,0-.12,6.86c1.9,2,4,1.68,6.64,1.68v8.88Z"/><path class="cls-1" d="M107,78a8,8,0,1,0,8,8A8,8,0,0,0,107,78Zm0,14a6,6,0,1,1,6-6A6,6,0,0,1,107,92Z"/></g></svg>