<svg xmlns="http://www.w3.org/2000/svg" viewBox="0 0 128 128"><defs><style>.cls-1{fill:#47566a;}</style></defs><title>Locomotive</title><g id="Locomotive"><path class="cls-1" d="M25,77a7,7,0,1,0,7,7A7,7,0,0,0,25,77Zm0,12a5,5,0,1,1,5-5A5,5,0,0,1,25,89Z"/><path class="cls-1" d="M48,77a7,7,0,1,0,7,7A7,7,0,0,0,48,77Zm0,12a5,5,0,1,1,5-5A5,5,0,0,1,48,89Z"/><path class="cls-1" d="M70,77a7,7,0,1,0,7,7A7,7,0,0,0,70,77Zm0,12a5,5,0,1,1,5-5A5,5,0,0,1,70,89Z"/><circle class="cls-1" cx="91" cy="89" r="2"/><circle class="cls-1" cx="104" cy="89" r="2"/><path class="cls-1" d="M127.56,91.17,116,83.32V76a1,1,0,0,0-1-1h-4c1.39-1.83,1-2.8,1-11a5,5,0,0,0-5-5h-1c0-18.49,0-17.11-.09-17.41,1.65-3.31,1.86-3.44,1.57-4-2.06-4.11-2.08-4.55-2.9-4.55-8.62,0-8.52-.2-8.89.55-2.16,4.32-2.3,4.3-2,4.9,2.14,4.29,2,4.14,2.31,4.36V59H91V52a3,3,0,0,0-3-3H84a3,3,0,0,0-3,3v7H77V52a3,3,0,0,0-3-3H70a3,3,0,0,0-3,3v7H59V51h1a1,1,0,0,0,0-2H44a1,1,0,0,0,0,2h1v8H30V43h4a1,1,0,0,0,0-2H1a1,1,0,0,0,0,2H4V69H1a1,1,0,0,0-1,1V84a1,1,0,0,0,1,1H14.05A11,11,0,0,0,36,85h1.1A11,11,0,0,0,59,85h.1A11,11,0,0,0,81,85h5.59a6,6,0,1,0,8.92,0h4.08a6,6,0,1,0,8.92,0H112v7a1,1,0,0,0,1,1h14A1,1,0,0,0,127.56,91.17ZM95,83V77h19v6Zm15-19v8a3,3,0,0,1-3,3H95V61h12A3,3,0,0,1,110,64ZM95.7,38l1.5-3H104l1.5,3L104,41H97.2ZM98,43h6V59H98ZM83,52a1,1,0,0,1,1-1h4a1,1,0,0,1,1,1v7H83ZM69,52a1,1,0,0,1,1-1h4a1,1,0,0,1,1,1v7H69ZM47,51H57v8H47ZM18,57H28V69H18ZM28,43V55H18V43ZM16,43V69H6V43ZM2,71H28v2.43A11,11,0,0,0,14.05,83H2ZM25,93a9,9,0,1,1,9-9A9,9,0,0,1,25,93ZM36,83a11,11,0,0,0-6-8.8V61H93v8H40a1,1,0,0,0,0,2H93V83H81a11,11,0,0,0-21.9,0H59a11,11,0,0,0-21.9,0ZM48,93a9,9,0,1,1,9-9A9,9,0,0,1,48,93Zm22,0a9,9,0,1,1,9-9A9,9,0,0,1,70,93Zm21,0a4,4,0,1,1,4-4A4,4,0,0,1,91,93Zm17-4a4,4,0,1,1-4-4A4,4,0,0,1,108,89Zm6,2V85c1.3,0-.31-.83,9.75,6Z"/></g></svg>