<svg xmlns="http://www.w3.org/2000/svg" viewBox="0 0 128 128"><defs><style>.cls-1{fill:#47566a;}</style></defs><title>London Bus</title><g id="London_Bus" data-name="London Bus"><path class="cls-1" d="M31,85a4,4,0,1,0,4,4A4,4,0,0,0,31,85Zm0,6a2,2,0,1,1,2-2A2,2,0,0,1,31,91Z"/><path class="cls-1" d="M113,85a4,4,0,1,0,4,4A4,4,0,0,0,113,85Zm0,6a2,2,0,1,1,2-2A2,2,0,0,1,113,91Z"/><path class="cls-1" d="M126.71,36.09a7.14,7.14,0,0,0-7-6.09H13.19A13.21,13.21,0,0,0,0,43.19V91a1,1,0,0,0,1,1H22.53a9,9,0,0,0,17-.14c.39.22-4.25.14,65,.14a9,9,0,0,0,16.52,1h6a1,1,0,0,0,1-1V77.56c0-.54.09-.31-4-4.53V60h3a1,1,0,0,0,1-1C128,42.85,128.34,48.8,126.71,36.09Zm-2,.27L126,46H108V32h11.68A5.11,5.11,0,0,1,124.72,36.36ZM89,46V32h17V46ZM71,46V32H87V46ZM53,46V32H69V46ZM35,46V32H51V46ZM18,46V32H33V46ZM13.19,32H16V46H2V43.19A11.2,11.2,0,0,1,13.19,32ZM2,90V60H14V90Zm29,6a7,7,0,1,1,7-7A7,7,0,0,1,31,96Zm82,0a7,7,0,1,1,7-7A7,7,0,0,1,113,96Zm13-12h-.5a1.5,1.5,0,0,1,0-3h.5Zm0-6v1h-.5a3.5,3.5,0,0,0,0,7h.5v5h-4.23a9,9,0,1,0-17.71-1c-69.58,0-63.78,0-64.12,0a9,9,0,1,0-17.88,0H16V60h6V73a1,1,0,0,0,1,1h81a1,1,0,0,0,1-1V60h7V73a1,1,0,0,0,1,1c10.34,0,9.1-.06,9.28.13ZM55,60V72H41V60Zm16,0V72H57V60Zm16,0V72H73V60Zm16,0V72H89V60ZM39,72H24V60H39Zm83,0h-8V60h8ZM2,58V48H126V58Z"/></g></svg>