<svg xmlns="http://www.w3.org/2000/svg" viewBox="0 0 128 128"><defs><style>.cls-1{fill:#47566a;}</style></defs><title>Mail Truck</title><g id="Mail_Truck" data-name="Mail Truck"><path class="cls-1" d="M21,86a5,5,0,1,0,5,5A5,5,0,0,0,21,86Zm0,8a3,3,0,1,1,3-3A3,3,0,0,1,21,94Z"/><path class="cls-1" d="M107,86a5,5,0,1,0,5,5A5,5,0,0,0,107,86Zm0,8a3,3,0,1,1,3-3A3,3,0,0,1,107,94Z"/><path class="cls-1" d="M17.48,61h24a1,1,0,0,0,1-.78c4.29-19.31,4.24-18.3,3.8-18.85S47.71,41,21.48,41a1,1,0,0,0-1,.78l-4,18A1,1,0,0,0,17.48,61ZM41.92,43,31.6,50.49,24.36,43Zm-19.77.6c9.32,9.63,8.73,9.21,9.33,9.21S31,53.42,44,43.94L40.68,59H18.73Z"/><path class="cls-1" d="M68,75H64a1,1,0,0,0,0,2h4A1,1,0,0,0,68,75Z"/><path class="cls-1" d="M58,67H9a1,1,0,0,0,0,2H58A1,1,0,0,0,58,67Z"/><path class="cls-1" d="M128,81.62a21.26,21.26,0,0,0-12-15.15L103.3,60.74c-18.5-30-15.33-24.86-18-29.38A11.08,11.08,0,0,0,75.8,26H6.93a5.1,5.1,0,0,0-5.06,4.86C-.37,82.23,0,68.29,0,89.94c0,.93-.27.57,10.73,5a11,11,0,0,0,20.51.1H96.76a11,11,0,0,0,20.48,0H127a1,1,0,0,0,1-1C128,81.31,128,81.79,128,81.62ZM124.23,77a16.08,16.08,0,0,1,1.53,4H123c-3,0-3.92-4-2-4ZM87.57,39l13.68,22.22-8.74,3.5L80.57,39Zm2.86,26H68.3L63,61.46V42.06A3.06,3.06,0,0,1,66.06,39h12.3ZM2,75H4v6H2Zm19,25a9,9,0,1,1,9-9A9,9,0,0,1,21,100Zm86,0a9,9,0,1,1,9-9A9,9,0,0,1,107,100Zm19-7h-8.19a11,11,0,1,0-21.62,0H31.81a11,11,0,1,0-21.69-.49L2,89.26V83H5a1,1,0,0,0,1-1V74a1,1,0,0,0-1-1H2L3.87,30.94A3.08,3.08,0,0,1,6.93,28H75.8a9.08,9.08,0,0,1,7.74,4.38c2.35,3.92,1.74,2.91,2.79,4.62H66.06A5.07,5.07,0,0,0,61,42.06V62c0,.73-.12.46,6.45,4.83.36.25,24.51.26,24.92.1,11-4.39,10.13-4,10.36-4.26,12.89,5.85,16.63,6.75,20.35,12.33H121a3,3,0,0,0-3,3,5,5,0,0,0,5,5h3Z"/></g></svg>