<svg xmlns="http://www.w3.org/2000/svg" viewBox="0 0 128 128"><defs><style>.cls-1{fill:#47566a;}</style></defs><title>Map</title><g id="Map"><path class="cls-1" d="M119.86,63.87c-.1-.79,1.6.31-29-15-.56-.28-.68-.09-7.16,2.4,4.34-7.37,7.71-15.7,7.71-23.86a27.42,27.42,0,0,0-54.84,0c0,8.16,3.37,16.49,7.71,23.86-6.6-2.53-6.62-2.67-7.16-2.4-30.86,15.43-28.89,14.23-29,15C-.51,128.74-.33,125.24.41,125.77a1,1,0,0,0,1,.1c32.73-15.27,30.52-14.22,30.68-14.34,33.13,17.24,31.39,16.34,31.57,16.41.64.22-1.3,1,32.23-16.41.16.12-1.81-.82,30.68,14.34a1,1,0,0,0,1-.1C128.33,125.23,128.51,128.7,119.86,63.87ZM64,2A25.44,25.44,0,0,1,89.42,27.42c0,19.67-21.31,41.36-25.42,45.36-4.11-4-25.42-25.69-25.42-45.36A25.44,25.44,0,0,1,64,2ZM63,74.59v50.76L32.61,109.54l5.84-58.36L46,54.08A118.15,118.15,0,0,0,63,74.59ZM2.23,123.29l7.82-58.63L36.4,51.48c0,.18-5.84,58.46-5.85,58.6ZM65,74.59A118.15,118.15,0,0,0,82,54.08l7.56-2.9,5.84,58.36L65,125.35Zm32.45,35.49c0-.14-5.84-58.48-5.85-58.6L118,64.66l7.82,58.63Z"/><path class="cls-1" d="M77.19,27.42A13.19,13.19,0,1,0,64,40.61,13.2,13.2,0,0,0,77.19,27.42Zm-24.38,0A11.19,11.19,0,1,1,64,38.61,11.2,11.2,0,0,1,52.81,27.42Z"/></g></svg>