<svg xmlns="http://www.w3.org/2000/svg" viewBox="0 0 128 128"><defs><style>.cls-1{fill:#47566a;}</style></defs><title>Motorcycle </title><g id="Motorcycle"><path class="cls-1" d="M102.16,60.29,98,51h9a1,1,0,0,0,1-1V38a1,1,0,0,0-1-1H98a4,4,0,0,0-4,4v1.08C89,31,89.3,31,88.39,31H80a1,1,0,0,0,0,2h7.74l4.48,10H89.28a7.1,7.1,0,0,0-6.38-4c-17.64,0-15.33-.8-31.16,8-16.72,0-16.91.3-19.29-.89C29.56,44.66,28.73,45,15.19,45a5,5,0,0,0,0,10c11.11,0,12-.29,14.36.89,2.59,1.3,4.53,1.11,7.31,1.11l3.56,12.46-3.84,1.35A19,19,0,1,0,38,79H77.84c.69,0-.19.86,12-14.61.3-.39.21.08.21-9.39h7.6l2.74,6.11a19,19,0,1,0,1.82-.82ZM96,41a2,2,0,0,1,2-2h8V49c-8.87,0-8.38.1-9-.3l-1-2.15ZM82.9,41A5.11,5.11,0,0,1,88,46.1v5.84A3.06,3.06,0,0,1,84.94,55H53V48.59C67.73,40.4,65.19,41,82.9,41Zm-58,36c18.6-6.49,17-5.91,17.14-6h7v6Zm-6.45.18A1,1,0,0,0,19,79h8.94A9,9,0,0,1,10,78c0-9.48,13-12.54,17.11-3.89C17.74,77.38,18.69,77,18.45,77.18ZM45.84,57h16l-4.5,6h-7ZM30.45,54.11c-3-1.49-4.67-1.11-15.26-1.11a3,3,0,1,1,0-6c13.41,0,14-.29,16.36.89C34.42,49.33,35.14,49,51,49v6H38.07a1,1,0,0,0-.76-.09c-.4.11.68.09-3.07.09A8.58,8.58,0,0,1,30.45,54.11ZM43.34,57,49,64.55V69H42.37L38.94,57ZM19,95A17,17,0,1,1,34.69,71.47l-5.68,2A11,11,0,1,0,30,79h6A17,17,0,0,1,19,95ZM51,65h8.21c-.3,1.11-.21,1.26-.21,8.43A5.92,5.92,0,0,0,60.17,77H51ZM64,77a3.33,3.33,0,0,1-3-3.57V66.57A3.33,3.33,0,0,1,64,63H74a3.33,3.33,0,0,1,3,3.57v6.86A3.33,3.33,0,0,1,74,77Zm14.72-1.74c.37-1.2.28-1.27.28-8.69A5.31,5.31,0,0,0,74,61H64a4.8,4.8,0,0,0-3.83,2c-.47,0-1,.91,4.17-6,22.47,0,21.8.37,23.66-1.06v7.49ZM90,53V45a21.53,21.53,0,0,0,3.11,0A13.83,13.83,0,0,1,94,47a4,4,0,0,0,1.34,3l1.36,3Zm19,42a17,17,0,0,1-7.85-32.07l2.46,5.49C93.73,74,97.79,89,109,89a11,11,0,1,0-3.56-21.4L103,62.12A17,17,0,1,1,109,95Zm.91-17.41-3.65-8.16A9,9,0,1,1,109,87c-9.12,0-12.44-12.08-4.56-16.74,4,8.92,3.69,8.74,4.56,8.74A1,1,0,0,0,109.91,77.59Z"/></g></svg>