<svg xmlns="http://www.w3.org/2000/svg" viewBox="0 0 128 128"><defs><style>.cls-1{fill:#47566a;}</style></defs><title>Parking Car </title><g id="Parking_Car" data-name="Parking Car"><path class="cls-1" d="M19,18a3,3,0,0,0,3-3V11a3,3,0,0,0-3-3H13a1,1,0,0,0-1,1V25a1,1,0,0,0,2,0V18Zm1-7v4a1,1,0,0,1-1,1H14V10h5A1,1,0,0,1,20,11Z"/><path class="cls-1" d="M46,92a7,7,0,1,0,7,7A7,7,0,0,0,46,92Zm0,12a5,5,0,1,1,5-5A5,5,0,0,1,46,104Z"/><path class="cls-1" d="M111,92a7,7,0,1,0,7,7A7,7,0,0,0,111,92Zm0,12a5,5,0,1,1,5-5A5,5,0,0,1,111,104Z"/><path class="cls-1" d="M91.15,96.63c-.36-.9,1-.63-24.92-.63-.93,0-.56-.32-4.93,10.63a1,1,0,0,0,.93,1.37c34.73,0,32.39.19,32.82-.44S95.42,107.29,91.15,96.63ZM63.7,106l3.2-8H89.55l3.2,8Z"/><path class="cls-1" d="M128,73.5v-3a3.5,3.5,0,0,0-3.5-3.5h-5a3.5,3.5,0,0,0-3.5,3.5v1.14l-7.25-15A13.34,13.34,0,0,0,96.68,49H59.15a13.34,13.34,0,0,0-12.06,7.65L40,71.57V70.5A3.5,3.5,0,0,0,36.5,67h-5A3.5,3.5,0,0,0,28,70.5v3A3.5,3.5,0,0,0,31.5,77h5.37C26.52,88.16,28,85.79,28,109.32c0,2.46,1.64,4.7,5,5.08v8.54A5.07,5.07,0,0,0,38.06,128h7.88A5.07,5.07,0,0,0,51,122.94V116h55v6.94a5.07,5.07,0,0,0,5.06,5.06h7.88a5.07,5.07,0,0,0,5.06-5.06v-8.7a5,5,0,0,0,4-4.92C128,85.73,129.37,88,119.13,77h5.37A3.5,3.5,0,0,0,128,73.5Zm-10-3a1.5,1.5,0,0,1,1.5-1.5h5a1.5,1.5,0,0,1,1.5,1.5v3a1.5,1.5,0,0,1-1.5,1.5H118ZM47.58,60.29c3.58-1.84,2-1.29,55.5-1.29a11.68,11.68,0,0,1,5.16,1.2l7.25,15C102.9,77.57,97.41,77,59.83,77A103.66,103.66,0,0,1,40.5,75.17ZM59.15,51H96.68a11.32,11.32,0,0,1,10.26,6.52,22.37,22.37,0,0,0-3.86-.52c-54.32,0-51.31-.26-54.24.64A11.33,11.33,0,0,1,59.15,51ZM30,73.5v-3A1.5,1.5,0,0,1,31.5,69h5A1.5,1.5,0,0,1,38,70.5V75H31.5A1.5,1.5,0,0,1,30,73.5Zm19,49.44A3.06,3.06,0,0,1,45.94,126H38.06A3.06,3.06,0,0,1,35,122.94v-8.32C49.14,116.2,46.75,116,49,116ZM118.94,126h-7.88a3.06,3.06,0,0,1-3.06-3.06V116c1,0-1.29.22,14-1.49v8.43A3.06,3.06,0,0,1,118.94,126ZM126,109.32a3.05,3.05,0,0,1-2.72,3c-19.61,2.2-4.76,1.65-75.85,1.65l-14.71-1.65a3.05,3.05,0,0,1-2.72-3c0-24-1.6-20.25,9.56-32.29,13.54,2.66,21.35,2,56.61,2a105.27,105.27,0,0,0,20.27-2C127.47,88.93,126,85.25,126,109.32Z"/><path class="cls-1" d="M21,102H18V35H32a3,3,0,0,0,3-3V3a3,3,0,0,0-3-3H3A3,3,0,0,0,0,3V32a3,3,0,0,0,3,3H16v67H13a1,1,0,0,0-1,1v24a1,1,0,0,0,1,1h8a1,1,0,0,0,1-1V103A1,1,0,0,0,21,102ZM2,32V3A1,1,0,0,1,3,2H32a1,1,0,0,1,1,1V32a1,1,0,0,1-1,1H3A1,1,0,0,1,2,32Zm18,94H14V104h6Z"/></g></svg>