<svg xmlns="http://www.w3.org/2000/svg" viewBox="0 0 128 128"><defs><style>.cls-1{fill:#47566a;}</style></defs><title>Parking Meter</title><g id="Parking_Meter" data-name="Parking Meter"><path class="cls-1" d="M64,59H60a1,1,0,0,0-1,1V76a1,1,0,0,0,2,0V69h3a5,5,0,0,0,0-10Zm0,8H61V61h3a3,3,0,0,1,0,6Z"/><path class="cls-1" d="M64,47H76a1,1,0,0,0,0-2H64A1,1,0,0,0,64,47Z"/><path class="cls-1" d="M53,44v6a1,1,0,0,0,2,0V44A1,1,0,0,0,53,44Z"/><path class="cls-1" d="M64,0C37,0,23.17,32.06,41,51.76V65.63c0,.3-.49-1,8.25,20.74.33.81.92.63,3.75.63v3a5,5,0,0,0,5,5h1v32a1,1,0,0,0,2,0V95h6v32a1,1,0,0,0,2,0V95h1a5,5,0,0,0,5-5V87h2.82c1,0,.31.92,9.11-21,.1-.26.07.88.07-14.24C104.83,32.06,91,0,64,0Zm0,2c24.14,0,37.51,27.82,23,46.65V31a23,23,0,0,0-46,0V48.65C26.5,29.84,39.84,2,64,2Zm2.82,28H61.18A3,3,0,0,1,66.82,30Zm2.08,0A5,5,0,0,0,65,26.1V19a1,1,0,0,0-2,0v7.1A5,5,0,0,0,59.1,30H43.05A21,21,0,0,1,85,30ZM73,90a3,3,0,0,1-3,3H58a3,3,0,0,1-3-3V87H73ZM85,65.44,77.14,85H50.86L43,65.44V32H85Z"/></g></svg>