<svg xmlns="http://www.w3.org/2000/svg" viewBox="0 0 128 128"><defs><style>.cls-1{fill:#47566a;}</style></defs><title>Pickup</title><g id="Pickup"><path class="cls-1" d="M23,73a5,5,0,1,0,5,5A5,5,0,0,0,23,73Zm0,8a3,3,0,1,1,3-3A3,3,0,0,1,23,81Z"/><path class="cls-1" d="M109,73a5,5,0,1,0,5,5A5,5,0,0,0,109,73Zm0,8a3,3,0,1,1,3-3A3,3,0,0,1,109,81Z"/><path class="cls-1" d="M68,66H64a1,1,0,0,0,0,2h4A1,1,0,0,0,68,66Z"/><path class="cls-1" d="M126.54,61.33a5.16,5.16,0,0,0-4.64-4.08l-25.25-1.8-14.94-15A5.19,5.19,0,0,0,78.09,39H57.35a5.13,5.13,0,0,0-5,4.56L50.93,54H1a1,1,0,0,0-1,1V76.19a1,1,0,0,0,.85,1L12,78.87A11,11,0,0,0,34,79c.35,0-5.34,0,64.1,0A11,11,0,0,0,120,79h7a1,1,0,0,0,1-1C128,66.22,128.38,70.55,126.54,61.33ZM125.83,68H121V65h4.23ZM78.09,41c1.81,0,1.36.07,16.67,15.38L88.3,58H63V41ZM2,62H4v4H2ZM23,87a9,9,0,1,1,9-9A9,9,0,0,1,23,87ZM34,77a11,11,0,0,0-21.89-.16L2,75.33V68H5a1,1,0,0,0,1-1V61a1,1,0,0,0-1-1H2V56H51V77C35.77,77,34.25,77,34,77ZM109,87a9,9,0,1,1,9-9A9,9,0,0,1,109,87Zm11-10a11,11,0,0,0-21.9,0H53c0-29.38-.34-20.79,1.32-33.17a3.15,3.15,0,0,1,3-2.83H61V59a1,1,0,0,0,1,1c28.31,0,26.47,0,26.66,0,8.84-2.21,8.42-2,8.72-2.46l24.37,1.74a3.13,3.13,0,0,1,2.83,2.47l.25,1.28H120a1,1,0,0,0-1,1v5a1,1,0,0,0,1,1h6v7Z"/></g></svg>