<svg xmlns="http://www.w3.org/2000/svg" viewBox="0 0 128 128"><defs><style>.cls-1{fill:#47566a;}</style></defs><title>Plane</title><g id="Plane"><path class="cls-1" d="M123.52,67.1c-1.45-.68.42.88-6.39-3.83A29.15,29.15,0,0,0,100.35,58c-78,0-68.62-.11-73.86.26L9.9,38.36C9.48,37.86,9.67,38,1,38a1,1,0,0,0-1,1.24L5.17,59.79a4.68,4.68,0,0,0-1.11,9l28,10.78A4,4,0,0,0,36,83H53v2a1,1,0,0,0,.73,1c15,4.28,14.06,4,14.27,4h5.94A5.07,5.07,0,0,0,79,84.94c0-2,.18-3.32-1.06-4.94,25.22,0,32.6.36,45-1.41A5.86,5.86,0,0,0,123.52,67.1Zm-7.4-2.1L119,67H110.2l-2-2ZM8.66,40,24,58.44,7.19,59.63,2.28,40ZM36,81a2,2,0,0,1-1.92-1.47.93.93,0,0,0,0-1.06A2,2,0,0,1,36,77H69a2,2,0,0,1,0,4Zm41,2.06v1.88A3.06,3.06,0,0,1,73.94,88h-5.8L55,84.25V83H69a4,4,0,0,0,3.86-3h1.08A3.06,3.06,0,0,1,77,83.06Zm45.65-6.45C110,78.41,103.07,78,72.86,78A4,4,0,0,0,69,75H36a4,4,0,0,0-3.72,2.56L4.77,67a2.69,2.69,0,0,1,.76-5.21C38.46,59.42,16.75,60,100.35,60a27.24,27.24,0,0,1,12.44,3h-7a1,1,0,0,0-.71,1.71c4.37,4.37,4.15,4.29,4.71,4.29h13.13A3.87,3.87,0,0,1,122.65,76.61Z"/><path class="cls-1" d="M91,67v2a1,1,0,0,0,2,0V67A1,1,0,0,0,91,67Z"/><path class="cls-1" d="M85,67v2a1,1,0,0,0,2,0V67A1,1,0,0,0,85,67Z"/><path class="cls-1" d="M79,67v2a1,1,0,0,0,2,0V67A1,1,0,0,0,79,67Z"/><path class="cls-1" d="M73,67v2a1,1,0,0,0,2,0V67A1,1,0,0,0,73,67Z"/><path class="cls-1" d="M67,67v2a1,1,0,0,0,2,0V67A1,1,0,0,0,67,67Z"/><path class="cls-1" d="M61,67v2a1,1,0,0,0,2,0V67A1,1,0,0,0,61,67Z"/><path class="cls-1" d="M55,67v2a1,1,0,0,0,2,0V67A1,1,0,0,0,55,67Z"/><path class="cls-1" d="M49,67v2a1,1,0,0,0,2,0V67A1,1,0,0,0,49,67Z"/><path class="cls-1" d="M43,67v2a1,1,0,0,0,2,0V67A1,1,0,0,0,43,67Z"/></g></svg>