<svg xmlns="http://www.w3.org/2000/svg" viewBox="0 0 128 128"><defs><style>.cls-1{fill:#47566a;}</style></defs><title>Police</title><g id="Police"><path class="cls-1" d="M124,69.89,97.46,64.08,81.21,50.33C78.28,47.7,75.39,48,72.59,48L70,42.8A5,5,0,0,0,65.46,40h-7A5,5,0,0,0,54,42.8L51.35,48H36.59a9.13,9.13,0,0,0-6,2.28L16.83,62.38,4.43,63.94A5.08,5.08,0,0,0,0,69V90a1,1,0,0,0,.93,1l13.12,1A11,11,0,0,0,36,92h60.1A11,11,0,0,0,118,92h9a1,1,0,0,0,1-1V74.85A5.07,5.07,0,0,0,124,69.89Zm-44-18L94.27,64H65V50C76.06,50,77.35,49.56,79.9,51.84ZM43,64l3.8-14H63V64Zm-7,0-3.14-3.14L41.48,50h3.21l-3.8,14ZM70.35,48H63V42C68,42,67.21,41.72,70.35,48ZM61,42v6H53.59C56.76,41.65,56,42,61,42ZM2,74H6v6H2Zm23,26a9,9,0,1,1,9-9A9,9,0,0,1,25,100Zm82,0a9,9,0,1,1,9-9A9,9,0,0,1,107,100Zm11-10a11,11,0,0,0-21.9,0H36a11,11,0,0,0-21.9-.07L2,89V82H7a1,1,0,0,0,1-1V73a1,1,0,0,0-1-1H2V69a3.06,3.06,0,0,1,2.68-3c13.76-1.74,12.91-1.55,13.24-1.85,17-15,14.67-14.08,21-14.08L30.7,60.31a1,1,0,0,0,.08,1.33l4.06,4.07c.44.43-3.82.29,62.05.29l26.65,5.85a3.06,3.06,0,0,1,2.46,3V76h-3a3,3,0,0,0-3,3v2a3,3,0,0,0,3,3h3v6Zm8-8h-3a1,1,0,0,1-1-1V79a1,1,0,0,1,1-1h3Z"/><path class="cls-1" d="M25,86a5,5,0,1,0,5,5A5,5,0,0,0,25,86Zm0,8a3,3,0,1,1,3-3A3,3,0,0,1,25,94Z"/><path class="cls-1" d="M107,86a5,5,0,1,0,5,5A5,5,0,0,0,107,86Zm0,8a3,3,0,1,1,3-3A3,3,0,0,1,107,94Z"/><path class="cls-1" d="M63,31V27a1,1,0,0,0-2,0v4A1,1,0,0,0,63,31Z"/><path class="cls-1" d="M72,36.63c.55,0,.45,0,3.58-3.16a1,1,0,0,0-1.42-1.42l-2.87,2.88A1,1,0,0,0,72,36.63Z"/><path class="cls-1" d="M51.2,36.34a1,1,0,0,0,1.42-1.41l-2.88-2.88a1,1,0,0,0-1.41,1.42Z"/><path class="cls-1" d="M72,72H68a1,1,0,0,0,0,2h4A1,1,0,0,0,72,72Z"/></g></svg>