<svg xmlns="http://www.w3.org/2000/svg" viewBox="0 0 128 128"><defs><style>.cls-1{fill:#47566a;}</style></defs><title>Road</title><g id="Road"><path class="cls-1" d="M128,126.78,99.52.78a1,1,0,0,0-2,.44l28.45,126A1,1,0,0,0,128,126.78Z"/><path class="cls-1" d="M28.48.78,0,126.78A1,1,0,0,0,1,128c1.19,0-1,8,29.43-126.78A1,1,0,0,0,28.48.78Z"/><path class="cls-1" d="M89.76,1.17l22,126a1,1,0,0,0,2-.34l-22-126A1,1,0,0,0,89.76,1.17Z"/><path class="cls-1" d="M36.27.83l-22,126a1,1,0,0,0,1,1.17c1.24,0-.5,7.64,23-126.83A1,1,0,0,0,36.27.83Z"/><path class="cls-1" d="M60.34,16.23c7.86,0,7.63.11,8-.31s.31.48,0-14.94a1,1,0,0,0-2,0l.29,13.21H61.36L61.65,1a1,1,0,0,0-2,0L59.34,15.2A1,1,0,0,0,60.34,16.23Z"/><path class="cls-1" d="M58.66,93.45c11.51,0,11,.13,11.4-.3s.35,2.11-.47-35.27a1,1,0,0,0-1-1H59.41a1,1,0,0,0-1,1l-.75,34.55A1,1,0,0,0,58.66,93.45ZM60.39,58.9h7.22l.71,32.55H59.68Z"/><path class="cls-1" d="M69.65,105.68H58.35a1,1,0,0,0-1,1L56.9,127a1,1,0,0,0,2,0l.43-19.34h9.34L69.1,127a1,1,0,0,0,2,0l-.45-20.32A1,1,0,0,0,69.65,105.68Z"/><path class="cls-1" d="M59.63,48.74c9.44,0,9.05.12,9.45-.3s.33,1.33-.24-25.11a1,1,0,0,0-1-1H60.16a1,1,0,0,0-1,1l-.53,24.39A1,1,0,0,0,59.63,48.74Zm1.51-24.39h5.72l.49,22.39h-6.7Z"/></g></svg>