<svg xmlns="http://www.w3.org/2000/svg" viewBox="0 0 128 128"><defs><style>.cls-1{fill:#47566a;}</style></defs><title>Route</title><g id="Route"><path class="cls-1" d="M30.45,21.32a9.13,9.13,0,1,0-9.13,9.13A9.14,9.14,0,0,0,30.45,21.32Zm-16.26,0a7.13,7.13,0,1,1,7.13,7.13A7.14,7.14,0,0,1,14.19,21.32Z"/><path class="cls-1" d="M117.84,113.84V80.26a1,1,0,0,0-1-1H98.55a1,1,0,0,0-1,1V94.48a1,1,0,0,0,1,1h17.29v18.36c-5.3.28-9.43,2.83-10.07,6.16H44.88c-1.73-8-20-8-21.76,0H17.5a15.5,15.5,0,0,1,0-31H45.12c1.73,8,20,8,21.76,0,5.87,0,11.55.6,17.15-5,10.6-10.64,3.17-29-12-29H32.39c-.4-2.16-2.3-4-5.17-5.17,6.14-6.1,15.43-17.19,15.43-28.51A21.33,21.33,0,0,0,0,21.32C0,32.64,9.28,43.73,15.42,49.83,6.13,53.47,9.81,63,21.32,63c5.65,0,10.19-2.55,11-6H72c13.4,0,20,16.23,10.61,25.61C77.51,87.7,72,87,66.88,87c-1.73-8-20-8-21.76,0H17.5a17.5,17.5,0,0,0,0,35h5.62c1.73,8,20,8,21.76,0h60.94c.81,3.44,5.35,6,11,6,6.26,0,11.16-3.12,11.16-7.1C128,117.14,123.61,114.15,117.84,113.84ZM21.32,2A19.35,19.35,0,0,1,40.65,21.32c0,14-15.94,28.33-19.33,31.22C17.94,49.65,2,35.33,2,21.32A19.35,19.35,0,0,1,21.32,2Zm0,59c-9.09,0-13-6.92-4.28-9.58,2,1.9,3.44,3.06,3.66,3.23a1,1,0,0,0,1.25,0c.21-.17,1.64-1.33,3.66-3.23,2.58.79,4.39,2.25,4.78,3.83a1,1,0,0,0-.05,1.52C29.57,59.1,25.76,61,21.32,61ZM56,83c4.88,0,9,2.29,9,5s-4.12,5-9,5-9-2.29-9-5S51.12,83,56,83ZM99.55,93.48V81.26h16.29V93.48ZM34,126c-4.88,0-9-2.29-9-5s4.12-5,9-5,9,2.29,9,5S38.88,126,34,126Zm82.84,0c-5,0-9.16-2.33-9.16-5.1,0-2.57,3.64-4.77,8.16-5.06v3a1,1,0,0,0,2,0v-3c4.51.29,8.16,2.49,8.16,5.06C126,123.67,121.8,126,116.84,126Z"/></g></svg>