<svg xmlns="http://www.w3.org/2000/svg" viewBox="0 0 128 128"><defs><style>.cls-1{fill:#47566a;}</style></defs><title>Sailboat</title><g id="Sailboat"><path class="cls-1" d="M127.84,102.46c-.45-.69,1.78-.59-29.92,1-.09-.42.72.54-11.23-12.12C86.27,90.86,88.15,91,61,91V85h53.87a1,1,0,0,0,.8-1.73c-12.31-35.45-30.21-60-54.67-75,0-7.69.13-7.6-.35-8s.46-.44-25.2,3.84A1,1,0,0,0,35.3,6L59,13.91v9A191,191,0,0,1,25,83a1,1,0,0,0,0,2H59v6H21a1,1,0,0,0,0,2h3v14c0,.1,1.45,0-19,1-.9,0-.63,0-4.95,10.62A1,1,0,0,0,1,120H8.35l1.84,7.25a1,1,0,0,0,1,.75H82.29c14.47,0,39.18-11.9,45.6-24.55A1,1,0,0,0,127.84,102.46ZM113.46,83H61V10.6C84.31,25.29,101.49,49,113.46,83ZM39.75,5.39,59,2.18v9.63ZM59,28.85V83H27.61A195.28,195.28,0,0,0,59,28.85Zm36.5,74.7L69,104.85V93H85.54ZM26,93H67v12l-41,2Zm56.29,33H11.94l-1.53-6H84a1,1,0,0,0,0-2H2.49l3.26-8,119.47-5.88C118,115.39,95.33,126,82.29,126Z"/><circle class="cls-1" cx="34" cy="101" r="2"/><circle class="cls-1" cx="42" cy="101" r="2"/><circle class="cls-1" cx="50" cy="101" r="2"/></g></svg>