<svg xmlns="http://www.w3.org/2000/svg" viewBox="0 0 128 128"><defs><style>.cls-1{fill:#47566a;}</style></defs><title>School Bus</title><g id="School_Bus" data-name="School Bus"><path class="cls-1" d="M19,80a4,4,0,1,0,4,4A4,4,0,0,0,19,80Zm0,6a2,2,0,1,1,2-2A2,2,0,0,1,19,86Z"/><path class="cls-1" d="M111,80a4,4,0,1,0,4,4A4,4,0,0,0,111,80Zm0,6a2,2,0,1,1,2-2A2,2,0,0,1,111,86Z"/><path class="cls-1" d="M122.31,62.37l-14.39-3.19c-1.69-16.31-1.18-11.13-1.94-19.57a5,5,0,0,0-5-4.61H5.06A5.07,5.07,0,0,0,0,40.06V84a1,1,0,0,0,1,1h9.06a9,9,0,0,0,17.88,0h74.12a9,9,0,0,0,17.71,1H127a1,1,0,0,0,1-1V69.33A7.1,7.1,0,0,0,122.31,62.37ZM126,73h-2V71h2ZM104.65,47c1.58,15.22,1.17,11.36,1.24,12H101V47ZM2,69H6v6H2ZM19,91a7,7,0,1,1,7-7A7,7,0,0,1,19,91Zm60-8V47H95V83Zm32,8a7,7,0,1,1,7-7A7,7,0,0,1,111,91Zm9-7a9,9,0,0,0-17.94-1H97V46a1,1,0,0,0-1-1H78a1,1,0,0,0-1,1V83H27.94a9,9,0,0,0-17.88,0H2V77H7a1,1,0,0,0,1-1V68a1,1,0,0,0-1-1H2V40.06A3.06,3.06,0,0,1,5.06,37h95.87a3,3,0,0,1,3,2.79l.48,5.21H100a1,1,0,0,0-1,1V60a1,1,0,0,0,1,1c8.68,0,3.88-.67,21.9,3.33A5.08,5.08,0,0,1,126,69h-2a2,2,0,0,0-2,2v2a2,2,0,0,0,2,2h2v9Z"/><path class="cls-1" d="M70,45H9a1,1,0,0,0-1,1V60a1,1,0,0,0,1,1H70a1,1,0,0,0,1-1V46A1,1,0,0,0,70,45ZM35,47H45V59H35ZM33,59H22V47H33ZM47,47H57V59H47ZM10,47H20V59H10ZM69,59H59V47H69Z"/><path class="cls-1" d="M70,67H15a1,1,0,0,0,0,2H70A1,1,0,0,0,70,67Z"/></g></svg>