<svg xmlns="http://www.w3.org/2000/svg" viewBox="0 0 128 128"><defs><style>.cls-1{fill:#47566a;}</style></defs><title>Scooter</title><g id="Scooter"><path class="cls-1" d="M127.65,78.63A18.37,18.37,0,0,0,110.73,68a19.81,19.81,0,0,0-7.27,1.28c.92-9.14-2.14-23.31-9.21-35.28H98a1,1,0,0,0,1-1V21a1,1,0,0,0-1-1H86a5,5,0,0,0-4.9,4H77a3,3,0,0,0,0,6h4v1a3,3,0,0,0,3,3h1.59c1,4.06,5.67,23.87,3.88,34.57C87.59,79.84,74.66,80,74.11,80H61c-4.44,0-11-3.5-11-11,0-6.8,8.1-12.24,9.34-13A5,5,0,0,0,64,51a7,7,0,0,0-7-7c-5.48,0-9.11.16-14.8-1-6.42-1.28-9.27-1-25.2-1a5,5,0,0,0-5,5v4a5,5,0,0,0,4,4.9v4.56C14.09,61.86,14.19,62,14,62c-9.68,0-9.3-.12-9.71.29C-.08,66.66,0,66.44,0,67v6a1,1,0,0,0,1,1H4.69A45.81,45.81,0,0,0,0,88.9,1,1,0,0,0,1,90H7.05A15,15,0,0,0,37,90H80.26a24.09,24.09,0,0,0,13.63-4h2.42A15,15,0,1,0,123,80c4,0,4.18.14,4.57-.44A1,1,0,0,0,127.65,78.63ZM77,26h8a1,1,0,0,1,0,2H77A1,1,0,0,1,77,26Zm6,5V30h2a3,3,0,0,0,0-6H83.18A3,3,0,0,1,86,22H97V32H84A1,1,0,0,1,83,31ZM14,51V47a3,3,0,0,1,3-3c15.23,0,18.58-.26,24.8,1,5.85,1.17,9.67,1,15.2,1a5,5,0,0,1,5,5,3,3,0,0,1-3,3H17A3,3,0,0,1,14,51ZM2,72V67.41L5.41,64H11.9a38.85,38.85,0,0,0-6.11,8Zm20,30A13,13,0,0,1,9.05,90h6a7,7,0,0,0,13.84,0h6A13,13,0,0,1,22,102ZM17.1,90h9.8A5,5,0,0,1,17.1,90Zm23.76-2H2.27c1.26-4.5,7.1-20.35,27.18-20.35,4.34,0,7.55,1.33,9.56,4C42.93,76.73,41.42,85.43,40.86,88Zm2,0c2.53-12.17-1-22.35-13.46-22.35S9.79,71.27,5.53,77a37.11,37.11,0,0,1,12-15.19c.56-.4.42-.4.42-5.78H55.86c-15,11.86-5.74,26,5.14,26H74.11c.15,0,15.18-.15,17.34-13.1,1.8-10.84-2.55-29.81-3.79-34.9H91.9c6,9.74,10.8,24.35,9.44,36.26-8.23,4.57-9.59,14.49-9.61,14.62s0,.08,0,.13a22.4,22.4,0,0,1-11.48,3ZM111,102A13,13,0,0,1,98.36,86a13.19,13.19,0,0,0,7.77-3.2c4.06-3.48,6.52-2.76,14.22-2.76A13,13,0,0,1,111,102Zm1.73-24c-7.1,0-8.08,6-15.12,6a28.68,28.68,0,0,1-3.68,0c3.85-17.48,24.33-17.64,31.17-6Z"/><path class="cls-1" d="M104,89a7,7,0,1,0,7-7A7,7,0,0,0,104,89Zm12,0a5,5,0,1,1-5-5A5,5,0,0,1,116,89Z"/></g></svg>