<svg xmlns="http://www.w3.org/2000/svg" viewBox="0 0 128 128"><defs><style>.cls-1{fill:#47566a;}</style></defs><title>Sedan</title><g id="Sedan"><path class="cls-1" d="M123.94,59.94,97,54.49,81.21,40.34A9.1,9.1,0,0,0,75.11,38H36.59a9.09,9.09,0,0,0-6,2.29L16.83,52.42,4.43,54A5.07,5.07,0,0,0,0,59V76a1,1,0,0,0,.79,1L14,79.81A11,11,0,0,0,36,80c2.21.12-10.92,0,60.1,0A11,11,0,0,0,118,80h9a1,1,0,0,0,1-1V64.9A5.08,5.08,0,0,0,123.94,59.94ZM75.11,40a7.19,7.19,0,0,1,4.77,1.82L94.55,55H65V40ZM63,55H42.89l3.75-15H63ZM41.94,40h2.64L40.83,55h-6.7l-1.47-3C42.52,39.38,41.86,40.29,41.94,40ZM2,63H6v6H2ZM25,88a9,9,0,1,1,9-9A9,9,0,0,1,25,88Zm82,0a9,9,0,1,1,9-9A9,9,0,0,1,107,88Zm11-10a11,11,0,0,0-21.9,0C23.3,78,37.87,77.91,36,78a11,11,0,0,0-21.88-.24L2,75.14V71H7a1,1,0,0,0,1-1V62a1,1,0,0,0-1-1H2V59a3.07,3.07,0,0,1,2.68-3l12.7-1.6c.45-.06-.75.89,14.49-12.57,2.38-2.1,4.67-1.79,7.64-1.79-9.42,12.1-9.32,11.59-8.92,12.38,2.13,4.26,2.1,4.62,2.93,4.62,67.91,0,63.74.17,64.2-.32l25.82,5.22a3.07,3.07,0,0,1,2.46,3V66h-.5a3.5,3.5,0,0,0,0,7h.5v5Zm8-7h-.5a1.5,1.5,0,0,1,0-3h.5Z"/><path class="cls-1" d="M25,73a6,6,0,1,0,6,6A6,6,0,0,0,25,73Zm0,10a4,4,0,1,1,4-4A4,4,0,0,1,25,83Z"/><path class="cls-1" d="M107,73a6,6,0,1,0,6,6A6,6,0,0,0,107,73Zm0,10a4,4,0,1,1,4-4A4,4,0,0,1,107,83Z"/><path class="cls-1" d="M72,63H68a1,1,0,0,0,0,2h4A1,1,0,0,0,72,63Z"/></g></svg>