<svg xmlns="http://www.w3.org/2000/svg" viewBox="0 0 128 128"><defs><style>.cls-1{fill:#47566a;}</style></defs><title>Segway</title><g id="Segway"><path class="cls-1" d="M49.77,91.45a11.16,11.16,0,1,0,11.17,11.16A11.18,11.18,0,0,0,49.77,91.45Zm0,20.32a9.16,9.16,0,1,1,9.17-9.16A9.17,9.17,0,0,1,49.77,111.77Z"/><path class="cls-1" d="M101.8,2H94.48c-1.07,0,.58-3.4-25.08,65H66a1,1,0,0,0-1,1v3.07H58.9v-1A7.1,7.1,0,0,0,51.81,63H35.55a7.11,7.11,0,0,0-7.1,7.1v1H21.32a1,1,0,0,0-1,1v8.13c0,.89-.2.56,10.58,5.36C16.27,101.89,27.89,128,49.77,128a25.42,25.42,0,0,0,25.39-25.39V68.06a1,1,0,0,0-1-1H71.54L95.18,4h6.62a3,3,0,1,0,0-2ZM30.45,70.1a5.11,5.11,0,0,1,5.1-5.1H51.81a5.1,5.1,0,0,1,5.09,5.1v1H30.45Zm-8.13,3H65v9.19A25.4,25.4,0,0,0,32.4,84.09L22.32,79.61ZM49.77,126C29,126,18.55,100.68,33.31,86a23.42,23.42,0,0,1,32.06-.82C81.23,99.36,71.31,126,49.77,126ZM73.16,92.74A25.37,25.37,0,0,0,67,84V69.06h6.13ZM104.65,4.06a1,1,0,0,1,0-2.06A1,1,0,0,1,104.65,4.06Z"/></g></svg>