<svg xmlns="http://www.w3.org/2000/svg" viewBox="0 0 128 128"><defs><style>.cls-1{fill:#47566a;}</style></defs><title>Sport Coupe</title><g id="Sport_Coupe" data-name="Sport Coupe"><path class="cls-1" d="M21,67a7,7,0,1,0,7,7A7,7,0,0,0,21,67Zm0,12a5,5,0,1,1,5-5A5,5,0,0,1,21,79Z"/><path class="cls-1" d="M103,67a7,7,0,1,0,7,7A7,7,0,0,0,103,67Zm0,12a5,5,0,1,1,5-5A5,5,0,0,1,103,79Z"/><path class="cls-1" d="M46,61H42a1,1,0,0,0,0,2h4A1,1,0,0,0,46,61Z"/><path class="cls-1" d="M128,65.86a9.14,9.14,0,0,0-7.33-8.13c-30-5.92-17.84-2.85-54-14-3.28-1-3.07-.77-26.92-.77-3,0-2.41,0-24.62,6h-4L7.7,43.48C7.31,42.84,7.34,43,1,43a1,1,0,0,0-1,1V74.16a1,1,0,0,0,.8,1l9.64,1.93C13.53,87.66,28.57,87.58,31.57,77c64.24,0,60.52,0,60.83-.09,2.95,10.7,18.14,10.77,21.17.09,7.9,0,7.53.07,7.88-.17,6.63-4.41,6.55-4.16,6.55-4.89C128,66,128,66.43,128,65.86ZM125.77,65a6.29,6.29,0,0,1,.23,2h-4.38l-1-2ZM66.05,45.68l26.06,8C81.59,55.44,91.33,55,39.77,55l-4.52-1.51L42.53,45C62.74,45,63.14,44.78,66.05,45.68ZM2,59H7.5a.5.5,0,0,1,.5.5c0,3,.17,3.5-.5,3.5H2ZM21,83a9,9,0,1,1,9-9A9,9,0,0,1,21,83Zm82,0a9,9,0,1,1,9-9A9,9,0,0,1,103,83Zm17.6-8H114a11,11,0,1,0-22-1c0,1.19.12,1,0,1H32a11,11,0,1,0-21.9,0L2,73.34V65H7.5A2.5,2.5,0,0,0,10,62.5v-3A2.5,2.5,0,0,0,7.5,57H2V45H6.29c3.68,6,3.49,6,4.24,6,5.13,0,4.78,0,5,0,22.32-6,21.58-6,24.23-6,.25,0,1-1-7,8.32a1,1,0,0,0,.44,1.6C39.68,57.08,39.38,57,39.61,57c47.23,0,44.75,0,44.87,0l11.94-2,23.83,4.69A7.14,7.14,0,0,1,125,63h-6a1,1,0,0,0-.89,1.45c2,4.11,2.07,4.55,2.89,4.55h5v2.4Z"/></g></svg>