<svg xmlns="http://www.w3.org/2000/svg" viewBox="0 0 128 128"><defs><style>.cls-1{fill:#47566a;}</style></defs><title>Stop Sign</title><g id="Stop_Sign" data-name="Stop Sign"><path class="cls-1" d="M110.71,27.24C82-1.46,83.68,0,83.05,0,42.46,0,44.68-.15,44.24.29,15.54,29,17,27.32,17,28c0,40.59-.15,38.37.29,38.81C46,95.46,44.32,94,45,94H57v33a1,1,0,0,0,2,0V94H69v33a1,1,0,0,0,2,0V94c13,0,12.34.13,12.76-.29C112.46,65,111,66.68,111,66.05,111,25.46,111.15,27.68,110.71,27.24ZM109,65.64,82.64,92H45.36L19,65.64V28.36L45.36,2H82.64L109,28.36Z"/><path class="cls-1" d="M79.74,8C45.52,8,48,7.86,47.55,8.29,23.35,32.49,25,30.65,25,31.26c0,34.22-.14,31.76.29,32.19C49.49,87.65,47.65,86,48.26,86c34.22,0,31.76.14,32.19-.29,24.2-24.2,22.55-22.36,22.55-23,0-34.22.14-31.76-.29-32.19C78.51,6.35,80.35,8,79.74,8ZM101,62.33,79.33,84H48.67L27,62.33V31.67L48.67,10H79.33L101,31.67Z"/><path class="cls-1" d="M46,39H41.65a5,5,0,0,0,0,10,3,3,0,1,1,0,6H38a1,1,0,0,0,0,2h3.65a5,5,0,1,0,0-10,3,3,0,0,1,0-6H46A1,1,0,0,0,46,39Z"/><path class="cls-1" d="M60,39H52a1,1,0,0,0,0,2h3V56a1,1,0,0,0,2,0V41h3A1,1,0,0,0,60,39Z"/><path class="cls-1" d="M70,39a5,5,0,0,0-5,5v8a5,5,0,0,0,10,0V44A5,5,0,0,0,70,39Zm3,13a3,3,0,0,1-6,0V44a3,3,0,0,1,6,0Z"/><path class="cls-1" d="M83,56V49h3a5,5,0,0,0,0-10H82a1,1,0,0,0-1,1V56A1,1,0,0,0,83,56Zm6-12a3,3,0,0,1-3,3H83V41h3A3,3,0,0,1,89,44Z"/></g></svg>