<svg xmlns="http://www.w3.org/2000/svg" viewBox="0 0 128 128"><defs><style>.cls-1{fill:#47566a;}</style></defs><title>Subway Train</title><g id="Subway_Train" data-name="Subway Train"><path class="cls-1" d="M1,71a1,1,0,0,0,0,2H21a1,1,0,0,0,1-1V59H44V72a1,1,0,0,0,1,1H73a1,1,0,0,0,1-1V59c37.93,0,35.34.2,35.8-.4s.48.23-3.84-14.87C105.64,42.6,111.79,43,1,43a1,1,0,0,0,0,2H6V71ZM46,45H58V71H46Zm61.67,12H98V45h6.25ZM96,57H86V45H96ZM84,57H74V45H84ZM72,71H60V45H72ZM44,57H34V45H44ZM32,57H22V45H32ZM8,45H20V71H8Z"/><path class="cls-1" d="M26,71a1,1,0,0,0,0,2H39a1,1,0,0,0,0-2Z"/><path class="cls-1" d="M119.71,41.05a9.15,9.15,0,0,0-8.6-6H1a1,1,0,0,0,0,2H111.11a7.17,7.17,0,0,1,6.72,4.72l.45,1.28c-5.51,0-5.77-.18-6.2.4s-.68-.87,5.84,20.89a1,1,0,0,0,1,.71h6.58a51.58,51.58,0,0,1,.54,9.75A17.76,17.76,0,0,0,115.06,71H80a1,1,0,0,0,0,2h35.06A15.75,15.75,0,0,1,126,77.39V81H85.41c-1.8-1.8-1.86-2-2.41-2-19.52,0-18.29-.13-18.71.29L62.59,81H1a1,1,0,0,0,0,2H61.68a7,7,0,0,0,1.43,8H1a1,1,0,0,0,0,2H127a1,1,0,0,0,0-2H84.89a7,7,0,0,0,1.43-8H127a1,1,0,0,0,1-1C128,61.57,128.65,66.17,119.71,41.05ZM75.11,81c-1.93,1.88-.29,1.88-2.22,0ZM63,86a5,5,0,1,1,5,5A5,5,0,0,1,63,86Zm9.89,5c1.93-1.88.29-1.88,2.22,0ZM80,91a5,5,0,1,1,5-5A5,5,0,0,1,80,91Zm39.63-28-5.4-18H119c4.57,12.83,5.42,14.9,6.08,18Z"/></g></svg>