<svg xmlns="http://www.w3.org/2000/svg" viewBox="0 0 128 128"><defs><style>.cls-1{fill:#47566a;}</style></defs><title>SUV</title><g id="SUV"><path class="cls-1" d="M23,74a5,5,0,1,0,5,5A5,5,0,0,0,23,74Zm0,8a3,3,0,1,1,3-3A3,3,0,0,1,23,82Z"/><path class="cls-1" d="M105,74a5,5,0,1,0,5,5A5,5,0,0,0,105,74Zm0,8a3,3,0,1,1,3-3A3,3,0,0,1,105,82Z"/><path class="cls-1" d="M68,62H64a1,1,0,0,0,0,2h4A1,1,0,0,0,68,62Z"/><path class="cls-1" d="M127.89,64.56a8.91,8.91,0,0,0-7.6-7.45l-27.4-3.69C75.42,38,78.44,39,69,39a4.71,4.71,0,0,0-4.69-5H26.69A4.71,4.71,0,0,0,22,39c-2.62,0-5.28.12-7.84,2.71L.29,55.72C-.1,56.11,0,54.63,0,77a1,1,0,0,0,.8,1L10,79.79A13,13,0,0,0,36,80c1.15.06,56,0,56.1,0A13,13,0,0,0,118,80h5c.6,0,.53-.12,4.77-4.4.39-.4.29-.25.29-5.6C128,64.49,128,64.86,127.89,64.56ZM126,69h-3c-2.13,0-2.71-3-1-3h4ZM77.84,42.79,91,54.4,86.19,56H61V41H73.12A7.1,7.1,0,0,1,77.84,42.79ZM39,56V41H59V56ZM19.91,56l-1.52-3,6.84-11.72C25.44,40.89,23.82,41,37,41V56ZM24,38.69A2.7,2.7,0,0,1,26.69,36H64.31A2.72,2.72,0,0,1,67,39C20.55,39,24,39.17,24,38.69ZM2,60H6v8H2ZM23,90A11,11,0,0,1,12,79.49a1,1,0,0,0,0-1A11,11,0,1,1,23,90Zm82,0a11,11,0,1,1,11-11A11,11,0,0,1,105,90Zm17.52-12H118a13,13,0,0,0-25.9,0C92,78,37,78,36,78a13,13,0,0,0-25.89-.25L2,76.13V70H7a1,1,0,0,0,1-1V59a1,1,0,0,0-1-1H2V56.83L15.58,43.11C18,40.68,20.67,41,23.06,41c-7.12,12.21-7,11.69-6.7,12.38C18.49,57.64,18.47,58,19.29,58c72,0,67.14,0,67.38,0,6.55-2.19,6.34-2,6.62-2.46L120,59.09a6.93,6.93,0,0,1,5.7,4.91H122a3,3,0,0,0-3,3,4,4,0,0,0,4,4h3v3.48Z"/></g></svg>