<svg xmlns="http://www.w3.org/2000/svg" viewBox="0 0 128 128"><defs><style>.cls-1{fill:#47566a;}</style></defs><title>Taxi</title><g id="Taxi"><path class="cls-1" d="M123.94,61.89,97,56.45,81.21,42.33A9.13,9.13,0,0,0,75.12,40H62.64l-1.79-6.27a1,1,0,0,0-1-.73h-6a1,1,0,0,0-1,.73L51.13,40H36.59a9.13,9.13,0,0,0-6,2.28L16.83,54.38,4.43,55.94A5.08,5.08,0,0,0,0,61V82a1,1,0,0,0,.86,1L14,84.87A11,11,0,0,0,36,85c2.21.12-10.92,0,60.1,0A11,11,0,0,0,118,85h9a1,1,0,0,0,1-1V66.85A5.07,5.07,0,0,0,123.94,61.89ZM79.87,43.82,94.59,57H65V42C75,42,77.18,41.41,79.87,43.82ZM63,57H42.9l3.75-15H63ZM41.94,42h2.65L40.85,57a12.79,12.79,0,0,1-8-3.15C42.48,41.43,41.86,42.28,41.94,42Zm12.7-7h4.49l1.43,5H53.21ZM2,67H6v6H2ZM25,93a9,9,0,1,1,9-9A9,9,0,0,1,25,93Zm82,0a9,9,0,1,1,9-9A9,9,0,0,1,107,93Zm11-10a11,11,0,0,0-21.9,0C23.3,83,37.87,82.91,36,83a11,11,0,0,0-21.89-.16L2,81.09V75H7a1,1,0,0,0,1-1V66a1,1,0,0,0-1-1H2V61a3.06,3.06,0,0,1,2.68-3l12.7-1.6c.44-.06-.78.91,14.49-12.55C34.25,41.69,36.53,42,39.51,42L30.69,53.32a1,1,0,0,0,.09,1.32A14.77,14.77,0,0,0,41.3,59H97c3.28,0-8.17-2.15,26.54,4.85a3.06,3.06,0,0,1,2.46,3V69h-5a1,1,0,0,0-1,1v2a3,3,0,0,0,3,3h3v8Zm8-10h-3a1,1,0,0,1-1-1V71h4Z"/><path class="cls-1" d="M25,78a6,6,0,1,0,6,6A6,6,0,0,0,25,78Zm0,10a4,4,0,1,1,4-4A4,4,0,0,1,25,88Z"/><path class="cls-1" d="M107,78a6,6,0,1,0,6,6A6,6,0,0,0,107,78Zm0,10a4,4,0,1,1,4-4A4,4,0,0,1,107,88Z"/><path class="cls-1" d="M72,65H68a1,1,0,0,0,0,2h4A1,1,0,0,0,72,65Z"/></g></svg>