<svg xmlns="http://www.w3.org/2000/svg" viewBox="0 0 128 128"><defs><style>.cls-1{fill:#47566a;}</style></defs><title>Ticket Bus</title><g id="Ticket_Bus" data-name="Ticket Bus"><path class="cls-1" d="M127,56.78a1,1,0,0,0,1-1V27a1,1,0,0,0-1-1H1a1,1,0,0,0-1,1V55.78a1,1,0,0,0,1,1A7.22,7.22,0,0,1,1,71.22a1,1,0,0,0-1,1V101a1,1,0,0,0,1,1H127a1,1,0,0,0,1-1V72.22a1,1,0,0,0-1-1,7.22,7.22,0,0,1,0-14.44ZM117.87,64A9.22,9.22,0,0,0,126,73.17V100H2V73.17A9.24,9.24,0,0,0,2,54.83V28H126V54.83A9.22,9.22,0,0,0,117.87,64Z"/><path class="cls-1" d="M29,70a3,3,0,1,0,3,3A3,3,0,0,0,29,70Zm0,4a1,1,0,0,1,0-2A1,1,0,0,1,29,74Z"/><path class="cls-1" d="M54,70a3,3,0,1,0,3,3A3,3,0,0,0,54,70Zm0,4a1,1,0,0,1,0-2A1,1,0,0,1,54,74Z"/><path class="cls-1" d="M46,72H37a1,1,0,0,0,0,2h9A1,1,0,0,0,46,72Z"/><path class="cls-1" d="M63.94,46H61V42.11A5.11,5.11,0,0,0,55.89,37H27.11A5.11,5.11,0,0,0,22,42.11V46H19.06A5.07,5.07,0,0,0,14,51.06V55a1,1,0,0,0,2,0V51.06A3.07,3.07,0,0,1,19.06,48H22V79a1,1,0,0,0,1,1h1v5a3,3,0,0,0,3,3h4a3,3,0,0,0,3-3V80H49v5a3,3,0,0,0,3,3h4a3,3,0,0,0,3-3V80h1a1,1,0,0,0,1-1V48h2.94A3.07,3.07,0,0,1,67,51.06V55a1,1,0,0,0,2,0V51.06A5.07,5.07,0,0,0,63.94,46ZM59,64H24V48H59ZM27.11,39H55.89A3.11,3.11,0,0,1,59,42.11V46H24V42.11A3.11,3.11,0,0,1,27.11,39ZM32,85a1,1,0,0,1-1,1H27a1,1,0,0,1-1-1V80h6Zm25,0a1,1,0,0,1-1,1H52a1,1,0,0,1-1-1V80h6ZM24,78V66H59V78Z"/><path class="cls-1" d="M78,30a1,1,0,0,0,0,2A1,1,0,0,0,78,30Z"/><path class="cls-1" d="M78,36a1,1,0,0,0,0,2A1,1,0,0,0,78,36Z"/><path class="cls-1" d="M78,42a1,1,0,0,0,0,2A1,1,0,0,0,78,42Z"/><path class="cls-1" d="M78,48a1,1,0,0,0,0,2A1,1,0,0,0,78,48Z"/><path class="cls-1" d="M78,54a1,1,0,0,0,0,2A1,1,0,0,0,78,54Z"/><path class="cls-1" d="M78,60a1,1,0,0,0,0,2A1,1,0,0,0,78,60Z"/><path class="cls-1" d="M78,66a1,1,0,0,0,0,2A1,1,0,0,0,78,66Z"/><path class="cls-1" d="M78,72a1,1,0,0,0,0,2A1,1,0,0,0,78,72Z"/><path class="cls-1" d="M78,78a1,1,0,0,0,0,2A1,1,0,0,0,78,78Z"/><path class="cls-1" d="M78,84a1,1,0,0,0,0,2A1,1,0,0,0,78,84Z"/><path class="cls-1" d="M78,90a1,1,0,0,0,0,2A1,1,0,0,0,78,90Z"/><path class="cls-1" d="M78,96a1,1,0,0,0,0,2A1,1,0,0,0,78,96Z"/><path class="cls-1" d="M117,36H89a1,1,0,0,0-1,1V49a1,1,0,0,0,1,1h28a1,1,0,0,0,1-1V37A1,1,0,0,0,117,36Zm-1,12H90V38h26Z"/><path class="cls-1" d="M93,69V59a1,1,0,0,0-2,0V69A1,1,0,0,0,93,69Z"/><path class="cls-1" d="M102,69V59a1,1,0,0,0-2,0V69A1,1,0,0,0,102,69Z"/><path class="cls-1" d="M110,69V59a1,1,0,0,0-2,0V69A1,1,0,0,0,110,69Z"/><path class="cls-1" d="M117,80H88a1,1,0,0,0,0,2h29A1,1,0,0,0,117,80Z"/><path class="cls-1" d="M117,88H88a1,1,0,0,0,0,2h29A1,1,0,0,0,117,88Z"/></g></svg>