<svg xmlns="http://www.w3.org/2000/svg" viewBox="0 0 128 128"><defs><style>.cls-1{fill:#47566a;}</style></defs><title>Ticket Machine</title><g id="Ticket_Machine" data-name="Ticket Machine"><path class="cls-1" d="M101.87,0H26.13A9.15,9.15,0,0,0,17,9.13V127a1,1,0,0,0,1,1h92a1,1,0,0,0,1-1V9.13A9.15,9.15,0,0,0,101.87,0ZM109,126H19V9.13A7.14,7.14,0,0,1,26.13,2h75.74A7.14,7.14,0,0,1,109,9.13Z"/><path class="cls-1" d="M99,12H29a1,1,0,0,0-1,1V58a1,1,0,0,0,1,1H99a1,1,0,0,0,1-1V13A1,1,0,0,0,99,12ZM98,57H30V14H98Z"/><path class="cls-1" d="M92,75H36a1,1,0,0,0-1,1v8a1,1,0,0,0,1,1h7v28a1,1,0,0,0,1,1H58a1,1,0,0,0,1-1,5,5,0,1,1,10,0,1,1,0,0,0,1,1H84a1,1,0,0,0,1-1V85h7a1,1,0,0,0,1-1V76A1,1,0,0,0,92,75ZM37,83V77h6v6Zm46,29H70.93a7,7,0,0,0-13.86,0H45V77H83Zm8-29H85V77h6Z"/><path class="cls-1" d="M49,87a1,1,0,0,0,0,2A1,1,0,0,0,49,87Z"/><path class="cls-1" d="M55,87a1,1,0,0,0,0,2A1,1,0,0,0,55,87Z"/><path class="cls-1" d="M61,87a1,1,0,0,0,0,2A1,1,0,0,0,61,87Z"/><path class="cls-1" d="M67,87a1,1,0,0,0,0,2A1,1,0,0,0,67,87Z"/><path class="cls-1" d="M73,87a1,1,0,0,0,0,2A1,1,0,0,0,73,87Z"/><path class="cls-1" d="M79,87a1,1,0,0,0,0,2A1,1,0,0,0,79,87Z"/></g></svg>