<svg xmlns="http://www.w3.org/2000/svg" viewBox="0 0 128 128"><defs><style>.cls-1{fill:#47566a;}</style></defs><title>tow truck</title><g id="tow_truck" data-name="tow truck"><path class="cls-1" d="M19,82a5,5,0,1,0,5,5A5,5,0,0,0,19,82Zm0,8a3,3,0,1,1,3-3A3,3,0,0,1,19,90Z"/><path class="cls-1" d="M44,82a5,5,0,1,0,5,5A5,5,0,0,0,44,82Zm0,8a3,3,0,1,1,3-3A3,3,0,0,1,44,90Z"/><path class="cls-1" d="M102,82a5,5,0,1,0,5,5A5,5,0,0,0,102,82Zm0,8a3,3,0,1,1,3-3A3,3,0,0,1,102,90Z"/><path class="cls-1" d="M127.94,65.16l-7.23-19.81A5.13,5.13,0,0,0,115.92,42H88a1,1,0,0,0-1,1V72H81V45.45l3.74-3.74a1,1,0,0,0,.19-1.16l-4.07-8.13c-.44-.87,3-.68-60.86,1.45V33a3,3,0,0,0-3-3H13a3,3,0,0,0-3,3v8a3,3,0,0,0,3,3h1v7.9a5.11,5.11,0,0,0,2.57,4.4A3.07,3.07,0,0,1,18,59.67c-.8,3.5-6,2.84-6-.73a1,1,0,0,0-2,0,5.07,5.07,0,1,0,7.65-4.36A3.13,3.13,0,0,1,16,51.9V44h1a3,3,0,0,0,2.82-2H69.39l2.93,2.92C68.34,71.2,69,65.11,69,72H1a1,1,0,0,0-1,1V87a1,1,0,0,0,1,1H8.05A11,11,0,0,0,30,88h3.1A11,11,0,0,0,55,88h36.1A11,11,0,0,0,113,88h14a1,1,0,0,0,1-1C128,64.1,128,65.42,127.94,65.16ZM118.83,46c8.25,22.6,7.17,18.75,7.17,22h-6.59l-5.7-5.71c-.39-.39-.52-.29-3.71-.29V44h5.92A3.11,3.11,0,0,1,118.83,46ZM98,62V44h10V62ZM17,42H13a1,1,0,0,1-1-1V33a1,1,0,0,1,1-1h4a1,1,0,0,1,1,1v8A1,1,0,0,1,17,42Zm52.81-2H20V35.87l59.36-2,3.46,6.91-1.94,1.94a4.22,4.22,0,0,0-8.15-.23C70.32,40.1,70.35,40,69.81,40Zm4.76,3.38a2.23,2.23,0,0,1,4.43.33V72H71C71,65.3,70.42,70.8,74.57,43.38ZM2,78H4v2H2Zm0,4H5a1,1,0,0,0,1-1V77a1,1,0,0,0-1-1H2V74H87V86H55a11,11,0,0,0-21.9,0H30a11,11,0,0,0-21.9,0H2ZM19,96a9,9,0,1,1,9-9A9,9,0,0,1,19,96Zm25,0a9,9,0,1,1,9-9A9,9,0,0,1,44,96Zm58,0a9,9,0,1,1,9-9A9,9,0,0,1,102,96Zm11-10a11,11,0,0,0-21.9,0H89V44h7V63a1,1,0,0,0,1,1h15.59l5.7,5.71c.42.41.29.29,7.71.29v4h-1a3,3,0,0,0-3,3v3a3,3,0,0,0,3,3h1v3Zm13-5h-1a1,1,0,0,1-1-1V77a1,1,0,0,1,1-1h1Z"/><path class="cls-1" d="M103,70H99a1,1,0,0,0,0,2h4A1,1,0,0,0,103,70Z"/></g></svg>