<svg xmlns="http://www.w3.org/2000/svg" viewBox="0 0 128 128"><defs><style>.cls-1{fill:#47566a;}</style></defs><title>Traffic Light</title><g id="Traffic_Light" data-name="Traffic Light"><path class="cls-1" d="M64,8A15,15,0,1,0,79,23,15,15,0,0,0,64,8Zm0,28A13,13,0,1,1,77,23,13,13,0,0,1,64,36Z"/><path class="cls-1" d="M64,49A15,15,0,1,0,79,64,15,15,0,0,0,64,49Zm0,28A13,13,0,1,1,77,64,13,13,0,0,1,64,77Z"/><path class="cls-1" d="M99,70.35c0-9.14,2.55-15.11,5.9-21.91A1,1,0,0,0,104,47H89V40.47A11.12,11.12,0,0,0,99,29.35C99,14.51,105.82,8,104.85,6.47,104.43,5.81,105.16,6,89,6V1a1,1,0,0,0-1-1H40a1,1,0,0,0-1,1V6H24a1,1,0,0,0-.9,1.44C26.17,13.67,29,19.73,29,29.35A11.12,11.12,0,0,0,39,40.47V47c-16.14,0-15.43-.2-15.85.47C22.21,49,29,55.76,29,70.35A11.12,11.12,0,0,0,39,81.47V87H24a1,1,0,0,0-.9,1.44c3.07,6.23,5.9,12.29,5.9,21.91a11.12,11.12,0,0,0,10,11.12V127a1,1,0,0,0,1,1H88a1,1,0,0,0,1-1v-5.53a11.12,11.12,0,0,0,10-11.12c0-14.84,6.82-21.33,5.85-22.88-.42-.66.31-.47-15.85-.47V81.47A11.12,11.12,0,0,0,99,70.35ZM102.39,49C99.2,55.5,97,61.79,97,70.35a9.12,9.12,0,0,1-8,9.11V49Zm0-41C99.2,14.5,97,20.79,97,29.35a9.12,9.12,0,0,1-8,9.11V8ZM31,29.35C31,20.92,28.88,14.64,25.61,8H39V38.46A9.12,9.12,0,0,1,31,29.35Zm0,41c0-8.43-2.12-14.71-5.39-21.35H39V79.46A9.12,9.12,0,0,1,31,70.35Zm0,40c0-8.43-2.12-14.71-5.39-21.35H39v30.46A9.12,9.12,0,0,1,31,110.35ZM87,126H41V2H87Zm15.39-37C99.2,95.5,97,101.79,97,110.35a9.12,9.12,0,0,1-8,9.11V89Z"/><path class="cls-1" d="M64,90a15,15,0,1,0,15,15A15,15,0,0,0,64,90Zm0,28a13,13,0,1,1,13-13A13,13,0,0,1,64,118Z"/></g></svg>