<svg xmlns="http://www.w3.org/2000/svg" viewBox="0 0 128 128"><defs><style>.cls-1{fill:#47566a;}</style></defs><title>Traffic Cone</title><g id="Traffic_Cone" data-name="Traffic Cone"><path class="cls-1" d="M119,118H105v-7a1,1,0,0,0-1-1H99.42C71.37-6.51,73.33,0,72.15,0H55.85c-1.18,0,.78-6.51-27.27,110H23a1,1,0,0,0-1,1v7H9a1,1,0,0,0-1,1v8a1,1,0,0,0,1,1H119a1,1,0,0,0,1-1v-8A1,1,0,0,0,119,118ZM40,71H88l6.26,26H33.77Zm6-25H82l5.54,23h-47Zm6.74-28H75.21l6.26,26H46.53ZM56.64,2H71.36l3.37,14H53.27ZM33.29,99H94.71l2.65,11H30.64ZM24,112h79v6H24Zm94,14H10v-6H118Z"/></g></svg>