<svg xmlns="http://www.w3.org/2000/svg" viewBox="0 0 128 128"><defs><style>.cls-1{fill:#47566a;}</style></defs><title>Trailer Truck</title><g id="Trailer_Truck" data-name="Trailer Truck"><path class="cls-1" d="M19,85a6,6,0,1,0,6,6A6,6,0,0,0,19,85Zm0,10a4,4,0,1,1,4-4A4,4,0,0,1,19,95Z"/><path class="cls-1" d="M41,85a6,6,0,1,0,6,6A6,6,0,0,0,41,85Zm0,10a4,4,0,1,1,4-4A4,4,0,0,1,41,95Z"/><path class="cls-1" d="M109,85a6,6,0,1,0,6,6A6,6,0,0,0,109,85Zm0,10a4,4,0,1,1,4-4A4,4,0,0,1,109,95Z"/><path class="cls-1" d="M122.46,66.59l-13.11-2.92L93.14,40.07A7.11,7.11,0,0,0,87.29,37h-1C66.94,26.23,70.1,27,53.13,27a4.08,4.08,0,0,0-4.07,4.07c0,1.63.57,2.07,3.94,7.14V74H11.14c-.28,0,.56-.3-10.51,4.07C-.25,78.42,0,78.1,0,93a1,1,0,0,0,1,1H7.39c2.86,11,18.05,12.23,22.61,1.78C34.56,106.22,49.75,105,52.61,94h6.57A3,3,0,0,0,62,96H80a3,3,0,0,0,2.82-2H97.39a12,12,0,0,0,23.22,0H127a1,1,0,0,0,1-1V73.52A7.07,7.07,0,0,0,122.46,66.59Zm-16-3.59H98.24l-3.79-1.89C94.15,61,95,61,83,61V47H95.48ZM51.06,31.07A2.07,2.07,0,0,1,53.13,29c16,0,13.5-.65,29.08,8H54.6C51.24,32,51.06,31.92,51.06,31.07ZM73,74H55V39H73ZM19,101A10,10,0,1,1,29,91,10,10,0,0,1,19,101Zm22,0A10,10,0,1,1,51,91,10,10,0,0,1,41,101ZM59,87v5H53a12,12,0,0,0-23-5.78A12,12,0,0,0,7.05,92H2V79.68L11.33,76H73v8H62A3,3,0,0,0,59,87Zm22,6a1,1,0,0,1-1,1H62a1,1,0,0,1-1-1V87a1,1,0,0,1,1-1H80a1,1,0,0,1,1,1Zm28,8a10,10,0,1,1,10-10A10,10,0,0,1,109,101Zm17-21h-2V76h2Zm-3-6a1,1,0,0,0-1,1v6a1,1,0,0,0,1,1h3V92h-5a12,12,0,1,0-23.9,0H83V87a3,3,0,0,0-3-3H75V39c16.73,0,14.21-1.13,19.1,6H82a1,1,0,0,0-1,1V62a1,1,0,0,0,1,1H93.76c4.08,2,3.91,2,4.24,2,10.93,0,9.8,0,9.93.13.32.46-.56.15,14.09,3.41,2.24.51,4,2.31,4,5.46Z"/><path class="cls-1" d="M60,59h8a1,1,0,0,0,1-1V46a1,1,0,0,0-1-1H60a1,1,0,0,0-1,1V58A1,1,0,0,0,60,59Zm1-12h6V57H61Z"/><path class="cls-1" d="M88,70H84a1,1,0,0,0,0,2h4A1,1,0,0,0,88,70Z"/></g></svg>