<svg xmlns="http://www.w3.org/2000/svg" viewBox="0 0 128 128"><defs><style>.cls-1{fill:#47566a;}</style></defs><title>Travel Distance</title><g id="Travel_Distance" data-name="Travel Distance"><path class="cls-1" d="M30.45,21.32a9.13,9.13,0,1,0-9.13,9.13A9.14,9.14,0,0,0,30.45,21.32Zm-16.26,0a7.13,7.13,0,1,1,7.13,7.13A7.14,7.14,0,0,1,14.19,21.32Z"/><path class="cls-1" d="M115.81,86.35a9.13,9.13,0,1,0-9.13,9.13A9.14,9.14,0,0,0,115.81,86.35Zm-16.26,0a7.13,7.13,0,1,1,7.13,7.13A7.13,7.13,0,0,1,99.55,86.35Z"/><path class="cls-1" d="M112.58,114.86c6.14-6.1,15.42-17.19,15.42-28.51a21.33,21.33,0,0,0-42.65,0c0,11.32,9.29,22.41,15.43,28.51-2.85,1.12-4.75,3-5.17,5.14H17.5a15.5,15.5,0,0,1,0-31H60a17,17,0,0,0,0-34H32.39c-.4-2.16-2.3-4-5.17-5.17,6.14-6.1,15.43-17.19,15.43-28.51A21.33,21.33,0,0,0,0,21.32C0,32.64,9.28,43.73,15.42,49.83,6.13,53.47,9.81,63,21.32,63c5.65,0,10.19-2.55,11-6H60a15,15,0,0,1,0,30H17.5a17.5,17.5,0,0,0,0,35H95.66c.81,3.44,5.35,6,11,6C118.23,128,121.84,118.5,112.58,114.86ZM21.32,2A19.35,19.35,0,0,1,40.65,21.32c0,14-15.94,28.33-19.33,31.22C17.94,49.65,2,35.33,2,21.32A19.35,19.35,0,0,1,21.32,2Zm0,59c-9.09,0-13-6.92-4.28-9.58,2,1.9,3.44,3.06,3.66,3.23a1,1,0,0,0,1.25,0c.21-.17,1.64-1.33,3.66-3.23C34.3,54.05,30.42,61,21.32,61ZM106.68,67A19.35,19.35,0,0,1,126,86.35c0,14-15.94,28.34-19.32,31.22-3.39-2.88-19.33-17.21-19.33-31.22A19.35,19.35,0,0,1,106.68,67Zm0,59c-9.09,0-13-6.91-4.29-9.57,2,1.89,3.45,3,3.66,3.22a1,1,0,0,0,1.25,0c.22-.17,1.65-1.33,3.66-3.22C119.65,119.09,115.77,126,106.68,126Z"/></g></svg>