<svg xmlns="http://www.w3.org/2000/svg" viewBox="0 0 128 128"><defs><style>.cls-1{fill:#47566a;}</style></defs><title>Trem</title><g id="Trem"><path class="cls-1" d="M118.87,43H111.3l-1.77-5.32c-.29-.87-1-.68-3.53-.68V30c3.62,0,2,.53,7.15-2.66A3,3,0,0,0,117.82,26H127a1,1,0,0,0,0-2h-9.18a3,3,0,0,0-4.91-1.15C109,20,109,20,108.58,20c-17.5,0-16.2-.07-16.55.17l-4,2.65A3,3,0,0,0,83.18,24H1a1,1,0,0,0,0,2H83.18a3,3,0,0,0,4.87,1.18l4,2.65c.36.24.36.17,4,.17v7c-3.57,0-4.08-.19-4.37.68L89.86,43H38.14l-1.77-5.32a1,1,0,0,0-.95-.68h-16a1,1,0,0,0-1,.68L16.7,43H9.13A9.15,9.15,0,0,0,0,52.13V99a1,1,0,0,0,1,1H33.35a6,6,0,0,0,1.19,6H1a1,1,0,0,0,0,2H127a1,1,0,0,0,0-2H93.46a6,6,0,0,0,1.19-6H127a1,1,0,0,0,1-1V52.13A9.15,9.15,0,0,0,118.87,43ZM115,24a1,1,0,0,1,0,2A1,1,0,0,1,115,24ZM86,26a1,1,0,0,1,0-2A1,1,0,0,1,86,26Zm3-.61a2,2,0,0,0,0-.78L92.88,22h15.38c4.82,3.43,3.48,2.16,3.82,3.65L108.29,28H92.88ZM98,30h6v7H98Zm-4.7,9h14.56l1.33,4H92ZM20.14,39H34.7L36,43H18.81ZM8,77H2V59H8ZM2,79H8V98H2Zm8,19V59H28V98ZM63,59V77H49V59Zm16,0V77H65V59Zm19,0V77H81V59ZM47,77H30V59H47ZM35,102a4.12,4.12,0,0,1,1.56-3.15A4,4,0,1,1,35,102Zm48,0a4,4,0,0,1-8,0,4.12,4.12,0,0,1,1.56-3.15A4,4,0,0,1,83,102Zm.46-4h1.08C83.76,98.87,84.25,98.88,83.46,98Zm1.08,8H83.46C84.24,105.13,83.75,105.12,84.54,106Zm-10,0H53.46a6,6,0,0,0,1.19-6h18.7A6,6,0,0,0,74.54,106Zm-23.1-7.15A4,4,0,1,1,45,102,4,4,0,0,1,51.44,98.85ZM44.54,106H43.46C44.24,105.13,43.75,105.12,44.54,106Zm-1.08-8h1.08C43.76,98.87,44.25,98.88,43.46,98ZM85,102a4,4,0,0,1,6.44-3.15A4,4,0,1,1,85,102Zm7.7-4.71c-1-1-1.18-1.29-1.7-1.29-15.19,0-14.29-.13-14.71.29C74.64,98,75,97.45,74.54,98H53.46a5.66,5.66,0,0,0-.76-.71c-1-1-1.18-1.29-1.7-1.29-15.19,0-14.29-.13-14.71.29C34.64,98,35,97.45,34.54,98H30V79H98V98C92.36,98,93.91,98.24,92.7,97.29ZM100,98V59h18V98Zm26-21h-6V59h6Zm-6,21V79h6V98Zm6-41H2V52.13A7.14,7.14,0,0,1,9.13,45H118.87A7.14,7.14,0,0,1,126,52.13Z"/></g></svg>