<svg xmlns="http://www.w3.org/2000/svg" viewBox="0 0 128 128"><defs><style>.cls-1{fill:#47566a;}</style></defs><title>Tuk Tuk</title><g id="Tuk_Tuk" data-name="Tuk Tuk"><path class="cls-1" d="M19,91a6,6,0,1,0,6,6A6,6,0,0,0,19,91Zm0,10a4,4,0,1,1,4-4A4,4,0,0,1,19,101Z"/><path class="cls-1" d="M124.52,89h2.29a1,1,0,0,0,1-1,11,11,0,0,0-12.65-10.9c3.24-7,3.13-14.51,1.25-21.5-1.68-6.13-2.86-7.44-16.77-31.11A9.17,9.17,0,0,0,91.77,20H22.3A21.29,21.29,0,0,0,1,40.17C-.26,64.59,0,53.5,0,90a1,1,0,0,0,1,1H9.78a11,11,0,1,0,19.47,2h61a27.61,27.61,0,0,0,12.56-3l-.94,3.77a1,1,0,0,0,1,1.24,23.24,23.24,0,0,0,3.39-.09A15.9,15.9,0,0,0,106,97a11,11,0,1,0,18.52-8Zm-9.83-32H102.13A7.14,7.14,0,0,1,95,49.87V30h5.56C111.41,48.47,113.13,50.55,114.69,57ZM74.06,83A3.07,3.07,0,0,1,71,79.94V77H83v6ZM71,75V69H85v6Zm14,2h1a1,1,0,0,0,1-1V68a1,1,0,0,0-1-1H71V64a1,1,0,0,0-1-1H67V30H93V79.94A3.06,3.06,0,0,1,89.94,83H85ZM62,63a1,1,0,0,0-1,1V79.94A3.06,3.06,0,0,1,57.94,83H46.06A3.07,3.07,0,0,1,43,79.94V64.06A5.07,5.07,0,0,0,37.94,59H37c0-22.44,0-21.1-.08-21.38A5,5,0,0,0,39,30H65V63ZM20,59V38H35V59ZM19,30H35a3,3,0,0,1,0,6H19a3,3,0,0,1,0-6Zm3.3-8H91.77a7.16,7.16,0,0,1,6.15,3.51L99.38,28H19a5,5,0,0,0-1,9.9c0,.31,0,5.75,0,21.1H2L3,40.28A19.31,19.31,0,0,1,22.3,22ZM28,97a9,9,0,1,1-15.07-6.64A9,9,0,0,1,28,97Zm62.22-6h-62a11,11,0,0,0-16.77-2H2V61H37.94A3.07,3.07,0,0,1,41,64.06V79.94A5.07,5.07,0,0,0,46.06,85H57.94A5.07,5.07,0,0,0,63,79.94V65h6V79.94A5.07,5.07,0,0,0,74.06,85H89.94A5.07,5.07,0,0,0,95,79.94V55.56A9.12,9.12,0,0,0,102.13,59c14.54,0,12.69,0,13,0,1.22,6.56.74,12.77-2.46,18.66a13.79,13.79,0,0,0-9.21,9.7A25.61,25.61,0,0,1,90.22,91Zm14.71,2h-.84l1.26-5.06A11.8,11.8,0,0,1,116.81,79a9,9,0,0,1,8.94,8H117.6a9.15,9.15,0,0,0-7.11,3.37A7.21,7.21,0,0,1,104.93,93ZM117,106a9,9,0,0,1-8.58-11.69A9.12,9.12,0,0,0,112,91.63c2.5-3,5.49-2.63,9-2.63C129.53,93.32,126.35,106,117,106Z"/><path class="cls-1" d="M117,91a6,6,0,1,0,6,6A6,6,0,0,0,117,91Zm0,10a4,4,0,1,1,4-4A4,4,0,0,1,117,101Z"/></g></svg>