<svg xmlns="http://www.w3.org/2000/svg" viewBox="0 0 128 128"><defs><style>.cls-1{fill:#47566a;}</style></defs><title>Turnstile</title><g id="Turnstile"><path class="cls-1" d="M30,8H13a1,1,0,0,0-1,1v8a1,1,0,0,0,1,1H30a1,1,0,0,0,1-1V9A1,1,0,0,0,30,8Zm-1,8H14V10H29Z"/><path class="cls-1" d="M123.6,25.06A4.91,4.91,0,0,0,119,22H63.86A12.58,12.58,0,0,0,62,19l.87-.87a1,1,0,0,0,0-1.42C45.05-1,46.28,0,45.66,0H5A1,1,0,0,0,4,1V127a1,1,0,0,0,1,1H54a1,1,0,0,0,1-1c0-8.5.12-8.24-.29-8.64-6.57-6.57-6.19-6.36-6.77-6.36H39V39c3.45,0,2.66.31,4.39-1.43A13.18,13.18,0,0,0,47,39.72V94.08a4.94,4.94,0,0,0,8.32,3.63A5.38,5.38,0,0,0,57,93.81v-54L95.65,78.42a5.06,5.06,0,1,0,7.16-7.16C61,29.47,63.9,32.64,64.14,32H119A5,5,0,0,0,123.6,25.06ZM6,2H37V24H6ZM53,119.48V126H6V114H47.52ZM6,112V26H37v86ZM41.14,37H39V2h6.25L60.7,17.44ZM60.53,20.43c4,4.88,3.47,13-4,17.12a11.18,11.18,0,0,1-11.76-1.39ZM53.94,96.26A2.94,2.94,0,0,1,49,94.08V40.31a12.84,12.84,0,0,0,6-.11V93.81A3.41,3.41,0,0,1,53.94,96.26ZM101.4,72.67a3.08,3.08,0,0,1,0,4.34,3,3,0,0,1-2.18.91c-1.8,0,1.33,2.58-40.51-39.26A13.21,13.21,0,0,0,63,34.31Zm19.73-43.55c-1.29,1.27,2.59.88-56.41.88a12.91,12.91,0,0,0-.16-6H119A3,3,0,0,1,121.13,29.12Z"/></g></svg>