<svg xmlns="http://www.w3.org/2000/svg" viewBox="0 0 128 128"><defs><style>.cls-1{fill:#47566a;}</style></defs><title>Van</title><g id="Van"><path class="cls-1" d="M25,77a6,6,0,1,0,6,6A6,6,0,0,0,25,77Zm0,10a4,4,0,1,1,4-4A4,4,0,0,1,25,87Z"/><path class="cls-1" d="M111,77a6,6,0,1,0,6,6A6,6,0,0,0,111,77Zm0,10a4,4,0,1,1,4-4A4,4,0,0,1,111,87Z"/><path class="cls-1" d="M123.16,55.11l-7.66-2.56-7.66-13.84a9.15,9.15,0,0,0-8-4.71H12.35a7.09,7.09,0,0,0-6.71,4.8L.05,55.1C0,55.33,0,53.31,0,82a1,1,0,0,0,.86,1l13.31,1.89A11,11,0,0,0,35.81,85h64.38a11,11,0,0,0,21.62,0H127a1,1,0,0,0,1-1V61.85A7.12,7.12,0,0,0,123.16,55.11ZM99.85,36a7.14,7.14,0,0,1,6.24,3.68l7.5,13.56-7,1.76H83V36ZM81,36V55H53V36ZM51,55H26.48l1.9-19H51ZM26.37,36l-1.9,19H17.56L12.3,51.49,16.18,36ZM2,61H6v8H2ZM25,92a9,9,0,1,1,9-9A9,9,0,0,1,25,92Zm86,0a9,9,0,1,1,9-9A9,9,0,0,1,111,92Zm11-9a11,11,0,0,0-22,0H36a11,11,0,0,0-22-.21L2,81.09V71H7a1,1,0,0,0,1-1V60a1,1,0,0,0-1-1H2c0-4.55-.9-.79,5.54-19.56A5.07,5.07,0,0,1,12.35,36h1.76c-4.17,16.69-4.34,16.21-3.5,16.77C17.19,57.16,16.83,57,17.26,57c93.72,0,89.47,0,89.66,0,8.87-2.22,8.28-2,8.59-2.31l7,2.35A5.11,5.11,0,0,1,126,61.85V65h-3a1,1,0,0,0-1,1v6a1,1,0,0,0,1,1h3V83Zm4-12h-2V67h2Z"/><path class="cls-1" d="M88,63H84a1,1,0,0,0,0,2h4A1,1,0,0,0,88,63Z"/><path class="cls-1" d="M60,63H56a1,1,0,0,0,0,2h4A1,1,0,0,0,60,63Z"/></g></svg>