<svg xmlns="http://www.w3.org/2000/svg" viewBox="0 0 128 128"><defs><style>.cls-1{fill:#47566a;}</style></defs><title>Wagon</title><g id="Wagon"><path class="cls-1" d="M25,72a5,5,0,1,0,5,5A5,5,0,0,0,25,72Zm0,8a3,3,0,1,1,3-3A3,3,0,0,1,25,80Z"/><path class="cls-1" d="M105,72a5,5,0,1,0,5,5A5,5,0,0,0,105,72Zm0,8a3,3,0,1,1,3-3A3,3,0,0,1,105,80Z"/><path class="cls-1" d="M121.85,57.8l-25-3.37C77.54,40.73,77.39,40,74.25,40H15.74a7.17,7.17,0,0,0-5.05,2.11L.29,52.63c-.43.43-.29-1.2-.29,23.31a1,1,0,0,0,.86,1l13.31,1.93A11,11,0,0,0,35.81,79H94.19a11,11,0,0,0,21.62,0h7.13c.6,0,.53-.12,4.77-4.41.41-.41.29.06.29-9.76A7.11,7.11,0,0,0,121.85,57.8ZM74.25,42c2.2,0,1.32-.22,20.09,13.07L88.23,57H59V42ZM57,57H34.64l1.87-15H57ZM22.08,42H34.5L32.62,57H15.46l-2.81-1.41C22.74,41.16,22,42.28,22.08,42ZM2,63H4.38l1,2H2ZM25,86a9,9,0,0,1-8.87-7.56c.3-.63-.13-.79-.13-1.44a9,9,0,1,1,9,9Zm80,0a9,9,0,1,1,9-9A9,9,0,0,1,105,86Zm17.52-9H116a11,11,0,0,0-22,0H36a11,11,0,0,0-22-.19L2,75.08V67c5.33,0,5.46.16,5.85-.47s.17-.72-2-5C5.53,60.82,5,61,2,61V53.74C15,40.62,12,42,19.72,42,9.54,56.54,10,55.58,10.19,56.21s.18.48,4.59,2.68c.32.17-4.44.11,73.61.11.21,0-.21.11,7.9-2.44.64-.21-2.47-.53,25.29,3.22A5.12,5.12,0,0,1,126,65h-3a3,3,0,0,0,0,6h3v2.48ZM126,69h-3a1,1,0,0,1,0-2h3Z"/><path class="cls-1" d="M66,63H62a1,1,0,0,0,0,2h4A1,1,0,0,0,66,63Z"/></g></svg>