<svg xmlns="http://www.w3.org/2000/svg" viewBox="0 0 128 128"><defs><style>.cls-1{fill:#47566a;}</style></defs><title>Waiting Room</title><g id="Waiting_Room" data-name="Waiting Room"><path class="cls-1" d="M127,126H117V104h4c7.54,0,9.65-10.54,3-11.9V64.24A9.24,9.24,0,0,0,114.76,55H97.24A9.24,9.24,0,0,0,88,64.24V92.1A5,5,0,0,0,85,94a5,5,0,0,0-3-1.93V64.24A9.24,9.24,0,0,0,72.76,55H55.24A9.24,9.24,0,0,0,46,64.24V92.1A5,5,0,0,0,43,94a5,5,0,0,0-3-1.93V64.24A9.24,9.24,0,0,0,30.76,55H13.24A9.24,9.24,0,0,0,4,64.24V92.1C-2.69,93.47-.49,104,7,104h4v22H1a1,1,0,0,0,0,2H127A1,1,0,0,0,127,126ZM63,104v10H13V104Zm-21.11-2c1.93-1.88.29-1.88,2.22,0ZM65,104h50v10H65Zm18.89-2c1.93-1.88.29-1.88,2.22,0ZM115,116v10H65V116ZM90,64.24A7.25,7.25,0,0,1,97.24,57h17.52A7.25,7.25,0,0,1,122,64.24V92H90ZM89,94h34a3,3,0,0,1,3,3,5,5,0,0,1-5,5H91a5,5,0,0,1-5-5A3,3,0,0,1,89,94ZM48,64.24A7.25,7.25,0,0,1,55.24,57H72.76A7.25,7.25,0,0,1,80,64.24V92H48ZM47,94H81a3,3,0,0,1,3,3,5,5,0,0,1-5,5H49a5,5,0,0,1-5-5A3,3,0,0,1,47,94ZM6,64.24A7.25,7.25,0,0,1,13.24,57H30.76A7.25,7.25,0,0,1,38,64.24V92H6ZM2,97a3,3,0,0,1,3-3H39a3,3,0,0,1,3,3,5,5,0,0,1-5,5H7A5,5,0,0,1,2,97Zm11,19H63v10H13Z"/><path class="cls-1" d="M31,67H13a1,1,0,0,0,0,2H31A1,1,0,0,0,31,67Z"/><path class="cls-1" d="M31,80H13a1,1,0,0,0,0,2H31A1,1,0,0,0,31,80Z"/><path class="cls-1" d="M115,67H97a1,1,0,0,0,0,2h18A1,1,0,0,0,115,67Z"/><path class="cls-1" d="M115,80H97a1,1,0,0,0,0,2h18A1,1,0,0,0,115,80Z"/><path class="cls-1" d="M73,67H56a1,1,0,0,0,0,2H73A1,1,0,0,0,73,67Z"/><path class="cls-1" d="M73,80H56a1,1,0,0,0,0,2H73A1,1,0,0,0,73,80Z"/><path class="cls-1" d="M63.5,35A17.5,17.5,0,1,0,46,17.5,17.52,17.52,0,0,0,63.5,35Zm0-33A15.5,15.5,0,1,1,48,17.5,15.51,15.51,0,0,1,63.5,2Z"/><path class="cls-1" d="M59.87,24.71c.73,0,.43.16,5-6.64.24-.35.17.2.17-9.07a1,1,0,0,0-2,0v8.21l-4,5.95A1,1,0,0,0,59.87,24.71Z"/></g></svg>