<svg xmlns="http://www.w3.org/2000/svg" viewBox="0 0 128 128"><defs><style>.cls-1{fill:#47566a;}</style></defs><title>Way Finding</title><g id="Way_Finding" data-name="Way Finding"><path class="cls-1" d="M76,22H94a1,1,0,0,0,0-2H76A1,1,0,0,0,76,22Z"/><path class="cls-1" d="M52,30H34a1,1,0,0,0,0,2H52A1,1,0,0,0,52,30Z"/><path class="cls-1" d="M100.8,39.4c-.45-.6,1.64-.4-31.8-.4V30h31c.7,0,.38.16,6.8-8.4a1,1,0,0,0,0-1.2l-6-8c-.45-.61,1.54-.4-31.9-.4A5,5,0,0,0,67,9,5,5,0,1,0,61,9a5,5,0,0,0-2,4v9H28c-.7,0-.38-.16-6.8,8.4a1,1,0,0,0,0,1.2l6,8c.45.6-1.64.4,31.8.4v9H28c-.7,0-.38-.16-6.8,8.4a1,1,0,0,0,0,1.2l6,8c.45.6-1.64.4,31.8.4v47H56a1,1,0,0,0-1,.84l-2,12A1,1,0,0,0,54,128c21.56,0,20.33.15,20.76-.35s.39.15-1.77-12.81a1,1,0,0,0-1-.84H69V57h31c.7,0,.38.16,6.8-8.4a1,1,0,0,0,0-1.2Zm4-18.4L99.5,28H69V14H99.5ZM61,5a3,3,0,1,1,3,3A3,3,0,0,1,61,5ZM28.5,38l-5.25-7,5.25-7H59V38Zm0,27-5.25-7,5.25-7H59V65Zm44.32,61H55.18l1.67-10h14.3ZM61,114V13a3,3,0,0,1,6,0V114ZM99.5,55H69V41H99.5l5.25,7Z"/><path class="cls-1" d="M94,47H76a1,1,0,0,0,0,2H94A1,1,0,0,0,94,47Z"/><path class="cls-1" d="M52,57H34a1,1,0,0,0,0,2H52A1,1,0,0,0,52,57Z"/></g></svg>