<svg xmlns="http://www.w3.org/2000/svg" viewBox="0 0 128 128"><defs><style>.cls-1{fill:#47566a;}</style></defs><title>Yacth</title><g id="Yacth"><path class="cls-1" d="M127.92,63.6c-.39-.87.7-.63-22.87-.23-.26-.18,2.45,1.1-26.53-12.28-.26-.12-.29-.09-1.91-.09C61.21,40.25,62.42,41,62,41c-17.57,0-16.4,0-16.63,0L39.5,43H27.69c-10.58-8.47-9.85-8-10.35-8-8.88,0-8.72-.19-9.1.54s-.7,0,10.48,15.46H9a1,1,0,0,0-1,1v2c0,1.43.53.66,14.09,2.77l-1.55,8c-14.49.24-13.9,0-14.3.7C1.89,72.62,0,74.81,0,79.21c0,6.25,3.77,8.92,8.43,13.5.45.45-5.08.29,82,.29,10.47,0,36.22-27.16,37.31-28.31A1,1,0,0,0,127.92,63.6Zm-27.41-.16-44.22.74L58.64,59H90.88ZM11.08,37H17l9.72,7.78c.4.32-.43.22,12.95.22.23,0-.17.11,6.16-2H61.66l11.46,8H21.18Zm66.8,16,8.67,4c-31,0-29.08-.25-29.46.59l-3,6.63-1.81,0C49.44,57.93,16.87,53.93,10,53.14,10,52.92,6.67,53,77.88,53ZM24.07,57.11c18.18,3,23.88,5.68,25.65,7.18l-27.13.45ZM105,83H15a1,1,0,0,0,0,2h87.38c-4.8,3.53-9.16,6-12,6H9.54C5.41,86.93,2,84.53,2,79.21,2,75.63,3.15,74.39,7.66,67l117-1.95A219.93,219.93,0,0,1,105,83Z"/><path class="cls-1" d="M62,73h4a1,1,0,0,0,0-2H62A1,1,0,0,0,62,73Z"/><path class="cls-1" d="M72,73h4a1,1,0,0,0,0-2H72A1,1,0,0,0,72,73Z"/><path class="cls-1" d="M90,73h4a1,1,0,0,0,0-2H90A1,1,0,0,0,90,73Z"/><path class="cls-1" d="M101,73h4a1,1,0,0,0,0-2h-4A1,1,0,0,0,101,73Z"/><path class="cls-1" d="M42,71H23a1,1,0,0,0,0,2H42A1,1,0,0,0,42,71Z"/></g></svg>