<svg xmlns="http://www.w3.org/2000/svg" viewBox="0 0 128 128"><defs><style>.cls-1{fill:#47566a;}</style></defs><title>Zepplin</title><g id="Zepplin"><path class="cls-1" d="M80.26,33c-15.87,0-40.37,3.7-58,9.36C17.58,36.92,17.81,37,17.19,37H5a1,1,0,0,0-1,1V51.07c-5.18,4.32-5.49,9.08,0,13.67V78a1,1,0,0,0,1,1H17.19c.61,0,.44,0,5.53-5.41,3.45,1.1,6.88,2,10.33,2.89L36.6,94.2a1,1,0,0,0,1,.8H74.16a1,1,0,0,0,1-.8l2.3-11.43c1,0,1.9,0,2.82,0C107.48,82.81,128,72.1,128,57.9S107.48,33,80.26,33ZM6,39H16.73l3.48,4A62,62,0,0,0,6,49.57ZM16.76,77H6V66.24c3.82,2.58,9.09,4.8,14.61,6.66ZM73.34,93H38.4L35.19,77A228.52,228.52,0,0,0,75.41,82.7Zm6.92-12.19C55,80.81,2,70.29,2,57.9,2,46.21,52,35,80.26,35,105.91,35,126,45.06,126,57.9S105.91,80.81,80.26,80.81Z"/><path class="cls-1" d="M23,57H5a1,1,0,0,0,0,2H23A1,1,0,0,0,23,57Z"/><path class="cls-1" d="M44,87h4a1,1,0,0,0,0-2H44A1,1,0,0,0,44,87Z"/><path class="cls-1" d="M54,87h4a1,1,0,0,0,0-2H54A1,1,0,0,0,54,87Z"/><path class="cls-1" d="M64,87h4a1,1,0,0,0,0-2H64A1,1,0,0,0,64,87Z"/></g></svg>