<svg id="Layer_1" data-name="Layer 1" xmlns="http://www.w3.org/2000/svg" width="354.21" height="112.18" viewBox="0 0 354.21 112.18">
  <title>27sg_ovn2_170828 [Convertido]</title>
  <g>
    <path d="M238.43,76.72c-1.34-2.44-5.4-2.77-9.06-.76-2.84,1.56-4.6,4.07-4.63,6.25h0l.45,34.76,1.37,0-.42-31.82c1.81,1.37,5.08,1.3,8.09-.35C237.88,82.76,239.77,79.16,238.43,76.72Z" transform="translate(-5.08 -4.78)"/>
    <path d="M125.5,70.9c-1-1.92-4.19-2.23-7.07-.69-2.23,1.19-3.64,3.14-3.69,4.84h0V94.27H97.55V77.35c1.41,1.09,4,1.07,6.33-.19,2.89-1.54,4.4-4.34,3.38-6.26s-4.2-2.23-7.08-.69c-2.23,1.19-3.64,3.14-3.69,4.84h0v27.18h0v0h19.3V98.18h0V95.85h0V94.27h0V77.35c1.41,1.09,4,1.07,6.33-.19C125,75.62,126.53,72.82,125.5,70.9ZM114.73,98.18H97.55V95.85h17.18Z" transform="translate(-5.08 -4.78)"/>
    <path d="M324.93,31V24.86l0-3-23,7.55v0l-.05.06-25.82,8.48V43.5h0v3.57h0v2.76h0V70.78c-1.89-1.46-5.31-1.44-8.48.25-3.87,2.07-5.89,5.82-4.52,8.38s5.61,3,9.48.93c3-1.6,4.86-4.2,4.93-6.48h0V49.36l23-7.67v21c-1.88-1.47-5.3-1.44-8.48.25-3.86,2.06-5.88,5.81-4.51,8.38s5.61,3,9.47.92c3-1.59,4.87-4.2,4.94-6.48h0V41.21L323.51,34V55.88c-1.89-1.46-5.31-1.44-8.48.25-3.87,2.06-5.89,5.81-4.52,8.38s5.61,3,9.48.92c3-1.59,4.86-4.19,4.93-6.48h0V32.45L325,31ZM277.5,46.61V43l23-7.67v3.7Zm24.44-8V34.87l21.57-7.19V31.5Z" transform="translate(-5.08 -4.78)"/>
    <path d="M60.33,64a11.14,11.14,0,0,0-6.86-2.48V47.08c7.74-5.24,14.74-12.29,14.12-19.86-.92-10.93-7.26-13.5-7.26-13.5l-.32.14c-.45.19-11.06,5-9.75,26.65l0,.57a76.7,76.7,0,0,1-7.46,5.1c-13,7.86-19.21,18.34-16.65,28,2,7.4,9,12.53,17.33,12.75a32.09,32.09,0,0,0,7.1,0c-.16,8.29-.35,14.08-.35,14.24s.21,8.25-7.85,9.94a13.24,13.24,0,0,1-6.12-.12,5.81,5.81,0,0,1-3.15-5A6.28,6.28,0,1,0,37,94.15,7.08,7.08,0,0,0,28.43,99a9.71,9.71,0,0,0,2,9.64,11.66,11.66,0,0,0,7.31,3.61h-.26c5.54.53,9.1-.57,12.44-3,3.49-2.51,3.57-7.89,3.57-7.89v-15c5.35-1.2,9.05-3.94,10.73-8A12.47,12.47,0,0,0,60.33,64Zm.28,9.6a8.11,8.11,0,0,1-.46,5.72c-1.21,2-3.68,3.63-6.68,4.59V66.42A9.51,9.51,0,0,1,60.61,73.56ZM53.47,34.05c.76-8.95,8.34-15.79,8.34-15.79a12.9,12.9,0,0,1,.54,6.06c-.66,4.61-3.69,9.38-8.88,14.09ZM34.19,79.89c-7.13-9.11-1.06-22.16,9.11-27,2.27-1.09,4.79-2.43,7.32-4,.11,4.06.18,8.41.2,12.82A15.34,15.34,0,0,0,45,64.42c-.07,0-7.3,5.25-2.45,12.65a6.45,6.45,0,0,0,5.22,2.06s-4.89-2.26-3.55-8.5c.6-2.78,3.44-4.39,6.61-4.48,0,6.49-.08,12.88-.18,18.4C44.69,85.59,37.69,84.36,34.19,79.89Z" transform="translate(-5.08 -4.78)"/>
    <g>
      <path d="M257.84,102.27c-26.44,0-57-4.45-91-14.88-51.11-15.66-92.2-13-117.67-8C21.59,84.86,5.91,94.08,5.76,94.18l-.55-.92c.16-.09,16-9.41,43.74-14.88,25.6-5,66.88-7.73,118.19,8,97.68,29.94,166.46,10.52,191.31-22l.85.65C342.92,86.45,307.68,102.27,257.84,102.27Z" transform="translate(-5.08 -4.78)"/>
      <path d="M5.8,93l-.63-.86C5.32,92,21.16,80.58,48.92,73c25.6-7,66.89-12,118.22,3.75C212,90.53,254.8,94.08,290.84,87c29.79-5.82,54.43-19.06,67.61-36.31l.85.65C346,68.82,321.09,82.2,291.05,88.08c-36.21,7.08-79.17,3.52-124.22-10.28C115.77,62.15,74.7,67.12,49.25,74,21.66,81.54,6,92.89,5.8,93Z" transform="translate(-5.08 -4.78)"/>
      <path d="M5.83,91.25l-.69-.8c.15-.14,16-13.57,43.74-23.08,25.61-8.77,66.91-15.92,118.26-.19,44.44,13.62,87.21,16.35,123.69,7.88,29.4-6.83,54.05-20.93,67.62-38.69l.85.65C345.58,55,320.71,69.22,291.07,76.1c-36.66,8.51-79.62,5.78-124.24-7.9-51.08-15.65-92.14-8.54-117.6.18C21.66,77.83,6,91.12,5.83,91.25Z" transform="translate(-5.08 -4.78)"/>
      <path d="M5.86,89.61l-.75-.76c.15-.15,16-15.58,43.74-27.07,25.62-10.6,66.93-19.93,118.29-4.19,44,13.47,86.71,15.12,123.66,4.78,28.87-8.07,53.53-23.31,67.65-41.79l.85.64c-14.26,18.67-39.12,34-68.21,42.18C253.94,73.79,211,72.14,166.83,58.61,115.79,43,74.75,52.23,49.3,62.75,21.72,74.15,6,89.46,5.86,89.61Z" transform="translate(-5.08 -4.78)"/>
      <path d="M5.88,88.41l-.8-.71c.16-.17,16-17.72,43.74-31.29C74.44,43.88,115.76,32.25,167.14,48c43.53,13.34,86.28,13.92,123.64,1.69,27.86-9.13,53.16-25.91,67.67-44.91l.85.65c-14.64,19.16-40.13,36.08-68.19,45.27C253.54,63,210.57,62.42,166.83,49c-51.05-15.65-92.09-4.1-117.54,8.35C21.72,70.85,6,88.24,5.88,88.41Z" transform="translate(-5.08 -4.78)"/>
    </g>
    <g>
      <path d="M102.81,47.61c1,2-.5,4.8-3.43,6.36s-6.15,1.25-7.19-.7.5-4.79,3.43-6.35S101.77,45.66,102.81,47.61Z" transform="translate(-5.08 -4.78)"/>
      <rect x="96.96" y="16.66" width="1.08" height="27.61"/>
    </g>
    <path d="M149.7,58.42c-3.47,0-6.29,1.86-6.29,4.17s2.81,4.18,6.28,4.19S156,64.92,156,62.61,153.18,58.43,149.7,58.42ZM154,63.78c-.38,1.38-2.61,2-5,1.33s-4-2.3-3.61-3.69,2.61-2,5-1.34S154.37,62.39,154,63.78Z" transform="translate(-5.08 -4.78)"/>
    <path d="M196.52,41.8a9.17,9.17,0,0,1-3-2.43,4.85,4.85,0,0,1-.93-1.84h-.59V65.42c-1.58-1.23-4.44-1.21-7.1.21-3.23,1.72-4.92,4.86-3.78,7s4.7,2.5,7.93.77c2.51-1.33,4.08-3.51,4.14-5.42h0V42.1c1.41,1.79,4.86,2.75,6,4.75s.46,5.25.46,5.25C202.42,45.6,199.5,43.48,196.52,41.8Z" transform="translate(-5.08 -4.78)"/>
  </g>
</svg>
