<svg id="Capa_1" data-name="Capa 1" xmlns="http://www.w3.org/2000/svg" xmlns:xlink="http://www.w3.org/1999/xlink" width="1089.68" height="328.06" viewBox="0 0 1089.68 328.06">
  <defs>
    <style>
      .cls-1, .cls-3, .cls-4, .cls-5 {
        fill: none;
      }

      .cls-2 {
        clip-path: url(#clip-path);
      }

      .cls-3, .cls-4, .cls-5 {
        stroke: #000;
        stroke-miterlimit: 10;
      }

      .cls-3 {
        stroke-width: 5px;
      }

      .cls-4 {
        stroke-width: 6px;
      }

      .cls-5 {
        stroke-width: 7px;
      }

      .cls-6 {
        font-size: 48px;
      }

      .cls-10, .cls-11, .cls-12, .cls-13, .cls-14, .cls-15, .cls-16, .cls-17, .cls-18, .cls-6, .cls-7, .cls-8, .cls-9 {
        font-family: Water-Galon, Water Galon;
      }

      .cls-7 {
        font-size: 48px;
      }

      .cls-8 {
        font-size: 48px;
      }

      .cls-9 {
        font-size: 48px;
      }

      .cls-10 {
        font-size: 48px;
      }

      .cls-11 {
        font-size: 48px;
      }

      .cls-12 {
        font-size: 48px;
      }

      .cls-13 {
        font-size: 48px;
      }

      .cls-14 {
        font-size: 48px;
      }

      .cls-15 {
        font-size: 48px;
      }

      .cls-16 {
        font-size: 48px;
      }

      .cls-17 {
        font-size: 48px;
      }

      .cls-18 {
        font-size: 48px;
      }
    </style>
    <clipPath id="clip-path" transform="translate(-165.25 -223.89)">
      <rect class="cls-1" width="1366" height="768"/>
    </clipPath>
  </defs>
  <title>guitarra</title>
  <g class="cls-2">
    <path d="M386,403c2.23,13.59-8.93,24.8-19.12,32.06-21.72,15.07-53.64,14.1-73.42-4a57.58,57.58,0,0,1-17.64-29.86c-4.81-21.6,3.76-45.57,21.76-58.75,22.05-15.76,54.41-11.13,76.6,1.93,27.79,16.86,40.94,48.19,56.56,74.69,15.05,26.79,33.3,52,57,71.76,17.45,14.68,35.05,30.19,57.17,35.67,36.75,8.92,76-2.83,106.2-24.74,39.54-28.32,65.43-76.49,61.06-125.39-1.1-17.48-7.2-34.6-16.21-49.6-11.4-19.06-28.38-34.62-46.79-47-48.31-34-106.79-28.47-152.79,6.72a164.92,164.92,0,0,0-12.59,10.85c-2.14,1.88-3.53,4.34-6.38,5.36a14.7,14.7,0,0,1-5.83.45A39.88,39.88,0,0,1,462,301c-3.31-5.83-4.85-10.23-3.51-15.51,1-3.31,4-5.23,6.25-7.7a187.82,187.82,0,0,1,14.88-12.92c31.34-24.24,71.19-38.4,111.11-35.21,26.57,2,52.53,12.15,74.08,27.39,10.45,7.35,21.09,15.34,30,24.52,21.26,21,36.84,48.33,42.4,77.94a160.52,160.52,0,0,1-19.47,105.17c-35.2,61.62-113.17,103.51-183.47,81.2-21.75-7.11-39.78-22.46-56.11-37-26.26-22.23-47-51.48-62.56-81.36-16.47-29.32-29.49-66.27-64-77.33-10.56-3.52-21.94-4.9-32.3-2.88-27.22,4.75-41.07,39.45-28.33,63,12.66,26.22,47.35,33.12,71.08,17.57a49.22,49.22,0,0,0,12.3-11.22c3.65-4.79,7-9.48,11.63-13.58" transform="translate(-165.25 -223.89)"/>
    <path d="M518,373.1c2.33-36,46.46-52.08,76.82-39.56a58.55,58.55,0,0,1,35.38,41.3c4.89,22.13-3.89,46.58-22.33,60.06-17.16,12.37-40.06,12.11-59.43,6.23-39.59-11.21-56.86-50.86-75.4-83.37-12.88-22.91-27.84-44.89-46.93-63-4.14-4-8.63-7.9-13.06-11.62-15.34-12.91-30.66-25.94-49.52-31.67-59.72-17.05-125.2,20.53-154.11,72.87A133.52,133.52,0,0,0,193.12,404c3.91,35.62,26.74,66.75,55.58,87.09,20.15,15.12,42.29,25.25,67.58,27.16,32.72,2.49,65.48-9.58,91.2-29.61,2.12-1.75,4.31-3.41,6.34-5.26s4-3.77,6.38-5.22a40,40,0,0,1,8.12-3.68l2.22-.84a5.79,5.79,0,0,1,3.57-.41,43.36,43.36,0,0,1,8.6,2.1,22.15,22.15,0,0,1,2.45,5c.57,1.86,1.56,3.88,1.29,5.82-.48,1.79-.75,2.25-1.23,3.8a32.8,32.8,0,0,1-4.51,9.37c-4.11,5.25-9.64,9.11-14.75,13.3-31.69,24.21-71.88,38.24-112,34.8-30-2.37-58.44-15.12-82-33.25-32.28-23.2-57.42-57.68-64.71-97.29-.61-5-1.42-10-1.62-15-.1-1.68-.3-5.8-.38-7.43s.1-5.8.1-7.45c1.65-79.73,67.9-150.36,146-161.65,19.59-2.76,40.29-1.75,59.21,4.56,18.76,6.12,35,18.25,49.52,31,9.34,8.1,19,16.56,27.34,25.71,17.3,18.59,31,40.12,42.57,61.74,11.37,20.44,20.92,42.9,36.61,59.68,16.53,18.14,51.08,28.26,72.29,14.17,13.75-9.54,20.75-28.09,17.47-44.47a45.2,45.2,0,0,0-13.22-23.63c-11.48-11.09-29.42-14.85-44.88-10.8-10.67,2.76-19.92,8.82-27.79,16.58a100.4,100.4,0,0,0-8.39,10c-.84,1.24-1.72,2.48-2.68,3.74Z" transform="translate(-165.25 -223.89)"/>
  </g>
  <g class="cls-2">
    <path class="cls-3" d="M1212.51,348.33c-2.41,8.8,13.43,11.05,12.39,1.31C1224,341,1214.14,342.38,1212.51,348.33Z" transform="translate(-165.25 -223.89)"/>
    <path class="cls-3" d="M1218.37,389.42c-8,.29-8.3,12.87-.65,13.7,4.73.5,7.67-2.59,7.18-7.18C1224.44,391.7,1222.24,389.28,1218.37,389.42Z" transform="translate(-165.25 -223.89)"/>
    <path class="cls-3" d="M1219.68,414.5h-3.91c1.79,7.67-4.82,6.92-3.26,14.35,4.18,3.24,9.14,3.86,13,0C1227,420.59,1218.28,420.78,1219.68,414.5Z" transform="translate(-165.25 -223.89)"/>
    <path class="cls-3" d="M1218.37,316.89c-2.18,1.08-4.34,2.18-6.52,3.26-1.08,7,5,8.71,3.26,14.35h4.57a9.64,9.64,0,0,1,0-5.22C1226.77,327.87,1226,316.85,1218.37,316.89Z" transform="translate(-165.25 -223.89)"/>
    <path class="cls-3" d="M1178.59,350.94c-1,8.41,15.13,10.89,13.05,0C1190,342.3,1179.2,345.7,1178.59,350.94Z" transform="translate(-165.25 -223.89)"/>
    <path class="cls-3" d="M1178.59,396.59c-.28,8.41,14,8.64,13.05,0C1190.63,387,1178.83,389.65,1178.59,396.59Z" transform="translate(-165.25 -223.89)"/>
    <path class="cls-3" d="M1186.42,414.5h-3.91c1.79,7.67-4.82,6.92-3.26,14.35,4.18,3.24,9.14,3.86,13,0C1194,420.51,1184.78,420.74,1186.42,414.5Z" transform="translate(-165.25 -223.89)"/>
    <path class="cls-3" d="M1185.77,330.28c7.09-1.23,6.45-12.58-1.31-12.39l-6.52,3.26c-1.55,7.43,5.06,6.69,3.26,14.35h3.92C1185.92,333.33,1185.08,333.46,1185.77,330.28Z" transform="translate(-165.25 -223.89)"/>
    <path class="cls-3" d="M1179.25,359.42c-9.23-.25-23.85,2.52-37.18,3.92-5.84.61-13,.71-18.91,1.3-4.87.49-16.06-1-14.34,6.52,22.81-2.4,49.45-6.62,73-10.43C1181.64,359.78,1180,359.44,1179.25,359.42Z" transform="translate(-165.25 -223.89)"/>
    <path class="cls-3" d="M1152.51,391.38c-9.13-2.53-10.9,9.63-4.56,12.39a6.34,6.34,0,0,0,9.13-6.52C1156.59,392.93,1154,391.78,1152.51,391.38Z" transform="translate(-165.25 -223.89)"/>
    <path class="cls-3" d="M1155.77,328.67c1.9-4.38-.68-9-5.87-9.78l-6.52,3.26c-1.56,7.43,5,6.69,3.26,14.35h3.91C1150.42,333.19,1151.89,329.68,1155.77,328.67Z" transform="translate(-165.25 -223.89)"/>
    <path class="cls-3" d="M1150.55,345.73c-9.56-1.05-10.19,14.83,0,13.69,4.13-.46,5.52-4.46,5.22-7.17C1155.21,347.16,1151.84,345.87,1150.55,345.73Z" transform="translate(-165.25 -223.89)"/>
    <path class="cls-3" d="M1150.55,414.5h-3.91c1.85,5.9-4.18,8-3.26,15,4.18,3.24,9.14,3.86,13,0C1157.84,420.87,1148.88,421.51,1150.55,414.5Z" transform="translate(-165.25 -223.89)"/>
    <path class="cls-3" d="M1108.5,357.47v7.17c12.12-1.36,25.08-1.88,36.52-3.91C1137,355.45,1121,358.19,1108.5,357.47Z" transform="translate(-165.25 -223.89)"/>
    <path class="cls-3" d="M1143.45,389.42c-7.36-.19-15.32-.31-22.82-.65-4.14-.19-10.16-2.41-12.56.86l1.58,3.15c10.5.69,24.72.3,34.46-1.4.15-.94,1.07-1.1,1.3-2Z" transform="translate(-165.25 -223.89)"/>
    <path class="cls-3" d="M1082.08,355.51c-1.48,0-15.68-.12-6.52.65,7.06.59,14.85-.41,27.39,0,.51-.14.76-.55.65-1.3C1095.37,355.54,1090.67,355.46,1082.08,355.51Z" transform="translate(-165.25 -223.89)"/>
    <path class="cls-3" d="M1103.5,358.5h-31.73c-.13,3.74-.07,2.06-.2,5.8,11.51.69,20.85-.83,31.93-.58Z" transform="translate(-165.25 -223.89)"/>
    <path class="cls-3" d="M1103.5,364.5h-34.17c-.16,4.93-.09,2.72-.25,7.64,12.37.76,23-.25,34.42-.46Z" transform="translate(-165.25 -223.89)"/>
    <path class="cls-3" d="M1102.09,380.94c-10.9-.48-20.06.78-30.59.66v5.86c10.09-.61,21.11-.29,30.78-1.32C1102.16,382.92,1102.21,384.17,1102.09,380.94Z" transform="translate(-165.25 -223.89)"/>
    <path class="cls-3" d="M1102.4,388.11c-10.44-.22-19.27,1.16-30,.66-1.21,1.4-.44,4.77-.65,7.17,10.28-.45,21.15-.31,30.87-1.33C1102.49,390.54,1102.54,392.18,1102.4,388.11Z" transform="translate(-165.25 -223.89)"/>
    <path class="cls-3" d="M1102.5,398.31l-1.7-1.57c-6.55.56-14.81.09-21.78.67-2.59.22-8.19-1.44-7.17,3.26,9.21,1.38,21.21-.09,30.65-.65Z" transform="translate(-165.25 -223.89)"/>
    <path class="cls-3" d="M1044.91,355.51c-2.05.05-5.7-1.13-6.52,1.3,9.59,0,23.19.23,28.69-1.3C1060,355.63,1051.39,355.35,1044.91,355.51Z" transform="translate(-165.25 -223.89)"/>
    <path class="cls-3" d="M1067.08,365.29c-7.06.88-19.4.64-29.35.65.24,2.59-.59,6.25.66,7.83,10.42.43,18.88-1.12,29.34-.65C1067.49,370.53,1068.33,366.87,1067.08,365.29Z" transform="translate(-165.25 -223.89)"/>
    <path class="cls-3" d="M1067.5,375c-10.64.45-23.22-1-32.29,1l.86,5.1c9.55-1.19,20.8-.66,31.43-.76Z" transform="translate(-165.25 -223.89)"/>
    <path class="cls-3" d="M1037.41,382.25c-.34,2.48-1.13,3.92,0,6.52,9.36-1.18,20.7-.39,30.29-1.34-.19-3.71-.11-2.12-.3-5.84C1057.22,381.62,1048.07,382.69,1037.41,382.25Z" transform="translate(-165.25 -223.89)"/>
    <path class="cls-3" d="M1067.5,389.42c-10.72-.51-19.48.95-30,.65-1.21,1.4-.44,4.78-.65,7.18,10.07-.5,23-.42,30.65-1.31Z" transform="translate(-165.25 -223.89)"/>
    <path class="cls-3" d="M1067.5,398.22l-.21-.19c-6.63.87-16.52.1-23.92.84-2.65.26-7.31-1.09-6.52,3.26,5.58.63,14.06.16,20.87,0,3.72-.09,8.09.88,9.78-2Z" transform="translate(-165.25 -223.89)"/>
    <path class="cls-3" d="M1003.17,355.5c.81,2.45,4.41,1.25,6.52,1.31,8,.22,16.22-.17,23.48,0,.51-.15.76-.55.65-1.31Z" transform="translate(-165.25 -223.89)"/>
    <path class="cls-3" d="M1033.84,358.5H1003.5V365c10.11-.39,21.83.83,30.83-.68C1034,360.75,1034.14,362.09,1033.84,358.5Z" transform="translate(-165.25 -223.89)"/>
    <path class="cls-3" d="M1034.15,365.94c-9.84.32-24-.7-30.65.65v7.83c9.08-1.14,20-.48,30-.65C1034.75,372.19,1033.91,368.53,1034.15,365.94Z" transform="translate(-165.25 -223.89)"/>
    <path class="cls-3" d="M998.4,381.5c12.58.72,22.66-1.08,35.1-.51v-6c-10.81,1.08-23.26.53-35,.71C998.44,379.44,998.48,377.77,998.4,381.5Z" transform="translate(-165.25 -223.89)"/>
    <path class="cls-3" d="M1002.8,389.49c11,.52,20-.9,30.7-.66v-6.66c-9.44,1.42-22-.31-31.16,1.43C1002.61,387.09,1002.53,386,1002.8,389.49Z" transform="translate(-165.25 -223.89)"/>
    <path class="cls-3" d="M1032.59,390.07c-12,1.42-26.8.06-37.81,2.49.85,4.33.48,2.44,1.32,6.77,11.36-1.72,25.18-1,37.14-2.08C1033,394.85,1033.8,391.47,1032.59,390.07Z" transform="translate(-165.25 -223.89)"/>
    <path class="cls-3" d="M1030.45,399.5c-6.5,0-14.18.37-20.87.65-1.79.08-6.69-1.42-6.52,2,1.15,2.43,5.28,1.24,7.83,1.3,5,.11,10.42-.4,13.69-.65,2.93-.22,7.12,1.34,7.92-1.59l-1.3-1.67Z" transform="translate(-165.25 -223.89)"/>
    <path class="cls-3" d="M973.17,356.16c4.79,1.46,18,.26,24.78.65.51-.14.76-.54.66-1.3C989.75,355.35,981.25,355.54,973.17,356.16Z" transform="translate(-165.25 -223.89)"/>
    <path class="cls-3" d="M972.41,358.77c.52,2.69-1,3.35-.65,5.87,5,.37,17.77-.25,26.74,0v-6.52C989.73,358.3,978.24,357.62,972.41,358.77Z" transform="translate(-165.25 -223.89)"/>
    <path class="cls-3" d="M975.17,366.5c-1.12,1.41-.37,4.69-.58,7H998.5v-7Z" transform="translate(-165.25 -223.89)"/>
    <path class="cls-3" d="M972.5,376.43v5.76c12.4.5,17.14-1.43,31.33-.37l.62-5.51C992.11,374.66,983.63,376.86,972.5,376.43Z" transform="translate(-165.25 -223.89)"/>
    <path class="cls-3" d="M998.5,383.61c-8.57.37-18.65-.77-26.19.63.43,4,.26,2.4.68,6.39,8.41-.3,16.49-.93,25.51-.62Z" transform="translate(-165.25 -223.89)"/>
    <path class="cls-3" d="M972.78,392c-1,1.49-1,6.33,0,7.82,8.16-1.15,18.35-.27,26.56-1.36-.3-4.47-.17-2.65-.48-7.11C990,391.39,982.14,392.48,972.78,392Z" transform="translate(-165.25 -223.89)"/>
    <path class="cls-3" d="M996.54,401.13c-4.74-.5-10,.4-15,.66-3.49.18-9.55-1.61-9.78,1.95,2.62,2.94,7.85.86,12.39.66,2.47-.12,5.19.07,7.83,0,2-.06,5.83,1.12,6.52-1.31v-2Z" transform="translate(-165.25 -223.89)"/>
    <path class="cls-3" d="M943.17,356.81c7.4-.37,20.34.79,24.13-.65C959.91,356.54,947,355.38,943.17,356.81Z" transform="translate(-165.25 -223.89)"/>
    <path class="cls-3" d="M941.5,358.5v6h26c1.19-.64.49-3.8.67-6Z" transform="translate(-165.25 -223.89)"/>
    <path class="cls-3" d="M943.5,367.31V375c8.7.15,17.06,0,25-.64v-7.7C960.19,366.81,948.88,366.22,943.5,367.31Z" transform="translate(-165.25 -223.89)"/>
    <path class="cls-3" d="M944.91,382.87c8.41.32,15.29-.9,23.59-.69v-5.72c-7.81.38-17.14-.74-24.1.5C944.7,380.5,944.6,379.33,944.91,382.87Z" transform="translate(-165.25 -223.89)"/>
    <path class="cls-3" d="M942.34,391.39c8.66.3,16.37-.36,24.44-.66,1.15-1.24.47-4.31.65-6.53-8.44.38-18.44-.81-25.73.71C942.08,388.72,942,387.58,942.34,391.39Z" transform="translate(-165.25 -223.89)"/>
    <path class="cls-3" d="M966.78,392.68c-8.8-.32-16.61.34-24.78.65,0,4.54,0,2.63-.09,7.17,9,.52,16.11-.91,24.87-.65A34.37,34.37,0,0,0,966.78,392.68Z" transform="translate(-165.25 -223.89)"/>
    <path class="cls-3" d="M964.54,401.81c-4.76.38-11.49-.5-16.3,0-2.13.22-6.54-.23-6.52,2.61a78.4,78.4,0,0,0,17.61.65c2.57-.2,6.67-.11,7.34-2.35l-1.29-1.5C965,401.27,964.6,401.39,964.54,401.81Z" transform="translate(-165.25 -223.89)"/>
    <path class="cls-3" d="M915.13,356.81c6.76-.37,19,.79,22.17-.65C930.54,356.54,918.31,355.38,915.13,356.81Z" transform="translate(-165.25 -223.89)"/>
    <path class="cls-3" d="M914.5,358.5V365c5.33.15,15.6-.1,23,0V358.5Z" transform="translate(-165.25 -223.89)"/>
    <path class="cls-3" d="M914.14,367.5c.27,2.78-.63,6.72.66,8.48,8-1.28,18.36-.27,27.13-.81-.17-4.94-.09-2.73-.27-7.67Z" transform="translate(-165.25 -223.89)"/>
    <path class="cls-3" d="M913.44,382.82c8.74.52,15.93-.52,24.06-.61v-5.87H913.66C913.52,380.52,913.58,378.64,913.44,382.82Z" transform="translate(-165.25 -223.89)"/>
    <path class="cls-3" d="M914.5,385.51v7.17c7.35-.47,14.76-.89,22.82-.65,1.21-1.4.44-4.78.66-7.18C930,385.05,919.56,384.34,914.5,385.51Z" transform="translate(-165.25 -223.89)"/>
    <path class="cls-3" d="M914.5,394.06v7.66c7.52-.35,14.83-.92,23-.63v-7.67C929.84,393.64,922.74,394.41,914.5,394.06Z" transform="translate(-165.25 -223.89)"/>
    <path class="cls-3" d="M937.5,402.59l-.15-.14c-4.88.45-12.45.43-18.11.79-1.54.1-5.81-1.22-5.22,2,1.12,3,4.85.74,7.83.65,2.64-.07,5.77.07,8.48,0s6.38,1.13,7.17-1.3Z" transform="translate(-165.25 -223.89)"/>
    <path class="cls-3" d="M909.91,356.16c-7.17.43-16.08-.86-22.17.65C892.54,356.54,904.09,357.57,909.91,356.16Z" transform="translate(-165.25 -223.89)"/>
    <rect class="cls-3" x="722.25" y="134.61" width="22" height="7"/>
    <path class="cls-3" d="M886.65,367.5c-1.36,1.87-.41,6.05-.69,9H909.5v-9Z" transform="translate(-165.25 -223.89)"/>
    <path class="cls-3" d="M887.33,377.68c.17,2.22-.51,5.29.65,6.52,7.81.42,14.22-.56,21.52-.65V377C901.44,376.58,894.94,377.68,887.33,377.68Z" transform="translate(-165.25 -223.89)"/>
    <path class="cls-3" d="M887.33,386.16c.21,2.4-.56,5.77.65,7.17,7.89.5,13.77-1,21.52-.65v-7.17C902.25,385.86,893.53,384.75,887.33,386.16Z" transform="translate(-165.25 -223.89)"/>
    <path class="cls-3" d="M887.33,395.29c-.37,3,1.15,4.06.65,7.17,7.81.42,14.22-.56,21.52-.65v-7.17C902.25,395,893.53,393.88,887.33,395.29Z" transform="translate(-165.25 -223.89)"/>
    <path class="cls-3" d="M909.5,403.77l-.29-.24c-3.66.8-10.16-.23-14.71.24-2.28.23-6.59-.21-6.52,2.61,3.43,1.66,8.73.29,13,0,3.07-.21,7,1.24,8.48-1.31Z" transform="translate(-165.25 -223.89)"/>
    <path class="cls-3" d="M883.18,367.5H861c.27,2.78-.63,6.72.66,8.48,8.11.5,14.33-.88,22.17-.65C883.59,372.74,884.43,369.08,883.18,367.5Z" transform="translate(-165.25 -223.89)"/>
    <path class="cls-3" d="M859.83,384.16c7.31,2.22,15.49-.57,23.67.1V377.6c-7.64.41-17-.87-23.47.7C859.92,381.39,859.93,381.06,859.83,384.16Z" transform="translate(-165.25 -223.89)"/>
    <path class="cls-3" d="M861.49,386.5c-1.25,1.58-.41,5.24-.65,7.83,8,.06,16.09.13,23.25-.7-.27-4.49-.16-2.64-.42-7.13Z" transform="translate(-165.25 -223.89)"/>
    <path class="cls-3" d="M861.66,395.94c-1.11,2.93-.47,5,0,7.83a200.08,200.08,0,0,1,21.52-.65c1.25-1.58.41-5.25.65-7.83C875.77,394.84,869.26,395.94,861.66,395.94Z" transform="translate(-165.25 -223.89)"/>
    <path class="cls-3" d="M881.54,404.5c-2.6-.56-6,.5-9.13.65-3.95.19-10.68-1.59-11.08,2a62.15,62.15,0,0,0,15.65.65c2.33-.2,6.13-.11,6.6-2.23l-.89-1Z" transform="translate(-165.25 -223.89)"/>
    <path class="cls-3" d="M862.31,357.47c6.53-.72,18.87,1.52,20.87-1.31C876.56,356.94,866.78,354.55,862.31,357.47Z" transform="translate(-165.25 -223.89)"/>
    <rect class="cls-3" x="696.25" y="134.61" width="22" height="7"/>
    <path class="cls-3" d="M857,367.5H837c-1.1,1.77-1.1,7.23,0,9H857C858.11,374.73,858.11,369.27,857,367.5Z" transform="translate(-165.25 -223.89)"/>
    <path class="cls-3" d="M855.91,377.68a149.6,149.6,0,0,1-20.39.63c-.22,4.59-.12,2.52-.35,7.11,7.84.52,13.53-1.11,21.4-.57C856.35,382.46,857.12,379.08,855.91,377.68Z" transform="translate(-165.25 -223.89)"/>
    <path class="cls-3" d="M837.53,386.5c.26,2.78-.63,6.72.65,8.48,4.94-1.36,12.27-.34,18.26-.65,1.25-1.58.41-5.24.65-7.83Z" transform="translate(-165.25 -223.89)"/>
    <path class="cls-3" d="M838.59,396.59c-1,1.5-1,6.33,0,7.83,7,.5,12-1,18.91-.65v-7.83C850.87,395.83,845.59,397.08,838.59,396.59Z" transform="translate(-165.25 -223.89)"/>
    <path class="cls-3" d="M838.59,407.68c2.14,1.13,6.27.69,9.78.65s8,1.11,9.16-1.37l-.85-1.14C850.27,406.4,839.89,403.87,838.59,407.68Z" transform="translate(-165.25 -223.89)"/>
    <path class="cls-3" d="M837.53,357.47c5.44-.38,16.46.79,18.26-.66C850.35,357.19,839.32,356,837.53,357.47Z" transform="translate(-165.25 -223.89)"/>
    <path class="cls-3" d="M836.39,358.5c.25,2.58-.59,6.25.66,7.82,6.56-.24,14.27.67,19.59-.82-.58-4.09-.41-2.91-1-7Z" transform="translate(-165.25 -223.89)"/>
    <path class="cls-3" d="M833,387.46c-3.76-.27-12.4.2-18.26,0,.27,2.78-.63,6.72.65,8.48a126.47,126.47,0,0,1,17.61-.65C834.33,392.91,833.34,388.53,833,387.46Z" transform="translate(-165.25 -223.89)"/>
    <path class="cls-3" d="M833,396.59a126.35,126.35,0,0,1-17.61.66c-1,1.49-1,6.33,0,7.82,6.2-.11,13,.41,18.27-.65C833.37,401.84,834.21,398.17,833,396.59Z" transform="translate(-165.25 -223.89)"/>
    <path class="cls-3" d="M834.5,406.37l-.35-.25c-2.49.7-7.13-.06-10.74.25-2.54.23-7.12-.23-7.17,2.61,1.68.44,5.53.13,9.13,0,3.44-.12,8,1.15,9.13-1.3Z" transform="translate(-165.25 -223.89)"/>
    <path class="cls-3" d="M832.31,359.33c-4.57-1.52-11.95-.22-17.61-.65-1.25,1.57-.41,5.24-.65,7.82h18.26C833.32,365.17,833.32,360.66,832.31,359.33Z" transform="translate(-165.25 -223.89)"/>
    <path class="cls-3" d="M832.63,368.55c-5.28-1.29-12.08.75-18.92,0,.27,2.78-.63,6.72.66,8.48,6.1-.11,12.82.39,18-.61C832.52,372.17,832.51,372.8,832.63,368.55Z" transform="translate(-165.25 -223.89)"/>
    <path class="cls-3" d="M814.24,377.5c.24,2.58-.6,6.25.65,7.82,3.82-.87,11.14-.63,17.61-.65V377.5Z" transform="translate(-165.25 -223.89)"/>
    <path class="cls-3" d="M814.7,357.47c5-.39,15.57.79,17-.66C826.65,357.2,816.09,356,814.7,357.47Z" transform="translate(-165.25 -223.89)"/>
    <path class="cls-3" d="M808.83,387.46c-5.84-.19-10.15,1.16-16.3.66.26,2.77-.63,6.71.65,8.47,6,.14,10.6-1.14,17-.65C811,394.09,811.85,387.52,808.83,387.46Z" transform="translate(-165.25 -223.89)"/>
    <path class="cls-3" d="M793.18,397.9c-1.24,1.87-.72,6.5,0,8.48,4.54-1.34,11.39-.35,17-.66,1.25-1.57.41-5.24.65-7.82C807.17,397.66,798.87,398.07,793.18,397.9Z" transform="translate(-165.25 -223.89)"/>
    <path class="cls-3" d="M808.54,407.5c-2.21-.46-5.14.42-7.82.65s-7.74-1.59-7.83,2c1.12,1.26,3,.11,5.22,0,4.22-.21,10.85,1.26,12.49-1.46l-.71-1.15Z" transform="translate(-165.25 -223.89)"/>
    <path class="cls-3" d="M809.49,358.77c-6.32-.44-11.12.63-17,.65.24,2.59-.6,6.25.65,7.83,4.87-1,11.16-.58,17-.66C809.9,364,810.74,360.35,809.49,358.77Z" transform="translate(-165.25 -223.89)"/>
    <rect class="cls-3" x="628.25" y="144.61" width="17" height="9"/>
    <path class="cls-3" d="M793.5,379.33v7.17h17v-7.17C807,379.09,799,379.49,793.5,379.33Z" transform="translate(-165.25 -223.89)"/>
    <path class="cls-3" d="M793.18,357.47c4.63-.39,14.27.79,15.65-.66C804.21,357.2,794.57,356,793.18,357.47Z" transform="translate(-165.25 -223.89)"/>
    <path class="cls-3" d="M789.6,360.5H771.5v5.88L789.91,368C790.2,365.85,789.71,364.84,789.6,360.5Z" transform="translate(-165.25 -223.89)"/>
    <path class="cls-3" d="M788,369.5H772.31c-1,1.85-1,7.29,0,9.13a101.78,101.78,0,0,0,16.31-.65C788.35,375.2,789.25,371.26,788,369.5Z" transform="translate(-165.25 -223.89)"/>
    <path class="cls-3" d="M786.5,379.5h-14v7h14C787.42,385.16,787.42,380.84,786.5,379.5Z" transform="translate(-165.25 -223.89)"/>
    <path class="cls-3" d="M772.2,388.77c.26,2.78-.63,6.72.65,8.48,5.68.24,9.71-1.16,15.65-.66v-8.47A101.66,101.66,0,0,0,772.2,388.77Z" transform="translate(-165.25 -223.89)"/>
    <path class="cls-3" d="M772.85,398.21c-1,1.67-1,6.82,0,8.48,5.15-.28,9.88-1,15.65-.65v-7.82Z" transform="translate(-165.25 -223.89)"/>
    <path class="cls-3" d="M783.94,408.33c-4.05.36-10.56-1.73-11.09,2,1,.93,2.84.1,5.22,0,3.64-.16,9.58,1.23,10.51-1.51l-.87-1.24C786.58,407.52,785.43,408.2,783.94,408.33Z" transform="translate(-165.25 -223.89)"/>
    <path class="cls-3" d="M772.31,357.47c4.42-.38,13.83.79,15-.66C782.9,357.19,773.49,356,772.31,357.47Z" transform="translate(-165.25 -223.89)"/>
    <path class="cls-3" d="M767.75,389.42c-3.49-1.51-9.78-.22-14.35-.65.29,3-.66,7.18.65,9.13,4.91.12,8.43-1.14,13.7-.65C768.77,395.75,768.77,390.91,767.75,389.42Z" transform="translate(-165.25 -223.89)"/>
    <path class="cls-3" d="M754.15,399.67c-1,1.67-1,6.81,0,8.48,5.06.05,8.88-1.12,14.35-.65v-7.83Z" transform="translate(-165.25 -223.89)"/>
    <path class="cls-3" d="M766.54,409c-3.75,1-11.79-2.22-12.39,2,2.41.22,9.83-.16,14.35,0v-2C767.57,408.73,767.4,408.2,766.54,409Z" transform="translate(-165.25 -223.89)"/>
    <path class="cls-3" d="M766.85,358.5H752.5v7.82c4.85-.37,11.22.79,15-.65C767.58,361.55,767.05,361.64,766.85,358.5Z" transform="translate(-165.25 -223.89)"/>
    <rect class="cls-3" x="587.25" y="144.61" width="15" height="9"/>
    <path class="cls-3" d="M767.58,379c-4,.8-8.87.7-13.7.65-.26,5-.15,2.81-.4,7.79,5.68.56,9.16-1.08,14.75-.62C768,384.23,768.83,380.56,767.58,379Z" transform="translate(-165.25 -223.89)"/>
    <path class="cls-3" d="M753.4,357.47c3.78-.37,12.5.77,13-.66C762.67,357.18,754,356,753.4,357.47Z" transform="translate(-165.25 -223.89)"/>
    <path class="cls-3" d="M748.84,389.42c-2.68-.33-9.65.23-14.35,0,.28,3-.66,7.18.65,9.13a80,80,0,0,1,13.7-.65C749.87,396.23,749.87,391.09,748.84,389.42Z" transform="translate(-165.25 -223.89)"/>
    <path class="cls-3" d="M735.15,399.85c-1.23,1.88-.72,6.51,0,8.48,5.23.22,8.84-1.16,14.35-.65v-7.83C746.47,399.45,740.1,400.12,735.15,399.85Z" transform="translate(-165.25 -223.89)"/>
    <path class="cls-3" d="M735.15,410.94c3.49,1.51,9.78.22,14.35.65v-1.95C745.08,410.44,737.42,408,735.15,410.94Z" transform="translate(-165.25 -223.89)"/>
    <path class="cls-3" d="M748.18,358.5H733.84c.26,2.78-.63,6.72.65,8.48,4.63-.37,9-1,14.35-.65C749.28,363.06,748.23,361.28,748.18,358.5Z" transform="translate(-165.25 -223.89)"/>
    <path class="cls-3" d="M734.5,369.05a33.12,33.12,0,0,0,.65,9.13c5.5.5,9-1,14.35-.65v-8.48Z" transform="translate(-165.25 -223.89)"/>
    <rect class="cls-3" x="569.25" y="155.61" width="15" height="7"/>
    <path class="cls-3" d="M743,357.47c1.23-.14,6.44.44,4.56-.66C746.3,357,741.09,356.37,743,357.47Z" transform="translate(-165.25 -223.89)"/>
    <path class="cls-3" d="M730.07,389.36c-.29,2.94-.64,6-1.08,9.14h1.48c1-1.84,1-7.29,0-9.13Z" transform="translate(-165.25 -223.89)"/>
    <path class="cls-3" d="M728.6,400.48c-.41,2.58-.9,5.18-1.49,7.77a23.09,23.09,0,0,1,3.39.08v-7.82Z" transform="translate(-165.25 -223.89)"/>
    <path class="cls-3" d="M726.59,410.38c-.15.62-.31,1.23-.48,1.84a32,32,0,0,1,4.39,0v-1.95A15.59,15.59,0,0,1,726.59,410.38Z" transform="translate(-165.25 -223.89)"/>
    <path class="cls-3" d="M730.37,386.42c-.06.68-.13,1.38-.2,2.08h.38c.13-4.64.1-3.58.18-6.46Q730.57,384.25,730.37,386.42Z" transform="translate(-165.25 -223.89)"/>
    <path class="cls-3" d="M549.15,435.12l-2.49.29-.56,2.35c1,.63,2,1.22,3,1.77l.09-4.36Z" transform="translate(-165.25 -223.89)"/>
    <path class="cls-4" d="M1247.07,407.68c-28.83,1-61.31.61-92,2-9.36.41-20.32,2-28,.65-3.26-.59-7.45-3.28-11.09-5.22-3-1.61-9.31-3.42-7.83-8.48,1.75-2.59,5.5-1.8,8.48-1.95,7.92-.41,17.38-.41,25.43-.66-6.62,16.09,26.81,19.07,15.66-3.91,5.57,1.17,13.57-.09,18.91,1.31,2,.41.07,2.66,0,3.91-.16,2.86,0,5.07,1.3,7.17,2.71,4.45,14.22,5.54,16.31-1.95,1.29-4.64-.9-11.19-5.22-12.4-3.6-1-6.88,1-10.44,1.31-14.83,1.25-38.64-1.84-56.08-2.61-2.51-.11-7.17.58-9.78,0-1.7-.38-5.81.17-4.57-4.56.72-3.06,3.56-.72,5.22-.66,31.73,1.19,65.6,5.5,97.82,7.18,3,.15-1.4,1.94-.65,3.91-6.49,14.7,20.61,18.11,17,.65-1.29-6.13-7.9-5.52-15.66-5.87-23.67-1-52.43-4.58-78.25-6.52-9-.67-17.74-.11-25.44-2.6-.47-2,.67-2.38.66-3.92,2.59-2.83,7.73-2,12.39-2.61,20.65-2.82,43.68-6.61,65.21-9.78,8.94-1.31,18.17-3.67,26.09-3.91,3.57-.11,8.57,1.38,11.74-.65s4.14-6.57,3.26-10.44c-3.09-13.51-26.32-2.46-15.66,9.13-5.46,1.93-12.69,2.1-18.91,3.26-3-.15,1.41-1.94.65-3.91,6.92-17.45-25.34-16-15.65,2.61-7.32.28-14,1.26-20.87,1.95-3-.15,1.41-1.94.66-3.91,6.79-15.48-22.07-17.32-17,0-11.61.15-22-.07-31.3-.65,1.82-2.9,5.65-4.29,9.13-6.52,3-1.94,6.28-5.2,9.13-5.87,37-.64,81.26-3.75,118.69-4.57C1251.88,358,1255.18,389.53,1247.07,407.68Z" transform="translate(-165.25 -223.89)"/>
    <path class="cls-3" d="M1224.9,349.64c1,9.74-14.8,7.49-12.39-1.3C1214.14,342.38,1224,341,1224.9,349.64Z" transform="translate(-165.25 -223.89)"/>
    <path class="cls-3" d="M1224.9,395.94c.49,4.59-2.45,7.68-7.18,7.18-7.65-.83-7.33-13.41.66-13.7C1222.24,389.28,1224.44,391.7,1224.9,395.94Z" transform="translate(-165.25 -223.89)"/>
    <path class="cls-3" d="M1225.55,428.85c-3.9,3.86-8.86,3.24-13,0-1.56-7.43,5-6.69,3.26-14.35h3.91C1218.28,420.78,1227,420.59,1225.55,428.85Z" transform="translate(-165.25 -223.89)"/>
    <path class="cls-3" d="M1191.64,350.94c2.08,10.89-14,8.41-13.05,0C1179.2,345.7,1190,342.3,1191.64,350.94Z" transform="translate(-165.25 -223.89)"/>
    <path class="cls-3" d="M1191.64,396.59c.91,8.64-13.33,8.41-13.05,0C1178.83,389.65,1190.63,387,1191.64,396.59Z" transform="translate(-165.25 -223.89)"/>
    <path class="cls-3" d="M1192.29,428.85c-3.9,3.86-8.86,3.24-13,0-1.56-7.43,5-6.69,3.26-14.35h3.91C1184.78,420.74,1194,420.51,1192.29,428.85Z" transform="translate(-165.25 -223.89)"/>
    <path class="cls-3" d="M1185.12,335.5h-3.92c1.8-7.66-4.81-6.92-3.26-14.35l6.52-3.26c7.76-.19,8.4,11.16,1.31,12.39C1185.08,333.46,1185.91,333.33,1185.12,335.5Z" transform="translate(-165.25 -223.89)"/>
    <path class="cls-3" d="M1181.86,360.73c-23.59,3.8-50.23,8-73,10.43-1.71-7.48,9.47-6,14.34-6.52,5.93-.59,13.07-.69,18.92-1.31C1150.65,362.84,1181,356.8,1181.86,360.73Z" transform="translate(-165.25 -223.89)"/>
    <path class="cls-3" d="M1157.07,397.25a6.34,6.34,0,0,1-9.13,6.52c-6.34-2.76-4.56-14.92,4.57-12.39C1154,391.78,1156.59,392.93,1157.07,397.25Z" transform="translate(-165.25 -223.89)"/>
    <path class="cls-3" d="M1150.55,336.5h-3.91c1.8-7.66-4.82-6.92-3.26-14.35l6.52-3.26c5.19.79,7.77,5.4,5.87,9.78C1151.89,329.68,1150.42,333.19,1150.55,336.5Z" transform="translate(-165.25 -223.89)"/>
    <path class="cls-3" d="M1155.77,352.25c.3,2.71-1.1,6.71-5.22,7.17-10.19,1.14-9.56-14.74,0-13.69C1151.84,345.87,1155.21,347.16,1155.77,352.25Z" transform="translate(-165.25 -223.89)"/>
    <path class="cls-3" d="M1156.42,429.5c-3.9,3.86-8.86,3.24-13,0-.92-7,5.11-9.1,3.26-15h3.91C1148.88,421.51,1157.84,420.87,1156.42,429.5Z" transform="translate(-165.25 -223.89)"/>
    <path class="cls-3" d="M1145,360.73c-11.44,2-24.4,2.55-36.52,3.91v-7.17C1121,358.19,1137,355.45,1145,360.73Z" transform="translate(-165.25 -223.89)"/>
    <path class="cls-3" d="M1145.41,389.42c-.23.86-1.15,1-1.3,2-9.74,1.7-24,2.09-34.45,1.4-.71-1.39-.89-1.75-1.59-3.15,2.4-3.27,8.42-1.05,12.56-.86,7.5.34,15.46.46,22.82.65Z" transform="translate(-165.25 -223.89)"/>
    <path class="cls-3" d="M1103.6,354.86c.1.76-.15,1.16-.65,1.3-12.54-.41-20.33.59-27.39,0-9.16-.77,5-.64,6.52-.65C1090.67,355.46,1095.37,355.54,1103.6,354.86Z" transform="translate(-165.25 -223.89)"/>
    <path class="cls-3" d="M1103.5,363.72c-11.08-.26-20.42,1.27-31.93.58.13-3.74.07-2.06.2-5.8h31.73Z" transform="translate(-165.25 -223.89)"/>
    <path class="cls-3" d="M1103.5,371.67c-11.42.22-22.06,1.23-34.43.47.16-4.93.09-2.71.25-7.64h34.18Z" transform="translate(-165.25 -223.89)"/>
    <path class="cls-3" d="M1102.28,386.14c-9.67,1-20.69.71-30.78,1.32V381.6c10.53.12,19.69-1.14,30.59-.65C1102.21,384.17,1102.16,382.92,1102.28,386.14Z" transform="translate(-165.25 -223.89)"/>
    <path class="cls-3" d="M1102.63,394.61c-9.72,1-20.59.88-30.87,1.33.21-2.39-.56-5.77.65-7.17,10.72.5,19.55-.88,30-.65C1102.54,392.18,1102.49,390.55,1102.63,394.61Z" transform="translate(-165.25 -223.89)"/>
    <path class="cls-3" d="M1102.5,398.31V400c-9.44.56-21.44,2-30.65.65-1-4.7,4.58-3,7.17-3.26,7-.58,15.23-.11,21.78-.67Z" transform="translate(-165.25 -223.89)"/>
    <path class="cls-3" d="M1067.08,355.51c-5.5,1.53-19.09,1.32-28.69,1.3.82-2.43,4.47-1.25,6.52-1.3C1051.39,355.35,1060,355.63,1067.08,355.51Z" transform="translate(-165.25 -223.89)"/>
    <path class="cls-3" d="M1067.73,373.12c-10.46-.47-18.92,1.08-29.34.65-1.25-1.58-.42-5.24-.66-7.83,10,0,22.29.23,29.35-.65C1068.33,366.87,1067.49,370.53,1067.73,373.12Z" transform="translate(-165.25 -223.89)"/>
    <path class="cls-3" d="M1067.5,380.35c-10.62.1-21.88-.43-31.42.76-.56-3.27-.31-1.83-.86-5.1,9.06-2,21.64-.54,32.28-1Z" transform="translate(-165.25 -223.89)"/>
    <path class="cls-3" d="M1067.7,387.43c-9.59.95-20.93.16-30.29,1.34-1.13-2.6-.33-4,0-6.52,10.66.44,19.81-.63,30-.66C1067.59,385.31,1067.51,383.72,1067.7,387.43Z" transform="translate(-165.25 -223.89)"/>
    <path class="cls-3" d="M1067.5,395.94c-7.64.89-20.58.81-30.65,1.31.21-2.4-.56-5.78.65-7.18,10.52.3,19.28-1.15,30-.65Z" transform="translate(-165.25 -223.89)"/>
    <path class="cls-3" d="M1067.5,398.21v2c-1.69,2.83-6.06,1.87-9.78,2-6.81.16-15.29.63-20.87,0-.79-4.35,3.87-3,6.52-3.26,6.77-.68,15.64-.09,22.17-.65Z" transform="translate(-165.25 -223.89)"/>
    <path class="cls-3" d="M1033.82,355.5c.11.76-.14,1.16-.65,1.31-7.26-.17-15.48.22-23.48,0-2.11-.06-5.71,1.14-6.52-1.31Z" transform="translate(-165.25 -223.89)"/>
    <path class="cls-3" d="M1034.33,364.34c-9,1.51-20.71.29-30.83.68V358.5h30.34C1034.14,362.09,1034,360.75,1034.33,364.34Z" transform="translate(-165.25 -223.89)"/>
    <path class="cls-3" d="M1033.5,373.77c-10,.17-20.93-.49-30,.65v-7.83c6.69-1.35,20.81-.33,30.65-.65C1033.91,368.53,1034.75,372.19,1033.5,373.77Z" transform="translate(-165.25 -223.89)"/>
    <path class="cls-3" d="M1033.5,375v6c-12.44-.57-22.51,1.23-35.09.51.08-3.73,0-2.06.12-5.79C1010.25,375.53,1022.69,376.08,1033.5,375Z" transform="translate(-165.25 -223.89)"/>
    <path class="cls-3" d="M1033.5,382.17v6.66c-10.69-.24-19.72,1.18-30.7.66-.27-3.5-.19-2.4-.46-5.89C1011.47,381.86,1024.06,383.59,1033.5,382.17Z" transform="translate(-165.25 -223.89)"/>
    <path class="cls-3" d="M1033.24,397.25c-12,1.11-25.76.36-37.11,2.07-.84-4.32-.48-2.44-1.32-6.76,11-2.43,25.78-1.07,37.78-2.49C1033.8,391.47,1033,394.85,1033.24,397.25Z" transform="translate(-165.25 -223.89)"/>
    <path class="cls-3" d="M1031.2,399.67l1.32,1.59c-.74,3-5,1.45-7.94,1.68-3.27.24-8.68.76-13.69.65-2.55-.06-6.68,1.12-7.83-1.31-.17-3.37,4.73-1.88,6.52-2C1016.55,400,1024.41,399.67,1031.2,399.67Z" transform="translate(-165.25 -223.89)"/>
    <path class="cls-3" d="M998.6,355.51c.11.76-.14,1.16-.65,1.3-6.8-.39-20,.81-24.78-.65C981.25,355.54,989.75,355.35,998.6,355.51Z" transform="translate(-165.25 -223.89)"/>
    <path class="cls-3" d="M998.5,358.12v6.52c-9-.25-21.71.37-26.74,0-.35-2.52,1.17-3.18.65-5.87C978.24,357.62,989.73,358.29,998.5,358.12Z" transform="translate(-165.25 -223.89)"/>
    <path class="cls-3" d="M998.5,366.5v7H974.59c.21-2.31-.54-5.59.58-7Z" transform="translate(-165.25 -223.89)"/>
    <path class="cls-3" d="M1003.83,381.82c-14.19-1.06-18.93.87-31.33.37v-5.77c11.13.45,19.61-1.76,31.94-.11C1004.05,379.86,1004.23,378.27,1003.83,381.82Z" transform="translate(-165.25 -223.89)"/>
    <path class="cls-3" d="M998.5,390c-9-.31-17.1.32-25.51.62-.42-4-.25-2.41-.68-6.39,7.54-1.4,17.62-.26,26.19-.63Z" transform="translate(-165.25 -223.89)"/>
    <path class="cls-3" d="M999.34,398.49c-8.21,1.1-18.4.21-26.56,1.37-1-1.5-1-6.34,0-7.83,9.36.45,17.19-.64,26.09-.65C999.17,395.84,999,394,999.34,398.49Z" transform="translate(-165.25 -223.89)"/>
    <path class="cls-3" d="M998.5,401.13v2c-.69,2.43-4.51,1.25-6.52,1.3-2.64.08-5.36-.11-7.83,0-4.54.21-9.77,2.29-12.39-.65.23-3.56,6.29-1.78,9.78-2,5-.25,10.26-1.15,15-.65Z" transform="translate(-165.25 -223.89)"/>
    <path class="cls-3" d="M967.3,356.16c-3.79,1.44-16.73.28-24.13.65C947,355.38,959.91,356.54,967.3,356.16Z" transform="translate(-165.25 -223.89)"/>
    <path class="cls-3" d="M968.2,358.5c-.18,2.2.52,5.36-.67,6h-26v-6Z" transform="translate(-165.25 -223.89)"/>
    <path class="cls-3" d="M968.5,366.67v7.69c-7.94.61-16.3.8-25,.64v-7.69C948.88,366.23,960.19,366.81,968.5,366.67Z" transform="translate(-165.25 -223.89)"/>
    <path class="cls-3" d="M968.5,376.46v5.72c-8.3-.21-15.17,1-23.58.69-.23-3.62-.15-2.32-.38-5.94C951.48,375.73,960.74,376.84,968.5,376.46Z" transform="translate(-165.25 -223.89)"/>
    <path class="cls-3" d="M967.43,384.2c-.18,2.22.5,5.29-.65,6.52-8.07.31-15.78,1-24.44.67-.38-3.81-.26-2.67-.64-6.48C949,383.39,959,384.58,967.43,384.2Z" transform="translate(-165.25 -223.89)"/>
    <path class="cls-3" d="M966.78,399.85c-8.76-.26-15.84,1.17-24.87.65.06-4.54,0-2.63.09-7.17,8.17-.31,16-1,24.78-.65A34.37,34.37,0,0,1,966.78,399.85Z" transform="translate(-165.25 -223.89)"/>
    <path class="cls-3" d="M965.38,401.22l1.29,1.5c-.67,2.24-4.77,2.15-7.34,2.35a78.4,78.4,0,0,1-17.61-.65c0-2.84,4.39-2.39,6.52-2.61,4.81-.49,11.55.38,16.3,0C964.6,401.39,965,401.27,965.38,401.22Z" transform="translate(-165.25 -223.89)"/>
    <path class="cls-3" d="M937.3,356.16c-3.17,1.44-15.41.28-22.17.65C918.31,355.38,930.54,356.54,937.3,356.16Z" transform="translate(-165.25 -223.89)"/>
    <path class="cls-3" d="M937.5,358.5V365c-7.4-.1-17.67.15-23,0V358.5Z" transform="translate(-165.25 -223.89)"/>
    <path class="cls-3" d="M941.93,375.17c-8.78.54-19.1-.47-27.13.81-1.29-1.76-.39-5.7-.66-8.48h27.52C941.83,372.44,941.75,370.23,941.93,375.17Z" transform="translate(-165.25 -223.89)"/>
    <path class="cls-3" d="M937.5,376.34v5.87c-8.14.09-15.33,1.13-24.07.61.13-4.18.07-2.3.21-6.48Z" transform="translate(-165.25 -223.89)"/>
    <path class="cls-3" d="M938,384.85c-.22,2.4.55,5.78-.66,7.18-8.06-.24-15.47.18-22.82.65v-7.17C919.56,384.34,930,385.05,938,384.85Z" transform="translate(-165.25 -223.89)"/>
    <path class="cls-3" d="M937.5,393.42v7.67c-8.17-.29-15.48.28-23,.63v-7.66C922.74,394.41,929.84,393.64,937.5,393.42Z" transform="translate(-165.25 -223.89)"/>
    <path class="cls-3" d="M937.5,402.59v2c-.79,2.42-4.59,1.24-7.17,1.3s-5.84-.07-8.48,0c-3,.09-6.71,2.34-7.83-.65-.59-3.18,3.67-1.86,5.22-2,5-.32,11.49-.34,16.3-.65Z" transform="translate(-165.25 -223.89)"/>
    <path class="cls-3" d="M887.74,356.81c6.09-1.51,15-.22,22.17-.65C904.09,357.57,892.54,356.54,887.74,356.81Z" transform="translate(-165.25 -223.89)"/>
    <rect class="cls-3" x="722.25" y="134.61" width="22" height="7"/>
    <path class="cls-3" d="M909.5,367.5v9H886c.28-2.95-.67-7.13.69-9Z" transform="translate(-165.25 -223.89)"/>
    <path class="cls-3" d="M909.5,377v6.52c-7.3.09-13.71,1.07-21.52.65-1.16-1.23-.48-4.3-.65-6.52C894.93,377.68,901.44,376.58,909.5,377Z" transform="translate(-165.25 -223.89)"/>
    <path class="cls-3" d="M909.5,385.51v7.17c-7.75-.35-13.63,1.15-21.52.65-1.21-1.4-.44-4.77-.65-7.17C893.53,384.75,902.24,385.86,909.5,385.51Z" transform="translate(-165.25 -223.89)"/>
    <path class="cls-3" d="M909.5,394.64v7.17c-7.3.09-13.71,1.07-21.52.65.5-3.11-1-4.19-.65-7.17C893.53,393.88,902.24,395,909.5,394.64Z" transform="translate(-165.25 -223.89)"/>
    <path class="cls-3" d="M909.5,403.77v1.3c-1.52,2.55-5.41,1.1-8.48,1.31-4.31.29-9.61,1.66-13,0-.07-2.82,4.24-2.38,6.52-2.61,3.92-.41,9.29.31,13,0Z" transform="translate(-165.25 -223.89)"/>
    <path class="cls-3" d="M883.83,375.33c-7.84-.23-14.06,1.15-22.17.65-1.29-1.76-.39-5.7-.66-8.48h22.18C884.43,369.08,883.59,372.74,883.83,375.33Z" transform="translate(-165.25 -223.89)"/>
    <path class="cls-3" d="M883.5,377.6v6.66c-8.18-.67-16.36,2.12-23.67-.1.1-3.09.09-2.77.2-5.86C866.52,376.73,875.86,378,883.5,377.6Z" transform="translate(-165.25 -223.89)"/>
    <path class="cls-3" d="M884.09,393.63c-7.16.83-15.2.76-23.25.7.24-2.59-.6-6.25.65-7.83h22.18C883.93,391,883.82,389.14,884.09,393.63Z" transform="translate(-165.25 -223.89)"/>
    <path class="cls-3" d="M883.83,395.29c-.24,2.58.6,6.25-.65,7.82a202.62,202.62,0,0,0-21.52.66c-.47-2.82-1.11-4.9,0-7.83C869.26,395.94,875.77,394.84,883.83,395.29Z" transform="translate(-165.25 -223.89)"/>
    <path class="cls-3" d="M882.69,404.5l.89,1c-.47,2.12-4.27,2-6.6,2.23a62.15,62.15,0,0,1-15.65-.65c.39-3.56,7.12-1.77,11.08-2,3.1-.15,6.53-1.21,9.13-.65Z" transform="translate(-165.25 -223.89)"/>
    <path class="cls-3" d="M883.18,356.16c-2,2.83-14.34.59-20.87,1.31C866.78,354.55,876.56,356.94,883.18,356.16Z" transform="translate(-165.25 -223.89)"/>
    <rect class="cls-3" x="696.25" y="134.61" width="22" height="7"/>
    <path class="cls-3" d="M857,376.5H837c-1.1-1.77-1.1-7.23,0-9H857C858.11,369.27,858.11,374.73,857,376.5Z" transform="translate(-165.25 -223.89)"/>
    <path class="cls-3" d="M856.57,384.85c-7.87-.54-13.56,1.09-21.4.57.23-4.59.12-2.52.35-7.11a149.6,149.6,0,0,0,20.39-.63C857.12,379.08,856.35,382.46,856.57,384.85Z" transform="translate(-165.25 -223.89)"/>
    <path class="cls-3" d="M857.09,386.5c-.24,2.59.6,6.25-.65,7.83-6,.31-13.31-.71-18.26.65-1.28-1.76-.39-5.7-.65-8.48Z" transform="translate(-165.25 -223.89)"/>
    <path class="cls-3" d="M857.5,395.94v7.83c-6.86-.34-11.89,1.15-18.91.65-1-1.5-1-6.33,0-7.83C845.59,397.08,850.87,395.83,857.5,395.94Z" transform="translate(-165.25 -223.89)"/>
    <path class="cls-3" d="M856.68,405.82l.85,1.14c-1.17,2.48-5.64,1.34-9.16,1.37s-7.64.48-9.78-.65C839.89,403.87,850.27,406.4,856.68,405.82Z" transform="translate(-165.25 -223.89)"/>
    <path class="cls-3" d="M855.79,356.81c-1.8,1.45-12.82.28-18.26.66C839.32,356,850.35,357.19,855.79,356.81Z" transform="translate(-165.25 -223.89)"/>
    <path class="cls-3" d="M856.64,365.5c-5.32,1.49-13,.58-19.59.82-1.25-1.57-.42-5.24-.66-7.82h19.25C856.22,362.59,856.05,361.41,856.64,365.5Z" transform="translate(-165.25 -223.89)"/>
    <path class="cls-3" d="M833,395.29a126.53,126.53,0,0,0-17.61.65c-1.28-1.76-.38-5.7-.65-8.48,5.86.2,14.5-.27,18.26,0C833.34,388.52,834.33,392.91,833,395.29Z" transform="translate(-165.25 -223.89)"/>
    <path class="cls-3" d="M833.61,404.42c-5.24,1.06-12.06.54-18.26.65-1-1.49-1-6.33,0-7.82a126.41,126.41,0,0,0,17.61-.66C834.21,398.17,833.37,401.84,833.61,404.42Z" transform="translate(-165.25 -223.89)"/>
    <path class="cls-3" d="M834.5,406.38v1.3c-1.09,2.45-5.69,1.18-9.13,1.31-3.6.12-7.45.43-9.13,0,0-2.84,4.63-2.39,7.17-2.61,2.93-.26,6.54.19,9.13,0Z" transform="translate(-165.25 -223.89)"/>
    <path class="cls-3" d="M832.31,366.5H814.05c.24-2.58-.6-6.25.65-7.82,5.66.43,13-.87,17.61.65C833.32,360.66,833.32,365.17,832.31,366.5Z" transform="translate(-165.25 -223.89)"/>
    <path class="cls-3" d="M832.41,376.42c-5.22,1-11.94.5-18,.61-1.29-1.76-.39-5.7-.66-8.48,6.84.76,13.64-1.29,18.92,0C832.51,372.8,832.53,372.17,832.41,376.42Z" transform="translate(-165.25 -223.89)"/>
    <path class="cls-3" d="M832.5,377.5v7.17c-6.47,0-13.79-.22-17.61.65-1.25-1.57-.41-5.24-.65-7.82Z" transform="translate(-165.25 -223.89)"/>
    <path class="cls-3" d="M831.66,356.81c-1.39,1.45-11.95.27-17,.66C816.09,356,826.65,357.2,831.66,356.81Z" transform="translate(-165.25 -223.89)"/>
    <path class="cls-3" d="M810.14,395.94c-6.36-.49-11,.79-17,.65-1.28-1.76-.39-5.69-.65-8.47,6.15.5,10.46-.85,16.3-.66C811.85,387.52,811,394.09,810.14,395.94Z" transform="translate(-165.25 -223.89)"/>
    <path class="cls-3" d="M810.79,397.9c-.24,2.58.6,6.25-.65,7.82-5.57.3-12.42-.68-17,.65-.72-2-1.24-6.6,0-8.47C798.87,398.07,807.17,397.66,810.79,397.9Z" transform="translate(-165.25 -223.89)"/>
    <path class="cls-3" d="M809.89,407l.71,1.15c-1.64,2.72-8.27,1.25-12.49,1.46-2.24.11-4.1,1.25-5.22,0,.09-3.55,5-1.72,7.83-2s5.61-1.12,7.82-.65Z" transform="translate(-165.25 -223.89)"/>
    <path class="cls-3" d="M810.14,366.6c-5.8.07-12.09-.35-17,.65-1.25-1.58-.41-5.24-.65-7.83,5.84,0,10.64-1.09,17-.65C810.73,360.35,809.9,364,810.14,366.6Z" transform="translate(-165.25 -223.89)"/>
    <rect class="cls-3" x="628.25" y="144.61" width="17" height="9"/>
    <path class="cls-3" d="M810.5,379.33v7.17h-17v-7.17C799,379.49,807,379.09,810.5,379.33Z" transform="translate(-165.25 -223.89)"/>
    <path class="cls-3" d="M808.83,356.81c-1.38,1.45-11,.27-15.65.66C794.57,356,804.21,357.2,808.83,356.81Z" transform="translate(-165.25 -223.89)"/>
    <path class="cls-3" d="M771.5,366.38V360.5h18.1c.11,4.34.6,5.35.31,7.5Z" transform="translate(-165.25 -223.89)"/>
    <path class="cls-3" d="M788.62,378a101.78,101.78,0,0,1-16.31.65c-1-1.84-1-7.29,0-9.13H788C789.25,371.26,788.35,375.2,788.62,378Z" transform="translate(-165.25 -223.89)"/>
    <path class="cls-3" d="M790.14,386.5H772.5v-7h17.64C791.29,380.84,791.29,385.16,790.14,386.5Z" transform="translate(-165.25 -223.89)"/>
    <path class="cls-3" d="M788.5,388.11v8.48c-5.94-.5-10,.9-15.65.65-1.29-1.76-.39-5.69-.65-8.47A102.78,102.78,0,0,1,788.5,388.11Z" transform="translate(-165.25 -223.89)"/>
    <path class="cls-3" d="M788.5,398.22V406c-5.77-.34-10.5.37-15.65.65-1-1.66-1-6.81,0-8.47Z" transform="translate(-165.25 -223.89)"/>
    <path class="cls-3" d="M787.71,407.54l.87,1.24c-.93,2.74-6.87,1.35-10.51,1.51-2.38.1-4.23.93-5.22,0,.52-3.69,7-1.6,11.09-2C785.43,408.2,786.58,407.52,787.71,407.54Z" transform="translate(-165.25 -223.89)"/>
    <path class="cls-3" d="M787.31,356.81c-1.17,1.45-10.58.28-15,.66C773.49,356,782.9,357.19,787.31,356.81Z" transform="translate(-165.25 -223.89)"/>
    <path class="cls-3" d="M767.75,397.25c-5.27-.49-8.79.77-13.7.65-1.31-1.95-.36-6.16-.65-9.13,4.57.43,10.86-.86,14.35.65C768.77,390.91,768.77,395.75,767.75,397.25Z" transform="translate(-165.25 -223.89)"/>
    <path class="cls-3" d="M768.5,399.68v7.82c-5.47-.47-9.29.7-14.35.65-1-1.66-1-6.81,0-8.48Z" transform="translate(-165.25 -223.89)"/>
    <path class="cls-3" d="M768.5,409v2c-4.52-.16-11.94.22-14.35,0,.6-4.18,8.64-.92,12.39-2C767.4,408.2,767.57,408.73,768.5,409Z" transform="translate(-165.25 -223.89)"/>
    <path class="cls-3" d="M767.5,365.67c-3.78,1.44-10.15.28-15,.65V358.5h14.35C767.05,361.64,767.58,361.55,767.5,365.67Z" transform="translate(-165.25 -223.89)"/>
    <rect class="cls-3" x="587.25" y="144.61" width="15" height="9"/>
    <path class="cls-3" d="M768.23,386.81c-5.59-.46-9.07,1.18-14.75.62.25-5,.14-2.81.4-7.79,4.83.05,9.71.15,13.69-.65C768.82,380.56,768,384.23,768.23,386.81Z" transform="translate(-165.25 -223.89)"/>
    <path class="cls-3" d="M766.44,356.81c-.54,1.43-9.26.29-13,.66C754,356,762.67,357.18,766.44,356.81Z" transform="translate(-165.25 -223.89)"/>
    <path class="cls-3" d="M748.84,397.9a80,80,0,0,0-13.7.65c-1.31-1.95-.37-6.15-.65-9.13,4.7.23,11.67-.33,14.35,0C749.87,391.09,749.87,396.23,748.84,397.9Z" transform="translate(-165.25 -223.89)"/>
    <path class="cls-3" d="M749.5,399.85v7.83c-5.51-.51-9.12.88-14.35.65-.72-2-1.23-6.6,0-8.48C740.09,400.12,746.47,399.45,749.5,399.85Z" transform="translate(-165.25 -223.89)"/>
    <path class="cls-3" d="M749.5,409.64v1.95c-4.57-.43-10.86.86-14.35-.65C737.42,408,745.08,410.44,749.5,409.64Z" transform="translate(-165.25 -223.89)"/>
    <path class="cls-3" d="M748.84,366.33c-5.3-.3-9.72.28-14.35.65-1.28-1.76-.39-5.7-.65-8.48h14.35C748.23,361.28,749.27,363.06,748.84,366.33Z" transform="translate(-165.25 -223.89)"/>
    <path class="cls-3" d="M749.5,369.05v8.48c-5.36-.36-8.85,1.15-14.35.65a33.12,33.12,0,0,1-.65-9.13Z" transform="translate(-165.25 -223.89)"/>
    <rect class="cls-3" x="569.25" y="155.61" width="15" height="7"/>
    <path class="cls-3" d="M747.53,356.81c1.88,1.1-3.33.52-4.56.66C741.09,356.37,746.3,357,747.53,356.81Z" transform="translate(-165.25 -223.89)"/>
    <path class="cls-3" d="M730.07,389.36c-.29,2.94-.64,6-1.08,9.14h1.48c1-1.84,1-7.29,0-9.13Z" transform="translate(-165.25 -223.89)"/>
    <path class="cls-3" d="M728.6,400.48c-.41,2.58-.9,5.18-1.49,7.77a23.09,23.09,0,0,1,3.39.08v-7.82Z" transform="translate(-165.25 -223.89)"/>
    <path class="cls-3" d="M726.59,410.38c-.15.62-.31,1.23-.48,1.84a30.4,30.4,0,0,1,4.39,0v-2A15.59,15.59,0,0,1,726.59,410.38Z" transform="translate(-165.25 -223.89)"/>
    <path class="cls-3" d="M730.37,386.42c-.06.68-.13,1.38-.2,2.08h.38c.13-4.65.1-3.57.18-6.48C730.62,383.5,730.5,385,730.37,386.42Z" transform="translate(-165.25 -223.89)"/>
    <line class="cls-5" x1="566.25" y1="134.61" x2="944.25" y2="131.61"/>
    <line class="cls-5" x1="565.25" y1="188.61" x2="942.25" y2="175.61"/>
    <line class="cls-5" x1="941.25" y1="130.61" x2="940.25" y2="176.61"/>
    <line class="cls-5" x1="804.25" y1="180.61" x2="807.25" y2="134.61"/>
    <line class="cls-5" x1="776.25" y1="180.61" x2="776.25" y2="134.61"/>
  </g>
  <text class="cls-6" transform="translate(151.9 86.69) rotate(-7.44)">I</text>
  <text class="cls-7" transform="matrix(0.98, 0.19, -0.19, 0.98, 160.31, 83.37)">n</text>
  <text class="cls-8" transform="matrix(0.83, 0.56, -0.56, 0.83, 194.86, 89.94)">f</text>
  <text class="cls-8" transform="translate(217.5 106.26) rotate(47.65)">i</text>
  <text class="cls-8" transform="matrix(0.53, 0.85, -0.85, 0.53, 225.6, 113.67)">n</text>
  <text class="cls-9" transform="translate(245.04 145.71) rotate(61.48)">i</text>
  <text class="cls-10" transform="translate(250.78 156.49) rotate(61.03)">t</text>
  <text class="cls-11" transform="matrix(0.54, 0.84, -0.84, 0.54, 265.14, 182.48)">e</text>
  <text class="cls-8" transform="translate(279.92 204.98) rotate(52.35)"> </text>
  <text class="cls-12" transform="matrix(0.67, 0.74, -0.74, 0.67, 291.1, 219.39)"> </text>
  <text class="cls-13" transform="translate(303.76 233.95) rotate(40.69)">M</text>
  <text class="cls-14" transform="matrix(0.82, 0.57, -0.57, 0.82, 333.66, 260)">e</text>
  <text class="cls-15" transform="translate(358.88 276.68) rotate(21.27)">l</text>
  <text class="cls-16" transform="translate(381.72 285.26) rotate(4.75)">o</text>
  <text class="cls-17" transform="translate(417.15 287.35) rotate(-11.17)">d</text>
  <text class="cls-18" transform="translate(452.42 279.57) rotate(-24.29)">y</text>
  <g class="cls-2">
    <path d="M518,373.1c2.33-36,46.46-52.08,76.82-39.56a58.55,58.55,0,0,1,35.38,41.3c4.89,22.13-3.89,46.58-22.33,60.06-17.16,12.37-40.06,12.11-59.43,6.23-39.59-11.21-56.86-50.86-75.4-83.37-12.88-22.91-27.84-44.89-46.93-63-4.14-4-8.63-7.9-13.06-11.62-15.34-12.91-30.66-25.94-49.52-31.67-59.72-17.05-125.2,20.53-154.11,72.87A133.52,133.52,0,0,0,193.12,404c3.91,35.62,26.74,66.75,55.58,87.09,20.15,15.12,42.29,25.25,67.58,27.16,32.72,2.49,65.48-9.58,91.2-29.61,2.12-1.75,4.31-3.41,6.34-5.26s4-3.77,6.38-5.22a40,40,0,0,1,8.12-3.68l2.22-.84a5.79,5.79,0,0,1,3.57-.41,43.36,43.36,0,0,1,8.6,2.1,22.15,22.15,0,0,1,2.45,5c.57,1.86,1.56,3.88,1.29,5.82-.48,1.79-.75,2.25-1.23,3.8a32.8,32.8,0,0,1-4.51,9.37c-4.11,5.25-9.64,9.11-14.75,13.3-31.69,24.21-71.88,38.24-112,34.8-30-2.37-58.44-15.12-82-33.25-32.28-23.2-57.42-57.68-64.71-97.29-.61-5-1.42-10-1.62-15-.1-1.68-.3-5.8-.38-7.43s.1-5.8.1-7.45c1.65-79.73,67.9-150.36,146-161.65,19.59-2.76,40.29-1.75,59.21,4.56,18.76,6.12,35,18.25,49.52,31,9.34,8.1,19,16.56,27.34,25.71,17.3,18.59,31,40.12,42.57,61.74,11.37,20.44,20.92,42.9,36.61,59.68,16.53,18.14,51.08,28.26,72.29,14.17,13.75-9.54,20.75-28.09,17.47-44.47a45.2,45.2,0,0,0-13.22-23.63c-11.48-11.09-29.42-14.85-44.88-10.8-10.67,2.76-19.92,8.82-27.79,16.58a100.4,100.4,0,0,0-8.39,10c-.84,1.24-1.72,2.48-2.68,3.74Z" transform="translate(-165.25 -223.89)"/>
    <line class="cls-3" x1="903.25" y1="131.61" x2="904.25" y2="176.61"/>
    <line class="cls-3" x1="905.25" y1="131.61" x2="906.25" y2="178.61"/>
    <line class="cls-3" x1="862.25" y1="134.61" x2="906.25" y2="134.61"/>
    <line class="cls-3" x1="871.25" y1="142.61" x2="871.25" y2="140.61"/>
    <line class="cls-3" x1="871.25" y1="133.61" x2="871.25" y2="131.61"/>
    <line class="cls-3" x1="872.25" y1="135.61" x2="872.25" y2="143.61"/>
  </g>
</svg>
