<svg id="Capa_4" data-name="Capa 4" xmlns="http://www.w3.org/2000/svg" width="288" height="464.91" viewBox="0 0 288 464.91">
  <defs>
    <style>
      .cls-1 {
        fill: #003235;
      }

      .cls-2 {
        fill: #fff;
      }
    </style>
  </defs>
  <title>telefono</title>
  <g>
    <path class="cls-1" d="M318.36,145.64h-1V74.33c0-18.76-18.72-34-41.81-34H78.41c-23.09,0-41.81,15.2-41.81,34V100.8h-1A2.43,2.43,0,0,0,33,103v14.22a2.43,2.43,0,0,0,2.64,2.15h1v15.59h-1A2.43,2.43,0,0,0,33,137.06v28.85a2.43,2.43,0,0,0,2.64,2.14h1v9.75h-1A2.43,2.43,0,0,0,33,180v28.84a2.43,2.43,0,0,0,2.64,2.15h1V471.33c0,18.75,18.72,34,41.81,34H275.59c23.09,0,41.81-15.21,41.81-34V200.22h1a2.43,2.43,0,0,0,2.64-2.15V147.78A2.43,2.43,0,0,0,318.36,145.64ZM301.8,471c0,10.89-10.87,19.72-24.27,19.72H78.87c-13.4,0-24.27-8.83-24.27-19.72V72c0-10.88,10.87-19.71,24.27-19.71h29.59c.85.39,1.31,1.27,1.34,2.7-.26,8.84,4.91,13.07,14.4,13.65H234.6c9.78-1.17,15.57-5,14.4-13.65a2.45,2.45,0,0,1,1.46-2.7h27.07c13.4,0,24.27,8.83,24.27,19.71Z" transform="translate(-33 -40.37)"/>
    <rect class="cls-2" x="127.2" y="11.66" width="38.4" height="4.52" rx="1.42"/>
    <circle class="cls-2" cx="176.91" cy="12.34" r="3.43"/>
  </g>
</svg>
